<svg width="57" height="59" viewBox="0 0 57 59" fill="none" xmlns="http://www.w3.org/2000/svg">
<path d="M11.242 32.6682C10.217 35.6246 9.92089 38.6034 9.68173 41.6947C9.60201 38.7945 9.40842 35.9168 8.56566 33.0954C9.47675 33.0392 10.3878 32.893 11.242 32.6682Z" fill="#FACCE5"/>
<path d="M23.053 14.4355C24.5791 14.2331 26.1052 14.0195 27.6313 13.7947C21.0486 15.3685 13.9649 19.6962 7.94029 18.1675C7.67835 18.1 7.33668 18.1562 7.15446 18.3698C6.52809 19.078 5.85615 19.7299 5.16145 20.3594C4.14785 18.2686 3.4759 15.8743 6.63056 15.8406C8.40719 15.8293 10.1838 15.7282 11.9605 15.6045C15.6732 15.3685 19.3631 14.9188 23.053 14.4355Z" fill="#FACCE5"/>
<path d="M44.8166 47.7647C45.1583 49.0911 43.4386 49.3947 42.1516 49.6307C43.3133 44.0552 39.0995 37.8278 37.0495 31.7239C41.8214 29.3409 43.8713 22.4389 40.4205 17.7964C37.6303 14.0532 34.3504 13.0303 30.8313 13.2776C34.4529 12.6706 38.0745 11.9624 41.6277 11.1193C42.4819 18.2236 42.368 25.4065 42.7097 32.5558C42.8577 35.7931 43.188 39.0193 43.6436 42.2342C43.9055 44.1114 44.3383 45.9437 44.8166 47.7647Z" fill="#FACCE5"/>
<path d="M49.2234 3.44183C53.4828 5.3303 55.6694 10.0178 54.8722 14.4354C54.1433 18.5159 50.9431 20.854 47.3329 22.1692C47.5265 21.8095 47.7429 21.4497 48.0162 21.1013C50.4079 18.1 52.4692 16.7286 52.3439 12.5919C52.2528 9.74799 50.6014 6.99395 48.2554 5.44271C43.1077 2.02547 35.0673 6.79162 29.9537 7.97191C27.3799 8.56768 24.1797 8.34286 21.0137 8.32038C30.4093 5.28533 40.0555 -0.604898 49.2234 3.44183Z" fill="#FBBE3A"/>
<path d="M54.3253 5.09427C59.4843 11.7601 56.6713 19.7749 50.2254 23.3383C52.9359 30.4538 61.1926 43.6506 49.7356 46.607C49.5078 46.6632 49.3142 46.6407 49.132 46.5845C48.6765 47.0116 48.1298 47.4276 47.4579 47.7985C47.2415 47.9109 47.0251 47.9559 46.8315 47.9446C46.9226 48.3268 47.0023 48.7202 47.1048 49.1024C47.2187 49.5408 46.9682 50.1028 46.4784 50.204C44.9182 50.4963 43.5515 51.227 41.9799 51.4518C41.8318 51.4743 41.6952 51.463 41.5699 51.4293C40.9208 52.8681 39.8503 54.2508 38.1875 55.5772C35.1467 59.3766 27.6871 59.1631 23.61 58.8371C19.7492 58.5336 10.5472 58.9832 9.46523 53.7787C9.24885 52.7782 9.15776 51.7553 9.13498 50.7099C7.74557 44.8983 8.57695 38.8845 7.00531 33.1066C5.54756 32.9942 4.14673 32.5558 2.99647 31.5891C1.14012 30.0379 -0.98957 26.8567 0.502347 24.35C1.09456 23.3495 1.90315 22.7987 2.84841 22.5289C2.87119 22.4952 2.88258 22.4615 2.91674 22.4278C3.38368 21.9781 3.862 21.5397 4.34033 21.1126C3.19007 19.1679 2.70036 17.4705 2.49537 15.1324C2.4612 14.7277 2.85982 14.413 3.22426 14.413C5.18311 14.3568 7.11917 14.2556 9.04386 14.1207C8.96414 13.9409 8.94136 13.7273 9.04386 13.5137C9.95495 11.4679 11.3558 10.2201 13.0413 9.45575C13.0185 9.24217 13.1096 9.00612 13.3715 8.9724C24.7716 7.42115 44.4285 -7.68664 54.3253 5.09427ZM54.8722 14.4354C55.6694 10.0178 53.4828 5.3303 49.2234 3.44183C40.0555 -0.604898 30.4093 5.28533 21.0137 8.32038C24.1797 8.34286 27.3799 8.56768 29.9537 7.97191C35.0673 6.79162 43.1077 2.02547 48.2554 5.44271C50.6014 6.99395 52.2528 9.74799 52.3439 12.5919C52.4692 16.7286 50.4079 18.1 48.0162 21.1013C47.7429 21.4497 47.5265 21.8095 47.3329 22.1692C50.9431 20.854 54.1433 18.5159 54.8722 14.4354ZM50.7606 43.8642C57.8216 40.3683 49.8495 30.1952 48.984 23.9565C48.2209 24.2825 47.4123 24.5523 46.5696 24.7546C45.9887 30.8359 52.1272 38.491 50.7606 43.8642ZM50.2595 14.9975C51.0225 10.4787 48.3918 5.93734 43.4377 6.31953C38.4722 6.69048 34.042 9.37706 29.1335 9.80422C23.405 10.2988 13.6221 7.94946 10.3763 14.0083C21.0703 13.1652 31.5821 11.1868 42.1508 9.23092C42.5721 9.15223 43.153 9.34334 43.2213 9.83794C43.8477 14.2444 44.121 18.6845 44.326 23.1134C44.4285 23.0572 44.531 23.001 44.6677 22.9673C44.7018 22.9561 44.7246 22.9561 44.7587 22.9448C44.8498 22.6189 44.9296 22.3041 45.0549 21.9781C46.1026 19.314 49.7698 17.8639 50.2595 14.9975ZM46.3532 45.7751C51.0795 42.9986 46.6948 34.6803 45.6357 31.0383C45.0435 29.0261 44.4627 26.9578 44.5082 24.9007C44.4741 24.8783 44.4399 24.867 44.4057 24.8446C44.7132 31.8589 44.9751 38.8732 46.3532 45.7751ZM42.1516 49.6307C43.4386 49.3947 45.1583 49.0911 44.8166 47.7647C44.3383 45.9437 43.9055 44.1114 43.6436 42.2342C43.188 39.0193 42.8577 35.7931 42.7097 32.5558C42.368 25.4065 42.4819 18.2236 41.6277 11.1193C38.0745 11.9624 34.4529 12.6706 30.8313 13.2776C34.3504 13.0303 37.6303 14.0532 40.4205 17.7964C43.8713 22.4389 41.8214 29.3409 37.0495 31.7239C39.0995 37.8278 43.3133 44.0552 42.1516 49.6307ZM36.5133 29.1048C38.9391 27.9245 40.8866 26.126 40.5677 22.9223C39.9299 16.3576 32.1629 13.8959 26.5597 15.7282C22.6306 16.9984 18.8153 19.2241 14.7268 19.9323C13.2463 20.1908 11.743 20.4606 10.2397 20.247C8.23525 19.9772 6.94836 20.4606 5.65005 21.3599C5.72977 21.7758 5.27421 22.0793 4.92116 21.8994C4.75033 22.0456 4.56814 22.1804 4.38593 22.3266C4.85286 22.3266 5.34253 22.3603 5.83224 22.4278C9.60189 22.9224 12.5516 23.5293 16.3098 22.3266C21.0703 20.7978 31.7187 14.6153 36.1034 19.966C38.5178 22.9111 38.4608 26.5981 36.5133 29.1048ZM39.5769 51.9464C42.7202 45.7751 37.4586 38.9744 35.1923 32.3872C34.4065 32.5558 33.5865 32.6345 32.7096 32.5558C35.3517 38.4685 40.4538 45.2243 39.5769 51.9464ZM24.9539 57.5443C32.3565 57.8029 40.5222 55.7458 37.1056 46.5507C35.2834 41.6834 32.4248 37.3107 30.4888 32.4996C30.3065 32.0387 30.4774 31.6903 30.7735 31.4879C30.3976 31.0046 30.4432 30.2065 31.2176 30.0716C39.4744 28.6215 36.4678 18.0326 28.7691 19.9885C24.6805 21.0226 20.7742 22.6188 16.7084 23.7317C14.1346 24.4399 11.8682 24.9007 9.23744 24.4061C7.58609 24.0914 5.78673 23.5631 4.10121 23.7879C2.03986 27.5648 2.79147 29.903 6.33335 30.7798C7.06222 30.9371 7.79108 31.0833 8.51995 31.2294C9.70438 31.3081 10.866 31.1844 12.0163 30.8697C12.8818 30.6786 13.269 31.7689 12.654 32.2073C11.6632 38.4573 9.84105 45.8088 10.5244 52.0588C11.1735 57.9041 20.4553 57.387 24.9539 57.5443ZM27.6302 13.7947C26.1041 14.0195 24.578 14.2331 23.0519 14.4355C19.362 14.9188 15.6721 15.3685 11.9594 15.6045C10.1827 15.7282 8.4061 15.8293 6.62946 15.8406C3.4748 15.8743 4.14676 18.2686 5.16035 20.3594C5.85506 19.7299 6.52699 19.078 7.15337 18.3698C7.33559 18.1562 7.67725 18.1 7.93919 18.1675C13.9638 19.6962 21.0475 15.3685 27.6302 13.7947ZM9.68173 41.6947C9.92089 38.6034 10.217 35.6246 11.242 32.6682C10.3878 32.893 9.47675 33.0392 8.56566 33.0954C9.40842 35.9168 9.60201 38.7945 9.68173 41.6947Z" fill="#1D1D1B"/>
<path d="M48.984 23.9565C49.8495 30.1952 57.8216 40.3683 50.7606 43.8642C52.1272 38.491 45.9887 30.8359 46.5696 24.7546C47.4123 24.5523 48.2209 24.2825 48.984 23.9565Z" fill="#FBBE3A"/>
<path d="M43.4377 6.31953C48.3918 5.93734 51.0225 10.4787 50.2595 14.9975C49.7698 17.8639 46.1026 19.314 45.0549 21.9781C44.9296 22.3041 44.8498 22.6189 44.7587 22.9448C44.7246 22.9561 44.7018 22.9561 44.6677 22.9673C44.531 23.001 44.4285 23.0572 44.326 23.1134C44.121 18.6845 43.8477 14.2444 43.2213 9.83794C43.153 9.34334 42.5721 9.15223 42.1508 9.23092C31.5821 11.1868 21.0703 13.1652 10.3763 14.0083C13.6221 7.94946 23.405 10.2988 29.1335 9.80422C34.042 9.37706 38.4722 6.69048 43.4377 6.31953Z" fill="#FCDA7A"/>
<path d="M45.6357 31.0383C46.6948 34.6803 51.0795 42.9986 46.3532 45.7751C44.9751 38.8732 44.7132 31.8589 44.4057 24.8446C44.4399 24.867 44.4741 24.8783 44.5082 24.9007C44.4627 26.9578 45.0435 29.0261 45.6357 31.0383Z" fill="#FCDA7A"/>
<path d="M40.5677 22.9223C40.8866 26.126 38.9391 27.9245 36.5133 29.1048C38.4608 26.5981 38.5178 22.9111 36.1034 19.966C31.7187 14.6153 21.0703 20.7978 16.3098 22.3266C12.5516 23.5293 9.60189 22.9224 5.83224 22.4278C5.34253 22.3603 4.85286 22.3266 4.38593 22.3266C4.56814 22.1804 4.75033 22.0456 4.92116 21.8994C5.27421 22.0793 5.72977 21.7758 5.65005 21.3599C6.94836 20.4606 8.23525 19.9772 10.2397 20.247C11.743 20.4606 13.2463 20.1908 14.7268 19.9323C18.8153 19.2241 22.6306 16.9984 26.5597 15.7282C32.1629 13.8959 39.9299 16.3576 40.5677 22.9223Z" fill="#FBBE3A"/>
<path d="M35.1923 32.3872C37.4586 38.9744 42.7202 45.7751 39.5769 51.9464C40.4538 45.2243 35.3517 38.4685 32.7096 32.5558C33.5865 32.6345 34.4065 32.5558 35.1923 32.3872Z" fill="#FBBE3A"/>
<path d="M37.1056 46.5507C40.5222 55.7458 32.3565 57.8029 24.9539 57.5443C20.4553 57.387 11.1735 57.9041 10.5244 52.0588C9.84105 45.8088 11.6632 38.4573 12.654 32.2073C13.269 31.7689 12.8818 30.6786 12.0163 30.8697C10.866 31.1844 9.70438 31.3081 8.51995 31.2294C7.79108 31.0833 7.06222 30.9371 6.33335 30.7798C2.79147 29.903 2.03986 27.5648 4.10121 23.7879C5.78673 23.5631 7.58609 24.0914 9.23744 24.4061C11.8682 24.9007 14.1346 24.4399 16.7084 23.7317C20.7742 22.6188 24.6805 21.0226 28.7691 19.9885C36.4678 18.0326 39.4744 28.6215 31.2176 30.0716C30.4432 30.2065 30.3976 31.0046 30.7735 31.4879C30.4774 31.6903 30.3065 32.0387 30.4888 32.4996C32.4248 37.3107 35.2834 41.6834 37.1056 46.5507Z" fill="#FCDA7A"/>
</svg>
