<svg width="50" height="50" viewBox="0 0 50 50" fill="none" xmlns="http://www.w3.org/2000/svg">
<path d="M2.43555 29.2664C2.43555 29.2664 13.5105 33.1899 17.9007 32.8072C22.2909 32.4246 38.6039 30.6062 41.5474 29.1704C44.4908 27.7347 48.1322 26.2031 48.1322 26.2031C48.1322 26.2031 47.9823 36.2522 43.2431 41.8033C38.504 47.3544 27.479 52.4749 15.0572 46.3972C2.63552 40.3196 3.2834 35.6777 2.88447 34.3859C2.48554 33.0949 2.43555 29.2664 2.43555 29.2664Z" fill="#CA9E67"/>
<path d="M46.8824 25.7243C46.8824 25.7243 35.6075 32.1846 24.1835 32.2325C12.7596 32.2805 5.32601 30.0315 5.32601 30.0315C5.32601 30.0315 3.2304 27.4957 4.02925 26.2508C4.82711 25.0069 6.27382 24.6243 6.27382 24.6243C6.27382 24.6243 5.22603 23.1406 5.92489 22.5191C6.62277 21.8967 8.71839 21.8008 8.71839 21.8008L9.01734 18.3078L13.8565 13.2833C13.8565 13.2833 14.7043 9.83736 15.8021 9.79035C16.8999 9.74334 18.9945 10.8913 18.9945 10.8913C18.9945 10.8913 20.3913 10.3169 21.988 10.4128C23.5847 10.5087 24.8814 10.6516 24.8814 10.6516C24.8814 10.6516 27.376 8.7373 28.2239 8.7373C29.0717 8.7373 29.6705 8.73729 29.6705 9.35972C29.6705 9.98215 29.9695 10.4128 29.9695 10.4128C29.9695 10.4128 32.6631 10.0301 34.2098 10.6516C35.7565 11.274 37.8021 12.422 39.0488 13.7619C40.2956 15.1017 42.1423 16.9201 42.1423 16.9201C42.1423 16.9201 43.838 16.5854 44.1879 17.6854C44.5369 18.7864 44.9367 19.312 44.9367 19.312C44.9367 19.312 46.6325 20.1253 46.7325 21.3222C46.8324 22.5182 46.8824 25.7243 46.8824 25.7243Z" fill="#F6F6F6"/>
<path d="M49.9085 10.4161C50.1143 10.6888 49.9477 11.0837 49.683 11.2435C47.2816 12.7009 45.4095 14.6377 43.6844 16.7344C44.0863 16.8097 44.4685 16.9319 44.792 17.1763C45.4683 17.7029 45.6251 18.5115 45.6839 19.3013C47.6835 20.5612 47.8305 22.5074 47.409 24.6417C47.8795 24.5571 48.35 24.7546 48.6048 25.093C49.2615 24.9332 49.9967 25.2435 49.9477 26.0897C49.1636 38.228 42.42 50.1124 28.2565 49.9996C17.3079 49.9055 -0.344978 42.0359 1.96823 29.1548C1.96823 29.1454 1.96823 29.1454 1.96823 29.136C1.51735 28.7035 2.06623 27.9513 2.71314 28.2334C3.0464 28.3744 3.37968 28.5155 3.71294 28.6471C3.25226 28.0924 2.91898 27.4812 2.98759 26.8324C3.13461 25.3845 4.24222 24.8486 5.35962 24.1716C5.08517 23.1374 4.94795 21.7458 6.16337 21.3227C6.99652 21.0407 8.31974 21.2005 9.18229 21.3603C9.55475 21.4262 9.70179 21.9715 9.40774 22.2065C8.87845 22.6579 8.25111 22.6672 7.57479 22.6672C7.36895 22.6672 6.95728 22.6108 6.78085 22.7331C6.61422 22.8459 6.9965 24.134 7.03571 24.3032C7.12392 24.6887 6.91809 25.1306 6.48681 25.2341C5.48704 25.4597 3.94817 26.3247 4.62449 27.5C5.03616 28.1958 5.56544 28.8351 6.07513 29.4651C6.08493 29.4839 6.09473 29.5027 6.10453 29.5215C12.4953 31.6182 19.4349 32.0789 26.1393 31.2985C33.471 30.4429 39.3814 27.9137 45.9486 25.1964C45.9094 25.093 45.8897 24.9802 45.9191 24.8486C46.2132 22.9963 46.5171 21.3791 44.5568 20.3637C44.3215 20.2415 44.1745 19.9876 44.1745 19.7338C44.1549 18.361 43.6746 18.1636 42.763 17.8815C42.0279 18.8123 41.3123 19.762 40.587 20.7022C40.7928 20.7304 40.9987 20.8056 41.1261 20.9842C41.6652 21.6706 42.518 22.1219 42.7728 22.9963C42.9003 23.4288 43.0669 24.1058 42.6944 24.4631C42.3121 24.8298 41.7338 25.2059 41.234 25.4127C40.5674 25.7042 39.7735 25.817 39.2344 25.2059C38.8129 24.7357 38.5483 24.1622 38.1856 23.6357C36.8526 25.1494 35.4019 26.5504 33.6768 27.6974C33.4808 27.8197 33.2063 27.8009 33.0103 27.6974C32.2065 27.2555 31.8145 26.682 31.246 25.9768C30.9617 25.6289 31.1382 25.1965 31.442 25.0272C34.2943 20.5329 36.6076 15.5498 39.9009 11.3281C42.8611 7.54845 46.6739 6.17572 49.9085 10.4161ZM48.2324 10.6888C48.8597 10.3127 46.2916 8.89298 45.8505 8.90238C44.2234 8.94939 42.8904 10.2657 41.9396 11.4316C39.3814 14.5437 37.6171 18.22 35.647 21.6706C35.1079 22.6202 34.2453 24.6699 33.0299 25.5819C35.1765 25.6948 38.8717 21.1159 41.724 17.4208C41.43 17.0353 41.7142 16.3865 42.3416 16.5182C42.3612 16.5276 42.3906 16.5276 42.4102 16.537C43.6158 14.9762 44.6057 13.6787 45.184 13.1334C46.125 12.259 47.115 11.3564 48.2324 10.6888ZM29.5111 47.837C41.7044 46.784 46.0858 37.3253 47.5561 26.9923C41.9103 31.2985 32.9907 33.0379 26.1393 33.6021C18.2097 34.2696 9.91742 33.555 2.90919 29.7001C4.04619 41.2179 18.1117 48.8337 29.5111 47.837ZM40.1557 24.1904C40.4302 24.4819 41.0183 24.0212 41.4006 23.6921C41.1947 22.8459 40.2832 22.4134 39.8911 21.5954C39.5873 21.9903 39.2638 22.3758 38.9403 22.7707C39.3814 23.2126 39.7245 23.7297 40.1557 24.1904Z" fill="#1D1D1B"/>
<path d="M45.848 8.90239C46.289 8.89299 48.8571 10.3127 48.2298 10.6888C47.1124 11.3564 46.1224 12.259 45.1815 13.1334C44.6032 13.6787 43.6132 14.9762 42.4076 16.537C42.388 16.5276 42.3586 16.5276 42.339 16.5182C41.7117 16.3865 41.4274 17.0353 41.7215 17.4208C38.8692 21.1159 35.1739 25.6948 33.0273 25.582C34.2428 24.6699 35.1053 22.6202 35.6444 21.6706C37.6145 18.22 39.3788 14.5437 41.9371 11.4316C42.8878 10.2657 44.2209 8.9494 45.848 8.90239Z" fill="#FCDA7A"/>
<path d="M38.2607 12.5594C38.4371 12.9543 38.1431 13.5749 37.604 13.3774C36.3396 12.9167 35.4574 11.8543 34.095 11.5252C32.7521 11.1867 31.4093 11.1961 30.0273 11.2713C29.8313 11.2807 29.694 11.1961 29.596 11.0833C29.0079 10.6038 29.0177 10.1995 28.9197 9.55072C27.6847 9.9268 26.5281 10.1619 25.5871 11.2337C25.4107 11.4406 25.1068 11.4688 24.852 11.4218C22.676 11.0269 22.0683 10.9893 19.9119 11.8825C19.5786 12.0235 19.2748 12.0047 18.9905 11.7697C16.7655 9.8422 15.1679 11.2713 14.4425 13.4903C14.3837 13.6407 14.2563 13.7347 14.1093 13.7723C15.6579 16.4614 17.0008 19.2538 18.0398 22.1873C18.3338 23.0147 17.1184 23.372 16.6871 22.7138C16.6479 22.7044 16.6185 22.7044 16.5793 22.6856C14.3249 21.5856 12.3254 20.006 10.5022 18.1726C10.6199 18.4546 10.6885 18.7649 10.7473 19.0376C10.8551 19.6205 10.2572 19.9308 9.84551 19.7239C9.73769 20.1282 9.63967 20.5231 9.57106 20.9368C9.48285 21.4446 8.58108 21.4446 8.49287 20.9368C8.39485 20.2975 8.29684 19.6487 8.37525 19C8.42426 18.5957 8.56148 18.0315 8.92414 17.7495C9.19859 17.5426 9.56127 17.4298 9.88472 17.5238C5.97383 13.3492 2.93529 8.00877 0.102587 3.66493C-0.0738446 3.40167 -0.015039 3.01617 0.220203 2.79992C1.3474 1.75627 2.406 0.881854 3.71943 0.0920662C4.06249 -0.114783 4.42516 0.0544572 4.6506 0.327122C7.85577 4.35128 10.9825 8.48828 13.5996 12.8885C13.7466 11.5064 14.2073 9.66355 15.7364 9.23104C16.4813 9.02419 17.0302 9.05241 17.7849 9.24045C18.4808 9.40969 19.3532 10.538 20.1471 10.2089C21.9114 9.48491 22.5878 9.53193 24.4011 9.86101C24.9696 9.96443 25.8027 8.86438 26.3908 8.69514C27.371 8.41307 28.3218 8.30023 29.2725 7.91474C29.6254 7.7737 30.1057 8.06519 30.1841 8.40367C30.2135 8.55411 30.3899 9.52253 30.4781 10.0679C33.1344 9.58834 37.0845 9.89861 38.2607 12.5594ZM16.0696 21.2565C14.3543 17.0819 12.1881 13.1236 9.61028 9.3721C8.18903 7.31301 6.72856 5.29153 5.21909 3.28885C3.67042 1.23916 1.2004 2.6777 2.63145 4.7838C6.62075 10.7072 10.7277 16.4144 16.0696 21.2565Z" fill="#1D1D1B"/>
<path d="M30.8886 15.8679C31.2219 16.1876 31.8688 16.6201 31.8198 17.1372C31.7707 17.7013 31.7316 17.9646 31.2317 18.3407C30.624 18.792 29.9182 19.1117 29.3399 19.6006C29.0361 19.8639 28.6342 19.798 28.399 19.4878C27.8207 18.7168 27.311 17.9928 26.8699 17.1842C26.7621 17.1936 26.6445 17.1936 26.5366 17.1654C25.9975 17.0338 25.8897 16.3098 26.3504 16.0278C26.3602 15.7551 26.6641 15.567 26.8895 15.6987C27.4384 15.3414 27.9187 14.9371 28.4088 14.467C28.6832 14.2037 29.1537 14.2037 29.4281 14.467C29.9182 14.9371 30.3985 15.4072 30.8886 15.8679ZM30.4181 17.3629C29.8986 16.921 29.4086 16.4415 28.9185 15.9525C28.5656 16.3098 28.1539 16.6765 27.7227 16.9304C28.0755 17.4757 28.4676 17.9928 28.938 18.4347C29.4281 18.068 29.9476 17.7484 30.4181 17.3629Z" fill="#1D1D1B"/>
<path d="M24.0779 17.5426C24.274 18.7931 23.5683 19.7991 22.7939 20.7488C22.5587 21.0402 22.0392 20.9838 21.7843 20.7488C21.3922 20.3727 20.6571 19.4231 20.0788 19.3478C19.5593 19.282 19.1967 18.8213 19.4711 18.3324C19.9024 17.5614 20.5591 16.9127 20.6767 16.0194C20.7552 15.4365 21.5883 15.3895 21.6765 15.9536C21.7451 15.5023 22.343 15.2015 22.7351 15.5964C23.2154 16.0665 23.9701 16.875 24.0779 17.5426ZM22.2156 19.2162C22.5685 18.7085 22.8625 18.1161 22.5881 17.6084C22.3332 17.1383 21.8137 16.7246 21.6863 16.1887C21.6765 16.9597 21.3922 17.6554 21.0492 18.3324C21.4707 18.5675 21.8627 18.8871 22.2156 19.2162Z" fill="#1D1D1B"/>
<path d="M16.8658 27.1513C16.8854 27.3676 16.7384 27.5838 16.5423 27.6873C15.6994 28.1574 14.484 28.7403 13.6214 27.9881C13.1803 27.6027 13.1019 26.8599 12.6118 26.5684C12.1512 26.2957 12.308 25.7692 12.6805 25.6C12.1218 25.3085 12.2296 24.4341 12.9941 24.3589C13.8763 24.2836 14.7878 24.3965 15.6602 24.3965C16.0424 24.3965 16.3071 24.688 16.3267 25.0264C16.3659 25.7504 16.8266 26.4086 16.8658 27.1513ZM15.5034 26.8317C15.4152 26.4368 15.2681 26.0607 15.1407 25.6752C14.5428 25.7034 13.9449 25.7316 13.347 25.7128C13.7979 25.9949 14.0527 26.4462 14.337 26.8787C14.582 27.2642 15.0721 27.0667 15.5034 26.8317Z" fill="#1D1D1B"/>
<path d="M9.61207 9.37196C12.1899 13.1234 14.3561 17.0818 16.0714 21.2564C10.7295 16.4142 6.62255 10.7071 2.63324 4.78366C1.20219 2.67756 3.67221 1.23902 5.22088 3.28871C6.73035 5.29138 8.19082 7.31287 9.61207 9.37196Z" fill="#FCDA7A"/>
</svg>
