<svg width="13" height="18" viewBox="0 0 13 18" fill="none" xmlns="http://www.w3.org/2000/svg">
<path fill-rule="evenodd" clip-rule="evenodd" d="M6.5 16.65C9.3557 16.65 11.6429 14.4015 11.6429 11.6616C11.6429 9.38496 10.281 6.78027 8.79491 4.64843C8.06651 3.60348 7.33649 2.71143 6.78821 2.08049C6.68514 1.96192 6.58867 1.85273 6.5 1.75367C6.41133 1.85273 6.31486 1.96192 6.21179 2.08049C5.66351 2.71143 4.93349 3.60348 4.20509 4.64843C2.71901 6.78027 1.35714 9.38496 1.35714 11.6616C1.35714 14.4015 3.6443 16.65 6.5 16.65ZM5.91701 1.12476C4.4096 2.79876 0.5 7.53787 0.5 11.6616C0.5 14.8861 3.18629 17.5 6.5 17.5C9.81371 17.5 12.5 14.8861 12.5 11.6616C12.5 7.53787 8.5904 2.79876 7.08299 1.12476C6.72299 0.724965 6.5 0.5 6.5 0.5C6.5 0.5 6.27701 0.724965 5.91701 1.12476Z" fill="#E97C7C"/>
</svg>
