<svg width="46" height="58" viewBox="0 0 46 58" fill="none" xmlns="http://www.w3.org/2000/svg">
<path d="M31.2128 4.68688C31.8467 4.17512 33.1252 4.70776 32.9103 5.75216C30.9657 15.6009 33.1682 26.2016 32.5558 36.1862C32.126 43.1732 31.1806 54.7139 22.8003 57.2727C12.7762 60.3329 3.11743 53.3249 1.08683 43.9461C-1.64213 31.3506 1.54883 18.8281 2.20421 6.22216C1.72073 6.21171 1.26947 5.85661 1.45212 5.27174C4.42819 -4.31591 25.3359 1.49099 31.1806 4.66599C31.1913 4.67643 31.2021 4.67643 31.2128 4.68688ZM24.2937 54.4528C31.5136 49.189 30.7078 36.5935 30.5896 28.8649C30.4715 21.5854 29.526 13.8777 30.6541 6.60858C22.6391 11.2562 10.2621 12.969 3.40752 5.72083C3.48273 16.99 1.08684 28.28 2.37611 39.5387C3.07447 45.6067 4.91165 52.1343 11.4117 54.4424C15.3762 55.8524 20.5548 57.1892 24.2937 54.4528ZM4.42817 4.95842C10.8423 10.5147 21.4036 9.27182 28.6772 5.51195C21.3069 1.9923 11.4547 0.801681 4.42817 4.95842Z" fill="#1D1D1B"/>
<path d="M30.5896 28.8649C30.7078 36.5935 31.5136 49.189 24.2937 54.4528C20.5548 57.1892 15.3762 55.8524 11.4117 54.4424C4.91165 52.1343 3.07447 45.6067 2.37611 39.5387C1.08684 28.28 3.48273 16.99 3.40752 5.72083C10.2621 12.969 22.6391 11.2562 30.6541 6.60858C29.526 13.8777 30.4715 21.5854 30.5896 28.8649ZM18.4922 52.552C29.0213 52.0507 27.9898 29.6273 27.2485 23.1415C27.1411 22.2537 25.884 22.1597 25.7014 22.943C22.0592 17.5644 14.5062 14.9533 8.13504 13.7C8.10281 13.5121 8.08132 13.3241 8.07058 13.1361C8.03835 12.6452 7.35074 12.6556 7.29702 13.1361C7.28627 13.2718 7.28628 13.4076 7.27554 13.5434C7.18959 13.5225 7.09289 13.5016 7.00694 13.4912C7.02843 13.3658 7.03916 13.251 7.06065 13.1361C7.13586 12.4885 6.06146 12.3737 5.91104 12.9794C5.83583 13.3136 5.74988 13.6374 5.67467 13.9716C5.59947 14.1178 5.54576 14.2849 5.55651 14.452C3.53665 22.849 1.84983 31.8101 4.12754 40.2802C5.64244 45.9304 11.9599 52.8653 18.4922 52.552Z" fill="#F6F6F6"/>
<path d="M27.2485 23.1415C27.9898 29.6273 29.0213 52.0507 18.4922 52.552C11.9599 52.8653 5.64244 45.9304 4.12754 40.2802C1.84983 31.8101 3.53665 22.849 5.55651 14.452C5.54576 14.2849 5.59947 14.1178 5.67467 13.9716C5.74988 13.6374 5.83583 13.3136 5.91104 12.9794C6.06146 12.3737 7.13586 12.4885 7.06065 13.1361C7.03916 13.251 7.02843 13.3658 7.00694 13.4912C7.09289 13.5016 7.18959 13.5225 7.27554 13.5434C7.28628 13.4076 7.28627 13.2718 7.29702 13.1361C7.35074 12.6556 8.03835 12.6452 8.07058 13.1361C8.08132 13.3241 8.10281 13.5121 8.13504 13.7C14.5062 14.9533 22.0592 17.5644 25.7014 22.943C25.884 22.1597 27.1411 22.2537 27.2485 23.1415ZM25.3361 36.4786C25.7443 32.4472 25.7551 28.4367 25.6906 24.3948C25.6154 24.4366 25.5509 24.4888 25.465 24.5097C19.7062 25.9928 9.06974 21.8361 7.4689 15.4756C7.23253 15.413 6.99616 15.3607 6.7598 15.3085C5.7821 21.8883 4.31018 28.5725 5.05152 35.2149C5.56722 39.7789 6.99615 44.1864 10.7136 47.2778C12.7871 49.0011 16.7087 52.1969 19.7277 50.5259C24.2187 48.0402 24.8956 40.9278 25.3361 36.4786ZM8.82264 15.7889C11.1971 20.4992 18.707 23.7891 23.8212 23.1729C20.3831 18.8699 14.2698 17.0944 8.82264 15.7889Z" fill="#1D1D1B"/>
<path d="M25.6906 24.3948C25.7551 28.4367 25.7443 32.4472 25.3361 36.4786C24.8956 40.9278 24.2187 48.0402 19.7277 50.5259C16.7087 52.1969 12.7871 49.0011 10.7136 47.2778C6.99615 44.1864 5.56722 39.7789 5.05152 35.2149C4.31018 28.5725 5.7821 21.8883 6.7598 15.3085C6.99616 15.3607 7.23253 15.413 7.4689 15.4756C9.06974 21.8361 19.7062 25.9928 25.465 24.5097C25.5509 24.4888 25.6154 24.4366 25.6906 24.3948Z" fill="#99B815"/>
<path d="M8.82264 15.7889C11.1971 20.4992 18.707 23.7891 23.8212 23.1729C20.3831 18.8699 14.2698 17.0944 8.82264 15.7889Z" fill="#99B815"/>
<path d="M4.42817 4.95842C10.8423 10.5147 21.4036 9.27182 28.6772 5.51195C21.3069 1.9923 11.4547 0.801681 4.42817 4.95842Z" fill="#F6F6F6"/>
<path d="M42.9778 46.4753C42.9932 46.9883 43.0906 47.4899 43.226 47.891C43.226 47.891 43.226 47.891 43.2283 47.8982C41.4072 48.092 39.5178 47.9977 37.7259 47.6477C37.6768 47.6402 37.4237 50.7595 35.9669 51.4087C31.5384 53.3815 25.6122 41.9887 25.5868 41.9334C23.482 37.8854 23.3915 37.1487 24.4616 35.5334C24.7005 35.4775 29.6092 36.3927 29.6715 36.1487C29.681 36.1296 29.6835 36.1128 29.6836 36.0888C32.4796 41.0618 37.4102 45.4573 42.9778 46.4753Z" fill="#F9B700"/>
<path d="M40.8006 31.0999C44.4906 33.4545 46.2365 37.3035 45.9743 41.6878C45.8927 43.0942 45.3671 43.7161 44.6551 43.8503C44.732 43.8964 44.8136 43.9329 44.9072 43.9335C45.1854 43.9522 45.505 44.1006 45.5731 44.4126C45.8643 45.6944 45.7649 47.314 45.2892 48.5331C45.2108 48.7267 45.002 48.8283 44.8054 48.8462C42.3896 49.127 40.1736 48.8867 37.8358 48.3124C38.2832 50.0363 37.3323 51.6693 35.242 51.8972C29.7388 52.4999 24.3829 42.9533 23.4607 38.3189C23.3111 37.5797 24.385 37.1891 24.5719 37.9478C25.1647 40.3246 26.5905 42.6782 27.9343 44.6766C29.3082 46.7208 31.927 50.8681 34.7984 50.6742C39.8648 50.337 33.3186 44.018 32.116 42.6102C30.5442 40.7756 29.0122 38.9437 28.4592 36.5456C27.5181 36.302 26.5698 36.0847 25.6289 35.817C25.2734 35.8002 24.9226 35.7979 24.56 35.8074C24.8208 35.9913 24.9093 36.4161 24.5824 36.6847C20.9583 39.6969 21.9165 42.3662 23.1096 46.3361C23.6799 48.2262 24.1807 50.3627 23.4758 52.3041C21.8111 56.9017 17.329 53.329 15.8267 50.5146C12.2006 43.6905 16.0222 35.7975 22.4011 34.6951C19.6308 31.539 17.213 27.7789 16.269 23.6381C15.7572 21.3937 16.5852 15.9515 20.0291 16.5788C23.4986 17.2134 24.7193 23.7888 26.085 26.3937C26.2721 26.7617 26.4847 27.161 26.7067 27.5651C26.6352 21.9611 35.1712 24.4348 35.9542 28.8765C35.9722 28.982 35.9459 29.0705 35.8823 29.1396C37.6161 29.4294 39.3166 30.1527 40.8006 31.0999ZM43.9426 42.6136C45.429 43.1773 44.1369 36.7932 43.8015 36.2037C42.9874 34.7697 41.9406 33.5092 40.6205 32.5391C37.4846 30.2386 33.3731 29.0291 29.8488 31.0833C29.9297 31.6063 29.9798 32.1795 30.0017 32.762C30.1311 32.6551 30.3022 32.6059 30.5147 32.6624C33.5457 33.4595 35.7301 34.9699 37.8979 37.2351C39.4825 38.89 41.7492 41.7838 43.9426 42.6136ZM43.3895 44.5919C43.1696 44.2429 42.9829 43.8031 42.593 43.3354C42.5791 43.3162 42.5722 43.2946 42.5583 43.2753C42.2111 43.0644 41.8829 42.8153 41.5712 42.5448C37.9357 39.3589 35.0712 35.2219 30.2372 33.9668C30.1368 33.9445 30.0599 33.8985 29.99 33.8501C29.9735 34.2382 29.9476 34.6215 29.8938 34.9903C29.9147 35.0072 29.9427 35.0218 29.9566 35.041C33.7197 39.4837 37.3799 43.9209 43.0348 45.5554C43.1003 45.1988 43.2146 44.8736 43.3895 44.5919ZM43.226 47.891C43.0906 47.4899 42.9932 46.9883 42.9778 46.4753C37.4102 45.4573 32.4796 41.0618 29.6836 36.0888C29.6835 36.1128 29.681 36.1296 29.6715 36.1487C29.6092 36.3927 29.4109 36.6024 29.1719 36.6583C31.1028 40.8441 35.4158 43.445 37.5206 47.493C37.546 47.5483 37.5691 47.5964 37.5945 47.6517C37.639 47.6448 37.6768 47.6402 37.7259 47.6477C39.5178 47.9977 41.4072 48.092 43.2283 47.8982C43.226 47.891 43.226 47.891 43.226 47.891ZM35.1601 29.046C34.161 27.2753 32.9921 25.7286 30.9017 25.2471C28.7342 24.7435 27.2281 25.7807 27.2269 28.1487C27.2194 28.2229 27.198 28.2779 27.1579 28.3232C27.6558 29.1055 28.2524 29.807 29.0032 30.1859C29.227 30.3025 29.4346 30.3926 29.5858 30.5254C31.2735 29.2522 33.2198 28.8651 35.1601 29.046ZM28.6192 33.8695C28.6753 31.6985 28.6814 31.8399 27.4317 30.4797C25.1251 27.9739 24.0732 24.5945 22.7717 21.4819C22.0759 19.833 20.36 15.687 18.1751 18.6011C16.6887 20.5803 17.2453 23.1366 18.1134 25.278C19.4166 28.4937 21.3292 31.5217 23.4496 34.2492C23.5648 34.1469 23.715 34.0808 23.8903 34.094C25.1152 34.2269 26.2965 34.5896 27.4921 34.8997C28.9282 35.2809 28.5744 35.7339 28.6192 33.8695ZM23.9492 35.844C21.1032 36.0932 18.3836 37.4241 16.9159 40.1225C15.808 42.1666 15.259 44.598 15.9154 46.9057C16.5123 49.0261 17.8468 52.0958 20.0164 52.9973C24.7965 54.9878 21.0057 44.3205 20.7378 42.6961C20.2286 39.6776 21.3873 37.3773 23.9492 35.844Z" fill="#1D1D1B"/>
<path d="M43.8015 36.2037C44.1369 36.7932 45.429 43.1773 43.9426 42.6136C41.7492 41.7838 39.4825 38.89 37.8979 37.2351C35.7301 34.9699 33.5457 33.4595 30.5147 32.6624C30.3022 32.6059 30.1311 32.6551 30.0017 32.762C29.9798 32.1795 29.9297 31.6063 29.8488 31.0833C33.3731 29.0291 37.4846 30.2386 40.6205 32.5391C41.9406 33.5092 42.9874 34.7697 43.8015 36.2037Z" fill="#F9B700"/>
<path d="M42.593 43.3354C42.9829 43.8031 43.1696 44.2429 43.3895 44.5919C43.2146 44.8736 43.1003 45.1988 43.0348 45.5554C37.3799 43.9209 33.7197 39.4837 29.9566 35.041C29.9427 35.0218 29.9147 35.0072 29.8938 34.9903C29.9476 34.6215 29.9735 34.2382 29.99 33.8501C30.0599 33.8985 30.1368 33.9445 30.2372 33.9668C35.0712 35.2219 37.9357 39.3589 41.5712 42.5448C41.8829 42.8153 42.2111 43.0644 42.5583 43.2753C42.5722 43.2946 42.5791 43.3162 42.593 43.3354Z" fill="#F9B700"/>
<path d="M30.9017 25.2471C32.9921 25.7286 34.161 27.2753 35.1601 29.046C33.2198 28.8651 31.2735 29.2522 29.5858 30.5254C29.4346 30.3926 29.227 30.3025 29.0032 30.1859C28.2524 29.807 27.6558 29.1055 27.1579 28.3232C27.198 28.2779 27.2194 28.2229 27.2269 28.1487C27.2281 25.7807 28.7342 24.7435 30.9017 25.2471Z" fill="#F9B700"/>
<path d="M27.4317 30.4797C28.6814 31.8399 28.6753 31.6985 28.6192 33.8695C28.5744 35.7339 28.9282 35.2809 27.4921 34.8997C26.2965 34.5896 25.1152 34.2269 23.8903 34.094C23.715 34.0808 23.5648 34.1469 23.4496 34.2492C21.3292 31.5217 19.4166 28.4937 18.1134 25.278C17.2453 23.1366 16.6887 20.5803 18.1751 18.6011C20.36 15.687 22.0759 19.833 22.7717 21.4819C24.0732 24.5945 25.1251 27.9739 27.4317 30.4797Z" fill="#FCDA7A"/>
<path d="M16.9159 40.1225C18.3836 37.4241 21.1032 36.0932 23.9492 35.844C21.3873 37.3773 20.2286 39.6776 20.7378 42.6961C21.0057 44.3205 24.7965 54.9878 20.0164 52.9973C17.8468 52.0958 16.5123 49.0261 15.9154 46.9057C15.259 44.598 15.808 42.1666 16.9159 40.1225Z" fill="#F9B700"/>
</svg>
