<svg width="40" height="40" viewBox="0 0 40 40" fill="none" xmlns="http://www.w3.org/2000/svg">
<path d="M13.9741 38.5V28.8669M13.9741 38.5L13.9775 28.9515C13.9775 28.923 13.9764 28.8948 13.9741 28.8669M13.9741 38.5H2.35278C1.76236 38.5 1.28373 38.0275 1.28373 37.4447V28.9511C1.28373 28.3683 1.76236 27.8958 2.35279 27.8958H12.9084C13.4702 27.8958 13.9307 28.3235 13.9741 28.8669M13.9741 38.5H26.6683M13.9741 28.8669V17.6772C13.9741 17.0944 14.4528 16.6219 15.0432 16.6219H25.5992C26.1897 16.6219 26.6683 17.0944 26.6683 17.6772M26.6683 38.5V17.6772M26.6683 38.5H37.9309C38.5214 38.5 39 38.0275 39 37.4447V3.6765C39 3.0937 38.5214 2.62124 37.9309 2.62124H27.7373C27.1469 2.62124 26.6683 3.0937 26.6683 3.6765V17.6772M1 21.1212L7.83304 11.5909L11.8192 13.8333L21.2973 1.5M21.2973 1.5L13.9971 2.76473M21.2973 1.5L21.6197 8.88555" stroke="#6C6C7D" stroke-width="2" stroke-linecap="round" stroke-linejoin="round"/>
</svg>
