<svg width="40" height="40" viewBox="0 0 40 40" fill="none" xmlns="http://www.w3.org/2000/svg">
<path fill-rule="evenodd" clip-rule="evenodd" d="M19.9766 8C20.5288 8 20.9766 8.44772 20.9766 9V19.207H30.9531C31.5054 19.207 31.9531 19.6547 31.9531 20.207C31.9531 20.7593 31.5054 21.207 30.9531 21.207H20.9766V31.414C20.9766 31.9663 20.5288 32.414 19.9766 32.414C19.4243 32.414 18.9766 31.9663 18.9766 31.414V21.207H9C8.44772 21.207 8 20.7593 8 20.207C8 19.6547 8.44772 19.207 9 19.207H18.9766V9C18.9766 8.44772 19.4243 8 19.9766 8Z" fill="#6C6C7D"/>
<path d="M38.1816 20C38.1816 30.513 29.8389 39 19.5908 39C9.34278 39 1 30.513 1 20C1 9.487 9.34278 1 19.5908 1C29.8389 1 38.1816 9.487 38.1816 20Z" stroke="#6C6C7D" stroke-width="2"/>
</svg>
