<svg width="30" height="30" viewBox="0 0 30 30" fill="none" xmlns="http://www.w3.org/2000/svg">
<path d="M23.2207 30H6.77929C5.77696 30 4.81568 29.6024 4.10693 28.8947C3.39817 28.187 3 27.2271 3 26.2262V24.9779C3 18.9866 8.38322 14.1094 15 14.1094C21.6168 14.1094 27 18.9836 27 24.9779V26.2262C27 27.2271 26.6018 28.187 25.8931 28.8947C25.1843 29.6024 24.223 30 23.2207 30ZM15 15.6219C9.21618 15.6219 4.51172 19.8184 4.51172 24.9809V26.2292C4.51172 26.8298 4.75062 27.4057 5.17587 27.8303C5.60113 28.255 6.17789 28.4935 6.77929 28.4935H23.2207C23.8221 28.4935 24.3989 28.255 24.8241 27.8303C25.2494 27.4057 25.4883 26.8298 25.4883 26.2292V24.9779C25.4883 19.8184 20.7838 15.6219 15 15.6219ZM15 11.8466C13.8267 11.8469 12.6797 11.4998 11.704 10.8491C10.7283 10.1984 9.9677 9.27344 9.51849 8.19112C9.06928 7.1088 8.9516 5.91777 9.18031 4.76866C9.40903 3.61955 9.97387 2.56398 10.8034 1.73544C11.633 0.906894 12.6899 0.342603 13.8407 0.113928C14.9914 -0.114747 16.1842 0.00246644 17.2682 0.450744C18.3522 0.899021 19.2788 1.65823 19.9306 2.63234C20.5825 3.60646 20.9305 4.75173 20.9305 5.92332C20.9293 7.49365 20.3041 8.99934 19.1922 10.1099C18.0804 11.2204 16.5726 11.845 15 11.8466ZM15 1.51102C14.1256 1.51072 13.2708 1.76937 12.5437 2.25425C11.8165 2.73913 11.2497 3.42846 10.915 4.23504C10.5802 5.04162 10.4926 5.92921 10.6631 6.78555C10.8336 7.64188 11.2546 8.42849 11.8729 9.04586C12.4912 9.66323 13.2789 10.0836 14.1365 10.2539C14.9941 10.4242 15.883 10.3366 16.6907 10.0024C17.4985 9.66811 18.1888 9.10214 18.6744 8.37607C19.16 7.64999 19.419 6.79642 19.4187 5.92332C19.4175 4.75347 18.9516 3.63188 18.1232 2.80468C17.2948 1.97747 16.1716 1.51222 15 1.51102Z" fill="#6C6C7D"/>
</svg>
