<svg width="31" height="38" viewBox="0 0 31 38" fill="none" xmlns="http://www.w3.org/2000/svg">
<path d="M25.4575 37.5H4.90575C3.65284 37.5 2.45124 37.0096 1.5653 36.1368C0.679358 35.2639 0.181641 34.0801 0.181641 32.8457V31.306C0.181641 23.9168 6.91067 17.9016 15.1816 17.9016C23.4526 17.9016 30.1816 23.9131 30.1816 31.306V32.8457C30.1816 34.0801 29.6839 35.2639 28.798 36.1368C27.912 37.0096 26.7104 37.5 25.4575 37.5ZM15.1816 19.767C7.95186 19.767 2.07129 24.9426 2.07129 31.3097V32.8494C2.07129 33.59 2.36992 34.3004 2.90148 34.8241C3.43305 35.3478 4.154 35.642 4.90575 35.642H25.4575C26.2093 35.642 26.9302 35.3478 27.4618 34.8241C27.9934 34.3004 28.292 33.59 28.292 32.8494V31.306C28.292 24.9426 22.4114 19.767 15.1816 19.767ZM15.1816 15.1109C13.715 15.1112 12.2812 14.6831 11.0616 13.8806C9.84196 13.0781 8.89127 11.9372 8.32976 10.6024C7.76825 9.26752 7.62114 7.79859 7.90703 6.38135C8.19293 4.96411 8.89898 3.66224 9.93591 2.64037C10.9728 1.6185 12.2941 0.922543 13.7325 0.640511C15.1709 0.358479 16.6619 0.503042 18.0169 1.05592C19.3719 1.60879 20.5301 2.54515 21.3449 3.74656C22.1598 4.94797 22.5947 6.36047 22.5947 7.80543C22.5932 9.74217 21.8118 11.5992 20.4219 12.9688C19.0321 14.3385 17.1474 15.1089 15.1816 15.1109ZM15.1816 2.36359C14.0887 2.36323 13.0202 2.68223 12.1112 3.28025C11.2023 3.87826 10.4938 4.72844 10.0754 5.72322C9.65695 6.718 9.54737 7.8127 9.76051 8.86884C9.97364 9.92499 10.4999 10.8951 11.2728 11.6566C12.0456 12.418 13.0303 12.9365 14.1023 13.1465C15.1743 13.3565 16.2854 13.2485 17.2951 12.8362C18.3048 12.424 19.1677 11.726 19.7747 10.8305C20.3817 9.93499 20.7054 8.88225 20.7051 7.80543C20.7036 6.36262 20.1212 4.97932 19.0856 3.9591C18.0501 2.93888 16.6461 2.36507 15.1816 2.36359Z" fill="#6C6C7D"/>
</svg>
