<svg width="380" height="271" viewBox="0 0 380 271" fill="none" xmlns="http://www.w3.org/2000/svg">
<path opacity="0.7" d="M261.246 252.703C261.246 252.703 328.303 229.733 362.013 193.596C379.5 180 390.754 109.693 353.458 75.2519C298.5 24.5 261.5 48.9999 171.5 16.5C89.5 -13.111 38.5005 0.499893 14.0005 48.9999C-2.99952 93.9999 18.9709 112.842 26.3392 167.035C38.5008 221 102.988 301.204 261.246 252.703Z" fill="#C6C9FF" fill-opacity="0.44"/>
<path d="M54.7532 236.567H17.8804V241.634H54.7532V236.567Z" fill="#553F95"/>
<path d="M54.8148 241.697H17.8167V236.505H54.8148V241.697ZM17.9426 241.571H54.6889V236.631H17.9426V241.571Z" fill="#553F95"/>
<path d="M21.3018 239.947L26.6095 266.131H46.2475L51.3779 241.633L21.3018 239.947Z" fill="#553F95"/>
<path d="M21.3018 263.655L24.1329 267.547H48.0024L51.3779 263.655H21.3018Z" fill="#C6C9FF"/>
<path d="M34.9262 240.712C34.8539 240.712 34.7608 228.582 34.7184 213.621C34.6761 198.656 34.7009 186.528 34.7738 186.528C34.846 186.528 34.9392 198.655 34.9815 213.621C35.0239 228.581 34.9991 240.712 34.9262 240.712Z" fill="#553F95"/>
<path d="M43.1472 210.356C43.1551 210.36 43.1207 210.457 43.0484 210.638C42.962 210.845 42.853 211.104 42.7192 211.424C42.6458 211.597 42.5656 211.785 42.4786 211.989C42.4024 212.202 42.3205 212.432 42.233 212.677C42.1438 212.925 42.0489 213.189 41.949 213.467C41.8502 213.747 41.7728 214.053 41.6763 214.368C41.2737 215.625 40.9535 217.167 40.6452 218.882C40.377 220.606 40.1754 222.516 40.0744 224.528C39.8948 228.556 40.1224 232.209 40.3657 234.84C40.4843 236.157 40.6034 237.221 40.6915 237.955C40.7294 238.3 40.7604 238.58 40.7847 238.802C40.8033 238.996 40.8084 239.099 40.7994 239.1C40.7903 239.101 40.7678 239.001 40.7322 238.81C40.6949 238.589 40.648 238.311 40.5905 237.969C40.4713 237.238 40.3239 236.176 40.1811 234.859C39.8903 232.227 39.6317 228.563 39.8118 224.515C39.9134 222.494 40.1235 220.574 40.4064 218.842C40.7294 217.118 41.071 215.571 41.4984 214.313C41.6012 213.997 41.6853 213.692 41.7909 213.413C41.8982 213.135 41.9998 212.872 42.0958 212.625C42.1907 212.381 42.2799 212.153 42.3629 211.941C42.4538 211.734 42.547 211.55 42.6255 211.382C42.7779 211.07 42.9021 210.816 43.0004 210.615C43.089 210.441 43.1387 210.352 43.1472 210.356Z" fill="#553F95"/>
<path d="M42.2063 200.545C42.2148 200.549 42.1741 200.687 42.0888 200.945C41.9934 201.226 41.8658 201.601 41.7049 202.073C41.6191 202.32 41.5253 202.591 41.4231 202.885C41.3316 203.188 41.2323 203.515 41.1267 203.865C40.911 204.567 40.6608 205.365 40.4389 206.262C40.3209 206.709 40.1973 207.177 40.0691 207.665C39.9584 208.157 39.8427 208.669 39.7235 209.198C39.466 210.254 39.2803 211.401 39.0426 212.599C38.636 215.008 38.278 217.672 38.0313 220.481C37.7981 223.292 37.697 225.979 37.6609 228.423C37.6535 230.868 37.6846 233.07 37.7851 234.916C37.8178 235.841 37.8771 236.675 37.9245 237.408C37.9669 238.142 38.0132 238.773 38.0601 239.288C38.0979 239.785 38.1278 240.181 38.1504 240.476C38.1679 240.748 38.173 240.891 38.164 240.892C38.1549 240.893 38.1323 240.751 38.0979 240.481C38.0629 240.186 38.0166 239.792 37.9584 239.297C37.8957 238.782 37.8348 238.152 37.7783 237.419C37.7168 236.686 37.6445 235.851 37.5999 234.926C37.4757 233.078 37.4254 230.871 37.4192 228.421C37.4418 225.971 37.5361 223.278 37.7693 220.458C38.0166 217.641 38.383 214.971 38.8037 212.556C39.0488 211.356 39.243 210.207 39.5107 209.15C39.6354 208.619 39.7557 208.108 39.872 207.615C40.0064 207.128 40.1357 206.66 40.2594 206.213C40.4937 205.316 40.7568 204.52 40.9861 203.82C41.0996 203.472 41.2057 203.147 41.304 202.845C41.4147 202.552 41.5157 202.283 41.6083 202.038C41.7885 201.573 41.9319 201.203 42.0392 200.926C42.1408 200.674 42.1978 200.542 42.2063 200.545Z" fill="#553F95"/>
<path d="M32.603 242.858C32.5984 242.858 32.5917 242.81 32.5821 242.716C32.573 242.607 32.5617 242.47 32.5471 242.299C32.5211 241.912 32.4844 241.375 32.4386 240.693C32.35 239.278 32.2241 237.264 32.0688 234.784C31.7486 229.797 31.2856 222.905 30.4466 215.327C30.0174 211.538 29.5205 207.94 29.0033 204.677C28.7283 203.049 28.4793 201.499 28.1959 200.057C27.9367 198.611 27.6572 197.272 27.3997 196.05C27.1575 194.824 26.887 193.727 26.6702 192.758C26.4567 191.789 26.2501 190.959 26.0773 190.282C25.9147 189.618 25.7865 189.095 25.6945 188.719C25.6561 188.552 25.6256 188.418 25.6013 188.311C25.5815 188.219 25.5736 188.171 25.5781 188.169C25.5827 188.168 25.599 188.214 25.6273 188.304C25.6583 188.409 25.6973 188.541 25.7458 188.705C25.8497 189.079 25.9937 189.597 26.1767 190.257C26.3647 190.931 26.586 191.757 26.8136 192.724C27.0445 193.69 27.328 194.785 27.5821 196.01C27.8514 197.232 28.1417 198.57 28.4104 200.016C28.7029 201.458 28.9604 203.008 29.2427 204.638C29.7735 207.902 30.2789 211.505 30.708 215.298C31.5482 222.884 31.9818 229.781 32.2546 234.773C32.3901 237.269 32.4844 239.29 32.5408 240.687C32.5663 241.371 32.586 241.909 32.6001 242.296C32.6035 242.467 32.6069 242.605 32.6092 242.715C32.6097 242.809 32.6075 242.858 32.603 242.858Z" fill="#553F95"/>
<path d="M34.6302 192.36C34.4699 190.641 32.7336 189.345 31.0074 189.327C29.2813 189.309 27.6732 190.344 26.6173 191.71C25.5619 193.075 24.9798 194.742 24.5032 196.401C23.3412 200.45 22.7054 204.703 23.2028 208.886C23.6997 213.069 25.3965 217.187 28.3982 220.142C28.886 220.623 29.5184 221.103 30.1881 220.96C30.554 220.882 30.8544 220.628 31.1322 220.377C37.0283 215.051 40.4331 207.073 40.1999 199.131C40.1531 197.54 39.9447 195.885 39.0639 194.56C38.183 193.235 36.1294 191.828 34.6302 192.36Z" fill="#845EF1"/>
<path d="M21.7389 178.596C20.9287 180.064 20.1184 181.531 19.3081 182.998C19.2517 183.101 19.1766 183.216 19.0597 183.226C18.9321 183.237 18.8366 183.116 18.7666 183.008C16.6243 179.721 14.4821 176.433 12.3403 173.146L13.8208 172.307L21.7389 178.596Z" fill="#845EF1"/>
<g opacity="0.2">
<path d="M21.7399 178.596C20.9296 180.063 20.1194 181.531 19.3091 182.998C19.2526 183.101 19.1775 183.215 19.0607 183.225C18.933 183.236 18.8376 183.115 18.7676 183.008C16.6253 179.721 14.483 176.433 12.3413 173.145L13.8218 172.306L21.7399 178.596Z" fill="black"/>
</g>
<path d="M34.7793 186.528C27.4721 182.216 20.1644 177.904 12.8573 173.591C12.6337 173.46 12.3914 173.303 12.3237 173.053C12.2361 172.729 12.4795 172.416 12.7138 172.175C15.7291 169.064 20.1085 167.261 24.4292 167.572C28.7499 167.883 32.9052 170.379 35.0204 174.159C37.1355 177.94 37.2061 182.939 34.7793 186.528Z" fill="#845EF1"/>
<path d="M16.0166 169.463C16.016 169.454 16.1149 169.442 16.304 169.427C16.4932 169.418 16.7721 169.384 17.1324 169.388C17.8523 169.37 18.9003 169.417 20.1741 169.629C21.4474 169.839 22.9432 170.248 24.5061 170.945C26.068 171.638 27.684 172.643 29.156 173.962C30.6162 175.296 31.7766 176.804 32.6224 178.289C33.4717 179.774 34.0284 181.222 34.3638 182.468C34.7015 183.715 34.8528 184.752 34.907 185.471C34.9465 185.829 34.9403 186.11 34.9499 186.299C34.9539 186.489 34.9522 186.588 34.9431 186.588C34.92 186.589 34.8923 186.192 34.8054 185.481C34.7207 184.77 34.5422 183.746 34.1848 182.519C33.492 180.078 31.8827 176.786 28.9799 174.157C26.0753 171.532 22.64 170.258 20.1414 169.812C18.8845 169.578 17.8478 169.503 17.1318 169.49C16.4153 169.473 16.0177 169.486 16.0166 169.463Z" fill="#553F95"/>
<path d="M31.8085 177.6C31.821 177.633 31.3992 177.828 30.7001 178.103C30.0017 178.379 29.0259 178.731 27.9339 179.077C26.8419 179.424 25.8413 179.7 25.1123 179.878C24.3828 180.057 23.9254 180.141 23.9164 180.106C23.9068 180.071 24.3472 179.923 25.0621 179.699C25.8701 179.447 26.8125 179.152 27.8543 178.827C28.8921 178.492 29.8317 178.188 30.6375 177.928C31.3512 177.699 31.7955 177.565 31.8085 177.6Z" fill="#553F95"/>
<path d="M28.3512 168.327C28.4218 168.32 28.5771 169.413 28.6104 170.772C28.646 172.131 28.546 173.231 28.4749 173.228C28.4009 173.225 28.3828 172.128 28.3478 170.779C28.3145 169.429 28.2773 168.333 28.3512 168.327Z" fill="#553F95"/>
<path d="M12.6613 173.348C12.6511 173.314 13.2575 173.094 14.2536 172.788C15.2496 172.48 16.6364 172.092 18.1824 171.719C19.7296 171.347 21.1412 171.061 22.1677 170.881C23.1943 170.7 23.8346 170.62 23.8408 170.654C23.8476 170.691 23.2197 170.836 22.2044 171.063C21.1892 171.289 19.7872 171.602 18.244 171.974C16.7019 172.346 15.3112 172.705 14.3038 172.966C13.2971 173.227 12.672 173.384 12.6613 173.348Z" fill="#553F95"/>
<path d="M24.6704 188.292C22.785 186.863 20.7912 186.581 18.427 186.674C16.0628 186.768 13.7613 187.489 11.5942 188.438C7.89742 190.057 4.42313 192.444 2.21421 195.821C0.00529944 199.198 -0.763191 203.669 0.890671 207.351C1.05555 207.718 1.27011 208.101 1.6394 208.259C2.02844 208.426 2.47395 208.296 2.87655 208.165C7.08094 206.793 11.3147 205.408 15.1809 203.261C19.0465 201.113 22.5654 198.127 24.6399 194.222C25.1373 193.284 25.5541 192.28 25.6354 191.222C25.7161 190.164 25.4236 189.04 24.6704 188.292Z" fill="#845EF1"/>
<path d="M24.7173 187.847C24.7196 187.855 24.6151 187.898 24.4147 187.97C24.1871 188.049 23.8952 188.149 23.5338 188.273C23.3396 188.338 23.1267 188.409 22.8957 188.486C22.6642 188.569 22.418 188.673 22.1504 188.776C21.6185 188.992 21.0008 189.207 20.3509 189.522C20.0217 189.673 19.6778 189.829 19.3198 189.992C18.9624 190.156 18.6055 190.36 18.2278 190.552C17.4655 190.927 16.6948 191.405 15.8737 191.889C14.2622 192.909 12.5559 194.135 10.8958 195.581C9.24926 197.044 7.81505 198.58 6.59879 200.049C6.01325 200.802 5.4407 201.506 4.97203 202.214C4.73319 202.564 4.48643 202.892 4.27695 203.226C4.06972 203.56 3.8704 203.881 3.68011 204.189C3.28429 204.793 2.99237 205.378 2.71117 205.879C2.57453 206.131 2.44014 206.362 2.32834 206.581C2.22275 206.8 2.12507 207.002 2.03642 207.186C1.86702 207.529 1.73037 207.806 1.62366 208.021C1.52654 208.211 1.47177 208.309 1.4633 208.306C1.45483 208.303 1.49379 208.198 1.5751 208.001C1.66996 207.779 1.79249 207.495 1.94381 207.143C2.02682 206.955 2.11773 206.749 2.21654 206.526C2.32213 206.303 2.4503 206.067 2.5813 205.811C2.85121 205.302 3.13297 204.707 3.52088 204.094C3.70778 203.782 3.90372 203.456 4.10699 203.117C4.31309 202.779 4.55702 202.445 4.7936 202.09C5.25718 201.373 5.82692 200.659 6.41133 199.897C7.62533 198.41 9.06462 196.858 10.723 195.384C12.3949 193.928 14.1177 192.698 15.7473 191.683C16.5773 191.201 17.3571 190.727 18.1284 190.359C18.5107 190.169 18.872 189.97 19.234 189.809C19.5959 189.65 19.9443 189.498 20.2775 189.352C20.9358 189.046 21.5615 188.841 22.1002 188.639C22.3712 188.542 22.6213 188.444 22.8557 188.368C23.0894 188.298 23.3057 188.234 23.5027 188.176C23.8709 188.071 24.1685 187.986 24.4 187.92C24.6055 187.863 24.7151 187.838 24.7173 187.847Z" fill="#553F95"/>
<path d="M9.97995 195.825C10.0003 195.894 7.94664 196.556 5.39385 197.303C2.83994 198.049 0.75412 198.598 0.733792 198.528C0.713465 198.459 2.76653 197.797 5.32045 197.051C7.87267 196.304 9.95906 195.755 9.97995 195.825Z" fill="#553F95"/>
<path d="M9.79051 205.945C9.75494 205.945 9.71372 205.399 9.68944 204.516C9.66516 203.632 9.66121 202.411 9.69904 201.063C9.73687 199.715 9.80914 198.495 9.88255 197.615C9.95595 196.734 10.0277 196.191 10.0632 196.193C10.0999 196.196 10.0943 196.743 10.0683 197.625C10.0384 198.593 10.0023 199.769 9.96216 201.07C9.92941 202.371 9.90005 203.547 9.87577 204.516C9.85149 205.398 9.82721 205.944 9.79051 205.945Z" fill="#553F95"/>
<path d="M18.4555 201.529C18.3833 201.534 18.1523 199.052 17.9406 195.987C17.7283 192.92 17.6153 190.431 17.6876 190.426C17.7599 190.421 17.9903 192.902 18.2026 195.969C18.4143 199.034 18.5278 201.524 18.4555 201.529Z" fill="#553F95"/>
<path d="M7.66236 190.183C7.66405 190.147 8.22588 190.132 9.13271 190.139C10.039 190.145 11.2902 190.171 12.6719 190.217C14.0536 190.263 15.3038 190.319 16.2089 190.372C17.114 190.426 17.6736 190.477 17.6725 190.514C17.6719 190.55 17.1112 190.564 16.2044 190.558C15.2981 190.551 14.0457 190.525 12.6629 190.479C11.2806 190.433 10.0294 190.377 9.12424 190.324C8.21967 190.271 7.66066 190.219 7.66236 190.183Z" fill="#553F95"/>
<path d="M29.3351 221.322C29.326 221.323 29.3153 221.22 29.3035 221.022C29.2933 220.797 29.2803 220.512 29.2651 220.161C29.2323 219.413 29.2244 218.329 29.2526 216.99C29.2764 215.652 29.3656 214.058 29.5231 212.294C29.6936 210.531 29.9409 208.598 30.295 206.584C30.6586 204.571 31.094 202.671 31.5429 200.958C32.0042 199.247 32.4706 197.721 32.911 196.456C33.3469 195.19 33.7281 194.176 34.0177 193.485C34.1532 193.161 34.2639 192.898 34.3514 192.69C34.4305 192.509 34.4757 192.416 34.4841 192.42C34.4926 192.423 34.4632 192.523 34.4006 192.709C34.3255 192.921 34.23 193.19 34.1132 193.521C33.8534 194.222 33.4994 195.244 33.0872 196.514C32.671 197.784 32.2238 199.311 31.7772 201.019C31.343 202.73 30.9161 204.624 30.5542 206.63C30.2018 208.636 29.9483 210.561 29.7648 212.317C29.5943 214.074 29.4864 215.661 29.439 216.996C29.387 218.33 29.3661 219.412 29.3678 220.16C29.3633 220.51 29.3599 220.795 29.3571 221.021C29.3515 221.218 29.3441 221.322 29.3351 221.322Z" fill="#553F95"/>
<path d="M30.491 206.367C30.5158 206.393 30.1838 206.761 29.6163 207.327C29.0489 207.892 28.2437 208.652 27.325 209.458C26.4057 210.263 25.5475 210.962 24.9128 211.451C24.2781 211.939 23.8688 212.22 23.8467 212.192C23.8236 212.163 24.1917 211.831 24.7948 211.307C25.4684 210.722 26.268 210.028 27.1516 209.261C28.028 208.485 28.8207 207.783 29.4887 207.192C30.0884 206.662 30.4656 206.341 30.491 206.367Z" fill="#553F95"/>
<path d="M37.4322 211.957C37.4006 211.977 37.0527 211.478 36.5005 210.667C35.9014 209.792 35.1572 208.706 34.3345 207.505C33.4943 206.316 32.7349 205.24 32.1228 204.375C31.5542 203.575 31.2075 203.076 31.2368 203.053C31.2645 203.032 31.6637 203.491 32.2713 204.264C32.8794 205.036 33.6925 206.124 34.5496 207.356C35.4062 208.587 36.1431 209.728 36.6563 210.566C37.1696 211.405 37.4621 211.938 37.4322 211.957Z" fill="#553F95"/>
<path d="M33.8 194.377C33.8395 194.438 31.534 195.989 28.652 197.843C25.7689 199.696 23.4013 201.149 23.3618 201.088C23.3229 201.027 25.6272 199.475 28.5103 197.622C31.3917 195.769 33.7604 194.316 33.8 194.377Z" fill="#553F95"/>
<path d="M40.2975 201.391C40.2467 201.443 38.686 200.001 36.8113 198.17C34.9361 196.338 33.4573 194.812 33.5081 194.76C33.5589 194.708 35.1196 196.15 36.9948 197.982C38.8695 199.813 40.3483 201.339 40.2975 201.391Z" fill="#553F95"/>
<path d="M41.928 201.25L43.9065 201.086C45.3108 200.97 46.6744 200.554 47.902 199.863C48.509 199.521 49.1188 199.186 49.7642 198.928C52.2103 197.946 54.9398 198.121 57.5728 197.989C61.8698 197.774 66.1216 196.687 69.9945 194.813C70.2181 194.705 70.4163 194.54 70.5354 194.322C70.942 193.582 70.1871 192.922 69.5371 192.522C66.2034 190.468 62.8105 188.387 59.0301 187.368C55.2498 186.348 50.9584 186.521 47.7326 188.74C43.9472 191.346 42.5677 196.698 41.928 201.25Z" fill="#845EF1"/>
<path d="M70.5803 194.078C70.5758 194.086 70.4606 194.032 70.2449 193.922C70.0077 193.798 69.696 193.635 69.307 193.431C68.4933 193.003 67.3228 192.372 65.8429 191.663C64.3623 190.961 62.5684 190.169 60.4809 189.596C58.4025 189.018 56.0038 188.716 53.5312 189.033C51.0688 189.358 48.8011 190.316 47.1958 191.754C45.5804 193.187 44.5939 194.917 43.8971 196.387C43.2021 197.87 42.7735 199.132 42.4618 199.995C42.3156 200.409 42.1987 200.741 42.1095 200.993C42.027 201.221 41.9796 201.339 41.9711 201.336C41.9626 201.333 41.9931 201.21 42.0592 200.977C42.1366 200.721 42.2382 200.384 42.3647 199.963C42.647 199.088 43.049 197.815 43.7283 196.31C44.4093 194.818 45.3912 193.051 47.0355 191.573C48.6707 190.09 50.9908 189.103 53.4973 188.773C56.0123 188.45 58.4493 188.767 60.5459 189.363C62.6515 189.955 64.4487 190.771 65.9247 191.496C67.3996 192.23 68.5577 192.887 69.3567 193.342C69.7356 193.564 70.0399 193.742 70.2708 193.877C70.4775 194.001 70.5848 194.071 70.5803 194.078Z" fill="#553F95"/>
<path d="M65.8298 196.631C65.7891 196.692 63.2013 195.018 60.05 192.893C56.8976 190.767 54.3764 188.996 54.4165 188.936C54.4571 188.875 57.0444 190.549 60.1968 192.675C63.3481 194.8 65.8704 196.571 65.8298 196.631Z" fill="#553F95"/>
<path d="M63.3472 188.687C63.3613 188.756 62.4629 188.989 61.3274 189.092C60.1914 189.198 59.2664 189.133 59.2676 189.062C59.2676 188.987 60.1823 188.935 61.3037 188.831C62.4251 188.73 63.3336 188.614 63.3472 188.687Z" fill="#553F95"/>
<path d="M51.7413 186.609C51.804 186.646 51.4234 187.406 50.8926 188.306C50.3613 189.207 49.8797 189.907 49.8175 189.87C49.7549 189.834 50.1354 189.073 50.6668 188.172C51.1976 187.273 51.6792 186.572 51.7413 186.609Z" fill="#553F95"/>
<path d="M54.0674 198.156C54.0493 198.186 53.5693 197.935 52.8217 197.481C52.0742 197.027 51.064 196.362 49.9844 195.579C48.9048 194.794 47.9528 194.053 47.269 193.511C46.5857 192.968 46.1724 192.619 46.1944 192.589C46.2159 192.561 46.6687 192.856 47.3808 193.362C48.1572 193.926 49.0979 194.61 50.1385 195.366C51.2148 196.147 52.2029 196.833 52.9223 197.325C53.6422 197.817 54.0871 198.123 54.0674 198.156Z" fill="#553F95"/>
<path d="M44.8535 209.658C42.9664 209.159 40.7163 210.995 40.3272 212.908C39.9382 214.821 40.6553 216.777 41.4955 218.539C43.3549 222.44 45.9207 226.058 49.3001 228.751C52.6795 231.444 56.9122 233.166 61.2334 233.144C60.4356 229.438 61.4446 225.566 60.9997 221.802C60.6112 218.516 59.0793 215.376 56.7281 213.048C54.3769 210.72 51.2222 209.22 47.9325 208.864C46.7287 208.734 45.334 208.545 44.8535 209.658Z" fill="#845EF1"/>
<path d="M61.2307 233.144C61.2262 233.152 61.1342 233.109 60.962 233.019C60.792 232.927 60.5458 232.776 60.2562 232.545C59.6638 232.096 58.9846 231.229 58.3928 230.053C58.0919 229.469 57.7553 228.835 57.4267 228.132C57.1077 227.427 56.7683 226.676 56.4114 225.888C56.0512 225.101 55.6554 224.285 55.1636 223.488C54.674 222.691 54.0919 221.911 53.4465 221.153C52.1546 219.635 50.7678 218.322 49.5662 217.068C48.3578 215.818 47.342 214.615 46.6074 213.518C45.866 212.425 45.4166 211.447 45.1619 210.757C45.0405 210.409 44.953 210.137 44.9101 209.947C44.8627 209.759 44.8418 209.66 44.8502 209.657C44.8751 209.65 44.9818 210.043 45.2573 210.719C45.5397 211.392 46.0078 212.346 46.761 213.413C47.5069 214.485 48.5278 215.664 49.7401 216.899C50.9468 218.14 52.3414 219.45 53.6469 220.983C54.2991 221.749 54.888 222.54 55.3832 223.354C55.8807 224.167 56.2759 224.995 56.6317 225.787C56.9806 226.579 57.3126 227.333 57.6243 228.04C57.9411 228.739 58.268 229.38 58.5577 229.967C59.1263 231.146 59.7604 231.999 60.3217 232.466C60.8733 232.942 61.2466 233.119 61.2307 233.144Z" fill="#553F95"/>
<path d="M51.47 230.063C51.4355 230.057 51.4948 229.57 51.6433 228.793C51.7913 228.016 52.0335 226.949 52.3604 225.786C52.6885 224.623 53.0386 223.587 53.3181 222.847C53.5976 222.106 53.8009 221.66 53.8336 221.673C53.8692 221.686 53.7274 222.154 53.4942 222.907C53.2605 223.66 52.9398 224.7 52.6134 225.857C52.2881 227.014 52.0182 228.068 51.8246 228.833C51.6309 229.597 51.5067 230.071 51.47 230.063Z" fill="#553F95"/>
<path d="M60.8768 220.966C60.8655 221.002 60.3602 220.873 59.5471 220.661C58.734 220.448 57.6109 220.157 56.3619 219.876C55.1117 219.594 53.9728 219.375 53.1467 219.219C52.3212 219.063 51.8097 218.963 51.8147 218.925C51.8193 218.891 52.3404 218.926 53.1761 219.035C54.0118 219.146 55.1625 219.336 56.4189 219.619C57.6747 219.903 58.7961 220.223 59.5984 220.482C60.4014 220.741 60.887 220.933 60.8768 220.966Z" fill="#553F95"/>
<path d="M44.4683 223.609C44.4339 223.603 44.5067 223.04 44.6727 222.139C44.8387 221.238 45.103 220 45.4559 218.646C45.8094 217.293 46.1849 216.083 46.4802 215.216C46.776 214.349 46.9872 213.822 47.0205 213.834C47.0561 213.846 46.907 214.392 46.6575 215.271C46.4079 216.15 46.0623 217.364 45.71 218.713C45.3582 220.061 45.0668 221.289 44.8545 222.178C44.6422 223.067 44.505 223.617 44.4683 223.609Z" fill="#553F95"/>
<path d="M56.5379 213.04C56.53 213.112 54.1743 212.921 51.2759 212.614C48.377 212.307 46.0337 211.999 46.041 211.927C46.0489 211.855 48.4041 212.045 51.3036 212.353C54.2025 212.66 56.5458 212.968 56.5379 213.04Z" fill="#553F95"/>
<path d="M54.8095 241.614C54.8095 241.686 46.5272 241.746 36.3132 241.746C26.0953 241.746 17.8147 241.687 17.8147 241.614C17.8147 241.541 26.0953 241.482 36.3132 241.482C46.5272 241.482 54.8095 241.541 54.8095 241.614Z" fill="#C6C9FF"/>
<path d="M49.0475 252.272C49.0475 252.345 43.4671 252.403 36.5851 252.403C29.7003 252.403 24.1216 252.345 24.1216 252.272C24.1216 252.199 29.7009 252.14 36.5851 252.14C43.4671 252.141 49.0475 252.199 49.0475 252.272Z" fill="#C6C9FF"/>
<path d="M49.2702 253.794C49.2702 253.866 43.6897 253.925 36.8078 253.925C29.923 253.925 24.3442 253.867 24.3442 253.794C24.3442 253.721 29.9236 253.662 36.8078 253.662C43.6897 253.662 49.2702 253.721 49.2702 253.794Z" fill="#C6C9FF"/>
<path d="M49.2647 251.016C49.2647 251.089 43.4928 251.148 36.3743 251.148C29.2535 251.148 23.4822 251.089 23.4822 251.016C23.4822 250.944 29.2529 250.885 36.3743 250.885C43.4928 250.885 49.2647 250.943 49.2647 251.016Z" fill="#C6C9FF"/>
<path d="M79.6653 50.4277H27.8625V125.514H79.6653V50.4277Z" fill="#845EF1"/>
<path d="M77.0741 50.4277H25.2708V125.514H77.0741V50.4277Z" fill="#845EF1"/>
<path d="M70.6387 58.561H31.7078V117.383H70.6387V58.561Z" fill="#C6C9FF"/>
<path d="M70.6359 117.383C70.6359 117.383 70.6308 117.284 70.628 117.096C70.6263 116.901 70.6234 116.624 70.6201 116.262C70.6167 115.523 70.611 114.44 70.6042 113.035C70.5963 110.216 70.5845 106.108 70.5692 100.918C70.554 90.5464 70.5314 75.8587 70.5054 58.5617L70.6347 58.691C58.7409 58.6944 45.5608 58.6984 31.7088 58.7029H31.7043L31.8449 58.5623C31.8342 80.7519 31.824 101.211 31.8161 117.384L31.7038 117.272C43.5597 117.297 53.2779 117.316 60.0402 117.331C63.423 117.343 66.0645 117.353 67.8691 117.359C68.7657 117.365 69.4529 117.369 69.9238 117.372C70.3908 117.375 70.6359 117.383 70.6359 117.383C70.6359 117.383 70.4066 117.391 69.9487 117.395C69.4823 117.398 68.8024 117.402 67.9148 117.407C66.1164 117.414 63.4829 117.424 60.1113 117.436C53.3321 117.45 43.5902 117.471 31.7049 117.495H31.5925V117.383C31.5846 101.21 31.5744 80.7508 31.5637 58.5606V58.4194H31.7049H31.7094C45.562 58.4234 58.7415 58.4273 70.6353 58.4313H70.7646V58.5606C70.7386 75.892 70.7166 90.6091 70.7008 101.002C70.6861 106.179 70.6743 110.278 70.6658 113.09C70.659 114.484 70.6539 115.557 70.65 116.291C70.6466 116.647 70.6443 116.92 70.6421 117.11C70.6409 117.294 70.6359 117.383 70.6359 117.383Z" fill="#845EF1"/>
<path d="M77.2178 50.4272C77.2482 50.4509 76.8965 50.9642 76.2945 51.7688C75.6926 52.5734 74.8383 53.6683 73.8637 54.8518C72.8886 56.0358 71.9778 57.0838 71.303 57.8286C70.6283 58.5734 70.1924 59.0172 70.163 58.9918C70.1331 58.9658 70.5165 58.4763 71.1517 57.6987C71.8462 56.8563 72.7006 55.8196 73.6458 54.6728C74.5899 53.526 75.4436 52.4887 76.1376 51.6457C76.7796 50.8727 77.1867 50.4029 77.2178 50.4272Z" fill="#845EF1"/>
<path d="M70.8281 117.193C72.7615 120.267 75.0444 123.122 77.618 125.685L70.8281 117.193Z" fill="#C6C9FF"/>
<path d="M77.6193 125.685C77.5939 125.711 77.1315 125.31 76.4358 124.608C75.7396 123.907 74.817 122.897 73.8746 121.719C72.9322 120.54 72.1507 119.418 71.6194 118.585C71.088 117.752 70.7984 117.213 70.8294 117.193C70.8644 117.171 71.2134 117.672 71.7842 118.473C72.3551 119.275 73.158 120.371 74.0942 121.544C75.0315 122.715 75.9243 123.739 76.5809 124.472C77.2365 125.205 77.6487 125.656 77.6193 125.685Z" fill="#845EF1"/>
<path d="M25.2637 125.454C27.5257 122.663 29.7871 119.873 32.0491 117.082L25.2637 125.454Z" fill="#C6C9FF"/>
<path d="M32.0516 117.083C32.112 117.132 30.6422 119.045 28.7687 121.357C26.8947 123.669 25.3272 125.503 25.2662 125.454C25.2058 125.405 26.6756 123.491 28.5496 121.179C30.4232 118.868 31.9912 117.033 32.0516 117.083Z" fill="#845EF1"/>
<path d="M25.2727 50.4277C25.3337 50.3797 26.8086 52.1426 28.5663 54.365C30.3246 56.5881 31.7001 58.4288 31.6391 58.4774C31.5782 58.5259 30.1039 56.7631 28.3455 54.5401C26.5872 52.317 25.2117 50.4757 25.2727 50.4277Z" fill="#845EF1"/>
<path d="M58.5062 70.5039H45.4707V107.516H58.5062V70.5039Z" fill="#845EF1"/>
<path d="M149.502 39.4863V72.3676H102.276L100.575 39.7161L149.502 39.4863Z" fill="#845EF1"/>
<path d="M100.576 39.7164V72.2979H147.801V39.7164H100.576Z" fill="#C6C9FF"/>
<path d="M148.027 72.5235H100.353V39.4937H148.027V72.5235ZM100.8 72.0751H147.578V39.9414H100.8V72.0751Z" fill="#845EF1"/>
<path d="M142.691 43.7651H105.695V68.2507H142.691V43.7651Z" fill="#C6C9FF"/>
<path d="M142.697 43.766C142.697 43.766 142.633 43.7699 142.514 43.7722C142.389 43.7739 142.215 43.7756 141.988 43.7784C141.52 43.7812 140.839 43.7857 139.957 43.7914C138.18 43.7982 135.596 43.8078 132.333 43.8202C125.809 43.8332 116.574 43.8512 105.701 43.8727L105.808 43.766C105.811 51.247 105.814 59.5361 105.818 68.2487V68.2515L105.701 68.1346C119.657 68.1436 132.524 68.1521 142.697 68.1583L142.604 68.2515C142.624 60.7998 142.641 54.6903 142.653 50.4362C142.663 48.3097 142.671 46.6485 142.677 45.5096C142.681 44.9467 142.684 44.5147 142.687 44.2149C142.691 43.9218 142.697 43.766 142.697 43.766C142.697 43.766 142.704 43.9083 142.707 44.1957C142.709 44.4915 142.713 44.9179 142.717 45.4729C142.723 46.6067 142.731 48.2612 142.741 50.3786C142.753 54.6468 142.769 60.7761 142.789 68.2521V68.3447H142.696C132.523 68.3509 119.656 68.3593 105.7 68.3684H105.583V68.2515V68.2487C105.587 59.5361 105.59 51.247 105.593 43.766V43.6587H105.7C116.602 43.6801 125.861 43.6982 132.402 43.7112C135.655 43.7236 138.23 43.7332 140.002 43.74C140.875 43.7456 141.548 43.7502 142.012 43.753C142.233 43.7558 142.404 43.7575 142.526 43.7592C142.642 43.7615 142.697 43.766 142.697 43.766Z" fill="#845EF1"/>
<path d="M100.572 39.6252C100.592 39.5998 100.901 39.8025 101.384 40.1509C101.867 40.4998 102.526 40.9945 103.236 41.5631C103.946 42.1317 104.571 42.6698 105.011 43.0724C105.451 43.4755 105.708 43.7409 105.688 43.7646C105.644 43.8143 104.508 42.8776 103.09 41.7454C101.671 40.6145 100.531 39.6788 100.572 39.6252Z" fill="#845EF1"/>
<path d="M147.801 39.7174C147.841 39.7682 146.728 40.7152 145.316 41.8326C143.903 42.9506 142.726 43.8157 142.686 43.7654C142.646 43.7151 143.758 42.7677 145.171 41.6497C146.584 40.5322 147.761 39.6672 147.801 39.7174Z" fill="#845EF1"/>
<path d="M147.766 72.3028C146.011 70.8804 144.256 69.4575 142.501 68.0352L147.766 72.3028Z" fill="#C6C9FF"/>
<path d="M142.502 68.0357C142.543 67.9854 143.755 68.9007 145.208 70.0786C146.663 71.2576 147.808 72.253 147.768 72.3033C147.727 72.3535 146.516 71.4388 145.061 70.2598C143.607 69.082 142.462 68.0859 142.502 68.0357Z" fill="#845EF1"/>
<path d="M100.572 72.3C100.532 72.2492 101.633 71.3118 103.031 70.2068C104.429 69.1007 105.595 68.2458 105.635 68.2961C105.675 68.3463 104.574 69.2836 103.176 70.3898C101.778 71.4948 100.612 72.3502 100.572 72.3Z" fill="#845EF1"/>
<path d="M113.204 51.394V59.5928H136.483V51.394H113.204Z" fill="#845EF1"/>
<path d="M341.912 186.835C341.912 186.835 337.669 184.859 334.344 194.799C331.018 204.739 330.032 210.331 330.032 210.331C330.032 210.331 329.077 212.453 327.559 211.387C326.04 210.321 323.683 207.005 321.52 207.989C319.278 209.01 318.897 211.74 319.918 215.516C320.94 219.292 322.875 227.646 323.047 228.403C323.215 229.145 322.951 230.315 321.8 229.755C320.65 229.195 313.646 223.407 311.099 226.894C308.552 230.382 313.126 240.433 313.605 241.541C314.084 242.65 313.932 243.177 313.427 243.544C312.921 243.912 310.75 241.745 308.691 240.18C306.632 238.615 303.969 237.163 302.668 239.298C301.367 241.433 302.039 249.387 311.451 261.063L316.167 266.188L323.017 264.771C337.491 260.846 342.705 254.802 342.906 252.309C343.106 249.817 340.098 249.43 337.513 249.487C334.927 249.544 331.897 250.024 331.704 249.43C331.511 248.835 331.697 248.319 332.735 247.703C333.774 247.087 343.379 241.637 343.364 237.318C343.35 232.999 334.282 233.573 333.022 233.351C331.761 233.129 332.234 232.026 332.807 231.525C333.39 231.014 339.862 225.387 342.906 222.93C345.95 220.473 347.245 218.04 346.028 215.897C344.856 213.83 341.001 215.13 339.146 215.102C337.291 215.073 337.764 212.796 337.764 212.796C337.764 212.796 340.249 207.689 343.393 197.691C346.538 187.692 341.823 186.801 341.823 186.801" fill="#845EF1"/>
<path d="M315.26 267.592C317.598 260.258 321.972 247.293 325.67 236.143C329.367 224.996 332.704 214.9 335.079 207.579C336.261 203.924 337.218 200.963 337.883 198.906C338.213 197.889 338.469 197.096 338.647 196.548C338.734 196.286 338.802 196.082 338.851 195.937C338.897 195.799 338.927 195.73 338.927 195.73C338.927 195.73 338.912 195.804 338.872 195.943C338.828 196.091 338.767 196.296 338.689 196.561C338.52 197.112 338.276 197.909 337.963 198.931C337.331 200.989 336.395 203.96 335.224 207.627C332.886 214.96 329.572 225.064 325.875 236.211C322.177 247.362 317.78 260.318 315.405 267.639" fill="#E0E0E0"/>
<path d="M324.633 212.761C324.647 212.755 324.733 212.913 324.877 213.202C325.022 213.492 325.219 213.916 325.459 214.443C325.935 215.498 326.556 216.971 327.213 218.608C327.854 220.226 328.434 221.689 328.878 222.808C329.08 223.311 329.252 223.735 329.39 224.076C329.512 224.376 329.573 224.544 329.56 224.551C329.546 224.557 329.459 224.401 329.313 224.111C329.168 223.821 328.971 223.397 328.737 222.868C328.27 221.808 327.668 220.327 327.013 218.69C326.36 217.078 325.77 215.62 325.319 214.504C325.113 214.001 324.939 213.578 324.8 213.237C324.68 212.936 324.62 212.768 324.633 212.761Z" fill="#E0E0E0"/>
<path d="M330.218 224.578C330.194 224.524 333.174 223.109 336.876 221.419C340.578 219.728 343.598 218.402 343.623 218.456C343.648 218.51 340.668 219.925 336.965 221.615C333.264 223.306 330.243 224.632 330.218 224.578Z" fill="#E0E0E0"/>
<path d="M323.76 241.443C323.759 241.428 323.939 241.393 324.265 241.344C324.635 241.289 325.098 241.222 325.648 241.141C326.815 240.969 328.426 240.725 330.193 240.39C331.962 240.059 333.552 239.703 334.701 239.437C335.242 239.312 335.698 239.206 336.063 239.122C336.385 239.049 336.565 239.016 336.569 239.031C336.573 239.045 336.4 239.106 336.084 239.204C335.769 239.301 335.309 239.434 334.738 239.585C333.596 239.89 332.006 240.27 330.233 240.602C328.46 240.938 326.842 241.159 325.667 241.293C325.08 241.357 324.604 241.404 324.274 241.427C323.945 241.451 323.762 241.458 323.76 241.443Z" fill="#E0E0E0"/>
<path d="M316.369 231.863C316.381 231.854 316.496 231.977 316.696 232.208C316.922 232.478 317.199 232.809 317.526 233.199C318.219 234.042 319.164 235.215 320.198 236.519C321.233 237.823 322.159 239.012 322.822 239.878C323.128 240.286 323.387 240.631 323.598 240.912C323.778 241.159 323.871 241.3 323.859 241.309C323.848 241.318 323.732 241.195 323.532 240.964C323.307 240.695 323.029 240.364 322.703 239.973C322.009 239.131 321.063 237.958 320.029 236.653C318.996 235.349 318.068 234.161 317.406 233.294C317.101 232.887 316.841 232.541 316.63 232.26C316.451 232.013 316.358 231.872 316.369 231.863Z" fill="#E0E0E0"/>
<path d="M308.78 246.028C308.792 246.018 308.939 246.177 309.195 246.473C309.473 246.803 309.832 247.228 310.263 247.739C311.157 248.814 312.381 250.308 313.722 251.967C315.063 253.626 316.268 255.136 317.132 256.235C317.541 256.763 317.882 257.203 318.146 257.544C318.382 257.856 318.506 258.033 318.495 258.042C318.483 258.052 318.336 257.893 318.081 257.597C317.802 257.267 317.444 256.842 317.013 256.331C316.119 255.256 314.895 253.762 313.553 252.103C312.212 250.444 311.007 248.935 310.143 247.835C309.734 247.307 309.394 246.867 309.129 246.526C308.893 246.214 308.768 246.037 308.78 246.028Z" fill="#E0E0E0"/>
<path d="M318.348 257.69C318.346 257.675 318.573 257.625 318.985 257.547C319.435 257.465 320.021 257.357 320.729 257.228C322.201 256.957 324.233 256.574 326.464 256.089C328.697 255.606 330.705 255.117 332.158 254.752C332.855 254.578 333.434 254.433 333.877 254.321C334.284 254.221 334.511 254.173 334.515 254.187C334.519 254.201 334.3 254.277 333.9 254.403C333.5 254.527 332.919 254.7 332.196 254.9C330.753 255.303 328.746 255.817 326.51 256.3C324.275 256.786 322.235 257.145 320.755 257.378C320.015 257.493 319.414 257.579 318.998 257.63C318.582 257.682 318.351 257.704 318.348 257.69Z" fill="#E0E0E0"/>
<path d="M354.537 267.389C354.537 267.47 276.961 267.535 181.287 267.535C85.5814 267.535 8.02148 267.469 8.02148 267.389C8.02148 267.307 85.5814 267.242 181.287 267.242C276.961 267.242 354.537 267.307 354.537 267.389Z" fill="#263238"/>
<path d="M248.173 70.217L242.812 74.8267L250.006 83.1921L255.366 78.5825L248.173 70.217Z" fill="#C6C9FF"/>
<path d="M253.197 70.2345L242.157 79.7297L234.402 70.7134C237.449 66.4373 241.09 63.2041 245.443 61.2188L253.197 70.2345Z" fill="#553F95"/>
<path d="M244.007 78.1401C243.946 78.1932 242.075 76.1435 239.83 73.5619C237.584 70.9798 235.812 68.8437 235.874 68.7901C235.935 68.737 237.806 70.7861 240.052 73.3688C242.297 75.9504 244.068 78.0865 244.007 78.1401Z" fill="#C6C9FF"/>
<path d="M246.115 76.3299C246.084 76.3553 245.608 75.8273 244.863 74.9544C244.117 74.0814 243.101 72.8635 241.99 71.5112C240.912 70.187 239.937 68.99 239.158 68.0335C238.834 67.6297 238.552 67.2785 238.308 66.9748C238.106 66.7195 238.003 66.5953 238.001 66.5823C238.11 66.4773 239.994 68.6184 242.217 71.3243C243.329 72.6777 244.319 73.9166 245.023 74.8234C245.728 75.7297 246.147 76.3045 246.115 76.3299Z" fill="#C6C9FF"/>
<path d="M248.914 73.9208C248.883 73.9462 248.404 73.4109 247.654 72.5261C246.904 71.6413 245.883 70.4059 244.768 69.0332C243.688 67.6865 242.711 66.4697 241.932 65.4985C241.61 65.0857 241.329 64.7261 241.087 64.4166C240.883 64.1529 240.799 64.0321 240.792 64.0073C240.829 63.9604 241.338 64.4923 242.092 65.3664C242.852 66.2433 243.88 67.4742 244.996 68.848C246.112 70.2212 247.108 71.477 247.816 72.3957C248.524 73.3138 248.946 73.8954 248.914 73.9208Z" fill="#C6C9FF"/>
<path d="M251.47 71.6637C251.409 71.7162 249.551 69.6423 247.324 67.0313C245.095 64.4193 243.339 62.26 243.401 62.2075C243.462 62.155 245.319 64.229 247.548 66.8405C249.776 69.4514 251.532 71.6112 251.47 71.6637Z" fill="#C6C9FF"/>
<path d="M343.181 76.614L338.296 71.5024L330.319 79.1253L335.204 84.2369L343.181 76.614Z" fill="#C6C9FF"/>
<path d="M343.402 81.624L333.342 71.0961L341.94 62.8799C346.37 65.6981 349.789 69.165 352 73.4078L343.402 81.624Z" fill="#553F95"/>
<path d="M335.031 72.858C334.975 72.7999 336.924 70.8241 339.384 68.4464C341.845 66.0675 343.885 64.1872 343.942 64.246C343.998 64.3041 342.05 66.2793 339.588 68.6581C337.128 71.0359 335.087 72.9167 335.031 72.858Z" fill="#C6C9FF"/>
<path d="M336.945 74.8647C336.918 74.8348 337.421 74.3317 338.254 73.5412C339.087 72.7507 340.249 71.6728 341.542 70.4915C342.808 69.3453 343.952 68.3097 344.866 67.4819C345.252 67.1369 345.588 66.8365 345.879 66.5773C346.123 66.3622 346.241 66.2521 346.254 66.251C346.364 66.3543 344.325 68.3475 341.74 70.7089C340.447 71.8907 339.262 72.9443 338.393 73.6953C337.524 74.4469 336.972 74.8952 336.945 74.8647Z" fill="#C6C9FF"/>
<path d="M339.5 77.5361C339.473 77.5062 339.982 76.9997 340.827 76.2041C341.672 75.4091 342.851 74.3249 344.164 73.1386C345.452 71.989 346.616 70.95 347.545 70.1217C347.941 69.7778 348.285 69.4791 348.582 69.2211C348.834 69.0037 348.951 68.9128 348.975 68.9043C349.025 68.9382 348.52 69.4752 347.686 70.2741C346.85 71.0793 345.675 72.1691 344.362 73.356C343.049 74.5429 341.847 75.6022 340.966 76.3582C340.086 77.1143 339.527 77.566 339.5 77.5361Z" fill="#C6C9FF"/>
<path d="M341.888 79.9678C341.832 79.9091 343.806 77.9464 346.297 75.5845C348.788 73.222 350.853 71.3552 350.909 71.4139C350.965 71.4727 348.991 73.4354 346.499 75.7979C344.009 78.1598 341.944 80.0271 341.888 79.9678Z" fill="#C6C9FF"/>
<path d="M298.098 52.1943H289.729V65.2553H298.098V52.1943Z" fill="#C6C9FF"/>
<path d="M302.587 56.1003H285.349V42.0224C291.384 40.5357 297.147 40.4448 302.587 42.0224V56.1003Z" fill="#553F95"/>
<path d="M302.792 42.0821C302.8 42.1007 302.573 42.212 302.156 42.3972C301.741 42.5886 301.121 42.8207 300.341 43.0657C299.562 43.3153 298.612 43.5434 297.545 43.7286C296.476 43.898 295.289 44.0155 294.038 44.0273C292.787 44.0279 291.598 43.9217 290.527 43.7625C289.458 43.588 288.507 43.3689 287.725 43.1267C286.943 42.8895 286.32 42.6631 285.904 42.4757C285.484 42.2944 285.257 42.1854 285.265 42.1668C285.286 42.1154 286.217 42.5067 287.782 42.9268C288.564 43.1414 289.51 43.3368 290.568 43.4949C291.628 43.6377 292.802 43.7343 294.037 43.7337C295.271 43.7224 296.444 43.6146 297.503 43.4615C298.559 43.2933 299.503 43.0889 300.282 42.867C301.843 42.4311 302.77 42.0307 302.792 42.0821Z" fill="#C6C9FF"/>
<path d="M291.036 56.0604C290.955 56.0604 290.89 53.358 290.89 50.0249C290.89 46.6906 290.956 43.9888 291.036 43.9888C291.117 43.9888 291.183 46.6906 291.183 50.0249C291.184 53.358 291.118 56.0604 291.036 56.0604Z" fill="#C6C9FF"/>
<path d="M294.319 56.1421C294.238 56.1421 294.173 53.4273 294.173 50.0789C294.173 46.7294 294.239 44.0151 294.319 44.0151C294.401 44.0151 294.466 46.7294 294.466 50.0789C294.466 53.4273 294.401 56.1421 294.319 56.1421Z" fill="#C6C9FF"/>
<path d="M297.598 56.0889C297.517 56.0889 297.451 53.3741 297.451 50.0257C297.451 46.6762 297.517 43.9619 297.598 43.9619C297.679 43.9619 297.745 46.6762 297.745 50.0257C297.746 53.3741 297.68 56.0889 297.598 56.0889Z" fill="#C6C9FF"/>
<path d="M300.329 56.0887C300.248 56.0887 300.182 53.1542 300.182 49.5353C300.182 45.9154 300.248 42.9814 300.329 42.9814C300.41 42.9814 300.476 45.9154 300.476 49.5353C300.476 53.1542 300.41 56.0887 300.329 56.0887Z" fill="#C6C9FF"/>
<path d="M287.938 56.0052C287.857 56.0052 287.791 53.0707 287.791 49.4519C287.791 45.8319 287.857 42.8979 287.938 42.8979C288.019 42.8979 288.085 45.8319 288.085 49.4519C288.085 53.0713 288.019 56.0052 287.938 56.0052Z" fill="#C6C9FF"/>
<path d="M335.948 165.16C359.725 141.383 359.725 102.831 335.948 79.0534C312.17 55.2756 273.618 55.2757 249.841 79.0535C226.063 102.831 226.063 141.383 249.841 165.16C273.618 188.938 312.17 188.938 335.948 165.16Z" fill="#553F95"/>
<path d="M292.898 172.758C321.14 172.758 344.035 149.863 344.035 121.621C344.035 93.3794 321.14 70.4849 292.898 70.4849C264.656 70.4849 241.762 93.3794 241.762 121.621C241.762 149.863 264.656 172.758 292.898 172.758Z" fill="#FAFAFA"/>
<path d="M344.03 121.622C344.03 121.622 344.013 121.341 343.994 120.793C343.96 120.246 343.981 119.428 343.886 118.362C343.758 116.229 343.402 113.08 342.429 109.136C341.907 107.176 341.273 105.004 340.331 102.719C339.408 100.431 338.269 97.9905 336.773 95.5252C333.816 90.5891 329.576 85.4242 323.798 81.0194C320.921 78.8116 317.65 76.8296 314.047 75.1933C310.445 73.5586 306.509 72.2452 302.311 71.4897C298.121 70.7167 293.686 70.4124 289.156 70.7659C286.889 70.9002 284.609 71.269 282.32 71.7224C280.036 72.2108 277.759 72.8658 275.501 73.6676C266.502 76.9262 257.951 83.0114 251.79 91.4518C250.231 93.5422 248.865 95.7997 247.633 98.1452C247.005 99.3135 246.469 100.533 245.921 101.751C245.429 102.993 244.919 104.235 244.514 105.519C243.678 108.076 242.986 110.708 242.572 113.408C242.146 116.104 241.923 118.849 241.904 121.614C241.923 124.381 242.144 127.126 242.569 129.824C242.984 132.525 243.674 135.158 244.511 137.715C244.917 139 245.425 140.242 245.917 141.485C246.466 142.703 247.001 143.923 247.629 145.092C248.862 147.438 250.227 149.697 251.787 151.787C257.949 160.23 266.501 166.317 275.501 169.576C277.76 170.378 280.038 171.033 282.322 171.522C284.611 171.974 286.891 172.344 289.159 172.478C293.689 172.831 298.125 172.526 302.315 171.753C306.513 170.997 310.449 169.684 314.051 168.048C317.655 166.411 320.925 164.43 323.802 162.221C329.579 157.816 333.819 152.651 336.775 147.715C338.271 145.25 339.409 142.81 340.332 140.522C341.275 138.237 341.908 136.065 342.43 134.106C343.404 130.163 343.758 127.014 343.886 124.881C343.982 123.815 343.961 122.998 343.994 122.451C344.013 121.902 344.03 121.622 344.03 121.622C344.03 121.622 344.033 121.902 344.024 122.451C344 122.999 344.031 123.817 343.945 124.885C343.835 127.021 343.498 130.177 342.54 134.134C342.026 136.1 341.399 138.28 340.462 140.574C339.544 142.872 338.41 145.323 336.915 147.8C333.963 152.76 329.719 157.954 323.927 162.387C321.042 164.61 317.762 166.606 314.144 168.256C310.528 169.903 306.576 171.229 302.359 171.994C298.149 172.776 293.692 173.087 289.14 172.737C286.86 172.603 284.568 172.235 282.267 171.782C279.97 171.293 277.679 170.636 275.408 169.832C266.357 166.563 257.753 160.447 251.555 151.959C249.985 149.856 248.611 147.586 247.371 145.227C246.739 144.052 246.201 142.825 245.648 141.6C245.153 140.35 244.642 139.1 244.233 137.809C243.392 135.237 242.698 132.588 242.28 129.871C241.852 127.158 241.629 124.396 241.611 121.615C241.629 118.834 241.854 116.073 242.282 113.361C242.699 110.646 243.395 107.998 244.237 105.428C244.646 104.136 245.157 102.887 245.652 101.638C246.204 100.412 246.743 99.1864 247.375 98.0114C248.615 95.6528 249.989 93.3829 251.559 91.2819C257.757 82.7963 266.359 76.6823 275.409 73.4135C277.68 72.6094 279.97 71.9528 282.266 71.4638C284.567 71.0104 286.859 70.6422 289.138 70.5089C293.691 70.1583 298.147 70.4689 302.356 71.2509C306.573 72.0154 310.526 73.3401 314.141 74.9878C317.759 76.6377 321.04 78.6326 323.924 80.855C329.718 85.2881 333.961 90.4823 336.914 95.4422C338.409 97.9199 339.543 100.371 340.461 102.669C341.398 104.963 342.026 107.143 342.54 109.11C343.499 113.067 343.836 116.223 343.945 118.36C344.031 119.427 344.001 120.246 344.024 120.793C344.033 121.34 344.03 121.622 344.03 121.622Z" fill="#C6C9FF"/>
<path d="M336.526 119.764C334.902 119.831 333.582 119.77 333.574 119.626C333.567 119.482 334.876 119.291 336.498 119.199C338.119 119.107 339.44 119.169 339.448 119.337C339.457 119.505 338.148 119.696 336.526 119.764Z" fill="#C6C9FF"/>
<path d="M335.439 131.537C333.857 131.167 332.601 130.754 332.632 130.614C332.664 130.474 333.976 130.64 335.564 130.986C337.15 131.331 338.407 131.744 338.369 131.908C338.332 132.073 337.02 131.907 335.439 131.537Z" fill="#C6C9FF"/>
<path d="M331.214 142.58C329.79 141.797 328.691 141.061 328.76 140.935C328.828 140.808 330.046 141.323 331.482 142.083C332.916 142.843 334.015 143.58 333.935 143.728C333.855 143.876 332.636 143.362 331.214 142.58Z" fill="#C6C9FF"/>
<path d="M324.188 152.086C323.024 150.952 322.163 149.949 322.262 149.845C322.362 149.742 323.399 150.562 324.578 151.679C325.757 152.795 326.62 153.798 326.503 153.92C326.387 154.041 325.35 153.22 324.188 152.086Z" fill="#C6C9FF"/>
<path d="M314.875 159.372C314.058 157.967 313.496 156.77 313.619 156.697C313.743 156.625 314.522 157.693 315.36 159.084C316.198 160.475 316.76 161.672 316.615 161.758C316.47 161.844 315.691 160.775 314.875 159.372Z" fill="#C6C9FF"/>
<path d="M303.941 163.882C303.534 162.31 303.316 161.005 303.454 160.968C303.593 160.931 304.055 162.17 304.487 163.737C304.918 165.302 305.136 166.606 304.973 166.65C304.811 166.693 304.348 165.454 303.941 163.882Z" fill="#C6C9FF"/>
<path d="M292.202 165.291C292.228 163.667 292.365 162.352 292.509 162.353C292.652 162.354 292.768 163.671 292.767 165.296C292.765 166.919 292.628 168.235 292.46 168.234C292.292 168.232 292.176 166.914 292.202 165.291Z" fill="#C6C9FF"/>
<path d="M280.513 163.516C280.975 161.958 281.462 160.728 281.6 160.769C281.739 160.809 281.496 162.108 281.058 163.673C280.62 165.237 280.133 166.466 279.971 166.42C279.808 166.372 280.051 165.072 280.513 163.516Z" fill="#C6C9FF"/>
<path d="M269.738 158.657C270.602 157.282 271.401 156.227 271.523 156.303C271.645 156.378 271.061 157.565 270.218 158.954C269.376 160.342 268.576 161.395 268.434 161.307C268.29 161.219 268.875 160.032 269.738 158.657Z" fill="#C6C9FF"/>
<path d="M260.654 151.088C261.854 149.992 262.905 149.19 263.003 149.295C263.1 149.4 262.22 150.389 261.038 151.502C259.855 152.614 258.804 153.417 258.69 153.293C258.575 153.17 259.455 152.183 260.654 151.088Z" fill="#C6C9FF"/>
<path d="M253.925 141.367C255.374 140.633 256.603 140.142 256.668 140.27C256.734 140.397 255.622 141.113 254.184 141.868C252.747 142.623 251.518 143.114 251.441 142.965C251.364 142.816 252.477 142.1 253.925 141.367Z" fill="#C6C9FF"/>
<path d="M250.066 130.195C251.66 129.88 252.975 129.739 253.003 129.879C253.032 130.019 251.768 130.409 250.18 130.748C248.592 131.088 247.277 131.229 247.243 131.064C247.209 130.9 248.473 130.511 250.066 130.195Z" fill="#C6C9FF"/>
<path d="M249.329 118.391C250.949 118.511 252.254 118.724 252.245 118.868C252.235 119.011 250.913 119.05 249.292 118.955C247.671 118.859 246.366 118.646 246.377 118.478C246.388 118.31 247.71 118.272 249.329 118.391Z" fill="#C6C9FF"/>
<path d="M251.789 106.826C253.317 107.379 254.516 107.936 254.468 108.071C254.42 108.206 253.137 107.887 251.601 107.358C250.066 106.829 248.867 106.272 248.923 106.113C248.979 105.954 250.262 106.274 251.789 106.826Z" fill="#C6C9FF"/>
<path d="M257.272 96.3521C258.595 97.2945 259.601 98.1533 259.519 98.2708C259.436 98.3882 258.285 97.7361 256.948 96.8146C255.611 95.893 254.606 95.0342 254.702 94.8964C254.799 94.7581 255.95 95.4103 257.272 96.3521Z" fill="#C6C9FF"/>
<path d="M265.349 87.7215C266.373 88.983 267.113 90.0789 267.002 90.1699C266.892 90.2613 265.957 89.3257 264.914 88.0801C263.871 86.8356 263.131 85.739 263.261 85.6323C263.391 85.5256 264.326 86.4612 265.349 87.7215Z" fill="#C6C9FF"/>
<path d="M275.449 81.5692C276.096 83.0593 276.514 84.314 276.383 84.3721C276.252 84.4303 275.603 83.2778 274.932 81.7979C274.263 80.3191 273.844 79.0638 273.999 78.9955C274.152 78.9278 274.801 80.0802 275.449 81.5692Z" fill="#C6C9FF"/>
<path d="M286.827 78.3674C287.049 79.9766 287.113 81.2979 286.971 81.3182C286.829 81.3391 286.515 80.0546 286.268 78.4487C286.022 76.844 285.958 75.5227 286.124 75.4984C286.29 75.4741 286.605 76.7593 286.827 78.3674Z" fill="#C6C9FF"/>
<path d="M298.652 78.3199C298.437 79.9303 298.148 81.2205 298.006 81.203C297.863 81.185 297.902 79.8631 298.091 78.2499C298.281 76.6378 298.57 75.347 298.737 75.3679C298.904 75.3888 298.866 76.7112 298.652 78.3199Z" fill="#C6C9FF"/>
<path d="M310.059 81.4499C309.418 82.9423 308.791 84.1072 308.659 84.0513C308.526 83.996 308.92 82.7334 309.538 81.2309C310.156 79.7294 310.783 78.5646 310.938 78.6301C311.093 78.6956 310.699 79.9587 310.059 81.4499Z" fill="#C6C9FF"/>
<path d="M320.192 87.5323C319.175 88.7989 318.259 89.7531 318.146 89.6639C318.034 89.5747 318.752 88.464 319.749 87.1823C320.747 85.9016 321.663 84.9468 321.795 85.0513C321.927 85.1557 321.209 86.267 320.192 87.5323Z" fill="#C6C9FF"/>
<path d="M328.344 96.1017C327.026 97.0503 325.889 97.7256 325.804 97.6099C325.719 97.4941 326.708 96.615 328.011 95.646C329.315 94.6776 330.452 94.0029 330.551 94.1384C330.651 94.2745 329.662 95.1537 328.344 96.1017Z" fill="#C6C9FF"/>
<path d="M333.895 106.539C332.369 107.098 331.092 107.442 331.042 107.307C330.992 107.173 332.18 106.592 333.697 106.011C335.213 105.429 336.49 105.085 336.549 105.243C336.608 105.401 335.419 105.981 333.895 106.539Z" fill="#C6C9FF"/>
<path d="M336.425 118.088C334.805 118.217 333.483 118.205 333.471 118.062C333.458 117.92 334.759 117.68 336.376 117.527C337.992 117.374 339.315 117.385 339.33 117.553C339.344 117.72 338.043 117.959 336.425 118.088Z" fill="#C6C9FF"/>
<path d="M273.04 66.298C273.042 66.3026 272.983 66.3302 272.866 66.3788C272.735 66.4319 272.563 66.5013 272.347 66.5888C271.893 66.7803 271.204 67.0106 270.35 67.3901C268.622 68.101 266.166 69.2438 263.278 70.9191C261.831 71.752 260.299 72.752 258.692 73.8779C257.11 75.0366 255.44 76.3087 253.798 77.783C250.491 80.7012 247.203 84.3115 244.315 88.5041C241.456 92.7198 239.286 97.0952 237.768 101.236C236.99 103.302 236.411 105.32 235.906 107.215C235.441 109.122 235.066 110.912 234.814 112.563C234.302 115.862 234.13 118.566 234.095 120.433C234.051 121.367 234.087 122.092 234.073 122.584C234.07 122.818 234.068 123.003 234.066 123.144C234.063 123.271 234.059 123.335 234.054 123.336C234.049 123.336 234.043 123.271 234.036 123.145C234.031 123.004 234.023 122.819 234.014 122.585C234.008 122.093 233.954 121.366 233.98 120.431C233.98 118.559 234.121 115.846 234.609 112.531C234.847 110.872 235.213 109.072 235.67 107.156C236.166 105.249 236.739 103.22 237.513 101.143C239.024 96.9772 241.198 92.5752 244.071 88.3375C246.975 84.1229 250.286 80.4996 253.618 77.5792C255.273 76.1038 256.956 74.8333 258.551 73.6786C260.171 72.5566 261.716 71.5628 263.173 70.7385C266.085 69.0801 268.563 67.9632 270.306 67.2834C271.168 66.9192 271.865 66.7057 272.326 66.5324C272.547 66.4561 272.722 66.3963 272.856 66.35C272.976 66.3116 273.038 66.2935 273.04 66.298Z" fill="white"/>
<path d="M290.028 62.9998C290.031 63.0422 289.355 63.1167 288.265 63.2319C287.174 63.3471 285.669 63.5103 284.011 63.7243C282.352 63.94 280.855 64.1664 279.771 64.333C278.687 64.4995 278.015 64.5995 278.007 64.5577C278 64.5193 278.658 64.3471 279.735 64.128C280.812 63.9083 282.309 63.6486 283.974 63.4323C285.637 63.2172 287.151 63.0862 288.248 63.0241C289.346 62.9626 290.026 62.9609 290.028 62.9998Z" fill="white"/>
<g opacity="0.4">
<path d="M252.027 152.358C252.027 152.358 278.526 194.178 319.635 172.758C362.541 150.402 338.839 99.1479 338.839 99.1479C338.839 99.1479 359.03 139.993 317.2 166.623C306.783 173.256 295.441 173.261 286.788 172.395C264.678 170.18 252.027 152.358 252.027 152.358Z" fill="black"/>
</g>
<path d="M307.151 94.4438C307.406 101.941 307.179 109.454 306.47 116.921C306.214 119.623 305.885 122.357 304.862 124.871C303.838 127.384 302.03 129.688 299.533 130.749C297.035 131.811 293.82 131.37 292.073 129.294L307.151 94.4438Z" fill="#E0E0E0"/>
<path d="M291.787 117.588L310.37 86.2915L299.154 121.621L293.424 123.337L291.787 117.588Z" fill="#553F95"/>
<g opacity="0.4">
<path d="M310.37 86.291L296.589 118.267L299.154 121.621L310.37 86.291Z" fill="black"/>
</g>
<path d="M293.423 129.318C296.727 129.318 299.405 126.64 299.405 123.337C299.405 120.033 296.727 117.355 293.423 117.355C290.12 117.355 287.442 120.033 287.442 123.337C287.442 126.64 290.12 129.318 293.423 129.318Z" fill="#FAFAFA"/>
<path d="M299.404 123.337C299.365 123.34 299.398 122.804 299.162 121.891C298.928 120.995 298.326 119.681 296.979 118.665C296.311 118.17 295.472 117.749 294.504 117.582C293.544 117.42 292.461 117.453 291.432 117.847C290.913 118.027 290.414 118.301 289.955 118.645C289.491 118.983 289.07 119.402 288.722 119.887C288.005 120.843 287.601 122.07 287.589 123.336C287.6 124.602 288.004 125.83 288.722 126.787C289.069 127.272 289.49 127.691 289.954 128.029C290.413 128.374 290.913 128.647 291.432 128.828C292.461 129.222 293.544 129.254 294.504 129.092C295.472 128.925 296.311 128.504 296.979 128.008C298.326 126.993 298.927 125.678 299.161 124.783C299.398 123.87 299.365 123.335 299.404 123.337C299.404 123.337 299.479 123.872 299.273 124.812C299.068 125.732 298.484 127.101 297.105 128.174C296.422 128.698 295.555 129.147 294.55 129.332C293.551 129.512 292.42 129.487 291.339 129.082C290.796 128.896 290.271 128.613 289.788 128.254C289.299 127.903 288.856 127.465 288.49 126.957C287.734 125.957 287.306 124.665 287.295 123.336C287.306 122.008 287.735 120.717 288.49 119.716C288.856 119.209 289.3 118.771 289.788 118.419C290.271 118.061 290.796 117.778 291.339 117.592C292.42 117.188 293.55 117.163 294.549 117.342C295.555 117.527 296.422 117.976 297.105 118.5C298.483 119.573 299.068 120.942 299.272 121.863C299.479 122.803 299.404 123.337 299.404 123.337Z" fill="#C6C9FF"/>
<path d="M297.792 124.213C298.279 121.803 296.72 119.454 294.31 118.967C291.9 118.48 289.552 120.039 289.064 122.449C288.577 124.859 290.136 127.207 292.546 127.694C294.956 128.181 297.305 126.623 297.792 124.213Z" fill="#553F95"/>
<path d="M246.28 266.86H275.702L261.986 148.652L246.28 266.86Z" fill="#C6C9FF"/>
<path d="M101.527 148.652L82.374 268.252L245.813 270.38L261.987 148.652H101.527Z" fill="#FAFAFA"/>
<path d="M254.705 203.443H92.7507L96.2781 181.418H257.632L254.705 203.443Z" fill="#EBEBEB"/>
<path d="M254.718 203.458H92.7356L92.7379 203.441L96.2669 181.404H257.649L257.647 181.42L254.718 203.458ZM92.7683 203.429H254.694L257.617 181.433H96.2912L92.7683 203.429Z" fill="#263238"/>
<path d="M101.526 148.652L96.2786 181.419H257.632L261.985 148.652H101.526Z" fill="#C6C9FF"/>
<path d="M101.526 148.651C102.693 148.65 166.887 148.597 261.985 148.519H262.137L262.117 148.669C257.386 184.306 252.022 224.718 246.356 267.4L246.339 267.527H246.21C245.63 267.527 245 267.527 244.37 267.527C184.013 267.517 128.09 267.508 82.5123 267.501H82.3711L82.3937 267.361C93.9786 195.477 101.367 149.634 101.526 148.651C101.369 149.633 94.0724 195.492 82.6308 267.4L82.5123 267.26C128.09 267.253 184.013 267.243 244.37 267.234C245 267.234 245.63 267.234 246.21 267.234L246.064 267.361C251.74 224.68 257.115 184.27 261.854 148.634L261.985 148.784C166.887 148.705 102.693 148.652 101.526 148.651Z" fill="#263238"/>
<path d="M257.631 181.419C257.631 181.501 221.508 181.566 176.958 181.566C132.393 181.566 96.2773 181.5 96.2773 181.419C96.2773 181.339 132.393 181.272 176.958 181.272C221.508 181.272 257.631 181.338 257.631 181.419Z" fill="#263238"/>
<path d="M254.704 203.444C254.704 203.525 218.377 203.591 173.576 203.591C128.76 203.591 92.4407 203.525 92.4407 203.444C92.4407 203.363 128.76 203.297 173.576 203.297C218.377 203.297 254.704 203.363 254.704 203.444Z" fill="#263238"/>
<path d="M251.414 223.708C251.414 223.789 215.087 223.855 170.286 223.855C125.47 223.855 89.1506 223.789 89.1506 223.708C89.1506 223.627 125.47 223.561 170.286 223.561C215.087 223.56 251.414 223.627 251.414 223.708Z" fill="#263238"/>
<path d="M248.119 243.972C248.119 244.054 211.792 244.119 166.991 244.119C122.175 244.119 85.856 244.053 85.856 243.972C85.856 243.891 122.175 243.826 166.991 243.826C211.792 243.826 248.119 243.892 248.119 243.972Z" fill="#263238"/>
<path d="M105.322 267.56C105.242 267.548 108.208 248.252 111.946 224.468C115.686 200.676 118.782 181.405 118.862 181.417C118.942 181.429 115.977 200.721 112.237 224.513C108.498 248.298 105.402 267.573 105.322 267.56Z" fill="#263238"/>
<path d="M130.291 267.561C130.211 267.549 133.177 248.253 136.915 224.469C140.655 200.677 143.75 181.406 143.831 181.418C143.911 181.43 140.945 200.722 137.206 224.514C133.468 248.299 130.371 267.574 130.291 267.561Z" fill="#263238"/>
<path d="M153.497 266.698C153.417 266.685 156.353 247.583 160.054 224.037C163.757 200.482 166.822 181.405 166.902 181.417C166.982 181.429 164.047 200.528 160.345 224.082C156.643 247.629 153.578 266.711 153.497 266.698Z" fill="#263238"/>
<path d="M176.448 267.38C176.368 267.367 179.328 248.112 183.059 224.378C186.791 200.635 189.88 181.405 189.96 181.417C190.041 181.43 187.081 200.681 183.35 224.424C179.619 248.158 176.529 267.392 176.448 267.38Z" fill="#263238"/>
<path d="M199.521 267.38C199.441 267.368 202.401 248.113 206.131 224.378C209.863 200.636 212.952 181.405 213.033 181.418C213.113 181.43 210.154 200.682 206.422 224.424C202.691 248.158 199.601 267.393 199.521 267.38Z" fill="#263238"/>
<path d="M222.566 267.505C222.486 267.493 225.451 248.21 229.186 224.441C232.924 200.663 236.017 181.405 236.098 181.417C236.178 181.429 233.214 200.709 229.476 224.486C225.741 248.255 222.646 267.518 222.566 267.505Z" fill="#263238"/>
<g opacity="0.2">
<path d="M208.053 182.958C210.834 181.728 212.569 178.834 213.291 175.88C214.013 172.927 213.895 169.844 213.999 166.804C214.102 163.765 214.467 160.623 216.023 158.01C216.943 156.466 218.237 155.18 219.258 153.7C220.278 152.22 221.035 150.407 220.659 148.649L203.279 148.738L208.053 182.958Z" fill="black"/>
</g>
<path d="M135.973 205.073C135.98 205.081 135.922 205.151 135.804 205.277C135.661 205.426 135.488 205.606 135.281 205.821C134.823 206.29 134.149 206.956 133.307 207.77C131.624 209.399 129.258 211.609 126.578 213.975C123.897 216.341 121.411 218.414 119.585 219.882C118.673 220.617 117.928 221.203 117.406 221.599C117.167 221.778 116.968 221.927 116.802 222.051C116.662 222.151 116.585 222.2 116.579 222.192C116.572 222.185 116.637 222.12 116.765 222.004C116.921 221.869 117.109 221.706 117.335 221.51C117.871 221.057 118.586 220.453 119.453 219.722C121.244 218.213 123.706 216.117 126.384 213.754C129.061 211.391 131.446 209.208 133.165 207.619C133.998 206.849 134.686 206.215 135.202 205.739C135.424 205.539 135.609 205.373 135.763 205.234C135.894 205.122 135.966 205.066 135.973 205.073Z" fill="#263238"/>
<path d="M134.691 222.424C134.676 222.438 134.436 222.2 134.016 221.759C133.564 221.278 132.969 220.643 132.249 219.876C130.727 218.252 128.684 216.073 126.427 213.664C124.146 211.276 122.084 209.116 120.545 207.506C119.82 206.745 119.219 206.115 118.764 205.638C118.347 205.193 118.122 204.941 118.137 204.927C118.151 204.913 118.403 205.138 118.845 205.557C119.288 205.976 119.92 206.592 120.694 207.36C122.242 208.895 124.353 211.045 126.64 213.462C128.927 215.879 130.956 218.105 132.403 219.736C133.127 220.551 133.707 221.216 134.101 221.682C134.495 222.147 134.706 222.411 134.691 222.424Z" fill="#263238"/>
<path d="M140.724 210.264C140.724 210.264 140.779 210.116 140.899 209.83C141.021 209.546 141.232 209.131 141.578 208.634C142.261 207.655 143.577 206.3 145.765 205.512C146.306 205.315 146.899 205.158 147.534 205.073C148.167 204.972 148.845 204.959 149.544 205.02C150.946 205.132 152.433 205.629 153.834 206.48C155.233 207.333 156.539 208.573 157.53 210.152C158.504 211.723 159.212 213.668 159.076 215.757C159.01 216.794 158.689 217.846 158.109 218.77C157.533 219.694 156.733 220.506 155.783 221.123C153.888 222.367 151.506 222.991 149.073 222.865C147.857 222.796 146.629 222.546 145.457 222.078C144.289 221.608 143.179 220.905 142.295 219.936C141.861 219.447 141.495 218.892 141.205 218.295C140.923 217.693 140.733 217.045 140.63 216.382C140.427 215.052 140.577 213.668 140.979 212.358C141.795 209.736 143.678 207.385 146.206 206.006C148.716 204.583 151.956 204.414 154.703 205.614C156.082 206.195 157.328 207.134 158.264 208.34C159.205 209.549 159.762 211.041 159.946 212.574C160.131 214.109 159.899 215.716 159.214 217.135C158.87 217.843 158.417 218.501 157.871 219.075C157.32 219.644 156.689 220.134 156.005 220.538C153.237 222.127 149.849 222.331 146.923 221.388C145.456 220.92 144.083 220.157 142.972 219.109C141.859 218.069 141.054 216.693 140.772 215.21C140.475 213.739 140.648 212.166 141.367 210.858C141.722 210.205 142.22 209.636 142.799 209.185C143.38 208.734 144.042 208.407 144.723 208.171C146.092 207.7 147.529 207.588 148.923 207.615C150.319 207.648 151.704 207.808 153.022 208.19C154.333 208.57 155.594 209.173 156.581 210.098C157.571 211.014 158.238 212.24 158.494 213.522C158.759 214.804 158.665 216.13 158.272 217.333C157.878 218.542 157.168 219.606 156.302 220.465C154.557 222.182 152.231 223.127 149.971 223.223C148.841 223.273 147.72 223.117 146.696 222.745C145.677 222.369 144.753 221.775 144.055 221.001C143.344 220.239 142.838 219.335 142.523 218.399C142.199 217.466 142.071 216.497 142.111 215.564C142.169 213.681 143.007 212.005 144.111 210.8C145.219 209.581 146.58 208.781 147.911 208.341C149.248 207.892 150.565 207.849 151.705 207.98C154.008 208.273 155.607 209.227 156.569 209.937C157.052 210.301 157.394 210.612 157.614 210.83C157.831 211.051 157.936 211.17 157.936 211.17C157.936 211.17 157.817 211.065 157.593 210.852C157.367 210.642 157.021 210.339 156.534 209.985C155.567 209.295 153.97 208.366 151.692 208.093C150.564 207.973 149.268 208.025 147.955 208.474C146.648 208.914 145.314 209.709 144.234 210.91C143.156 212.098 142.348 213.735 142.298 215.571C142.262 216.481 142.39 217.427 142.71 218.335C143.02 219.245 143.515 220.123 144.207 220.859C144.886 221.607 145.78 222.178 146.772 222.541C147.766 222.899 148.859 223.048 149.961 222.996C152.165 222.897 154.438 221.966 156.131 220.292C156.971 219.455 157.656 218.421 158.033 217.256C158.411 216.092 158.498 214.809 158.241 213.575C157.991 212.339 157.353 211.173 156.401 210.292C155.451 209.406 154.23 208.82 152.947 208.451C151.659 208.079 150.294 207.922 148.918 207.892C147.545 207.866 146.137 207.981 144.816 208.437C143.499 208.877 142.286 209.745 141.617 210.996C140.936 212.235 140.768 213.743 141.055 215.155C141.328 216.577 142.095 217.891 143.173 218.899C144.246 219.911 145.582 220.654 147.014 221.11C149.865 222.031 153.178 221.826 155.858 220.285C156.519 219.893 157.128 219.42 157.659 218.873C158.185 218.32 158.62 217.687 158.95 217.008C159.609 215.645 159.835 214.093 159.656 212.608C159.478 211.125 158.939 209.681 158.034 208.518C157.132 207.354 155.927 206.444 154.59 205.879C151.92 204.713 148.783 204.873 146.341 206.253C143.879 207.593 142.035 209.887 141.238 212.438C140.844 213.713 140.699 215.058 140.893 216.342C140.991 216.983 141.174 217.606 141.442 218.184C141.721 218.758 142.071 219.292 142.488 219.764C143.338 220.699 144.414 221.385 145.552 221.846C146.694 222.304 147.896 222.553 149.087 222.623C151.467 222.752 153.807 222.143 155.659 220.934C157.518 219.743 158.765 217.776 158.869 215.743C159.009 213.715 158.324 211.8 157.372 210.252C156.403 208.696 155.122 207.468 153.748 206.621C152.373 205.776 150.911 205.28 149.532 205.161C148.844 205.096 148.177 205.105 147.552 205.2C146.926 205.281 146.341 205.431 145.804 205.621C143.637 206.383 142.32 207.71 141.627 208.671C141.276 209.158 141.058 209.566 140.927 209.844C140.798 210.123 140.724 210.264 140.724 210.264Z" fill="#C6C9FF"/>
<path d="M156.017 225.853C156.069 225.915 151.589 229.744 146.01 234.404C140.431 239.065 135.866 242.792 135.814 242.73C135.762 242.667 140.242 238.84 145.822 234.179C151.4 229.518 155.965 225.791 156.017 225.853Z" fill="#263238"/>
<path d="M156.992 242.23C156.98 242.246 156.712 242.054 156.24 241.693C155.732 241.295 155.064 240.773 154.258 240.142C152.592 238.822 150.303 236.984 147.787 234.939C145.27 232.894 143.002 231.03 141.369 229.669C140.587 229.009 139.939 228.462 139.446 228.046C138.996 227.658 138.753 227.436 138.766 227.42C138.779 227.404 139.046 227.597 139.518 227.957C140.026 228.355 140.694 228.877 141.501 229.508C143.166 230.828 145.456 232.665 147.972 234.711C150.488 236.755 152.756 238.619 154.388 239.979C155.171 240.639 155.819 241.187 156.312 241.603C156.762 241.992 157.005 242.214 156.992 242.23Z" fill="#263238"/>
<path d="M203.152 226.071C203.201 226.136 198.916 229.416 193.584 233.397C188.25 237.378 183.887 240.552 183.839 240.487C183.79 240.422 188.073 237.142 193.408 233.161C198.74 229.181 203.104 226.006 203.152 226.071Z" fill="#263238"/>
<path d="M204.814 239.964C204.77 240.033 200.222 237.212 194.656 233.663C189.089 230.114 184.612 227.182 184.656 227.114C184.699 227.046 189.247 229.866 194.814 233.416C200.38 236.964 204.857 239.896 204.814 239.964Z" fill="#263238"/>
<path d="M156.75 267.388C156.692 267.332 161.141 262.67 166.685 256.979C172.232 251.286 176.774 246.718 176.832 246.775C176.89 246.831 172.442 251.491 166.896 257.185C161.351 262.876 156.808 267.445 156.75 267.388Z" fill="#C6C9FF"/>
<path d="M175.558 267.383C175.55 267.389 175.488 267.322 175.375 267.189C175.244 267.027 175.087 266.832 174.898 266.597C174.457 266.045 173.869 265.307 173.156 264.413C171.679 262.576 169.592 260.074 167.171 257.415C164.747 254.756 162.449 252.446 160.756 250.805C159.932 250.012 159.253 249.359 158.743 248.869C158.528 248.658 158.349 248.483 158.199 248.338C158.077 248.214 158.016 248.145 158.023 248.138C158.03 248.131 158.104 248.184 158.239 248.294C158.398 248.428 158.59 248.59 158.821 248.784C159.323 249.212 160.034 249.85 160.9 250.654C162.632 252.259 164.959 254.552 167.388 257.216C169.815 259.882 171.882 262.411 173.319 264.285C174.039 265.221 174.608 265.989 174.988 266.529C175.161 266.776 175.304 266.982 175.423 267.153C175.52 267.298 175.567 267.377 175.558 267.383Z" fill="#C6C9FF"/>
<path d="M129.34 243.636C129.34 243.636 129.519 257.506 126.017 265.815L104.678 262.176C104.678 262.176 111.105 249.034 109.356 241.727L129.34 243.636Z" fill="#EBEBEB"/>
<path d="M129.328 243.115C129.328 243.115 126.655 260.127 125.016 265.195L103.802 261.013C103.802 261.013 108.164 244.546 108.107 239.964L129.328 243.115Z" fill="#C6C9FF"/>
<path d="M110.262 247.597C110.245 247.675 113.413 248.408 117.336 249.233C121.261 250.06 124.454 250.666 124.471 250.587C124.487 250.51 121.32 249.777 117.396 248.951C113.472 248.126 110.278 247.519 110.262 247.597Z" fill="white"/>
<path d="M109.722 251.205C109.706 251.283 112.873 252.016 116.796 252.841C120.721 253.667 123.914 254.274 123.931 254.196C123.947 254.118 120.78 253.386 116.856 252.56C112.933 251.733 109.738 251.127 109.722 251.205Z" fill="white"/>
<path d="M112.833 255.286C112.825 255.325 113.271 255.456 113.998 255.636C114.726 255.815 115.734 256.044 116.851 256.279C117.969 256.515 118.985 256.712 119.723 256.841C120.461 256.969 120.921 257.029 120.929 256.99C120.937 256.951 120.492 256.821 119.765 256.641C119.038 256.462 118.029 256.233 116.911 255.998C115.794 255.762 114.779 255.565 114.041 255.436C113.302 255.307 112.842 255.247 112.833 255.286Z" fill="white"/>
<path d="M230.28 204.676C230.28 204.676 232.466 218.197 230.251 226.82L208.882 226.361C208.882 226.361 213.254 212.592 210.485 205.71L230.28 204.676Z" fill="#EBEBEB"/>
<path d="M230.194 204.169C230.194 204.169 230.05 221.173 229.185 226.36L207.859 225.352C207.859 225.352 209.732 208.637 209.012 204.169H230.194Z" fill="#C6C9FF"/>
<path d="M212.013 211.736C212.013 211.814 215.222 211.884 219.18 211.89C223.14 211.897 226.349 211.838 226.349 211.76C226.349 211.681 223.14 211.612 219.181 211.606C215.222 211.599 212.013 211.657 212.013 211.736Z" fill="black"/>
<path d="M212.22 215.333C212.22 215.411 215.43 215.48 219.388 215.487C223.348 215.493 226.557 215.435 226.557 215.356C226.557 215.278 223.348 215.208 219.389 215.202C215.431 215.196 212.22 215.254 212.22 215.333Z" fill="black"/>
<path d="M216.048 218.649C216.048 218.688 216.505 218.725 217.244 218.752C217.983 218.779 219.004 218.796 220.132 218.798C221.26 218.8 222.281 218.785 223.02 218.761C223.759 218.736 224.216 218.702 224.216 218.662C224.216 218.623 223.76 218.587 223.02 218.56C222.281 218.533 221.26 218.515 220.132 218.513C219.005 218.512 217.984 218.526 217.245 218.55C216.505 218.575 216.048 218.609 216.048 218.649Z" fill="black"/>
<path d="M234.832 165.699C230.843 165.7 226.832 163.202 224.72 159.264C222.681 155.458 222.023 150.805 222.915 146.5C224.087 140.839 227.827 136.226 232.441 134.747C236.368 133.488 243.382 134.202 246.688 139.723C249.262 144.022 248.991 148.473 248.978 148.66C248.914 149.594 248.111 150.296 247.173 150.235C246.242 150.171 245.538 149.367 245.598 148.435C245.602 148.367 245.782 144.807 243.781 141.463C241.229 137.199 235.636 137.281 233.475 137.973C229.528 139.238 226.994 143.512 226.232 147.187C225.499 150.728 226.036 154.546 227.707 157.664C229.374 160.774 232.743 162.705 235.732 162.244C236.65 162.102 237.521 162.736 237.663 163.662C237.804 164.587 237.169 165.451 236.244 165.593C235.776 165.664 235.304 165.699 234.832 165.699Z" fill="#263238"/>
<path d="M125.444 165.699C121.455 165.7 117.444 163.202 115.333 159.264C113.293 155.459 112.635 150.806 113.527 146.5C114.514 141.736 117.857 136.25 123.1 134.733C125.489 134.042 128.365 134.19 130.793 135.126L129.573 138.287C127.499 137.487 125.357 137.607 124.042 137.988C120.154 139.112 117.625 143.419 116.845 147.188C116.111 150.729 116.649 154.548 118.319 157.664C119.988 160.776 123.364 162.706 126.344 162.244L126.857 165.594C126.389 165.664 125.916 165.699 125.444 165.699Z" fill="#263238"/>
<path d="M233.412 148.746L231.856 157.278H254.786L256.821 148.831L233.412 148.746Z" fill="#C6C9FF"/>
<path d="M131.259 164.351C131.259 166.364 129.627 167.997 127.614 167.997C125.601 167.997 123.969 166.365 123.969 164.351C123.969 162.338 125.6 160.706 127.614 160.706C129.627 160.706 131.259 162.338 131.259 164.351Z" fill="#263238"/>
<path d="M240.526 164.351C240.526 166.364 238.894 167.997 236.88 167.997C234.867 167.997 233.235 166.365 233.235 164.351C233.235 162.338 234.867 160.706 236.88 160.706C238.894 160.706 240.526 162.338 240.526 164.351Z" fill="#263238"/>
<path d="M180.349 93.7539L174.353 116.501L153.655 118.72V122.394L182.741 123.416L188.208 97.8996L180.349 93.7539Z" fill="#FFBE9D"/>
<path d="M189.078 124.019C189.078 124.019 156.737 122.479 147.523 129.689C138.309 136.9 142.74 148.654 142.74 148.654L194.793 148.517L199.386 122.135L189.078 124.019Z" fill="#553F95"/>
<path d="M194.571 141.427C194.57 141.437 194.409 141.426 194.105 141.394C193.802 141.362 193.354 141.316 192.779 141.241C191.628 141.097 189.967 140.861 187.921 140.516C183.832 139.83 178.212 138.653 172.137 136.868C169.102 135.97 166.23 135.061 163.575 134.405C160.919 133.761 158.484 133.344 156.42 133.264C154.357 133.174 152.682 133.323 151.548 133.542C150.974 133.616 150.545 133.758 150.244 133.81C149.946 133.874 149.788 133.903 149.785 133.894C149.783 133.884 149.935 133.835 150.229 133.752C150.526 133.681 150.953 133.521 151.527 133.43C152.661 133.175 154.348 132.992 156.428 133.056C158.51 133.111 160.967 133.509 163.639 134.142C166.31 134.786 169.19 135.69 172.22 136.586C178.283 138.367 183.883 139.575 187.958 140.311C189.995 140.682 191.651 140.95 192.796 141.128C193.347 141.215 193.786 141.284 194.114 141.336C194.414 141.386 194.572 141.417 194.571 141.427Z" fill="white"/>
<path d="M164.516 134.252C164.451 134.32 163.366 133.147 161.65 132.26C159.942 131.353 158.361 131.129 158.38 131.036C158.384 131.001 158.785 131.01 159.418 131.14C160.049 131.269 160.909 131.541 161.786 131.999C162.662 132.459 163.375 133.012 163.84 133.458C164.307 133.904 164.542 134.228 164.516 134.252Z" fill="white"/>
<path d="M192.496 194.32L192.932 207.916L190.175 218.769C189.976 219.551 190.482 220.338 191.275 220.483C191.72 220.565 192.173 220.429 192.496 220.113C194.554 218.103 202.086 210.673 201.999 209.679C201.897 208.529 202.492 195.307 202.492 195.307L192.496 194.32Z" fill="#0F4C81"/>
<g opacity="0.6">
<path d="M191.274 220.482L201.989 208.76L201.994 209.337C201.999 209.835 201.829 210.319 201.509 210.702C200.655 211.724 198.234 214.497 192.536 220.112C192.205 220.438 191.729 220.578 191.274 220.482Z" fill="white"/>
</g>
<g opacity="0.6">
<path d="M199.159 204.398C198.82 204.637 198.713 205.153 198.938 205.501C199.163 205.85 199.687 205.963 200.03 205.729C200.373 205.497 200.52 204.881 200.258 204.56C199.996 204.239 199.372 204.14 199.096 204.448" fill="white"/>
</g>
<path d="M194.333 214.512C194.257 214.551 193.944 213.841 193.131 213.465C192.33 213.066 191.58 213.264 191.563 213.18C191.55 213.147 191.722 213.04 192.04 212.992C192.355 212.942 192.816 212.983 193.261 213.196C193.706 213.411 194.025 213.745 194.183 214.022C194.344 214.3 194.367 214.5 194.333 214.512Z" fill="#553F95"/>
<path d="M193.38 216.342C193.316 216.402 192.876 215.964 192.17 215.769C191.469 215.558 190.863 215.694 190.841 215.609C190.801 215.541 191.453 215.246 192.253 215.481C193.056 215.708 193.451 216.305 193.38 216.342Z" fill="#553F95"/>
<path d="M196.111 212.161C196.048 212.227 195.374 211.549 194.303 211.15C193.239 210.733 192.285 210.788 192.281 210.698C192.259 210.626 193.267 210.427 194.41 210.871C195.557 211.302 196.176 212.122 196.111 212.161Z" fill="#553F95"/>
<path d="M196.329 208.016C196.293 208.098 195.539 207.79 194.561 207.764C193.583 207.724 192.81 207.98 192.78 207.895C192.742 207.829 193.52 207.425 194.571 207.465C195.622 207.496 196.371 207.952 196.329 208.016Z" fill="#553F95"/>
<path d="M196.298 204.022C196.256 204.101 195.496 203.655 194.464 203.711C193.43 203.745 192.713 204.256 192.665 204.181C192.642 204.153 192.789 203.98 193.101 203.796C193.411 203.612 193.895 203.438 194.451 203.413C195.007 203.39 195.505 203.521 195.829 203.677C196.156 203.833 196.317 203.992 196.298 204.022Z" fill="#553F95"/>
<path d="M194.483 202.951C194.466 202.952 194.434 202.769 194.46 202.437C194.487 202.107 194.579 201.621 194.857 201.085C195.001 200.831 195.151 200.505 195.529 200.323C195.717 200.23 195.999 200.263 196.161 200.442C196.323 200.616 196.375 200.838 196.382 201.054C196.376 201.917 195.643 202.759 194.672 202.892C193.698 203.008 192.81 202.459 192.417 201.717C192.331 201.525 192.27 201.289 192.374 201.058C192.475 200.826 192.751 200.731 192.946 200.762C193.351 200.819 193.608 201.049 193.846 201.22C194.318 201.592 194.612 201.986 194.784 202.268C194.957 202.552 195.013 202.729 194.998 202.736C194.95 202.773 194.648 202.071 193.72 201.389C193.486 201.232 193.216 201.034 192.925 201.01C192.784 200.997 192.662 201.054 192.613 201.169C192.562 201.279 192.592 201.45 192.666 201.6C192.998 202.207 193.811 202.707 194.634 202.596C195.452 202.492 196.096 201.752 196.107 201.057C196.108 200.889 196.062 200.721 195.971 200.623C195.882 200.526 195.748 200.5 195.623 200.552C195.359 200.661 195.184 200.949 195.041 201.188C194.478 202.191 194.544 202.964 194.483 202.951Z" fill="#553F95"/>
<path d="M199.391 122.134C199.391 122.134 185.404 148.575 185.212 153.174C185.021 157.772 185.212 200.308 185.212 200.308H206.863C207.438 200.308 210.672 181.147 210.013 176.741C209.354 172.334 207.02 148.625 207.02 148.625H219.475C219.475 148.625 222.891 144.974 222.766 140.337C222.697 137.781 221.025 132.548 219.362 129.778C218.296 128.001 211.461 118.686 211.461 118.686L199.391 122.134Z" fill="#553F95"/>
<path d="M198.449 123.921C198.454 123.923 198.433 123.975 198.388 124.073C198.335 124.185 198.268 124.328 198.183 124.504C197.987 124.9 197.715 125.451 197.368 126.151C197.007 126.87 196.569 127.74 196.063 128.747C195.808 129.254 195.536 129.795 195.248 130.368C194.978 130.952 194.693 131.569 194.394 132.215C193.19 134.808 191.76 137.886 190.173 141.303C189.376 143.012 188.539 144.806 187.672 146.665C187.24 147.595 186.801 148.54 186.355 149.5C185.937 150.463 185.611 151.483 185.394 152.538C185.171 153.596 185.081 154.654 185.064 155.715C185.025 156.773 185.007 157.817 184.988 158.842C184.96 160.894 184.947 162.873 184.953 164.758C184.958 168.53 184.998 171.925 185.037 174.777C185.08 177.613 185.114 179.916 185.139 181.532C185.148 182.313 185.155 182.928 185.16 183.369C185.16 183.566 185.16 183.723 185.159 183.847C185.158 183.955 185.154 184.01 185.149 184.01C185.144 184.01 185.137 183.955 185.129 183.848C185.122 183.724 185.113 183.567 185.101 183.371C185.082 182.93 185.057 182.315 185.024 181.535C184.966 179.941 184.895 177.633 184.829 174.781C184.764 171.929 184.702 168.532 184.682 164.758C184.669 162.872 184.675 160.891 184.7 158.837C184.717 157.81 184.733 156.766 184.771 155.705C184.787 154.646 184.879 153.552 185.106 152.478C185.327 151.403 185.66 150.363 186.086 149.382C186.535 148.421 186.977 147.473 187.412 146.542C188.285 144.685 189.126 142.893 189.929 141.186C191.538 137.779 192.987 134.709 194.208 132.124C194.513 131.48 194.805 130.866 195.08 130.285C195.375 129.715 195.654 129.177 195.915 128.673C196.439 127.674 196.892 126.811 197.266 126.098C197.633 125.408 197.922 124.866 198.13 124.476C198.225 124.304 198.301 124.167 198.361 124.058C198.416 123.966 198.445 123.919 198.449 123.921Z" fill="white"/>
<path d="M193.926 132.931C193.845 132.953 193.376 131.463 192.799 129.628C192.224 127.791 191.759 126.301 191.837 126.273C191.912 126.246 192.503 127.697 193.08 129.54C193.659 131.382 194.002 132.911 193.926 132.931Z" fill="white"/>
<path d="M210.054 175.926C210.043 175.927 210.023 175.824 209.991 175.627C209.958 175.396 209.918 175.109 209.869 174.76C209.771 173.964 209.637 172.885 209.474 171.568C209.164 168.832 208.744 165.123 208.281 161.025C207.826 156.905 207.439 153.173 207.213 150.467C207.102 149.146 207.011 148.062 206.944 147.263C206.92 146.911 206.901 146.623 206.885 146.39C206.875 146.19 206.875 146.085 206.885 146.084C206.895 146.083 206.915 146.187 206.944 146.384C206.974 146.615 207.012 146.902 207.058 147.252C207.148 148.048 207.27 149.13 207.42 150.447C207.719 153.184 208.125 156.895 208.574 160.995C209.004 165.095 209.394 168.806 209.681 171.545C209.806 172.865 209.908 173.949 209.983 174.747C210.01 175.099 210.032 175.387 210.05 175.62C210.062 175.82 210.064 175.925 210.054 175.926Z" fill="white"/>
<path d="M204.552 51.3142C204.222 49.0816 206.156 46.8828 208.396 46.6141C210.637 46.3453 212.881 47.7733 213.912 49.7812C214.943 51.7891 214.872 54.2419 214.079 56.3548C213.544 57.7823 212.472 59.2312 210.952 59.343C209.488 59.4503 208.271 58.2967 207.263 57.2295" fill="#263238"/>
<path d="M188.653 62.5034C184.153 52.6056 194.857 47.6333 200.698 49.2827C206.188 50.8332 208.529 53.565 209.432 57.2363C210.335 60.9094 210.293 64.8874 208.853 68.3854C208.143 70.1104 206.865 71.8631 205.012 72.0782" fill="#263238"/>
<path d="M204.219 54.7829C205.182 54.8846 205.907 55.7067 205.888 56.6751L204.831 81.8698C204.791 84.8449 200.445 86.5265 197.26 86.4593C194.043 86.3915 193.936 84.8139 193.889 81.9839C193.811 77.2549 193.813 75.4796 193.811 75.5067C193.811 75.5067 189.746 74.832 188.904 69.5282C188.485 66.8907 188.617 62.5661 188.84 59.0314C189.04 55.8496 191.149 51.9456 194.319 52.281L204.219 54.7829Z" fill="#FFBE9D"/>
<path d="M190.887 62.0464C190.874 62.4055 191.169 62.7127 191.544 62.7325C191.918 62.7522 192.232 62.4784 192.245 62.1193C192.257 61.7601 191.964 61.453 191.59 61.4326C191.214 61.4129 190.9 61.6873 190.887 62.0464Z" fill="#263238"/>
<path d="M189.787 61.2823C189.871 61.371 190.386 60.9898 191.118 60.9915C191.849 60.9831 192.386 61.3597 192.466 61.2699C192.505 61.2304 192.419 61.07 192.185 60.8995C191.955 60.7301 191.562 60.5652 191.106 60.5669C190.65 60.5692 190.267 60.7374 190.046 60.9091C189.821 61.0819 189.745 61.2422 189.787 61.2823Z" fill="#263238"/>
<path d="M198.029 62.0469C198.016 62.406 198.31 62.7132 198.685 62.733C199.059 62.7527 199.373 62.4789 199.386 62.1198C199.398 61.7606 199.105 61.4535 198.731 61.4331C198.356 61.4134 198.041 61.6878 198.029 62.0469Z" fill="#263238"/>
<path d="M196.942 61.418C197.026 61.5066 197.542 61.1255 198.274 61.1272C199.005 61.1187 199.542 61.4953 199.622 61.4056C199.661 61.366 199.575 61.2057 199.341 61.0357C199.111 60.8663 198.718 60.7014 198.262 60.7031C197.806 60.706 197.423 60.8737 197.202 61.0453C196.977 61.2175 196.901 61.3779 196.942 61.418Z" fill="#263238"/>
<path d="M194.299 66.8447C194.302 66.803 193.847 66.7245 193.11 66.6302C192.923 66.611 192.747 66.5737 192.715 66.4461C192.671 66.3111 192.75 66.1096 192.84 65.8922C193.015 65.4399 193.2 64.9661 193.393 64.4693C194.16 62.4427 194.716 60.777 194.634 60.7465C194.552 60.716 193.863 62.3343 193.096 64.3603C192.911 64.86 192.734 65.336 192.566 65.7917C192.495 66.004 192.373 66.2451 192.469 66.5252C192.519 66.6646 192.656 66.7663 192.776 66.7984C192.896 66.8351 193.001 66.8368 193.093 66.8425C193.836 66.8831 194.296 66.886 194.299 66.8447Z" fill="#263238"/>
<path d="M193.801 75.5121C193.801 75.5121 197.369 75.7425 200.904 73.6177C200.904 73.6177 199.18 77.2608 193.873 76.7645L193.801 75.5121Z" fill="#EB996E"/>
<path d="M194.605 68.6087C194.868 68.2608 195.329 68.0694 195.787 68.1191C196.105 68.153 196.426 68.3066 196.618 68.5652C196.811 68.8238 196.851 69.1908 196.676 69.4376C196.479 69.7154 196.066 69.7792 195.717 69.6804C195.368 69.581 195.067 69.3512 194.781 69.1219C194.702 69.0587 194.622 68.9926 194.573 68.9057C194.523 68.8187 194.513 68.7052 194.574 68.6329" fill="#EB996E"/>
<path d="M196.456 67.3477C196.337 67.341 196.335 68.1354 195.655 68.6989C194.976 69.2647 194.129 69.1755 194.123 69.2867C194.112 69.3364 194.312 69.4409 194.669 69.4505C195.02 69.4623 195.532 69.35 195.948 69.005C196.363 68.6594 196.542 68.1975 196.569 67.8717C196.599 67.5403 196.51 67.3432 196.456 67.3477Z" fill="#263238"/>
<path d="M196.639 60.1368C196.711 60.3355 197.442 60.2412 198.301 60.3451C199.162 60.4315 199.854 60.6828 199.968 60.5043C200.019 60.4191 199.898 60.2316 199.618 60.0391C199.341 59.8465 198.898 59.6641 198.382 59.6065C197.867 59.5501 197.395 59.632 197.082 59.7596C196.767 59.886 196.608 60.0425 196.639 60.1368Z" fill="#263238"/>
<path d="M190.019 59.1639C190.148 59.3299 190.652 59.1577 191.259 59.1492C191.865 59.1198 192.379 59.261 192.497 59.0871C192.549 59.0024 192.467 58.8364 192.243 58.6788C192.022 58.5219 191.652 58.3937 191.236 58.4067C190.819 58.4197 190.458 58.5704 190.248 58.7409C190.033 58.912 189.963 59.0831 190.019 59.1639Z" fill="#263238"/>
<path d="M196.939 50.5143C195.006 50.5787 193.54 51.1665 191.844 52.0948C190.147 53.023 188.728 54.5549 188.206 56.4172C188.095 56.8124 188.032 57.263 188.248 57.6114C188.534 58.0722 189.209 58.1484 189.703 57.9248C190.197 57.7017 190.551 57.2602 190.886 56.8339C191.137 57.8068 192.102 58.5465 193.107 58.5352C194.112 58.5239 195.06 57.7633 195.289 56.7847C195.297 57.8028 196.316 58.6447 197.334 58.6086C198.351 58.5719 199.252 57.787 199.591 56.8265C199.78 57.7317 199.982 58.6662 200.524 59.416C201.065 60.1653 202.046 60.6808 202.925 60.394C202.801 61.1845 202.68 62.0168 202.96 62.7661C203.241 63.5154 204.366 76.2703 205.123 76.0105C205.858 75.7581 205.85 62.7401 206.022 61.9824C206.353 60.5216 206.637 59.0343 206.591 57.5374C206.544 56.04 206.143 54.5171 205.225 53.3336C204.275 52.1089 202.836 51.3325 201.338 50.9367C199.839 50.5408 198.272 50.4968 196.722 50.5166" fill="#263238"/>
<path d="M207.562 73.7474C207.565 73.757 207.51 73.7824 207.4 73.8225C207.291 73.8626 207.124 73.9095 206.904 73.9405C206.468 74.01 205.802 74.006 205.042 73.7514C204.289 73.5069 203.421 72.9631 202.861 72.0416C202.284 71.1348 202.067 69.9253 202.162 68.7209C202.25 67.5097 202.529 66.403 202.661 65.3855C202.805 64.3674 202.87 63.442 202.897 62.6644C202.922 61.8864 202.912 61.2551 202.902 60.8186C202.892 60.3821 202.886 60.1399 202.908 60.1382C202.927 60.1365 202.971 60.3753 203.016 60.8118C203.062 61.2483 203.103 61.8824 203.104 62.6678C203.104 63.4533 203.06 64.3894 202.929 65.4216C202.809 66.4566 202.539 67.5679 202.455 68.7412C202.364 69.9083 202.564 71.0433 203.091 71.901C203.604 72.7706 204.398 73.2957 205.111 73.556C205.829 73.8236 206.465 73.8603 206.892 73.8276C207.322 73.7948 207.555 73.7214 207.562 73.7474Z" fill="#263238"/>
<path d="M195.061 49.8328C195.085 49.8198 195.321 50.2789 195.335 51.092C195.357 51.8875 195.079 53.0626 194.205 53.9762C193.325 54.8842 192.161 55.206 191.365 55.2145C190.552 55.2308 190.084 55.0123 190.096 54.9875C190.107 54.9355 190.584 55.0756 191.352 55.0067C192.108 54.9468 193.18 54.6109 193.993 53.7718C194.801 52.9282 195.096 51.8446 195.128 51.0869C195.167 50.3173 195.01 49.8458 195.061 49.8328Z" fill="#455A64"/>
<path d="M195.853 56.0784C195.882 56.0829 195.816 56.4443 195.41 56.8362C195.015 57.2247 194.265 57.5708 193.409 57.5194C192.559 57.4635 191.866 57.1123 191.414 56.8345C190.958 56.5499 190.713 56.3263 190.734 56.2953C190.758 56.2585 191.045 56.4212 191.514 56.6521C191.982 56.8785 192.651 57.1755 193.426 57.2258C194.197 57.2715 194.883 56.9926 195.273 56.6786C195.674 56.3658 195.807 56.0547 195.853 56.0784Z" fill="#455A64"/>
<path d="M208.628 54.4571C208.662 54.4605 208.666 55.0166 208.528 55.9077C208.385 56.7863 208.081 58.0494 207.229 59.1759C206.364 60.3035 205.103 60.8506 204.189 60.906C203.73 60.9387 203.357 60.8794 203.115 60.7998C202.872 60.7224 202.75 60.6513 202.756 60.6355C202.77 60.5768 203.3 60.815 204.167 60.6987C205.021 60.5954 206.186 60.0522 206.996 58.9963C207.802 57.9325 208.132 56.7241 208.324 55.8676C208.512 55.002 208.582 54.4514 208.628 54.4571Z" fill="#455A64"/>
<path d="M209.608 57.0298C209.627 57.0281 209.661 57.1862 209.692 57.4764C209.723 57.7667 209.747 58.189 209.723 58.713C209.674 59.7396 209.397 61.272 208.309 62.5176C207.773 63.1303 207.106 63.5831 206.427 63.7994C205.748 64.0185 205.091 64.0168 204.57 63.9118C204.046 63.8028 203.656 63.5995 203.417 63.425C203.177 63.2506 203.077 63.119 203.087 63.1083C203.118 63.0558 203.597 63.5504 204.606 63.7068C205.102 63.7802 205.716 63.7593 206.341 63.5425C206.965 63.329 207.583 62.9016 208.088 62.324C209.114 61.1523 209.415 59.7012 209.516 58.6972C209.611 57.6763 209.558 57.0326 209.608 57.0298Z" fill="#455A64"/>
<path d="M135.185 125.279L124.934 148.716H139.046L149.095 125.093L135.185 125.279Z" fill="#7964B3"/>
<path d="M127.73 100.362L139.292 123.094H175.745L174.27 120.124L163.709 119.81L155.102 100.645C154.566 99.4533 153.382 98.6865 152.076 98.6865H128.757C127.897 98.686 127.339 99.5945 127.73 100.362Z" fill="#C6C9FF"/>
<path d="M145.988 110.538C145.988 111.308 145.363 111.933 144.593 111.933C143.823 111.933 143.198 111.308 143.198 110.538C143.198 109.768 143.823 109.144 144.593 109.144C145.364 109.144 145.988 109.768 145.988 110.538Z" fill="#553F95"/>
<path d="M179.629 123.129H135.066V125.303H179.629V123.129Z" fill="#7964B3"/>
<path d="M165.902 124.214L179.455 148.738H185.941L187.348 145.933L188.65 142.978L179.627 125.301L165.902 124.214Z" fill="#7964B3"/>
<path d="M189.455 82.1738C189.455 82.1738 181.583 84.9451 179.89 93.752L188.203 97.8982L189.455 82.1738Z" fill="#845EF1"/>
<path d="M189.458 82.1739C189.458 82.1739 183.949 94.5171 184.159 101.255C184.232 103.601 185.772 109.707 185.772 109.707L188.632 124.878C188.632 124.878 210.545 121.91 211.033 121.91C211.521 121.91 210.301 109.462 210.301 109.462L213.873 85.5375C213.873 85.5375 212.235 82.2789 204.847 81.1502C200.407 80.4726 189.458 82.1739 189.458 82.1739Z" fill="#845EF1"/>
<path d="M187.397 89.3383C187.448 89.3682 186.869 90.2835 186.178 91.8764C185.827 92.6703 185.478 93.6443 185.16 94.7448C184.858 95.8504 184.597 97.0847 184.442 98.3981C184.3 99.7132 184.279 100.975 184.326 102.12C184.391 103.264 184.513 104.292 184.678 105.144C184.996 106.851 185.356 107.872 185.3 107.89C185.281 107.897 185.182 107.645 185.021 107.183C184.937 106.953 184.842 106.669 184.757 106.331C184.669 105.995 184.552 105.615 184.474 105.184C184.282 104.329 184.137 103.292 184.056 102.135C183.993 100.977 184.007 99.6973 184.151 98.3648C184.308 97.0339 184.58 95.7843 184.9 94.6697C185.237 93.5596 185.61 92.5822 185.989 91.7911C186.161 91.3879 186.36 91.0441 186.521 90.7358C186.679 90.4258 186.834 90.17 186.968 89.9645C187.228 89.5506 187.38 89.3275 187.397 89.3383Z" fill="#263238"/>
<path d="M192.116 82.0568L192.435 78.6785C192.504 77.9484 193.112 77.3866 193.845 77.3747L204.657 77.2155C205.339 77.2053 205.91 77.7276 205.962 78.4069L206.241 82.0568C206.241 82.0568 205.078 84.9213 201.899 86.4628C198.721 88.0043 193.78 88.0545 193.78 88.0545L192.116 82.0568Z" fill="#845EF1"/>
<path d="M194.95 77.3992C194.985 77.4303 194.824 77.6189 194.757 77.987C194.68 78.3546 194.733 78.8825 194.779 79.489C194.86 80.6934 194.86 81.6736 194.78 81.6793C194.699 81.6849 194.567 80.7131 194.486 79.5087C194.442 78.9159 194.414 78.3371 194.556 77.9345C194.691 77.5268 194.932 77.371 194.95 77.3992Z" fill="#263238"/>
<path d="M197.538 81.591C197.456 81.5955 197.336 80.6446 197.268 79.4673C197.242 78.8789 197.2 78.3476 197.257 77.9428C197.312 77.5368 197.48 77.3267 197.511 77.3476C197.55 77.3674 197.463 77.587 197.464 77.9586C197.462 78.3262 197.535 78.8609 197.562 79.4504C197.63 80.6277 197.619 81.5859 197.538 81.591Z" fill="#263238"/>
<path d="M200.786 81.5011C200.705 81.5118 200.517 80.5869 200.364 79.4356C200.212 78.2837 200.154 77.3419 200.234 77.3311C200.315 77.3204 200.504 78.2453 200.656 79.3972C200.808 80.5485 200.866 81.4904 200.786 81.5011Z" fill="#263238"/>
<path d="M203.584 81.7382C203.506 81.7518 203.272 80.7388 203.176 79.4638C203.077 78.1888 203.154 77.1527 203.233 77.1538C203.316 77.1544 203.371 78.1809 203.469 79.4412C203.564 80.7015 203.665 81.7247 203.584 81.7382Z" fill="#263238"/>
<g opacity="0.3">
<path d="M205.732 94.6484C205.3 98.4531 205.586 104.998 206.928 108.584L213.241 98.1572L205.732 94.6484Z" fill="black"/>
</g>
<path d="M213.285 84.77L213.315 84.8016C215.105 86.6814 216.416 88.9648 217.135 91.4589L218.296 96.7609L205.872 98.6836C205.872 98.6836 204.803 95.7321 205.398 91.7367C205.994 87.7412 213.285 84.77 213.285 84.77Z" fill="#845EF1"/>
<path d="M218.298 96.7612C218.299 96.7702 218.215 96.7917 218.053 96.8244C217.86 96.8594 217.624 96.9029 217.338 96.9549C216.674 97.0633 215.778 97.2095 214.679 97.3891C212.377 97.7392 209.236 98.2174 205.679 98.7583L205.519 98.7826L205.513 98.62C205.484 97.8713 205.463 97.0892 205.45 96.2914C205.419 94.2039 205.423 92.2129 205.569 90.4015C205.677 88.5766 206.272 86.9775 207.015 85.8171C207.762 84.6449 208.664 83.9227 209.331 83.5455C209.665 83.3541 209.94 83.2333 210.133 83.1712C210.324 83.1051 210.426 83.0752 210.429 83.0848C210.442 83.1153 210.032 83.2417 209.39 83.6432C208.753 84.0435 207.897 84.7708 207.192 85.9272C206.488 87.0774 205.931 88.6291 205.839 90.4235C205.709 92.2169 205.713 94.2044 205.744 96.2863C205.764 97.0819 205.785 97.8628 205.804 98.6087L205.638 98.4709C209.2 97.9684 212.346 97.5246 214.652 97.1988C215.755 97.0554 216.655 96.9385 217.323 96.8515C217.612 96.8193 217.849 96.7928 218.045 96.7713C218.21 96.7555 218.297 96.7521 218.298 96.7612Z" fill="#263238"/>
<path d="M192.06 88.9755C192.007 89.0365 191.231 88.4374 190.33 87.6373C189.429 86.8372 188.741 86.1398 188.795 86.0794C188.849 86.019 189.623 86.6175 190.526 87.4176C191.427 88.2172 192.115 88.9151 192.06 88.9755Z" fill="#FAFAFA"/>
<path d="M190.38 95.5115C190.423 95.5803 189.741 96.0806 188.858 96.6289C187.974 97.1772 187.223 97.5651 187.18 97.4962C187.137 97.4273 187.819 96.927 188.702 96.3788C189.586 95.8305 190.337 95.442 190.38 95.5115Z" fill="#FAFAFA"/>
<path d="M197.307 97.1178C197.226 97.1127 197.226 96.0314 197.306 94.7028C197.386 93.3736 197.516 92.3002 197.598 92.3047C197.678 92.3098 197.68 93.3911 197.599 94.7203C197.519 96.0495 197.389 97.1229 197.307 97.1178Z" fill="#FAFAFA"/>
<path d="M204.049 103.654C203.98 103.702 203.337 102.89 202.477 101.952C201.621 101.011 200.869 100.298 200.924 100.234C200.973 100.173 201.822 100.796 202.694 101.754C203.569 102.708 204.114 103.61 204.049 103.654Z" fill="#FAFAFA"/>
<path d="M204.994 89.9947C205.039 90.0619 204.302 90.6367 203.347 91.2776C202.392 91.9191 201.582 92.3843 201.536 92.3166C201.491 92.2488 202.228 91.6746 203.183 91.0337C204.138 90.3928 204.949 89.9275 204.994 89.9947Z" fill="#FAFAFA"/>
<path d="M198.901 85.0514C198.945 85.1197 198.14 85.7143 197.104 86.3794C196.067 87.0446 195.192 87.5279 195.148 87.4596C195.104 87.3913 195.909 86.7967 196.945 86.1315C197.982 85.4669 198.857 84.983 198.901 85.0514Z" fill="#FAFAFA"/>
<path d="M204.397 87.0168C204.321 87.0467 203.938 86.2517 203.539 85.2409C203.142 84.2302 202.88 83.3872 202.956 83.3573C203.032 83.3273 203.415 84.1224 203.813 85.1331C204.211 86.1432 204.472 86.9868 204.397 87.0168Z" fill="#FAFAFA"/>
<path d="M211.947 89.4935C211.89 89.5511 211.325 89.0813 210.686 88.4444C210.047 87.8075 209.576 87.2445 209.633 87.1869C209.69 87.1293 210.254 87.5991 210.893 88.236C211.533 88.873 212.004 89.4359 211.947 89.4935Z" fill="#FAFAFA"/>
<path d="M208.848 95.0004C208.767 95.005 208.658 94.2325 208.605 93.276C208.552 92.3189 208.575 91.5397 208.656 91.5352C208.737 91.5307 208.846 92.3025 208.899 93.2596C208.952 94.2161 208.929 94.9959 208.848 95.0004Z" fill="#FAFAFA"/>
<path d="M215.113 93.858C215.11 93.9371 214.219 93.9591 213.138 93.7925C212.056 93.6288 211.213 93.3419 211.234 93.2652C211.255 93.1844 212.117 93.3403 213.182 93.5017C214.247 93.6661 215.117 93.7745 215.113 93.858Z" fill="#FAFAFA"/>
<path d="M189.808 105.237C189.735 105.271 189.226 104.349 188.673 103.178C188.12 102.006 187.731 101.028 187.804 100.993C187.877 100.959 188.386 101.88 188.939 103.052C189.492 104.224 189.881 105.202 189.808 105.237Z" fill="#FAFAFA"/>
<path d="M198.076 114.146C198.011 114.194 197.396 113.458 196.702 112.503C196.009 111.547 195.5 110.734 195.565 110.686C195.631 110.639 196.246 111.374 196.94 112.33C197.633 113.285 198.143 114.098 198.076 114.146Z" fill="#FAFAFA"/>
<path d="M204.958 110.409C204.988 110.485 204.148 110.879 203.084 111.29C202.019 111.701 201.132 111.973 201.103 111.896C201.074 111.821 201.913 111.426 202.978 111.016C204.042 110.605 204.929 110.333 204.958 110.409Z" fill="#FAFAFA"/>
<path d="M188.065 117.629C187.991 117.596 188.234 116.901 188.607 116.078C188.98 115.254 189.343 114.613 189.417 114.647C189.491 114.68 189.248 115.375 188.875 116.198C188.502 117.022 188.139 117.663 188.065 117.629Z" fill="#FAFAFA"/>
<path d="M182.76 92.1117C182.69 92.1445 182.349 91.5222 182.214 90.669C182.074 89.8158 182.202 89.1185 182.279 89.1275C182.364 89.1337 182.37 89.8096 182.504 90.6222C182.632 91.4352 182.838 92.079 182.76 92.1117Z" fill="#FAFAFA"/>
<path d="M192.189 111.914C192.15 111.986 191.4 111.644 190.515 111.152C189.629 110.66 188.943 110.203 188.982 110.133C189.022 110.062 189.771 110.403 190.657 110.895C191.543 111.387 192.229 111.843 192.189 111.914Z" fill="#FAFAFA"/>
<path d="M197.643 102.503C197.698 102.564 197.027 103.261 196.144 104.061C195.261 104.861 194.501 105.461 194.446 105.401C194.392 105.341 195.063 104.643 195.946 103.843C196.829 103.043 197.589 102.443 197.643 102.503Z" fill="#FAFAFA"/>
<g opacity="0.3">
<path d="M194.308 102.328C194.662 104.269 195.406 106.206 196.821 107.581C198.236 108.956 200.418 109.652 202.255 108.933C202.641 108.782 203.04 108.527 203.131 108.123C203.236 107.656 202.863 107.193 202.421 107.007C201.979 106.821 201.484 106.835 201.005 106.809C198.274 106.659 195.679 104.979 194.424 102.549" fill="black"/>
</g>
<path d="M201.644 106.88C201.646 106.901 201.511 106.923 201.264 106.946C201.018 106.976 200.657 106.971 200.216 106.923C199.773 106.88 199.253 106.759 198.696 106.566C198.144 106.359 197.558 106.072 196.996 105.687C196.438 105.294 195.965 104.845 195.578 104.4C195.203 103.945 194.908 103.5 194.713 103.1C194.513 102.703 194.383 102.367 194.325 102.126C194.261 101.886 194.235 101.753 194.254 101.747C194.306 101.731 194.462 102.253 194.895 103.001C195.107 103.377 195.409 103.794 195.782 104.222C196.166 104.642 196.627 105.067 197.163 105.446C197.705 105.816 198.264 106.1 198.791 106.313C199.323 106.513 199.819 106.65 200.246 106.718C201.096 106.863 201.641 106.826 201.644 106.88Z" fill="#263238"/>
<path d="M170.564 115.979L178.743 114.996L184.507 118.776L206.546 113.493L207.067 98.4069L216.853 97.1167V115.384C216.755 120.031 212.892 123.709 208.246 123.581L175.967 122.687L174.597 119.94L167.671 119.734L170.564 115.979Z" fill="#FFBE9D"/>
<path d="M206.271 113.495C206.273 113.503 206.13 113.547 205.857 113.621C205.561 113.698 205.161 113.802 204.658 113.933C203.589 114.199 202.085 114.574 200.235 115.035C196.475 115.947 191.318 117.196 185.622 118.576C185.165 118.686 184.711 118.794 184.262 118.902L184.208 118.915L184.162 118.884C182.124 117.544 180.183 116.267 178.404 115.097L178.483 115.116C175.247 115.49 172.445 115.813 170.3 116.062L170.353 116.031C169.439 117.192 168.709 118.119 168.193 118.774C167.949 119.076 167.755 119.316 167.61 119.497C167.475 119.659 167.403 119.74 167.397 119.736C167.391 119.731 167.452 119.641 167.574 119.469C167.711 119.283 167.894 119.035 168.124 118.722C168.627 118.055 169.336 117.114 170.226 115.934L170.246 115.907L170.28 115.903C172.423 115.635 175.222 115.285 178.454 114.882L178.497 114.877L178.534 114.9C180.316 116.066 182.26 117.336 184.302 118.671L184.202 118.654C184.65 118.546 185.104 118.437 185.562 118.328C191.265 116.976 196.428 115.752 200.193 114.86C202.051 114.432 203.562 114.084 204.635 113.837C205.143 113.726 205.546 113.637 205.845 113.572C206.122 113.512 206.269 113.486 206.271 113.495Z" fill="#EB996E"/>
<path d="M175.025 118.324C175.025 118.395 173.603 118.452 171.849 118.452C171.65 118.452 171.456 118.451 171.268 118.45L171.349 118.42C170.216 119.369 169.33 120.053 169.29 120.005C169.249 119.957 170.066 119.194 171.186 118.227L171.22 118.198H171.267C171.456 118.197 171.65 118.196 171.848 118.195C173.603 118.196 175.025 118.253 175.025 118.324Z" fill="#EB996E"/>
<path d="M210.325 115.958C210.257 115.999 209.833 114.966 208.719 114.282C207.62 113.574 206.505 113.638 206.513 113.559C206.51 113.53 206.781 113.467 207.224 113.503C207.666 113.537 208.276 113.701 208.856 114.064C209.433 114.43 209.846 114.908 210.067 115.292C210.292 115.677 210.352 115.948 210.325 115.958Z" fill="#EB996E"/>
</svg>
