<svg width="24" height="17" viewBox="0 0 24 17" fill="none" xmlns="http://www.w3.org/2000/svg">
<path fill-rule="evenodd" clip-rule="evenodd" d="M18.6 0C18.9314 0 19.2 0.271818 19.2 0.607143V9.10714C19.2 9.44247 18.9314 9.71429 18.6 9.71429C18.2686 9.71429 18 9.44247 18 9.10714V0.607143C18 0.271818 18.2686 0 18.6 0Z" fill="#D6C491"/>
<path fill-rule="evenodd" clip-rule="evenodd" d="M23.4 0C23.7314 0 24 0.271818 24 0.607143V9.10714C24 9.44247 23.7314 9.71429 23.4 9.71429C23.0686 9.71429 22.8 9.44247 22.8 9.10714V0.607143C22.8 0.271818 23.0686 0 23.4 0Z" fill="#D6C491"/>
<path fill-rule="evenodd" clip-rule="evenodd" d="M21 0C21.3314 0 21.6 0.271818 21.6 0.607143V9.10714C21.6 9.44247 21.3314 9.71429 21 9.71429C20.6686 9.71429 20.4 9.44247 20.4 9.10714V0.607143C20.4 0.271818 20.6686 0 21 0Z" fill="#D6C491"/>
<path fill-rule="evenodd" clip-rule="evenodd" d="M21 7.28571C21.3314 7.28571 21.6 7.55753 21.6 7.89286V16.3929C21.6 16.7282 21.3314 17 21 17C20.6686 17 20.4 16.7282 20.4 16.3929V7.89286C20.4 7.55753 20.6686 7.28571 21 7.28571Z" fill="#D6C491"/>
<path fill-rule="evenodd" clip-rule="evenodd" d="M18 0.607143V3.96337C18 4.88325 18.5136 5.72414 19.3267 6.13554L21.6 7.28571V3.92949C21.6 3.00961 21.0864 2.16871 20.2733 1.75731L18 0.607143ZM19.2 2.57192V3.96337C19.2 4.42328 19.4568 4.84373 19.8634 5.04943L20.4 5.32094V3.92949C20.4 3.46958 20.1432 3.04913 19.7366 2.84343L19.2 2.57192Z" fill="#D6C491"/>
<path fill-rule="evenodd" clip-rule="evenodd" d="M18 4.25V7.60623C18 8.52611 18.5136 9.367 19.3267 9.7784L21.6 10.9286V7.57235C21.6 6.65246 21.0864 5.81157 20.2733 5.40017L18 4.25ZM19.2 6.21477V7.60623C19.2 8.06614 19.4568 8.48658 19.8634 8.69228L20.4 8.9638V7.57235C20.4 7.11244 20.1432 6.69199 19.7366 6.48629L19.2 6.21477Z" fill="#D6C491"/>
<path fill-rule="evenodd" clip-rule="evenodd" d="M18 7.89286V11.2491C18 12.169 18.5136 13.0099 19.3267 13.4213L21.6 14.5714V11.2152C21.6 10.2953 21.0864 9.45443 20.2733 9.04303L18 7.89286ZM19.2 9.85763V11.2491C19.2 11.709 19.4568 12.1294 19.8634 12.3351L20.4 12.6067V11.2152C20.4 10.7553 20.1432 10.3348 19.7366 10.1291L19.2 9.85763Z" fill="#D6C491"/>
<path fill-rule="evenodd" clip-rule="evenodd" d="M24 0.607143V3.96337C24 4.88325 23.4864 5.72414 22.6733 6.13554L20.4 7.28571V3.92949C20.4 3.00961 20.9136 2.16871 21.7267 1.75731L24 0.607143ZM22.8 2.57192V3.96337C22.8 4.42328 22.5432 4.84373 22.1366 5.04943L21.6 5.32094V3.92949C21.6 3.46958 21.8568 3.04913 22.2634 2.84343L22.8 2.57192Z" fill="#D6C491"/>
<path fill-rule="evenodd" clip-rule="evenodd" d="M24 4.25V7.60623C24 8.52611 23.4864 9.367 22.6733 9.7784L20.4 10.9286V7.57235C20.4 6.65246 20.9136 5.81157 21.7267 5.40017L24 4.25ZM22.8 6.21477V7.60623C22.8 8.06614 22.5432 8.48658 22.1366 8.69228L21.6 8.9638V7.57235C21.6 7.11244 21.8568 6.69199 22.2634 6.48629L22.8 6.21477Z" fill="#D6C491"/>
<path fill-rule="evenodd" clip-rule="evenodd" d="M24 7.89286V11.2491C24 12.169 23.4864 13.0099 22.6733 13.4213L20.4 14.5714V11.2152C20.4 10.2953 20.9136 9.45443 21.7267 9.04303L24 7.89286ZM22.8 9.85763V11.2491C22.8 11.709 22.5432 12.1294 22.1366 12.3351L21.6 12.6067V11.2152C21.6 10.7553 21.8568 10.3348 22.2634 10.1291L22.8 9.85763Z" fill="#D6C491"/>
<path fill-rule="evenodd" clip-rule="evenodd" d="M12.1637 6.30275C11.6845 6.1758 11.1854 6.09875 10.6721 6.07744C10.0745 6.13402 9.53076 6.58586 9.09648 7.32913C8.63748 8.11465 8.4 9.0712 8.4 9.71429C8.4 10.0496 8.13138 10.3214 7.8 10.3214C7.46862 10.3214 7.2 10.0496 7.2 9.71429C7.2 8.83951 7.50252 7.67107 8.06352 6.71105C8.19156 6.49194 8.3385 6.27519 8.50446 6.07143H7.2C6.55212 6.07143 5.9616 6.53316 5.49648 7.32913C5.03748 8.11465 4.8 9.0712 4.8 9.71429C4.8 10.0496 4.53138 10.3214 4.2 10.3214C3.86862 10.3214 3.6 10.0496 3.6 9.71429C3.6 8.83951 3.90252 7.67107 4.46352 6.71105C4.503 6.64354 4.54422 6.57627 4.58724 6.50954C1.90925 7.51072 0 10.1172 0 13.175C0 15.2875 1.69237 17 3.78 17H13.62C15.7076 17 17.4 15.2875 17.4 13.175C17.4 10.3483 15.7684 7.90719 13.4061 6.76345C13.0277 7.07552 12.6976 7.55662 12.4474 8.12163C12.1481 8.79744 12 9.51126 12 10.0179C12 10.3532 11.7314 10.625 11.4 10.625C11.0686 10.625 10.8 10.3532 10.8 10.0179C10.8 9.31412 10.9952 8.43151 11.3523 7.62511C11.5562 7.16465 11.825 6.70164 12.1637 6.30275Z" fill="#D6C491"/>
<path fill-rule="evenodd" clip-rule="evenodd" d="M12.9807 7.20909C12.7881 7.45796 12.6196 7.74635 12.4794 8.05077C12.4685 8.07433 12.4579 8.09789 12.4474 8.12163C12.4427 8.13213 12.4381 8.14276 12.4335 8.15332C12.1435 8.81972 12 9.51921 12 10.0179C12 10.3532 11.7314 10.625 11.4 10.625C11.0686 10.625 10.8 10.3532 10.8 10.0179C10.8 9.31412 10.9952 8.43151 11.3523 7.62511C11.3874 7.54581 11.4244 7.46646 11.4634 7.38735C11.6319 7.04553 11.8369 6.70863 12.0802 6.40414C12.1075 6.3699 12.1354 6.33614 12.1637 6.30275C11.7319 6.1883 11.284 6.11448 10.824 6.08539C10.7735 6.08224 10.7228 6.07956 10.6721 6.07744C10.2428 6.11812 9.84138 6.36267 9.48834 6.77262C9.46866 6.79551 9.4491 6.81894 9.42966 6.84286C9.31362 6.98591 9.20304 7.1471 9.09882 7.32512C9.09804 7.32645 9.09726 7.32779 9.09648 7.32913C8.63748 8.11465 8.4 9.0712 8.4 9.71429C8.4 10.0496 8.13138 10.3214 7.8 10.3214C7.46862 10.3214 7.2 10.0496 7.2 9.71429C7.2 9.00812 7.39716 8.11052 7.76832 7.28571C7.85694 7.08882 7.9554 6.89605 8.06352 6.71105C8.06604 6.70674 8.06856 6.70243 8.07114 6.69812C8.19738 6.48338 8.3418 6.27118 8.50446 6.07143H7.2C7.1454 6.07143 7.09128 6.07471 7.03752 6.0812C6.50856 6.14495 6.02304 6.51895 5.61972 7.13047C5.61048 7.14449 5.60124 7.1587 5.59206 7.17297C5.55966 7.22348 5.5278 7.27552 5.49648 7.32913C5.03748 8.11465 4.8 9.0712 4.8 9.71429C4.8 10.0496 4.53138 10.3214 4.2 10.3214C3.86862 10.3214 3.6 10.0496 3.6 9.71429C3.6 9.28006 3.67458 8.7734 3.81828 8.25581C3.96408 7.73081 4.18104 7.19452 4.46352 6.71105C4.4679 6.70359 4.47228 6.69618 4.47666 6.68871C4.50858 6.63468 4.54164 6.58082 4.57584 6.52733C4.57962 6.52144 4.5834 6.51549 4.58724 6.50954C4.49418 6.54433 4.40202 6.58106 4.31088 6.61974C3.76704 6.85015 3.25791 7.14783 2.79372 7.50252C1.09676 8.79914 0 10.8575 0 13.175C0 15.2875 1.69237 17 3.78 17H13.62C15.7076 17 17.4 15.2875 17.4 13.175C17.4 10.3483 15.7684 7.90719 13.4061 6.76345C13.256 6.88719 13.1136 7.03751 12.9807 7.20909ZM13.686 8.32721C13.6371 8.41615 13.589 8.51311 13.5425 8.61809C13.3011 9.1633 13.2 9.70834 13.2 10.0179C13.2 11.0238 12.3941 11.8393 11.4 11.8393C10.4059 11.8393 9.6 11.0238 9.6 10.0179C9.6 9.75551 9.62058 9.48041 9.65994 9.19906C9.6198 9.39699 9.6 9.57476 9.6 9.71429C9.6 10.7203 8.79414 11.5357 7.8 11.5357C6.80586 11.5357 6 10.7203 6 9.71429C6 10.7203 5.19414 11.5357 4.2 11.5357C3.20589 11.5357 2.4 10.7203 2.4 9.71429C2.4 9.67349 2.4005 9.63226 2.4015 9.59073C1.64772 10.584 1.2 11.827 1.2 13.175C1.2 14.6168 2.35511 15.7857 3.78 15.7857H13.62C15.0449 15.7857 16.2 14.6168 16.2 13.175C16.2 11.1665 15.2063 9.39092 13.686 8.32721Z" fill="#D6C491"/>
</svg>
