<svg width="50" height="50" viewBox="0 0 50 50" fill="none" xmlns="http://www.w3.org/2000/svg">
<path d="M49.7988 28.0782C51.7588 47.7439 32.1399 53.015 18.848 48.4792C11.4818 45.9731 5.20044 41.3026 2.09169 33.0697C-0.77092 25.5203 -0.460955 16.3968 1.60851 8.6714C1.63586 8.55748 1.70879 8.46429 1.78173 8.40215C2.60222 6.27921 3.98794 4.3841 6.09387 2.90322C10.871 -0.452066 16.6965 -1.27019 21.4644 2.43719C25.8313 5.8339 27.8552 11.861 32.459 14.9056C32.6049 14.6881 32.7963 14.5121 33.0607 14.3982C38.7859 11.9749 46.5259 13.3419 49.1515 20.477C50.054 22.9314 50.1999 25.4996 49.7623 27.9539C49.7714 27.9954 49.7897 28.0368 49.7988 28.0782ZM47.0182 27.664C48.6592 18.3955 40.4087 14.5121 33.7536 17.246C33.0881 17.5153 32.5958 17.1839 32.3496 16.6454C32.2949 16.6454 32.2402 16.6557 32.1855 16.635C25.0655 14.2843 22.7225 1.99191 14.4811 2.64432C2.52016 3.5867 1.18002 16.78 7.04199 26.2867C12.5484 35.203 23.4336 39.0243 32.7599 38.2165C38.4122 37.7298 45.7237 34.9648 47.0182 27.664ZM47.3191 33.95C46.2068 35.6069 44.7938 37.0256 43.1619 38.0612C33.2704 44.3679 16.4503 41.8514 8.33654 32.6348C5.89329 29.8594 3.51387 25.7585 2.11904 21.3883C2.2102 24.7436 2.62044 28.0471 3.6962 31.1953C6.22149 38.5686 11.6732 43.4359 18.2919 45.621C29.2865 49.2455 44.3197 47.2882 47.3191 33.95Z" fill="#1D1D1B"/>
<path d="M33.7498 17.2459C40.4049 14.5119 48.6554 18.3954 47.0144 27.6638C45.7199 34.9647 38.4084 37.7297 32.7561 38.2164C23.4298 39.0242 12.5446 35.2029 7.03818 26.2865C1.17622 16.7799 2.51636 3.58656 14.4773 2.64418C22.7187 1.99176 25.0617 14.2841 32.1817 16.6349C32.2364 16.6556 32.2911 16.6452 32.3458 16.6452C32.592 17.1837 33.0843 17.5151 33.7498 17.2459ZM16.2368 24.0911C19.7741 24.6813 22.8099 21.2122 22.117 17.1216C21.6338 14.2427 19.8561 12.0473 17.7502 10.4939C16.5832 9.64471 14.8602 8.80589 13.2922 8.8266C13.3013 8.47451 13.0825 8.13275 12.7269 8.29845C9.37203 9.83111 7.34815 13.145 8.72476 17.2252C9.87345 20.6633 13.0278 23.5526 16.2368 24.0911Z" fill="#FF4121"/>
<path d="M43.162 38.0615C44.7939 37.026 46.207 35.6072 47.3192 33.9503C44.3198 47.2886 29.2866 49.2458 18.292 45.6213C11.6733 43.4362 6.2216 38.569 3.69631 31.1956C2.62055 28.0475 2.21031 24.744 2.11914 21.3887C3.51398 25.7588 5.8934 29.8597 8.33665 32.6351C16.4504 41.8518 33.2705 44.3682 43.162 38.0615Z" fill="#F6F6F6"/>
<path d="M22.1202 17.1221C22.8131 21.2126 19.7773 24.6818 16.24 24.0915C13.031 23.553 9.87665 20.6638 8.72796 17.2256C7.35135 13.1454 9.37523 9.83157 12.7301 8.29891C13.0857 8.13322 13.3045 8.47497 13.2954 8.82707C14.8634 8.80636 16.5864 9.64518 17.7534 10.4944C19.8593 12.0477 21.637 14.2432 22.1202 17.1221ZM15.7568 21.6165C17.9995 22.3103 20.4337 20.9537 20.1419 17.8988C19.7226 13.3836 15.301 11.0225 11.8276 10.7325C11.782 10.7222 11.7364 10.7118 11.6908 10.6911C10.3781 12.317 9.66697 14.4088 10.6698 16.6353C11.6817 18.9136 13.5506 20.933 15.7568 21.6165Z" fill="#1D1D1B"/>
<path d="M20.1442 17.8991C20.4359 20.954 18.0018 22.3106 15.7591 21.6168C13.5529 20.9333 11.684 18.9139 10.6721 16.6357C9.66925 14.4092 10.3803 12.3173 11.6931 10.6914C11.7387 10.7121 11.7843 10.7225 11.8299 10.7328C15.3033 11.0228 19.7248 13.3839 20.1442 17.8991ZM17.1722 18.9657C17.3728 17.5573 17.4183 16.1386 16.5249 15.0201C15.8503 14.1813 14.5102 13.5496 13.562 13.2804C12.9421 13.1043 12.3222 14.0363 12.8054 14.5852C12.7051 15.7243 12.5592 16.8842 12.9786 17.9715C13.5347 19.411 15.276 19.5663 16.452 19.5974C16.762 19.5974 17.1266 19.3282 17.1722 18.9657Z" fill="#F6F6F6"/>
<path d="M16.5232 15.0194C17.4166 16.1378 17.3711 17.5566 17.1705 18.965C17.1249 19.3274 16.7602 19.5967 16.4503 19.5967C15.2742 19.5656 13.533 19.4102 12.9769 17.9708C12.5575 16.8834 12.7034 15.7236 12.8036 14.5844C12.3205 14.0356 12.9404 13.1036 13.5603 13.2796C14.5085 13.5489 15.8486 14.1806 16.5232 15.0194ZM15.7939 17.888C15.8304 17.163 15.7392 16.4174 15.1466 16.0135C14.7637 15.7443 14.3443 15.5475 13.9341 15.3404C13.9523 15.9514 13.9888 16.5624 14.1802 17.1113C14.399 17.743 15.1466 17.8672 15.7939 17.888Z" fill="#1D1D1B"/>
</svg>
