<svg width="20" height="21" viewBox="0 0 20 21" fill="none" xmlns="http://www.w3.org/2000/svg">
<path d="M15.1821 0.19278C15.2401 0.131671 15.3091 0.0831885 15.385 0.0501082C15.461 0.0170279 15.5424 0 15.6246 0C15.7068 0 15.7882 0.0170279 15.8641 0.0501082C15.94 0.0831885 16.009 0.131671 16.067 0.19278L19.8167 4.1299C19.9341 4.25312 20 4.42023 20 4.59448C20 4.76874 19.9341 4.93585 19.8167 5.05907C19.6994 5.18228 19.5402 5.2515 19.3743 5.2515C19.2083 5.2515 19.0491 5.18228 18.9318 5.05907L18.4368 4.53805L16.1958 6.89114L18.5668 9.3794C18.6842 9.50262 18.7501 9.66973 18.7501 9.84398C18.7501 10.0182 18.6842 10.1854 18.5668 10.3086C18.4495 10.4318 18.2903 10.501 18.1244 10.501C17.9584 10.501 17.7992 10.4318 17.6819 10.3086L16.2495 8.80327L9.30006 16.1001C9.00979 16.4051 8.66511 16.6471 8.28571 16.8121C7.90632 16.9772 7.49966 17.0621 7.08898 17.062H4.63417L1.06821 20.8076C0.950856 20.9308 0.791697 21 0.62574 21C0.459783 21 0.300624 20.9308 0.183275 20.8076C0.0659259 20.6843 2.47295e-09 20.5172 0 20.343C-2.47295e-09 20.1687 0.0659259 20.0016 0.183275 19.8784L3.75049 16.1342V13.5554C3.75067 12.6856 4.07976 11.8515 4.66542 11.2364L11.6149 3.9383L10.1825 2.43432C10.0651 2.3111 9.99921 2.14399 9.99921 1.96974C9.99921 1.79548 10.0651 1.62837 10.1825 1.50515C10.2998 1.38194 10.459 1.31272 10.625 1.31272C10.7909 1.31272 10.9501 1.38194 11.0674 1.50515L13.4372 3.99473L15.6783 1.64164L15.1821 1.12194C15.1239 1.06099 15.0777 0.988576 15.0462 0.908856C15.0147 0.829135 14.9985 0.743672 14.9985 0.65736C14.9985 0.571049 15.0147 0.485586 15.0462 0.405865C15.0777 0.326145 15.1239 0.253734 15.1821 0.19278ZM10 7.4909L9.00883 8.53161L9.81752 9.3794C9.93486 9.50262 10.0008 9.66973 10.0008 9.84398C10.0008 10.0182 9.93486 10.1854 9.81752 10.3086C9.70017 10.4318 9.54101 10.501 9.37505 10.501C9.20909 10.501 9.04993 10.4318 8.93258 10.3086L8.12515 9.45946L7.13398 10.5002L7.94266 11.348C8.06001 11.4712 8.12594 11.6383 8.12594 11.8125C8.12594 11.9868 8.06001 12.1539 7.94266 12.2771C7.82531 12.4003 7.66615 12.4696 7.5002 12.4696C7.33424 12.4696 7.17508 12.4003 7.05773 12.2771L6.2503 11.428L5.55035 12.163C5.37591 12.3459 5.23754 12.5632 5.14317 12.8023C5.0488 13.0415 5.00028 13.2978 5.00039 13.5567V15.7497H7.09023C7.5873 15.7492 8.06386 15.5415 8.41513 15.1722L15.3646 7.87542L12.4998 4.86615L10.8837 6.56305L11.6924 7.41084C11.8097 7.53406 11.8756 7.70117 11.8756 7.87542C11.8756 8.04967 11.8097 8.21679 11.6924 8.34C11.575 8.46322 11.4159 8.53244 11.2499 8.53244C11.0839 8.53244 10.9248 8.46322 10.8074 8.34L10 7.4909ZM17.5532 3.6102L16.562 2.56949L14.3209 4.92258L15.3121 5.96329L17.5532 3.6102Z" fill="#845EF1"/>
</svg>
