<svg width="155" height="323" viewBox="0 0 155 323" fill="none" xmlns="http://www.w3.org/2000/svg">
<path d="M113.592 270.218L113.677 289.249L141.563 285.333L141.399 269.919L113.592 270.218Z" fill="#F48462"/>
<path d="M148.481 303.679C148.927 307.999 148.825 311.203 147.654 311.615C142.47 313.433 89.782 323.304 86.9409 322.993C84.0999 322.671 75.6543 323.438 74.9763 318.209C74.8527 317.196 75.1176 316.188 75.6314 315.243C77.7503 311.272 84.1317 308.117 84.1317 308.117L111.412 286.219C111.412 286.219 111.328 284.761 111.236 283.148C111.13 281.151 113.079 279.694 114.949 280.371L129.336 285.528L141.202 278.245C142.099 277.462 143.501 277.909 143.777 279.072C145.041 284.38 147.658 295.864 148.481 303.679Z" fill="#6876AA"/>
<path d="M67.4285 266.561L67.3049 285.196L96.4714 281.653V266.561H67.4285Z" fill="#F48462"/>
<path d="M87.128 103.96C87.5289 103.023 57.9404 168.6 53.233 182.853C49.2124 195.027 55.479 272.536 55.479 272.536L100.717 273.019L103.86 231.779C103.86 231.779 99.1598 214.305 98.5418 209.063C97.9238 203.821 103.86 188.877 103.86 188.877L106.539 135.322L93.2287 111.867L87.128 103.96Z" fill="#C6C9FF"/>
<path d="M144.36 130.061C144.36 130.061 149.947 201.027 150.994 235.277C152.041 269.527 150.994 272.538 150.994 272.538C150.994 272.538 128.306 274.419 114.51 273.719C100.714 273.021 100.714 273.021 100.714 273.021L102.808 142.061L83.486 130.344L85.7567 102.628L137.239 104.111L144.36 130.061Z" fill="#C6C9FF"/>
<path d="M151.462 264.154H110.835C110.592 264.154 110.394 263.956 110.394 263.712C110.394 263.468 110.592 263.27 110.835 263.27H151.462C151.705 263.27 151.903 263.468 151.903 263.712C151.903 263.956 151.705 264.154 151.462 264.154Z" fill="#845EF1"/>
<path d="M98.542 264.154H61.7828C61.5392 264.154 61.3414 263.956 61.3414 263.712C61.3414 263.468 61.5392 263.27 61.7828 263.27H98.542C98.7857 263.27 98.9835 263.468 98.9835 263.712C98.9835 263.956 98.7839 264.154 98.542 264.154Z" fill="#845EF1"/>
<path d="M99.1597 302.714C99.0061 307.055 98.4623 310.213 97.2457 310.459C91.8602 311.544 38.3141 314.036 35.5454 313.334C32.775 312.624 24.3048 312.215 24.356 306.941C24.3737 305.922 24.7745 304.96 25.4137 304.094C28.0605 300.454 34.8162 298.211 34.8162 298.211L64.8567 280.293C64.8567 280.293 64.9732 278.837 65.1057 277.227C65.2752 275.233 67.4082 274.061 69.1669 274.991L82.7048 282.089L95.4605 276.516C96.4581 275.866 97.7842 276.5 97.8972 277.692C98.4164 283.123 99.4228 294.86 99.1597 302.714Z" fill="#6876AA"/>
<path d="M101.697 193.256C101.444 193.253 101.252 193.051 101.255 192.807L102.187 136.8L89.0115 129.668C88.7978 129.553 88.7183 129.285 88.8331 129.069C88.9479 128.857 89.2162 128.776 89.4317 128.891L102.844 136.149C102.989 136.227 103.079 136.381 103.076 136.545L102.138 192.822C102.134 193.062 101.937 193.256 101.697 193.256Z" fill="#845EF1"/>
<path d="M91.4355 205.58C88.0877 205.58 84.6798 205.167 83.4208 203.65C82.8646 202.979 82.7463 202.16 83.0676 201.217C83.3996 200.236 84.0547 199.569 85.0152 199.237C89.389 197.714 99.0335 203.926 99.4413 204.193C99.5967 204.294 99.6727 204.479 99.632 204.659C99.5914 204.84 99.4466 204.976 99.263 205C98.5655 205.101 95.0358 205.58 91.4355 205.58ZM86.6556 199.872C86.1595 199.872 85.7021 199.935 85.3013 200.073C84.6021 200.317 84.1465 200.782 83.9011 201.501C83.6839 202.144 83.7492 202.662 84.0989 203.085C85.8505 205.193 93.7645 204.76 97.9034 204.285C95.6168 202.919 90.1288 199.872 86.6556 199.872Z" fill="#845EF1"/>
<path d="M81.7712 310.01C81.6441 310.01 81.5169 309.955 81.4304 309.847C81.275 309.658 81.305 309.379 81.4922 309.225L96.3844 297.057C96.5734 296.903 96.8524 296.93 97.006 297.119C97.1614 297.308 97.1314 297.587 96.9442 297.741L82.0519 309.909C81.9689 309.978 81.8701 310.01 81.7712 310.01Z" fill="white"/>
<path d="M113.221 38.119C113.221 38.119 127.652 37.6348 135.102 44.3914C142.551 51.148 137.607 117.617 137.607 117.617C137.607 117.617 118.175 119.248 104.265 117.617C90.3542 115.985 82.8269 113.525 82.8269 113.525C82.8269 113.525 83.8386 52.8623 87.5626 46.3461C91.2865 39.8298 113.221 38.119 113.221 38.119Z" fill="#6876AA"/>
<path d="M79.2333 86.3558L62.7219 160.357C62.7219 160.357 83.0014 114.913 83.4887 112.041C83.9761 109.169 102.926 39.1089 102.926 39.1089C102.926 39.1089 99.3151 38.5911 91.371 41.6486C83.4287 44.7062 79.2333 86.3558 79.2333 86.3558Z" fill="#DCD9E2"/>
<path d="M28.4566 62.3463C28.4566 62.3463 46.8539 62.767 61.287 59.2711C75.7184 55.7771 89.4135 41.0797 95.2528 40.6219C101.092 40.1659 86.892 88.0031 86.892 88.0031C86.892 88.0031 69.6672 103.996 44.0622 93.5456C18.4555 83.0969 28.4566 62.3463 28.4566 62.3463Z" fill="#DCD9E2"/>
<path d="M117.31 37.9092C117.31 37.9092 106.761 186.095 107.591 187.782C108.419 189.468 127.461 192.417 134.181 191.154C140.902 189.89 147.647 187.728 148.727 186.465C149.808 185.201 144.989 88.3533 144.989 88.3533L146.038 48.5523C146.038 48.5523 131.985 37.858 117.31 37.9092Z" fill="#DCD9E2"/>
<path d="M97.7757 11.211C97.7757 11.211 95.5439 2.56153 101.046 0.75529C113.263 -3.25309 121.122 9.99861 121.122 9.99861C121.122 9.99861 127.504 9.76355 126.208 16.9231C124.818 24.5935 118.461 26.1452 118.461 26.1452L97.7757 11.211Z" fill="black"/>
<path d="M116.411 28.6055L117.336 39.526C117.336 39.526 115.634 42.8328 109.297 43.8932C104.575 44.6832 102.813 43.7501 102.813 43.7501L103.007 38.1634L103.203 32.7146L114.513 29.1994L116.411 28.6055Z" fill="#F48462"/>
<path d="M114.512 29.197C114.511 29.4974 114.426 29.8597 114.285 30.2768C112.305 35.9395 105.731 37.6803 103.005 38.1592L103.201 32.7105L114.512 29.197Z" fill="black"/>
<path d="M98.6616 8.02838C98.6616 8.02838 94.0954 22.2062 96.9965 29.622C99.8976 37.0379 106.722 35.1379 110.73 33.2469C114.739 31.354 116.411 28.6093 116.411 28.6093C116.411 28.6093 120.424 29.5372 122.658 25.6631C124.892 21.7891 122.877 17.8001 120.566 17.072C118.254 16.3438 115.779 18.2102 115.779 18.2102L117.449 14.0551C117.449 14.0551 106.745 -5.1314 98.6616 8.02838Z" fill="#F48462"/>
<path d="M116.646 24.0775C116.522 24.0775 116.397 24.0263 116.312 23.922C116.153 23.7382 116.174 23.4572 116.36 23.2999L120.975 19.3445C121.159 19.1837 121.44 19.2049 121.597 19.3922C121.756 19.5778 121.735 19.8571 121.549 20.0144L116.934 23.9697C116.849 24.044 116.747 24.0775 116.646 24.0775Z" fill="black"/>
<path d="M121.12 23.6359C121.046 23.6289 117.739 23.0704 117.739 23.0704C117.499 23.0315 117.336 22.8035 117.379 22.5614C117.417 22.321 117.635 22.1478 117.887 22.2008L121.194 22.7593C121.434 22.8 121.597 23.0262 121.555 23.2683C121.517 23.4839 121.332 23.6359 121.12 23.6359Z" fill="black"/>
<path d="M107.693 14.2245C107.553 14.2245 107.417 14.1591 107.331 14.0371C106.03 12.1708 104.257 12.9714 104.183 13.005C103.967 13.1146 103.701 13.0174 103.595 12.7965C103.49 12.5755 103.582 12.314 103.801 12.2079C104.666 11.7961 106.665 11.5381 108.055 13.5299C108.194 13.7296 108.147 14.0071 107.947 14.1467C107.869 14.198 107.781 14.2245 107.693 14.2245Z" fill="black"/>
<path d="M97.6272 13.4022C97.5124 13.4022 97.3976 13.358 97.3111 13.2696C97.1398 13.0947 97.1433 12.8154 97.3181 12.644C97.9026 12.0713 98.4765 11.7992 99.0345 11.8327C99.6419 11.8699 99.9721 12.264 100.009 12.3099C100.161 12.5008 100.129 12.78 99.9403 12.932C99.7549 13.084 99.4794 13.0522 99.3241 12.8702C99.3117 12.8561 99.1881 12.7253 98.9656 12.7164C98.6584 12.7164 98.3123 12.9091 97.9362 13.2767C97.8496 13.3615 97.7384 13.4022 97.6272 13.4022Z" fill="black"/>
<path d="M100.147 24.0208C99.9726 24.0208 99.8084 23.9165 99.7395 23.7469C97.8537 19.1181 100.444 16.6986 100.555 16.5961C100.735 16.4317 101.014 16.4441 101.179 16.6279C101.341 16.81 101.329 17.0874 101.149 17.2518C101.053 17.3384 98.9114 19.385 100.555 23.4128C100.647 23.6391 100.539 23.8971 100.313 23.989C100.259 24.0102 100.202 24.0208 100.147 24.0208Z" fill="black"/>
<path d="M98.1183 18.6465C97.7987 18.5953 97.6398 18.3655 97.6839 18.1251L98.1554 15.5625C98.1995 15.3204 98.4308 15.156 98.6692 15.2072C98.9094 15.2514 99.0683 15.4812 99.0241 15.7215L98.5527 18.2842C98.5138 18.4981 98.3284 18.6465 98.1183 18.6465Z" fill="black"/>
<path d="M105.031 18.1954C104.711 18.1441 104.552 17.9144 104.596 17.674L105.068 15.1113C105.112 14.871 105.347 14.7101 105.581 14.7561C105.822 14.8003 105.98 15.03 105.936 15.2704L105.465 17.8331C105.426 18.0469 105.239 18.1954 105.031 18.1954Z" fill="black"/>
<path d="M97.7757 11.211C97.7757 11.211 98.7745 8.91529 101.494 8.66609C104.213 8.41689 105.965 10.2002 105.965 10.2002C105.965 10.2002 105.159 14.889 109.067 17.0116C112.975 19.1342 115.78 18.2099 115.78 18.2099L118.383 17.024L120.02 12.9308L111.544 5.21268L103.005 1.58783L98.3542 3.65032L97.7757 11.211Z" fill="black"/>
<path d="M106.577 44.9991C105.285 44.9991 103.953 44.7517 102.631 44.1508C102.408 44.0483 102.309 43.7885 102.412 43.5658C102.514 43.3431 102.779 43.2441 102.996 43.3466C109.655 46.3777 116.951 39.2817 117.025 39.211C117.2 39.0396 117.479 39.0396 117.648 39.2146C117.819 39.3895 117.818 39.6688 117.645 39.8402C117.389 40.0947 112.347 44.9991 106.577 44.9991Z" fill="#FFBF69"/>
<path d="M121.951 51.7967C121.901 51.7967 121.848 51.7914 121.799 51.7791C121.442 51.6942 121.222 51.3372 121.306 50.982C122.378 46.4434 122.17 42.9352 120.685 40.5581C119.403 38.5062 117.63 38.0855 117.556 38.0679C117.201 37.9883 116.975 37.6348 117.053 37.2796C117.13 36.9261 117.471 36.7034 117.835 36.7724C117.93 36.7936 120.194 37.3008 121.783 39.8176C123.485 42.5092 123.757 46.3674 122.595 51.2877C122.525 51.5917 122.251 51.7967 121.951 51.7967Z" fill="#40507F"/>
<path d="M92.5688 64.8859C92.537 64.8859 92.5035 64.8841 92.4682 64.8788C92.1062 64.8222 91.8572 64.4846 91.912 64.1223C92.0285 63.3694 94.813 45.6428 102.106 40.3319C102.397 40.1216 102.812 40.1817 103.031 40.4786C103.244 40.7755 103.179 41.1891 102.884 41.4047C96.035 46.3886 93.2469 64.1436 93.2204 64.3221C93.1727 64.6508 92.8902 64.8859 92.5688 64.8859Z" fill="#40507F"/>
<path d="M120.929 69.257C120.838 69.257 120.748 69.2393 120.664 69.2022C120.33 69.0555 120.176 68.6631 120.323 68.3291C120.374 68.2107 125.465 56.4277 121.737 52.391C121.289 51.905 120.778 51.7088 120.134 51.7601C116.74 52.0588 111.409 59.2643 109.644 62.0161C109.448 62.3236 109.04 62.4102 108.727 62.214C108.42 62.0161 108.33 61.6061 108.53 61.2968C108.803 60.8708 115.285 50.8552 120.019 50.4381C121.096 50.3586 121.983 50.6997 122.71 51.4897C127.024 56.1626 121.764 68.345 121.538 68.8611C121.428 69.1085 121.185 69.257 120.929 69.257Z" fill="#40507F"/>
<path d="M111.45 62.8516H107.361C106.995 62.8516 106.698 62.5546 106.698 62.1888C106.698 61.823 106.995 61.526 107.361 61.526H111.45C111.816 61.526 112.112 61.823 112.112 62.1888C112.112 62.5546 111.816 62.8516 111.45 62.8516Z" fill="#40507F"/>
<path d="M121.528 70.9991C121.306 70.9991 121.089 70.886 120.965 70.6827L118.828 67.1957C118.638 66.8829 118.733 66.4764 119.046 66.2838C119.36 66.0929 119.766 66.1901 119.957 66.5011L122.093 69.9881C122.284 70.301 122.189 70.7075 121.876 70.9001C121.767 70.9673 121.647 70.9991 121.528 70.9991Z" fill="#40507F"/>
<path d="M95.7249 65.4549C95.7249 67.2011 94.3105 68.6185 92.5642 68.6185C90.8179 68.6185 89.4036 67.2028 89.4036 65.4549C89.4036 63.707 90.8179 62.2913 92.5642 62.2913C94.3105 62.2913 95.7249 63.707 95.7249 65.4549Z" fill="#40507F"/>
<path d="M93.7975 65.4546C93.7975 66.1351 93.2466 66.6865 92.5668 66.6865C91.887 66.6865 91.3361 66.1351 91.3361 65.4546C91.3361 64.7742 91.887 64.2228 92.5668 64.2228C93.2484 64.2228 93.7975 64.7742 93.7975 65.4546Z" fill="white"/>
<path d="M52.0135 93.7379L23.9507 95.6308C22.9301 95.6997 21.83 94.8726 21.4928 93.7822L7.85064 49.7501C7.51338 48.6614 8.06608 47.7212 9.08668 47.6522L37.1478 45.7594C38.1684 45.6905 39.2684 46.5176 39.6057 47.6081L53.2478 91.6401C53.5868 92.7306 53.0341 93.669 52.0135 93.7379Z" fill="#6876AA"/>
<path d="M48.7382 93.9515L20.6771 95.8444C19.6565 95.9133 18.5564 95.0861 18.2192 93.9957L4.57704 49.9637C4.23979 48.875 4.79248 47.9347 5.81308 47.8658L33.8742 45.973C34.8948 45.904 35.9948 46.7311 36.3321 47.8216L49.9742 91.8537C50.3115 92.9441 49.7588 93.8826 48.7382 93.9515Z" fill="#C6C9FF"/>
<path d="M18.6138 54.0957C16.8887 54.0957 15.3472 52.9558 14.8104 51.2467L13.5974 47.3956C13.5232 47.1623 13.6521 46.9132 13.8852 46.8425C14.1288 46.7718 14.3673 46.899 14.4379 47.1306L15.6509 50.9816C16.0923 52.3831 17.3619 53.2863 18.8098 53.2085L25.6362 52.7649C26.3901 52.7154 27.077 52.3266 27.522 51.6974C27.9935 51.0329 28.1347 50.1951 27.9122 49.3998L27.1106 46.5349C27.0453 46.2999 27.183 46.056 27.4178 45.9888C27.6526 45.9288 27.8946 46.0613 27.9634 46.2964L28.7651 49.1613C29.0582 50.2146 28.8692 51.3245 28.2424 52.2082C27.6438 53.0547 26.715 53.5797 25.6962 53.6451L18.8698 54.0886C18.7833 54.0939 18.6986 54.0957 18.6138 54.0957Z" fill="#FFBF69"/>
<path d="M4.22497 68.5368C4.22497 68.5368 -2.65258 65.2919 1.14199 62.8866C4.36799 60.8417 19.963 65.1258 21.1884 66.7341C22.5639 68.5368 17.0619 70.5693 17.0619 70.5693C17.0619 70.5693 24.8558 71.3805 24.6263 74.1871C24.3967 76.9937 17.9783 76.6278 17.9783 76.6278C17.9783 76.6278 24.3597 75.7901 22.2973 79.6747C20.2349 83.5594 6.0578 83.6937 4.45275 81.6895C2.84769 79.6853 3.76586 76.6278 3.76586 76.6278C3.76586 76.6278 1.47391 75.449 1.12959 72.4356C0.785275 69.4223 4.22497 68.5368 4.22497 68.5368Z" fill="#F48462"/>
<path d="M15.5699 69.9349C15.5328 69.9331 4.18613 68.977 4.18613 68.977C3.94245 68.9558 3.76235 68.742 3.78354 68.4998C3.80297 68.2559 4.01489 68.0668 4.26033 68.0951L15.6087 69.0512C15.8524 69.0724 16.0325 69.2863 16.0131 69.5284C15.9919 69.7617 15.7977 69.9349 15.5699 69.9349Z" fill="black"/>
<path d="M17.9812 77.208C17.9759 77.208 5.82583 77.0719 5.82583 77.0719C5.58216 77.0684 5.3862 76.8705 5.38973 76.6248C5.39326 76.3809 5.5963 76.1706 5.83645 76.1882L17.9865 76.3244C18.2302 76.3279 18.4261 76.5258 18.4226 76.7715C18.4191 77.0118 18.2213 77.208 17.9812 77.208Z" fill="black"/>
<path d="M62.6414 69.2991C62.2299 69.2991 61.8574 69.1312 61.559 68.8131C59.8568 66.9962 60.7415 60.0045 60.8492 59.2128C60.8757 59.029 61.0098 58.8805 61.1899 58.8399C61.37 58.8045 61.5554 58.8752 61.6578 59.0307C62.094 59.7023 65.8815 65.6636 64.626 68.1839C64.3947 68.6487 63.8809 69.216 62.7526 69.2938C62.7155 69.2973 62.6784 69.2991 62.6414 69.2991ZM61.5819 60.6019C61.3471 63.0956 61.2023 67.1394 62.2035 68.2086C62.3483 68.3642 62.5125 68.4154 62.6891 68.4136C63.2717 68.373 63.646 68.168 63.8332 67.7898C64.5625 66.3299 62.8232 62.7457 61.5819 60.6019Z" fill="white"/>
<path d="M106.502 36.7951C106.502 36.7951 110.873 30.9257 109.388 30.4768C106.19 29.51 102.971 33.6792 102.971 33.6792C102.971 33.6792 91.0274 23.0486 88.4918 23.2942C85.9562 23.5381 93.7025 31.8995 93.7025 31.8995C93.7025 31.8995 85.2464 38.2921 84.9445 40.1443C84.6425 41.9965 90.4765 48.6948 91.4212 48.9104C92.3659 49.126 92.5671 46.5403 92.5671 46.5403C92.5671 46.5403 95.7631 50.5204 97.9102 52.0899C100.057 53.6593 104.489 54.7268 104.489 54.7268L111.286 42.6928L106.502 36.7951Z" fill="#F48462"/>
<path d="M146.035 48.5496C146.035 48.5496 167.55 82.3292 143.919 99.9569C119.339 118.293 93.9014 55.7941 93.9014 55.7941L112.961 40.6159L130.811 62.1831L146.035 48.5496Z" fill="#DCD9E2"/>
<path d="M138.741 69.9932C138.558 69.9932 138.344 69.9454 138.109 69.8482C135.272 68.6853 128.827 61.1634 128.553 60.8417C128.426 60.6933 128.412 60.4777 128.52 60.3133C128.627 60.1472 128.83 60.0783 129.018 60.1313C134.698 61.8739 139.088 66.8649 139.49 68.8921C139.594 69.4117 139.416 69.6839 139.248 69.8217C139.112 69.9348 138.941 69.9932 138.741 69.9932ZM130.365 61.5664C132.365 63.8056 136.478 68.224 138.443 69.0299C138.528 69.0653 138.591 69.0847 138.637 69.0953C138.519 68.0932 135.455 63.7455 130.365 61.5664Z" fill="white"/>
<path d="M92.566 46.9789C92.4635 46.9789 92.3611 46.9436 92.2764 46.8711L89.6296 44.5771C89.4459 44.4162 89.4265 44.137 89.5854 43.9514C89.7461 43.7712 90.0215 43.7517 90.2087 43.9072L92.8555 46.2013C93.0374 46.3621 93.0586 46.6414 92.8997 46.8269C92.8114 46.9277 92.6896 46.9789 92.566 46.9789Z" fill="black"/>
<path d="M110.601 42.2904C110.474 42.2904 110.345 42.2356 110.258 42.126L106.16 37.0732C106.026 36.907 106.03 36.6667 106.171 36.5058C107.017 35.5338 109.144 32.7078 108.849 31.3257C108.793 31.0588 108.639 30.8732 108.367 30.7478C106.584 29.9224 104.128 32.7608 103.337 33.9272C103.266 34.0315 103.155 34.1005 103.031 34.1164C102.909 34.1287 102.781 34.0969 102.687 34.0156L96.6747 28.9433C96.4893 28.786 96.4645 28.5068 96.6217 28.3194C96.7823 28.1339 97.0578 28.1126 97.245 28.2664L102.894 33.033C103.752 31.8983 106.36 28.8355 108.742 29.9454C109.264 30.1875 109.6 30.6011 109.716 31.1419C110.1 32.9411 107.873 35.8395 107.08 36.7992L110.949 41.5693C111.103 41.7567 111.073 42.0377 110.884 42.1914C110.797 42.2568 110.698 42.2904 110.601 42.2904Z" fill="black"/>
<path d="M124.41 182.908C120.694 182.908 117.508 182.623 116.941 181.848C116.113 180.72 116.435 170.095 116.848 161.38C116.917 159.943 118.004 158.794 119.436 158.646L138.393 156.705C139.207 156.64 140.016 156.889 140.622 157.437C141.227 157.985 141.573 158.764 141.573 159.581V180.655C141.573 180.865 141.425 181.047 141.218 181.088L136.562 182.019C134.228 182.489 128.927 182.908 124.41 182.908ZM119.525 159.528C118.531 159.63 117.777 160.427 117.729 161.422C117.19 172.733 117.162 180.547 117.653 181.331C118.469 182.334 131.076 182.22 136.387 181.155L140.689 180.294V159.582C140.689 159.017 140.447 158.474 140.028 158.094C139.61 157.714 139.041 157.53 138.482 157.587L119.525 159.528Z" fill="white"/>
<path d="M134.693 102.889C122.437 102.889 113.708 90.4063 113.602 90.2508C113.464 90.0493 113.515 89.7736 113.715 89.6358C113.914 89.5014 114.191 89.5492 114.329 89.7489C114.458 89.938 127.438 108.485 143.711 99.5719C143.923 99.4535 144.191 99.5295 144.31 99.7468C144.428 99.9607 144.35 100.229 144.135 100.346C140.831 102.159 137.658 102.889 134.693 102.889Z" fill="white"/>
<path d="M101.407 28.333C101.326 28.333 101.245 28.31 101.17 28.2641L98.407 26.518C98.2021 26.3889 98.1404 26.115 98.271 25.9082C98.3999 25.7032 98.6736 25.6431 98.8802 25.7721L101.644 27.5183C101.848 27.6473 101.91 27.9212 101.78 28.128C101.697 28.2606 101.554 28.333 101.407 28.333Z" fill="black"/>
<path d="M89.2515 75.842L84.0444 75.0449C83.2569 74.9248 82.7147 74.186 82.8348 73.3978L83.4122 69.6191C83.5323 68.8309 84.2704 68.2883 85.0579 68.4085L90.265 69.2056C91.0526 69.3258 91.5946 70.0645 91.4746 70.8528L90.8972 74.6314C90.7753 75.4214 90.039 75.9622 89.2515 75.842Z" fill="#68B6D8"/>
</svg>
