<svg width="25" height="17" viewBox="0 0 25 17" fill="none" xmlns="http://www.w3.org/2000/svg">
<path fill-rule="evenodd" clip-rule="evenodd" d="M10.4062 6.67857H7.71875C4.14619 6.67857 1.25 9.49201 1.25 12.9625C1.25 14.5217 2.55117 15.7857 4.15625 15.7857H13.9688C15.5738 15.7857 16.875 14.5217 16.875 12.9625C16.875 9.49201 13.9788 6.67857 10.4062 6.67857ZM7.71875 5.46429C3.4558 5.46429 0 8.82136 0 12.9625C0 15.1924 1.86082 17 4.15625 17H13.9688C16.2642 17 18.125 15.1924 18.125 12.9625C18.125 8.82136 14.6692 5.46429 10.4062 5.46429H7.71875Z" fill="#D6C491"/>
<path fill-rule="evenodd" clip-rule="evenodd" d="M5.7255 7.93627C5.24738 8.72179 5 9.67834 5 10.3214C5 10.6568 4.72019 10.9286 4.375 10.9286C4.02981 10.9286 3.75 10.6568 3.75 10.3214C3.75 9.44666 4.06513 8.27821 4.6495 7.3182C5.2275 6.36862 6.17488 5.46429 7.5 5.46429C7.84519 5.46429 8.125 5.7361 8.125 6.07143C8.125 6.40675 7.84519 6.67857 7.5 6.67857C6.82513 6.67857 6.21 7.1403 5.7255 7.93627Z" fill="#D6C491"/>
<path fill-rule="evenodd" clip-rule="evenodd" d="M8.8505 7.93627C8.37238 8.72179 8.125 9.67834 8.125 10.3214C8.125 10.6568 7.84519 10.9286 7.5 10.9286C7.15481 10.9286 6.875 10.6568 6.875 10.3214C6.875 9.44666 7.19012 8.27821 7.7745 7.3182C8.3525 6.36862 9.29988 5.46429 10.625 5.46429C10.9702 5.46429 11.25 5.7361 11.25 6.07143C11.25 6.40675 10.9702 6.67857 10.625 6.67857C9.95012 6.67857 9.335 7.1403 8.8505 7.93627Z" fill="#D6C491"/>
<path fill-rule="evenodd" clip-rule="evenodd" d="M13.1814 6.06457C13.3579 6.35278 13.2605 6.72532 12.9639 6.89678C12.4653 7.18487 12.0302 7.74405 11.7161 8.4252C11.4043 9.10101 11.25 9.81483 11.25 10.3214C11.25 10.6568 10.9702 10.9286 10.625 10.9286C10.2798 10.9286 10 10.6568 10 10.3214C10 9.61769 10.2034 8.73509 10.5753 7.92868C10.9448 7.12755 11.5193 6.31866 12.3248 5.85322C12.6214 5.68176 13.0049 5.77642 13.1814 6.06457Z" fill="#D6C491"/>
<path fill-rule="evenodd" clip-rule="evenodd" d="M19.375 0C19.7202 0 20 0.271818 20 0.607143V9.10714C20 9.44247 19.7202 9.71429 19.375 9.71429C19.0298 9.71429 18.75 9.44247 18.75 9.10714V0.607143C18.75 0.271818 19.0298 0 19.375 0Z" fill="#D6C491"/>
<path fill-rule="evenodd" clip-rule="evenodd" d="M24.375 0C24.7202 0 25 0.271818 25 0.607143V9.10714C25 9.44247 24.7202 9.71429 24.375 9.71429C24.0298 9.71429 23.75 9.44247 23.75 9.10714V0.607143C23.75 0.271818 24.0298 0 24.375 0Z" fill="#D6C491"/>
<path fill-rule="evenodd" clip-rule="evenodd" d="M21.875 0C22.2202 0 22.5 0.271818 22.5 0.607143V9.10714C22.5 9.44247 22.2202 9.71429 21.875 9.71429C21.5298 9.71429 21.25 9.44247 21.25 9.10714V0.607143C21.25 0.271818 21.5298 0 21.875 0Z" fill="#D6C491"/>
<path fill-rule="evenodd" clip-rule="evenodd" d="M21.875 7.28571C22.2202 7.28571 22.5 7.55753 22.5 7.89286V16.3929C22.5 16.7282 22.2202 17 21.875 17C21.5298 17 21.25 16.7282 21.25 16.3929V7.89286C21.25 7.55753 21.5298 7.28571 21.875 7.28571Z" fill="#D6C491"/>
<path fill-rule="evenodd" clip-rule="evenodd" d="M18.75 0.607143V3.96337C18.75 4.88325 19.285 5.72414 20.1319 6.13554L22.5 7.28571V3.92949C22.5 3.00961 21.965 2.16871 21.1181 1.75731L18.75 0.607143ZM20 2.57192V3.96337C20 4.42328 20.2675 4.84373 20.691 5.04943L21.25 5.32094V3.92949C21.25 3.46958 20.9825 3.04913 20.559 2.84343L20 2.57192Z" fill="#D6C491"/>
<path fill-rule="evenodd" clip-rule="evenodd" d="M18.75 4.25V7.60623C18.75 8.52611 19.285 9.367 20.1319 9.7784L22.5 10.9286V7.57235C22.5 6.65246 21.965 5.81157 21.1181 5.40017L18.75 4.25ZM20 6.21477V7.60623C20 8.06614 20.2675 8.48658 20.691 8.69228L21.25 8.9638V7.57235C21.25 7.11244 20.9825 6.69199 20.559 6.48629L20 6.21477Z" fill="#D6C491"/>
<path fill-rule="evenodd" clip-rule="evenodd" d="M18.75 7.89286V11.2491C18.75 12.169 19.285 13.0099 20.1319 13.4213L22.5 14.5714V11.2152C22.5 10.2953 21.965 9.45443 21.1181 9.04303L18.75 7.89286ZM20 9.85763V11.2491C20 11.709 20.2675 12.1294 20.691 12.3351L21.25 12.6067V11.2152C21.25 10.7553 20.9825 10.3348 20.559 10.1291L20 9.85763Z" fill="#D6C491"/>
<path fill-rule="evenodd" clip-rule="evenodd" d="M25 0.607143V3.96337C25 4.88325 24.465 5.72414 23.6181 6.13554L21.25 7.28571V3.92949C21.25 3.00961 21.785 2.16871 22.6319 1.75731L25 0.607143ZM23.75 2.57192V3.96337C23.75 4.42328 23.4825 4.84373 23.059 5.04943L22.5 5.32094V3.92949C22.5 3.46958 22.7675 3.04913 23.191 2.84343L23.75 2.57192Z" fill="#D6C491"/>
<path fill-rule="evenodd" clip-rule="evenodd" d="M25 4.25V7.60623C25 8.52611 24.465 9.367 23.6181 9.7784L21.25 10.9286V7.57235C21.25 6.65246 21.785 5.81157 22.6319 5.40017L25 4.25ZM23.75 6.21477V7.60623C23.75 8.06614 23.4825 8.48658 23.059 8.69228L22.5 8.9638V7.57235C22.5 7.11244 22.7675 6.69199 23.191 6.48629L23.75 6.21477Z" fill="#D6C491"/>
<path fill-rule="evenodd" clip-rule="evenodd" d="M25 7.89286V11.2491C25 12.169 24.465 13.0099 23.6181 13.4213L21.25 14.5714V11.2152C21.25 10.2953 21.785 9.45443 22.6319 9.04303L25 7.89286ZM23.75 9.85763V11.2491C23.75 11.709 23.4825 12.1294 23.059 12.3351L22.5 12.6067V11.2152C22.5 10.7553 22.7675 10.3348 23.191 10.1291L23.75 9.85763Z" fill="#D6C491"/>
</svg>
