<svg width="26" height="26" viewBox="0 0 26 26" fill="none" xmlns="http://www.w3.org/2000/svg">
<path fill-rule="evenodd" clip-rule="evenodd" d="M12.5268 0C13.0791 0 13.5268 0.447715 13.5268 1V11.5073H24.0329C24.5851 11.5073 25.0329 11.955 25.0329 12.5073C25.0329 13.0595 24.5851 13.5073 24.0329 13.5073H13.5268V24.0145C13.5268 24.5668 13.0791 25.0145 12.5268 25.0145C11.9745 25.0145 11.5268 24.5668 11.5268 24.0145V13.5073H1.02075C0.468467 13.5073 0.020752 13.0595 0.020752 12.5073C0.020752 11.955 0.468467 11.5073 1.02075 11.5073H11.5268V1C11.5268 0.447715 11.9745 0 12.5268 0Z" fill="#B0B0C1"/>
</svg>
