<svg width="17" height="17" viewBox="0 0 17 17" fill="none" xmlns="http://www.w3.org/2000/svg">
<path d="M12.9048 0.15606C12.9541 0.106591 13.0127 0.0673431 13.0773 0.0405638C13.1418 0.0137845 13.211 0 13.2809 0C13.3507 0 13.4199 0.0137845 13.4845 0.0405638C13.549 0.0673431 13.6076 0.106591 13.657 0.15606L16.8442 3.34326C16.944 3.443 17 3.57828 17 3.71934C17 3.86041 16.944 3.99569 16.8442 4.09543C16.7445 4.19518 16.6092 4.25122 16.4681 4.25122C16.3271 4.25122 16.1918 4.19518 16.092 4.09543L15.6713 3.67366L13.7664 5.57854L15.7818 7.59285C15.8815 7.6926 15.9376 7.82788 15.9376 7.96894C15.9376 8.11 15.8815 8.24528 15.7818 8.34503C15.6821 8.44477 15.5468 8.50081 15.4057 8.50081C15.2646 8.50081 15.1294 8.44477 15.0296 8.34503L13.8121 7.12646L7.90505 13.0334C7.65832 13.2803 7.36534 13.4762 7.04285 13.6098C6.72037 13.7435 6.37471 13.8122 6.02563 13.8121H3.93905L0.907975 16.8442C0.808228 16.944 0.672942 17 0.531879 17C0.390816 17 0.25553 16.944 0.155784 16.8442C0.056037 16.7445 2.102e-09 16.6092 0 16.4681C-2.102e-09 16.3271 0.056037 16.1918 0.155784 16.092L3.18792 13.061V10.9734C3.18807 10.2693 3.46779 9.59408 3.96561 9.09614L4.56056 8.50014L5.46786 9.40743C5.56761 9.50717 5.7029 9.56321 5.84396 9.56321C5.98502 9.56321 6.12031 9.50717 6.22006 9.40743C6.3198 9.30768 6.37584 9.1724 6.37584 9.03134C6.37584 8.89028 6.3198 8.75499 6.22006 8.65525L5.31275 7.74902L6.15525 6.90654L7.06149 7.81383C7.16124 7.91357 7.29652 7.96961 7.43758 7.96961C7.57865 7.96961 7.71393 7.91357 7.81368 7.81383C7.91343 7.71408 7.96946 7.5788 7.96946 7.43774C7.96946 7.29668 7.91343 7.1614 7.81368 7.06165L6.90638 6.15543L7.74887 5.31294L8.65511 6.22023C8.75486 6.31998 8.89015 6.37601 9.03121 6.37601C9.17227 6.37601 9.30756 6.31998 9.4073 6.22023C9.50705 6.12049 9.56309 5.9852 9.56309 5.84414C9.56309 5.70308 9.50705 5.5678 9.4073 5.46805L8.5 4.56183L9.8737 3.18815L8.65511 1.97064C8.55537 1.87089 8.49933 1.73561 8.49933 1.59455C8.49933 1.45349 8.55537 1.3182 8.65511 1.21846C8.75486 1.11871 8.89015 1.06268 9.03121 1.06268C9.17227 1.06268 9.30756 1.11871 9.4073 1.21846L11.4216 3.23383L13.3266 1.32895L12.9048 0.908238C12.8553 0.858894 12.8161 0.800276 12.7893 0.73574C12.7625 0.671205 12.7487 0.60202 12.7487 0.532149C12.7487 0.462278 12.7625 0.393093 12.7893 0.328558C12.8161 0.264022 12.8553 0.205404 12.9048 0.15606ZM14.9202 2.92255L14.0777 2.08006L12.1728 3.98494L13.0153 4.82743L14.9202 2.92255Z" fill="#58AB6B"/>
</svg>
