<svg width="46" height="58" viewBox="0 0 46 58" fill="none" xmlns="http://www.w3.org/2000/svg">
<path d="M39.1134 22.7665C37.979 25.482 40.3126 32.6128 38.1633 34.3808C35.5789 36.5301 29.8881 39.5391 26.9199 39.9088C21.9473 40.5444 16.6532 40.4935 12.0303 37.674C11.6465 35.6634 10.2417 25.839 9.86643 23.8169C9.84084 23.6551 9.82378 23.4933 9.80672 23.3315C14.4125 28.0923 21.8245 28.6239 27.2918 28.3235C30.9679 28.1282 36.2646 26.7646 39.1134 22.7665Z" fill="#FBBE3A"/>
<path d="M38.6525 36.2519C42.2006 37.9158 44.4951 41.6713 43.5312 46.8712C42.738 51.1005 38.8742 52.8338 36.1875 53.7236C31.6499 55.2373 26.7114 54.6018 22.1056 54.1049C17.8665 53.6427 13.6616 53.712 9.49077 52.3485C6.97462 51.528 4.56939 49.945 2.96588 47.1139C0.338856 42.4802 2.24938 36.1363 6.01933 34.2528C6.3008 35.2697 6.67612 36.3328 7.17082 37.2687C7.12818 37.2803 7.07699 37.3034 7.0514 37.3727C3.98938 45.8659 17.6107 48.5005 20.9627 48.8587C26.2423 49.4365 39.2751 48.4312 38.6013 37.4999C38.5842 37.1763 38.4393 36.9336 38.2516 36.7834C38.3881 36.6101 38.516 36.4368 38.6439 36.2519C38.6525 36.2519 38.6525 36.2519 38.6525 36.2519Z" fill="#F6F6F6"/>
<path d="M39.8555 33.8366C46.0989 37.1877 48.5042 47.287 42.6787 53.5731C37.0323 59.6859 28.0509 57.8833 21.4151 57.2824C15.419 56.7509 6.81293 57.1553 2.36917 50.5572C-1.27285 45.1724 -1.12785 32.762 5.72118 33.0277C5.67 32.7504 5.61031 32.4615 5.57619 32.2073C4.74032 25.9096 5.42265 18.676 6.78734 12.5979C6.95793 11.8583 7.71702 12.1703 7.62319 12.9099C6.8982 18.6991 6.25851 25.1354 6.77026 30.994C7.01761 33.8135 7.75114 37.3263 10.1393 38.1352C10.6767 38.3085 10.8217 37.4765 10.8131 36.4019C10.8046 36.4019 10.8046 36.4019 10.8046 36.3903C10.7364 36.2517 10.7449 36.113 10.7961 36.009C10.7364 34.5993 10.4549 32.9584 10.4038 32.6233C10.2502 31.722 10.0626 30.8091 9.86641 29.9078C9.81523 29.8269 9.79817 29.7229 9.81523 29.642C9.312 27.3309 8.76614 24.9968 8.60408 22.651C8.37379 19.2653 11.8623 16.0992 13.8837 14.493C13.6705 13.973 13.8752 13.1872 14.4211 13.1988C19.061 13.3028 23.6242 13.5801 28.2641 12.933C29.9017 12.7135 43.1819 10.8068 39.3522 5.4567C35.6846 0.314572 27.1468 2.10564 22.5324 3.12251C17.6536 4.22027 10.9155 5.7918 7.65735 11.4077C7.20529 12.1935 6.28408 11.1882 6.65084 10.3562C9.94315 2.96075 19.3595 1.031 25.0742 0.383905C29.3218 -0.0898639 38.7722 -1.28007 40.9387 5.69935C41.3651 7.07444 41.2628 8.2762 40.7937 9.31618C42.1839 12.3437 41.8257 14.701 40.606 16.492C40.8619 16.6885 41.0751 17.1045 41.024 17.5551C40.8619 19.1729 40.4013 20.5595 39.7446 21.7497C40.0772 21.6457 40.461 21.9808 40.4866 22.5124C40.9131 30.6011 32.3667 33.9984 27.8974 34.6108C22.7968 35.3157 16.0331 35.073 11.342 31.2829C11.5893 32.554 12.067 34.8881 12.067 36.8063C15.7346 40.3192 22.413 39.9032 26.4303 39.3254C31.2835 38.6436 38.2349 36.9912 38.7637 29.0296C38.8319 28.0705 39.8298 27.7932 40.0345 28.7985C40.4354 30.682 40.3246 32.3575 39.8555 33.8366ZM43.5312 46.8712C44.4951 41.6713 42.2006 37.9158 38.6525 36.2519C38.6525 36.2519 38.6525 36.2519 38.6439 36.2519C38.516 36.4368 38.3881 36.6101 38.2516 36.7834C38.4393 36.9336 38.5842 37.1763 38.6013 37.4999C39.2751 48.4312 26.2423 49.4365 20.9627 48.8587C17.6107 48.5005 3.98938 45.8659 7.0514 37.3727C7.07699 37.3034 7.12818 37.2803 7.17082 37.2687C6.67612 36.3328 6.3008 35.2697 6.01933 34.2528C2.24938 36.1363 0.338856 42.4802 2.96588 47.1139C4.56939 49.945 6.97462 51.528 9.49077 52.3485C13.6616 53.712 17.8665 53.6427 22.1056 54.1049C26.7114 54.6018 31.6499 55.2373 36.1875 53.7236C38.8742 52.8338 42.738 51.1005 43.5312 46.8712ZM11.0861 18.988C18.1654 20.1782 41.4078 22.8013 40.0687 10.4717C35.5482 15.9374 18.916 16.0992 14.7452 15.0245C14.7281 15.0476 14.7196 15.0707 14.7025 15.0938C13.6449 16.2378 12.1523 17.4858 11.0861 18.988ZM35.0193 29.3531C37.1687 27.5852 37.979 25.482 39.1134 22.7665C36.2646 26.7646 30.9679 28.1283 27.2918 28.3247C21.8245 28.6251 14.4125 28.0936 9.80669 23.3328C9.82375 23.4946 9.84082 23.6564 9.86641 23.8181C10.2417 25.8403 10.6767 27.8394 11.0605 29.85C15.6834 32.6695 21.2104 33.2473 26.183 32.6117C29.1512 32.242 32.4349 31.5024 35.0193 29.3531ZM39.4205 17.8325C37.1858 19.8893 33.7996 20.9409 31.582 21.276C24.7671 22.3159 17.2869 21.9577 10.5487 19.8431C10.1649 20.5364 9.90052 21.2875 9.80669 22.1079C17.6878 27.2616 34.4393 30.2544 39.4205 17.8325ZM37.254 37.8579C31.0276 43.624 16.9628 43.5893 11.9646 38.1005C11.8196 38.9094 11.5211 39.5334 10.9496 39.7298C9.50819 40.2383 8.30552 39.1983 7.39289 37.6614C7.69994 45.5075 18.336 46.559 22.413 46.6168C27.5221 46.6861 35.8211 46.039 37.254 37.8579Z" fill="#1D1D1B"/>
<path d="M40.0687 10.4717C41.4078 22.8013 18.1654 20.1782 11.0861 18.988C12.1523 17.4858 13.6449 16.2378 14.7025 15.0938C14.7196 15.0707 14.7281 15.0476 14.7452 15.0245C18.916 16.0992 35.5482 15.9374 40.0687 10.4717Z" fill="#FBBE3A"/>
<path d="M31.582 21.276C33.7996 20.9409 37.1858 19.8893 39.4205 17.8325C34.4393 30.2544 17.6878 27.2616 9.80669 22.1079C9.90052 21.2875 10.1649 20.5364 10.5487 19.8431C17.2869 21.9577 24.7671 22.3159 31.582 21.276Z" fill="#FBBE3A"/>
<path d="M11.9646 38.1005C16.9628 43.5893 31.0276 43.624 37.254 37.8579C35.8211 46.039 27.5221 46.6861 22.413 46.6168C18.336 46.559 7.69994 45.5075 7.39289 37.6614C8.30552 39.1983 9.50819 40.2383 10.9496 39.7298C11.5211 39.5334 11.8196 38.9094 11.9646 38.1005Z" fill="#FBBE3A"/>
<path d="M10.574 10.0903C10.6252 10.0903 10.6252 10.2059 10.574 10.2059C10.5142 10.2059 10.5142 10.0903 10.574 10.0903Z" fill="#1D1D1B"/>
<path d="M21.7555 14.3265C21.7555 14.3265 31.6529 15.2082 36.0813 12.0917C40.5098 8.97521 41.5077 8.44482 40.2923 5.68078C39.0768 2.91674 35.2566 0.505138 27.3559 1.32903C19.4552 2.15293 12.3357 5.03368 9.64388 7.56314C6.95203 10.0926 7.56017 11.8559 7.16953 13.9151C6.77889 15.9731 5.12933 31.0886 7.08254 35.3225C9.03575 39.5564 11.163 39.0861 11.2935 37.7341C11.424 36.381 9.25324 25.0891 9.16624 22.0905C9.07924 19.0919 15.3304 14.033 15.3304 14.033L21.7555 14.3265Z" fill="#683C11"/>
</svg>
