<svg width="18" height="18" viewBox="0 0 18 18" fill="none" xmlns="http://www.w3.org/2000/svg">
<path d="M8.88224 18C7.67885 18 6.54541 17.7633 5.48192 17.29C4.41842 16.8167 3.49224 16.1733 2.70337 15.36C1.9132 14.5487 1.28818 13.5953 0.82833 12.5C0.368477 11.4053 0.13855 10.2387 0.13855 9C0.13855 7.758 0.368477 6.59033 0.82833 5.497C1.28883 4.40367 1.91384 3.451 2.70337 2.639C3.49159 1.827 4.41778 1.18433 5.48192 0.711C6.54541 0.237 7.67885 0 8.88224 0C10.0889 0 11.2233 0.236667 12.2855 0.71C13.3477 1.184 14.2732 1.82733 15.0621 2.64C15.851 3.452 16.4753 4.40433 16.9352 5.497C17.3957 6.59033 17.6259 7.758 17.6259 9C17.6259 10.2387 17.396 11.4053 16.9362 12.5C16.4763 13.5947 15.8513 14.548 15.0611 15.36C14.2722 16.1727 13.347 16.816 12.2855 17.29C11.2233 17.7633 10.0889 18 8.88224 18ZM8.88224 17.008C9.4522 16.254 9.92242 15.5137 10.2929 14.787C10.6627 14.0603 10.9636 13.247 11.1954 12.347H6.56905C6.82553 13.2977 7.13253 14.1363 7.49005 14.863C7.84757 15.5897 8.31164 16.3047 8.88224 17.008ZM7.6455 16.858C7.19212 16.308 6.77825 15.628 6.40389 14.818C6.02953 14.0087 5.75103 13.1847 5.56838 12.346H1.84163C2.39863 13.59 3.18783 14.61 4.20922 15.406C5.23126 16.202 6.37636 16.686 7.64452 16.858M10.118 16.858C11.3862 16.686 12.5313 16.202 13.5533 15.406C14.5754 14.61 15.3646 13.59 15.9209 12.346H12.1961C11.95 13.1973 11.6401 14.028 11.2664 14.838C10.892 15.6473 10.5092 16.3207 10.118 16.858ZM1.44525 11.346H5.36533C5.2915 10.936 5.23968 10.5363 5.20989 10.147C5.1788 9.75767 5.16326 9.37533 5.16326 9C5.16326 8.62467 5.17848 8.24233 5.20892 7.853C5.23936 7.46367 5.29117 7.06367 5.36436 6.653H1.44719C1.34162 6.99967 1.25904 7.37733 1.19945 7.786C1.13986 8.19467 1.11007 8.59933 1.11007 9C1.11007 9.40133 1.13954 9.806 1.19848 10.214C1.25807 10.6227 1.34065 11 1.44622 11.346M6.33783 11.346H11.4267C11.5005 10.936 11.5523 10.5427 11.5821 10.166C11.6132 9.79 11.6287 9.40133 11.6287 9C11.6287 8.59867 11.6135 8.21 11.5831 7.834C11.5526 7.45733 11.5008 7.064 11.4276 6.654H6.33686C6.26367 7.064 6.21185 7.45733 6.18141 7.834C6.15097 8.21 6.13575 8.59867 6.13575 9C6.13575 9.40133 6.15097 9.79 6.18141 10.166C6.21185 10.5427 6.26464 10.936 6.33783 11.346ZM12.3991 11.346H16.3183C16.4238 10.9993 16.5064 10.622 16.566 10.214C16.6256 9.806 16.6551 9.40133 16.6544 9C16.6544 8.59867 16.6249 8.194 16.566 7.786C16.5064 7.37733 16.4238 7 16.3183 6.654H12.3982C12.472 7.064 12.5238 7.46367 12.5536 7.853C12.5847 8.24233 12.6003 8.62467 12.6003 9C12.6003 9.37533 12.585 9.75767 12.5546 10.147C12.5242 10.5363 12.4723 10.9363 12.3991 11.347M12.1971 5.654H15.9219C15.3526 4.38467 14.5728 3.36467 13.5825 2.594C12.5915 1.82333 11.437 1.33333 10.119 1.124C10.5724 1.73733 10.9801 2.43933 11.3421 3.23C11.7035 4.02 11.9885 4.828 12.1971 5.654ZM6.56905 5.654H11.1954C10.939 4.71533 10.6226 3.86667 10.2463 3.108C9.8706 2.34867 9.41593 1.64333 8.88224 0.992C8.3492 1.64333 7.89453 2.34867 7.51823 3.108C7.14257 3.86667 6.82618 4.71533 6.56905 5.654ZM1.8426 5.654H5.56741C5.77596 4.828 6.06094 4.02 6.42235 3.23C6.7844 2.43933 7.19212 1.737 7.6455 1.123C6.31516 1.333 5.15775 1.82633 4.17328 2.603C3.1888 3.38033 2.41159 4.397 1.84163 5.653" fill="black"/>
</svg>
