<svg width="59" height="58" viewBox="0 0 59 58" fill="none" xmlns="http://www.w3.org/2000/svg">
<path d="M55.5662 26.7619C55.8621 29.5374 55.0855 33.8668 51.8772 34.3457C51.4704 34.4043 51.1283 34.2577 50.8879 34.0134C50.8694 37.7271 50.6475 41.4995 49.3438 44.9005C46.154 53.2563 36.1224 50.8815 29.5209 50.647C23.3909 50.432 12.9895 52.7091 8.68093 46.4935C5.99966 42.6136 6.08286 37.473 5.72228 32.8895C5.6668 32.1956 5.61134 31.492 5.56512 30.7883C2.57873 31.0229 -0.250473 28.824 0.0176543 25.3839C0.258044 22.1686 2.46778 19.5103 5.50039 19.266C5.62058 17.9858 5.79625 16.7152 6.04589 15.435C5.31547 15.3763 4.58506 15.308 3.85464 15.2298C3.33688 15.1711 3.12422 14.7118 3.21668 14.3209C2.68043 10.8515 10.5578 9.41489 20.1457 9.0142C18.0376 3.3752 23.1321 -0.328761 28.2357 0.0230659C30.5194 0.189206 33.3117 0.863514 34.828 2.86697C36.1779 4.67497 36.9453 7.49934 35.0036 9.08255C42.918 9.41483 49.6859 10.1283 51.5536 10.656C52.0066 10.7831 52.3487 11.2522 52.3395 11.7506C52.3302 12.6693 52.3117 13.5879 52.2932 14.5066C52.284 15.1516 51.8494 15.4839 51.3779 15.5327C51.4149 16.168 51.0358 16.8228 50.2314 16.8716C50.139 16.8814 50.0557 16.8814 49.9633 16.8912C50.2592 18.0835 50.4533 19.3442 50.592 20.6245C53.4212 21.1033 55.2149 23.5661 55.5662 26.7619ZM51.2854 32.0783C53.2918 31.6386 53.6431 28.9998 53.4489 27.1723C53.2363 25.1982 52.3302 23.1947 50.7307 22.2272C50.9063 24.8854 50.8601 27.573 50.8694 29.9869C50.8786 30.7297 50.8786 31.492 50.8879 32.2445C50.9988 32.1761 51.1283 32.1174 51.2854 32.0783ZM50.2499 14.3404C50.2684 12.7181 51.0543 12.855 49.5565 12.6106C48.8168 12.4836 48.0679 12.3761 47.319 12.2783C45.4976 12.0633 43.6669 11.8679 41.8363 11.7213C36.8805 11.301 31.9063 11.0274 26.9321 10.9688C22.1058 10.9101 17.224 10.8906 12.4255 11.4769C10.8444 11.6724 6.36948 11.9265 4.88091 13.6856C12.5179 13.0015 20.2474 13.3632 27.8936 13.6564C34.3657 13.8909 40.8839 13.8224 47.356 14.1547C47.7998 13.7443 48.5394 13.7247 49.011 14.2525C49.4178 14.2818 49.8246 14.3014 50.2314 14.3307C50.2314 14.3307 50.2407 14.3404 50.2499 14.3404ZM47.6611 40.8056C48.7706 33.1436 48.4285 24.7193 47.2543 17.028C40.2552 17.2625 33.1452 16.7348 26.1832 16.4514C20.0625 16.2071 13.9233 16.0702 7.80258 15.5914C7.57143 20.8688 7.969 26.1559 8.44054 31.4138C8.79188 35.4207 8.25561 40.9717 10.5671 44.4118C14.3208 50.0117 24.0196 47.588 29.5209 47.8617C36.261 48.194 46.2557 50.5492 47.6611 40.8056ZM34.153 9.05327C34.0328 8.94576 33.9311 8.7992 33.8849 8.6526C33.3856 7.05961 34.0144 5.44702 32.609 4.20586C31.3238 3.05265 29.4932 2.564 27.8289 2.55423C24.1121 2.54446 20.9686 4.41112 21.8839 8.75031C21.8931 8.81872 21.8839 8.88715 21.8839 8.95556C25.9151 8.83829 30.1588 8.8969 34.153 9.05327ZM5.45414 29.0488C5.28772 26.3612 5.223 23.6834 5.37093 21.0056C3.64198 21.7483 2.36608 23.3609 2.09795 25.3643C1.75586 27.9151 3.4663 28.7751 5.45414 29.0488Z" fill="#1D1D1B"/>
<path d="M53.4474 27.1722C53.6415 28.9997 53.2902 31.6384 51.2838 32.0782C51.1267 32.1173 50.9972 32.1759 50.8863 32.2443C50.877 31.4918 50.8771 30.7295 50.8678 29.9868C50.8586 27.5729 50.9048 24.8853 50.7291 22.2271C52.3286 23.1946 53.2347 25.198 53.4474 27.1722Z" fill="#B2B2B2"/>
<path d="M49.5581 12.6105C51.0559 12.8548 50.27 12.7179 50.2515 14.3403C50.2423 14.3403 50.2331 14.3305 50.2331 14.3305C49.8262 14.3012 49.4194 14.2817 49.0126 14.2523C48.5411 13.7246 47.8014 13.7441 47.3576 14.1546C40.8856 13.8223 34.3673 13.8907 27.8953 13.6562C20.249 13.363 12.5195 13.0014 4.88253 13.6855C6.3711 11.9264 10.8461 11.6722 12.4271 11.4768C17.2256 10.8904 22.1074 10.91 26.9337 10.9686C31.9079 11.0273 36.8821 11.3009 41.8379 11.7211C43.6685 11.8677 45.4992 12.0632 47.3206 12.2782C48.0695 12.3759 48.8184 12.4834 49.5581 12.6105Z" fill="#B2B2B2"/>
<path d="M47.2543 17.028C48.4285 24.7193 48.7706 33.1436 47.6611 40.8056C46.2557 50.5492 36.261 48.194 29.5209 47.8617C24.0196 47.588 14.3208 50.0117 10.5671 44.4118C8.25561 40.9717 8.79188 35.4207 8.44054 31.4138C7.969 26.1559 7.57143 20.8688 7.80258 15.5914C13.9233 16.0702 20.0625 16.2071 26.1832 16.4514C33.1452 16.7348 40.2552 17.2625 47.2543 17.028Z" fill="#B2B2B2"/>
<path d="M33.8849 8.6526C33.9311 8.7992 34.0328 8.94576 34.153 9.05327C30.1588 8.8969 25.9151 8.83829 21.8839 8.95556C21.8839 8.88715 21.8931 8.81872 21.8839 8.75031C20.9686 4.41112 24.1121 2.54446 27.8289 2.55423C29.4932 2.564 31.3238 3.05265 32.609 4.20586C34.0144 5.44702 33.3856 7.05961 33.8849 8.6526Z" fill="#B2B2B2"/>
<path d="M5.37217 21.0056C5.22424 23.6834 5.28895 26.3612 5.45538 29.0488C3.46754 28.7751 1.75709 27.9151 2.09919 25.3644C2.36732 23.3609 3.64321 21.7483 5.37217 21.0056Z" fill="#B2B2B2"/>
<path d="M52.3657 42.7957C56.1171 45.5071 58.9369 49.1339 56.5366 53.2269C54.8386 56.1237 50.6563 56.3206 47.8179 56.2507C43.5832 56.1424 39.3704 54.9681 35.426 53.4107C29.5654 51.0922 19.5896 45.6107 21.6972 37.4696C21.7551 37.4424 21.8155 37.4212 21.8798 37.3763C23.9124 35.8319 26.4124 35.1816 29.0705 35.0872C26.3772 38.2552 25.1267 42.7886 27.9311 46.3788C28.2273 46.7523 28.8878 46.6903 29.0307 46.1905C29.5702 44.3454 30.0061 42.4685 30.6685 40.6681C31.4726 38.4637 32.6983 37.1603 34.454 35.7978C34.533 35.7385 34.5792 35.6508 34.6029 35.559C35.8857 35.8048 37.1602 36.1133 38.3903 36.4646C34.5374 39.0868 32.9966 45.1352 35.3083 49.3168C35.6138 49.8766 36.4069 49.9647 36.6595 49.2811C38.1523 45.1907 39.8742 41.2489 42.9671 38.2225C43.0262 38.1653 43.0686 38.1013 43.1052 38.0401C43.4263 38.16 43.7473 38.28 44.0543 38.3992C44.9416 38.7435 46.0979 39.2323 47.3541 39.8426C45.8035 40.5073 44.8204 43.1919 44.4914 44.6152C43.9063 47.0756 44.4114 49.5721 45.6782 51.6875C46.0017 52.2242 46.7918 51.9764 46.9861 51.467C47.6505 49.6877 48.4867 48.0034 49.4619 46.3855C50.2933 45.0186 51.4486 44.0417 52.3657 42.7957Z" fill="#FBBE3A"/>
<path d="M50.1711 39.6295C54.6621 42.2855 63.458 50.3464 56.2803 55.6425C49.6732 60.5156 38.6182 56.833 32.1108 53.573C26.8203 50.9125 17.2744 44.5759 20.8821 37.1135C20.768 36.8594 20.7811 36.5453 21.0439 36.2968C21.9832 35.3996 23.069 34.866 24.2764 34.4729C32.4038 31.823 43.0652 35.4273 50.1711 39.6295ZM56.5366 53.2269C58.9369 49.1339 56.1171 45.5071 52.3657 42.7957C51.4486 44.0417 50.2933 45.0186 49.4619 46.3855C48.4867 48.0034 47.6505 49.6877 46.9861 51.467C46.7918 51.9764 46.0017 52.2242 45.6782 51.6875C44.4114 49.5721 43.9063 47.0756 44.4914 44.6152C44.8204 43.1919 45.8035 40.5073 47.3541 39.8426C46.0979 39.2323 44.9416 38.7435 44.0543 38.3992C43.7473 38.28 43.4263 38.16 43.1052 38.0401C43.0686 38.1013 43.0262 38.1653 42.9671 38.2225C39.8742 41.2489 38.1523 45.1907 36.6595 49.2811C36.4069 49.9647 35.6138 49.8766 35.3083 49.3168C32.9966 45.1352 34.5374 39.0868 38.3903 36.4646C37.1602 36.1133 35.8857 35.8048 34.6029 35.559C34.5792 35.6508 34.533 35.7385 34.454 35.7978C32.6983 37.1603 31.4726 38.4637 30.6685 40.6681C30.0061 42.4685 29.5702 44.3454 29.0307 46.1905C28.8878 46.6903 28.2273 46.7523 27.9311 46.3788C25.1267 42.7886 26.3772 38.2552 29.0705 35.0872C26.4124 35.1816 23.9124 35.8319 21.8798 37.3763C21.8155 37.4212 21.7551 37.4424 21.6972 37.4696C19.5896 45.6107 29.5654 51.0922 35.426 53.4107C39.3704 54.9681 43.5832 56.1424 47.8179 56.2507C50.6563 56.3206 54.8386 56.1237 56.5366 53.2269ZM51.112 41.9425C50.1813 41.3474 49.2256 40.8081 48.3015 40.3273C48.0808 40.8565 47.6895 41.1948 47.3389 41.7119C46.822 42.476 46.3708 43.2972 46.1287 44.203C45.6784 45.8814 45.6726 47.6436 46.2204 49.2548C46.8004 47.9332 47.4608 46.6543 48.2229 45.4521C48.9298 44.3492 49.8966 42.6619 51.112 41.9425ZM41.6229 37.4999C40.8656 37.2336 40.071 36.9776 39.2565 36.7237C36.6367 39.4905 34.8116 43.2537 35.9388 47.0111C37.2901 43.5226 38.9462 40.0003 41.6229 37.4999ZM33.0882 35.32C31.9605 35.1623 30.8355 35.0766 29.7325 35.076C27.7616 37.7862 26.6065 41.329 28.1837 44.3612C29.0534 40.9969 30.0722 36.9173 33.0882 35.32Z" fill="#1D1D1B"/>
<path d="M48.3015 40.3273C49.2256 40.8081 50.1813 41.3474 51.112 41.9425C49.8966 42.6619 48.9298 44.3492 48.2229 45.4521C47.4608 46.6543 46.8004 47.9332 46.2204 49.2548C45.6726 47.6436 45.6784 45.8814 46.1287 44.203C46.3708 43.2972 46.822 42.476 47.3389 41.7119C47.6895 41.1948 48.0808 40.8565 48.3015 40.3273Z" fill="#FBBE3A"/>
<path d="M39.2565 36.7237C40.071 36.9776 40.8656 37.2336 41.6229 37.4999C38.9462 40.0003 37.2901 43.5226 35.9388 47.0111C34.8116 43.2537 36.6367 39.4905 39.2565 36.7237Z" fill="#FBBE3A"/>
<path d="M29.7325 35.076C30.8355 35.0766 31.9605 35.1623 33.0882 35.32C30.0722 36.9173 29.0534 40.9969 28.1837 44.3612C26.6065 41.329 27.7616 37.7862 29.7325 35.076Z" fill="#FBBE3A"/>
</svg>
