<svg width="22" height="24" viewBox="0 0 22 24" fill="none" xmlns="http://www.w3.org/2000/svg">
<path d="M8.12378 21.9C8.89032 22.5846 9.89722 23 11 23C12.1028 23 13.1097 22.5846 13.8762 21.9M17.5225 7.6C17.5225 5.84957 16.8353 4.17084 15.6121 2.9331C14.3889 1.69536 12.7299 1 11 1C9.27014 1 7.61112 1.69536 6.38792 2.9331C5.16472 4.17084 4.47754 5.84957 4.47754 7.6C4.47754 10.9992 3.63013 13.3266 2.6835 14.866C1.885 16.1645 1.48575 16.8137 1.50039 16.9948C1.5166 17.1954 1.55859 17.2719 1.71829 17.3917C1.86253 17.5 2.51275 17.5 3.81318 17.5H18.1868C19.4873 17.5 20.1375 17.5 20.2817 17.3917C20.4414 17.2719 20.4834 17.1954 20.4996 16.9948C20.5142 16.8137 20.115 16.1645 19.3165 14.866C18.3699 13.3266 17.5225 10.9992 17.5225 7.6Z" stroke="#845EF1" stroke-width="2" stroke-linecap="round" stroke-linejoin="round"/>
</svg>
