<svg width="64" height="58" viewBox="0 0 64 58" fill="none" xmlns="http://www.w3.org/2000/svg">
<path d="M63.7424 32.5707C66.2513 55.3829 41.1391 61.4974 24.1254 56.2358C14.6967 53.3287 6.65657 47.911 2.67736 38.3609C-0.986778 29.6036 -0.590023 19.0203 2.05889 10.0588C2.0939 9.92668 2.18726 9.81857 2.28061 9.7465C3.33084 7.28388 5.10456 5.08556 7.80015 3.36773C13.9148 -0.524397 21.3715 -1.47342 27.4745 2.82714C33.064 6.76733 35.6546 13.7588 41.5476 17.2905C41.7343 17.0382 41.9793 16.834 42.3177 16.7019C49.646 13.8909 59.5532 15.4766 62.9139 23.7534C64.0692 26.6004 64.2559 29.5795 63.6957 32.4266C63.7074 32.4746 63.7308 32.5227 63.7424 32.5707ZM60.1833 32.0902C62.2838 21.3388 51.7231 16.834 43.2046 20.0054C42.3527 20.3177 41.7226 19.9333 41.4075 19.3086C41.3375 19.3086 41.2675 19.3207 41.1975 19.2966C32.0838 16.5697 29.0848 2.31061 18.5358 3.06741C3.22581 4.16057 1.51043 19.4648 9.01374 30.4925C16.062 40.8355 29.995 45.2682 41.9326 44.3312C49.1676 43.7666 58.5263 40.5592 60.1833 32.0902ZM60.5684 39.3819C59.1448 41.304 57.336 42.9497 55.2472 44.151C42.5861 51.4668 21.0564 48.5477 10.6708 37.8563C7.54342 34.6369 4.49776 29.8799 2.71237 24.8105C2.82906 28.7026 3.35417 32.5347 4.73114 36.1865C7.96351 44.7396 14.9417 50.3856 23.4136 52.9203C37.4867 57.1248 56.7292 54.8544 60.5684 39.3819Z" fill="#1D1D1B"/>
<path d="M43.2046 20.0054C51.7231 16.834 62.2838 21.3388 60.1833 32.0902C58.5263 40.5592 49.1676 43.7666 41.9326 44.3312C29.995 45.2682 16.062 40.8355 9.01374 30.4925C1.51043 19.4648 3.22581 4.16057 18.5358 3.06741C29.0848 2.31061 32.0838 16.5697 41.1975 19.2966C41.2675 19.3207 41.3375 19.3086 41.4075 19.3086C41.7226 19.9333 42.3527 20.3177 43.2046 20.0054ZM20.7874 27.946C25.315 28.6307 29.2009 24.6064 28.314 19.8614C27.6956 16.5219 25.4201 13.9752 22.7245 12.1733C21.2308 11.1882 19.0253 10.2152 17.0182 10.2392C17.0299 9.83077 16.7498 9.43434 16.2947 9.62654C12.0004 11.4044 9.40988 15.2485 11.1719 19.9815C12.6423 23.9698 16.6798 27.3213 20.7874 27.946Z" fill="#FF4121"/>
<path d="M55.2472 44.151C57.336 42.9497 59.1448 41.304 60.5684 39.3819C56.7292 54.8544 37.4867 57.1248 23.4136 52.9203C14.9417 50.3856 7.96351 44.7396 4.73114 36.1865C3.35417 32.5347 2.82906 28.7026 2.71237 24.8105C4.49776 29.8799 7.54342 34.6369 10.6708 37.8563C21.0564 48.5477 42.5861 51.4668 55.2472 44.151Z" fill="#F6F6F6"/>
<path d="M28.314 19.8614C29.2009 24.6064 25.315 28.6307 20.7874 27.946C16.6798 27.3213 12.6423 23.9698 11.1719 19.9815C9.40988 15.2485 12.0004 11.4044 16.2947 9.62654C16.7498 9.43434 17.0299 9.83077 17.0182 10.2392C19.0253 10.2152 21.2308 11.1882 22.7245 12.1733C25.4201 13.9752 27.6956 16.5219 28.314 19.8614ZM20.1682 25.0746C23.0388 25.8795 26.1545 24.3058 25.7811 20.762C25.2443 15.5245 19.5847 12.7856 15.1388 12.4492C15.0804 12.4372 15.0221 12.4252 14.9637 12.4012C13.2834 14.2872 12.3732 16.7137 13.6568 19.2965C14.9521 21.9393 17.3442 24.2818 20.1682 25.0746Z" fill="#1D1D1B"/>
<path d="M25.7835 20.7621C26.1569 24.3058 23.0412 25.8795 20.1705 25.0746C17.3466 24.2818 14.9544 21.9393 13.6591 19.2965C12.3755 16.7138 13.2857 14.2872 14.9661 12.4012C15.0244 12.4252 15.0828 12.4372 15.1411 12.4492C19.5871 12.7856 25.2467 15.5245 25.7835 20.7621ZM21.9793 21.9994C22.236 20.3656 22.2944 18.7199 21.1508 17.4225C20.2873 16.4495 18.5719 15.7167 17.3583 15.4044C16.5648 15.2002 15.7713 16.2813 16.3897 16.918C16.2614 18.2394 16.0747 19.5848 16.6115 20.8461C17.3233 22.5159 19.5521 22.6961 21.0574 22.7322C21.4542 22.7322 21.9209 22.4198 21.9793 21.9994Z" fill="#F6F6F6"/>
<path d="M21.149 17.4227C22.2926 18.7201 22.2342 20.3658 21.9775 21.9995C21.9191 22.42 21.4524 22.7323 21.0556 22.7323C19.5503 22.6963 17.3215 22.5161 16.6097 20.8463C16.0729 19.585 16.2596 18.2396 16.3879 16.9182C15.7695 16.2815 16.563 15.2003 17.3565 15.4045C18.5701 15.7169 20.2855 16.4497 21.149 17.4227ZM20.2154 20.7502C20.2621 19.9093 20.1454 19.0444 19.3869 18.5759C18.8968 18.2636 18.36 18.0353 17.8349 17.7951C17.8583 18.5038 17.9049 19.2126 18.15 19.8493C18.4301 20.582 19.3869 20.7262 20.2154 20.7502Z" fill="#1D1D1B"/>
<path d="M41.6002 21.6784C41.6002 21.6784 35.5759 14.222 35.1418 13.5344C34.7087 12.8464 33.6773 13.4371 33.6773 13.4371C33.6773 13.4371 34.2788 22.8217 36.1201 25.1723C37.9621 27.5232 39.635 29.2389 40.7294 29.0246C41.8234 28.8093 43.9104 28.6516 43.9104 28.6516C43.9104 28.6516 45.0377 34.8811 45.75 37.4341C46.4622 39.9872 50.139 52.3593 52.7952 54.7816C57.7303 59.2826 61.5768 52.9854 61.5768 52.9854C61.939 49.726 58.0499 40.6752 56.078 36.8224C54.1061 32.9695 48.3932 26.2005 48.3932 26.2005C48.3932 26.2005 51.6347 25.0126 51.9861 22.762C52.3372 20.5122 50.911 13.9963 49.7813 12.3477C48.6509 10.6989 46.1765 7.54261 46.1765 7.54261L45.4547 7.62972L46.3683 17.4814L39.2117 10.8867L41.6002 21.6784Z" fill="#B2B2B2"/>
<path d="M59.3581 41.0142C60.9413 44.5304 64.6655 52.9969 59.9836 56.237C48.9984 63.8183 43.903 37.5091 43.7581 29.3188C40.4911 31.1569 37.1997 28.9955 35.4769 26.0253C33.3815 22.4075 32.9569 17.6636 33.0951 13.3775C33.1189 12.6504 34.248 12.5718 34.2986 13.2916C34.5377 16.5651 35.101 19.8883 36.2903 22.8789C36.8716 24.3563 37.5968 26.0684 38.8893 26.9847C40.4996 28.1389 41.884 27.7386 43.7435 27.5821C44.089 27.5532 44.4321 27.8091 44.5685 28.1275C44.6454 28.1991 44.7069 28.2909 44.7261 28.4105C45.5832 34.2396 46.8652 40.2334 48.8723 45.6712C49.9301 48.5442 51.1511 51.685 53.2688 53.8307C54.8186 55.4042 58.0304 56.6881 59.6367 54.0234C62.3125 49.5788 57.9737 42.1417 55.9977 38.5245C53.8013 34.5147 51.3224 30.2366 48.1218 27.0611C47.7427 26.6881 47.7602 26.1491 47.9751 25.7433C47.9972 25.4485 48.1528 25.1594 48.4961 24.9652C54.9593 21.4359 48.1581 12.0727 45.9091 7.86181C45.9707 12.0396 47.3055 15.9233 47.7802 20.0191C47.8863 20.9324 46.7114 21.6261 46.1723 20.848C44.6138 18.6134 42.9848 16.4395 41.2543 14.3667C41.8709 16.9478 42.3905 19.5539 42.927 22.1574C43.1242 23.1042 41.884 23.6095 41.3543 22.9561C38.8875 19.929 36.6573 16.6945 34.7144 13.2452C34.4117 12.7099 35.2788 12.1368 35.6223 12.6266C37.1446 14.7873 38.6995 16.8821 40.3515 18.9087C39.7604 16.259 39.1764 13.612 38.3689 11.03C38.0346 9.93769 39.2508 9.11199 40.0031 9.91644C41.8686 11.9262 43.551 14.0851 45.1897 16.2973C44.5437 13.3245 43.885 10.3644 44.0159 7.25284C44.068 6.08604 45.5268 6.08527 45.8407 6.99699C46.0313 6.72074 46.404 6.55472 46.6544 6.80253C50.4201 10.5146 57.1693 22.1786 50.0934 26.2186C54.0523 30.0968 57.101 35.9692 59.3581 41.0142Z" fill="#1D1D1B"/>
</svg>
