<svg width="393" height="336" viewBox="0 0 393 336" fill="none" xmlns="http://www.w3.org/2000/svg">
<path d="M5.22208 288.597C16.0501 314.457 38.5604 330.139 66.524 330.869C90.3328 331.49 114.53 322.855 138.353 323.519C170.933 324.427 201.966 332.893 234.425 334.518C266.884 336.142 301.828 334.518 337.714 316.089C374.635 313.207 413.926 239.038 380.115 178.001C345.74 121.073 367.551 44.4952 318.308 15.7457C214.241 -45.012 58.1819 100.323 10.5225 214.244C0.177576 238.971 -4.26595 265.935 5.22208 288.597Z" fill="#845EF1"/>
<path d="M178.855 239.623C158.771 249.599 137.255 255.113 115.663 255.819C99.7905 256.338 82.0573 253.111 72.3172 237.807C66.6568 228.913 64.0714 216.458 56.0629 210.912C47.9841 205.319 37.8003 209.131 28.6056 207.457C19.0422 205.716 10.489 197.436 6.88435 186.431C3.27966 175.425 4.75378 162.092 10.6278 152.57C24.3813 130.275 56.6017 131.921 65.8737 106.396C69.9521 95.168 67.9321 82.1622 69.7563 70.0936C72.1173 54.4754 71.5028 39.4817 84.7843 21.9828C96.7538 6.21246 117.202 0.477889 130.169 0C143.136 0.477889 165.627 8.6155 177.548 23.4165C184.907 32.5526 189.27 52.6405 197.996 59.736C203.931 64.5616 212.673 70.4987 217.447 73.1169C235.44 82.9869 247.599 105.27 248.867 129.508C250.135 153.745 255.42 191.989 242.882 210.912C230.344 229.835 194.516 231.844 178.855 239.623Z" fill="#C6C9FF"/>
<path d="M366.039 52.0938C363.771 57.5225 360.14 66.2995 358.473 70.3308C357.981 71.52 358.59 72.8641 359.832 73.3369L375.345 79.2442C376.59 79.7181 378 79.1378 378.496 77.9476L386.022 59.8798C387.123 57.2379 385.775 54.2429 383.012 53.1902L384.119 50.5325L373.96 46.6641L372.914 49.1768L372.876 49.1636C370.143 48.2169 367.118 49.5126 366.039 52.0938Z" fill="#553F95"/>
<path d="M373.822 47.0078L373.318 48.2165L383.333 52.4297L383.98 50.8763L373.822 47.0078Z" fill="#C6C9FF"/>
<path d="M383.886 51.7334L373.331 47.7137C372.785 47.5055 372.518 46.9135 372.736 46.3912L373.741 43.9802C374.077 43.1711 375.037 42.7762 375.883 43.0988L385.352 46.7048C386.198 47.0269 386.611 47.944 386.274 48.7532L385.269 51.1642C385.052 51.6871 384.432 51.9416 383.886 51.7334Z" fill="#C6C9FF"/>
<path d="M373.929 47.9601C373.855 47.9321 374.243 46.8347 374.795 45.5095C375.347 44.1839 375.855 43.1323 375.928 43.1602C376.001 43.1881 375.614 44.2856 375.061 45.6113C374.51 46.9364 374.003 47.988 373.929 47.9601Z" fill="#C6C9FF"/>
<path d="M375.275 48.4728C375.201 48.4448 375.589 47.3474 376.141 46.0222C376.693 44.6966 377.2 43.645 377.274 43.6729C377.347 43.7008 376.959 44.7978 376.407 46.124C375.855 47.4491 375.348 48.5007 375.275 48.4728Z" fill="#C6C9FF"/>
<path d="M376.611 48.9845C376.537 48.9566 376.925 47.8591 377.477 46.534C378.029 45.2083 378.536 44.1567 378.61 44.1846C378.683 44.2126 378.295 45.31 377.743 46.6357C377.192 47.9608 376.684 49.0124 376.611 48.9845Z" fill="#C6C9FF"/>
<path d="M377.931 49.4923C377.857 49.4644 378.245 48.3669 378.797 47.0418C379.349 45.7161 379.857 44.6645 379.93 44.6924C380.004 44.7204 379.616 45.8178 379.064 47.1435C378.512 48.4687 378.005 49.5208 377.931 49.4923Z" fill="#C6C9FF"/>
<path d="M379.282 50.0001C379.209 49.9722 379.597 48.8747 380.149 47.5496C380.701 46.2239 381.208 45.1723 381.281 45.2003C381.355 45.2282 380.967 46.3256 380.415 47.6513C379.864 48.9765 379.356 50.0286 379.282 50.0001Z" fill="#C6C9FF"/>
<path d="M380.62 50.5138C380.546 50.4859 380.935 49.3884 381.486 48.0633C382.039 46.7376 382.546 45.686 382.619 45.7139C382.693 45.7419 382.305 46.8393 381.753 48.165C381.201 49.4896 380.694 50.5417 380.62 50.5138Z" fill="#C6C9FF"/>
<path d="M381.97 51.0255C381.896 50.9976 382.284 49.9001 382.836 48.575C383.388 47.2493 383.896 46.1977 383.969 46.2256C384.043 46.2536 383.655 47.351 383.102 48.6767C382.551 50.0019 382.044 51.0534 381.97 51.0255Z" fill="#C6C9FF"/>
<path d="M383.304 51.5323C383.23 51.5044 383.618 50.407 384.17 49.0818C384.722 47.7561 385.23 46.7045 385.303 46.7325C385.376 46.7604 384.989 47.8573 384.436 49.1835C383.885 50.5087 383.378 51.5603 383.304 51.5323Z" fill="#C6C9FF"/>
<path d="M377.747 70.2548L364.711 65.2904C364.291 65.1307 364.087 64.6764 364.254 64.2752L367.484 56.522C367.651 56.1208 368.126 55.9253 368.545 56.085L381.582 61.0498C382.002 61.2096 382.206 61.6639 382.039 62.0651L378.81 69.8183C378.642 70.2189 378.167 70.4145 377.747 70.2548Z" fill="#C6C9FF"/>
<path d="M377.797 69.5378C377.795 69.5325 377.813 69.4788 377.85 69.3797C377.894 69.2637 377.949 69.1214 378.017 68.9464C378.174 68.5489 378.391 68.0055 378.662 67.3208C379.235 65.9102 380.04 63.9225 381.02 61.5067L381.084 61.6485C377.568 60.3181 373.13 58.6387 368.315 56.8165C368.274 56.8328 368.667 56.671 368.5 56.7406L368.499 56.7427L368.498 56.7469L368.494 56.7553L368.487 56.7722L368.473 56.8054L368.446 56.8718L368.391 57.0047L368.28 57.2698L368.06 57.7974C367.914 58.148 367.769 58.4964 367.625 58.8422C367.336 59.5332 367.052 60.2137 366.772 60.8821C366.213 62.2173 365.674 63.504 365.162 64.7263L365.088 64.5624C368.799 66.003 371.958 67.229 374.219 68.1062C375.325 68.5426 376.21 68.8921 376.845 69.143C377.135 69.26 377.368 69.3543 377.549 69.4276C377.709 69.494 377.794 69.5315 377.797 69.5378C377.8 69.5441 377.721 69.5193 377.565 69.4656C377.387 69.4023 377.158 69.3206 376.874 69.2189C376.239 68.9859 375.354 68.6612 374.249 68.2559C371.957 67.3993 368.753 66.2022 364.99 64.7964L364.867 64.7506L364.916 64.6325C365.423 63.408 365.957 62.1198 366.511 60.7819C366.788 60.113 367.071 59.432 367.359 58.7404C367.502 58.3947 367.647 58.0462 367.793 57.6957L368.013 57.1681L368.123 56.9029L368.178 56.7701L368.206 56.7037L368.22 56.6705L368.227 56.6536L368.23 56.6452L368.232 56.641L368.232 56.6389C368.066 56.7063 368.46 56.544 368.42 56.5614C373.227 58.4031 377.657 60.1009 381.167 61.4456L381.274 61.4867L381.231 61.5874C380.194 64.0121 379.341 66.0061 378.736 67.422C378.445 68.0882 378.214 68.6175 378.045 69.0043C377.972 69.1678 377.911 69.3011 377.863 69.4097C377.822 69.4993 377.799 69.5431 377.797 69.5378Z" fill="#C6C9FF"/>
<path d="M378.074 63.3805C378.045 63.4511 376.08 62.7691 373.687 61.8572C371.292 60.9453 369.375 60.1493 369.405 60.0787C369.434 60.0086 371.398 60.6901 373.793 61.602C376.186 62.5139 378.104 63.3099 378.074 63.3805Z" fill="#C6C9FF"/>
<path d="M377.488 64.7849C377.459 64.8555 375.494 64.1734 373.101 63.2615C370.706 62.3496 368.789 61.5537 368.819 61.4831C368.848 61.4124 370.812 62.0945 373.207 63.0064C375.6 63.9183 377.518 64.7148 377.488 64.7849Z" fill="#C6C9FF"/>
<path d="M376.934 66.1432C376.905 66.2138 374.94 65.5318 372.546 64.6199C370.151 63.708 368.235 62.912 368.264 62.8414C368.293 62.7713 370.257 63.4528 372.652 64.3647C375.046 65.2766 376.963 66.0726 376.934 66.1432Z" fill="#C6C9FF"/>
<path d="M382.465 52.8858C382.436 52.9564 380.293 52.2063 377.681 51.2117C375.067 50.2165 372.973 49.3525 373.002 49.2824C373.031 49.2118 375.173 49.9614 377.787 50.9565C380.4 51.9517 382.494 52.8157 382.465 52.8858Z" fill="#C6C9FF"/>
<path d="M359.756 69.6039C359.738 69.597 359.848 69.286 360.063 68.7299C360.301 68.1338 360.616 67.3426 360.999 66.3848C361.801 64.4092 362.927 61.6872 364.188 58.6874C364.821 57.1904 365.425 55.7646 365.976 54.4611C366.524 53.1628 367.16 52.0031 367.99 51.2557C368.81 50.5035 369.711 50.1809 370.333 50.1119C370.646 50.0718 370.892 50.0945 371.055 50.1092C371.218 50.1366 371.302 50.1561 371.3 50.1651C371.298 50.1941 370.954 50.1171 370.35 50.2168C369.754 50.3153 368.902 50.6532 368.132 51.3933C367.353 52.1275 366.752 53.2587 366.221 54.5554C365.676 55.8611 365.08 57.289 364.453 58.7886C363.193 61.7884 362.037 64.4994 361.187 66.456C360.77 67.4006 360.426 68.1802 360.167 68.7684C359.92 69.3135 359.774 69.6107 359.756 69.6039Z" fill="#E0E0E0"/>
<path d="M377.188 79.1459C377.174 79.1596 376.957 78.9904 376.577 78.6736C376.39 78.5134 376.158 78.3194 375.876 78.1096C375.595 77.8972 375.288 77.6421 374.921 77.3943C374.206 76.873 373.315 76.3053 372.293 75.7297C371.262 75.1683 370.095 74.6075 368.824 74.1178C367.549 73.6387 366.298 73.2786 365.146 73.0088C363.989 72.7547 362.933 72.5813 362.04 72.4906C361.595 72.4289 361.188 72.4126 360.833 72.3825C360.477 72.3499 360.17 72.3383 359.918 72.3314C359.414 72.3119 359.135 72.2919 359.135 72.2729C359.134 72.2539 359.413 72.2376 359.919 72.2244C360.172 72.2149 360.482 72.2107 360.84 72.2292C361.199 72.2444 361.61 72.2476 362.061 72.2972C362.964 72.3641 364.034 72.5185 365.206 72.7621C366.373 73.0209 367.642 73.3777 368.931 73.8622C370.216 74.3576 371.393 74.9317 372.427 75.5109C373.453 76.1045 374.341 76.6948 375.045 77.2399C375.408 77.4997 375.708 77.7675 375.98 77.9921C376.254 78.215 376.476 78.4211 376.653 78.5946C377.011 78.9372 377.201 79.1322 377.188 79.1459Z" fill="#E0E0E0"/>
<path d="M84.5473 75.313C82.6807 71.0177 77.5421 67.9135 72.8535 69.1534C70.0841 69.8858 67.8528 71.9671 66.521 74.402C65.9385 75.4671 65.5502 76.2335 65.2801 76.9888C64.7599 76.3647 64.125 75.7672 63.2019 74.9513C61.092 73.0862 58.2589 71.8428 55.3935 72.0427C50.5419 72.3811 46.7933 76.9563 46.5444 81.6011C46.2956 86.2465 48.9134 90.6938 52.4599 93.877C56.0064 97.0603 61.6536 100.954 70.1026 101.39C75.242 99.3245 81.0688 92.9137 83.2902 88.7755C85.5118 84.6384 86.4139 79.6082 84.5473 75.313Z" fill="#553F95"/>
<path d="M85.1732 83.7499C85.1742 83.7551 85.1217 83.7696 85.0184 83.792C84.8956 83.8164 84.7442 83.8467 84.5582 83.8839C84.1263 83.9628 83.5334 84.0707 82.7836 84.2077C81.2126 84.4796 78.9857 84.8653 76.2455 85.3394L76.3407 85.2414C76.1276 87.3617 75.8776 89.844 75.604 92.5666L75.5593 93.0084L75.3339 92.6196C73.5933 89.6212 71.6421 86.2614 69.5869 82.7206C68.9526 81.6241 68.3284 80.5446 67.7187 79.4913L68.0035 79.4711C66.931 82.2086 65.9164 84.7983 64.9919 87.1586L64.963 87.2324L64.8827 87.2455C60.168 88.0028 56.1879 88.6419 53.3564 89.097C51.9729 89.3095 50.8714 89.4783 50.0872 89.5992C49.7266 89.6499 49.4397 89.6904 49.2198 89.7213C49.023 89.7467 48.9204 89.7559 48.9188 89.7486C48.9178 89.7412 49.0172 89.717 49.2117 89.6775C49.4297 89.6362 49.7138 89.5822 50.0717 89.5142C50.8525 89.3756 51.9494 89.1811 53.3271 88.9369C56.1538 88.4552 60.1271 87.779 64.8341 86.9772L64.7248 87.0642C65.641 84.7012 66.6466 82.1078 67.7097 79.3673L67.8284 79.0607L67.9944 79.3471C68.6047 80.4002 69.2298 81.479 69.8651 82.5752C71.9118 86.1204 73.8541 89.4848 75.5873 92.4874L75.3172 92.5404C75.6125 89.8196 75.8813 87.3389 76.1109 85.2203L76.1201 85.1358L76.2066 85.1221C78.9538 84.6883 81.1869 84.336 82.762 84.0876C83.5166 83.9751 84.1127 83.8866 84.5472 83.8223C84.7357 83.7975 84.8888 83.7772 85.0129 83.7612C85.1178 83.7482 85.1723 83.7447 85.1732 83.7499Z" fill="#FAFAFA"/>
<path d="M190.148 52.3192C190.271 48.2137 186.299 45.0413 182.302 43.5371C178.305 42.0329 173.861 41.4665 170.298 39.1725C167.143 37.1414 165.022 33.9746 162.351 31.3856C155.799 25.0352 145.568 22.4019 136.566 24.7496C127.565 27.0973 120.15 34.3328 117.878 42.9858C116.344 48.8329 117.391 55.7461 122.212 59.632C127.807 64.1417 136.101 63.1399 143.27 61.7375C150.439 60.3351 158.553 58.9515 164.538 62.9759C168.148 65.4037 170.217 69.3518 172.423 73.0068C174.629 76.6608 177.399 80.3921 181.572 81.7662C185.744 83.1394 191.41 80.7681 191.573 76.5515" fill="#263238"/>
<path d="M189.848 54.5789C189.376 58.0199 191.98 61.1009 194.573 63.5307C197.165 65.9604 200.095 68.5372 200.552 71.9801C201.086 76.0016 198.016 79.9629 198.907 83.9261C199.473 86.4425 201.519 88.3803 202.76 90.6639C204.503 93.8702 204.593 97.7486 203.524 101.214C202.456 104.68 200.752 112.419 198.233 115.113C191.265 122.56 180.171 128.988 169.985 131.226C159.8 133.463 149.22 133.476 138.789 132.863C130.249 132.36 120.428 132.736 113.312 121.503C109.627 115.685 107.801 107.95 105.843 101.411C104.156 95.7807 102.697 89.7516 104.451 84.14C105.472 80.8705 107.53 77.9639 108.537 74.6906C109.795 70.6012 109.336 66.2281 109.843 61.9925C110.939 52.824 116.891 44.3068 125.33 39.829C133.769 35.3513 144.477 35.028 153.194 38.9893" fill="#263238"/>
<path d="M113.938 68.6813C114.737 56.9643 122.89 42.6037 135.1 43.8647L173.212 53.1614C176.921 53.544 179.707 56.577 179.625 60.1433L175.341 148.055C175.432 148.074 175.515 148.091 175.605 148.11C175.605 148.11 166.919 172.906 141.717 165.331C136.719 163.829 134.438 158.603 133.447 153.227L133.189 153.258C133.179 152.619 133.171 152.025 133.162 151.417C132.331 145.212 133.013 139.344 133.013 139.344C132.942 132.246 132.949 129.335 132.945 129.402C132.945 129.402 117.292 126.883 114.093 107.343C112.502 97.626 113.049 81.6989 113.938 68.6813Z" fill="#FFBE9D"/>
<path d="M120.019 80.4653C119.967 81.7885 121.096 82.9214 122.54 82.9987C123.981 83.0759 125.193 82.0694 125.246 80.7461C125.298 79.4238 124.169 78.2891 122.728 78.2118C121.284 78.1336 120.071 79.142 120.019 80.4653Z" fill="#263238"/>
<path d="M117.459 76.9911C117.784 77.3181 119.772 75.9185 122.591 75.9308C125.407 75.9053 127.474 77.2964 127.78 76.9666C127.931 76.8205 127.601 76.2305 126.702 75.6009C125.817 74.9742 124.304 74.3644 122.549 74.3672C120.792 74.3729 119.314 74.9883 118.463 75.6188C117.594 76.2541 117.3 76.844 117.459 76.9911Z" fill="#263238"/>
<path d="M147.752 80.473C147.699 81.7962 148.828 82.9281 150.272 83.0054C151.713 83.0817 152.926 82.0752 152.978 80.7529C153.03 79.4306 151.902 78.2958 150.46 78.2185C149.015 78.1412 147.803 79.1506 147.752 80.473Z" fill="#263238"/>
<path d="M145.191 77.5487C145.517 77.8757 147.507 76.4762 150.324 76.4893C153.14 76.463 155.206 77.8541 155.513 77.5251C155.663 77.3791 155.337 76.7891 154.435 76.1595C153.549 75.5327 152.038 74.922 150.282 74.9248C148.526 74.9305 147.047 75.5459 146.196 76.1764C145.329 76.8117 145.033 77.4017 145.191 77.5487Z" fill="#263238"/>
<path d="M134.918 97.4928C134.932 97.3401 133.179 97.0461 130.34 96.6926C129.621 96.6201 128.94 96.4815 128.819 96.0122C128.651 95.5145 128.953 94.7737 129.304 93.9726C129.985 92.3082 130.697 90.5636 131.445 88.7352C134.419 81.2792 136.574 75.1465 136.259 75.0353C135.943 74.9231 133.277 80.8768 130.303 88.3328C129.587 90.1716 128.902 91.9246 128.252 93.6013C127.977 94.3826 127.506 95.2695 127.872 96.3024C128.065 96.817 128.593 97.1912 129.054 97.3118C129.515 97.4476 129.92 97.456 130.276 97.4768C133.134 97.6304 134.907 97.6464 134.918 97.4928Z" fill="#263238"/>
<path d="M132.871 129.388C132.871 129.388 146.613 130.265 160.248 122.469C160.248 122.469 153.337 135.976 132.895 134.105L132.871 129.388Z" fill="#EB996E"/>
<path d="M136.121 104.014C137.138 102.735 138.917 102.034 140.68 102.22C141.903 102.348 143.139 102.916 143.879 103.869C144.62 104.823 144.773 106.176 144.095 107.083C143.332 108.105 141.741 108.338 140.396 107.969C139.051 107.601 137.895 106.751 136.797 105.905C136.494 105.671 136.183 105.426 135.994 105.106C135.805 104.786 135.765 104.367 136.001 104.102" fill="#EB996E"/>
<path d="M143.229 99.4207C142.771 99.3943 142.758 102.321 140.134 104.391C137.515 106.47 134.253 106.134 134.228 106.543C134.185 106.727 134.954 107.113 136.33 107.152C137.68 107.199 139.654 106.788 141.26 105.521C142.86 104.251 143.551 102.553 143.659 101.353C143.778 100.13 143.438 99.4046 143.229 99.4207Z" fill="#263238"/>
<path d="M143.956 72.8208C144.232 73.554 147.048 73.2128 150.354 73.6011C153.67 73.9263 156.335 74.8575 156.776 74.2005C156.972 73.8867 156.508 73.1959 155.432 72.4843C154.364 71.7736 152.66 71.097 150.675 70.8811C148.69 70.6691 146.871 70.9669 145.665 71.4325C144.45 71.8981 143.837 72.473 143.956 72.8208Z" fill="#263238"/>
<path d="M118.549 69.1791C119.043 69.7917 120.987 69.1612 123.322 69.1358C125.657 69.033 127.635 69.5561 128.091 68.9171C128.292 68.6061 127.981 67.9925 127.119 67.411C126.268 66.8323 124.845 66.3564 123.24 66.3997C121.635 66.445 120.243 66.9973 119.43 67.6221C118.603 68.2498 118.331 68.8803 118.549 69.1791Z" fill="#263238"/>
<path d="M187.473 117.434C181.854 118.517 175.735 116.866 171.537 113.136C167.339 109.405 165.171 103.69 165.891 98.2539C166.526 93.4567 169.232 88.5756 167.492 84.0347C165.192 78.031 156.39 76.1847 154.055 70.1933C152.698 66.7118 153.916 62.6383 152.377 59.2265C150.93 56.0174 147.399 54.1701 143.963 52.9816C140.527 51.7932 136.841 50.9732 133.956 48.829C131.071 46.6849 129.271 42.6378 131.132 39.6304C146.372 41.3768 161.394 44.8668 175.774 50.0015C179.108 51.1919 182.61 52.6235 184.581 55.4566C186.667 58.4547 186.568 62.3283 186.392 65.9257C185.537 83.4645 184.68 101.004 183.824 118.544" fill="#263238"/>
<path d="M186.187 124.149C186.197 124.16 186.309 124.092 186.517 123.947C186.764 123.767 187.063 123.55 187.425 123.286C188.215 122.694 189.376 121.814 190.809 120.605C192.234 119.391 193.95 117.848 195.613 115.772C197.259 113.713 198.877 111.029 199.433 107.732C200.042 104.524 199.594 100.486 196.798 97.4531C195.421 95.9668 193.652 94.8546 192.038 93.5729C190.395 92.3175 189.032 90.7219 188.324 88.7313C186.813 84.7493 187.486 80.1387 186.903 75.4262C186.256 70.7374 184.505 65.8968 181.112 61.9666C179.417 60.0223 177.384 58.3409 175.053 57.2325C172.735 56.0638 170.223 55.5813 167.904 54.9253C165.561 54.307 163.414 53.3805 161.631 51.9696C159.835 50.5889 158.365 48.9028 157.076 47.1686C154.511 43.6843 152.613 39.9699 150.168 36.8738C148.951 35.3282 147.629 33.9201 146.143 32.7872C144.656 31.6544 143.025 30.8203 141.37 30.3019C138.073 29.2265 134.592 29.5818 132.296 31.1671C130.029 32.8155 129.199 35.1915 129.074 37.0143C128.978 38.8927 129.642 40.3007 130.303 41.0378C130.626 41.4185 130.914 41.6645 131.136 41.8002C131.344 41.9501 131.452 42.0189 131.461 42.0066C131.47 41.9944 131.378 41.9011 131.194 41.7324C130.995 41.5769 130.736 41.3167 130.447 40.9322C129.854 40.1876 129.28 38.8276 129.422 37.0369C129.589 35.2971 130.454 33.0464 132.588 31.5573C134.744 30.1238 138.031 29.8127 141.167 30.8778C142.741 31.3905 144.297 32.2076 145.707 33.3037C147.122 34.4017 148.394 35.7787 149.57 37.2989C151.939 40.345 153.799 44.049 156.4 47.6257C157.706 49.4014 159.213 51.1516 161.091 52.6087C162.948 54.0959 165.279 55.1053 167.655 55.733C170.023 56.405 172.464 56.8847 174.645 57.9931C176.857 59.0468 178.793 60.65 180.419 62.5133C183.676 66.2794 185.393 70.9787 186.031 75.5309C186.625 80.0859 185.936 84.7663 187.548 89.0028C188.302 91.1177 189.837 92.8849 191.534 94.1553C193.208 95.4626 194.942 96.5436 196.242 97.929C198.864 100.72 199.356 104.53 198.805 107.635C198.309 110.817 196.79 113.432 195.209 115.486C193.615 117.55 191.952 119.115 190.572 120.359C189.183 121.599 188.059 122.519 187.307 123.154C186.557 123.785 186.168 124.125 186.187 124.149Z" fill="#455A64"/>
<path d="M189.927 126.564C194.126 122.683 201.301 126.057 204.825 130.511C208.349 134.965 210.847 140.705 216.198 142.945C221.545 145.183 228.507 143.258 232.999 146.825C239.191 151.743 235.713 163.14 242.407 167.415C245.065 169.113 248.57 169.052 251.411 170.453C258.105 173.753 258.025 182.782 256.991 189.914C255.539 199.923 253.948 210.3 248.172 218.762C242.395 227.224 231.149 233.178 221.147 229.912C211.535 226.775 206.601 216.858 202.692 207.895C197.283 195.495 191.874 183.094 186.464 170.693C183.334 163.52 180.174 156.237 179.156 148.526C178.136 140.815 179.507 132.487 184.636 126.456" fill="#263238"/>
<path d="M192.62 118.014C195.672 117.663 198 121.238 197.198 124.075C196.394 126.913 193.545 128.806 190.642 129.776C189.019 130.317 187.266 130.652 185.579 130.334C183.892 130.018 182.287 128.945 181.745 127.385C181.175 125.745 181.615 124.637 183.149 123.721C185.157 122.521 186.334 121.578 187.917 120.743C190.341 119.464 190.196 119.292 192.62 118.014Z" fill="#845EF1"/>
<path d="M122.394 149.447L134.248 140.859L178.908 138.13L180.705 143.856L166.178 230.53L177.638 333.938H115.332L122.394 149.447Z" fill="#845EF1"/>
<g opacity="0.3">
<path d="M170.223 297.253C168.799 295.799 166.462 293.797 164.379 293.754C149.462 293.44 134.222 292.014 119.305 291.7L118.111 333.959C121.681 327.944 125.057 321.684 125.997 314.827C126.408 311.832 126.934 308.252 129.794 306.969C131.412 306.244 133.307 306.527 135.061 306.859C140.449 307.878 145.803 309.209 151.284 309.535C156.767 309.861 162.504 309.097 167.108 306.233C168.689 305.25 170.152 303.981 170.894 302.324C171.635 300.665 171.512 298.569 170.223 297.253Z" fill="black"/>
</g>
<path d="M132.062 151.196L130.681 138.803C130.437 136.62 132.111 134.671 134.397 134.473L175.511 130.921C176.624 130.825 177.592 131.645 177.625 132.713L178.089 147.459L166.184 166.775L153.946 170.499H138.983L130.377 161.711L132.062 151.196Z" fill="#845EF1"/>
<path d="M172.018 142.729C172.01 142.77 171.428 142.671 170.374 142.568C169.319 142.471 167.784 142.389 165.892 142.495C164.002 142.599 161.763 142.899 159.31 143.401C156.854 143.894 154.185 144.586 151.358 145.243C148.531 145.899 145.796 146.434 143.263 146.621C140.733 146.816 138.418 146.641 136.552 146.187C134.678 145.75 133.268 145.068 132.365 144.523C131.913 144.245 131.58 144.005 131.364 143.832C131.149 143.657 131.043 143.559 131.053 143.545C131.081 143.511 131.545 143.861 132.466 144.359C133.389 144.846 134.79 145.464 136.635 145.85C138.472 146.251 140.735 146.387 143.223 146.17C145.714 145.962 148.419 145.42 151.236 144.766C154.055 144.111 156.735 143.43 159.214 142.958C161.69 142.476 163.96 142.209 165.876 142.149C167.791 142.086 169.342 142.221 170.398 142.379C170.927 142.462 171.334 142.537 171.607 142.606C171.88 142.671 172.021 142.713 172.018 142.729Z" fill="#263238"/>
<g opacity="0.3">
<path d="M133.039 144.673C131.939 147.567 131.906 151.151 134.14 153.369C135.961 155.176 138.883 155.629 141.457 155.138C144.031 154.647 146.348 153.352 148.604 152.068C154.264 148.848 160.015 145.513 166.444 144.147C166.857 144.06 167.295 143.968 167.599 143.687C167.903 143.405 167.978 142.861 167.636 142.622C167.486 142.518 167.29 142.494 167.104 142.476C161.417 141.932 155.772 143.468 150.197 144.666C144.62 145.863 138.667 146.71 133.291 144.855" fill="black"/>
</g>
<path d="M140.896 134.076C140.938 134.147 140.097 134.336 139.49 135.362C138.841 136.358 138.876 138.05 138.928 139.878C139.033 143.546 139.667 146.479 139.517 146.509C139.451 146.523 139.209 145.806 138.96 144.613C138.711 143.422 138.473 141.751 138.415 139.893C138.394 138.964 138.384 138.085 138.471 137.266C138.56 136.45 138.803 135.707 139.182 135.179C139.554 134.648 140.004 134.332 140.342 134.192C140.681 134.048 140.89 134.05 140.896 134.076Z" fill="#263238"/>
<path d="M151.756 144.85C151.596 144.835 151.963 142.132 151.462 138.85C150.989 135.563 149.85 133.065 150 133.008C150.058 132.982 150.419 133.575 150.841 134.604C151.264 135.632 151.72 137.107 151.97 138.781C152.217 140.456 152.208 141.994 152.1 143.093C151.993 144.194 151.819 144.858 151.756 144.85Z" fill="#263238"/>
<path d="M164.998 131.967C165.049 131.94 165.424 132.464 165.781 133.426C166.14 134.382 166.425 135.794 166.32 137.357C166.208 138.919 165.73 140.283 165.241 141.186C164.754 142.094 164.31 142.566 164.262 142.533C164.113 142.465 165.624 140.352 165.807 137.325C166.046 134.3 164.841 132.015 164.998 131.967Z" fill="#263238"/>
<path d="M107.345 155.027C107.345 155.027 93.3297 164.004 89.647 180.214C86.7519 192.958 78.8206 260.265 78.8206 260.265L64.9355 286.116L74.0024 306.737C81.77 307.262 89.4824 305.153 95.7842 300.782L101.886 296.549L113.074 280.679L107.345 155.027Z" fill="#EBEBEB"/>
<path d="M131.109 143.14L107.344 155.026L101.738 172.646L96.7389 223.718L106.148 283.594L89.6465 333.759L118.104 333.962L118.779 304.554L121.621 209.364L124.412 148.728L131.109 143.14Z" fill="#EBEBEB"/>
<path d="M119.598 222.489C119.582 222.498 119.431 222.254 119.156 221.781C118.865 221.266 118.471 220.571 117.974 219.697C117.483 218.781 117.005 217.604 116.388 216.265C116.096 215.589 115.856 214.84 115.562 214.06C115.278 213.276 114.96 212.452 114.722 211.558C112.485 204.506 111.005 194.317 111.317 183.081C111.347 182.211 111.383 181.35 111.445 180.493L111.456 180.344L111.601 180.286C113.014 179.718 114.402 179.16 115.759 178.615L115.699 179.027C114.271 177.929 112.883 176.863 111.546 175.835L111.46 175.768L111.455 175.67C111.261 171.436 112.337 167.627 113.347 164.31C114.393 160.985 115.539 158.121 116.54 155.768C117.547 153.415 118.42 151.574 119.045 150.324C119.357 149.699 119.604 149.219 119.779 148.899C119.953 148.579 120.052 148.415 120.064 148.422C120.077 148.429 120.004 148.602 119.855 148.934C119.689 149.301 119.47 149.784 119.195 150.389C118.618 151.659 117.79 153.515 116.825 155.877C115.866 158.24 114.759 161.108 113.749 164.423C112.771 167.724 111.736 171.53 111.944 175.633L111.853 175.469C113.194 176.492 114.584 177.555 116.016 178.649L116.348 178.902L115.956 179.06C114.599 179.608 113.211 180.167 111.799 180.737L111.954 180.531C111.894 181.371 111.86 182.232 111.829 183.096C111.52 194.281 112.935 204.426 115.07 211.462C115.296 212.354 115.601 213.177 115.871 213.96C116.151 214.74 116.377 215.489 116.655 216.167C117.244 217.508 117.691 218.691 118.154 219.615C118.612 220.504 118.976 221.21 119.246 221.733C119.491 222.221 119.614 222.482 119.598 222.489Z" fill="#263238"/>
<path d="M100.953 258.247C100.935 258.25 100.857 257.996 100.723 257.508C100.583 256.974 100.397 256.261 100.163 255.365C99.9171 254.435 99.6342 253.293 99.3601 251.955C99.0792 250.62 98.7214 249.104 98.4404 247.41C98.1289 245.72 97.7987 243.867 97.5326 241.865C97.2152 239.87 96.9983 237.723 96.746 235.467C96.3191 230.947 96.0323 225.961 96.0273 220.721C96.053 215.481 96.3586 210.495 96.8031 205.975C97.0643 203.72 97.2901 201.574 97.6154 199.579C97.8894 197.578 98.2275 195.726 98.5449 194.037C98.8328 192.343 99.1965 190.83 99.4824 189.495C99.7613 188.159 100.048 187.017 100.298 186.088C100.536 185.193 100.725 184.481 100.867 183.947C101.003 183.459 101.082 183.206 101.1 183.21C101.117 183.213 101.071 183.475 100.968 183.971C100.85 184.509 100.691 185.227 100.493 186.13C100.274 187.065 100.016 188.21 99.7633 189.55C99.505 190.887 99.1669 192.403 98.9027 194.096C98.609 195.785 98.2926 197.635 98.0373 199.634C97.7307 201.626 97.5217 203.768 97.2743 206.019C96.8573 210.527 96.5656 215.498 96.5409 220.722C96.5459 225.945 96.8179 230.916 97.2171 235.425C97.4557 237.676 97.6568 239.818 97.9555 241.811C98.2029 243.81 98.5124 245.662 98.7992 247.352C99.0565 249.047 99.3887 250.563 99.642 251.903C99.8885 253.243 100.143 254.389 100.358 255.325C100.553 256.229 100.709 256.948 100.825 257.486C100.924 257.98 100.97 258.242 100.953 258.247Z" fill="#263238"/>
<path d="M107.385 304.226C107.442 304.254 107.041 305.146 106.231 306.511C105.423 307.876 104.178 309.698 102.591 311.553C101 313.407 99.3763 314.933 98.1362 315.96C96.8962 316.988 96.0593 317.538 96.0199 317.491C95.9706 317.434 96.7237 316.788 97.8908 315.704C99.0589 314.621 100.621 313.076 102.195 311.242C103.764 309.407 105.04 307.639 105.922 306.331C106.803 305.024 107.315 304.191 107.385 304.226Z" fill="#263238"/>
<path d="M216.59 153.565C226.741 157.324 234.273 165.656 236.68 175.807C244.451 208.573 257.754 252.155 257.963 266.216C258.23 284.124 250.039 296.383 239.348 298.643C230.893 300.43 154.256 296.42 154.256 296.42L150.672 269.119L212.731 260.384L204.233 214.984L212.643 152.104L216.59 153.565Z" fill="#EBEBEB"/>
<path d="M212.639 152.102L195.48 145.398L177.39 135.265L177.276 138.229C179.49 141.855 180.255 146.128 179.428 150.252L164.375 225.338L167.791 280.195L174.795 333.956H229.22L204.228 277.733L213.05 201.972L212.639 152.102Z" fill="#EBEBEB"/>
<path d="M228.538 299.095C228.539 299.102 228.414 299.119 228.168 299.144C227.899 299.168 227.536 299.201 227.072 299.245C226.106 299.345 224.676 299.336 222.829 299.382C219.136 299.399 213.776 299.306 207.107 299.098C193.77 298.672 175.199 297.819 154.239 296.657L154.028 296.645L154.001 296.444C153.574 293.192 153.123 289.761 152.665 286.28C151.893 280.388 151.141 274.644 150.421 269.143L150.391 268.91L150.634 268.876C169.589 266.241 186.162 263.937 198.023 262.289C203.927 261.488 208.658 260.847 211.938 260.401C213.548 260.192 214.801 260.03 215.678 259.916C216.087 259.868 216.407 259.829 216.647 259.801C216.865 259.777 216.977 259.769 216.978 259.776C216.979 259.784 216.87 259.806 216.654 259.844C216.416 259.883 216.098 259.934 215.692 260.001C214.818 260.134 213.568 260.324 211.965 260.567C208.689 261.046 203.966 261.735 198.072 262.595C186.216 264.286 169.653 266.649 150.708 269.35L150.92 269.083C151.643 274.583 152.4 280.327 153.175 286.218C153.632 289.7 154.081 293.131 154.508 296.383L154.27 296.171C175.225 297.348 193.792 298.261 207.121 298.773C213.785 299.024 219.141 299.168 222.83 299.206C224.673 299.188 226.105 299.226 227.066 299.155C227.53 299.131 227.893 299.114 228.162 299.099C228.409 299.089 228.536 299.087 228.538 299.095Z" fill="#263238"/>
<path d="M203.727 210.394C203.745 210.394 203.791 210.569 203.86 210.898C203.94 211.284 204.039 211.765 204.159 212.351C204.414 213.687 204.762 215.502 205.186 217.714C206.024 222.312 207.159 228.546 208.414 235.434C209.617 242.334 210.705 248.577 211.508 253.181C211.871 255.403 212.169 257.226 212.388 258.568C212.475 259.161 212.545 259.646 212.602 260.036C212.645 260.373 212.659 260.551 212.642 260.554C212.624 260.556 212.576 260.384 212.5 260.052C212.418 259.666 212.316 259.186 212.192 258.599C211.932 257.264 211.58 255.45 211.15 253.238C210.292 248.708 209.144 242.443 207.908 235.516C206.673 228.592 205.585 222.318 204.827 217.771C204.47 215.548 204.177 213.723 203.961 212.381C203.878 211.788 203.811 211.3 203.757 210.909C203.72 210.57 203.709 210.394 203.727 210.394Z" fill="#263238"/>
<path d="M185.278 140.55C185.286 140.548 185.309 140.61 185.347 140.733C185.39 140.882 185.442 141.062 185.506 141.281C185.631 141.767 185.853 142.478 186.056 143.416C186.497 145.284 187.011 148.032 187.366 151.497C187.725 154.96 187.877 159.14 187.692 163.825C187.525 168.512 187.005 173.696 186.266 179.187L186.242 179.361L186.061 179.393C184.273 179.71 182.377 180.047 180.452 180.388L180.643 180.057C180.962 180.881 181.295 181.767 181.55 182.683C183.375 189.052 182.573 195.495 180.909 200.884C179.217 206.32 176.634 210.826 174.319 214.458C171.978 218.09 169.86 220.884 168.405 222.816C167.686 223.75 167.117 224.487 166.703 225.023C166.518 225.252 166.369 225.439 166.248 225.588C166.144 225.715 166.087 225.776 166.079 225.771C166.072 225.767 166.114 225.695 166.205 225.559C166.314 225.402 166.45 225.207 166.618 224.965C167.012 224.417 167.555 223.662 168.241 222.705C169.644 220.74 171.714 217.919 174.007 214.278C176.275 210.638 178.806 206.14 180.454 200.757C182.076 195.416 182.844 189.061 181.053 182.813C180.802 181.914 180.477 181.045 180.165 180.237L180.058 179.959L180.356 179.906C182.282 179.567 184.178 179.233 185.967 178.918L185.762 179.125C186.511 173.644 187.049 168.478 187.247 163.809C187.461 159.141 187.347 154.978 187.035 151.525C186.726 148.071 186.265 145.325 185.879 143.451C185.705 142.509 185.512 141.794 185.416 141.302C185.37 141.079 185.332 140.895 185.302 140.744C185.279 140.617 185.27 140.552 185.278 140.55Z" fill="#263238"/>
<path d="M185.287 217.57V205.591C185.287 205.591 185.45 202.636 182.846 203.258C180.243 203.88 180.731 208.547 180.731 208.547C180.731 208.547 180.243 226.748 181.381 226.593C182.52 226.437 182.958 225.037 182.958 225.037V218.036L185.287 217.57Z" fill="#845EF1"/>
<path d="M196.113 218.321C196.113 218.457 193.108 218.566 189.401 218.566C185.694 218.566 182.689 218.456 182.689 218.321C182.689 218.186 185.694 218.076 189.401 218.076C193.108 218.076 196.113 218.186 196.113 218.321Z" fill="#263238"/>
<path d="M220.9 160.665C220.91 160.701 220.404 160.864 219.496 161.162C218.595 161.479 217.297 161.955 215.773 162.702C212.738 164.178 208.777 166.858 205.703 170.906C204.923 171.905 204.265 172.951 203.723 173.989C203.222 175.052 202.813 176.115 202.533 177.161C201.938 179.244 201.683 181.191 201.534 182.822C201.388 184.456 201.36 185.787 201.349 186.706C201.339 187.625 201.349 188.135 201.313 188.137C201.278 188.139 201.201 187.632 201.149 186.71C201.098 185.788 201.071 184.449 201.172 182.797C201.277 181.147 201.497 179.175 202.076 177.045C202.348 175.977 202.757 174.883 203.269 173.784C203.827 172.7 204.495 171.634 205.289 170.617C208.422 166.49 212.496 163.804 215.612 162.391C217.177 161.674 218.509 161.243 219.435 160.979C220.369 160.737 220.892 160.636 220.9 160.665Z" fill="#263238"/>
<path d="M0 260.257L89.6587 292.007L165.237 303.054L75.3773 261.169L0 260.257Z" fill="#263238"/>
<path d="M38.3581 294.498C37.6464 289.932 36.017 285.498 33.5832 281.511C33.1061 280.729 32.5915 279.949 32.3599 279.072C32.1282 278.194 32.2278 277.179 32.8675 276.513C34.0179 275.315 36.1215 275.847 37.536 276.753C40.4646 278.628 42.4243 281.649 43.5736 284.834C44.723 288.02 45.139 291.396 45.5471 294.743" fill="#FFBE9D"/>
<path d="M73.3034 286.341H68.845C67.9617 285.447 66.6083 284.65 64.9355 284.193C63.9084 283.912 62.897 284.435 61.9862 285.291C63.9794 282.152 66.1283 278.696 66.5403 277.749C67.3427 275.909 65.5772 274.527 62.689 274.527C59.8008 274.527 47.1242 291.71 47.1242 291.71C47.1242 291.71 55.0022 277.889 55.7662 275.778C57.6746 270.5 51.6389 270.107 49.4476 272.652C46.728 275.812 35.7311 291.709 35.7311 291.709C35.7311 291.709 33.6453 294.931 35.0894 298C36.5335 301.068 40.7051 299.84 40.7051 299.84C40.7051 299.84 40.6726 302.524 43.6475 304.106C46.867 305.816 51.1037 303.833 51.1037 303.833L67.5024 307.358C67.5024 307.358 70.1057 307.108 73.4385 306.791C81.7443 306.002 88.4276 299.911 89.647 292.017L73.3034 286.341Z" fill="#FFBE9D"/>
<path d="M62.2565 285.049C62.4398 285.155 60.2594 288.439 57.4254 292.374C56.0079 294.344 54.6959 296.108 53.7249 297.371C52.7539 298.633 52.1231 299.393 52.0649 299.355C52.0068 299.316 52.5322 298.486 53.4272 297.173C54.3223 295.86 55.586 294.065 57.0035 292.096C58.42 290.127 59.7202 288.357 60.6724 287.083C61.0923 286.529 61.4689 286.032 61.8099 285.581C62.0889 285.223 62.217 285.058 62.2565 285.049Z" fill="#EB996E"/>
<path d="M61.2671 302.548C61.201 302.513 61.7481 301.52 62.722 299.979C63.691 298.435 65.073 296.327 66.5901 293.997C67.3442 292.832 68.0726 291.72 68.668 290.693C69.29 289.706 69.2476 288.619 69.0288 287.784C68.5477 286.075 67.5383 285.346 67.629 285.287C67.6468 285.266 67.9021 285.417 68.2668 285.796C68.6236 286.175 69.0909 286.797 69.3787 287.69C69.6626 288.557 69.7494 289.801 69.0869 290.903C68.4975 291.971 67.7828 293.085 67.0267 294.257C65.5067 296.591 64.0764 298.668 63.0296 300.165C61.9758 301.659 61.3252 302.579 61.2671 302.548Z" fill="#EB996E"/>
<path d="M69.8965 304.108C69.8295 304.089 70.1045 303.126 70.7679 301.662C71.1248 300.884 71.5171 300.028 71.94 299.106C72.3658 298.146 72.8547 297.084 73.1436 295.94C73.4353 294.83 73.2382 293.637 72.626 292.876C72.3303 292.499 71.8828 292.277 71.455 292.078C71.0301 291.89 70.6073 291.763 70.2317 291.753C69.4953 291.787 68.8733 292.175 68.4652 292.343C68.0493 292.541 67.8078 292.636 67.79 292.606C67.7733 292.576 67.9783 292.428 68.3657 292.177C68.5609 292.053 68.8014 291.904 69.101 291.754C69.4047 291.614 69.7467 291.427 70.2297 291.406C70.6891 291.396 71.1583 291.521 71.6265 291.707C72.077 291.896 72.6044 292.133 72.9937 292.593C73.7498 293.497 73.9588 294.818 73.6443 296.05C73.3358 297.269 72.8261 298.329 72.3727 299.291C71.9094 300.249 71.4639 301.095 71.0982 301.807C70.3539 303.225 69.9655 304.129 69.8965 304.108Z" fill="#EB996E"/>
<path d="M72.9192 289.267C72.9311 289.24 73.1834 289.297 73.6171 289.469C74.0509 289.64 74.6551 289.948 75.3313 290.431C76.6759 291.377 78.2816 293.195 78.8593 295.645C79.4261 298.098 78.7814 300.397 77.9849 301.799C77.5887 302.511 77.1786 303.036 76.8622 303.367C76.5458 303.699 76.3427 303.854 76.32 303.833C76.2461 303.775 76.9755 303.062 77.6587 301.646C78.3447 300.255 78.8928 298.064 78.3575 295.752C77.8134 293.442 76.3437 291.682 75.1036 290.702C73.8557 289.699 72.8778 289.349 72.9192 289.267Z" fill="#EB996E"/>
<path d="M44.0399 280.249C44.1572 280.325 42.4952 282.869 40.3276 285.93C38.1599 288.993 36.3077 291.413 36.1894 291.337C36.0721 291.261 37.7341 288.718 39.9017 285.655C42.0694 282.594 43.9226 280.173 44.0399 280.249Z" fill="#EB996E"/>
<path d="M150.403 270.149L140.154 267.926L130.31 259.061C129.114 257.984 127.56 257.344 125.92 257.255L108.007 256.269C106.22 256.171 104.462 256.732 103.095 257.835L90.2871 268.181L146.15 294.219L153.816 294.866L150.403 270.149Z" fill="#FFBE9D"/>
<path d="M120.051 265.575C120.036 265.653 118.723 265.421 116.6 265.163C114.509 264.943 111.437 264.664 108.488 265.968C107.02 266.596 105.76 267.477 104.622 268.278C103.49 269.092 102.473 269.845 101.575 270.422C100.68 271.004 99.9096 271.411 99.3605 271.656C98.8065 271.892 98.4881 271.992 98.4753 271.963C98.4408 271.889 99.6562 271.371 101.365 270.14C102.226 269.533 103.211 268.757 104.336 267.918C105.466 267.093 106.743 266.178 108.277 265.522C109.798 264.834 111.416 264.587 112.851 264.544C114.295 264.505 115.584 264.658 116.65 264.82C117.718 264.987 118.568 265.173 119.153 265.309C119.739 265.447 120.058 265.542 120.051 265.575Z" fill="#EB996E"/>
<path d="M123.715 275.102C123.681 275.18 122.98 274.873 121.783 274.752C120.591 274.618 118.901 274.757 117.175 275.365C115.445 275.975 114.003 276.83 112.957 277.435C111.913 278.048 111.257 278.424 111.215 278.365C111.176 278.311 111.756 277.838 112.756 277.146C113.758 276.463 115.199 275.54 117 274.904C118.803 274.268 120.599 274.178 121.835 274.409C123.081 274.627 123.743 275.06 123.715 275.102Z" fill="#EB996E"/>
<path d="M146.774 276.694C146.648 276.768 145.203 274.722 143.301 272.289C141.404 269.85 139.766 267.941 139.876 267.848C139.977 267.76 141.8 269.537 143.712 271.996C145.63 274.449 146.891 276.627 146.774 276.694Z" fill="#EB996E"/>
<path d="M118.558 257.282L141.266 237.058C142.248 236.185 142.172 234.677 141.109 233.896C140.281 233.288 139.117 233.332 138.341 233.998L111.713 256.832" fill="#845EF1"/>
<g opacity="0.3">
<path d="M118.558 257.282L141.266 237.058C142.248 236.185 142.172 234.677 141.109 233.896C140.281 233.288 139.117 233.332 138.341 233.998L111.713 256.832" fill="black"/>
</g>
<path d="M253.92 64.5487C253.569 64.4139 239.818 60.9654 240.649 74.2601C241.481 87.5548 255.27 84.0139 255.27 83.6303C255.272 83.2486 253.92 64.5487 253.92 64.5487Z" fill="#B78876"/>
<path d="M250.671 78.8323C250.607 78.7936 250.44 79.0076 250.042 79.2111C249.653 79.4081 248.974 79.5683 248.233 79.3497C246.731 78.919 245.355 76.7597 245.138 74.3668C245.026 73.1585 245.219 71.9917 245.608 71.0115C245.971 70.0144 246.587 69.2971 247.319 69.1303C248.044 68.9248 248.595 69.3188 248.789 69.6826C248.999 70.0445 248.927 70.315 249.002 70.3329C249.042 70.364 249.287 70.0935 249.14 69.5507C249.066 69.2896 248.883 68.9852 248.54 68.7486C248.19 68.5083 247.692 68.4037 247.18 68.4866C246.112 68.6195 245.207 69.6176 244.779 70.6929C244.293 71.7759 244.046 73.0906 244.171 74.4459C244.427 77.1198 246.018 79.5448 248.063 79.9849C249.056 80.1725 249.855 79.8445 250.256 79.5061C250.668 79.1555 250.722 78.8539 250.671 78.8323Z" fill="#AA6550"/>
<path d="M288.664 17.042C295.729 17.042 302.923 17.042 311.768 21.4575C317.346 24.2426 320.824 28.6562 323.731 33.9917C325.955 38.0754 327.273 43.4241 327.018 48.0225C326.762 52.6199 326.745 55.8357 324.824 60.0571" fill="#263238"/>
<path d="M285.82 18.0818C306.73 16.686 324.788 31.9401 325.882 51.9529C326.793 68.6076 327.595 86.6222 327.401 95.6927C326.987 115.161 306.595 118.033 306.595 118.033C306.595 118.033 307.044 123.806 307.547 130.969C308.56 145.393 296.911 157.774 281.802 158.322C266.991 158.858 254.532 147.806 253.985 133.642L250.956 55.1734C250.21 35.842 265.637 19.4296 285.82 18.0818Z" fill="#B78876"/>
<path d="M306.613 118.063C306.613 118.063 294.099 118.685 280.488 110.366C280.488 110.366 286.647 124.532 306.982 122.932L306.613 118.063Z" fill="#AA6550"/>
<path d="M318.061 62.791C318.103 64.2594 316.837 65.5054 315.233 65.5751C313.633 65.6448 312.298 64.5139 312.257 63.0455C312.215 61.5771 313.48 60.3292 315.081 60.2595C316.684 60.1888 318.02 61.3217 318.061 62.791Z" fill="#263238"/>
<path d="M320.886 58.8723C320.522 59.2323 318.332 57.6555 315.202 57.6395C312.076 57.5811 309.768 59.1023 309.43 58.7338C309.265 58.5707 309.638 57.9185 310.644 57.2295C311.634 56.5434 313.319 55.8827 315.268 55.9053C317.218 55.9308 318.851 56.6292 319.788 57.3389C320.745 58.0514 321.065 58.7102 320.886 58.8723Z" fill="#263238"/>
<path d="M287.428 62.7842C287.47 64.2526 286.204 65.4976 284.601 65.5683C283.001 65.638 281.666 64.508 281.624 63.0386C281.582 61.5702 282.848 60.3233 284.449 60.2526C286.052 60.182 287.386 61.3158 287.428 62.7842Z" fill="#263238"/>
<path d="M290.118 59.1751C289.754 59.5351 287.561 57.9593 284.434 57.9433C281.309 57.8848 278.999 59.407 278.663 59.0366C278.498 58.8735 278.867 58.2213 279.877 57.5333C280.867 56.8472 282.551 56.1855 284.501 56.2091C286.45 56.2336 288.083 56.9329 289.021 57.6417C289.973 58.3561 290.296 59.0149 290.118 59.1751Z" fill="#263238"/>
<path d="M301.328 81.4544C301.315 81.2838 303.263 80.9775 306.418 80.6165C307.218 80.5439 307.976 80.3979 308.115 79.8776C308.308 79.3272 307.979 78.5006 307.6 77.609C306.865 75.7542 306.094 73.8108 305.285 71.7732C302.073 63.4642 299.755 56.635 300.105 56.5143C300.457 56.3937 303.346 63.0307 306.558 71.3387C307.331 73.3876 308.07 75.3405 308.773 77.2094C309.068 78.0793 309.58 79.068 309.162 80.2103C308.943 80.7796 308.352 81.1895 307.839 81.3177C307.326 81.4638 306.875 81.4676 306.48 81.4883C303.306 81.6259 301.339 81.624 301.328 81.4544Z" fill="#263238"/>
<path d="M292.138 83.451C292.647 83.4275 292.627 86.6744 295.515 89.0023C298.398 91.3368 302.023 90.9994 302.045 91.4537C302.091 91.6582 301.233 92.0786 299.705 92.1059C298.205 92.1436 296.021 91.6667 294.253 90.2426C292.492 88.8157 291.744 86.9232 291.64 85.5905C291.52 84.2324 291.905 83.4312 292.138 83.451Z" fill="#263238"/>
<path d="M291.036 47.4326C290.72 48.2431 287.599 47.8341 283.925 48.229C280.24 48.5532 277.271 49.5579 276.791 48.8246C276.577 48.474 277.099 47.7125 278.303 46.934C279.496 46.1565 281.395 45.4241 283.601 45.2064C285.807 44.9934 287.822 45.3431 289.155 45.8728C290.499 46.4024 291.172 47.0471 291.036 47.4326Z" fill="#263238"/>
<path d="M320.482 48.2032C319.926 48.8781 317.776 48.1561 315.183 48.1043C312.593 47.9639 310.393 48.5237 309.893 47.8093C309.674 47.4624 310.025 46.7839 310.99 46.1477C311.94 45.5143 313.525 45.0026 315.306 45.0676C317.087 45.1355 318.625 45.7632 319.521 46.4653C320.432 47.1712 320.728 47.8734 320.482 48.2032Z" fill="#263238"/>
<path d="M251.206 61.2543C251.206 61.2543 252.091 65.7556 252.329 67.7886C252.416 68.5303 252.314 76.7808 254.41 77.1927C256.213 77.5471 259.796 75.9778 261.391 72.566C262.986 69.1542 266.021 60.9678 265.692 57.244C265.245 52.1659 264.998 47.0067 266.058 42.0125C267.12 37.0183 269.617 32.1475 273.815 29.0081C278.013 25.8687 284.066 24.7688 288.83 27.0543C291.77 28.4652 293.97 30.9628 296.71 32.7036C299.174 34.269 302.182 35.2087 305.108 34.7931C308.035 34.3784 310.801 32.4284 311.599 29.7046C312.472 26.7329 310.87 23.4785 308.383 21.5106C305.896 19.5427 302.681 18.6398 299.515 18.0385C290.733 16.3703 281.423 16.702 273.078 19.8038C264.732 22.9045 257.328 28.8601 253.76 36.7129C249.638 45.79 250.118 51.3573 251.206 61.2543Z" fill="#263238"/>
<path d="M297.76 62.9059C297.681 62.9125 297.769 61.7259 297.231 59.6986C296.698 57.7109 295.311 54.7873 292.185 52.5272C290.636 51.4226 288.685 50.4858 286.437 50.1097C284.204 49.7478 281.685 49.8185 279.289 50.6922C278.083 51.0937 276.92 51.7006 275.852 52.4659C274.772 53.2162 273.79 54.1483 272.982 55.2274C271.311 57.3546 270.369 60.0869 270.342 62.904C270.368 65.7211 271.31 68.4552 272.981 70.5834C273.789 71.6635 274.771 72.5946 275.851 73.3458C276.92 74.1111 278.083 74.7181 279.289 75.1205C281.686 75.9951 284.205 76.0649 286.438 75.7029C288.686 75.3269 290.637 74.3891 292.186 73.2855C295.312 71.0245 296.698 68.1018 297.231 66.1141C297.769 64.0849 297.681 62.8983 297.76 62.9059C297.769 62.9059 297.774 62.9784 297.775 63.1208C297.773 63.2923 297.77 63.4996 297.767 63.7522C297.768 64.0312 297.753 64.3743 297.683 64.7767C297.628 65.1801 297.575 65.6485 297.424 66.1593C296.943 68.1885 295.585 71.2026 292.405 73.5607C290.83 74.7124 288.831 75.6973 286.516 76.1026C284.216 76.4946 281.614 76.4371 279.128 75.5456C277.877 75.1346 276.669 74.5116 275.559 73.7228C274.436 72.9481 273.417 71.9858 272.575 70.868C270.838 68.6664 269.854 65.8266 269.828 62.904C269.855 59.9823 270.839 57.1435 272.576 54.9428C273.418 53.826 274.437 52.8637 275.56 52.089C276.67 51.3001 277.878 50.6771 279.129 50.2662C281.615 49.3746 284.216 49.3171 286.516 49.7092C288.831 50.1144 290.83 51.0993 292.405 52.2511C295.586 54.6092 296.944 57.6223 297.425 59.6524C297.576 60.1632 297.628 60.6317 297.684 61.035C297.754 61.4375 297.769 61.7805 297.768 62.0595C297.771 62.3121 297.774 62.5194 297.776 62.691C297.774 62.8333 297.769 62.9059 297.76 62.9059Z" fill="#263238"/>
<path d="M333.6 62.9059C333.521 62.9125 333.609 61.7259 333.07 59.6986C332.538 57.7109 331.151 54.7873 328.025 52.5272C326.476 51.4226 324.525 50.4858 322.277 50.1097C320.044 49.7478 317.525 49.8185 315.129 50.6922C313.923 51.0937 312.759 51.7006 311.692 52.4659C310.61 53.2162 309.63 54.1483 308.821 55.2274C307.151 57.3546 306.209 60.0869 306.182 62.904C306.208 65.7211 307.15 68.4552 308.82 70.5834C309.629 71.6635 310.61 72.5946 311.691 73.3458C312.759 74.1111 313.923 74.7181 315.129 75.1205C317.525 75.9951 320.045 76.0649 322.278 75.7029C324.526 75.3269 326.477 74.3891 328.026 73.2855C331.152 71.0245 332.538 68.1018 333.07 66.1141C333.609 64.0849 333.521 62.8983 333.6 62.9059C333.609 62.9059 333.614 62.9784 333.615 63.1208C333.613 63.2923 333.61 63.4996 333.607 63.7522C333.608 64.0312 333.593 64.3743 333.523 64.7767C333.468 65.1801 333.415 65.6485 333.264 66.1593C332.783 68.1885 331.425 71.2026 328.244 73.5607C326.669 74.7124 324.67 75.6973 322.355 76.1026C320.055 76.4946 317.452 76.4371 314.966 75.5456C313.716 75.1346 312.508 74.5116 311.398 73.7228C310.275 72.9481 309.255 71.9858 308.413 70.868C306.675 68.6664 305.692 65.8266 305.666 62.904C305.693 59.9823 306.676 57.1435 308.414 54.9428C309.256 53.826 310.275 52.8637 311.398 52.089C312.508 51.3001 313.716 50.6771 314.966 50.2662C317.452 49.3746 320.054 49.3171 322.354 49.7092C324.669 50.1144 326.668 51.0993 328.243 52.2511C331.424 54.6092 332.782 57.6223 333.263 59.6524C333.414 60.1632 333.466 60.6317 333.522 61.035C333.592 61.4375 333.607 61.7805 333.606 62.0595C333.609 62.3121 333.612 62.5194 333.614 62.691C333.614 62.8333 333.609 62.9059 333.6 62.9059Z" fill="#263238"/>
<path d="M306.252 61.4939C306.207 61.5608 305.751 61.3177 304.973 61.0717C304.199 60.8219 303.078 60.6136 301.837 60.69C300.596 60.772 299.514 61.1207 298.78 61.4666C298.044 61.8096 297.626 62.1075 297.571 62.0471C297.532 62.0066 297.873 61.6061 298.604 61.1631C299.33 60.7192 300.475 60.2875 301.802 60.2008C303.129 60.1188 304.325 60.4016 305.104 60.7493C305.892 61.0943 306.286 61.4487 306.252 61.4939Z" fill="#263238"/>
<path d="M311.81 28.654C312.01 27.6436 311.662 27.0772 312.256 26.6644C312.935 26.1922 314.218 27.4316 314.688 27.9245C314.838 28.0819 315.317 27.4664 315.502 27.3486C315.652 27.2534 315.882 26.228 315.86 26.0565C315.772 25.3534 314.615 25.163 314.071 24.6833C313.527 24.2036 312.851 23.8765 312.152 23.6418C311.542 23.4373 310.787 23.3242 310.313 23.7455C309.952 24.0669 309.89 24.59 309.904 25.0631C309.918 25.5315 309.985 26.0056 310.182 26.4344C310.378 26.8633 310.716 27.2468 311.162 27.4391" fill="#263238"/>
<path d="M250.457 50.9052C250.457 50.9052 260.44 54.4056 265.638 56.5101L265.344 51.6281L250.818 46.1353C250.818 46.1353 250.449 49.7629 250.457 50.9052Z" fill="#EBEBEB"/>
<path d="M251.376 43.3188C251.431 43.1935 254.595 44.3546 258.443 45.9097C262.293 47.4658 265.367 48.8286 265.312 48.953C265.257 49.0774 262.093 47.9182 258.243 46.3612C254.395 44.8061 251.321 43.4442 251.376 43.3188Z" fill="#EBEBEB"/>
<path d="M254.386 146.161L253.614 123.056C253.614 123.056 258.414 144.201 283.56 143.925C307.591 143.661 307.151 125.296 307.151 125.296L308.009 134.609V172.228L292.335 233.596L272.319 236.024L250.197 152.135L254.386 146.161Z" fill="#845EF1"/>
<path d="M304.912 138.763C304.927 138.773 304.827 138.942 304.622 139.255C304.403 139.559 304.141 140.054 303.67 140.596C302.804 141.734 301.329 143.247 299.194 144.738C297.067 146.238 294.205 147.603 290.833 148.492C287.461 149.368 283.566 149.713 279.553 149.238C275.55 148.724 271.863 147.552 268.718 146.12C265.563 144.694 262.916 143.058 260.804 141.561C258.69 140.062 257.083 138.726 256.012 137.765C255.468 137.294 255.072 136.899 254.797 136.64C254.525 136.377 254.389 136.233 254.401 136.221C254.413 136.208 254.574 136.328 254.868 136.567C255.203 136.844 255.625 137.192 256.146 137.622C257.255 138.536 258.891 139.827 261.018 141.28C263.144 142.732 265.787 144.324 268.919 145.711C272.041 147.105 275.679 148.246 279.619 148.752C283.559 149.218 287.388 148.894 290.711 148.055C294.034 147.204 296.864 145.896 298.984 144.455C301.112 143.023 302.608 141.569 303.513 140.478C304.428 139.392 304.867 138.735 304.912 138.763Z" fill="#263238"/>
<path d="M287.473 335.994L287.11 226.942L254.721 147.353L253.632 123.399L233.897 137.671C233.897 137.671 205.161 232.228 204.717 228.95C204.275 225.672 204.706 335.994 204.706 335.994H287.473Z" fill="#EBEBEB"/>
<path d="M286.709 335.691C286.567 335.691 286.453 311.117 286.453 280.812C286.453 250.496 286.568 225.928 286.709 225.928C286.851 225.928 286.966 250.496 286.966 280.812C286.966 311.117 286.851 335.691 286.709 335.691Z" fill="#263238"/>
<path d="M234.172 153.247L238.177 156.147L235.362 173.789L282.642 221.138L239.699 167.224L243.359 153.247H234.172Z" fill="#E0E0E0"/>
<path d="M289.242 280.132L216.685 259.792L214.282 207.097L234.182 137.674C234.182 137.674 186.744 160.301 183.518 174.7C180.29 189.099 172.508 224.104 171.679 249.404C170.938 272.025 170.83 287.149 176.232 294.37C191.704 315.05 293.669 318.742 334.406 294.34" fill="#EBEBEB"/>
<path d="M283.561 222.283C283.555 222.287 283.475 222.202 283.326 222.028C283.163 221.833 282.947 221.577 282.674 221.251C282.092 220.537 281.265 219.525 280.21 218.233C278.069 215.575 275.002 211.77 271.222 207.078C263.656 197.609 253.234 184.566 241.723 170.16C240.978 169.225 240.237 168.294 239.503 167.373L239.428 167.279L239.458 167.165C240.725 162.337 241.954 157.656 243.126 153.191L243.366 153.484C240.194 153.48 237.127 153.476 234.18 153.472H233.945L233.946 153.247C233.96 147.541 233.973 142.307 233.985 137.671V137.578L234.062 137.522C240.045 133.174 244.919 129.634 248.322 127.16C250 125.956 251.315 125.013 252.237 124.352C252.67 124.047 253.011 123.809 253.266 123.631C253.499 123.471 253.623 123.392 253.629 123.4C253.634 123.407 253.523 123.501 253.301 123.675C253.056 123.864 252.727 124.117 252.307 124.439C251.401 125.118 250.107 126.089 248.456 127.327C245.077 129.831 240.24 133.417 234.3 137.819L234.377 137.67C234.389 142.306 234.402 147.54 234.416 153.247L234.181 153.022C237.129 153.018 240.196 153.015 243.367 153.01H243.683L243.607 153.304C242.44 157.77 241.217 162.453 239.956 167.283L239.912 167.076C240.646 167.996 241.387 168.927 242.132 169.863C253.596 184.303 263.976 197.377 271.511 206.867C275.237 211.6 278.258 215.437 280.369 218.118C281.391 219.435 282.192 220.466 282.756 221.192C283.012 221.531 283.213 221.797 283.367 221.999C283.502 222.181 283.568 222.278 283.561 222.283Z" fill="#263238"/>
<path d="M315.899 133.573C310.111 123.896 307.11 124.903 307.11 124.903L307.412 128.351L307.418 135.6L304.675 166.696L287.096 234.264L287.458 336H353.907L362.178 211.812L361.426 158.313L315.899 133.573Z" fill="#EBEBEB"/>
<path d="M361.43 158.309C361.43 158.309 378.63 170.449 380.12 189.979C381.329 205.844 384.107 249.28 384.609 258.737C385.39 273.464 373.398 307.948 342.172 298.18C323.447 292.322 254.262 269.837 254.262 269.837L258.864 241.745L340.982 246.422L342.612 180.936L361.43 158.309Z" fill="#EBEBEB"/>
<path d="M257.928 244.982C257.928 244.982 234.686 242.579 229.303 243.821C224.131 245.016 216.764 251.065 216.764 251.065L216.868 259.846L254.26 269.839L257.928 244.982Z" fill="#B78876"/>
<path d="M287.095 224.105C287.087 224.102 287.121 223.999 287.197 223.802C287.286 223.582 287.401 223.295 287.547 222.934C287.878 222.145 288.343 221.032 288.937 219.614C290.178 216.709 291.952 212.555 294.138 207.436C296.355 202.293 298.989 196.182 301.912 189.399C302.65 187.71 303.379 185.947 304.292 184.224C305.168 182.484 306.202 180.78 307.269 179.057C309.455 175.639 311.933 172.23 314.649 168.873C315.99 167.219 317.341 165.609 318.738 164.065L318.693 164.316C317.707 161.919 316.741 159.569 315.798 157.276L315.702 157.042L315.95 156.961C320.191 155.583 324.249 154.264 328.063 153.024L327.939 153.348C322.319 144.378 317.57 136.795 314.206 131.425C312.544 128.766 311.124 126.64 309.618 125.767C308.879 125.329 308.219 125.159 307.781 125.056C307.339 124.954 307.106 124.915 307.108 124.899C307.108 124.899 307.346 124.905 307.796 124.985C308.243 125.065 308.921 125.215 309.694 125.647C310.473 126.072 311.257 126.833 312.023 127.807C312.789 128.784 313.605 129.943 314.438 131.281C317.843 136.631 322.649 144.185 328.337 153.122L328.486 153.357L328.212 153.446C324.401 154.696 320.348 156.026 316.11 157.415L316.262 157.101C317.208 159.393 318.177 161.742 319.167 164.138L319.223 164.276L319.12 164.389C317.738 165.917 316.388 167.527 315.054 169.174C312.348 172.519 309.878 175.911 307.698 179.306C306.635 181.018 305.603 182.711 304.731 184.433C303.822 186.137 303.096 187.876 302.349 189.571C299.387 196.339 296.719 202.436 294.473 207.569C292.223 212.664 290.398 216.797 289.122 219.687C288.49 221.091 287.994 222.192 287.643 222.973C287.477 223.327 287.346 223.607 287.247 223.823C287.154 224.012 287.103 224.107 287.095 224.105Z" fill="#263238"/>
<path d="M370.863 292.718C370.869 292.724 370.771 292.823 370.575 293.009C370.359 293.21 370.067 293.482 369.692 293.83C368.903 294.539 367.657 295.507 365.919 296.567C364.158 297.588 361.853 298.638 359.009 299.336C356.171 300.04 352.787 300.311 349.114 299.937C347.277 299.74 345.378 299.353 343.449 298.79C341.521 298.203 339.59 297.482 337.55 296.796C333.492 295.388 329.141 293.923 324.561 292.386C315.399 289.318 305.293 286.034 294.648 282.695C273.352 276.007 253.936 270.37 239.862 266.352C232.839 264.365 227.147 262.755 223.184 261.634C221.235 261.081 219.713 260.648 218.65 260.346C218.152 260.199 217.762 260.084 217.475 259.999C217.211 259.918 217.077 259.873 217.08 259.865C217.083 259.856 217.221 259.885 217.49 259.95C217.781 260.024 218.175 260.123 218.68 260.25C219.749 260.531 221.28 260.933 223.24 261.449C227.197 262.504 232.913 264.056 239.966 266.017C254.067 269.95 273.506 275.535 294.808 282.226C305.456 285.566 315.561 288.865 324.719 291.957C329.296 293.507 333.644 294.986 337.697 296.412C339.727 297.104 341.679 297.842 343.569 298.427C345.469 298.993 347.343 299.386 349.156 299.591C352.782 299.982 356.127 299.74 358.941 299.068C361.761 298.403 364.055 297.39 365.816 296.402C367.557 295.375 368.816 294.437 369.624 293.755C370.012 293.423 370.316 293.163 370.54 292.971C370.747 292.799 370.857 292.712 370.863 292.718Z" fill="#263238"/>
<path d="M216.878 260.007C216.861 260.109 215.573 259.841 213.491 259.919C212.452 259.963 211.219 260.124 209.901 260.486C208.59 260.865 207.197 261.437 205.858 262.247C203.181 263.891 201.344 266.09 200.237 267.77C199.134 269.466 198.66 270.635 198.569 270.597C198.536 270.585 198.635 270.287 198.844 269.757C199.039 269.22 199.409 268.478 199.926 267.591C200.972 265.836 202.815 263.532 205.581 261.833C206.962 260.997 208.411 260.417 209.771 260.05C211.14 259.7 212.415 259.572 213.481 259.571C214.545 259.579 215.407 259.658 215.986 259.785C216.568 259.896 216.885 259.973 216.878 260.007Z" fill="#263238"/>
<path d="M194.018 253.113C194.002 253.105 194.033 253.021 194.11 252.865C194.187 252.71 194.327 252.487 194.566 252.249C195.022 251.748 195.936 251.245 197.144 251.024C198.352 250.779 199.824 250.837 201.405 251.034C202.993 251.233 204.719 251.611 206.46 252.208C209.959 253.388 212.761 255.272 214.477 256.9C215.332 257.721 215.947 258.451 216.335 258.98C216.71 259.517 216.903 259.821 216.874 259.84C216.792 259.899 215.98 258.693 214.227 257.151C212.479 255.619 209.715 253.827 206.286 252.67C204.581 252.085 202.892 251.7 201.339 251.481C199.783 251.263 198.368 251.174 197.207 251.365C196.047 251.534 195.177 251.955 194.706 252.384C194.225 252.807 194.061 253.137 194.018 253.113Z" fill="#263238"/>
<path d="M221.108 192.597C221.072 192.599 220.955 192.085 220.776 191.167C220.631 190.72 220.416 190.182 220.193 189.554C219.877 188.96 219.569 188.258 219.118 187.54C218.235 186.09 216.983 184.478 215.419 182.836C213.813 181.234 211.943 179.554 209.752 178.07C205.391 175.069 200.798 173.311 197.362 172.629C195.636 172.334 194.224 172.121 193.237 172.128C192.253 172.083 191.704 172.042 191.703 172.008C191.701 171.974 192.247 171.95 193.242 171.936C194.239 171.871 195.674 172.032 197.434 172.289C200.937 172.893 205.633 174.63 210.053 177.672C212.273 179.176 214.16 180.89 215.768 182.531C217.335 184.213 218.576 185.873 219.434 187.37C219.873 188.112 220.164 188.84 220.459 189.453C220.662 190.106 220.852 190.662 220.971 191.123C221.094 192.076 221.142 192.597 221.108 192.597Z" fill="#263238"/>
<path d="M358.861 273.171C358.852 273.171 358.844 273.057 358.837 272.834C358.831 272.587 358.824 272.261 358.814 271.848C358.786 270.983 358.751 269.705 358.619 268.066C358.337 264.802 357.753 260.026 355.701 254.485C355.191 253.104 354.612 251.662 353.711 250.335C352.825 249.002 351.502 247.885 349.865 247.218C346.563 245.858 342.59 246.037 338.549 245.82C330.413 245.493 321.473 245.134 312.088 244.757C290.223 243.847 270.774 243.062 258.556 242.438L258.719 242.312C257.981 246.604 257.396 250.007 256.99 252.37C256.784 253.512 256.623 254.402 256.51 255.035C256.455 255.318 256.411 255.543 256.376 255.72C256.344 255.873 256.324 255.951 256.316 255.95C256.308 255.949 256.314 255.87 256.333 255.714C256.356 255.537 256.387 255.31 256.424 255.024C256.519 254.388 256.652 253.494 256.824 252.347C257.196 249.979 257.732 246.567 258.41 242.264L258.43 242.132L258.573 242.138C270.842 242.626 290.269 243.398 312.112 244.267C321.496 244.658 330.434 245.03 338.571 245.368C340.604 245.465 342.585 245.511 344.52 245.661C346.448 245.822 348.344 246.128 350.038 246.845C351.737 247.544 353.139 248.741 354.043 250.129C354.966 251.509 355.541 252.978 356.044 254.37C358.067 259.968 358.597 264.775 358.818 268.053C358.919 269.7 358.922 270.98 358.916 271.847C358.905 272.26 358.895 272.586 358.888 272.834C358.879 273.058 358.87 273.172 358.861 273.171Z" fill="#263238"/>
<path d="M343.2 211.709C343.342 211.709 343.456 219.314 343.456 228.693C343.456 238.075 343.341 245.678 343.2 245.678C343.058 245.678 342.943 238.075 342.943 228.693C342.942 219.314 343.058 211.709 343.2 211.709Z" fill="#263238"/>
<path d="M184.078 173C184.078 173 184.016 173.215 183.875 173.627C183.744 174.041 183.489 174.64 183.281 175.466C182.802 177.097 182.196 179.536 181.516 182.712C180.143 189.062 178.452 198.354 176.557 209.987C175.615 215.804 174.612 222.206 173.625 229.125C173.123 232.58 172.812 236.184 172.551 239.913C172.292 243.641 172.084 247.492 171.934 251.454C171.635 259.378 171.458 267.748 171.698 276.468C171.768 278.647 171.852 280.85 172.042 283.063C172.1 284.176 172.29 285.268 172.433 286.375C172.676 287.464 172.886 288.568 173.273 289.629C173.982 291.765 175.054 293.818 176.539 295.598C178.015 297.358 179.946 298.886 182.144 299.726L182.175 299.738L182.185 299.743C186.733 301.99 191.715 303.617 196.8 305.08C201.894 306.539 207.159 307.717 212.506 308.768C224.469 311.104 236.335 312.477 247.796 312.876C253.529 313.042 259.151 312.836 264.642 312.457C270.132 312.094 275.481 311.545 280.657 310.811C291.016 309.38 300.678 307.18 309.402 304.423C318.132 301.671 325.901 298.331 332.644 294.888L332.67 295.193C319.139 290.613 308.277 286.937 300.783 284.4C297.055 283.128 294.168 282.142 292.197 281.469C291.229 281.133 290.49 280.876 289.977 280.698C289.479 280.522 289.228 280.421 289.228 280.421C289.228 280.421 289.49 280.491 289.994 280.653C290.51 280.82 291.255 281.063 292.23 281.379C294.207 282.032 297.104 282.991 300.846 284.227C308.352 286.729 319.231 290.356 332.785 294.876L333.161 295.001L332.81 295.181C326.061 298.654 318.28 302.023 309.532 304.801C300.789 307.584 291.105 309.806 280.723 311.254C275.535 311.997 270.175 312.553 264.675 312.921C259.179 313.307 253.53 313.519 247.778 313.355C236.281 312.962 224.392 311.59 212.402 309.248C207.041 308.194 201.766 307.013 196.653 305.547C191.548 304.076 186.551 302.445 181.945 300.167L181.986 300.184C179.621 299.279 177.683 297.717 176.147 295.897C174.62 294.064 173.522 291.955 172.8 289.773C172.406 288.687 172.192 287.564 171.946 286.455C171.8 285.331 171.609 284.212 171.552 283.099C171.364 280.873 171.282 278.666 171.215 276.481C170.985 267.743 171.174 259.368 171.49 251.438C171.648 247.473 171.863 243.619 172.131 239.886C172.401 236.155 172.722 232.539 173.235 229.075C174.24 222.154 175.264 215.754 176.228 209.938C178.168 198.309 179.91 189.021 181.338 182.677C182.046 179.504 182.682 177.069 183.191 175.441C183.413 174.619 183.682 174.022 183.828 173.612C183.987 173.204 184.078 173 184.078 173Z" fill="#263238"/>
<path d="M216.764 253.49C228.896 240.646 228.363 217.807 221.401 201.601C220.758 219.157 218.591 234.725 216.931 251.784" fill="#E0E0E0"/>
<path d="M221.427 204.89C221.444 204.892 221.442 205.085 221.423 205.452C221.394 205.873 221.358 206.403 221.313 207.055C221.194 208.512 221.029 210.508 220.829 212.945C220.397 217.975 219.807 224.813 219.156 232.368C218.536 239.928 217.977 246.768 217.565 251.799C217.372 254.237 217.216 256.233 217.1 257.689C217.041 258.34 216.993 258.871 216.955 259.289C216.917 259.655 216.887 259.846 216.87 259.845C216.852 259.844 216.846 259.651 216.852 259.283C216.865 258.863 216.881 258.331 216.901 257.677C216.95 256.282 217.057 254.267 217.203 251.776C217.501 246.794 217.998 239.917 218.646 232.327C219.293 224.74 219.953 217.877 220.469 212.913C220.738 210.481 220.956 208.49 221.116 207.037C221.2 206.387 221.268 205.859 221.321 205.442C221.372 205.079 221.409 204.889 221.427 204.89Z" fill="#263238"/>
<path d="M251.334 181.685C251.476 181.685 251.591 186.144 251.591 191.643C251.591 197.145 251.475 201.603 251.334 201.603C251.193 201.603 251.078 197.145 251.078 191.643C251.078 186.144 251.192 181.685 251.334 181.685Z" fill="#263238"/>
<path d="M243.432 214.77C243.611 216.802 244.525 218.635 245.664 220.051C246.804 221.468 249.122 222.854 250.988 222.752C250.988 222.752 255.645 223.132 258.152 219.316C260.422 215.859 260.983 208.67 259.161 204.418C257.909 201.495 255.096 198.777 251.793 198.702C247.456 198.604 244.738 201.6 243.811 204.632" fill="#E0E0E0"/>
<path d="M243.818 204.632C243.818 204.632 243.915 203.843 244.62 202.6C244.973 201.983 245.485 201.258 246.248 200.56C247.001 199.858 248.037 199.209 249.317 198.836C249.956 198.657 250.651 198.531 251.379 198.521C252.104 198.487 252.885 198.568 253.636 198.805C255.148 199.271 256.548 200.268 257.662 201.566C258.79 202.858 259.62 204.497 260.029 206.279C260.451 208.057 260.579 209.946 260.47 211.864C260.27 214.816 259.663 217.753 257.954 219.998C257.09 221.098 255.908 221.893 254.681 222.357C253.446 222.826 252.188 223.006 250.977 222.953H251.007C250.013 222.989 249.124 222.681 248.351 222.323C247.58 221.949 246.915 221.49 246.354 220.991C245.236 219.969 244.621 218.83 244.179 217.893C243.753 216.942 243.573 216.146 243.49 215.605C243.452 215.333 243.431 215.124 243.428 214.983C243.423 214.841 243.425 214.769 243.436 214.768C243.511 214.751 243.509 215.953 244.397 217.799C244.856 218.696 245.504 219.809 246.582 220.752C247.128 221.219 247.778 221.649 248.518 221.995C249.257 222.326 250.104 222.597 250.98 222.552H250.987L251.01 222.553C253.232 222.627 255.931 221.809 257.562 219.715C259.153 217.612 259.765 214.725 259.953 211.838C260.165 208.109 259.511 204.353 257.292 201.852C256.234 200.601 254.91 199.645 253.5 199.192C252.795 198.962 252.08 198.878 251.385 198.9C250.689 198.899 250.028 199.01 249.416 199.17C248.19 199.504 247.185 200.102 246.439 200.762C245.685 201.417 245.161 202.106 244.79 202.695C244.049 203.882 243.875 204.653 243.818 204.632Z" fill="#263238"/>
<path d="M241.125 214.958C241.304 216.99 242.218 218.823 243.358 220.24C244.497 221.656 246.816 223.043 248.682 222.941C248.682 222.941 253.338 223.321 255.845 219.505C258.115 216.048 258.676 208.858 256.854 204.607C255.603 201.683 252.788 198.965 249.486 198.891C245.15 198.793 242.431 201.789 241.505 204.821" fill="#E0E0E0"/>
<path d="M241.515 204.82C241.515 204.82 241.613 204.03 242.317 202.787C242.67 202.171 243.182 201.446 243.945 200.747C244.698 200.045 245.734 199.397 247.014 199.024C247.653 198.845 248.348 198.718 249.077 198.709C249.801 198.674 250.583 198.755 251.333 198.993C252.845 199.458 254.245 200.454 255.36 201.753C256.487 203.045 257.317 204.684 257.726 206.466C258.148 208.245 258.276 210.134 258.167 212.052C257.967 215.004 257.361 217.94 255.651 220.185C254.787 221.285 253.605 222.081 252.379 222.544C251.144 223.014 249.885 223.194 248.674 223.14H248.704C247.71 223.177 246.821 222.869 246.048 222.51C245.277 222.136 244.611 221.677 244.051 221.179C242.933 220.156 242.318 219.018 241.877 218.081C241.45 217.13 241.27 216.333 241.188 215.792C241.149 215.521 241.129 215.312 241.126 215.17C241.121 215.029 241.123 214.956 241.134 214.955C241.209 214.939 241.207 216.139 242.096 217.987C242.554 218.884 243.203 219.997 244.28 220.939C244.826 221.407 245.477 221.837 246.216 222.182C246.955 222.513 247.802 222.784 248.678 222.739H248.685L248.708 222.74C250.93 222.815 253.63 221.997 255.26 219.903C256.851 217.8 257.463 214.912 257.651 212.025C257.863 208.296 257.21 204.54 254.99 202.04C253.932 200.788 252.608 199.832 251.198 199.38C250.493 199.149 249.778 199.065 249.084 199.088C248.388 199.087 247.727 199.197 247.115 199.357C245.89 199.691 244.884 200.289 244.138 200.949C243.384 201.604 242.86 202.293 242.489 202.882C241.747 204.07 241.572 204.841 241.515 204.82Z" fill="#263238"/>
<path d="M245.309 203.76C243.153 203.35 240.927 204.765 240.015 206.676C239.104 208.587 239.306 210.842 240.027 212.827C240.394 213.837 240.901 214.82 241.669 215.598C242.436 216.375 243.491 216.933 244.609 216.965C246.25 217.012 247.724 215.943 248.679 214.666C250.219 212.607 250.742 209.883 250.069 207.436C249.619 205.801 248.362 204.127 246.594 204.081" fill="#E0E0E0"/>
<path d="M246.59 204.08C246.59 204.066 246.725 204.051 246.983 204.069C247.239 204.094 247.621 204.181 248.052 204.416C248.917 204.874 249.904 206.01 250.307 207.66C250.726 209.28 250.676 211.393 249.698 213.429C249.208 214.434 248.507 215.439 247.488 216.203C246.505 216.968 245.062 217.46 243.684 217.074C242.324 216.71 241.289 215.743 240.645 214.699C239.994 213.643 239.617 212.528 239.38 211.442C238.906 209.273 239.29 207.125 240.365 205.749C241.42 204.363 242.843 203.78 243.804 203.659C244.291 203.583 244.675 203.626 244.928 203.656C245.181 203.707 245.309 203.741 245.305 203.757C245.3 203.814 244.765 203.661 243.838 203.846C242.931 204.018 241.613 204.623 240.66 205.949C239.698 207.253 239.364 209.277 239.843 211.351C240.081 212.385 240.461 213.469 241.076 214.449C241.682 215.423 242.628 216.28 243.822 216.6C245.012 216.932 246.26 216.523 247.18 215.823C248.12 215.128 248.793 214.188 249.271 213.237C250.223 211.314 250.312 209.299 249.954 207.737C249.617 206.159 248.727 205.055 247.948 204.578C247.155 204.088 246.578 204.138 246.59 204.08Z" fill="#263238"/>
<path d="M250.283 219.254C250.205 219.272 250.096 218.958 249.758 218.579C249.428 218.199 248.835 217.775 248.076 217.548C247.31 217.32 246.555 217.283 246.006 217.24C245.456 217.202 245.107 217.159 245.105 217.09C245.104 217.024 245.442 216.943 246.003 216.893C246.56 216.847 247.367 216.825 248.229 217.078C249.098 217.336 249.755 217.883 250.054 218.377C250.362 218.876 250.342 219.248 250.283 219.254Z" fill="#263238"/>
<path d="M251.054 202.48C251.1 202.522 250.903 202.817 250.443 203.164C249.989 203.51 249.251 203.877 248.365 204.032C247.48 204.183 246.654 204.086 246.101 203.914C245.544 203.742 245.252 203.532 245.279 203.478C245.332 203.341 246.642 203.849 248.275 203.549C249.912 203.284 250.955 202.37 251.054 202.48Z" fill="#263238"/>
<path d="M318.806 134.97C318.814 134.955 318.925 134.994 319.13 135.084C319.335 135.174 319.637 135.309 320.007 135.517C320.752 135.919 321.803 136.567 322.96 137.536C325.287 139.431 328.004 142.784 329.305 147.135C330.667 151.403 331.404 155.407 331.721 158.309C331.892 159.76 331.984 160.937 332.042 161.752C332.092 162.566 332.103 163.018 332.067 163.021C332.032 163.024 331.954 162.578 331.842 161.77C331.715 160.868 331.554 159.722 331.361 158.353C330.951 155.469 330.169 151.523 328.813 147.274C327.54 143.02 324.944 139.725 322.718 137.795C320.489 135.829 318.748 135.059 318.806 134.97Z" fill="#263238"/>
<path d="M306.521 238.714C309.378 238.609 311.661 235.885 314.516 236.032C316.635 236.14 318.442 238.124 318.262 240.145C318.084 242.165 315.953 243.831 313.846 243.597C310.846 243.264 309.092 239.902 306.148 239.257" fill="#263238"/>
<path d="M330.748 241.039C329.892 241.039 329 240.968 328.072 240.827L328.228 239.896C331.76 240.438 334.724 239.882 337.043 238.251C339.961 236.201 341.841 232.534 342.633 227.35L342.663 227.152C342.985 225.099 343.431 184.788 343.432 177.135C343.434 165.18 332.458 163.549 331.991 163.485C331.547 163.406 321.571 161.814 316.278 174.87C310.736 188.543 301.876 214.893 301.29 217.981C301.218 218.359 301.108 218.827 300.982 219.371C300.061 223.325 298.144 231.553 303.883 236.292C310.281 241.573 315.327 239.53 315.538 239.441L315.942 240.301C315.706 240.4 310.138 242.702 303.238 237.004C297.053 231.898 299.056 223.299 300.018 219.166C300.141 218.638 300.248 218.181 300.318 217.813C300.909 214.7 309.801 188.239 315.358 174.53C320.957 160.714 332.039 162.533 332.149 162.555C332.251 162.569 344.419 164.349 344.417 177.135C344.416 183.439 343.979 225.112 343.636 227.293L343.607 227.487C342.777 232.928 340.764 236.806 337.626 239.011C335.706 240.36 333.399 241.039 330.748 241.039Z" fill="#263238"/>
<path d="M343.924 184.847C343.793 184.889 343.636 182.836 341.871 180.149C340.992 178.822 339.696 177.382 337.975 176.116C336.249 174.862 334.086 173.793 331.644 173.255C326.718 172.173 322.039 173.347 319.166 174.811C316.224 176.275 314.909 177.876 314.828 177.783C314.815 177.772 314.892 177.673 315.052 177.494C315.22 177.322 315.439 177.038 315.791 176.742C316.453 176.107 317.526 175.291 318.995 174.505C320.461 173.717 322.354 173.011 324.551 172.633C326.739 172.251 329.245 172.215 331.763 172.777C334.283 173.332 336.507 174.448 338.265 175.757C340.02 177.079 341.321 178.583 342.182 179.966C343.037 181.356 343.499 182.597 343.702 183.473C343.834 183.904 343.859 184.255 343.901 184.487C343.932 184.722 343.941 184.845 343.924 184.847Z" fill="#263238"/>
<path d="M369.026 260.193C368.921 260.215 368.752 258.57 367.674 256.172C366.612 253.806 364.474 250.663 360.987 248.501C359.262 247.427 357.324 246.929 355.561 246.63C353.786 246.347 352.156 246.245 350.787 246.156C349.5 246.071 348.414 245.998 347.54 245.941C346.773 245.874 346.352 245.819 346.354 245.785C346.355 245.751 346.781 245.742 347.55 245.75C348.426 245.766 349.515 245.785 350.805 245.809C352.179 245.854 353.823 245.92 355.638 246.183C357.439 246.463 359.455 246.963 361.264 248.087C364.872 250.324 367.012 253.59 368.009 256.039C368.514 257.275 368.787 258.32 368.908 259.05C369.037 259.78 369.055 260.189 369.026 260.193Z" fill="#263238"/>
<path d="M319.293 244.465C319.293 244.465 328.986 230.427 331.463 228.588C333.941 226.749 355.097 217.616 357.575 219.085C360.053 220.553 358.528 223.74 358.528 223.74C358.528 223.74 367.487 220.739 368.439 221.922C369.392 223.105 369.582 225.109 368.439 226.749C368.439 226.749 373.394 226.021 373.394 227.478C373.394 228.936 372.822 230.758 370.536 232.398C368.249 234.038 353.377 243.506 352.183 246.119L347.366 245.84L319.293 244.465Z" fill="#B78876"/>
<path d="M347.195 240.451C347.167 240.436 347.312 240.115 347.637 239.567C347.961 239.017 348.488 238.251 349.23 237.372C350.702 235.603 353.161 233.477 356.261 231.713C359.359 229.946 362.388 228.78 364.576 227.977C365.673 227.578 366.568 227.275 367.191 227.076C367.814 226.877 368.164 226.783 368.177 226.814C368.19 226.846 367.864 227.001 367.263 227.254C366.556 227.543 365.706 227.892 364.712 228.298C362.563 229.181 359.58 230.391 356.525 232.133C353.471 233.873 351.026 235.913 349.507 237.595C347.971 239.27 347.275 240.497 347.195 240.451Z" fill="#AA6550"/>
<path d="M334.904 240.223C334.873 240.207 335.042 239.841 335.374 239.191C335.709 238.543 336.199 237.608 336.866 236.479C337.539 235.355 338.38 234.026 339.537 232.697C340.132 232.038 340.735 231.362 341.568 230.773C342.385 230.246 343.246 229.75 344.136 229.246C347.704 227.254 351.07 225.672 353.6 224.734C354.858 224.252 355.912 223.948 356.645 223.759C357.387 223.6 357.798 223.528 357.806 223.561C357.826 223.644 356.199 224.005 353.738 225.055C351.265 226.067 347.945 227.688 344.396 229.67C343.514 230.171 342.649 230.665 341.852 231.171C341.117 231.678 340.472 232.368 339.898 232.99C338.749 234.271 337.885 235.565 337.177 236.656C336.533 237.696 335.988 238.574 335.549 239.283C335.163 239.903 334.935 240.239 334.904 240.223Z" fill="#AA6550"/>
</svg>
