<svg width="41" height="40" viewBox="0 0 41 40" fill="none" xmlns="http://www.w3.org/2000/svg">
<path d="M4.44118 8.02941C6.34169 8.02941 7.88235 6.56775 7.88235 4.76471C7.88235 2.96166 6.34169 1.5 4.44118 1.5C2.54067 1.5 1 2.96166 1 4.76471C1 6.56775 2.54067 8.02941 4.44118 8.02941Z" stroke="#6C6C7D" stroke-width="2" stroke-linecap="round"/>
<path d="M4.44118 23.2647C6.34169 23.2647 7.88235 21.803 7.88235 20C7.88235 18.197 6.34169 16.7353 4.44118 16.7353C2.54067 16.7353 1 18.197 1 20C1 21.803 2.54067 23.2647 4.44118 23.2647Z" stroke="#6C6C7D" stroke-width="2" stroke-linecap="round"/>
<path d="M4.44118 38.5C6.34169 38.5 7.88235 37.0383 7.88235 35.2353C7.88235 33.4322 6.34169 31.9706 4.44118 31.9706C2.54067 31.9706 1 33.4322 1 35.2353C1 37.0383 2.54067 38.5 4.44118 38.5Z" stroke="#6C6C7D" stroke-width="2" stroke-linecap="round"/>
<path d="M36.5588 1.5H18.2059C16.3054 1.5 14.7647 2.96166 14.7647 4.76471C14.7647 6.56775 16.3054 8.02941 18.2059 8.02941H36.5588C38.4593 8.02941 40 6.56775 40 4.76471C40 2.96166 38.4593 1.5 36.5588 1.5Z" stroke="#6C6C7D" stroke-width="2" stroke-linecap="round"/>
<path d="M36.5588 16.7353H18.2059C16.3054 16.7353 14.7647 18.197 14.7647 20C14.7647 21.803 16.3054 23.2647 18.2059 23.2647H36.5588C38.4593 23.2647 40 21.803 40 20C40 18.197 38.4593 16.7353 36.5588 16.7353Z" stroke="#6C6C7D" stroke-width="2" stroke-linecap="round"/>
<path d="M36.5588 31.9706H18.2059C16.3054 31.9706 14.7647 33.4322 14.7647 35.2353C14.7647 37.0383 16.3054 38.5 18.2059 38.5H36.5588C38.4593 38.5 40 37.0383 40 35.2353C40 33.4322 38.4593 31.9706 36.5588 31.9706Z" stroke="#6C6C7D" stroke-width="2" stroke-linecap="round"/>
</svg>
