<svg width="20" height="22" viewBox="0 0 20 22" fill="none" xmlns="http://www.w3.org/2000/svg">
<path d="M15.1821 0.69278C15.2401 0.631671 15.3091 0.583188 15.385 0.550108C15.461 0.517028 15.5424 0.5 15.6246 0.5C15.7068 0.5 15.7882 0.517028 15.8641 0.550108C15.94 0.583188 16.009 0.631671 16.067 0.69278L19.8167 4.6299C19.9341 4.75312 20 4.92023 20 5.09448C20 5.26874 19.9341 5.43585 19.8167 5.55907C19.6994 5.68228 19.5402 5.7515 19.3743 5.7515C19.2083 5.7515 19.0491 5.68228 18.9318 5.55907L18.4368 5.03805L16.1958 7.39114L18.5668 9.8794C18.6842 10.0026 18.7501 10.1697 18.7501 10.344C18.7501 10.5182 18.6842 10.6854 18.5668 10.8086C18.4495 10.9318 18.2903 11.001 18.1244 11.001C17.9584 11.001 17.7992 10.9318 17.6819 10.8086L16.2495 9.30327L9.30006 16.6001C9.00979 16.9051 8.66511 17.1471 8.28571 17.3121C7.90632 17.4772 7.49966 17.5621 7.08898 17.562H4.63417L1.06821 21.3076C0.950856 21.4308 0.791697 21.5 0.62574 21.5C0.459783 21.5 0.300624 21.4308 0.183275 21.3076C0.0659259 21.1843 2.47295e-09 21.0172 0 20.843C-2.47295e-09 20.6687 0.0659259 20.5016 0.183275 20.3784L3.75049 16.6342V14.0554C3.75067 13.1856 4.07976 12.3515 4.66542 11.7364L5.36537 11.0002L6.43278 12.1209C6.55013 12.2442 6.70929 12.3134 6.87525 12.3134C7.0412 12.3134 7.20036 12.2442 7.31771 12.1209C7.43506 11.9977 7.50099 11.8306 7.50099 11.6564C7.50099 11.4821 7.43506 11.315 7.31771 11.1918L6.2503 10.0723L7.24147 9.03161L8.30763 10.1524C8.42498 10.2756 8.58414 10.3448 8.7501 10.3448C8.91606 10.3448 9.07522 10.2756 9.19256 10.1524C9.30991 10.0292 9.37584 9.86205 9.37584 9.6878C9.37584 9.51355 9.30991 9.34643 9.19256 9.22322L8.12515 8.10376L9.11632 7.06305L10.1825 8.18382C10.2998 8.30703 10.459 8.37625 10.625 8.37625C10.7909 8.37625 10.9501 8.30703 11.0674 8.18382C11.1848 8.0606 11.2507 7.89349 11.2507 7.71923C11.2507 7.54498 11.1848 7.37787 11.0674 7.25465L10 6.1352L11.6161 4.4383L10.1825 2.93432C10.0651 2.8111 9.99921 2.64399 9.99921 2.46974C9.99921 2.29548 10.0651 2.12837 10.1825 2.00515C10.2998 1.88194 10.459 1.81272 10.625 1.81272C10.7909 1.81272 10.9501 1.88194 11.0674 2.00515L13.4372 4.49473L15.6783 2.14164L15.1821 1.62194C15.1239 1.56099 15.0777 1.48858 15.0462 1.40886C15.0147 1.32914 14.9985 1.24367 14.9985 1.15736C14.9985 1.07105 15.0147 0.985586 15.0462 0.905865C15.0777 0.826145 15.1239 0.753734 15.1821 0.69278ZM17.5532 4.1102L16.562 3.06949L14.3209 5.42258L15.3121 6.46329L17.5532 4.1102Z" fill="#845EF1"/>
</svg>
