<svg width="27" height="29" viewBox="0 0 27 29" fill="none" xmlns="http://www.w3.org/2000/svg">
<path d="M26 11.8H1M19.0556 1V6.4M7.94444 1V6.4M11.4167 17.2L13.5 15.85V22.6M11.7639 22.6H15.2361M7.66667 28H19.3333C21.6669 28 22.8337 28 23.725 27.5586C24.509 27.1703 25.1464 26.5507 25.5459 25.7887C26 24.9223 26 23.7882 26 21.52V10.18C26 7.91179 26 6.77768 25.5459 5.91134C25.1464 5.14928 24.509 4.52971 23.725 4.14142C22.8337 3.7 21.6669 3.7 19.3333 3.7H7.66667C5.33311 3.7 4.16634 3.7 3.27504 4.14142C2.49103 4.52971 1.85361 5.14928 1.45414 5.91134C1 6.77768 1 7.91179 1 10.18V21.52C1 23.7882 1 24.9223 1.45414 25.7887C1.85361 26.5507 2.49103 27.1703 3.27504 27.5586C4.16634 28 5.33311 28 7.66667 28Z" stroke="#845EF1" stroke-width="2" stroke-linecap="round" stroke-linejoin="round"/>
</svg>
