<svg width="393" height="439" viewBox="0 0 393 439" fill="none" xmlns="http://www.w3.org/2000/svg">
<path d="M291.887 355.807C258.768 372.459 223.115 381.988 187.174 383.794C160.755 385.121 131.111 380.49 114.378 356.205C104.654 342.091 99.9335 322.161 86.41 313.501C72.7679 304.765 55.9326 311.207 40.5623 308.803C24.5757 306.304 10.054 293.268 3.6837 275.699C-2.68661 258.129 -0.675192 236.663 8.79152 221.181C30.957 184.932 84.6778 186.574 99.2713 145.277C105.691 127.111 101.893 106.278 104.53 86.8319C107.942 61.6657 122.324 39.8254 140.315 25.8822C158.306 11.939 179.634 5.1572 200.938 1.79707C229.039 -2.63581 260.673 -0.0740154 281.022 23.3346C293.583 37.784 300.581 58.8828 315.351 70.0111C322.724 75.5664 331.387 78.0891 339.425 82.1471C369.722 97.4445 389.66 135.272 392.579 174.173C395.498 213.074 382.991 252.187 362.737 282.981C342.484 313.773 317.713 342.821 291.887 355.807Z" fill="#C6C9FF"/>
<path d="M177.926 393.614C176.403 395.137 174.88 396.66 173.357 398.183C172.878 398.662 172.165 398.957 171.487 398.957C170.839 398.957 170.064 398.669 169.617 398.183C169.155 397.679 168.811 397.017 168.843 396.313C168.875 395.612 169.112 394.95 169.617 394.443C171.14 392.92 172.663 391.397 174.186 389.874C174.665 389.395 175.378 389.1 176.056 389.1C176.705 389.1 177.48 389.387 177.926 389.874C178.388 390.377 178.732 391.039 178.7 391.744C178.669 392.445 178.432 393.108 177.926 393.614Z" fill="#FAFAFA"/>
<path d="M161.344 324.753C161.344 324.905 163.635 325.028 166.461 325.028C169.287 325.028 171.578 324.904 171.578 324.753C171.578 324.6 169.287 324.478 166.461 324.478C163.635 324.476 161.344 324.6 161.344 324.753Z" fill="#455A64"/>
<path d="M68.7278 163.492C71.0674 156.418 66.8449 131.05 72.4022 131.002C79.4852 130.942 77.4496 159.682 77.4646 162.252C77.4796 164.748 81.1949 164.792 81.0558 162.475C80.8581 159.146 79.751 126.35 86.8408 126.927C90.7715 127.246 90.2766 134.405 90.2766 134.405C90.2766 134.405 88.0774 167.205 91.4355 167.363C94.8454 167.527 95.9865 148.39 96.2633 141.659C96.5292 135.203 99.2451 132.64 102.211 134.806C105.376 137.118 104.59 156.396 104.425 162.865C104.261 169.333 103.495 187.081 110.981 178.454C118.469 169.828 127.4 165.94 130.504 166.548C133.609 167.159 133.778 171.727 130.571 173.216C127.979 174.42 124.251 177.75 121.546 180.365C119.319 182.519 117.728 185.183 116.044 187.777C114.841 189.629 112.814 193.343 111.534 198.652C110.052 204.796 105.948 209.986 100.367 212.953L100.719 224.971L66.1482 221.966L65.4856 199.226C65.1339 181.847 62.0935 170.157 60.2583 159.818C57.3338 143.333 59.4593 142.824 61.4349 142.918C65.7978 143.126 66.4441 170.397 68.7278 163.492Z" fill="#B78876"/>
<path d="M68.7299 185.8C68.7149 185.957 70.6441 185.941 73.4787 186.982C76.2819 187.991 79.974 190.296 82.45 194.165C83.1208 195.197 83.6211 196.289 84.0383 197.351L84.2442 197.876L84.6668 197.523C87.5327 195.122 90.5036 193.654 92.6796 192.819C94.8638 191.978 96.2518 191.679 96.2272 191.566C96.2149 191.489 94.7834 191.611 92.5092 192.335C90.2446 193.052 87.1415 194.468 84.1597 196.911L84.7882 197.083C84.3628 195.961 83.8406 194.81 83.1371 193.726C81.8487 191.712 80.1962 190.098 78.5315 188.888C76.8504 187.69 75.1434 186.913 73.6668 186.438C72.1889 185.946 70.9264 185.825 70.0715 185.743C69.2057 185.721 68.7313 185.747 68.7299 185.8Z" fill="#AA6550"/>
<path d="M73.5345 210.105C73.4527 210.291 77.1039 211.858 81.929 212.447C86.7528 213.063 90.6767 212.443 90.6426 212.241C90.6235 211.996 86.746 212.242 82.0299 211.638C77.3112 211.064 73.6122 209.871 73.5345 210.105Z" fill="#AA6550"/>
<path d="M166.309 211.14C166.309 211.14 148.295 220.343 138.813 233.601C129.332 246.859 100.724 287.947 100.724 287.947L104.766 225.583L60.5658 219.858C60.5658 219.858 47.7006 282.67 44.6956 304.387C41.8829 324.718 43.0568 344.714 62.904 355.624C86.3288 368.5 112.929 351.115 121.772 344.515C132.76 336.315 153.047 322.954 153.047 322.954L166.309 211.14Z" fill="#E0E0E0"/>
<path d="M188.516 203.363L201.125 189.271L256.256 185.042L263.401 196.591L244.078 317.182L252.779 438.98H180.95L188.516 203.363Z" fill="#845EF1"/>
<g opacity="0.3">
<path d="M249.442 410.012C247.548 407.988 244.438 405.204 241.666 405.143C221.822 404.707 201.55 402.721 181.706 402.285L180.944 438.98L190.606 434.462C191.153 430.295 191.852 425.315 195.656 423.53C197.809 422.52 200.329 422.915 202.662 423.376C209.829 424.794 216.95 426.645 224.243 427.098C231.536 427.552 239.168 426.488 245.293 422.505C247.395 421.137 249.342 419.37 250.328 417.066C251.319 414.759 251.156 411.843 249.442 410.012Z" fill="black"/>
</g>
<path d="M201.123 189.272L165.81 212.127L158.35 236.642L151.199 313.066L159.073 391.294L145.467 438.981H180.949L181.021 420.166L184.801 287.728L188.514 203.364L201.123 189.272Z" fill="#E0E0E0"/>
<path d="M182.113 305.988C182.092 306 181.891 305.661 181.525 305.002C181.137 304.287 180.613 303.32 179.953 302.102C179.299 300.829 178.665 299.191 177.844 297.328C177.456 296.387 177.137 295.345 176.745 294.259C176.368 293.168 175.945 292.021 175.629 290.779C172.652 280.967 170.683 266.791 171.098 251.16C171.139 249.949 171.185 248.752 171.268 247.559L171.282 247.352L171.476 247.27C173.356 246.481 175.203 245.705 177.008 244.945L176.928 245.518C175.029 243.991 173.183 242.508 171.403 241.077L171.287 240.985L171.282 240.848C171.023 234.957 172.455 229.657 173.799 225.042C175.19 220.418 176.714 216.432 178.046 213.159C179.385 209.885 180.546 207.325 181.378 205.584C181.794 204.714 182.122 204.047 182.354 203.601C182.585 203.155 182.717 202.929 182.733 202.937C182.751 202.945 182.653 203.188 182.455 203.65C182.233 204.162 181.943 204.832 181.576 205.675C180.808 207.441 179.707 210.024 178.424 213.31C177.147 216.597 175.675 220.588 174.331 225.199C173.03 229.794 171.654 235.087 171.93 240.795L171.808 240.567C173.592 241.992 175.442 243.47 177.346 244.992L177.788 245.345L177.266 245.564C175.461 246.326 173.616 247.105 171.736 247.897L171.943 247.609C171.863 248.779 171.818 249.976 171.777 251.179C171.365 266.74 173.248 280.855 176.089 290.644C176.389 291.885 176.794 293.029 177.154 294.12C177.526 295.205 177.826 296.248 178.197 297.19C178.98 299.055 179.576 300.701 180.191 301.986C180.8 303.224 181.284 304.206 181.643 304.934C181.971 305.615 182.133 305.976 182.113 305.988Z" fill="#263238"/>
<path d="M157.311 355.749C157.288 355.754 157.183 355.4 157.006 354.721C156.82 353.978 156.571 352.985 156.26 351.739C155.933 350.445 155.558 348.855 155.192 346.994C154.819 345.136 154.343 343.028 153.969 340.67C153.556 338.318 153.116 335.741 152.761 332.954C152.339 330.178 152.05 327.191 151.714 324.051C151.147 317.763 150.765 310.824 150.759 303.537C150.793 296.245 151.199 289.308 151.791 283.022C152.138 279.883 152.438 276.897 152.87 274.123C153.236 271.339 153.684 268.762 154.107 266.413C154.49 264.055 154.973 261.95 155.355 260.093C155.725 258.233 156.107 256.646 156.44 255.353C156.756 254.108 157.008 253.117 157.198 252.375C157.378 251.696 157.484 251.343 157.507 251.348C157.531 251.354 157.469 251.719 157.332 252.408C157.175 253.156 156.963 254.157 156.699 255.413C156.407 256.713 156.065 258.307 155.73 260.169C155.386 262.031 154.936 264.138 154.584 266.496C154.193 268.845 153.772 271.42 153.432 274.2C153.025 276.972 152.746 279.951 152.418 283.083C151.863 289.355 151.476 296.271 151.442 303.54C151.448 310.805 151.81 317.722 152.341 323.995C152.659 327.127 152.926 330.107 153.323 332.88C153.652 335.662 154.063 338.239 154.447 340.589C154.789 342.946 155.231 345.057 155.569 346.919C155.897 348.785 156.234 350.378 156.52 351.68C156.779 352.937 156.987 353.938 157.142 354.688C157.274 355.378 157.334 355.742 157.311 355.749Z" fill="#263238"/>
<path d="M165.863 419.714C165.938 419.754 165.405 420.996 164.328 422.895C163.254 424.793 161.597 427.328 159.485 429.91C157.369 432.49 155.21 434.612 153.56 436.04C151.91 437.47 150.798 438.236 150.744 438.171C150.679 438.09 151.681 437.193 153.233 435.685C154.786 434.179 156.865 432.029 158.958 429.478C161.045 426.925 162.744 424.465 163.916 422.644C165.089 420.826 165.772 419.665 165.863 419.714Z" fill="#263238"/>
<g opacity="0.3">
<path d="M183.489 355.718C187.225 353.771 191.795 354.787 195.723 356.307C199.651 357.827 203.563 359.846 207.774 359.807C213.49 359.754 221.602 357.669 224.595 352.799C227.587 347.929 230.622 340.49 231.837 334.904C236.394 313.939 237.426 295.553 241.982 274.59C244.462 263.179 247.608 249.977 251.842 239.096C255.943 228.559 259.739 217.651 262.958 206.812C262.394 231.403 261.821 256.08 258.021 280.383C255.578 296.01 251.808 311.421 249.754 327.104C247.995 340.536 247.504 354.098 247.014 367.637L234.234 383.26L199.017 383.976L180.623 360.253L183.489 355.718Z" fill="black"/>
</g>
<path d="M311.121 210.099C324.626 215.329 334.644 226.922 337.847 241.045C348.184 286.632 365.881 347.268 366.158 366.83C366.511 391.747 355.617 408.802 341.394 411.947C330.147 414.434 228.2 408.853 228.2 408.853L223.381 366.311L305.986 358.715L294.681 295.551L305.869 208.065L311.121 210.099Z" fill="#E0E0E0"/>
<path d="M305.874 208.067L283.048 198.74L256.958 184.641L256.719 185.398C259.664 190.444 262.794 199.755 261.694 205.493L241.67 309.961L246.213 386.284L252.777 438.982H318.536L294.685 382.86L306.419 277.454L305.874 208.067Z" fill="#E0E0E0"/>
<path d="M294.026 289.172C294.049 289.172 294.111 289.416 294.203 289.874C294.31 290.411 294.441 291.081 294.601 291.896C294.942 293.754 295.404 296.279 295.968 299.358C297.081 305.755 298.592 314.429 300.262 324.013C301.862 333.612 303.31 342.297 304.377 348.703C304.86 351.795 305.256 354.331 305.548 356.197C305.663 357.022 305.757 357.697 305.833 358.241C305.89 358.71 305.91 358.957 305.886 358.961C305.863 358.965 305.799 358.725 305.697 358.264C305.588 357.727 305.451 357.059 305.286 356.242C304.942 354.385 304.473 351.862 303.901 348.784C302.761 342.481 301.233 333.765 299.589 324.128C297.946 314.495 296.499 305.766 295.492 299.44C295.016 296.346 294.626 293.809 294.34 291.941C294.229 291.115 294.141 290.437 294.068 289.893C294.017 289.417 294.003 289.172 294.026 289.172Z" fill="#263238"/>
<path d="M269.48 191.997C269.491 191.994 269.521 192.08 269.573 192.251C269.63 192.458 269.7 192.707 269.784 193.014C269.951 193.69 270.247 194.68 270.515 195.985C271.103 198.585 271.786 202.408 272.258 207.228C272.735 212.046 272.938 217.861 272.691 224.381C272.468 230.901 271.778 238.113 270.793 245.754L270.762 245.996L270.521 246.041C268.141 246.483 265.62 246.951 263.059 247.425L263.314 246.964C263.738 248.11 264.179 249.344 264.52 250.618C266.947 259.481 265.881 268.444 263.668 275.942C261.417 283.505 257.981 289.774 254.901 294.828C251.787 299.881 248.971 303.768 247.034 306.457C246.076 307.756 245.321 308.782 244.771 309.527C244.526 309.846 244.327 310.105 244.166 310.314C244.027 310.489 243.95 310.576 243.941 310.569C243.931 310.562 243.989 310.463 244.109 310.275C244.254 310.055 244.436 309.784 244.658 309.448C245.182 308.685 245.903 307.635 246.816 306.304C248.683 303.571 251.437 299.645 254.487 294.579C257.504 289.514 260.87 283.257 263.063 275.767C265.221 268.336 266.242 259.493 263.86 250.801C263.526 249.55 263.093 248.342 262.678 247.217L262.535 246.83L262.933 246.756C265.495 246.284 268.017 245.819 270.397 245.382L270.124 245.668C271.121 238.042 271.836 230.854 272.098 224.359C272.384 217.865 272.232 212.073 271.816 207.269C271.405 202.463 270.792 198.642 270.279 196.036C270.046 194.727 269.791 193.73 269.663 193.046C269.602 192.735 269.553 192.48 269.512 192.268C269.482 192.09 269.471 192 269.48 191.997Z" fill="#263238"/>
<path d="M269.48 299.152V282.485C269.48 282.485 269.697 278.373 266.233 279.239C262.77 280.105 263.419 286.597 263.419 286.597C263.419 286.597 262.77 311.92 264.285 311.705C265.8 311.488 266.382 309.539 266.382 309.539V299.799L269.48 299.152Z" fill="#845EF1"/>
<path d="M283.882 300.19C283.882 300.378 279.884 300.531 274.954 300.531C270.023 300.531 266.025 300.378 266.025 300.19C266.025 300.002 270.023 299.848 274.954 299.848C279.884 299.848 283.882 300.002 283.882 300.19Z" fill="#263238"/>
<path d="M316.864 219.988C316.877 220.038 316.204 220.265 314.996 220.679C313.798 221.121 312.07 221.782 310.044 222.822C306.007 224.876 300.737 228.605 296.648 234.237C295.611 235.628 294.736 237.082 294.014 238.526C293.346 240.006 292.802 241.485 292.43 242.94C291.639 245.838 291.3 248.545 291.101 250.815C290.907 253.089 290.869 254.94 290.854 256.218C290.84 257.497 290.854 258.206 290.806 258.208C290.76 258.213 290.656 257.506 290.588 256.223C290.521 254.94 290.485 253.078 290.619 250.779C290.759 248.485 291.05 245.741 291.822 242.777C292.185 241.291 292.729 239.77 293.409 238.24C294.152 236.731 295.041 235.249 296.096 233.833C300.266 228.091 305.685 224.355 309.829 222.389C311.911 221.391 313.682 220.792 314.914 220.426C316.156 220.086 316.853 219.947 316.864 219.988Z" fill="#263238"/>
<path d="M228.206 408.854C228.224 408.853 228.21 408.579 228.168 408.052C228.115 407.478 228.045 406.708 227.955 405.733C227.741 403.653 227.438 400.703 227.057 396.995C226.233 389.448 225.075 378.825 223.707 366.276L223.413 366.633C232.681 365.848 243.104 364.964 254.094 364.033C274.322 362.252 292.629 360.641 305.944 359.468C312.573 358.811 317.848 360.777 321.088 362.456C322.731 363.316 323.911 364.152 324.707 364.716C325.07 364.993 325.36 365.215 325.592 365.391C325.794 365.541 325.901 365.613 325.909 365.605C325.909 365.605 324.489 364.058 321.219 362.212C317.987 360.442 312.657 358.364 305.9 358.967C292.579 360.086 274.265 361.624 254.028 363.324C243.041 364.279 232.621 365.184 223.358 365.988L223.026 366.017L223.064 366.345C224.537 378.882 225.784 389.496 226.669 397.036C227.127 400.736 227.491 403.678 227.748 405.754C227.879 406.724 227.982 407.489 228.06 408.062C228.14 408.587 228.188 408.857 228.206 408.854Z" fill="#263238"/>
<path d="M250.388 409.989C250.437 409.993 250.521 409.353 250.632 408.192C250.749 407.031 250.858 405.347 250.94 403.266C251.108 399.1 251.072 393.328 250.513 386.985C249.947 380.641 248.967 374.952 248.069 370.88C247.621 368.845 247.218 367.206 246.899 366.085C246.585 364.963 246.39 364.348 246.342 364.361C246.295 364.373 246.4 365.01 246.63 366.149C246.881 367.428 247.197 369.048 247.576 370.98C248.345 375.062 249.241 380.735 249.806 387.048C250.36 393.359 250.475 399.1 250.437 403.253C250.404 405.222 250.377 406.873 250.355 408.175C250.329 409.341 250.339 409.986 250.388 409.989Z" fill="#263238"/>
<path d="M238.697 396.65C238.705 396.615 238.356 396.473 237.684 396.479C237.023 396.484 236.016 396.694 235.033 397.425C234.065 398.12 233.115 399.501 233.231 401.186C233.311 402.809 234.32 404.625 236.15 405.357C237.999 406.046 239.974 405.364 241.103 404.187C242.306 402.988 242.441 401.282 242.09 400.142C241.755 398.959 241.06 398.187 240.517 397.807C239.966 397.417 239.591 397.347 239.58 397.381C239.553 397.437 239.882 397.594 240.341 398.021C240.795 398.438 241.364 399.19 241.604 400.265C241.855 401.316 241.68 402.738 240.638 403.729C239.654 404.718 237.922 405.271 236.406 404.696C234.896 404.101 233.981 402.542 233.884 401.146C233.75 399.714 234.504 398.506 235.344 397.82C236.191 397.113 237.092 396.841 237.706 396.755C238.329 396.664 238.689 396.71 238.697 396.65Z" fill="#263238"/>
<path d="M256.668 184.279C256.668 184.279 256.81 184.376 257.101 184.545C257.412 184.722 257.843 184.968 258.406 185.29C259.583 185.947 261.294 186.904 263.52 188.147C268.028 190.641 274.602 194.279 282.96 198.902L282.968 198.906L282.979 198.91C292.014 202.695 303.057 207.32 315.731 212.629C322.129 215.075 328.014 219.853 332.216 226.253C334.359 229.427 336.078 232.997 337.423 236.786C338.77 240.569 339.771 244.606 340.253 248.751L340.256 248.78L340.26 248.797C346.316 274.708 353.193 304.442 359.85 336.034C361.28 342.829 362.636 349.556 363.898 356.198C364.228 357.855 364.506 359.516 364.806 361.166C365.095 362.817 365.419 364.461 365.624 366.1C366.071 369.376 366.284 372.668 366.124 375.919C365.845 382.415 364.418 388.767 361.792 394.443C360.478 397.274 358.865 399.94 356.917 402.281C354.944 404.601 352.626 406.58 350.079 408.116C344.979 411.226 339.082 412.497 333.425 412.2C327.726 412.084 322.193 411.972 316.843 411.864C306.145 411.598 296.181 411.288 287.084 410.981C268.907 410.317 254.195 409.778 244 409.406C238.928 409.214 234.987 409.065 232.287 408.963C230.963 408.919 229.949 408.885 229.24 408.861C228.554 408.842 228.201 408.85 228.201 408.85C228.201 408.85 228.552 408.891 229.237 408.933C229.945 408.973 230.958 409.03 232.282 409.105C234.98 409.238 238.92 409.432 243.989 409.682C254.158 410.155 268.874 410.806 287.066 411.481C296.162 411.819 306.127 412.16 316.828 412.452C322.18 412.572 327.715 412.696 333.416 412.823C339.131 413.136 345.209 411.849 350.419 408.674C353.028 407.105 355.405 405.083 357.427 402.709C359.426 400.312 361.068 397.602 362.409 394.725C365.084 388.96 366.532 382.525 366.821 375.945C366.983 372.651 366.772 369.319 366.32 366.002C366.113 364.334 365.79 362.697 365.501 361.042C365.202 359.389 364.923 357.725 364.594 356.065C363.334 349.416 361.978 342.685 360.548 335.887C353.887 304.281 346.984 274.554 340.88 248.649L340.887 248.695C340.385 244.454 339.37 240.41 338 236.578C336.633 232.75 334.885 229.141 332.704 225.927C328.437 219.451 322.409 214.591 315.934 212.143C303.235 206.887 292.172 202.309 283.119 198.562L283.139 198.572C274.745 194.015 268.142 190.43 263.614 187.971C261.369 186.765 259.641 185.836 258.455 185.198C257.881 184.896 257.442 184.664 257.126 184.497C256.826 184.346 256.668 184.279 256.668 184.279Z" fill="#263238"/>
<path d="M142.267 293.827H173.432V303.544H142.267V293.827Z" fill="#263238"/>
<path d="M26.9991 311.708L130.696 422.315L231.833 422.936L234.23 418.343L134.542 310.327L26.9991 311.708Z" fill="#263238"/>
<path d="M125.005 310.326C125.005 310.326 118.268 310.28 116.274 312.676C113.933 315.488 109.473 321.805 119.239 337.919C123.141 344.359 142.269 366.596 150.135 389.279C157.491 410.486 154.134 417.499 154.134 417.499L81.1604 415.223L79.7384 412.587C79.7384 412.587 48.0117 326.632 56.4199 310.326C60.2892 302.825 125.522 307.574 125.005 310.326Z" fill="#E0E0E0"/>
<path d="M69.0293 412.989L147.533 413.642C148.468 393.756 141.57 379.327 131.303 362.269C127.371 355.734 122.006 350.15 118.089 343.605C113.984 336.744 111.553 328.891 111.063 320.911C110.868 317.723 111.061 314.271 113.024 311.753C114.987 309.234 121.979 309.09 124.999 310.327C124.999 310.327 120.448 306.65 113.445 306.066C107.098 305.537 55.2138 305.893 45.554 305.964C44.4237 305.972 39.6722 306.561 38.6688 307.081C31.6363 310.729 30.1897 320.31 31.1836 327.205C32.1271 333.748 36.1765 339.906 41.2661 346.798C42.7277 348.778 44.0815 350.834 45.3113 352.965C50.6709 362.253 65.4625 388.287 68.1212 397.273C70.3177 404.702 69.0293 412.989 69.0293 412.989Z" fill="#FAFAFA"/>
<path d="M69.028 412.819C75.3297 412.872 81.6328 412.924 87.9345 412.977C99.9693 413.076 112.004 413.177 124.039 413.277C129.09 413.319 134.141 413.361 139.192 413.403C140.884 413.417 142.576 413.432 144.268 413.446C145.1 413.453 146.291 413.684 147.101 413.469C147.173 413.45 147.477 413.528 147.529 413.473C147.542 413.459 147.42 412.017 147.424 411.851C147.441 411.166 147.447 410.48 147.445 409.795C147.439 408.46 147.398 407.125 147.318 405.792C147.01 400.68 146.11 395.62 144.669 390.707C141.763 380.804 136.754 371.675 131.466 362.87C128.563 358.037 124.965 353.715 121.637 349.179C118.475 344.869 115.777 340.304 113.922 335.277C112.108 330.361 110.987 325.087 110.844 319.839C110.751 316.451 111.242 311.82 114.799 310.304C116.389 309.626 118.2 309.421 119.913 309.4C121.079 309.385 123.765 309.259 124.758 310.053C125.038 310.278 124.888 310.355 124.688 310.304C124.552 310.268 124.335 310.053 124.223 309.978C123.69 309.616 123.135 309.288 122.569 308.98C120.669 307.946 118.619 307.183 116.509 306.708C112.281 305.759 107.701 306.037 103.398 306.001C89.9428 305.883 76.4859 305.957 63.0303 306.025C57.8535 306.051 52.6766 306.082 47.4984 306.119C45.0456 306.137 42.6324 306.314 40.2205 306.816C36.1084 307.672 33.4266 311.799 32.2104 315.551C30.9125 319.558 30.7189 324.058 31.5206 328.187C32.5554 333.521 35.4867 338.299 38.5353 342.706C41.2907 346.69 44.1144 350.534 46.529 354.741C48.2046 357.66 49.8652 360.589 51.5082 363.526C55.4498 370.57 59.3273 377.66 62.9227 384.889C66.0122 391.102 69.0062 397.24 69.4766 404.277C69.6702 407.174 69.6265 410.154 69.1889 413.031C69.1562 413.248 68.8276 413.155 68.8603 412.941C69.9497 405.772 68.8235 398.653 65.9331 392.062C62.8545 385.039 59.1965 378.26 55.5343 371.529C52.1981 365.396 48.78 359.305 45.2828 353.262C40.1932 344.468 32.01 336.797 30.8852 326.209C30.1831 319.599 31.7101 309.91 38.658 306.896C40.8449 305.947 43.8008 305.807 46.1677 305.787C48.056 305.77 49.9443 305.759 51.8327 305.747C65.0496 305.661 78.2679 305.596 91.4861 305.608C97.1825 305.613 102.882 305.619 108.577 305.722C113.753 305.817 118.699 306.321 123.303 309C123.927 309.363 124.548 309.751 125.113 310.201C125.244 310.306 125.102 310.545 124.947 310.486C122.128 309.413 118.464 309.426 115.608 310.361C111.477 311.713 111.033 316.631 111.198 320.372C111.594 329.32 114.603 338.089 119.511 345.551C121.941 349.244 124.748 352.663 127.381 356.21C129.884 359.583 132.057 363.136 134.157 366.769C138.002 373.425 141.555 380.298 144.035 387.591C146.894 395.997 148.079 404.772 147.696 413.635C147.692 413.727 147.621 413.807 147.525 413.806C138.683 413.732 129.84 413.658 120.999 413.585C106.906 413.468 92.8127 413.35 78.7205 413.233C75.4879 413.206 72.2552 413.18 69.0212 413.153C68.8085 413.157 68.8085 412.816 69.028 412.819Z" fill="#263238"/>
<path d="M73.671 396.597C73.671 396.793 87.5151 396.951 104.59 396.951C121.671 396.951 135.513 396.792 135.513 396.597C135.513 396.4 121.671 396.242 104.59 396.242C87.5151 396.242 73.671 396.4 73.671 396.597Z" fill="#263238"/>
<path d="M71.9391 386.259C71.9391 386.455 85.7845 386.613 102.859 386.613C119.939 386.613 133.781 386.454 133.781 386.259C133.781 386.062 119.939 385.904 102.859 385.904C85.7845 385.904 71.9391 386.064 71.9391 386.259Z" fill="#263238"/>
<path d="M63.6295 375.157C63.6295 375.354 77.4736 375.512 94.549 375.512C111.63 375.512 125.471 375.352 125.471 375.157C125.471 374.961 111.63 374.803 94.549 374.803C77.4736 374.803 63.6295 374.961 63.6295 375.157Z" fill="#263238"/>
<path d="M58.5084 365.02C58.5084 365.216 72.3525 365.374 89.4279 365.374C106.509 365.374 120.35 365.215 120.35 365.02C120.35 364.825 106.509 364.665 89.4279 364.665C72.3525 364.664 58.5084 364.823 58.5084 365.02Z" fill="#263238"/>
<path d="M55.0956 355.745C55.0956 355.941 68.9397 356.1 86.0151 356.1C103.096 356.1 116.937 355.94 116.937 355.745C116.937 355.55 103.096 355.391 86.0151 355.391C68.941 355.389 55.0956 355.549 55.0956 355.745Z" fill="#263238"/>
<path d="M46.7589 343.562C46.7589 343.758 60.6044 343.916 77.6784 343.916C94.7592 343.916 108.601 343.757 108.601 343.562C108.601 343.365 94.7592 343.207 77.6784 343.207C60.603 343.207 46.7589 343.365 46.7589 343.562Z" fill="#263238"/>
<path d="M38.7936 331.902C38.7936 332.099 52.6377 332.257 69.7131 332.257C86.7939 332.257 100.635 332.099 100.635 331.902C100.635 331.706 86.7939 331.548 69.7131 331.548C52.6377 331.548 38.7936 331.707 38.7936 331.902Z" fill="#263238"/>
<path d="M39.3644 320.811C39.3644 321.007 53.2098 321.166 70.2839 321.166C87.3647 321.166 101.206 321.006 101.206 320.811C101.206 320.615 87.3647 320.457 70.2839 320.457C53.2085 320.457 39.3644 320.615 39.3644 320.811Z" fill="#263238"/>
<path d="M134.547 310.327C134.537 310.317 134.393 310.42 134.117 310.633C133.81 310.876 133.408 311.195 132.898 311.598C131.795 312.497 130.226 313.774 128.2 315.423L128.074 315.525L128.186 315.647C136.633 324.876 154.923 344.605 176.148 367.362C190.802 383.415 204.908 397.165 215.115 407.081C220.226 412.035 224.393 416.015 227.287 418.749C228.712 420.082 229.833 421.131 230.636 421.881C231 422.21 231.292 422.474 231.521 422.681C231.722 422.858 231.83 422.944 231.838 422.936C231.847 422.928 231.757 422.823 231.57 422.629C231.353 422.41 231.079 422.129 230.734 421.778C229.954 421.005 228.865 419.925 227.478 418.551C224.605 415.722 220.51 411.69 215.465 406.724C205.343 396.709 191.319 382.929 176.666 366.879C155.441 344.122 137.032 324.506 128.413 315.438L128.399 315.663C130.384 313.964 131.921 312.648 133.002 311.724C133.491 311.294 133.876 310.955 134.17 310.697C134.429 310.462 134.556 310.338 134.547 310.327Z" fill="#455A64"/>
<path d="M223.489 371.202L208.691 371.195C208.691 371.195 198.683 362.474 196.407 361.795C191.647 360.375 179.352 358.875 179.352 358.875L187.749 367.974C189.69 370.077 193.269 371.973 191.146 371.973C189.023 371.973 175.751 371.973 175.751 371.973C175.751 371.973 159.997 364.416 157.656 365.798C155.69 366.96 155.006 369.054 157.018 371.973C159.031 374.892 172.832 381.794 174.425 382.324L178.936 383.651L174.689 384.978L154.613 377.963C153.31 377.731 151.51 377.514 150.922 378.27C150.112 379.31 149.623 380.691 151.027 382.151C153.511 384.735 160.112 389.293 160.112 389.293C160.112 389.293 156.906 394.001 159.561 396.389C162.215 398.778 169.912 405.944 169.912 405.944C169.912 405.944 170.708 409.925 173.097 411.784C175.486 413.642 201.763 413.642 203.62 413.642C205.478 413.642 216.095 407.538 216.095 407.538L227.621 406.69L223.489 371.202Z" fill="#B78876"/>
<path d="M177.711 396.884C177.717 396.947 176.646 397.237 174.837 397.271C173.937 397.278 172.828 397.149 171.695 396.722C170.56 396.306 169.416 395.641 168.276 394.9C166 393.421 163.965 392.052 162.504 391.037C161.046 390.021 160.168 389.355 160.214 389.285C160.26 389.214 161.223 389.748 162.742 390.671C164.261 391.593 166.337 392.906 168.609 394.382C169.74 395.116 170.834 395.77 171.898 396.192C172.958 396.624 173.978 396.786 174.85 396.837C176.595 396.914 177.702 396.779 177.711 396.884Z" fill="#AA6550"/>
<path d="M178.915 406.716C178.966 406.751 178.341 407.477 176.921 407.836C175.542 408.204 173.387 408.055 171.504 406.926C169.61 405.875 168.125 404.609 167.104 403.653C166.091 402.683 165.551 402.005 165.607 401.949C165.746 401.789 168.159 404.311 171.798 406.387C173.591 407.457 175.511 407.638 176.832 407.41C178.164 407.19 178.855 406.626 178.915 406.716Z" fill="#AA6550"/>
<path d="M186.359 384.969C186.347 385.133 184.464 385.116 182.199 384.646C179.933 384.181 178.198 383.451 178.252 383.295C178.307 383.128 180.1 383.586 182.325 384.042C184.547 384.505 186.374 384.794 186.359 384.969Z" fill="#AA6550"/>
<path d="M286.8 89.6883C290.668 82.8003 297.373 77.5648 304.993 75.4815C312.613 73.3982 321.05 74.4958 327.884 78.4578C333.768 81.8691 338.66 88.0304 338.265 94.8215C337.892 101.224 333.123 106.391 328.628 110.964C335.787 113.947 339.376 123.025 337.036 130.42C334.697 137.815 327.303 143.026 319.579 143.741C311.855 144.455 304.08 141.093 298.508 135.699C292.935 130.306 289.412 123.054 287.487 115.541" fill="#263238"/>
<path d="M311.289 106.214C311.289 106.214 312.602 106.893 315.217 107.204C317.795 107.526 321.784 107.212 325.959 104.969C328.015 103.838 330.139 102.261 331.843 100.053C333.574 97.8699 334.863 95.0967 335.42 92.014C336.555 85.9059 334.872 78.4699 329.796 73.2262C324.721 67.9852 317.569 65.8556 311.387 66.1269C305.141 66.3846 299.711 68.9123 296.417 72.3004C293.046 75.7008 292.06 79.6997 291.996 82.2806C291.97 83.5963 292.123 84.6134 292.291 85.2815C292.358 85.6196 292.456 85.8664 292.505 86.0354C292.561 86.2031 292.595 86.2863 292.606 86.2836C292.704 86.2686 292.144 84.8793 292.272 82.2929C292.418 79.7665 293.458 75.9025 296.771 72.6549C300.009 69.4113 305.326 66.9954 311.409 66.7799C317.434 66.5495 324.382 68.6519 329.282 73.717C334.18 78.7698 335.84 85.9809 334.772 91.8954C334.25 94.8813 333.027 97.5658 331.376 99.6887C329.749 101.841 327.701 103.397 325.714 104.527C321.674 106.77 317.783 107.16 315.24 106.927C312.664 106.709 311.315 106.12 311.289 106.214Z" fill="#263238"/>
<path d="M302.493 112.153C302.469 112.196 302.799 112.41 303.421 112.764C304.036 113.129 304.982 113.56 306.185 113.996C307.386 114.443 308.873 114.821 310.55 115.088C312.231 115.321 314.105 115.424 316.063 115.287C318.019 115.126 319.857 114.743 321.483 114.261C323.102 113.744 324.514 113.147 325.635 112.524C326.759 111.911 327.63 111.343 328.182 110.889C328.744 110.446 329.038 110.185 329.008 110.146C328.93 110.04 327.671 110.987 325.409 112.075C324.283 112.629 322.885 113.163 321.298 113.632C319.703 114.068 317.914 114.422 316.009 114.578C314.105 114.711 312.283 114.63 310.64 114.439C309.001 114.214 307.54 113.897 306.343 113.519C303.942 112.783 302.554 112.037 302.493 112.153Z" fill="#455A64"/>
<path d="M338.288 95.9578C338.326 95.9441 338.183 95.3442 337.739 94.3216C337.28 93.3263 336.494 91.8171 334.848 90.5873C333.209 89.3465 330.832 88.6458 328.212 88.3567C325.573 88.0718 322.663 88.2913 319.671 88.7589C313.661 89.7133 308.518 91.8648 305.066 93.7981C303.331 94.7634 302.002 95.6632 301.104 96.3122C300.216 96.9749 299.748 97.3702 299.776 97.4084C299.806 97.4507 300.328 97.1303 301.258 96.5413C302.197 95.9673 303.556 95.1397 305.302 94.2412C308.778 92.4415 313.868 90.4005 319.782 89.4611C322.732 89.0002 325.586 88.7671 328.147 89.0084C330.694 89.2538 332.991 89.8837 334.554 90.9949C336.135 92.0965 336.966 93.5009 337.489 94.443C338.002 95.4096 338.234 95.9782 338.288 95.9578Z" fill="#455A64"/>
<path d="M296.647 123.312C296.627 123.324 296.696 123.482 296.849 123.772C296.996 124.066 297.246 124.478 297.584 125.003C298.267 126.042 299.378 127.484 301.02 129.007C302.659 130.525 304.863 132.094 307.593 133.273C310.32 134.436 313.571 135.182 317.003 135.138C320.435 135.114 323.68 134.345 326.377 133.078C329.072 131.799 331.159 130.012 332.549 128.244C333.941 126.46 334.597 124.707 334.832 123.478C334.952 122.861 335.007 122.379 335.002 122.048C335.012 121.72 335.006 121.548 334.981 121.546C334.899 121.54 334.893 122.234 334.564 123.413C334.252 124.591 333.548 126.247 332.157 127.929C330.768 129.595 328.719 131.281 326.098 132.485C323.488 133.673 320.322 134.405 316.996 134.428C313.666 134.47 310.509 133.767 307.846 132.669C305.181 131.557 303.001 130.071 301.354 128.632C298.049 125.725 296.773 123.217 296.647 123.312Z" fill="#455A64"/>
<path d="M294.05 130.404C294.015 130.436 294.527 131.097 295.539 132.218C296.552 133.338 298.06 134.923 300.051 136.754C301.044 137.67 302.168 138.638 303.42 139.625C304.666 140.604 306.062 141.633 307.697 142.426C310.943 144.029 314.954 144.877 319.121 144.648C323.264 144.405 327.255 143.162 330.103 140.854C332.952 138.582 334.789 135.779 335.878 133.291C336.994 130.792 337.31 128.564 337.386 127.056C337.424 126.295 337.397 125.707 337.343 125.309C337.304 124.911 337.273 124.705 337.249 124.708C337.224 124.709 337.208 124.921 337.199 125.316C337.206 125.712 337.189 126.292 337.109 127.037C336.95 128.513 336.565 130.674 335.419 133.085C334.301 135.484 332.467 138.179 329.701 140.337C326.956 142.52 323.114 143.699 319.081 143.939C315.036 144.163 311.138 143.357 307.983 141.838C306.397 141.089 305.038 140.116 303.78 139.16C302.528 138.204 301.394 137.268 300.386 136.38C298.367 134.609 296.81 133.085 295.739 132.028C294.669 130.969 294.088 130.37 294.05 130.404Z" fill="#455A64"/>
<path d="M282.584 88.8777L280.592 90.4429C281.396 87.0521 285.181 84.9143 288.647 85.281C292.113 85.6478 295.109 88.0624 296.953 91.0196C298.796 93.9769 299.646 97.4359 300.286 100.861C301.357 106.578 301.887 112.687 299.609 118.04C297.332 123.393 291.451 127.595 285.808 126.189C280.19 124.79 277.04 118.675 276.207 112.946C274.979 104.505 277.337 95.6021 282.584 88.8777Z" fill="#845EF1"/>
<path d="M290.395 114.799C290.298 114.952 292.643 116.143 295.789 115.973C297.343 115.899 298.71 115.526 299.647 115.122C300.649 114.721 300.941 113.977 300.825 113.958C300.74 113.915 300.401 114.409 299.471 114.652C298.547 114.915 297.224 115.194 295.754 115.264C292.793 115.43 290.462 114.594 290.395 114.799Z" fill="#263238"/>
<path d="M287.624 104.692C287.629 104.888 290.558 104.955 294.164 104.842C297.77 104.728 300.688 104.478 300.683 104.281C300.677 104.085 297.749 104.018 294.142 104.133C290.536 104.246 287.618 104.497 287.624 104.692Z" fill="#263238"/>
<path d="M289.81 93.8797C289.838 94.1142 291.832 93.8224 294.202 93.6084C295.39 93.5225 296.448 93.6016 297.197 93.7761C297.947 93.9397 298.404 94.1347 298.459 94.0378C298.504 93.967 298.122 93.6043 297.343 93.2961C296.569 92.9771 295.402 92.8094 294.156 92.9008C291.667 93.1271 289.793 93.7256 289.81 93.8797Z" fill="#263238"/>
<path d="M275.954 66.5359C276.117 60.8246 270.834 56.4098 265.517 54.317C260.199 52.2242 254.289 51.4361 249.548 48.2457C245.35 45.4207 242.53 41.0142 238.976 37.412C230.26 28.5757 216.651 24.9123 204.677 28.179C192.704 31.4457 182.839 41.5132 179.818 53.5508C177.776 61.6862 179.17 71.3038 185.582 76.7097C193.025 82.9841 204.058 81.5907 213.595 79.6383C223.132 77.6873 233.925 75.7621 241.887 81.3617C246.689 84.7388 249.441 90.2334 252.376 95.3176C255.312 100.402 258.995 105.592 264.546 107.504C270.096 109.415 277.633 106.114 277.85 100.248" fill="#263238"/>
<path d="M275.565 69.668C274.936 74.4563 278.401 78.7429 281.85 82.1228C285.3 85.5027 289.196 89.0885 289.804 93.8782C290.516 99.4736 286.43 104.985 287.616 110.5C288.369 114.001 291.091 116.696 292.743 119.874C295.06 124.335 295.18 129.732 293.76 134.553C292.338 139.375 290.073 150.144 286.72 153.89C277.452 164.252 262.693 173.195 249.143 176.307C235.594 179.42 221.521 179.439 207.644 178.584C196.284 177.886 183.221 178.408 173.753 162.78C168.851 154.686 166.422 143.924 163.816 134.826C161.571 126.993 159.631 118.604 161.964 110.797C163.323 106.247 166.06 102.203 167.4 97.6494C169.074 91.9598 168.463 85.8749 169.137 79.9822C170.596 67.2261 178.512 55.3767 189.738 49.1459C200.964 42.9151 215.208 42.4666 226.805 47.9775" fill="#263238"/>
<path d="M256.255 199.731C256.255 199.731 256.206 200.079 256.184 200.233C256.195 200.155 256.216 200.014 256.255 199.731Z" fill="#B78876"/>
<path d="M174.572 89.2991C175.635 72.9968 186.481 53.0173 202.724 54.772L253.422 67.7054C258.356 68.2385 262.062 72.4582 261.953 77.4197L256.379 197.026C256.284 199.065 255.812 201.058 254.97 202.915C251.204 211.218 238.695 232.309 211.524 223.767C204.876 221.677 201.841 214.406 200.524 206.926C200.512 206.037 200.158 205.255 200.145 204.407C199.04 195.775 199.945 187.611 199.945 187.611C199.851 177.736 199.862 173.686 199.855 173.778C199.855 173.778 179.033 170.274 174.778 143.087C172.663 129.569 173.39 107.411 174.572 89.2991Z" fill="#B78876"/>
<path d="M256.182 200.233C256.171 200.31 256.169 200.325 256.182 200.233V200.233Z" fill="#B78876"/>
<path d="M182.737 106.968C182.668 108.809 184.17 110.385 186.09 110.493C188.007 110.6 189.62 109.199 189.689 107.358C189.759 105.518 188.256 103.94 186.341 103.832C184.42 103.725 182.807 105.128 182.737 106.968Z" fill="#263238"/>
<path d="M179.342 100.845C179.773 101.3 182.418 99.3519 186.169 99.3709C189.916 99.3355 192.664 101.272 193.072 100.812C193.272 100.609 192.833 99.7882 191.638 98.9128C190.46 98.0416 188.449 97.1922 186.113 97.1963C183.776 97.2045 181.81 98.0594 180.679 98.9374C179.522 99.8195 179.13 100.64 179.342 100.845Z" fill="#263238"/>
<path d="M219.901 106.97C219.832 108.81 221.334 110.386 223.254 110.493C225.171 110.599 226.784 109.199 226.853 107.358C226.923 105.518 225.42 103.94 223.503 103.832C221.584 103.726 219.971 105.129 219.901 106.97Z" fill="#263238"/>
<path d="M216.206 101.624C216.638 102.079 219.285 100.131 223.034 100.15C226.78 100.113 229.529 102.049 229.936 101.591C230.136 101.388 229.702 100.567 228.501 99.6917C227.323 98.8191 225.313 97.971 222.976 97.9751C220.641 97.9833 218.673 98.8395 217.542 99.7162C216.39 100.598 215.996 101.42 216.206 101.624Z" fill="#263238"/>
<path d="M202.548 129.405C202.565 129.192 200.235 128.784 196.459 128.292C195.502 128.191 194.595 127.999 194.435 127.345C194.212 126.652 194.614 125.621 195.08 124.507C195.986 122.192 196.933 119.764 197.928 117.221C201.884 106.847 204.751 98.3149 204.331 98.1608C203.912 98.0054 200.365 106.288 196.408 116.662C195.457 119.22 194.544 121.659 193.679 123.992C193.313 125.079 192.687 126.313 193.173 127.75C193.429 128.465 194.131 128.986 194.745 129.154C195.358 129.342 195.897 129.354 196.371 129.383C200.175 129.596 202.534 129.618 202.548 129.405Z" fill="#263238"/>
<path d="M199.845 173.781C199.845 173.781 218.125 175 236.263 164.153C236.263 164.153 227.069 182.945 199.876 180.342L199.845 173.781Z" fill="#AA6550"/>
<path d="M204.088 138.451C205.44 136.67 207.806 135.697 210.152 135.955C211.779 136.133 213.422 136.923 214.408 138.249C215.393 139.576 215.597 141.459 214.695 142.72C213.68 144.14 211.565 144.465 209.776 143.952C207.987 143.44 206.449 142.258 204.989 141.081C204.586 140.755 204.172 140.416 203.92 139.97C203.668 139.524 203.615 138.942 203.928 138.574" fill="#AA6550"/>
<path d="M213.556 132.014C212.947 131.977 212.929 136.048 209.439 138.931C205.954 141.822 201.615 141.355 201.583 141.925C201.525 142.18 202.547 142.718 204.379 142.771C206.176 142.837 208.801 142.266 210.937 140.503C213.067 138.736 213.987 136.373 214.129 134.703C214.287 133.001 213.836 131.991 213.556 132.014Z" fill="#263238"/>
<path d="M214.55 95.0536C214.916 96.0734 218.663 95.5989 223.061 96.1389C227.472 96.5915 231.017 97.8867 231.603 96.9733C231.865 96.537 231.249 95.5758 229.816 94.5846C228.396 93.5961 226.129 92.654 223.488 92.354C220.847 92.0595 218.427 92.4726 216.824 93.1216C215.205 93.7706 214.391 94.5696 214.55 95.0536Z" fill="#263238"/>
<path d="M180.758 89.9793C181.417 90.8314 184.002 89.9548 187.109 89.9193C190.215 89.7762 192.845 90.5042 193.453 89.6153C193.719 89.1831 193.307 88.3296 192.159 87.5197C191.027 86.7139 189.135 86.0527 186.998 86.1127C184.865 86.1754 183.012 86.9443 181.93 87.8142C180.83 88.6868 180.468 89.5621 180.758 89.9793Z" fill="#263238"/>
<path d="M272.399 157.117C264.924 158.623 256.785 156.326 251.2 151.136C245.616 145.945 242.732 137.994 243.689 130.429C244.535 123.755 248.133 116.964 245.819 110.646C242.759 102.294 231.052 99.724 227.945 91.3894C226.139 86.5452 227.759 80.8789 225.713 76.1315C223.788 71.6676 219.092 69.0963 214.519 67.4438C209.948 65.7913 205.046 64.6502 201.208 61.6656C197.37 58.6825 194.976 53.0516 197.452 48.8687C217.726 51.2983 237.708 56.1534 256.838 63.2977C261.273 64.9542 265.932 66.9448 268.554 70.8878C271.328 75.0598 271.196 80.4494 270.963 85.4531C269.825 109.855 268.686 134.258 267.548 158.66" fill="#263238"/>
<path d="M270.693 166.462C270.705 166.479 270.854 166.382 271.131 166.181C271.461 165.931 271.858 165.628 272.34 165.261C273.391 164.438 274.936 163.213 276.842 161.532C278.736 159.843 281.02 157.697 283.232 154.808C285.422 151.943 287.574 148.209 288.314 143.621C289.124 139.159 288.529 133.539 284.809 129.32C282.976 127.253 280.624 125.706 278.477 123.921C276.293 122.175 274.479 119.954 273.539 117.184C271.529 111.644 272.425 105.229 271.648 98.6733C270.787 92.1494 268.457 85.4142 263.943 79.9469C261.689 77.2419 258.984 74.9022 255.884 73.3602C252.8 71.7337 249.459 71.0629 246.374 70.1507C243.257 69.2904 240.401 68.002 238.028 66.0387C235.64 64.1176 233.685 61.7726 231.971 59.3593C228.557 54.511 226.033 49.3437 222.781 45.0367C221.162 42.8852 219.404 40.926 217.426 39.3512C215.449 37.7751 213.278 36.6135 211.077 35.8936C206.69 34.3966 202.06 34.8929 199.006 37.0975C195.99 39.3908 194.887 42.6957 194.72 45.233C194.593 47.8467 195.476 49.8059 196.354 50.8298C196.784 51.3602 197.168 51.7024 197.463 51.8906C197.74 52.0992 197.884 52.1946 197.896 52.1782C197.909 52.1619 197.787 52.031 197.542 51.7965C197.277 51.5797 196.931 51.2184 196.547 50.6839C195.759 49.6477 194.995 47.7553 195.183 45.2644C195.407 42.8443 196.556 39.7125 199.395 37.6402C202.263 35.6455 206.636 35.2133 210.807 36.6939C212.901 37.407 214.972 38.5441 216.847 40.0684C218.728 41.5954 220.421 43.5124 221.985 45.6257C225.136 49.8632 227.611 55.0169 231.071 59.9933C232.809 62.4652 234.812 64.8989 237.313 66.9263C239.782 68.9959 242.882 70.3989 246.044 71.2728C249.193 72.2081 252.44 72.8762 255.342 74.4169C258.285 75.8825 260.86 78.1131 263.023 80.7063C267.354 85.9459 269.639 92.4835 270.487 98.8179C271.278 105.156 270.36 111.668 272.505 117.561C273.509 120.503 275.551 122.963 277.809 124.73C280.035 126.548 282.342 128.052 284.072 129.98C287.56 133.862 288.214 139.164 287.482 143.483C286.822 147.91 284.802 151.549 282.699 154.406C280.579 157.278 278.366 159.456 276.531 161.186C274.684 162.911 273.188 164.191 272.189 165.073C271.185 165.956 270.667 166.43 270.693 166.462Z" fill="#455A64"/>
<path d="M160.399 123.973C160.492 123.908 159.408 123.281 158.811 121.368C158.222 119.505 158.443 116.388 160.364 113.388C161.307 111.876 162.575 110.372 163.859 108.671C165.142 106.984 166.419 104.982 166.991 102.591C167.601 100.221 167.571 97.6355 167.294 95.0436C167.01 92.4449 166.484 89.8054 166.146 87.0949C165.399 81.6835 166.256 76.4235 167.922 72.0183C169.591 67.5981 172.025 64.0123 174.418 61.3659C176.84 58.7332 179.168 56.9539 180.875 55.9055C182.567 54.8297 183.576 54.3444 183.542 54.2762C183.531 54.2544 183.274 54.3621 182.793 54.5898C182.323 54.8366 181.58 55.1174 180.73 55.6696C178.965 56.6554 176.557 58.3951 174.05 61.0251C171.572 63.6687 169.05 67.2886 167.313 71.7852C165.579 76.2572 164.679 81.6604 165.442 87.1808C165.786 89.9281 166.315 92.5608 166.604 95.1186C166.885 97.6682 166.923 100.167 166.357 102.433C165.83 104.713 164.639 106.631 163.388 108.321C162.14 110.015 160.878 111.557 159.937 113.124C157.999 116.273 157.849 119.522 158.549 121.452C158.89 122.428 159.383 123.082 159.764 123.46C160.152 123.833 160.39 123.986 160.399 123.973Z" fill="#263238"/>
</svg>
