<svg width="393" height="408" viewBox="0 0 393 408" fill="none" xmlns="http://www.w3.org/2000/svg">
<path d="M291.887 356.807C258.768 373.459 223.115 382.988 187.174 384.794C160.755 386.121 131.111 381.49 114.378 357.205C104.654 343.091 99.9335 323.161 86.41 314.501C72.7679 305.765 55.9326 312.207 40.5623 309.803C24.5757 307.304 10.054 294.268 3.6837 276.699C-2.68661 259.129 -0.675192 237.663 8.79152 222.181C30.957 185.932 84.6778 187.574 99.2713 146.277C105.691 128.111 101.893 107.278 104.53 87.8319C107.942 62.6657 122.324 40.8254 140.315 26.8822C158.306 12.939 179.634 6.1572 200.938 2.79707C229.039 -1.63581 260.673 0.925985 281.022 24.3346C293.583 38.784 300.581 59.8828 315.351 71.0111C322.724 76.5664 331.387 79.0891 339.425 83.1471C369.722 98.4445 389.66 136.272 392.579 175.173C395.498 214.074 382.991 253.187 362.737 283.981C342.484 314.773 317.713 343.821 291.887 356.807Z" fill="#C6C9FF"/>
<path d="M226.368 44.8796C223.414 44.7859 211.046 41.3598 200.806 51.3301C191.118 60.7637 183.053 92.8353 180.204 99.6484C177.356 106.462 167.756 106.044 164.202 113.919C161.145 120.691 165.948 124.113 165.644 129.389C165.407 133.479 160.318 138.869 163.075 145.411C165.584 151.361 171.731 151.155 175.054 153.417C178.377 155.679 179.288 164.248 185.589 167.512C191.889 170.778 198.753 165.717 202.277 166.31C205.801 166.903 208.263 178.254 219.947 179.136C231.632 180.018 236.524 170.922 241.594 169.776C246.665 168.63 258.086 173.784 264.495 168.782C270.903 163.78 273.113 156.092 276.039 153.596C278.965 151.099 284.027 152.371 288.168 146.181C292.309 139.992 286.7 134.763 286.752 128.835C286.788 124.707 291.022 121.576 289.467 115.014C287.328 105.991 276.523 106.145 273.925 96.8194C271.888 89.5051 270.195 58.8252 253.204 48.6595C241.47 41.6388 226.368 44.8796 226.368 44.8796Z" fill="#263238"/>
<path d="M180.828 98.0024C180.023 99.4845 178.504 100.417 177.129 101.327L172.857 103.933C170.033 105.636 167.17 107.401 165.095 109.805C162.989 112.118 161.976 115.304 162.582 118.262C162.872 119.75 163.563 121.165 164.356 122.587C165.122 124.018 166.094 125.446 166.504 127.352C166.851 129.407 165.909 131.183 165.168 132.624C164.377 134.118 163.539 135.523 162.844 136.972C161.423 139.827 160.672 142.992 161.698 145.928C162.174 147.366 163.066 148.628 164.358 149.484C165.638 150.354 167.204 150.844 168.801 151.191C170.402 151.56 172.061 151.769 173.718 152.056C175.339 152.353 177.14 152.69 178.349 153.892C177.009 152.861 175.281 152.731 173.652 152.551C171.994 152.407 170.317 152.34 168.63 152.101C166.955 151.838 165.24 151.408 163.702 150.485C162.154 149.582 160.951 148.077 160.311 146.412C158.867 143.054 159.841 139.248 161.265 136.248C161.975 134.703 162.809 133.249 163.538 131.808C164.27 130.359 164.883 128.944 164.623 127.678C164.053 124.929 161.458 122.138 160.877 118.587C160.219 115.062 161.476 111.262 164.009 108.837C166.439 106.324 169.454 104.694 172.401 103.132L176.876 100.898C178.303 100.095 179.854 99.3606 180.828 98.0024Z" fill="#263238"/>
<path d="M267.302 68.0342C269.637 73.5171 270.689 79.3939 272.309 85.0465C273.122 87.8733 273.836 90.7292 274.849 93.4466C275.374 94.7769 275.901 96.1585 276.656 97.2611C276.826 97.5658 277.019 97.8236 277.235 98.0088C277.432 98.2209 277.62 98.4452 277.945 98.6472C278.512 99.069 279.125 99.4607 279.745 99.848C282.206 101.434 284.859 102.923 287.258 104.844C289.639 106.733 291.852 109.213 292.712 112.281C293.137 113.787 293.279 115.433 292.894 116.988C292.526 118.548 291.699 119.896 290.842 121.114C289.042 123.487 287.321 125.883 286.753 128.836C286.869 125.827 288.542 123.102 290.051 120.616C290.81 119.366 291.485 118.089 291.711 116.741C291.957 115.398 291.757 114.025 291.307 112.715C290.346 110.112 288.478 107.916 286.171 106.187C283.884 104.42 281.281 103.029 278.707 101.432C278.072 101.018 277.435 100.593 276.815 100.116C276.239 99.6862 275.458 98.896 275.124 98.241C274.236 96.8672 273.744 95.4409 273.21 94.0202C272.241 91.1655 271.48 88.2907 270.884 85.3846L269.16 76.6809C268.637 73.7727 268.161 70.8644 267.302 68.0342Z" fill="#263238"/>
<path d="M279.182 152.062C277.647 153.538 277.132 155.69 276.327 157.619C275.552 159.585 274.775 161.567 273.891 163.522C273.027 165.484 271.992 167.394 270.697 169.185C269.392 170.95 267.787 172.642 265.636 173.684C261.189 175.591 256.457 174.537 252.441 173.139C250.396 172.425 248.418 171.61 246.409 170.951C244.419 170.25 242.347 169.722 240.199 169.998C242.268 169.291 244.558 169.642 246.663 170.061C248.78 170.556 250.825 171.222 252.877 171.753C256.894 172.829 261.255 173.582 264.82 171.979C266.553 171.182 267.997 169.721 269.246 168.124C270.529 166.533 271.546 164.705 272.578 162.882C273.6 161.049 274.52 159.146 275.476 157.245C275.979 156.306 276.49 155.367 277.045 154.447C277.635 153.575 278.179 152.552 279.182 152.062Z" fill="#263238"/>
<path d="M168.027 407.481H266.081L271.911 287.913H184.294L168.027 407.481Z" fill="#845EF1"/>
<path d="M211.733 287.913L222.091 368.89L222.103 369.012L222.329 370.697L222.748 374.012L223.223 377.706L223.393 379.023L223.529 380.083L227.027 407.481H266.081L271.911 287.913H211.733Z" fill="#845EF1"/>
<path d="M187.939 407.481H190.531C190.667 406.421 190.791 405.372 190.927 404.312C194.414 376.434 197.798 348.534 200.742 320.6C201.013 318.045 201.285 315.478 201.545 312.922C201.591 312.521 200.889 312.442 200.832 312.844C200.595 314.563 200.345 316.281 200.119 318C195.942 347.808 191.946 377.65 187.939 407.481Z" fill="#263238"/>
<path d="M193.191 287.823C193.191 287.823 193.191 287.846 193.214 287.913C193.474 289.107 196.338 302.208 200.119 318C200.323 318.859 200.527 319.73 200.742 320.6C202.417 327.508 204.24 334.818 206.085 341.804C210.069 356.971 214.156 370.563 216.941 375.039C217.393 375.753 217.801 376.233 218.174 376.456C219.08 376.98 221.004 377.918 223.393 379.023C223.902 379.257 224.434 379.503 224.978 379.748C225.419 379.949 225.872 380.161 226.336 380.362C231.77 382.817 238.301 385.629 241.324 386.868C241.335 386.879 241.358 386.879 241.369 386.891V386.969L241.38 387.125L242.433 407.481H334.714L324.933 349.415L313.127 287.823H193.191Z" fill="#845EF1"/>
<path d="M210.17 372.52C220.913 376.165 231.282 381.34 241.196 386.765C241.585 386.978 241.328 387.573 240.907 387.394C230.455 382.969 219.798 378.735 209.606 373.749C208.806 373.358 209.345 372.24 210.17 372.52Z" fill="black"/>
<path d="M207.023 301.944C207.051 301.588 207.686 301.509 207.683 301.894C207.598 314.126 208.389 324.889 209.435 336.321C209.921 341.629 214.252 370.959 223.587 368.821C225.15 368.463 225.947 366.946 226.192 364.624C226.487 361.832 225.421 358.406 224.953 355.629C223.917 349.489 223.085 343.33 222.551 337.126C221.552 325.548 221.502 313.97 222.93 302.427C222.976 302.048 223.532 302.077 223.531 302.46C223.517 318.488 223.943 334.486 226.373 350.36C227.542 357.989 231.439 369.475 223.347 370.649C215.101 371.846 209.77 352.606 208.764 347.344C205.957 332.657 205.846 316.802 207.023 301.944Z" fill="black"/>
<path d="M223.339 369.61C224.182 371.58 224.861 373.63 225.438 375.69C225.887 377.291 226.496 379.019 226.311 380.688C226.275 381.011 225.84 381.043 225.665 380.824C224.57 379.454 224.107 377.583 223.496 375.96C222.786 374.08 222.035 372.213 221.379 370.313C220.944 369.053 222.819 368.396 223.339 369.61Z" fill="black"/>
<path d="M292.422 375.708C293.351 386.31 294.449 396.901 295.603 407.481H296.611C295.433 396.879 294.188 386.277 292.796 375.697C292.762 375.462 292.4 375.463 292.422 375.708Z" fill="black"/>
<path d="M229.045 180.903C220.59 208.082 183.991 305.192 159.448 319.984C143.388 329.664 62.7055 335.161 47.1892 328.064C38.5679 324.12 41.2529 259.875 51.4081 259.517C64.0797 259.07 126.343 257.429 133.239 254.18C140.096 250.949 186.645 189.607 204.37 171.021C234.933 138.972 234.676 162.801 229.045 180.903Z" fill="#AD6359"/>
<path d="M70.7121 254.696L82.2144 333.262C82.2144 333.262 147.733 335.159 165.597 320.761C191.055 300.24 227.56 196.472 231.703 180.214C241.512 141.719 219.641 148.147 202.436 166.874C191.263 179.037 147.312 241.267 131.03 252.726C126.416 255.974 70.7121 254.696 70.7121 254.696Z" fill="#EBEBEB"/>
<path d="M98.3499 329.416C97.0028 317.756 89.724 270.238 87.4464 260.076C87.2891 259.372 86.7978 259.299 86.8657 260.053C90.0478 295.091 95.9659 318.084 97.8801 329.453C97.9288 329.737 98.3838 329.713 98.3499 329.416Z" fill="#263238"/>
<path d="M184.259 258.734L173.31 332.957C173.31 332.957 296.002 334.742 326.458 332.626C326.458 332.626 301.615 193.873 268.866 158.819C252.486 141.285 233.255 142.596 220.998 154.854C217.896 157.956 180.891 206.172 176.991 224.592C173.592 240.845 184.259 258.734 184.259 258.734Z" fill="#C6C9FF"/>
<path d="M232.062 250.463C225.531 249.965 218.937 249.679 212.396 250.138C209.14 250.366 205.918 250.741 202.688 251.185C201.077 251.406 199.468 251.575 197.852 251.735C196.192 251.899 194.422 252.011 192.763 251.767C192.614 251.746 192.578 251.964 192.725 251.995C194.321 252.326 195.848 252.637 197.479 252.757C199.029 252.871 200.6 252.82 202.151 252.726C205.455 252.525 208.747 252.173 212.048 251.939C218.709 251.467 225.366 250.996 232.046 250.998C232.354 251.001 232.371 250.487 232.062 250.463Z" fill="#263238"/>
<path d="M246.923 258.929C241.748 257.454 236.422 256.201 231.11 255.315C228.437 254.869 225.76 254.578 223.058 254.356C221.769 254.25 220.477 254.168 219.185 254.1C217.763 254.025 216.33 254.139 214.912 254.044C214.764 254.034 214.723 254.257 214.873 254.271C216.209 254.401 217.529 254.748 218.856 254.954C220.188 255.161 221.523 255.357 222.855 255.563C225.524 255.974 228.186 256.416 230.86 256.804C236.211 257.579 241.53 258.404 246.85 259.362C247.139 259.414 247.191 259.006 246.923 258.929Z" fill="#263238"/>
<path d="M247.572 407.48H344.37C333.072 337.373 319.443 265.57 306.391 229.434C278.25 151.526 255.281 148.546 255.281 148.546C255.281 148.546 255.281 148.579 255.281 148.635C255.157 151.927 251.908 240.236 249.372 333.634C248.693 358.387 248.071 383.497 247.572 407.48Z" fill="#EBEBEB"/>
<path d="M263.556 365.642C263.579 362.919 264.168 350.073 264.417 347.417C264.417 347.406 264.417 347.406 264.417 347.406C264.371 347.105 264.53 346.502 264.779 346.502C268.39 346.547 280.921 347.763 293.543 347.763C305.746 347.763 320.473 345.688 320.518 345.688C320.937 345.81 320.937 359.983 321.164 366.836C321.617 381.132 320.949 397.303 317.858 400.271C312.085 405.84 296.701 405.371 291.879 405.327C287.091 405.293 269.805 405.271 265.764 396.521C263.986 392.66 263.511 372.706 263.556 365.642ZM265.786 380.15C265.99 387.203 266.216 393.586 268.967 397.258C271.322 400.394 277.967 403.552 293.26 403.541C304.308 403.519 313.613 401.543 316.183 398.642C319.239 395.171 319.613 385.194 319.613 379.234C319.602 371.01 319.579 364.436 319.556 356.223C298.195 361.111 274.695 358.7 265.786 356.926C265.809 357.272 265.616 374.625 265.786 380.15ZM265.73 355.586C293.475 359.102 310.647 356.167 319.545 354.47C319.545 351.837 319.545 349.783 319.59 347.138C315.775 348.087 302.939 349.593 293.317 349.593C284.362 349.593 271.209 348.366 265.628 347.707C265.775 349.884 265.662 354.593 265.73 355.586Z" fill="#DBDBDB"/>
<path d="M258.209 185.17C263.663 207.396 291.662 286.427 298.628 293.282C306.927 301.45 343.097 326.571 355.717 293.128C364.456 269.967 305.067 188.788 277 162.609C263.283 149.814 249.073 147.947 258.209 185.17Z" fill="#EBEBEB"/>
<path d="M267.772 225.663C269.463 228.756 271.333 231.75 273.167 234.764C272.738 233.66 272.316 232.555 271.909 231.445C270.143 226.629 268.502 221.77 266.711 216.966C266.652 216.808 266.899 216.751 266.965 216.895C268.857 221.09 270.858 225.24 272.707 229.455C274.511 233.566 276.138 237.74 277.771 241.916C281.067 250.347 284.407 258.765 287.461 267.28C289.159 272.012 290.941 276.77 292.109 281.653C292.14 281.785 291.937 281.889 291.869 281.754C289.847 277.718 288.25 273.478 286.613 269.287C284.982 265.112 283.358 260.937 281.769 256.748C280.147 252.471 278.5 248.206 276.824 243.948C275.985 241.813 275.121 239.687 274.27 237.556C271.6 233.884 269.513 229.792 267.67 225.705C267.643 225.649 267.742 225.608 267.772 225.663Z" fill="#263238"/>
<path d="M256.297 148.643C259.298 154.934 262.235 161.252 265.088 167.604C267.91 173.968 270.838 180.289 273.572 186.691L273.914 187.49L273.174 187.983L261.305 195.893L261.648 194.254C264.866 199.007 267.994 203.819 271.14 208.62L271.446 209.089L271.278 209.605C268.098 219.325 265.027 229.08 261.685 238.75C258.427 248.447 255.083 258.116 251.574 267.736C254.258 257.862 257.106 248.038 260.04 238.242C262.891 228.42 266.013 218.681 269.025 208.909L269.163 209.892C265.966 205.125 262.753 200.367 259.63 195.553L258.98 194.55L259.972 193.914L271.984 186.214L271.586 187.507C268.891 181.09 266.393 174.591 263.787 168.137C261.214 161.672 258.724 155.171 256.297 148.643Z" fill="#DBDBDB"/>
<path d="M161.484 407.48H196.44C198.512 383.341 200.64 358.108 202.745 333.3C205.745 297.844 208.711 263.248 211.473 233.898C215.537 190.764 222.951 159.137 224.525 152.742C224.683 152.061 224.785 151.671 224.808 151.57C224.819 151.559 224.808 151.559 224.808 151.559C224.027 151.894 222.759 153.01 221.106 154.74C221.072 154.773 221.038 154.818 220.993 154.851C220.88 154.985 220.744 155.119 220.62 155.264C220.518 155.365 220.416 155.476 220.337 155.577C214.326 162.083 204.273 175.386 195.331 189.034C186.705 202.203 179.098 215.696 177.196 223.708C177.162 223.865 177.128 224.01 177.094 224.155C177.038 224.412 176.992 224.657 176.947 224.903C176.562 227.101 176.37 229.255 176.324 231.331C176.324 231.342 176.324 231.342 176.324 231.342C176.064 243.752 181.226 253.472 183.015 256.441C183.037 256.508 183.082 256.564 183.116 256.631C183.411 257.122 183.592 257.378 183.592 257.378L183.569 257.501L172.181 334.873L161.484 407.48Z" fill="#EBEBEB"/>
<path d="M189.073 200.384C192.494 195.001 196.013 189.677 199.375 184.259C199.469 184.107 199.229 183.926 199.116 184.071C195.685 188.506 192.34 193.015 189.022 197.535C190.12 195.113 191.189 192.68 192.178 190.209C192.29 189.93 191.889 189.693 191.752 189.978C190.23 193.158 188.851 196.395 187.5 199.645C184.585 203.714 181.876 207.937 179.663 212.419C174.989 221.886 172.975 232.244 175.506 242.606C176.206 245.468 177.223 248.227 178.562 250.858C179.475 252.652 182.42 256.53 182.401 256.64C180.483 267.222 179.041 277.925 177.527 288.569C175.994 299.341 174.44 310.11 173.171 320.916C172.452 327.033 171.986 333.201 171.084 339.292C171.052 339.517 171.4 339.604 171.434 339.378C172.22 334.071 173.387 328.813 174.342 323.53C175.298 318.241 176.204 312.941 177.069 307.637C178.817 296.917 180.374 286.164 181.947 275.418C182.837 269.34 183.812 263.264 184.516 257.162C184.593 256.493 181.804 252.155 180.983 250.492C179.877 248.258 178.981 245.893 178.288 243.504C176.885 238.655 176.412 233.495 176.992 228.478C178.184 218.175 183.592 209.008 189.073 200.384Z" fill="#263238"/>
<path d="M224.523 152.747C220.91 158.14 217.248 163.497 213.515 168.804C209.757 174.092 206.087 179.444 202.257 184.682L202.177 183.429L211.373 192.927L212.134 193.713L211.328 194.483C207.458 198.18 203.518 201.805 199.593 205.444L199.922 204.5C201.345 214.341 202.872 224.166 204.139 234.03C205.487 243.882 206.751 253.747 207.856 263.636C205.956 253.866 204.214 244.072 202.555 234.266C200.815 224.472 199.336 214.64 197.753 204.822L197.665 204.272L198.083 203.877C201.97 200.198 205.844 196.504 209.786 192.882L209.741 194.437L200.72 184.777L200.158 184.174L200.64 183.523C204.502 178.307 208.523 173.207 212.457 168.045C216.414 162.9 220.443 157.805 224.523 152.747Z" fill="#DBDBDB"/>
<path d="M268.722 165.287C269.638 152.085 253.415 146.837 243.387 145.477C231.506 143.866 223.593 144.843 217.881 156.2C211.859 168.175 208.697 182.078 206.331 195.183C205.89 197.629 202.02 197.019 202.462 194.565C205.189 179.461 209.109 151.285 224.369 143.087C238.414 135.541 274.144 143.536 272.591 165.906C272.419 168.384 268.551 167.752 268.722 165.287Z" fill="#553F95"/>
<path d="M194.325 200.664C193.531 205.503 196.865 210.06 201.772 210.844C206.68 211.627 211.303 208.341 212.098 203.502C212.893 198.664 209.559 194.105 204.652 193.322C199.743 192.538 195.12 195.825 194.325 200.664Z" fill="#845EF1"/>
<path d="M197.862 201.228C197.383 204.141 199.39 206.884 202.345 207.356C205.299 207.828 208.082 205.85 208.56 202.937C209.039 200.024 207.032 197.281 204.078 196.809C201.124 196.337 198.341 198.315 197.862 201.228Z" fill="#EBEBEB"/>
<path d="M255.105 206.646C245.191 243.734 246.718 252.793 249.845 257.06C253.14 261.552 258.45 263.986 258.674 264.087L259.812 261.639L259.242 262.863L259.813 261.64C259.764 261.617 254.923 259.388 252.06 255.483C249.799 252.4 247.93 244.055 257.746 207.333L255.105 206.646Z" fill="#555555"/>
<path d="M256.356 259.38L254.757 262.224C254.421 262.823 254.643 263.583 255.25 263.914L261.321 267.225C261.927 267.557 262.698 267.338 263.033 266.74L264.631 263.895C264.967 263.297 264.745 262.537 264.138 262.205L258.068 258.894C257.463 258.564 256.692 258.783 256.356 259.38Z" fill="#845EF1"/>
<path d="M279.661 207.574C287.122 235.526 288.924 250.827 285.33 255.726C282.453 259.648 277.625 261.858 277.576 261.88L278.713 264.328C278.937 264.227 284.248 261.796 287.543 257.304C291.822 251.472 290.304 236.865 282.303 206.888L279.661 207.574Z" fill="#555555"/>
<path d="M281.034 259.622L282.631 262.469C282.966 263.067 282.744 263.827 282.137 264.158L276.065 267.467C275.458 267.797 274.687 267.578 274.352 266.98L272.756 264.134C272.421 263.536 272.643 262.776 273.25 262.446L279.322 259.137C279.928 258.805 280.699 259.024 281.034 259.622Z" fill="#845EF1"/>
<path d="M283.243 205.717C282.465 201.853 280.203 192.253 278.368 187.438C276.862 183.485 272.895 180.818 272.895 180.818C272.355 180.766 272.592 176.057 272.87 172.211C273.121 168.817 273.483 164.872 272.66 163.779C271.863 162.723 269.782 162.653 268.909 163.589C267.97 164.589 267.918 168.553 267.799 171.956C267.668 175.81 267.399 180.513 266.853 180.509C266.853 180.509 262.879 182.938 261.021 186.612C258.946 190.711 255.208 201.658 254.501 204.862C253.624 208.838 254.949 209.329 256.103 209.721C257.739 210.27 258.778 209.172 260.064 204.776C262.101 197.808 264.67 186.077 269.589 186.115V186.104C274.472 186.593 276.449 199.017 278.016 205.944C278.998 210.28 279.925 210.699 281.614 210.323C282.8 210.057 284.017 209.564 283.243 205.717Z" fill="#845EF1"/>
<path d="M223.723 149.351C223.723 149.351 222.644 170.849 226.615 171.213C238.831 172.336 252.419 155.763 253.165 153.147C253.351 152.478 252.368 135.78 251.573 122.801C251.062 114.452 250.621 107.644 250.621 107.644L219.409 125.274L223.427 147.743L223.723 149.351Z" fill="#AD6359"/>
<path d="M219.411 125.273L223.428 147.741C229.976 145.661 244.138 139.335 251.574 122.801C251.064 114.452 250.622 107.644 250.622 107.644L246.688 109.696L219.411 125.273Z" fill="#263238"/>
<path d="M187.287 89.4984C180.777 129.025 204.055 137.332 212.702 138.706C220.552 139.954 247.441 143.219 258.058 104.568C268.675 65.9162 252.093 50.4373 234.293 46.6474C216.493 42.8574 193.797 49.972 187.287 89.4984Z" fill="#AD6359"/>
<path d="M197.046 84.6218C198.004 84.5984 198.886 84.4198 199.832 84.2993C200.899 84.1643 201.764 84.1643 202.609 83.4355C203.063 83.0449 203.111 82.1733 202.768 81.7035C201.968 80.6087 200.618 80.4536 199.327 80.5652C197.924 80.6857 196.875 81.1321 195.867 82.0963C194.89 83.0326 195.78 84.652 197.046 84.6218Z" fill="#263238"/>
<path d="M224.235 88.0544C223.296 87.8602 222.463 87.5265 221.555 87.2397C220.529 86.9161 219.679 86.7621 218.982 85.8949C218.607 85.4296 218.72 84.5636 219.145 84.1629C220.132 83.2288 221.488 83.317 222.738 83.6574C224.095 84.0268 225.045 84.6528 225.859 85.7811C226.646 86.8759 225.474 88.31 224.235 88.0544Z" fill="#263238"/>
<path d="M216.61 97.0616C216.643 96.9612 216.809 97.2145 216.793 97.325C216.39 100.024 216.389 103.181 218.771 104.363C218.845 104.399 218.821 104.534 218.73 104.511C215.746 103.746 215.79 99.5548 216.61 97.0616Z" fill="#263238"/>
<path d="M219.394 94.5105C223.851 94.6801 223.179 103.457 219.049 103.3C214.986 103.145 215.657 94.3677 219.394 94.5105Z" fill="#263238"/>
<path d="M221.106 95.1041C221.846 95.6576 222.541 96.5917 223.471 96.7524C224.548 96.9388 225.437 96.0806 226.214 95.2503C226.294 95.1643 226.366 95.2458 226.359 95.363C226.256 97.047 225.467 98.7221 223.619 98.8371C221.934 98.942 220.849 97.364 220.554 95.6409C220.497 95.3228 220.809 94.8809 221.106 95.1041Z" fill="#263238"/>
<path d="M201.458 95.0424C201.443 94.9375 201.234 95.1562 201.229 95.2689C201.13 97.9942 200.551 101.101 197.993 101.838C197.914 101.86 197.912 101.997 198.006 101.991C201.081 101.771 201.808 97.6404 201.458 95.0424Z" fill="#263238"/>
<path d="M199.19 92.0357C194.775 91.4074 193.824 100.159 197.914 100.742C201.941 101.314 202.891 92.5624 199.19 92.0357Z" fill="#263238"/>
<path d="M197.277 92.4161C196.525 92.8056 195.739 93.5756 194.895 93.541C193.917 93.5009 193.301 92.4786 192.78 91.5054C192.726 91.405 192.648 91.4708 192.632 91.5858C192.403 93.2531 192.776 95.0554 194.371 95.5476C195.825 95.9985 197.074 94.6771 197.659 93.0545C197.768 92.7554 197.579 92.2599 197.277 92.4161Z" fill="#263238"/>
<path d="M214.312 118.368C213.631 118.987 212.943 119.846 211.938 119.9C210.974 119.951 209.859 119.489 208.987 119.126C208.901 119.09 208.809 119.179 208.863 119.262C209.549 120.329 211.038 121.029 212.326 120.846C213.584 120.667 214.236 119.619 214.573 118.5C214.622 118.343 214.412 118.278 214.312 118.368Z" fill="#263238"/>
<path d="M203.663 107.559C203.663 107.559 202.735 111.567 202.565 113.48C202.551 113.66 203.012 113.785 203.668 113.88C203.698 113.892 203.715 113.907 203.744 113.889C207.124 114.711 210.679 113.842 213.006 111.263C213.156 111.088 212.928 110.869 212.74 110.973C210.017 112.604 207.147 112.839 204.104 112.628C204.013 112.087 205.925 105.816 205.619 105.767C204.566 105.586 202.412 106.117 201.124 106.372C202.812 97.9681 205.852 89.8994 207.405 81.5071C207.454 81.2069 207.022 81.0785 206.909 81.3397C203.115 89.5735 200.958 99.2024 198.989 107.837C198.735 108.91 202.858 107.818 203.663 107.559Z" fill="#263238"/>
<path d="M205.869 113.509C205.869 113.509 207.346 115.664 209.46 116.51C210.239 116.825 211.087 116.972 211.991 116.776C213.848 116.38 213.968 114.72 213.694 113.285C213.473 112.104 212.967 111.074 212.967 111.074C212.967 111.074 210.178 113.432 205.869 113.509Z" fill="#263238"/>
<path d="M209.46 116.51C210.239 116.825 211.087 116.972 211.991 116.776C213.848 116.38 213.968 114.72 213.694 113.285C211.718 113.399 209.712 114.632 209.46 116.51Z" fill="#FF99BA"/>
<path d="M258.056 106.108C249.067 101.979 248.629 92.7217 248.629 92.7217C237.465 88.0724 231.4 79.5506 230.771 78.6857C231.049 79.5093 233.04 85.4554 234.152 88.453C208.379 83.8283 200.318 64.4389 200.318 64.4389C192.007 72.6939 190.365 77.9581 189.168 80.5852C189.168 80.5852 188.905 65.0114 196.979 54.5455C206.858 41.7305 221.118 45.7492 221.118 45.7492C221.118 45.7492 240.41 38.1258 256.026 54.7085C272.838 72.5968 258.056 106.108 258.056 106.108Z" fill="#263238"/>
<path d="M214.559 84.3415C218.67 86.5981 223.24 88.1136 227.791 89.0622C227.828 89.07 227.837 89.0142 227.801 89.0042C220.536 87.0132 214.005 83.2936 208.846 77.8252C206.665 75.514 204.786 72.9661 203.252 70.1951C201.648 67.298 200.082 63.8462 199.784 60.5317C199.761 60.2806 199.364 60.3152 199.387 60.5674C199.701 64.0716 200.029 67.3013 201.477 70.5623C202.854 73.6581 204.825 76.5373 207.238 78.9401C209.396 81.0862 211.879 82.8706 214.559 84.3415Z" fill="#263238"/>
<path d="M221.641 111.663C227.296 111.791 232.554 108.14 234.145 102.527C236.024 95.8867 232.075 88.9787 225.342 87.125C218.607 85.2702 211.601 89.1628 209.721 95.8019C207.841 102.439 211.79 109.349 218.523 111.204C219.563 111.49 220.608 111.639 221.641 111.663ZM222.186 88.337C223.08 88.3571 223.987 88.4865 224.886 88.7343C230.719 90.3391 234.139 96.3253 232.513 102.077C230.882 107.826 224.809 111.205 218.98 109.595C213.147 107.988 209.727 102.002 211.354 96.2517C212.732 91.3892 217.285 88.2265 222.186 88.337Z" fill="#C6C9FF"/>
<path d="M192.849 107.513C197.7 107.623 202.214 102.825 203.137 96.3678C203.603 93.109 203.1 89.9039 201.72 87.346C200.296 84.6989 198.106 83.0461 195.557 82.6923C193 82.3318 190.442 83.3306 188.329 85.4868C186.287 87.5714 184.907 90.5143 184.442 93.7719C183.468 100.596 186.868 106.731 192.02 107.447C192.298 107.484 192.573 107.507 192.849 107.513ZM194.679 84.2949C194.893 84.3005 195.107 84.3161 195.32 84.3462C197.316 84.623 199.058 85.9666 200.224 88.1283C201.434 90.3782 201.875 93.2206 201.46 96.1334C200.614 102.046 196.501 106.385 192.258 105.791C188.03 105.204 185.278 99.9166 186.121 94.0052C186.537 91.0935 187.755 88.4799 189.551 86.6463C191.09 85.0738 192.889 84.2547 194.679 84.2949Z" fill="#C6C9FF"/>
<path d="M209.937 97.2942L211.198 96.176C209.519 94.3357 205.418 91.6037 201.891 94.4138L202.956 95.7128C206.112 93.1907 209.782 97.1268 209.937 97.2942Z" fill="#C6C9FF"/>
<path d="M265.424 108.244L267.024 107.692C266.761 106.957 264.362 100.475 260.699 99.3543C257.274 98.3176 234.477 97.2719 233.51 97.2295L233.433 98.899C239.969 99.1914 257.552 100.142 260.195 100.951C262.614 101.689 264.789 106.466 265.424 108.244Z" fill="#C6C9FF"/>
<path d="M251.187 106.585C251.187 106.585 260.97 94.7695 266.472 98.2995C271.974 101.829 263.96 119.409 257.038 121.385C250.116 123.361 248.135 117.081 248.135 117.081L251.187 106.585Z" fill="#AD6359"/>
<path d="M264.048 103.282C264.157 103.28 264.166 103.432 264.07 103.462C259.205 105.001 256.393 109.135 254.312 113.484C255.847 111.864 257.831 111.061 260.047 112.88C260.164 112.975 260.031 113.157 259.9 113.12C257.996 112.568 256.575 112.797 255.153 114.228C254.146 115.241 253.41 116.563 252.653 117.762C252.4 118.163 251.654 117.884 251.851 117.416C251.866 117.382 251.883 117.346 251.898 117.311C252.229 111.367 257.537 103.404 264.048 103.282Z" fill="#263238"/>
<path d="M253.369 119.343C253.332 120.115 253.937 120.772 254.721 120.809C255.504 120.846 256.17 120.25 256.207 119.477C256.245 118.704 255.64 118.048 254.856 118.011C254.072 117.975 253.407 118.57 253.369 119.343Z" fill="white"/>
<path d="M257.466 117.109C257.442 117.596 257.825 118.011 258.32 118.035C258.814 118.058 259.235 117.681 259.259 117.193C259.283 116.706 258.9 116.291 258.406 116.267C257.911 116.244 257.49 116.62 257.466 117.109Z" fill="white"/>
<path d="M223.711 150.434L230.465 167.977L252.834 146.364L258.915 153.549C258.915 153.549 236.772 188.138 236.668 186.555L229.681 171.412L218.974 181.653L220.334 155.461L223.711 150.434Z" fill="#C6C9FF"/>
<path d="M218.905 168.669C219.277 164.351 219.528 159.993 220.102 155.697C220.123 155.545 220.367 155.481 220.401 155.663C221.199 159.853 219.688 176.356 219.63 180.318C219.645 180.303 219.663 180.287 219.677 180.273C220.124 179.83 229.592 171.27 229.681 171.412C231.213 173.824 236.342 184.852 236.687 185.853C240.19 180.359 255.021 158.716 259.14 153.536C259.259 153.387 259.494 153.516 259.401 153.691C256.289 159.504 237.115 188.07 236.852 187.99C236.669 188.124 230.294 174.54 229.55 171.982C227.939 173.855 218.362 183.534 218.343 182.891C218.212 178.55 218.533 172.991 218.905 168.669Z" fill="#263238"/>
<path d="M222.122 207.165C222.122 207.165 230.876 195.786 222.522 190.531C214.168 185.276 207.39 197.898 207.39 197.898L222.122 207.165Z" fill="#553F95"/>
<path d="M152.899 282.072L152.896 282.085L151.681 296.008L151.252 300.599L155.332 298.316L167.635 291.352L167.646 291.354L167.651 291.331L222.434 206.684L207.695 197.416L152.911 282.075C152.899 282.072 152.899 282.072 152.899 282.072Z" fill="#553F95"/>
<path d="M151.675 296.012L151.256 300.605L155.338 298.315L151.675 296.012Z" fill="#37474F"/>
<path d="M206.759 196.189L223.961 207.01L221.783 210.375L204.581 199.554L206.759 196.189Z" fill="#263238"/>
<path d="M204.353 199.92L221.556 210.741L219.378 214.106L202.175 203.285L204.353 199.92Z" fill="#263238"/>
<path d="M219.373 214.097L213.823 210.606L197.061 243.155L199.182 244.326L219.373 214.097Z" fill="#263238"/>
<path d="M253.647 237.048C245.244 235.403 219.742 306.292 231.976 309.295C286.492 322.681 331.129 314.252 341.703 309.259C355.562 302.715 356.721 285.156 350.923 277.055C340.887 263.038 266.702 239.605 253.647 237.048Z" fill="#AD6359"/>
<path d="M148.965 233.253C149.097 241.432 169.527 239.401 169.527 239.401C169.527 239.401 164.709 242.463 163.474 247.754C162.059 253.814 171.076 258.658 171.076 258.658C171.076 258.658 166.851 262.752 166.116 268.471C165.354 274.405 173.746 280.572 173.746 280.572C173.746 280.572 171.936 286.518 174.897 291.91C179.959 301.128 236.426 310.027 243.456 311.294L257.02 238.706C257.02 238.706 212.659 213.974 200.428 214.802C190.124 215.5 148.763 220.75 148.965 233.253Z" fill="#AD6359"/>
<path d="M169.694 239.164C180.468 235.831 192.031 235.047 203.198 234.41C203.446 234.396 203.465 234.781 203.216 234.792C192.103 235.297 180.861 238.745 169.791 239.685C169.485 239.711 169.403 239.255 169.694 239.164Z" fill="#263238"/>
<path d="M171.358 257.823C173.818 257.141 176.5 257.261 179.034 257.242C181.762 257.221 184.489 257.248 187.217 257.316C192.677 257.451 198.136 257.709 203.582 258.125C203.823 258.143 203.854 258.512 203.6 258.507C198.157 258.382 192.714 258.337 187.272 258.437C184.548 258.487 181.825 258.56 179.102 258.651C176.57 258.736 173.904 259.033 171.398 258.559C171.026 258.488 170.987 257.925 171.358 257.823Z" fill="#263238"/>
<path d="M173.975 280.571C176.09 279.894 178.723 280.312 180.913 280.412C183.4 280.524 185.886 280.624 188.374 280.709C193.348 280.879 198.322 281.048 203.301 281.048C203.549 281.048 203.569 281.428 203.319 281.43C198.261 281.455 193.206 281.549 188.148 281.53C185.664 281.521 183.181 281.499 180.698 281.463C178.587 281.433 175.945 281.63 173.956 280.818C173.845 280.772 173.87 280.605 173.975 280.571Z" fill="#263238"/>
<path d="M261.95 237.982L237.534 317.857C237.534 317.857 326.459 322.124 345.532 308.456C358.791 298.954 357.699 281.059 351.711 274.9C338.628 261.447 261.95 237.982 261.95 237.982Z" fill="#EBEBEB"/>
<path d="M260.963 314.77C264.801 303.661 278.831 257.637 281.179 247.492C281.342 246.789 280.929 246.515 280.664 247.226C268.346 280.242 263.724 303.521 260.524 314.605C260.443 314.883 260.864 315.052 260.963 314.77Z" fill="#263238"/>
<path d="M261.927 237.154C262.411 237.059 271.018 239.246 273.718 240.036C279.077 241.605 284.394 243.317 289.666 245.143C300.18 248.785 310.481 252.987 320.546 257.671C321.047 257.904 321.546 258.145 322.047 258.381C325.722 259.255 329.314 260.498 332.892 261.667C332.993 261.7 332.946 261.854 332.845 261.82C329.986 260.886 327.072 260.146 324.163 259.382C325.778 260.155 327.385 260.941 328.978 261.754C331.793 263.194 334.547 264.74 337.347 266.206C337.441 266.255 337.354 266.39 337.26 266.342C332.559 263.938 327.685 261.812 322.864 259.648C317.97 257.453 313.02 255.384 308.034 253.394C298.217 249.477 288.211 245.966 278.079 242.894C275.232 242.03 272.373 241.201 269.507 240.402C268.093 240.008 262.252 238.056 262.012 238.033C261.957 238.027 261.763 238.518 261.703 238.706C261.631 238.935 261.361 238.935 261.417 238.717C261.483 238.447 261.804 237.179 261.927 237.154Z" fill="#263238"/>
<path d="M249.884 318.215C252.46 318.034 261.983 318.494 264.529 318.489C269.668 318.481 274.8 318.534 279.94 318.4C290.254 318.13 300.544 317.392 310.815 316.429C313.663 316.162 316.507 315.855 319.351 315.552C322.309 315.237 325.316 315.033 328.243 314.509C328.355 314.489 328.397 314.662 328.286 314.679C325.73 315.05 323.209 315.648 320.662 316.081C318.114 316.514 315.557 316.89 312.997 317.247C307.858 317.963 302.688 318.47 297.516 318.889C287.189 319.726 276.801 319.981 266.442 319.814C263.526 319.767 252.628 319.314 249.797 318.76C249.459 318.696 249.59 318.235 249.884 318.215Z" fill="#263238"/>
<path d="M78.9215 333.914L172.305 340.591L137.392 219.37L44.0095 212.691L78.9215 333.914Z" fill="white"/>
<path d="M72.5302 333.456L165.912 340.134L131 218.912L37.6182 212.234L72.5302 333.456Z" fill="#553F95"/>
<path d="M121.077 218.215C121.494 220.11 122.773 222.12 124.726 223.309C125.58 223.844 125.903 222.711 125.056 222.203C123.821 221.432 122.97 220.189 122.569 218.978C122.507 218.764 122.438 218.522 122.403 218.31C122.224 217.508 122.205 216.719 122.428 216.052C122.54 215.718 122.728 215.469 123.01 215.278C123.01 215.278 123.055 215.255 123.074 215.231C123.119 215.208 123.173 215.212 123.191 215.186C123.244 215.19 123.368 215.172 123.368 215.172C123.591 215.136 123.785 215.176 124.02 215.272C124.396 215.403 124.738 215.691 125.044 216.028C125.432 216.476 125.639 216.833 125.884 217.323C126.025 217.543 126.121 217.786 126.244 218.032L126.29 218.192C126.34 218.275 126.363 218.355 126.386 218.436C126.402 218.489 126.444 218.545 126.433 218.596L127.758 218.691C127.534 217.913 127.144 217.096 126.661 216.328C125.829 215.06 124.634 213.976 123.24 213.823C121.987 213.707 121.269 214.549 121.013 215.555C120.802 216.355 120.834 217.278 121.077 218.215Z" fill="#FFC727"/>
<path d="M113.769 217.693C114.184 219.588 115.465 221.597 117.417 222.787C118.272 223.322 118.595 222.189 117.748 221.681C116.513 220.91 115.662 219.667 115.261 218.456C115.199 218.242 115.13 218.001 115.093 217.787C114.915 216.986 114.895 216.197 115.118 215.53C115.23 215.196 115.417 214.947 115.7 214.758C115.7 214.758 115.746 214.734 115.765 214.71C115.81 214.686 115.863 214.691 115.882 214.665C115.936 214.669 116.06 214.651 116.06 214.651C116.283 214.615 116.477 214.655 116.712 214.751C117.088 214.882 117.43 215.17 117.734 215.507C118.124 215.956 118.33 216.312 118.574 216.802C118.716 217.023 118.812 217.266 118.934 217.511L118.981 217.671C119.031 217.754 119.053 217.834 119.077 217.915C119.092 217.968 119.135 218.024 119.123 218.075L120.449 218.17C120.225 217.392 119.834 216.575 119.352 215.807C118.519 214.539 117.325 213.455 115.931 213.302C114.678 213.186 113.959 214.028 113.705 215.034C113.494 215.833 113.525 216.755 113.769 217.693Z" fill="#FFC727"/>
<path d="M106.46 217.169C106.875 219.064 108.155 221.074 110.108 222.264C110.963 222.798 111.285 221.666 110.439 221.158C109.204 220.387 108.352 219.143 107.953 217.932C107.891 217.718 107.821 217.476 107.785 217.264C107.606 216.463 107.587 215.674 107.81 215.006C107.922 214.673 108.11 214.424 108.393 214.234C108.393 214.234 108.438 214.211 108.458 214.186C108.503 214.163 108.556 214.167 108.574 214.141C108.627 214.145 108.752 214.128 108.752 214.128C108.975 214.091 109.169 214.131 109.404 214.227C109.78 214.359 110.122 214.647 110.426 214.984C110.816 215.432 111.022 215.789 111.266 216.279C111.408 216.5 111.504 216.743 111.626 216.987L111.673 217.148C111.722 217.231 111.745 217.311 111.769 217.391C111.783 217.445 111.826 217.501 111.815 217.552L113.141 217.647C112.917 216.869 112.526 216.053 112.044 215.283C111.211 214.015 110.016 212.931 108.623 212.779C107.37 212.663 106.651 213.504 106.396 214.511C106.185 215.311 106.216 216.233 106.46 217.169Z" fill="#FFC727"/>
<path d="M99.1516 216.647C99.567 218.542 100.847 220.551 102.8 221.741C103.655 222.276 103.977 221.143 103.131 220.635C101.896 219.864 101.044 218.621 100.644 217.41C100.581 217.196 100.512 216.953 100.477 216.741C100.298 215.941 100.279 215.151 100.502 214.484C100.614 214.15 100.802 213.9 101.085 213.711C101.085 213.711 101.13 213.688 101.15 213.663C101.195 213.641 101.248 213.645 101.266 213.62C101.319 213.623 101.444 213.607 101.444 213.607C101.667 213.57 101.86 213.61 102.096 213.706C102.472 213.838 102.814 214.125 103.119 214.463C103.507 214.911 103.715 215.267 103.959 215.757C104.101 215.977 104.197 216.22 104.319 216.466L104.366 216.626C104.415 216.709 104.438 216.789 104.462 216.87C104.478 216.923 104.519 216.979 104.508 217.03L105.834 217.125C105.61 216.347 105.219 215.532 104.737 214.762C103.905 213.494 102.709 212.41 101.316 212.257C100.063 212.141 99.344 212.983 99.0893 213.989C98.8753 214.787 98.907 215.71 99.1516 216.647Z" fill="#FFC727"/>
<path d="M91.8422 216.124C92.2587 218.019 93.5379 220.029 95.4906 221.219C96.3452 221.753 96.6679 220.621 95.8211 220.113C94.5861 219.342 93.7349 218.098 93.3341 216.888C93.2719 216.673 93.2028 216.432 93.1677 216.219C92.9889 215.418 92.9696 214.629 93.1926 213.961C93.3047 213.628 93.4915 213.379 93.7745 213.189C93.7745 213.189 93.8198 213.166 93.8379 213.141C93.8832 213.119 93.9363 213.122 93.9556 213.097C94.0088 213.101 94.1333 213.083 94.1333 213.083C94.3563 213.046 94.5499 213.086 94.7853 213.182C95.16 213.314 95.503 213.602 95.8075 213.939C96.197 214.388 96.403 214.744 96.6475 215.234C96.789 215.455 96.8852 215.698 97.0075 215.942L97.0539 216.103C97.1037 216.186 97.1263 216.266 97.1501 216.346C97.166 216.4 97.2078 216.456 97.1965 216.507L98.5221 216.602C98.298 215.824 97.9074 215.008 97.4263 214.238C96.5943 212.97 95.3989 211.887 94.0054 211.734C92.7511 211.618 92.0335 212.459 91.7788 213.466C91.5671 214.265 91.5988 215.187 91.8422 216.124Z" fill="#FFC727"/>
<path d="M84.5328 215.601C84.9483 217.496 86.2286 219.505 88.1813 220.695C89.0359 221.23 89.3585 220.097 88.5118 219.589C87.2768 218.818 86.4255 217.575 86.0248 216.364C85.9625 216.15 85.8935 215.909 85.8584 215.696C85.6795 214.894 85.6603 214.105 85.8833 213.438C85.9954 213.104 86.1833 212.855 86.4652 212.666C86.4652 212.666 86.5104 212.642 86.5297 212.618C86.5749 212.594 86.6282 212.599 86.6463 212.573C86.6995 212.576 86.824 212.56 86.824 212.56C87.047 212.524 87.2406 212.563 87.476 212.659C87.8518 212.791 88.1937 213.078 88.4982 213.416C88.8865 213.863 89.0937 214.22 89.3382 214.71C89.4797 214.931 89.5759 215.173 89.6981 215.419L89.7446 215.58C89.7944 215.662 89.8181 215.743 89.8408 215.823C89.8566 215.876 89.8985 215.932 89.8872 215.984L91.2128 216.078C90.9886 215.301 90.5981 214.485 90.117 213.715C89.285 212.447 88.0896 211.363 86.695 211.21C85.4418 211.094 84.723 211.936 84.4683 212.942C84.2578 213.743 84.2895 214.664 84.5328 215.601Z" fill="#FFC727"/>
<path d="M77.2247 215.079C77.6401 216.974 78.9205 218.984 80.8732 220.173C81.7278 220.708 82.0504 219.575 81.2037 219.067C79.9687 218.296 79.1174 217.053 78.7167 215.842C78.6544 215.628 78.5854 215.386 78.5503 215.174C78.3714 214.372 78.3522 213.583 78.5752 212.916C78.6873 212.582 78.8751 212.332 79.157 212.143C79.157 212.143 79.2023 212.119 79.2215 212.095C79.2668 212.072 79.32 212.076 79.3381 212.051C79.3913 212.054 79.5159 212.038 79.5159 212.038C79.7389 212.001 79.9324 212.041 80.1679 212.137C80.5437 212.269 80.8856 212.556 81.1912 212.894C81.5795 213.342 81.7867 213.698 82.0312 214.188C82.1727 214.408 82.2689 214.651 82.3912 214.897L82.4376 215.058C82.4874 215.14 82.51 215.221 82.5338 215.301C82.5496 215.354 82.5915 215.41 82.5802 215.462L83.9058 215.556C83.6816 214.779 83.2911 213.963 82.81 213.193C81.9768 211.925 80.7826 210.841 79.3891 210.688C78.136 210.572 77.4171 211.414 77.1624 212.42C76.9496 213.22 76.9813 214.142 77.2247 215.079Z" fill="#FFC727"/>
<path d="M69.9153 214.556C70.3307 216.451 71.6111 218.461 73.5638 219.651C74.4184 220.185 74.741 219.053 73.8943 218.545C72.6593 217.774 71.808 216.531 71.4073 215.32C71.345 215.105 71.276 214.864 71.2397 214.651C71.0609 213.85 71.0416 213.061 71.2647 212.394C71.3767 212.06 71.5635 211.811 71.8465 211.621C71.8465 211.621 71.8918 211.598 71.911 211.573C71.9563 211.55 72.0095 211.554 72.0276 211.529C72.0808 211.532 72.2053 211.515 72.2053 211.515C72.4283 211.478 72.6219 211.519 72.8574 211.615C73.2332 211.746 73.5751 212.034 73.8796 212.371C74.2678 212.82 74.475 213.176 74.7195 213.666C74.861 213.887 74.9572 214.129 75.0795 214.374L75.1259 214.535C75.1757 214.618 75.1984 214.698 75.2221 214.778C75.2368 214.832 75.2798 214.888 75.2685 214.939L76.5941 215.034C76.37 214.256 75.9794 213.44 75.4972 212.67C74.6652 211.401 73.4698 210.318 72.0763 210.166C70.8232 210.05 70.1044 210.891 69.8497 211.898C69.6402 212.697 69.6719 213.619 69.9153 214.556Z" fill="#FFC727"/>
<path d="M62.6072 214.034C63.0226 215.929 64.3029 217.938 66.2556 219.129C67.1103 219.663 67.4329 218.53 66.5862 218.023C65.3512 217.251 64.4999 216.008 64.0991 214.797C64.0369 214.583 63.9679 214.341 63.9328 214.128C63.7539 213.328 63.7346 212.537 63.9576 211.87C64.0697 211.536 64.2576 211.288 64.5395 211.098C64.5395 211.098 64.5848 211.074 64.604 211.05C64.6493 211.026 64.7025 211.03 64.7206 211.005C64.7738 211.009 64.8984 210.992 64.8984 210.992C65.1214 210.955 65.3149 210.995 65.5504 211.091C65.9262 211.223 66.2681 211.511 66.5726 211.848C66.9609 212.296 67.168 212.652 67.4125 213.142C67.554 213.363 67.6503 213.605 67.7725 213.851L67.8189 214.012C67.8687 214.094 67.8925 214.175 67.9151 214.255C67.931 214.309 67.9729 214.364 67.9615 214.416L69.2871 214.511C69.063 213.733 68.6724 212.917 68.1902 212.147C67.3582 210.879 66.1628 209.795 64.7693 209.643C63.5162 209.527 62.7973 210.368 62.5426 211.375C62.331 212.175 62.3627 213.097 62.6072 214.034Z" fill="#FFC727"/>
<path d="M55.2979 213.511C55.7133 215.406 56.9936 217.416 58.9452 218.605C59.7998 219.14 60.1236 218.007 59.2757 217.499C58.0407 216.728 57.1894 215.485 56.7887 214.274C56.7276 214.06 56.6574 213.818 56.6223 213.606C56.4434 212.804 56.4242 212.015 56.6472 211.348C56.7593 211.014 56.9472 210.765 57.229 210.576C57.229 210.576 57.2743 210.552 57.2936 210.528C57.3388 210.504 57.3921 210.509 57.4113 210.484C57.4645 210.488 57.589 210.471 57.589 210.471C57.812 210.434 58.0056 210.474 58.2411 210.57C58.6169 210.702 58.9588 210.989 59.2633 211.327C59.6527 211.775 59.8587 212.131 60.1032 212.621C60.2447 212.841 60.3409 213.086 60.4632 213.33L60.5096 213.491C60.5594 213.573 60.5832 213.654 60.6058 213.734C60.6216 213.788 60.6635 213.843 60.6522 213.895L61.9778 213.99C61.7536 213.212 61.3631 212.396 60.882 211.626C60.0489 210.358 58.8546 209.274 57.4611 209.122C56.208 209.006 55.4892 209.847 55.2334 210.854C55.0228 211.652 55.0545 212.573 55.2979 213.511Z" fill="#FFC727"/>
<path d="M47.9885 212.989C48.4051 214.884 49.6842 216.893 51.6369 218.083C52.4916 218.618 52.8142 217.485 51.9675 216.977C50.7325 216.206 49.8812 214.963 49.4805 213.752C49.4182 213.538 49.3492 213.297 49.3141 213.083C49.1352 212.282 49.116 211.493 49.339 210.826C49.4511 210.492 49.6389 210.243 49.9219 210.052C49.9219 210.052 49.9672 210.029 49.9865 210.004C50.0318 209.981 50.085 209.985 50.1031 209.96C50.1563 209.963 50.2808 209.946 50.2808 209.946C50.5038 209.91 50.6974 209.95 50.9328 210.046C51.3087 210.177 51.6505 210.465 51.955 210.802C52.3433 211.251 52.5504 211.607 52.795 212.097C52.9365 212.318 53.0327 212.56 53.1549 212.806L53.2014 212.966C53.2512 213.049 53.2738 213.129 53.2976 213.21C53.3134 213.263 53.3553 213.319 53.344 213.37L54.6696 213.465C54.4454 212.687 54.0549 211.871 53.5738 211.101C52.7418 209.834 51.5464 208.749 50.1529 208.597C48.8986 208.481 48.1809 209.324 47.9262 210.329C47.7134 211.129 47.7451 212.051 47.9885 212.989Z" fill="#FFC727"/>
<path d="M40.6803 212.465C41.0957 214.36 42.376 216.369 44.3287 217.56C45.1834 218.094 45.506 216.961 44.6593 216.454C43.4243 215.682 42.573 214.439 42.1723 213.228C42.11 213.014 42.0409 212.773 42.0059 212.56C41.827 211.76 41.8078 210.97 42.0308 210.302C42.1428 209.969 42.3308 209.72 42.6126 209.53C42.6126 209.53 42.6579 209.507 42.6772 209.482C42.7224 209.459 42.7756 209.463 42.7937 209.437C42.8469 209.442 42.9715 209.424 42.9715 209.424C43.1945 209.387 43.388 209.427 43.6235 209.523C43.9993 209.655 44.3412 209.943 44.6457 210.28C45.034 210.729 45.2411 211.085 45.4856 211.574C45.6271 211.794 45.7233 212.038 45.8456 212.283L45.892 212.444C45.9418 212.526 45.9656 212.607 45.9882 212.687C46.0041 212.741 46.046 212.797 46.0347 212.848L47.3602 212.943C47.1361 212.165 46.7456 211.349 46.2645 210.579C45.4313 209.311 44.237 208.228 42.8424 208.075C41.5893 207.959 40.8705 208.8 40.6158 209.807C40.4052 210.607 40.4358 211.529 40.6803 212.465Z" fill="#FFC727"/>
<path d="M42.213 239.493C37.2695 249.459 24.9749 261.766 23.8825 269.942C22.8954 277.323 29.0908 279.993 29.0908 279.993C29.0908 279.993 20.7582 283.971 21.0072 291.552C21.1351 295.453 27.5683 298.677 27.5683 298.677C27.5683 298.677 21.0321 302.153 21.6751 308.879C22.1879 314.24 28.5565 316.668 28.5565 316.668C28.5565 316.668 23.8633 322.883 26.1612 328.178C30.8217 338.917 77.6933 339.451 85.1328 322.512C88.6012 314.618 77.1442 315.099 77.1442 315.099C77.1442 315.099 93.4473 310.483 93.8073 300.96C94.1661 291.437 79.3199 292.95 79.3199 292.95C79.3199 292.95 95.0796 288.34 94.4412 278.429C93.7767 268.112 79.1898 272.132 79.1898 272.132C79.1898 272.132 89.6936 265.285 87.442 257.808C83.7257 245.462 63.8093 260.706 53.5375 258.179L48.0496 241.369L42.213 239.493Z" fill="#AD6359"/>
<path d="M32.6475 253.942C36.4918 244.104 24.2209 231.759 26.5257 221.829C29.6432 208.397 44.8618 221.772 48.0507 241.368L47.8141 257.01L32.6475 253.942Z" fill="#AD6359"/>
<path d="M29.5074 317.196C29.3523 317.182 29.3013 317.394 29.4576 317.434C44.8312 321.314 62.9285 320.93 77.7747 315.147C78.2615 314.958 78.1607 314.094 77.5834 314.203C61.1253 317.278 46.2689 318.715 29.5074 317.196Z" fill="#263238"/>
<path d="M27.3408 298.769C27.1585 298.753 27.128 299.05 27.3182 299.096C43.1809 303.008 63.5523 302.025 79.869 293.371C80.4282 293.074 80.6297 292.255 79.9584 292.549C68.6656 297.493 42.4224 300.213 27.3408 298.769Z" fill="#263238"/>
<path d="M80.1803 271.132C64.2089 278.832 47.3409 280.71 29.7338 280.185C29.504 280.177 29.5187 280.498 29.7089 280.555C38.251 283.127 49.5087 282.309 58.2149 280.941C66.5532 279.632 73.8105 276.799 80.4542 271.683C80.7112 271.484 80.5221 270.968 80.1803 271.132Z" fill="#263238"/>
<path d="M69.153 155.2H56.572V141.628H43V129.047H56.572V115.474H69.153V129.047H82.726V141.628H69.153V155.2ZM58.362 153.409H67.362V139.837H80.935V130.837H67.362V117.264H58.362V130.837H44.79V139.837H58.362V153.409Z" fill="#845EF1"/>
<path d="M374.182 244.898H361.601V231.326H348.029V218.745H361.601V205.172H374.182V218.745H387.755V231.326H374.182V244.898ZM363.391 243.108H372.391V229.536H385.964V220.536H372.391V206.963H363.391V220.536H349.819V229.536H363.391V243.108Z" fill="#845EF1"/>
<path d="M308.078 13.566V26.151H294.502V39.727H281.926V26.151H268.35V13.566H281.926V0H294.502V13.566H308.078Z" fill="#845EF1"/>
</svg>
