<svg width="125" height="129" viewBox="0 0 125 129" fill="none" xmlns="http://www.w3.org/2000/svg">
<path d="M1.46645 22.9822C1.54796 23.2942 6.23236 26.3729 9.84196 25.5397C13.4519 24.7065 14.0771 25.0361 14.0447 25.8805C14.0124 26.7251 12.9759 27.8906 13.3123 30.4081C13.7015 33.321 14.5884 35.9623 15.4499 36.8905C16.3113 37.8186 17.6892 37.8078 17.9867 37.0404C18.2841 36.2731 18.708 36.1905 19.3449 36.5821C19.9818 36.9737 20.8118 37.3921 20.9482 35.7536C21.0849 34.1148 22.4649 35.1353 22.4649 35.1353C22.4649 35.1353 23.481 35.7057 23.7278 34.502C23.9443 33.4469 23.5585 33.2293 23.7519 33.2722C24.6576 33.473 25.5537 33.1787 25.753 32.5596C25.9523 31.9404 25.3217 30.9026 25.7976 30.4231C26.2735 29.9433 27.04 30.6965 27.4095 29.9797C27.779 29.263 26.3728 28.4409 26.996 27.7392C27.6192 27.0374 28.4997 27.3911 28.5918 26.5299C28.6839 25.6688 27.1879 25.3804 27.4967 24.6754C27.8056 23.9704 29.1776 24.6054 28.9851 23.2245C28.7929 21.8433 24.8232 20.7769 21.9237 20.991C19.8422 21.1447 18.8032 21.9868 17.8142 22.5092C16.992 22.9434 16.339 22.3384 16.6511 21.3103C16.9631 20.2821 18.2095 18.8783 17.9575 16.155C17.7055 13.4316 16.8547 10.18 16.46 9.74106C16.0653 9.30212 14.6267 9.32476 14.1677 10.5751C13.7084 11.8255 13.7084 11.8255 13.7084 11.8255C13.7084 11.8255 12.8012 9.9695 11.9624 10.1824C11.1235 10.3952 11.0904 12.594 11.0904 12.594C11.0904 12.594 9.59543 10.9515 8.79377 11.3657C7.99211 11.78 8.52665 13.997 8.52665 13.997C8.52665 13.997 6.99941 13.1985 6.30729 13.5272C5.61517 13.8559 6.14141 15.6875 6.14141 15.6875C6.14141 15.6875 4.57642 15.0254 4.16944 15.8786C3.76246 16.7318 4.88272 18.3832 4.88272 18.3832C4.88272 18.3832 3.23136 17.9316 2.80121 18.6601C2.37107 19.389 3.46845 20.9157 3.46845 20.9157C3.46845 20.9157 0.825239 20.5279 1.46645 22.9822Z" fill="#FCDA7A"/>
<path d="M17.4238 31.3521C17.4115 31.3507 17.4241 31.1213 17.4367 30.7091C17.4338 30.2967 17.4167 29.6975 17.2805 28.9737C17.1453 28.2516 16.8844 27.4078 16.4431 26.5479C16.0101 25.6844 15.3718 24.8209 14.5567 24.0777C14.1397 23.7175 13.7075 23.3971 13.2591 23.1363C12.8121 22.8729 12.3616 22.6521 11.9318 22.4419C11.0698 22.0276 10.2907 21.6369 9.69381 21.21C9.09321 20.789 8.67737 20.3503 8.4317 20.0193C8.30986 19.8523 8.22463 19.7159 8.17258 19.6203C8.1211 19.5242 8.0965 19.4728 8.10108 19.4701C8.11338 19.4622 8.22292 19.6636 8.47803 19.9811C8.73486 20.2963 9.15442 20.7143 9.75416 21.1177C10.3508 21.5272 11.1247 21.903 11.9918 22.3107C12.424 22.5177 12.879 22.737 13.3334 23.0025C13.7893 23.2651 14.2326 23.592 14.6573 23.9592C15.4887 24.7168 16.1351 25.5997 16.5684 26.4811C17.01 27.3593 17.2637 28.2196 17.3869 28.954C17.5111 29.6901 17.5113 30.2964 17.4959 30.7115C17.4847 30.9191 17.4619 31.0793 17.451 31.1881C17.4384 31.2963 17.429 31.353 17.4238 31.3521Z" fill="#FCDA7A"/>
<path d="M23.9046 25.7929C23.8989 25.8049 23.7001 25.7079 23.3312 25.5583C22.9619 25.4113 22.4194 25.2149 21.7273 25.0652C21.036 24.9153 20.1937 24.8209 19.2608 24.8715C18.7938 24.8935 18.2993 24.9438 17.7802 24.9159C17.2634 24.8947 16.7157 24.7577 16.2406 24.4575C15.7653 24.1603 15.3781 23.764 15.0532 23.3524C14.7283 22.9387 14.4554 22.5104 14.2212 22.0873C13.7564 21.2385 13.4644 20.4039 13.3197 19.6833C13.165 18.9633 13.1584 18.3617 13.1759 17.9528C13.185 17.7476 13.2027 17.5894 13.2205 17.4827C13.2356 17.3759 13.2462 17.3204 13.2517 17.321C13.2688 17.323 13.2356 17.5474 13.2359 17.9545C13.2368 18.36 13.2599 18.9527 13.4258 19.6589C13.582 20.3659 13.88 21.1833 14.3445 22.0153C14.5781 22.4295 14.8504 22.8511 15.1699 23.2545C15.4896 23.6564 15.8666 24.0383 16.3201 24.322C16.7737 24.6075 17.2857 24.7377 17.789 24.7612C18.2924 24.7906 18.7838 24.7445 19.2551 24.726C20.2012 24.6827 21.0554 24.79 21.751 24.9559C22.4483 25.1214 22.9902 25.3357 23.3546 25.5012C23.5365 25.5856 23.6758 25.655 23.7676 25.7073C23.8597 25.7588 23.9069 25.7879 23.9046 25.7929Z" fill="#FCDA7A"/>
<path d="M14.47 22.967C14.4529 22.9843 14.2249 22.7644 13.838 22.4348C13.4513 22.1049 12.897 21.6742 12.2409 21.2685C11.5837 20.864 10.9534 20.5638 10.488 20.3683C10.023 20.1722 9.72699 20.069 9.73385 20.0452C9.73872 20.0269 10.0467 20.0928 10.5266 20.2639C11.006 20.4344 11.6535 20.7228 12.3199 21.133C12.9851 21.5443 13.5374 21.9959 13.9092 22.3504C14.2821 22.7053 14.4832 22.954 14.47 22.967Z" fill="#FCDA7A"/>
<path d="M19.4647 28.6473C19.4192 28.6711 18.9834 27.5633 18.0685 26.4588C17.1633 25.3448 16.1749 24.7168 16.2052 24.6745C16.2146 24.6589 16.4726 24.7945 16.8521 25.0761C17.2313 25.3566 17.7235 25.7952 18.1857 26.3571C18.6465 26.9201 18.984 27.4928 19.189 27.9244C19.3949 28.356 19.4816 28.6406 19.4647 28.6473Z" fill="#FCDA7A"/>
<path d="M15.9212 11.8802C15.9258 11.8776 15.9512 11.9199 15.9958 12.0031C16.039 12.0869 16.1059 12.2092 16.1809 12.3724C16.3216 12.7022 16.5115 13.1906 16.6456 13.8238C16.9233 15.0839 16.9216 16.925 16.3722 18.8195C16.2404 19.2931 16.0802 19.7482 15.9152 20.1778C15.7536 20.605 15.6126 21.0274 15.6172 21.4373C15.6163 21.8471 15.8005 22.2117 16.0647 22.4545C16.3264 22.7023 16.6342 22.8585 16.9193 22.9764C17.4956 23.2071 17.9955 23.3171 18.3379 23.2803C18.6825 23.2483 18.8415 23.1116 18.8492 23.1295C18.8512 23.1325 18.8155 23.1675 18.7337 23.2142C18.6528 23.2612 18.5221 23.3162 18.345 23.3412C17.9884 23.3985 17.4716 23.3015 16.8807 23.0801C16.5861 22.9658 16.2638 22.8117 15.9792 22.5504C15.8382 22.4195 15.7101 22.259 15.6194 22.0688C15.5291 21.8783 15.4822 21.6607 15.4764 21.4396C15.4679 20.9933 15.6152 20.5532 15.7753 20.1222C15.9389 19.6912 16.0945 19.2449 16.2252 18.7757C16.7677 16.9035 16.7858 15.0948 16.5395 13.8462C16.4205 13.2191 16.2489 12.731 16.126 12.3965C15.989 12.0678 15.9106 11.8858 15.9212 11.8802Z" fill="#FCDA7A"/>
<path d="M34.1548 2.59539C33.8888 2.74827 33.8305 3.12518 33.8228 3.44652C33.8165 3.70936 33.8531 3.97102 33.9186 4.22504C34.2115 5.36164 34.4906 6.51236 34.9659 7.5834C35.4052 8.5733 36.0244 9.50145 36.8778 10.145C37.0632 10.2847 37.2625 10.4143 37.3986 10.6045C37.5348 10.7951 37.5925 11.0685 37.4678 11.2669C37.2928 11.5453 36.9004 11.5224 36.5781 11.5142C35.4919 11.4857 34.4448 11.9984 33.6086 12.7119C32.7723 13.4255 32.1162 14.3316 31.4684 15.2286C31.1976 15.6034 30.915 16.0897 31.1227 16.5048C31.2576 16.7753 31.5708 16.9111 31.8665 16.9141C32.1623 16.917 32.4474 16.8106 32.7248 16.7056C32.7248 16.7056 32.2054 18.3617 32.6688 18.7131C33.1321 19.0644 33.9967 18.2391 33.9967 18.2391C33.9967 18.2391 33.5333 19.7309 34.3362 19.7944C35.139 19.8579 35.9112 19.1914 35.9112 19.1914C35.9112 19.1914 35.4352 20.5564 36.2907 20.5564C37.1461 20.5564 37.7021 19.5089 37.7021 19.5089C37.7021 19.5089 37.7639 20.747 38.5049 20.7787C39.2459 20.8105 39.7175 19.7312 39.7175 19.7312C39.7175 19.7312 39.8019 20.9386 40.6047 20.7793C41.4075 20.6199 41.6546 19.0964 41.6546 19.0964C41.6546 19.0964 42.3899 20.2075 43.0102 19.8582C43.2273 19.7359 43.3912 19.4892 43.5125 19.2205C43.757 18.6784 43.809 18.0645 43.6909 17.4794C43.4947 16.5069 43.0843 14.7435 42.5807 14.1131C41.8705 13.2244 40.45 12.4153 40.6353 11.7564C40.8206 11.0976 41.1601 11.0658 42.3336 10.9388C43.507 10.8118 46.2858 8.01852 46.7182 7.22501C47.1507 6.43151 46.4711 5.51099 45.3288 5.79676L45.02 5.73326C45.02 5.73326 45.5139 4.39997 44.8346 4.2415C44.1554 4.08274 43.3835 4.76012 43.3835 4.76012C43.3835 4.76012 43.5997 3.25748 43.1673 3.00347C42.7348 2.74945 41.5925 3.70172 41.5925 3.70172C41.5925 3.70172 41.4072 2.01945 40.6971 2.01945C39.9869 2.01945 39.5545 3.16223 39.5545 3.16223C39.5545 3.16223 39.2456 1.70222 38.7517 1.73397C38.2575 1.76573 37.64 3.19398 37.64 3.19398C37.64 3.19398 36.9917 1.86069 36.5283 1.92419C36.0653 1.9877 35.8491 3.66997 35.8491 3.66997C35.8491 3.66997 35.0852 2.06031 34.1548 2.59539Z" fill="#FCDA7A"/>
<path d="M43.0097 7.47491C43.0157 7.48373 42.8898 7.58693 42.6596 7.76832C42.4299 7.9509 42.0933 8.20962 41.7018 8.55624C41.3131 8.90434 40.8652 9.34475 40.4871 9.92423C40.1122 10.4984 39.7993 11.2261 39.7956 12.0284C39.7833 12.8304 40.0221 13.576 40.2506 14.2351C40.484 14.8961 40.7117 15.4917 40.8472 16.0112C40.9856 16.5298 41.0397 16.9658 41.0388 17.2669C41.0451 17.4171 41.0254 17.5338 41.0217 17.6123C41.0142 17.6911 41.008 17.7317 41.0028 17.7314C40.9891 17.7305 40.9957 17.5647 40.9811 17.2692C40.9642 16.9732 40.8956 16.5486 40.746 16.0412C40.5993 15.5323 40.3639 14.9466 40.1216 14.2837C39.8851 13.6233 39.6343 12.863 39.6466 12.0257C39.6509 11.1855 39.9824 10.4296 40.3733 9.84543C40.7686 9.2542 41.2328 8.81496 41.6337 8.47392C42.0381 8.13435 42.385 7.88828 42.6256 7.7204C42.867 7.55312 43.0039 7.46639 43.0097 7.47491Z" fill="#FCDA7A"/>
<path d="M40.3256 13.7004C40.3115 13.7071 40.1834 13.4558 40.1122 13.0077C40.0393 12.5646 40.0493 11.9146 40.3015 11.2657C40.5538 10.6166 40.9822 10.1383 41.3323 9.86895C41.6841 9.59495 41.9455 9.50351 41.9512 9.51821C41.9632 9.54114 41.7224 9.66639 41.3989 9.95304C41.0763 10.2356 40.6808 10.7039 40.4402 11.3228C40.2 11.9417 40.1725 12.5611 40.2169 12.9945C40.2592 13.4308 40.3499 13.6921 40.3256 13.7004Z" fill="#FCDA7A"/>
<path d="M37.072 5.12732C37.0843 5.12879 37.0703 5.29667 37.0632 5.59919C37.0592 5.90172 37.0649 6.34125 37.1438 6.87486C37.2216 7.40759 37.3749 8.03586 37.6569 8.68649C37.7947 9.01224 37.9772 9.34122 38.1219 9.71078C38.2669 10.0753 38.3693 10.5037 38.2935 10.9335C38.2232 11.3616 38.0247 11.7373 37.8016 12.0601C37.5768 12.3847 37.3214 12.662 37.0775 12.921C36.5861 13.4381 36.1071 13.8629 35.6989 14.2102C35.2894 14.5559 34.9496 14.8243 34.7131 15.0072C34.4763 15.1898 34.3422 15.2862 34.3356 15.2783C34.329 15.27 34.4511 15.1577 34.6768 14.9607C34.9219 14.7467 35.243 14.4662 35.6306 14.1275C36.0287 13.7712 36.4974 13.3402 36.9785 12.8231C37.2176 12.5635 37.4667 12.288 37.6823 11.9734C37.8968 11.6603 38.0816 11.3028 38.1462 10.9085C38.2157 10.5143 38.1248 10.1212 37.9861 9.76635C37.8485 9.40884 37.6689 9.07809 37.5311 8.74323C37.2502 8.07585 37.1049 7.43287 37.0394 6.88985C36.9728 6.34566 36.9831 5.90054 37.0051 5.59625C37.0188 5.44396 37.0311 5.32636 37.0451 5.24698C37.0577 5.16789 37.0669 5.12673 37.072 5.12732Z" fill="#FCDA7A"/>
<path d="M38.1133 10.0718C38.0862 10.0997 37.5542 9.57789 37.0317 8.82055C36.5063 8.06468 36.2006 7.3776 36.2355 7.36025C36.2741 7.33908 36.6344 7.98618 37.153 8.73176C37.6686 9.47911 38.1454 10.0412 38.1133 10.0718Z" fill="#FCDA7A"/>
<path d="M0.133691 47.4989C-0.0656506 47.7241 -0.00644841 48.0898 0.0827836 48.3882C0.155714 48.6323 0.267825 48.8619 0.404247 49.0753C1.01457 50.0302 1.6166 51.0025 2.37536 51.8392C3.07663 52.6127 3.92548 53.2722 4.90474 53.5953C5.11724 53.6655 5.33975 53.7217 5.5225 53.854C5.70497 53.9863 5.84025 54.22 5.78477 54.4423C5.70669 54.7542 5.33832 54.8574 5.03859 54.9518C4.02873 55.2693 3.21734 56.0734 2.6605 56.9954C2.10337 57.9177 1.77018 58.9605 1.44157 59.9921C1.30429 60.4234 1.1896 60.9609 1.50506 61.2781C1.71041 61.4845 2.03988 61.5109 2.3133 61.4198C2.58671 61.3289 2.81752 61.1408 3.04203 60.9562C3.04203 60.9562 3.05947 62.647 3.59143 62.8239C4.12339 63.0009 4.67308 61.9666 4.67308 61.9666C4.67308 61.9666 4.69282 63.4884 5.45186 63.2926C6.21091 63.0971 6.72285 62.2383 6.72285 62.2383C6.72285 62.2383 6.6931 63.6469 7.4816 63.3761C8.27011 63.1053 8.46859 61.964 8.46859 61.964C8.46859 61.964 8.89616 63.0853 9.58885 62.8801C10.2813 62.6749 10.3928 61.5309 10.3928 61.5309C10.3928 61.5309 10.8321 62.6173 11.5242 62.2162C12.2163 61.8152 11.9878 60.3329 11.9878 60.3329C11.9878 60.3329 12.9983 61.124 13.4656 60.606C13.6292 60.4246 13.7061 60.1456 13.7376 59.8592C13.8005 59.2821 13.6646 58.7 13.3806 58.1978C12.9085 57.3635 12.0021 55.8682 11.3492 55.4469C10.4285 54.8524 8.877 54.5564 8.8504 53.8905C8.8238 53.2245 9.12725 53.0878 10.1709 52.5995C11.2142 52.1112 12.9391 48.6573 13.0998 47.7891C13.2605 46.9209 12.3588 46.2876 11.3912 46.9124L11.0875 46.9515C11.0875 46.9515 11.1435 45.5664 10.47 45.6352C9.79649 45.704 9.28798 46.5725 9.28798 46.5725C9.28798 46.5725 9.03716 45.1193 8.56268 45.0219C8.08821 44.9246 7.32059 46.1638 7.32059 46.1638C7.32059 46.1638 6.64591 44.6721 5.99154 44.8967C5.33689 45.1213 5.28083 46.3114 5.28083 46.3114C5.28083 46.3114 4.55897 45.0634 4.1131 45.2492C3.66722 45.4347 3.52594 46.9468 3.52594 46.9468C3.52594 46.9468 2.52894 45.9234 2.12111 46.1283C1.71327 46.3335 2.01786 47.9522 2.01786 47.9522C2.01786 47.9522 0.830959 46.7116 0.133691 47.4989Z" fill="#FCDA7A"/>
<path d="M9.75645 49.1938C9.76503 49.2003 9.68009 49.3352 9.52221 49.5757C9.36549 49.8168 9.13297 50.1617 8.87614 50.6053C8.62246 51.0492 8.34189 51.597 8.16686 52.2505C7.99354 52.8982 7.92319 53.6673 8.16 54.4073C8.38879 55.1497 8.83181 55.7612 9.23993 56.2966C9.65292 56.8319 10.041 57.3088 10.3216 57.7448C10.6044 58.179 10.7846 58.5642 10.8738 58.842C10.9245 58.9784 10.9413 59.0925 10.9611 59.166C10.9777 59.241 10.984 59.2804 10.9791 59.2818C10.9482 59.2942 10.8295 58.6447 10.2349 57.8062C9.94721 57.3838 9.55482 56.9187 9.13268 56.3845C8.71684 55.8508 8.25781 55.2293 8.01814 54.4532C7.77046 53.6767 7.84969 52.875 8.03501 52.2123C8.22234 51.5423 8.51864 50.9902 8.78634 50.5492C9.05746 50.1082 9.30371 49.7718 9.47531 49.541C9.64748 49.3105 9.74815 49.1876 9.75645 49.1938Z" fill="#FCDA7A"/>
<path d="M9.14698 55.7809C9.13554 55.7918 8.94192 55.601 8.74143 55.2108C8.54095 54.8257 8.35533 54.223 8.39337 53.5444C8.43141 52.8659 8.68366 52.289 8.92562 51.9301C9.16843 51.5661 9.38207 51.3997 9.39208 51.4117C9.41067 51.4297 9.22649 51.6217 9.01456 51.988C8.80235 52.3505 8.57841 52.907 8.54209 53.5532C8.50606 54.1992 8.66593 54.7783 8.8361 55.1638C9.0057 55.5527 9.16729 55.7653 9.14698 55.7809Z" fill="#FCDA7A"/>
<path d="M3.58056 48.9092C3.59258 48.9066 3.63033 49.0656 3.7147 49.347C3.80164 49.6269 3.93892 50.0299 4.17173 50.4968C4.4031 50.9631 4.73257 51.4932 5.18731 52.0033C5.41211 52.2599 5.67866 52.5051 5.9229 52.8C6.166 53.0899 6.3888 53.453 6.44771 53.8737C6.51092 54.2909 6.44085 54.7004 6.3316 55.0685C6.22149 55.4393 6.06905 55.7753 5.92205 56.0913C5.62403 56.7234 5.30943 57.2668 5.03716 57.7157C4.76317 58.164 4.53037 58.5186 4.36678 58.762C4.2029 59.0052 4.10795 59.1363 4.09937 59.1307C4.09079 59.1248 4.16944 58.9825 4.31816 58.7297C4.48061 58.4536 4.69225 58.0935 4.94736 57.6595C5.20733 57.205 5.51021 56.6596 5.79849 56.0305C5.94121 55.7153 6.08821 55.3828 6.19232 55.0247C6.29613 54.6684 6.35934 54.2809 6.301 53.8975C6.24694 53.5127 6.04588 53.1796 5.81194 52.8964C5.57799 52.6107 5.31344 52.3625 5.08607 52.0976C4.62732 51.5714 4.301 51.0245 4.07792 50.5444C3.85369 50.064 3.73014 49.6501 3.6595 49.3626C3.62661 49.2179 3.60287 49.1053 3.59229 49.028C3.57942 48.9513 3.5757 48.9104 3.58056 48.9092Z" fill="#FCDA7A"/>
<path d="M6.02129 53.1366C6.00384 53.1722 5.35691 52.8603 4.64849 52.3276C3.93778 51.7972 3.45072 51.2597 3.47846 51.2318C3.50849 51.1995 4.03502 51.6808 4.73629 52.2038C5.43499 52.7295 6.04217 53.0972 6.02129 53.1366Z" fill="#FCDA7A"/>
<path d="M124.292 125.439C124.292 125.482 97.6074 125.516 64.6976 125.516C31.7764 125.516 5.09722 125.482 5.09722 125.439C5.09722 125.397 31.7764 125.363 64.6976 125.363C97.6074 125.363 124.292 125.397 124.292 125.439Z" fill="#263238"/>
<path d="M98.657 33.9358L102.382 33.7115C103.951 35.2138 105.932 36.3028 108.189 36.7673C114.681 38.103 120.997 33.7756 122.296 27.1024C123.595 20.4288 119.385 13.9364 112.894 12.6011C106.402 11.2655 100.086 15.5925 98.7871 22.2661C98.2446 25.0526 98.6656 27.8059 99.809 30.1673L99.8044 30.162L98.657 33.9358Z" fill="#845EF1"/>
<path d="M98.657 33.9358C98.657 33.9358 98.6776 33.857 98.7245 33.6965C98.7734 33.5307 98.8434 33.2913 98.9358 32.9774C99.1272 32.3329 99.4089 31.3853 99.7749 30.1526L99.7907 30.0994L99.8273 30.1408L99.8319 30.1458L99.7812 30.1811C99.0925 28.7661 98.4362 26.7354 98.5131 24.2623C98.5306 23.6473 98.5981 23.009 98.7188 22.3578C98.8703 21.7145 99.0036 21.0386 99.2641 20.3809C99.7383 19.0538 100.468 17.7223 101.482 16.5322C102.493 15.3424 103.785 14.2963 105.295 13.544C106.802 12.7904 108.527 12.3344 110.325 12.2962C112.123 12.2459 113.982 12.6614 115.695 13.4902C117.406 14.3213 118.982 15.5843 120.154 17.2201C120.301 17.4262 120.451 17.6288 120.593 17.8366C120.72 18.0545 120.847 18.2718 120.973 18.4887L121.163 18.8136L121.322 19.1541C121.427 19.3813 121.532 19.608 121.637 19.8341C121.734 20.0637 121.807 20.3027 121.893 20.5356C121.971 20.7714 122.071 20.9992 122.12 21.2426C122.236 21.7236 122.379 22.1961 122.432 22.6847C122.738 24.6195 122.587 26.5758 122.059 28.3516C121.518 30.1258 120.604 31.7099 119.47 32.9894C118.336 34.2727 116.988 35.2538 115.588 35.9168C114.186 36.5827 112.733 36.9299 111.357 37.0237C110.667 37.0881 109.998 37.0375 109.353 36.9978C108.715 36.8955 108.093 36.8249 107.516 36.6568C105.185 36.0303 103.476 34.8122 102.361 33.7347L102.384 33.7429C101.17 33.8076 100.236 33.8573 99.6008 33.8911C99.2916 33.9067 99.0559 33.9184 98.8923 33.9267C98.7339 33.9343 98.657 33.9358 98.657 33.9358C98.657 33.9358 98.7425 33.9276 98.9041 33.9158C99.0694 33.904 99.3076 33.8876 99.6202 33.8655C100.251 33.8232 101.176 33.7609 102.38 33.68L102.393 33.6791L102.402 33.6882C103.52 34.7511 105.225 35.9503 107.539 36.5618C108.113 36.7261 108.73 36.7935 109.363 36.8926C110.003 36.929 110.666 36.9775 111.349 36.9111C112.713 36.8138 114.15 36.4657 115.537 35.803C116.922 35.1433 118.254 34.1695 119.373 32.8983C120.492 31.6305 121.394 30.0635 121.927 28.3092C122.447 26.5529 122.595 24.6195 122.291 22.7079C122.239 22.2252 122.096 21.7586 121.983 21.2832C121.934 21.0427 121.834 20.8175 121.757 20.5847C121.673 20.3545 121.6 20.1184 121.505 19.8917C121.401 19.6683 121.298 19.4445 121.193 19.2199L121.036 18.8836L120.849 18.5625C120.724 18.3482 120.598 18.1333 120.473 17.9181C120.333 17.7126 120.184 17.5127 120.039 17.3092C118.881 15.6928 117.324 14.4451 115.635 13.6227C113.943 12.8031 112.105 12.3906 110.329 12.4382C108.551 12.4741 106.845 12.9221 105.353 13.6648C103.858 14.4063 102.578 15.4385 101.575 16.6139C100.568 17.7896 99.8419 19.1059 99.368 20.4194C99.1077 21.0701 98.9736 21.7395 98.8208 22.3769C98.6987 23.0222 98.6295 23.6549 98.6095 24.265C98.5228 26.7178 99.1632 28.7388 99.8376 30.152L99.9365 30.3593L99.787 30.1873L99.7824 30.182L99.8347 30.1702C99.4555 31.3889 99.164 32.3253 98.9658 32.9624C98.8666 33.2781 98.7911 33.5189 98.7388 33.6856C98.6861 33.8499 98.657 33.9358 98.657 33.9358Z" fill="#263238"/>
<path d="M116.515 23.7513C116.418 22.9772 116.043 22.2561 115.53 21.681C115.027 21.1177 114.375 20.6767 113.646 20.5241C112.872 20.3618 112.036 20.5423 111.391 21.0107C111.007 21.2894 110.694 21.6678 110.48 22.0976C110.26 21.7219 109.962 21.3946 109.607 21.1509C108.95 20.6999 108.109 20.5423 107.339 20.7255C106.615 20.8981 105.974 21.3564 105.486 21.9329C104.988 22.5218 104.631 23.2527 104.555 24.0292C104.459 25.0017 104.656 26.0622 105.156 26.893C105.685 27.7706 106.53 28.4736 107.397 28.9945C108.854 29.8704 110.773 30.9661 110.773 30.9661C110.773 30.9661 112.366 29.7069 113.801 28.792C114.654 28.2478 115.481 27.5222 115.987 26.6305C116.466 25.7864 116.635 24.721 116.515 23.7513Z" fill="#FF725E"/>
<path d="M94.2714 50.523C91.7953 42.2225 89.0479 34.9489 87.9228 30.541C84.7439 18.088 81.8096 3.59676 64.0982 4.89947C64.0982 4.89947 61.8691 5.32548 58.8941 6.42327C51.368 9.2004 46.0456 16.16 45.1424 24.3276L44.1806 33.0267C43.9972 45.7928 47.0403 53.7637 50.4914 62.9842C50.492 62.9636 50.504 63.0183 50.4914 62.9842L88.9009 67.8552H97.3468C97.3468 67.8546 96.8174 59.0566 94.2714 50.523Z" fill="#263238"/>
<path d="M61.7418 9.64434L62.8501 8.5586L74.8243 13.5193C76.5569 13.6177 77.928 15.0628 77.9806 16.8456L77.8754 56.9522C77.8905 59.672 77.3603 62.0272 75.763 64.1951L74.0813 66.4775C70.2469 71.6816 62.359 71.2532 59.3231 65.5193C59.1109 65.1186 58.9636 64.7673 58.8998 64.4821C58.8355 64.1246 58.7408 63.8894 58.7214 63.5851C58.365 60.3582 58.3447 57.5605 58.3447 57.5605C58.1313 54.0178 58.061 52.5639 58.0604 52.5971C58.0604 52.5971 50.7265 51.7304 48.7437 42.0528C47.7578 37.2398 47.9435 30.6186 48.2209 24.1018C48.6044 15.0836 54.6899 9.63552 61.7418 9.64434Z" fill="#FFBF9D"/>
<path d="M63.6068 31.0455C63.6163 31.7076 64.1694 32.245 64.842 32.2474C65.5133 32.25 66.0513 31.7167 66.0418 31.0549C66.0321 30.3931 65.479 29.8548 64.808 29.8524C64.1351 29.8495 63.5971 30.3837 63.6068 31.0455Z" fill="#263238"/>
<path d="M51.2636 31.2345C51.2731 31.8966 51.8262 32.434 52.4989 32.4364C53.1701 32.4387 53.7078 31.9057 53.6986 31.2439C53.6889 30.5821 53.1358 30.0438 52.4648 30.0415C51.7919 30.0388 51.2542 30.573 51.2636 31.2345Z" fill="#263238"/>
<path d="M49.4733 26.6799C49.632 26.8354 50.52 26.0866 51.8299 26.0225C53.1372 25.9393 54.1325 26.5826 54.2663 26.4103C54.3327 26.3335 54.1642 26.0472 53.731 25.7555C53.3037 25.4651 52.5861 25.1981 51.7707 25.2431C50.955 25.2898 50.2838 25.6341 49.9048 25.9702C49.5176 26.3086 49.3955 26.6105 49.4733 26.6799Z" fill="#263238"/>
<path d="M62.78 26.2212C62.9539 26.3588 63.7633 25.52 65.0588 25.3187C66.3507 25.0976 67.4049 25.6324 67.521 25.4471C67.5788 25.3636 67.3849 25.0964 66.9227 24.8524C66.4685 24.6081 65.7287 24.4181 64.9216 24.5495C64.115 24.6821 63.4818 25.0955 63.1384 25.4701C62.788 25.847 62.6959 26.1607 62.78 26.2212Z" fill="#263238"/>
<path d="M58.1883 36.6197C58.1908 36.543 57.3697 36.4404 56.0418 36.3348C55.7058 36.3163 55.3857 36.2646 55.318 36.0329C55.227 35.7883 55.3489 35.4108 55.4913 35.0024C55.7653 34.1542 56.0518 33.2652 56.3527 32.3335C57.5442 28.5359 58.389 25.4195 58.24 25.3719C58.0907 25.3237 57.0034 28.363 55.8119 32.1609C55.5262 33.097 55.2528 33.9893 54.9928 34.8431C54.8852 35.2403 54.6893 35.6948 54.8852 36.2014C54.9879 36.4536 55.2425 36.6274 55.4598 36.6759C55.6775 36.732 55.8657 36.7259 56.0318 36.7276C57.3631 36.7326 58.1871 36.6965 58.1883 36.6197Z" fill="#263238"/>
<path d="M58.0604 52.5971C58.0604 52.5971 64.4654 52.6918 70.6001 48.4576C70.6001 48.4576 67.7338 55.3754 58.1914 54.9518L58.0604 52.5971Z" fill="#FF9A6C"/>
<path d="M62.1485 22.0447C62.3164 22.3889 63.4452 22.0353 64.8295 22.01C66.2129 21.9527 67.3749 22.2378 67.5064 21.8844C67.5633 21.7163 67.322 21.4055 66.8275 21.1245C66.337 20.8434 65.5877 20.6208 64.7577 20.6446C63.928 20.6702 63.2047 20.9369 62.7451 21.2462C62.2821 21.5563 62.0739 21.8803 62.1485 22.0447Z" fill="#263238"/>
<path d="M49.6617 24.2438C49.9068 24.5375 50.7937 24.1738 51.878 24.103C52.9596 23.993 53.8917 24.205 54.0873 23.8745C54.1728 23.7143 54.0129 23.4156 53.5974 23.1469C53.1875 22.8787 52.5146 22.6771 51.7701 22.7388C51.026 22.8017 50.3936 23.1119 50.0315 23.4444C49.6632 23.7784 49.5528 24.1 49.6617 24.2438Z" fill="#263238"/>
<path d="M77.7415 33.962C77.7415 33.962 72.7013 35.2147 65.5479 19.3793C63.1129 13.9888 58.3836 8.5583 58.3836 8.5583L62.8206 7.90004C62.8206 7.90004 76.0481 11.7309 76.2706 11.9023C76.4931 12.0737 79.6077 18.9347 79.6077 18.9347L77.7415 33.962Z" fill="#263238"/>
<path d="M76.0884 33.3281C76.055 32.6016 76.788 30.8467 77.4807 30.6989C79.3297 30.3043 82.6967 30.2849 82.9653 35.1491C83.3322 41.7982 76.7625 40.8054 76.7408 40.6155C76.7236 40.4667 76.2051 35.8371 76.0884 33.3281Z" fill="#FFBF9D"/>
<path d="M78.5775 37.9809C78.6047 37.958 78.6945 38.0553 78.8898 38.1341C79.0806 38.2105 79.4035 38.2526 79.7332 38.1027C80.4022 37.8051 80.9161 36.6565 80.8812 35.4561C80.8643 34.8498 80.7093 34.2807 80.4745 33.8158C80.2503 33.341 79.9254 33.0191 79.5779 32.9765C79.2313 32.915 78.9993 33.1408 78.9304 33.3322C78.8538 33.5233 78.9024 33.6538 78.8686 33.6668C78.8515 33.6847 78.7236 33.5639 78.7605 33.2863C78.7803 33.1526 78.8472 32.9912 78.9922 32.8545C79.14 32.7157 79.3646 32.6363 79.6059 32.649C80.107 32.6557 80.5815 33.1011 80.8397 33.6112C81.1255 34.1222 81.3139 34.7611 81.3328 35.4417C81.3654 36.7841 80.7674 38.0765 79.8476 38.409C79.3997 38.5572 79.0119 38.4384 78.8071 38.2929C78.5981 38.1412 78.5557 37.9942 78.5775 37.9809Z" fill="#FF9A6C"/>
<path d="M81.2261 41.7142C81.2261 43.0266 80.1911 44.0906 78.9144 44.0906C77.6377 44.0906 76.6027 43.0266 76.6027 41.7142C76.6027 40.4017 77.6377 39.3378 78.9144 39.3378C80.1911 39.3378 81.2261 40.4017 81.2261 41.7142Z" fill="#455A64"/>
<path d="M70.2492 35.1259C70.2492 36.0106 68.7308 36.7279 66.8581 36.7279C64.9851 36.7279 63.4667 36.0106 63.4667 35.1259C63.4667 34.2413 64.9851 33.5239 66.8581 33.5239C68.7311 33.5239 70.2492 34.2413 70.2492 35.1259Z" fill="#FF9772"/>
<path d="M53.5679 35.1259C53.5679 36.0106 52.5363 36.7279 51.2636 36.7279C49.9909 36.7279 48.959 36.0106 48.959 35.1259C48.959 34.2413 49.9906 33.5239 51.2636 33.5239C52.5363 33.5239 53.5679 34.2413 53.5679 35.1259Z" fill="#FF9772"/>
<path d="M87.3994 19.3399C88.411 19.2323 89.3943 18.8557 90.2277 18.2565C88.5334 18.2491 86.8435 17.7764 85.3791 16.9003C86.9922 16.1576 88.2306 14.692 88.9367 13.0265C89.6428 11.361 89.8496 9.50645 89.7678 7.69159C89.6646 5.39633 88.9616 2.90321 87.0757 1.67018C85.7118 0.778474 83.9835 0.719969 82.3804 0.932531C80.5234 1.17861 78.6787 1.7669 77.1555 2.88587C75.6323 4.00483 74.4559 5.69445 74.1711 7.59663L81.9529 20.3236C84.5984 21.9518 88.0272 22.1485 90.8323 20.8331C89.6877 20.3351 88.5437 19.8373 87.3994 19.3399Z" fill="#263238"/>
<path d="M86.2843 24.3364C86.2795 24.3382 86.2474 24.262 86.1905 24.115C86.1305 23.9545 86.0498 23.7399 85.9489 23.4703C85.7361 22.9117 85.4358 22.1002 85.0348 21.1103C84.2349 19.1326 83.0637 16.4149 81.4092 13.6216C80.5726 12.2342 79.7095 10.9447 78.81 9.87924C77.8971 8.82231 76.9318 8.01117 76.097 7.37407C75.2567 6.74109 74.5415 6.27951 74.0447 5.96552C73.8047 5.81558 73.6134 5.69592 73.4707 5.60654C73.3397 5.52422 73.2719 5.47865 73.2745 5.47395C73.2771 5.46924 73.3497 5.50599 73.4855 5.57979C73.622 5.6527 73.8204 5.7656 74.0744 5.91436C74.5812 6.21306 75.3071 6.66171 76.1591 7.28646C77.0059 7.91532 77.9849 8.72324 78.9127 9.78546C79.8285 10.8589 80.6953 12.1472 81.5364 13.5419C83.1978 16.3467 84.3564 19.0785 85.1326 21.0698C85.5219 22.0664 85.8073 22.8843 86.0035 23.45C86.0936 23.7237 86.1654 23.9419 86.2191 24.105C86.2663 24.255 86.2892 24.3346 86.2843 24.3364Z" fill="#455A64"/>
<path d="M62.9619 38.7115C62.5852 38.1465 62.4171 37.4967 61.7799 37.6137C61.0039 37.7563 59.5293 38.8338 58.5429 39.4104C58.3484 39.6761 58.8901 40.1654 58.9851 40.3594C59.08 40.554 59.0091 40.4597 59.1661 40.589C59.7344 41.0556 60.333 41.5201 61.0405 41.6565C61.7481 41.7926 62.5967 41.5172 63.0197 40.7916C63.3957 40.1471 63.3383 39.2763 62.9619 38.7115Z" fill="#FF9A6C"/>
<path d="M61.1681 41.6595C61.1747 41.6336 61.3065 41.6739 61.5396 41.6536C61.7678 41.6357 62.1096 41.5451 62.4179 41.2682C62.7251 41.0003 62.9539 40.5193 62.9607 39.9643C62.977 39.4092 62.7488 38.8091 62.3559 38.2964C62.1614 38.0571 61.9246 37.746 61.7412 37.7637C61.642 37.7657 61.5164 37.8425 61.3832 37.9189C61.2519 37.9936 61.1235 38.0668 60.9976 38.1382C60.4951 38.4231 60.0407 38.676 59.6566 38.8844C58.889 39.3013 58.4039 39.5406 58.3836 39.5039C58.3633 39.4671 58.8115 39.1611 59.5525 38.6962C59.9231 38.4637 60.3667 38.1914 60.8618 37.893C60.9859 37.8187 61.1129 37.7425 61.2425 37.6646C61.3692 37.5946 61.5084 37.4826 61.7267 37.4641C61.9563 37.4517 62.1325 37.597 62.2512 37.7166C62.3719 37.8401 62.484 37.968 62.5904 38.1079C63.0159 38.6607 63.2699 39.3416 63.235 39.9734C63.2121 40.6014 62.9258 41.1488 62.5515 41.4357C62.1808 41.7286 61.7896 41.7912 61.5402 41.7732C61.2848 41.7556 61.1621 41.673 61.1681 41.6595Z" fill="#263238"/>
<path d="M18.3159 65.3332C18.1912 65.7792 7.92433 84.9739 5.60802 93.8048C4.21634 99.1097 5.03402 106.322 7.37836 107.711C11.4716 110.136 15.4993 107.359 18.0965 105.081C20.6934 102.804 27.6832 68.7492 27.6832 68.7492L18.3159 65.3332Z" fill="#FFBF9D"/>
<path d="M43.5448 65.6149C43.5448 65.6149 40.496 66.1464 37.7601 68.2559C35.0243 70.3653 24.1322 83.7588 24.1322 83.7588L17.769 87.6658L13.4387 108.124C13.4387 108.124 17.7756 106.392 26.5752 100.024C34.4906 94.2958 40.7079 88.6216 40.7079 88.6216L43.5448 65.6149Z" fill="#FFBF9D"/>
<path d="M27.2805 71.0809C27.2831 71.0815 27.2782 71.1133 27.2662 71.1744C27.2519 71.2435 27.2333 71.3329 27.2099 71.4452C27.155 71.6925 27.0775 72.04 26.9788 72.4827C26.7683 73.3921 26.4674 74.6904 26.0968 76.2909C25.3483 79.5052 24.2847 83.9387 23.2379 88.8641C22.7145 91.3275 22.2546 93.6828 21.8708 95.8313C21.6786 96.9041 21.5205 97.9325 21.29 98.8792C21.0652 99.8259 20.7915 100.692 20.4823 101.458C19.8726 102.997 19.1072 104.111 18.5089 104.8C18.3648 104.979 18.2186 105.12 18.0974 105.248C17.9775 105.377 17.8671 105.476 17.7767 105.555C17.6918 105.63 17.6243 105.689 17.572 105.736C17.5254 105.776 17.5008 105.795 17.499 105.793C17.4973 105.791 17.5188 105.768 17.562 105.724C17.6114 105.675 17.6755 105.612 17.7562 105.532C17.8428 105.45 17.9495 105.347 18.0653 105.215C18.1829 105.085 18.325 104.942 18.4646 104.761C19.046 104.063 19.791 102.951 20.3842 101.417C20.6851 100.654 20.9513 99.7915 21.1696 98.8489C21.3929 97.9078 21.5462 96.8824 21.7353 95.8057C22.1119 93.6543 22.5681 91.2961 23.0918 88.8312C24.1394 83.9029 25.219 79.4726 25.9938 76.2647C26.3836 74.6692 26.7002 73.3747 26.9216 72.4683C27.0317 72.0285 27.1184 71.683 27.1796 71.4376C27.209 71.3267 27.2322 71.2385 27.2505 71.1703C27.2682 71.1106 27.2782 71.0803 27.2805 71.0809Z" fill="#FF9A6C"/>
<path d="M46.0221 60.4849L43.0288 88.7353L47.9849 113.795L44.8461 125.439H98.4908L91.3382 111.676C91.3382 111.676 92.1536 98.9915 92.4602 94.7097C93.1972 84.4188 93.1632 59.9033 93.1632 59.9033L78.1719 56.3198C70.4571 62.8295 64.0736 64.4086 58.3447 57.5605C58.3447 57.5605 47.356 59.5532 46.0221 60.4849Z" fill="#845EF1"/>
<path d="M25.7667 79.0892L34.2114 98.9918L45.4164 88.7356L47.1987 60.0298L45.1361 60.686C42.482 61.2322 39.5042 63.2752 36.6439 66.5857L25.7667 79.0892Z" fill="#845EF1"/>
<path d="M46.8589 107.398C44.9396 103.09 43.0228 99.3931 42.9422 94.6553C42.8338 88.2937 44.76 85.9582 44.3124 78.6244" fill="#845EF1"/>
<path d="M44.3124 78.6244C44.315 78.6241 44.3187 78.65 44.3233 78.7002C44.3278 78.7596 44.3336 78.8331 44.3404 78.924C44.353 79.133 44.3702 79.4211 44.3919 79.7857C44.4102 80.1602 44.4094 80.6192 44.4194 81.1522C44.4053 81.6849 44.4016 82.2923 44.3499 82.9615C44.3093 83.6312 44.228 84.3624 44.1228 85.1438C44.0109 85.9244 43.8708 86.755 43.7121 87.6252C43.5588 88.4966 43.3906 89.4092 43.2668 90.3623C43.1458 91.3155 43.0526 92.3068 43.0268 93.3261C43.0077 94.3454 43.0085 95.3421 43.1203 96.2958C43.2262 97.2499 43.4021 98.1601 43.6171 99.0145C44.0524 100.724 44.6427 102.203 45.1512 103.433C45.6683 104.662 46.1136 105.645 46.4108 106.329C46.5546 106.663 46.6679 106.927 46.7503 107.118C46.7846 107.202 46.8126 107.27 46.8349 107.325C46.8532 107.372 46.8612 107.397 46.8589 107.398C46.8567 107.399 46.8441 107.376 46.8212 107.331C46.7952 107.278 46.7628 107.212 46.7231 107.131C46.6347 106.942 46.5126 106.683 46.3582 106.354C46.045 105.677 45.5851 104.702 45.0546 103.477C44.5329 102.249 43.93 100.769 43.4841 99.0503C43.2639 98.1913 43.0837 97.2743 42.9751 96.3123C42.8604 95.35 42.8584 94.3451 42.8778 93.3214C42.9038 92.2966 42.9988 91.2993 43.1221 90.342C43.2485 89.3845 43.4198 88.4701 43.5768 87.5993C43.7393 86.7294 43.8834 85.9024 44.0001 85.125C44.1105 84.3471 44.1974 83.6197 44.2443 82.9529C44.3027 82.2867 44.3138 81.6817 44.3356 81.1507C44.3333 80.6195 44.343 80.1614 44.3336 79.7871C44.3236 79.4223 44.3158 79.1342 44.3101 78.9251C44.3092 78.834 44.3084 78.7602 44.3078 78.7005C44.3084 78.6506 44.3095 78.6244 44.3124 78.6244Z" fill="#263238"/>
<path d="M76.9479 104.261C76.9496 104.266 76.8789 104.293 76.7431 104.341C76.6061 104.384 76.4082 104.466 76.1431 104.533C75.6185 104.689 74.8418 104.86 73.8674 104.95C72.8938 105.041 71.7192 105.023 70.4425 104.796C69.1672 104.572 67.795 104.119 66.4748 103.394C65.1612 102.657 64.0398 101.725 63.1581 100.751C62.2735 99.778 61.6143 98.7784 61.1549 97.8914C60.6936 97.0047 60.4068 96.2429 60.2457 95.707C60.1557 95.4421 60.113 95.2274 60.0733 95.0857C60.0375 94.9429 60.0212 94.8673 60.0261 94.8658C60.031 94.8643 60.0573 94.9376 60.1022 95.0772C60.1511 95.216 60.2026 95.4268 60.3007 95.6879C60.478 96.2156 60.7777 96.9662 61.2473 97.8393C61.7146 98.7128 62.377 99.6965 63.2579 100.655C64.1362 101.613 65.2473 102.53 66.5455 103.26C67.8502 103.975 69.2053 104.427 70.4662 104.657C71.7287 104.889 72.8921 104.919 73.8588 104.842C74.8263 104.767 75.6014 104.613 76.1282 104.476C76.3942 104.417 76.5941 104.345 76.7337 104.311C76.8724 104.274 76.9461 104.256 76.9479 104.261Z" fill="#263238"/>
<path d="M110.339 91.0562C110.339 91.0562 101.508 60.4846 91.7455 59.5647C79.3854 58.3995 91.3385 97.1714 91.3385 97.1714L110.339 91.0562Z" fill="#845EF1"/>
<path d="M110.339 91.0562C110.339 91.0585 110.307 91.0715 110.243 91.0944C110.173 91.1188 110.078 91.1517 109.958 91.1935C109.699 91.2802 109.328 91.404 108.852 91.563C107.88 91.8814 106.482 92.3398 104.741 92.9101C101.238 94.0441 96.3618 95.6229 90.834 97.4125L90.7648 97.4348L90.7422 97.3639C90.3753 96.2106 89.998 94.9996 89.6377 93.7589C87.7043 87.1951 86.5486 81.0737 86.1385 76.599C85.9271 74.362 85.8836 72.5421 85.8833 71.2861C85.8856 70.6582 85.9125 70.1707 85.9211 69.8402C85.9277 69.6806 85.9328 69.5563 85.9368 69.4645C85.9411 69.3799 85.9446 69.3366 85.9471 69.3366C85.9497 69.3366 85.9511 69.3801 85.952 69.4651C85.9517 69.5568 85.9514 69.6815 85.9511 69.8411C85.9523 70.1716 85.9348 70.6587 85.9414 71.2859C85.9594 72.5401 86.0189 74.3561 86.2431 76.5878C86.6793 81.0519 87.849 87.1583 89.7801 93.7145C90.1399 94.9537 90.5163 96.1638 90.8818 97.3163L90.79 97.2678C96.3238 95.4976 101.205 93.9359 104.712 92.8143C106.458 92.2625 107.862 91.8188 108.836 91.5107C109.315 91.3625 109.689 91.247 109.95 91.1661C110.072 91.13 110.168 91.1015 110.239 91.0803C110.304 91.0623 110.338 91.0541 110.339 91.0562Z" fill="#263238"/>
<path d="M91.9726 97.0617L95.8965 110.454C95.8965 110.454 78.1107 114.009 71.4772 115.559C64.8438 117.109 64.5909 123.182 64.5909 123.182L71.932 125.439C71.932 125.439 105.518 126.931 108.412 125.439C114.312 122.398 109.694 99.4563 108.62 94.8661C108.256 93.3109 107.949 91.8853 107.949 91.8853L91.9726 97.0617Z" fill="#FFBF9D"/>
<path d="M101.67 115.722C101.641 115.732 101.509 115.275 101.163 114.603C100.993 114.265 100.755 113.883 100.462 113.483C100.161 113.088 99.8001 112.678 99.3783 112.295C98.9518 111.916 98.5083 111.604 98.0875 111.35C97.662 111.105 97.2619 110.914 96.9138 110.786C96.2194 110.524 95.7615 110.45 95.7675 110.42C95.7692 110.409 95.8836 110.423 96.0901 110.458C96.1939 110.474 96.3198 110.498 96.4631 110.54C96.6066 110.579 96.7731 110.616 96.9487 110.684C97.3062 110.801 97.7177 110.984 98.1548 111.227C98.5869 111.478 99.0416 111.793 99.4764 112.179C99.9062 112.57 100.271 112.991 100.571 113.397C100.864 113.81 101.096 114.205 101.257 114.553C101.346 114.723 101.403 114.888 101.461 115.028C101.521 115.169 101.56 115.294 101.59 115.397C101.651 115.604 101.68 115.718 101.67 115.722Z" fill="#FF9A6C"/>
<path d="M50.9556 117.839L52.9293 116.883L52.1923 117.808C52.1923 117.808 51.2367 118.849 51.5316 119.999C51.8262 121.149 53.8777 121.396 53.8777 121.396C53.8777 121.396 53.6983 122.607 54.4668 123.66C55.1844 124.643 57.9251 123.924 57.9251 123.924L57.5473 124.765C57.0829 125.662 58.2006 126.775 58.7185 126.911C59.2367 127.047 61.2465 126.464 62.1514 125.853C63.0565 125.241 66.3885 125.515 66.3885 125.515C66.3885 125.515 70.5606 126.883 72.3341 126.23C74.1076 125.577 74.6221 124.251 74.6221 124.251C74.6221 124.251 74.3255 116.226 71.7701 114.95C70.4674 114.3 62.885 111.312 60.6273 110.32C59.8648 109.985 59.0099 109.966 58.234 110.267C55.781 111.218 51.328 113.125 50.2151 113.999C50.2151 113.999 48.2692 115.256 48.6587 116.456C48.8832 117.148 49.5079 118.136 50.9556 117.839Z" fill="#FFBF9D"/>
<path d="M56.6973 114.18C56.7279 114.224 55.8436 114.933 54.7228 115.763C53.6014 116.594 52.6679 117.232 52.6376 117.188C52.607 117.145 53.491 116.436 54.6124 115.605C55.7332 114.775 56.667 114.137 56.6973 114.18Z" fill="#FF9A6C"/>
<path d="M58.7085 118.612C58.7311 118.667 57.5942 119.18 56.2701 119.96C54.9479 120.743 53.9106 121.447 53.8777 121.396C53.8634 121.374 54.1065 121.174 54.5174 120.876C54.9287 120.579 55.5084 120.183 56.1765 119.791C56.8446 119.399 57.4744 119.091 57.9383 118.89C58.4025 118.689 58.6991 118.589 58.7085 118.612Z" fill="#FF9A6C"/>
<path d="M61.5213 121.843C61.5468 121.89 60.7062 122.421 59.6443 123.03C58.5821 123.638 57.7006 124.093 57.6752 124.046C57.6497 123.999 58.49 123.468 59.5522 122.86C60.6141 122.252 61.4958 121.796 61.5213 121.843Z" fill="#FF9A6C"/>
<path d="M21.0472 52.8397C21.6635 50.4651 22.2852 48.0246 22.0319 45.5805C21.9787 45.066 21.8991 44.4966 22.1889 44.0735C22.5243 43.5831 23.2525 43.5214 23.7673 43.803C24.2821 44.0847 24.6167 44.6209 24.8613 45.1651C25.7579 47.1605 25.6989 49.5828 24.7062 51.5293" fill="#FF9A6C"/>
<path d="M50.9227 54.8169C50.9227 59.2751 50.9227 63.7333 50.9227 68.1915C50.9227 69.284 50.9227 70.3762 50.9227 71.4687C50.9227 72.0358 51.7478 72.0367 51.7478 71.4687C51.7478 67.0105 51.7478 62.5523 51.7478 58.0941C51.7478 57.0016 51.7478 55.9091 51.7478 54.8169C51.7478 54.25 50.9227 54.2488 50.9227 54.8169Z" fill="#FACD8A"/>
<path d="M36.1694 49.7574C36.1694 49.7574 40.299 50.6617 41.7701 51.4003C43.2413 52.1388 45.0205 53.1237 46.7311 53.3348C48.442 53.5459 53.882 51.0134 53.882 51.0134V51.33L51.7264 52.4907L49.7761 53.3474L52.2054 52.5613L52.1028 52.9482C52.1028 52.9482 49.3657 54.5308 47.6892 54.8827C46.0127 55.2343 42.9676 55.0938 41.9412 53.3704C40.9147 51.6469 37.1993 50.9443 35.8008 50.8279L36.1694 49.7574Z" fill="#E0E0E0"/>
<path d="M51.9752 50.9358C52.4963 50.5309 53.1904 51.8998 53.3772 52.2479C53.751 52.9447 54.0012 53.722 54.1108 54.509C54.3476 56.2092 53.9257 57.9656 52.9513 59.3609C52.643 59.8022 53.2716 60.3523 53.5814 59.9086C54.7706 58.2064 55.2756 56.0396 54.8546 53.976C54.6593 53.0185 54.3004 52.1068 53.7744 51.2897C53.3051 50.5609 52.4131 49.5328 51.501 50.2416C51.0777 50.5706 51.5505 51.2656 51.9752 50.9358Z" fill="#FACD8A"/>
<path d="M50.6951 51.1028C50.4236 50.6241 50.3882 49.5578 50.4056 49.0042C50.4196 48.5535 50.635 48.1289 50.923 47.7891C51.211 47.4489 51.5696 47.1814 51.9251 46.9168C52.486 47.57 52.6893 48.5279 52.4442 49.362C52.1991 50.1961 51.5139 50.8781 50.6951 51.1028Z" fill="#455A64"/>
<path d="M51.6603 48.1107C51.6998 48.1275 51.4967 48.7193 51.2822 49.4593C51.0657 50.1987 50.9184 50.8079 50.8767 50.7996C50.8378 50.7923 50.9207 50.1634 51.1395 49.4155C51.3566 48.6673 51.6237 48.0948 51.6603 48.1107Z" fill="#263238"/>
<path d="M48.1811 52.4381C48.1946 51.7693 48.5435 51.0398 49.1158 50.6917C49.7461 50.3081 50.6625 50.5039 51.2399 50.8943C51.8248 51.2897 52.2214 51.9548 52.4508 52.6221C52.7022 53.3545 52.8661 54.2635 52.3979 54.9439C52.2086 55.219 51.9057 55.4454 51.5656 55.4328C51.2659 55.4219 50.9599 55.2508 50.8678 54.9445C50.7116 54.4244 49.9149 54.6463 50.0722 55.1699C50.3699 56.161 51.5122 56.5332 52.3739 56.0746C53.3609 55.5492 53.622 54.3226 53.4661 53.2819C53.3137 52.2646 52.8423 51.2077 52.0927 50.5095C51.2948 49.7665 50.1425 49.449 49.1 49.7818C48.0381 50.1208 47.3783 51.3459 47.3563 52.4381C47.3451 52.9844 48.1702 52.9841 48.1811 52.4381Z" fill="#FACD8A"/>
<path d="M49.3898 51.4467C49.3809 51.4911 49.3829 51.4885 49.3955 51.4388C49.384 51.4703 49.3855 51.4729 49.3998 51.4464C49.4144 51.4226 49.4149 51.4223 49.4018 51.445C49.4226 51.422 49.4447 51.4006 49.4678 51.3803C49.495 51.3577 49.61 51.2906 49.6746 51.2597C49.8256 51.1877 49.954 51.1607 50.1119 51.1927C50.321 51.2351 50.5217 51.3212 50.7051 51.4317C50.8947 51.5461 51.0234 51.7301 51.1441 51.9145C51.4395 52.3652 51.7058 52.8703 51.8379 53.4001C51.8905 53.6115 51.9131 53.8669 51.7913 54.0204C51.765 54.0536 51.7115 54.0863 51.6492 54.1198C51.6391 54.1251 51.5882 54.1254 51.5828 54.1227C51.3832 54.0213 51.1364 54.0674 51.0182 54.275C50.9118 54.4623 50.9656 54.7533 51.1664 54.8554C51.6918 55.122 52.3241 54.8604 52.5749 54.3209C52.8681 53.6902 52.6067 52.9867 52.3484 52.3955C52.1193 51.871 51.8113 51.2739 51.382 50.8931C50.9988 50.553 50.3816 50.2866 49.8694 50.3342C49.2945 50.3877 48.6015 50.8017 48.5644 51.4473C48.5512 51.6763 48.7634 51.8716 48.9768 51.8716C49.2116 51.8707 49.3766 51.6763 49.3898 51.4467Z" fill="#FACD8A"/>
<path d="M48.4643 52.5384C48.4909 52.5237 48.5183 52.5101 48.5458 52.4975C48.4906 52.5213 48.482 52.5263 48.5195 52.5122C48.5704 52.501 48.6199 52.4796 48.6708 52.4681C48.7042 52.4604 48.8275 52.4584 48.7025 52.4596C48.7477 52.459 48.7926 52.4528 48.8378 52.4525C48.8984 52.4522 48.9588 52.4566 49.0191 52.4619C48.9216 52.4534 49.0019 52.4599 49.0531 52.4713C49.1432 52.4913 49.2299 52.5201 49.3168 52.5516C49.1941 52.5072 49.3703 52.5792 49.394 52.5925C49.4344 52.6145 49.4738 52.6383 49.5125 52.6636C49.5508 52.6889 49.588 52.7159 49.6249 52.7436C49.5265 52.6698 49.6334 52.7542 49.654 52.773C49.733 52.845 49.8067 52.9232 49.8751 53.0061C49.8883 53.022 49.9683 53.1425 49.9014 53.0384C49.9306 53.084 49.9629 53.1275 49.9918 53.1737C50.0456 53.2592 50.095 53.3477 50.1399 53.4386C50.1608 53.4806 50.18 53.5233 50.2 53.5659C50.2255 53.625 50.2252 53.6232 50.1994 53.5606C50.2083 53.5823 50.2166 53.6041 50.2249 53.6262C50.2632 53.7273 50.2978 53.8305 50.3258 53.9352C50.3399 53.9878 50.3504 54.0404 50.3627 54.0933C50.3739 54.1609 50.3753 54.1645 50.367 54.103C50.3699 54.1298 50.3719 54.1562 50.3727 54.183C50.3756 54.2444 50.3767 54.3074 50.369 54.3685C50.3819 54.2671 50.3547 54.3932 50.347 54.4247C50.3736 54.3147 50.3464 54.4173 50.3316 54.4494C50.2892 54.5417 50.3991 54.3844 50.3047 54.4796C50.206 54.5793 50.3647 54.4496 50.2738 54.504C50.1814 54.559 50.3742 54.4899 50.2623 54.5117C50.1422 54.5352 50.3707 54.5176 50.2583 54.5155C50.1968 54.5126 50.2077 54.5149 50.2915 54.5229C50.2661 54.5167 50.2415 54.5085 50.2177 54.4979C49.9477 54.3935 49.6028 54.6134 49.5411 54.8927C49.4698 55.2141 49.6363 55.4766 49.9252 55.5883C50.4351 55.7853 50.9911 55.4775 51.2705 55.0374C51.5648 54.5737 51.499 53.9546 51.3326 53.4574C51.0297 52.5531 50.4365 51.7346 49.5228 51.4297C48.9879 51.2512 48.4079 51.3003 47.9089 51.5617C47.652 51.6963 47.5571 52.0888 47.7115 52.3355C47.8805 52.6051 48.1894 52.6824 48.4643 52.5384Z" fill="#FACD8A"/>
<path d="M48.105 55.959C48.105 58.7012 48.105 61.4433 48.105 64.1855C48.105 64.7311 48.9302 64.732 48.9302 64.1855C48.9302 61.4433 48.9302 58.7012 48.9302 55.959C48.9302 55.4134 48.105 55.4122 48.105 55.959Z" fill="#FACD8A"/>
<path d="M47.6609 55.9223C48.395 57.2962 49.7435 58.8641 51.4229 58.3707C52.9207 57.9306 53.6572 56.1343 53.7676 54.5775C53.8433 53.5071 53.6554 52.4322 53.4306 51.3956C53.3194 50.8828 52.5984 51.1001 52.7099 51.6134C53.0846 53.341 53.3769 55.5269 52.1417 56.9481C51.5942 57.5781 50.8549 57.811 50.1102 57.4576C49.314 57.0798 48.7906 56.2592 48.3064 55.5092C48.0304 55.082 47.382 55.4907 47.6609 55.9223Z" fill="#FACD8A"/>
<path d="M47.3454 53.4101C47.3108 53.5015 47.3623 53.3886 47.3755 53.3627C47.4078 53.2992 47.38 53.3542 47.3677 53.3689C47.3818 53.3521 47.3958 53.3357 47.4106 53.3198C47.4304 53.2986 47.5213 53.2243 47.4495 53.2769C47.4941 53.244 47.5408 53.214 47.5894 53.1875C47.6091 53.1769 47.6291 53.1675 47.6492 53.1575C47.6349 53.1646 47.5711 53.1849 47.6432 53.161C47.6855 53.1469 47.7272 53.1316 47.7701 53.1202C47.8128 53.1087 47.8557 53.1008 47.8988 53.092C47.8025 53.1114 47.9306 53.0908 47.964 53.0896C48.0049 53.0884 48.0453 53.0902 48.0862 53.0922C48.1894 53.0978 48.0235 53.0702 48.1182 53.099C48.1322 53.1031 48.2486 53.1408 48.182 53.1152C48.1125 53.0887 48.1994 53.1255 48.2157 53.1337C48.2492 53.1508 48.2826 53.1684 48.3155 53.1866C48.5515 53.3169 48.7237 53.4348 48.901 53.6203C49.0506 53.7764 49.1853 53.996 49.2782 54.2206C49.316 54.3121 49.3572 54.4444 49.3689 54.5558C49.3626 54.497 49.3672 54.5746 49.3672 54.5808C49.3669 54.611 49.3666 54.6428 49.3674 54.6731C49.3686 54.7172 49.3603 54.7478 49.3391 54.8313C49.3377 54.8368 49.312 54.9062 49.3328 54.8568C49.3211 54.8842 49.3051 54.9106 49.2905 54.9365C49.2874 54.9424 49.2442 54.9988 49.2765 54.9591C49.2585 54.9812 49.237 55.0015 49.217 55.0215C49.211 55.0276 49.1567 55.0682 49.2007 55.0362C49.1775 55.0529 49.153 55.0682 49.1284 55.0826C49.1035 55.097 49.078 55.1109 49.0523 55.1232C49.1006 55.1 49.0274 55.1323 49.0105 55.1382C48.9556 55.1573 48.8998 55.1732 48.8432 55.1864C48.8152 55.1929 48.7863 55.197 48.7586 55.204C48.6848 55.2229 48.8389 55.2052 48.782 55.2014C48.6968 55.1958 48.6107 55.2073 48.5246 55.1993C48.5023 55.1973 48.4803 55.1946 48.458 55.192C48.5606 55.2035 48.4442 55.1879 48.4299 55.1852C48.3767 55.1752 48.3238 55.1632 48.2712 55.1497C48.1594 55.1208 48.0484 55.085 47.942 55.0391C48.0218 55.0738 47.8851 55.0082 47.8659 54.9977C47.8219 54.9736 47.7813 54.945 47.7384 54.9192C47.6758 54.8809 47.7347 54.9177 47.747 54.9286C47.7244 54.9089 47.7029 54.8889 47.6815 54.8683C47.668 54.8551 47.6566 54.8398 47.6437 54.8263C47.6818 54.8659 47.6786 54.8768 47.6486 54.8239C47.38 54.3535 46.6665 54.7798 46.9362 55.252C47.2062 55.7247 47.8139 55.9455 48.3144 56.0211C48.9362 56.1149 49.6494 55.9479 50.0035 55.3652C50.4268 54.6687 50.0825 53.7781 49.6329 53.1954C49.4309 52.9335 49.1684 52.7212 48.8913 52.5481C48.6333 52.3869 48.3756 52.2632 48.0713 52.2435C47.4324 52.202 46.784 52.5645 46.5498 53.1849C46.4691 53.3986 46.6387 53.6503 46.8378 53.7064C47.0714 53.7723 47.2645 53.6244 47.3454 53.4101Z" fill="#FACD8A"/>
<path d="M47.4681 55.7482C47.4753 55.7294 47.6803 55.8197 48.0533 55.9049C48.2389 55.9491 48.47 55.979 48.7317 55.9723C48.9876 55.9617 49.2988 55.9064 49.5491 55.7335L49.5574 55.728L49.5588 55.7271C50.0667 55.4566 50.335 54.6519 50.0547 53.9648C49.8505 53.4201 49.455 52.992 49.0609 52.6886C48.6625 52.3855 48.2169 52.2385 47.8462 52.2626C47.4721 52.2814 47.1904 52.4346 47.0294 52.5686C46.8641 52.7036 46.806 52.8144 46.7934 52.8053C46.7892 52.8027 46.8017 52.7744 46.8301 52.723C46.8607 52.6733 46.9101 52.6007 46.9914 52.5237C47.1487 52.3687 47.4401 52.1891 47.8391 52.1544C48.2377 52.1141 48.7182 52.262 49.1409 52.5739C49.5579 52.8865 49.9721 53.3236 50.194 53.911C50.4974 54.6552 50.204 55.548 49.6197 55.8459L49.6294 55.8394C49.3243 56.0408 49.0074 56.0769 48.734 56.0825C48.4594 56.0802 48.2226 56.0381 48.0353 55.982C47.8471 55.9282 47.7038 55.8723 47.6094 55.8265C47.5145 55.7818 47.4655 55.755 47.4681 55.7482Z" fill="#F6AD5F"/>
<path d="M49.8985 55.5674C49.9026 55.5533 50.0161 55.6024 50.2269 55.5918C50.4317 55.5804 50.7494 55.4992 51.0131 55.2287C51.2745 54.9612 51.4558 54.504 51.4229 53.9986C51.3923 53.4921 51.1472 52.9611 50.766 52.5189C50.5758 52.2961 50.3647 52.1006 50.1511 51.9236C49.9443 51.7393 49.7155 51.6202 49.4807 51.527C49.0211 51.3227 48.5512 51.3518 48.1997 51.4752C47.8436 51.599 47.6231 51.8389 47.5153 52.0218C47.4041 52.2067 47.3772 52.3293 47.3606 52.3234C47.3557 52.322 47.3609 52.2917 47.3752 52.2344C47.3863 52.1756 47.4161 52.0941 47.465 51.9918C47.5611 51.7919 47.7864 51.5191 48.1634 51.3735C48.5298 51.2274 49.0411 51.1868 49.529 51.395C49.7704 51.4852 50.0272 51.6172 50.2423 51.8066C50.4617 51.9856 50.6802 52.1861 50.8781 52.4181C51.2756 52.8788 51.5348 53.4448 51.5599 53.9904C51.5874 54.5358 51.3809 55.0247 51.0866 55.3061C50.7871 55.5915 50.4445 55.6571 50.2274 55.6512C50.1165 55.648 50.0321 55.6271 49.9775 55.608C49.9231 55.5874 49.8968 55.5718 49.8985 55.5674Z" fill="#F6AD5F"/>
<path d="M51.3634 54.9459C51.3669 54.9297 51.4824 54.9818 51.6895 54.943C51.8903 54.9071 52.1891 54.7754 52.4168 54.4732C52.5317 54.3226 52.6133 54.1357 52.6104 53.9113C52.6144 53.6882 52.5761 53.4433 52.5309 53.1904C52.4837 52.9405 52.3965 52.6859 52.2872 52.429C52.1714 52.1741 52.0616 51.9015 51.8925 51.6696C51.8082 51.5514 51.7144 51.4385 51.6246 51.3227C51.5362 51.2036 51.4515 51.1036 51.3509 51.0087C51.1532 50.822 50.9362 50.6712 50.7076 50.5806C50.2483 50.3825 49.7853 50.4116 49.4238 50.5145C49.2427 50.5633 49.0903 50.6385 48.9688 50.7261C48.8509 50.8111 48.7726 50.9199 48.7188 51.0104C48.6078 51.1965 48.6244 51.3235 48.6138 51.3238C48.6041 51.3303 48.5658 51.1898 48.6676 50.9822C48.7174 50.8811 48.7917 50.7605 48.9196 50.657C49.0428 50.5577 49.2056 50.4686 49.3946 50.4104C49.7636 50.2893 50.2661 50.2449 50.7574 50.4492C51.0051 50.5433 51.2396 50.7023 51.4495 50.8984C51.5542 50.9946 51.6549 51.1133 51.7398 51.2274C51.8282 51.3409 51.9231 51.4544 52.0124 51.579C52.1951 51.8319 52.305 52.1097 52.4208 52.3693C52.5309 52.6336 52.6193 52.9 52.6653 53.164C52.7076 53.4245 52.7428 53.6735 52.7334 53.9154C52.7322 54.1601 52.6276 54.3882 52.4986 54.5405C52.2395 54.8595 51.914 54.9815 51.6963 55.0018C51.5857 55.0144 51.4993 54.9965 51.4435 54.9827C51.3889 54.9636 51.3617 54.9509 51.3634 54.9459Z" fill="#F6AD5F"/>
<path d="M50.3041 55.6404C50.3161 55.6312 50.3828 55.7477 50.5604 55.8952C50.734 56.0408 51.0317 56.2216 51.4338 56.258C51.8308 56.3001 52.3184 56.1193 52.6979 55.7371C53.0843 55.3596 53.3328 54.778 53.3966 54.1454C53.465 53.51 53.3652 52.895 53.1953 52.3705C53.0191 51.8451 52.7683 51.4088 52.5186 51.0754C52.0147 50.4048 51.5511 50.1426 51.5737 50.1143C51.5765 50.1099 51.6054 50.1243 51.6586 50.1561C51.7109 50.1887 51.7907 50.2343 51.8834 50.3075C52.073 50.4468 52.3356 50.6726 52.601 51.0081C52.8675 51.3409 53.1358 51.784 53.3248 52.324C53.5076 52.8632 53.616 53.5 53.5448 54.1621C53.4793 54.8213 53.2116 55.4416 52.7932 55.8388C52.3833 56.241 51.8539 56.4256 51.4238 56.3656C50.9945 56.3118 50.6916 56.1055 50.5223 55.9399C50.4357 55.8567 50.3807 55.7806 50.3467 55.7277C50.3141 55.6727 50.2998 55.643 50.3041 55.6404Z" fill="#F6AD5F"/>
<path d="M52.6653 53.854C52.683 53.8519 52.7262 54.0086 52.7205 54.2712C52.7125 54.5237 52.6536 54.9271 52.3384 55.2164C52.0247 55.4939 51.6251 55.5342 51.3749 55.4728C51.1163 55.4131 50.9994 55.2843 51.0102 55.2734C51.0231 55.2511 51.1552 55.3396 51.3918 55.3661C51.6226 55.396 51.9703 55.3402 52.2403 55.1009C52.5063 54.8604 52.5824 54.5035 52.6153 54.2624C52.6473 54.0151 52.6424 53.8558 52.6653 53.854Z" fill="#F6AD5F"/>
<path d="M52.0461 50.1655C52.0481 50.1608 52.0956 50.1796 52.1831 50.2222C52.2689 50.2681 52.3945 50.3401 52.5409 50.456C52.8321 50.6853 53.2116 51.1004 53.4738 51.7293C53.7427 52.354 53.8682 53.1699 53.8591 54.0619C53.8511 54.9471 53.7444 55.9667 53.2376 56.8834C52.7357 57.7901 51.8428 58.4284 50.9419 58.4672C50.496 58.491 50.0776 58.3798 49.7212 58.2173C49.3637 58.052 49.0611 57.8398 48.816 57.6075C48.3378 57.1298 48.0784 56.6452 47.8863 56.3277C47.8025 56.1772 47.7335 56.0534 47.6772 55.9523C47.6309 55.8656 47.6085 55.8188 47.6128 55.8162C47.6171 55.8135 47.648 55.8547 47.7026 55.9361C47.7653 56.0331 47.8422 56.1519 47.9354 56.2963C48.1411 56.6029 48.4159 57.0768 48.8873 57.5278C49.1261 57.7451 49.4255 57.948 49.7704 58.1008C50.1153 58.2525 50.5152 58.3525 50.9344 58.3263C51.7781 58.2837 52.6273 57.676 53.1083 56.8072C53.5954 55.9279 53.7069 54.9342 53.7218 54.0604C53.7384 53.1799 53.6257 52.3837 53.3769 51.771C53.1344 51.1548 52.778 50.7405 52.5046 50.5018C52.2272 50.2631 52.039 50.179 52.0461 50.1655Z" fill="#F6AD5F"/>
<path d="M52.8186 55.7124C52.8275 55.7144 52.8203 55.7973 52.7826 55.942C52.7443 56.0861 52.673 56.2913 52.5489 56.5279C52.4236 56.7625 52.2483 57.0357 51.9755 57.2685C51.7024 57.5034 51.3171 57.651 50.909 57.6578C50.4997 57.6672 50.1199 57.5428 49.813 57.3752C49.505 57.2059 49.2636 56.9904 49.0952 56.7831C48.9264 56.5753 48.826 56.3798 48.7731 56.2401C48.7199 56.0999 48.7079 56.0173 48.7159 56.0146C48.7417 56.0023 48.8298 56.3295 49.1741 56.7114C49.5076 57.0824 50.1388 57.514 50.9058 57.5046C51.2822 57.4984 51.6366 57.3664 51.8894 57.1583C52.1465 56.9492 52.3253 56.6937 52.4574 56.4738C52.7211 56.0275 52.794 55.7044 52.8186 55.7124Z" fill="#F6AD5F"/>
<path d="M45.4638 53.054C45.4638 53.054 46.4754 53.5033 47.6369 53.2778L48.1868 54.7528C48.1868 54.7528 47.5345 55.0553 46.5292 55.0379C45.5239 55.0206 45.4638 53.054 45.4638 53.054Z" fill="#E0E0E0"/>
<path d="M48.7992 53.555C48.8003 53.5603 48.76 53.5744 48.6816 53.597C48.6035 53.6214 48.4869 53.6488 48.3347 53.6785C48.031 53.7367 47.5819 53.7849 47.0277 53.7543C46.474 53.7235 45.8196 53.6044 45.1201 53.3839C44.4162 53.1731 43.6801 52.8247 42.9365 52.4246C41.4638 51.5958 40.0656 50.9881 39.0042 50.7041C38.4751 50.5603 38.037 50.4886 37.7327 50.4533C37.4284 50.4171 37.2579 50.411 37.2585 50.3974C37.2585 50.3922 37.3011 50.3886 37.3823 50.3866C37.4636 50.383 37.5834 50.3857 37.7378 50.3939C38.0461 50.411 38.492 50.4671 39.0303 50.5991C40.1079 50.8578 41.5333 51.46 43.0054 52.2887C44.474 53.1172 45.944 53.5656 47.0351 53.6464C47.5794 53.6902 48.023 53.6594 48.3261 53.6197C48.6299 53.5806 48.796 53.5412 48.7992 53.555Z" fill="#263238"/>
<path d="M16.6877 45.1052C16.8441 44.3922 17.5439 43.9541 18.2321 44.1382L36.287 49.3379C36.8281 49.4937 37.1507 50.0638 37.0148 50.6244C36.8755 51.1989 36.3081 51.5473 35.7501 51.4009L17.6183 46.6466C16.9505 46.4799 16.5364 45.794 16.6877 45.1052Z" fill="#FF725E"/>
<path d="M25.8911 43.8392C25.8911 43.8392 19.9704 44.8538 19.1547 47.0767C18.2106 49.6501 17.4536 53.4862 17.4536 53.4862C17.4536 53.4862 17.4049 54.0916 17.4925 55.5304C17.58 56.9692 18.3159 65.3332 18.3159 65.3332L27.5045 69.61C27.5045 69.61 28.4465 67.7232 28.6216 65.6546C28.7966 63.586 29.4553 59.6473 29.4553 59.6473C29.4553 59.6473 32.0453 59.4156 32.6665 57.2312C33.0715 55.8079 32.4119 55.1741 32.4119 55.1741C32.4119 55.1741 33.2107 53.4036 32.0848 51.9874C32.0848 51.9874 32.4388 50.961 31.5594 50.0711C31.3346 49.8435 30.22 49.3099 29.0932 48.7334C27.8674 48.1063 26.345 47.8649 25.3397 48.6064C24.2941 49.3773 21.8671 51.4829 21.8671 51.4829L22.1952 48.5588C22.1952 48.5588 27.1164 46.4946 27.4661 45.7273C27.9358 44.698 26.9262 43.5866 25.8911 43.8392Z" fill="#FFBF9D"/>
<path d="M29.3603 48.8819C29.3537 48.8939 29.209 48.8134 28.9379 48.6902C28.6673 48.5682 28.2698 48.398 27.7564 48.278C27.5005 48.2174 27.2142 48.1751 26.9076 48.1713C26.6027 48.1683 26.2707 48.2133 25.9686 48.3636C25.3869 48.7396 24.7228 49.1697 24.0905 49.6754C23.7739 49.9282 23.4919 50.2137 23.1999 50.4709C22.911 50.73 22.6282 50.9746 22.357 51.2051C21.8168 51.6567 21.3274 52.0662 20.9084 52.4166C20.5135 52.7503 20.1863 53.027 19.9366 53.2381C19.7075 53.4327 19.5788 53.5382 19.5717 53.53C19.5651 53.5224 19.6809 53.4018 19.8983 53.1931C20.1159 52.9844 20.4368 52.6895 20.8407 52.3334C21.2536 51.9756 21.7364 51.5579 22.2689 51.0969C22.5372 50.864 22.8172 50.6179 23.1035 50.3583C23.3912 50.1026 23.6735 49.8147 23.9981 49.5551C24.647 49.0377 25.296 48.622 25.9072 48.2374C26.2418 48.0757 26.5924 48.0363 26.9093 48.0446C27.2279 48.0543 27.5205 48.1042 27.7807 48.173C28.3021 48.3092 28.6979 48.4973 28.9631 48.6367C29.0963 48.7058 29.1956 48.7675 29.2625 48.8101C29.3291 48.8528 29.3629 48.8772 29.3603 48.8819Z" fill="#FF9A6C"/>
<path d="M32.5595 52.8585C32.5464 52.8641 32.494 52.7368 32.3728 52.5248C32.2535 52.3131 32.0559 52.0139 31.7301 51.7331C31.4095 51.45 30.9548 51.1915 30.4042 51.0851C29.8571 50.9728 29.221 51.0207 28.6167 51.2536C28.0098 51.4885 27.4919 51.8572 27.0457 52.2152C26.5996 52.5763 26.2149 52.9288 25.8768 53.2072C25.5405 53.488 25.2531 53.6973 25.0466 53.8284C24.8401 53.9598 24.718 54.0181 24.7134 54.0098C24.7074 53.9995 24.8192 53.924 25.014 53.7787C25.209 53.6335 25.4833 53.4136 25.8091 53.1237C26.1368 52.8362 26.5132 52.4757 26.9602 52.1041C27.4072 51.736 27.9338 51.3541 28.5644 51.1095C29.1942 50.8667 29.86 50.8208 30.4308 50.946C31.0054 51.0651 31.4759 51.3465 31.7993 51.6511C32.1285 51.9536 32.3176 52.2714 32.4234 52.4957C32.4826 52.6054 32.5098 52.6998 32.5335 52.7606C32.5552 52.8232 32.5644 52.8568 32.5595 52.8585Z" fill="#FF9A6C"/>
<path d="M32.5595 55.5192C32.5504 55.5248 32.4923 55.441 32.3908 55.2881C32.2878 55.1373 32.1454 54.9118 31.9263 54.6778C31.7107 54.4479 31.3903 54.2094 30.9857 54.1609C30.7852 54.1371 30.5764 54.178 30.3799 54.2847C30.1829 54.3885 29.9927 54.5405 29.7902 54.6846C28.9859 55.267 28.2532 55.7871 27.7187 56.1575C27.4513 56.3427 27.2336 56.4903 27.0812 56.5894C26.9287 56.6885 26.8415 56.7393 26.8358 56.7308C26.8301 56.7223 26.9056 56.6549 27.048 56.5409C27.1901 56.4268 27.3986 56.2657 27.6583 56.069C28.1774 55.6759 28.9007 55.1417 29.7047 54.5593C29.9063 54.4164 30.0971 54.2635 30.3144 54.1509C30.5289 54.0354 30.7786 53.9889 31.0017 54.021C31.4533 54.0839 31.7876 54.355 32.0032 54.604C32.2218 54.858 32.3516 55.0953 32.4403 55.257C32.5269 55.4201 32.5681 55.5139 32.5595 55.5192Z" fill="#FF9A6C"/>
<path d="M19.8131 58.4472C19.8079 58.4636 19.592 58.4151 19.2854 58.2328C18.9805 58.0538 18.5921 57.7204 18.315 57.2371C18.0376 56.7537 17.9418 56.243 17.9369 55.882C17.9303 55.518 17.9935 55.3002 18.0098 55.3037C18.0339 55.3067 18.009 55.5269 18.0419 55.8753C18.073 56.2219 18.1806 56.7017 18.4431 57.1592C18.7054 57.6163 19.0615 57.9453 19.3417 58.1411C19.6226 58.3402 19.8219 58.4242 19.8131 58.4472Z" fill="#FF9A6C"/>
<path d="M32.045 57.2315C32.0582 57.25 31.8274 57.4399 31.465 57.7577C31.1023 58.075 30.6133 58.5265 30.1085 59.0622C29.6043 59.5988 29.1816 60.1165 28.885 60.4993C28.5881 60.8821 28.4114 61.1255 28.3928 61.1126C28.3773 61.102 28.5238 60.8365 28.8009 60.434C29.0777 60.0318 29.4922 59.4976 30.0015 58.9558C30.5115 58.4148 31.0168 57.9715 31.3989 57.6737C31.7807 57.3752 32.0341 57.2159 32.045 57.2315Z" fill="#FF9A6C"/>
<path d="M32.8764 56.4433C32.8936 56.4424 32.9096 56.6467 32.8281 56.9586C32.7511 57.2706 32.5781 57.6807 32.3167 58.0897C32.0521 58.4957 31.7481 58.8229 31.4784 58.9949C31.2113 59.1745 31.0037 59.188 31.0037 59.1719C30.9977 59.146 31.1821 59.0972 31.4178 58.9064C31.6572 58.7226 31.9363 58.3984 32.1926 58.005C32.4457 57.6087 32.6279 57.2191 32.7274 56.9266C32.8312 56.6349 32.8524 56.4421 32.8764 56.4433Z" fill="#FF9A6C"/>
<path d="M33.7175 112.161C33.9947 110.482 35.2499 109.196 36.7331 108.538C38.5978 107.71 40.748 107.876 42.7025 108.2C42.9436 108.24 43.183 108.136 43.2548 107.878C43.316 107.658 43.1801 107.349 42.941 107.31C40.7302 106.944 38.3782 106.786 36.2795 107.741C34.611 108.5 33.1641 110.019 32.8512 111.916C32.7557 112.496 33.6209 112.746 33.7175 112.161Z" fill="#FACD8A"/>
<path d="M33.7175 112.161C33.7141 112.156 33.731 112.267 33.6097 112.41C33.4899 112.548 33.1361 112.586 32.9081 112.297C32.8578 112.223 32.8206 112.133 32.8135 112.032C32.8095 111.929 32.8332 111.833 32.8527 111.732C32.8887 111.528 32.9479 111.31 33.0268 111.082C33.1838 110.626 33.4344 110.13 33.7936 109.644C34.5135 108.679 35.6981 107.76 37.2142 107.32C38.7251 106.857 40.4846 106.873 42.2612 107.129C42.4837 107.162 42.7048 107.196 42.9247 107.229C43.05 107.24 43.181 107.328 43.2456 107.438C43.3154 107.547 43.3509 107.675 43.3417 107.807C43.33 107.941 43.2694 108.062 43.1721 108.15C43.0749 108.237 42.9493 108.278 42.8292 108.283C42.7025 108.286 42.6018 108.256 42.4963 108.243L42.182 108.195C41.3471 108.07 40.5355 107.999 39.7624 108.007C38.2163 108.011 36.8318 108.418 35.8597 109.084C34.8744 109.736 34.3093 110.565 34.043 111.172C33.7687 111.784 33.7398 112.167 33.7175 112.161C33.715 112.16 33.7172 112.137 33.7238 112.092C33.7327 112.038 33.7438 111.972 33.757 111.892C33.7936 111.717 33.8577 111.46 33.9898 111.148C34.2432 110.525 34.8055 109.67 35.8016 108.994C36.784 108.303 38.1954 107.878 39.7601 107.867C40.5426 107.854 41.3623 107.924 42.2023 108.047L42.5183 108.095C42.6244 108.108 42.7334 108.137 42.8229 108.132C43.0134 108.131 43.1807 107.986 43.1939 107.795C43.2064 107.61 43.088 107.393 42.901 107.381C42.6825 107.348 42.4623 107.314 42.2409 107.281C40.4743 107.026 38.7383 107.008 37.2522 107.456C35.7607 107.88 34.5947 108.772 33.8765 109.711C33.5188 110.184 33.2665 110.666 33.1049 111.112C33.0237 111.334 32.9613 111.547 32.9219 111.747C32.9001 111.847 32.8758 111.943 32.8775 112.029C32.8818 112.117 32.9122 112.195 32.9545 112.262C33.048 112.389 33.1844 112.457 33.304 112.47C33.425 112.483 33.5268 112.443 33.5891 112.387C33.7075 112.264 33.7052 112.155 33.7175 112.161Z" fill="#F6AD5F"/>
<path d="M43.6532 107.981C45.0102 106.693 46.7872 106.05 48.512 105.47C49.4252 105.163 50.4482 104.805 51.4089 105.091C52.1914 105.324 52.744 105.997 53.0823 106.73C53.5551 107.755 53.5748 108.947 53.6137 110.058C53.6343 110.65 54.5326 110.653 54.5117 110.058C54.4411 108.029 54.2131 105.493 52.2252 104.439C51.2256 103.909 50.0922 104.035 49.0451 104.335C48.0172 104.63 46.9945 105 46.0115 105.427C44.921 105.9 43.8923 106.499 43.0182 107.328C42.5927 107.732 43.229 108.383 43.6532 107.981Z" fill="#FACD8A"/>
<path d="M28.7929 118.055C28.7929 118.055 31.6266 106.499 47.8168 108.284L54.4562 109.177C54.4562 109.177 57.5096 108.437 58.1253 109.777C58.1253 109.777 59.4532 109.04 59.9557 110.306C59.9557 110.306 61.2399 110.1 61.4015 111.285C61.4015 111.285 62.6659 110.967 62.796 112.464C62.796 112.464 63.8585 112.58 63.9452 113.85C63.9452 113.85 65.0076 113.984 65.2244 114.764C65.4412 115.544 65.0726 116.644 65.0726 116.644" fill="#FACD8A"/>
<path d="M51.1163 109.528C51.1158 109.533 51.0331 109.531 50.8758 109.522C50.7054 109.511 50.4766 109.497 50.1891 109.479C49.5928 109.441 48.7294 109.4 47.6617 109.395C45.5293 109.386 42.5701 109.556 39.3766 110.218C37.7824 110.547 36.289 111.01 35.0288 111.655C33.7647 112.289 32.7537 113.106 32.0421 113.916C31.3223 114.723 30.9033 115.511 30.6659 116.069C30.5472 116.349 30.4671 116.573 30.4205 116.727C30.3716 116.881 30.3433 116.961 30.3384 116.959C30.3336 116.958 30.3519 116.875 30.3919 116.718C30.4294 116.561 30.5012 116.332 30.6127 116.046C30.8355 115.476 31.2456 114.67 31.9643 113.844C32.6739 113.015 33.6932 112.177 34.9682 111.529C36.2392 110.87 37.7456 110.399 39.3474 110.068C42.5541 109.403 45.5256 109.25 47.6632 109.287C48.7334 109.307 49.598 109.364 50.1937 109.42C50.492 109.444 50.7225 109.474 50.879 109.492C51.0351 109.511 51.1169 109.523 51.1163 109.528Z" fill="#F6AD5F"/>
<path d="M52.7125 110.03C52.7125 110.035 52.637 110.041 52.4934 110.046C52.3496 110.052 52.1376 110.057 51.8642 110.06C51.318 110.067 50.5272 110.06 49.5511 110.052C48.5752 110.049 47.4124 110.039 46.1274 110.126C44.8449 110.223 43.4344 110.411 41.9929 110.774C40.5484 111.132 39.2276 111.673 38.1102 112.332C36.9768 112.964 35.9789 113.579 35.2282 114.214C34.4726 114.843 33.9646 115.471 33.668 115.938C33.37 116.406 33.2522 116.694 33.2348 116.685C33.2302 116.683 33.2596 116.612 33.3206 116.477C33.3766 116.34 33.4793 116.149 33.6191 115.906C33.9031 115.425 34.4056 114.777 35.161 114.13C35.9114 113.477 36.9124 112.848 38.0438 112.209C39.1633 111.539 40.5032 110.985 41.9572 110.625C43.4109 110.26 44.8269 110.075 46.1185 109.985C47.4112 109.905 48.5761 109.926 49.5525 109.944C50.5166 109.967 51.3025 109.986 51.8645 110C52.1262 110.006 52.3353 110.011 52.4931 110.015C52.6367 110.019 52.7125 110.024 52.7125 110.03Z" fill="#F6AD5F"/>
<path d="M52.2086 111.043C52.2083 111.048 52.1474 111.049 52.0315 111.048C51.9 111.044 51.7324 111.039 51.5256 111.033C51.0863 111.018 50.4508 110.997 49.6657 110.993C48.1016 110.991 45.9106 111.049 43.5991 111.69C42.4488 112.017 41.3929 112.472 40.4949 112.998C39.5968 113.525 38.8524 114.11 38.2915 114.67C37.7287 115.228 37.3303 115.739 37.0815 116.109C36.8306 116.478 36.7059 116.693 36.6939 116.686C36.6894 116.683 36.7168 116.627 36.7732 116.523C36.8326 116.421 36.9076 116.262 37.0337 116.076C37.2694 115.692 37.6589 115.167 38.218 114.593C38.7754 114.017 39.5222 113.415 40.4265 112.875C41.3308 112.337 42.3971 111.873 43.5596 111.542C45.894 110.895 48.0993 110.855 49.6666 110.885C50.4537 110.903 51.0895 110.941 51.5282 110.973C51.7344 110.991 51.9017 111.006 52.033 111.017C52.1485 111.028 52.2089 111.037 52.2086 111.043Z" fill="#F6AD5F"/>
<path d="M51.8897 111.285C51.8894 111.29 51.8428 111.294 51.7541 111.297C51.6483 111.299 51.5207 111.301 51.3672 111.304C51.1993 111.302 50.9942 111.304 50.7563 111.324C50.5186 111.341 50.2472 111.345 49.95 111.388C49.652 111.421 49.3263 111.459 48.9802 111.529C48.6316 111.582 48.2669 111.678 47.8814 111.769C47.1166 111.978 46.2898 112.263 45.4564 112.647C44.6267 113.041 43.8748 113.495 43.2193 113.951C42.899 114.19 42.589 114.409 42.3216 114.646C42.043 114.868 41.801 115.095 41.5814 115.305C41.3543 115.506 41.173 115.714 41.0045 115.887C40.8341 116.059 40.6979 116.216 40.5887 116.348C40.486 116.465 40.4008 116.562 40.3298 116.643C40.2692 116.71 40.2355 116.744 40.2315 116.74C40.2275 116.737 40.2532 116.697 40.3064 116.624C40.3716 116.538 40.45 116.434 40.5446 116.309C40.6476 116.171 40.778 116.007 40.9436 115.829C41.1075 115.649 41.2851 115.435 41.509 115.226C41.7258 115.01 41.9658 114.776 42.2435 114.547C42.51 114.305 42.82 114.08 43.1415 113.835C43.799 113.369 44.5569 112.906 45.3952 112.508C46.2375 112.119 47.0746 111.836 47.8485 111.633C48.2386 111.544 48.6078 111.452 48.9605 111.404C49.3102 111.339 49.6397 111.307 49.9406 111.281C50.2406 111.244 50.5146 111.247 50.754 111.238C50.9936 111.227 51.1998 111.233 51.3683 111.244C51.5219 111.253 51.6497 111.26 51.7558 111.266C51.8436 111.273 51.89 111.279 51.8897 111.285Z" fill="#F6AD5F"/>
<path d="M57.9432 109.445C57.9477 109.443 57.9769 109.492 58.0292 109.589C58.0773 109.688 58.1388 109.842 58.176 110.051C58.2592 110.465 58.1951 111.12 57.8016 111.771C57.6054 112.093 57.3203 112.405 56.9605 112.656C56.601 112.908 56.1763 113.111 55.7132 113.261C55.2499 113.411 54.7508 113.517 54.2329 113.602C53.7149 113.688 53.1761 113.762 52.6221 113.815C50.4031 114.033 48.3767 113.877 46.941 113.627C46.2209 113.509 45.648 113.363 45.2531 113.262C45.0703 113.208 44.921 113.164 44.8023 113.129C44.6999 113.097 44.6467 113.078 44.6479 113.073C44.649 113.068 44.7051 113.077 44.8098 113.099C44.9302 113.127 45.0812 113.162 45.2665 113.204C45.6646 113.287 46.2386 113.416 46.9573 113.52C48.3905 113.742 50.4033 113.879 52.6084 113.662C53.7061 113.544 54.7603 113.407 55.6723 113.126C56.5812 112.846 57.3328 112.341 57.7129 111.712C58.103 111.092 58.1823 110.464 58.1188 110.061C58.0621 109.65 57.9237 109.453 57.9432 109.445Z" fill="#F6AD5F"/>
<path d="M59.9557 110.306C59.9606 110.308 59.9457 110.374 59.9126 110.5C59.8948 110.563 59.8771 110.642 59.8468 110.732C59.8119 110.824 59.7727 110.926 59.7292 111.04C59.5422 111.498 59.1661 112.122 58.5435 112.745C57.3034 113.977 55.0657 115.168 52.4214 115.38C51.1075 115.506 49.8505 115.45 48.7159 115.368C47.5802 115.285 46.5598 115.141 45.7198 114.937C44.8787 114.738 44.2206 114.487 43.7813 114.284C43.5628 114.179 43.3943 114.095 43.2845 114.03C43.1733 113.967 43.1163 113.932 43.1189 113.927C43.1212 113.923 43.183 113.949 43.298 114.003C43.4118 114.059 43.5834 114.134 43.8039 114.23C44.2475 114.414 44.9053 114.648 45.7427 114.832C46.5792 115.02 47.5937 115.152 48.7254 115.227C49.8565 115.301 51.1066 115.353 52.4073 115.228C55.0205 115.018 57.2299 113.859 58.4705 112.666C59.0923 112.064 59.4753 111.46 59.676 111.015C59.7235 110.905 59.7664 110.805 59.8047 110.717C59.8391 110.629 59.8611 110.552 59.8834 110.491C59.926 110.368 59.9506 110.305 59.9557 110.306Z" fill="#F6AD5F"/>
<path d="M61.4109 111.229C61.4109 111.229 61.4175 111.561 61.2542 112.132C61.098 112.701 60.6945 113.493 59.9343 114.22C59.1744 114.94 58.1022 115.616 56.8009 116.048C55.5001 116.485 54.0009 116.673 52.4385 116.771C49.308 116.988 46.4502 116.769 44.4394 116.322C43.4327 116.106 42.633 115.865 42.0899 115.672C41.8165 115.581 41.6108 115.491 41.469 115.438C41.3283 115.381 41.2551 115.349 41.2571 115.344C41.2588 115.339 41.3354 115.361 41.4793 115.408C41.624 115.453 41.8325 115.533 42.1076 115.615C42.6545 115.79 43.455 116.015 44.4597 116.216C46.4666 116.634 49.3082 116.835 52.4285 116.618C53.9863 116.521 55.4724 116.338 56.7583 115.913C58.043 115.495 59.1063 114.838 59.8622 114.141C60.6178 113.436 61.0274 112.669 61.1984 112.114C61.3772 111.557 61.3915 111.225 61.4109 111.229Z" fill="#F6AD5F"/>
<path d="M41.4547 117.263C41.4564 117.258 41.5373 117.28 41.6906 117.324C41.8562 117.374 42.079 117.44 42.3593 117.523C42.9405 117.691 43.7836 117.93 44.8395 118.161C46.9405 118.622 49.9403 119.057 53.2096 118.605C54.8395 118.384 56.361 117.955 57.678 117.402C58.9994 116.858 60.1073 116.161 60.887 115.4C61.6789 114.649 62.1917 113.911 62.4582 113.358C62.5935 113.083 62.6716 112.856 62.7219 112.701C62.7674 112.546 62.7903 112.463 62.796 112.464C62.7986 112.465 62.7963 112.486 62.7889 112.527C62.7808 112.568 62.7706 112.63 62.7508 112.71C62.7096 112.868 62.6396 113.101 62.5103 113.385C62.2566 113.953 61.7495 114.711 60.959 115.479C60.1782 116.26 59.0591 116.978 57.7301 117.532C56.4045 118.097 54.8709 118.534 53.229 118.757C49.9346 119.212 46.9181 118.756 44.8169 118.266C43.7604 118.021 42.9199 117.766 42.3427 117.579C42.0544 117.486 41.8316 117.409 41.6815 117.354C41.531 117.299 41.453 117.268 41.4547 117.263Z" fill="#F6AD5F"/>
<path d="M43.1203 119.245C43.1229 119.24 43.1987 119.278 43.3406 119.354C43.4844 119.427 43.6852 119.554 43.9609 119.685C44.5014 119.967 45.3088 120.329 46.3436 120.658C47.3769 120.99 48.6496 121.254 50.0787 121.336C50.7929 121.368 51.5453 121.367 52.3201 121.289C53.0943 121.211 53.8897 121.07 54.6893 120.86C56.2889 120.43 57.7707 119.853 59.0351 119.164C60.2972 118.472 61.3471 117.68 62.0904 116.872C62.8375 116.069 63.3148 115.301 63.5671 114.736C63.6417 114.6 63.6938 114.473 63.7344 114.36C63.7767 114.252 63.8136 114.159 63.8451 114.079C63.906 113.927 63.9403 113.849 63.9452 113.85C63.95 113.852 63.9251 113.933 63.8731 114.089C63.8451 114.171 63.8124 114.267 63.775 114.377C63.7387 114.492 63.69 114.622 63.6191 114.761C63.3812 115.339 62.9121 116.125 62.1662 116.947C61.4238 117.773 60.3687 118.584 59.0992 119.288C57.827 119.99 56.3358 120.576 54.7262 121.008C53.9191 121.221 53.1152 121.361 52.3333 121.438C51.5508 121.514 50.7912 121.513 50.0707 121.477C48.6293 121.386 47.3483 121.109 46.3118 120.762C45.2739 120.417 44.4688 120.037 43.9343 119.738C43.6615 119.599 43.4647 119.462 43.3254 119.381C43.1881 119.296 43.1175 119.249 43.1203 119.245Z" fill="#F6AD5F"/>
<path d="M49.7018 113.855C49.6606 113.879 49.3569 113.207 48.7048 112.623C48.0601 112.03 47.3746 111.803 47.3926 111.758C47.394 111.721 48.1294 111.89 48.8035 112.508C49.4836 113.119 49.7375 113.849 49.7018 113.855Z" fill="#F6AD5F"/>
<path d="M51.8897 113.762C51.8651 113.766 51.8245 113.572 51.7129 113.279C51.6014 112.987 51.3963 112.603 51.0617 112.272C50.7277 111.941 50.3524 111.728 50.0782 111.586C49.8013 111.447 49.6223 111.372 49.6297 111.35C49.6351 111.332 49.8268 111.371 50.1208 111.488C50.4119 111.607 50.8117 111.812 51.1652 112.162C51.5193 112.512 51.7232 112.932 51.8122 113.243C51.902 113.557 51.9054 113.76 51.8897 113.762Z" fill="#F6AD5F"/>
<path d="M54.0919 113.55C54.0415 113.573 53.874 112.807 53.241 112.16C52.6115 111.509 51.8677 111.335 51.8897 111.285C51.8937 111.268 52.0787 111.291 52.3616 111.397C52.6413 111.506 53.0197 111.712 53.3466 112.052C53.6758 112.389 53.8782 112.776 53.9815 113.065C54.0864 113.355 54.1088 113.546 54.0919 113.55Z" fill="#F6AD5F"/>
<path d="M50.9256 109.92C50.9259 109.91 51.0094 109.906 51.1612 109.909C51.3131 109.909 51.5322 109.932 51.7996 109.98C52.3344 110.074 53.0623 110.318 53.7681 110.775C54.4723 111.235 54.9979 111.808 55.3097 112.264C55.4667 112.492 55.5805 112.686 55.6454 112.827C55.7129 112.966 55.7455 113.045 55.7364 113.05C55.7126 113.064 55.5551 112.76 55.2256 112.329C54.8981 111.898 54.375 111.353 53.6883 110.904C53.0002 110.459 52.2981 110.206 51.7784 110.086C51.2579 109.964 50.9239 109.948 50.9256 109.92Z" fill="#F6AD5F"/>
<path d="M51.4112 108.987C51.4106 108.976 51.509 108.966 51.6883 108.956C51.7781 108.95 51.888 108.946 52.0152 108.954C52.1425 108.961 52.2887 108.96 52.448 108.985C52.7683 109.018 53.1455 109.097 53.5539 109.223C53.9595 109.357 54.3945 109.542 54.8235 109.791C55.2496 110.045 55.6251 110.337 55.9432 110.629C56.2555 110.927 56.5134 111.221 56.7028 111.489C56.8043 111.617 56.8781 111.747 56.9484 111.856C57.0199 111.965 57.0726 112.064 57.1123 112.147C57.1947 112.311 57.2359 112.403 57.2267 112.408C57.2016 112.423 57.0177 112.061 56.6198 111.555C56.4233 111.3 56.1622 111.02 55.8516 110.734C55.5353 110.454 55.1661 110.172 54.7494 109.924C54.3298 109.68 53.9066 109.496 53.5119 109.357C53.1146 109.227 52.7474 109.137 52.4339 109.092C51.8082 108.997 51.4118 109.017 51.4112 108.987Z" fill="#F6AD5F"/>
<path d="M52.8412 108.896C52.8381 108.886 52.9067 108.854 53.0343 108.804C53.1612 108.753 53.3514 108.695 53.5899 108.64C54.0661 108.528 54.7482 108.457 55.4936 108.543C56.2389 108.632 56.8878 108.859 57.3271 109.079C57.5473 109.188 57.7198 109.288 57.8322 109.368C57.9457 109.446 58.0058 109.493 58.0004 109.502C57.9872 109.524 57.7281 109.368 57.2842 109.178C56.8415 108.987 56.2043 108.782 55.4767 108.695C54.7491 108.611 54.0833 108.663 53.61 108.746C53.1358 108.828 52.8492 108.921 52.8412 108.896Z" fill="#FF9A6C"/>
<path d="M40.6076 116.412C43.0955 115.171 45.0117 112.873 47.5951 111.859C45.0008 112.577 42.6078 114.047 40.764 116.055" fill="black"/>
<path d="M47.7201 115.315C49.6503 115.785 51.666 115.881 53.63 115.596C54.4803 115.473 55.3308 115.275 56.0976 114.877C56.8644 114.479 57.5468 114.051 57.9174 113.254C54.9619 115.32 51.9578 115.757 47.7198 115.265" fill="black"/>
<path d="M40.5741 110.771C39.197 111.316 38.3516 111.78 37.189 112.714C40.4368 110.825 42.1977 110.458 44.9127 110.111C43.4452 109.955 41.9512 110.226 40.5741 110.771Z" fill="black"/>
<path d="M57.1549 109.114L41.1275 109.151C41.7739 109.536 42.5532 109.678 43.2888 109.546C43.4939 109.509 43.6995 109.452 43.9071 109.469C44.1148 109.487 44.3318 109.601 44.3999 109.803C44.468 110.005 44.3727 110.232 44.4231 110.439C44.5126 110.806 44.9791 110.903 45.3449 110.859C45.7107 110.816 46.1182 110.715 46.4194 110.932C46.776 111.19 46.7817 111.758 47.106 112.057C47.4204 112.348 47.9091 112.282 48.311 112.149C48.7131 112.016 49.1332 111.831 49.5422 111.939C50.1783 112.107 50.5592 112.933 51.2161 112.936C51.823 112.939 52.2446 112.22 52.8504 112.179C53.2347 112.152 53.5768 112.406 53.94 112.537C54.3035 112.668 54.8226 112.591 54.909 112.205C54.9513 112.016 54.8729 111.797 54.9771 111.635C55.1149 111.42 55.4324 111.489 55.6657 111.582C55.8991 111.674 56.2177 111.741 56.3533 111.525C56.5406 111.226 56.1136 110.774 56.3381 110.503C56.468 110.346 56.7074 110.394 56.9053 110.363C57.1707 110.322 57.3998 110.099 57.4538 109.828C57.5079 109.558 57.3829 109.259 57.1549 109.114Z" fill="black"/>
<path d="M57.2279 109.19C56.9556 108.902 56.5495 108.806 56.1671 108.724C55.4012 108.558 54.6353 108.392 53.8694 108.226C51.6466 107.745 49.5528 107.039 47.3923 107.761L46.8704 107.393C44.3261 106.407 42.6502 107.368 41.3294 108.199C41.197 108.282 41.0002 108.384 40.9159 108.517C40.7983 108.704 40.9133 108.969 41.098 109.084C41.2831 109.198 41.5107 109.203 41.7267 109.205C42.496 109.211 43.2651 109.217 44.0341 109.224C44.1717 109.225 44.3141 109.227 44.4388 109.286C44.5635 109.346 44.6662 109.479 44.647 109.619C44.6273 109.763 44.4937 109.859 44.4234 109.986C44.2592 110.281 44.496 110.675 44.8092 110.784C45.1224 110.893 45.465 110.8 45.7787 110.692C46.1525 110.565 46.6364 110.446 46.8807 110.764C47.0528 110.988 47.0022 111.322 47.1398 111.57C47.2982 111.855 47.6683 111.948 47.9835 111.892C48.2987 111.836 48.5815 111.666 48.8764 111.539C49.1715 111.413 49.5102 111.329 49.807 111.451C50.188 111.607 50.3739 112.036 50.5775 112.402C50.7811 112.767 51.1295 113.142 51.5313 113.059C52.0347 112.955 52.2266 112.208 52.7337 112.126C53.179 112.054 53.5402 112.546 53.9901 112.574C54.4459 112.603 54.8189 112.023 54.615 111.603C54.7548 111.448 54.9951 111.451 55.1933 111.507C55.3915 111.562 55.5837 111.66 55.7893 111.658C55.9949 111.656 56.2217 111.501 56.2054 111.29C56.1917 111.114 56.0201 110.987 55.9972 110.812C55.9646 110.561 56.2475 110.389 56.4926 110.363C56.7377 110.337 57.0054 110.378 57.2133 110.243C57.5445 110.027 57.5001 109.479 57.2279 109.19Z" fill="#FF725E"/>
<path d="M51.4853 109.802L50.7568 109.56C51.7324 110.179 53.0054 110.614 54.1188 110.333C55.2322 110.051 55.8516 109.294 56.4362 108.28C54.7797 109.117 53.2276 109.175 51.4853 109.802Z" fill="black"/>
<path d="M51.0077 109.571C50.0138 109.783 48.6519 109.197 47.8362 108.576C47.0205 107.954 46.4454 107.034 46.1294 106.042C45.813 105.051 45.7441 103.988 45.8176 102.948C47.6088 103.344 49.2871 104.265 50.603 105.576C51.1335 106.104 51.2954 106.781 51.37 107.536C51.4432 108.279 51.4284 108.962 51.0077 109.571Z" fill="#455A64"/>
<path d="M47.5688 105.345C47.5737 105.336 47.6423 105.366 47.763 105.429C47.8845 105.49 48.0521 105.594 48.2512 105.736C48.649 106.019 49.1501 106.492 49.5799 107.112C50.0101 107.732 50.3012 108.353 50.4926 108.806C50.6819 109.261 50.7743 109.552 50.7568 109.56C50.7362 109.568 50.6095 109.292 50.397 108.852C50.1825 108.413 49.8802 107.808 49.459 107.201C49.0377 106.594 48.5629 106.123 48.188 105.823C47.8136 105.522 47.5559 105.368 47.5688 105.345Z" fill="#263238"/>
<path d="M50.7568 109.56C51.7796 110.45 53.9786 110.043 55.1575 109.416C56.3364 108.789 57.2753 107.699 57.7387 106.42C56.2406 105.835 54.4525 106.011 52.9708 106.638C52.3253 106.911 52.0882 107.136 51.5928 107.642C50.9562 108.291 50.8767 108.853 50.7568 109.56Z" fill="#455A64"/>
<path d="M54.9499 107.493C54.9582 107.545 53.8565 107.512 52.6727 108.105C51.4804 108.681 50.8143 109.583 50.7803 109.544C50.7674 109.534 50.9121 109.298 51.2184 108.977C51.523 108.656 52.0044 108.266 52.6084 107.967C53.2133 107.671 53.8113 107.531 54.2455 107.488C54.6808 107.444 54.9507 107.477 54.9499 107.493Z" fill="#263238"/>
<path d="M57.7387 106.42C57.7301 106.452 57.2702 106.273 56.4934 106.19C55.7226 106.102 54.623 106.134 53.4907 106.504C52.9319 106.695 52.4274 106.976 52.0261 107.298C51.6226 107.621 51.3334 107.999 51.1541 108.349C50.7906 109.06 50.8561 109.591 50.8235 109.584C50.8158 109.584 50.7934 109.459 50.8077 109.23C50.8226 109.003 50.8838 108.67 51.0603 108.3C51.2339 107.93 51.5276 107.528 51.9406 107.188C52.3533 106.847 52.8661 106.557 53.4447 106.358C54.6041 105.979 55.7258 105.965 56.5063 106.083C56.8987 106.138 57.209 106.223 57.4195 106.291C57.6286 106.365 57.7418 106.41 57.7387 106.42Z" fill="#263238"/>
<path d="M49.5768 110.258C49.8067 110.258 49.8073 109.891 49.5768 109.891C49.3469 109.891 49.3463 110.258 49.5768 110.258Z" fill="black"/>
<path d="M46.6115 109.629C46.8415 109.629 46.8421 109.262 46.6115 109.262C46.3816 109.262 46.3813 109.629 46.6115 109.629Z" fill="black"/>
<path d="M47.5951 111.119C47.8251 111.119 47.8256 110.752 47.5951 110.752C47.3649 110.752 47.3646 111.119 47.5951 111.119Z" fill="black"/>
<path d="M48.9196 111.238C48.9473 111.266 48.6939 111.517 48.2824 111.593C47.8711 111.672 47.5476 111.53 47.5642 111.494C47.5754 111.45 47.8851 111.515 48.2558 111.442C48.627 111.375 48.8941 111.201 48.9196 111.238Z" fill="black"/>
<path d="M52.1488 112.176C52.1845 112.194 52.1045 112.422 51.9043 112.629C51.7052 112.838 51.485 112.924 51.4667 112.887C51.4458 112.85 51.6163 112.713 51.7982 112.522C51.9818 112.332 52.1113 112.155 52.1488 112.176Z" fill="black"/>
<path d="M54.4954 111.655C54.5323 111.637 54.6236 111.841 54.5255 112.077C54.4291 112.313 54.2229 112.388 54.2097 112.348C54.1891 112.31 54.3161 112.2 54.3885 112.017C54.4663 111.836 54.4545 111.666 54.4954 111.655Z" fill="black"/>
<path d="M55.7192 110.807C55.7435 110.773 55.882 110.859 55.9197 111.044C55.9583 111.229 55.8654 111.365 55.8299 111.345C55.7913 111.328 55.8036 111.21 55.7739 111.076C55.7487 110.942 55.6906 110.839 55.7192 110.807Z" fill="black"/>
<path d="M46.4866 110.247C46.4969 110.264 46.4108 110.345 46.2498 110.446C46.0896 110.545 45.8482 110.665 45.5554 110.71C45.2616 110.754 44.9876 110.696 44.8149 110.606C44.6396 110.517 44.5638 110.417 44.5758 110.404C44.5898 110.385 44.6856 110.45 44.8541 110.506C45.0214 110.563 45.2673 110.599 45.5339 110.558C46.0693 110.468 46.4628 110.199 46.4866 110.247Z" fill="black"/>
<path d="M44.7505 109.184C44.7397 109.206 44.5506 109.112 44.2249 109.044C43.8997 108.972 43.4387 108.95 42.9256 108.969C42.4119 108.988 41.9372 108.995 41.5974 108.938C41.2568 108.888 41.06 108.797 41.0657 108.78C41.0723 108.757 41.2751 108.808 41.6086 108.831C41.942 108.858 42.4039 108.835 42.9216 108.816C43.4392 108.797 43.9186 108.836 44.25 108.939C44.5832 109.038 44.7594 109.17 44.7505 109.184Z" fill="black"/>
<path d="M49.9123 111.243C49.8808 111.272 49.7922 111.223 49.6806 111.199C49.5699 111.171 49.4693 111.175 49.4533 111.135C49.4341 111.098 49.5531 111.012 49.7138 111.05C49.8748 111.088 49.9452 111.219 49.9123 111.243Z" fill="black"/>
<path d="M47.05 108.228C46.7677 107.822 46.6882 107.649 46.0418 107.448C44.8518 107.194 43.586 107.331 42.4731 107.833C42.4154 107.859 42.3513 107.894 42.3367 107.957C42.321 108.024 42.3736 108.092 42.4365 108.116C42.4994 108.141 42.5689 108.133 42.6359 108.125C43.4146 108.03 44.1974 107.969 44.9811 107.94C45.2222 107.931 45.4798 107.93 45.6823 108.065C45.8396 108.169 45.9403 108.342 46.0733 108.478C46.2801 108.689 46.5718 108.81 46.8635 108.805C46.9914 108.802 47.1461 108.75 47.1664 108.62C47.1778 108.541 47.0955 108.294 47.05 108.228Z" fill="white"/>
<path d="M41.0225 111.785C41.0517 111.755 41.0826 111.726 41.1155 111.7C41.1035 111.709 41.0915 111.719 41.0795 111.728C41.1392 111.681 41.2039 111.643 41.2731 111.612C41.2588 111.618 41.2448 111.624 41.2305 111.631C41.3022 111.6 41.3775 111.578 41.4547 111.567C41.4956 111.562 41.5416 111.518 41.5616 111.483C41.584 111.444 41.5937 111.386 41.5797 111.341C41.5657 111.297 41.5388 111.254 41.4976 111.231C41.4833 111.225 41.469 111.219 41.455 111.213C41.4232 111.204 41.3915 111.204 41.36 111.213C41.1384 111.244 40.9262 111.361 40.7706 111.525C40.7054 111.594 40.6988 111.718 40.7706 111.785C40.8404 111.852 40.9528 111.859 41.0225 111.785Z" fill="#455A64"/>
<path d="M37.5405 110.086C37.5199 110.096 37.4993 110.107 37.4781 110.116C37.4924 110.11 37.5067 110.104 37.5208 110.098C37.4475 110.129 37.3715 110.151 37.2928 110.162C37.3085 110.16 37.3246 110.158 37.3403 110.156C37.2616 110.166 37.1827 110.166 37.104 110.155C37.1198 110.158 37.1358 110.16 37.1515 110.162C37.1384 110.16 37.1255 110.158 37.1126 110.155C37.0643 110.146 37.0185 110.148 36.9748 110.174C36.9376 110.196 36.9024 110.24 36.8927 110.284C36.8727 110.374 36.919 110.492 37.0174 110.51C37.2596 110.555 37.5019 110.52 37.7207 110.403C37.8039 110.358 37.8354 110.232 37.7847 110.151C37.7304 110.064 37.6291 110.038 37.5405 110.086Z" fill="#455A64"/>
<path d="M50.6988 111.189C50.7234 111.173 50.7485 111.158 50.7743 111.145C50.7809 111.142 50.7874 111.139 50.794 111.136C50.8115 111.128 50.8072 111.13 50.7811 111.141C50.7909 111.14 50.802 111.133 50.8115 111.129C50.8386 111.119 50.8664 111.111 50.8947 111.104C50.9087 111.1 50.923 111.097 50.937 111.094C50.943 111.093 50.9896 111.086 50.9562 111.091C50.9227 111.096 50.9693 111.09 50.9756 111.089C50.9899 111.088 51.0045 111.087 51.0191 111.087C51.0463 111.086 51.0734 111.087 51.1003 111.089C51.1126 111.09 51.1258 111.093 51.1381 111.093C51.1083 111.089 51.1035 111.088 51.1226 111.091C51.1298 111.092 51.1369 111.094 51.1441 111.095C51.1727 111.101 51.2004 111.108 51.2282 111.117C51.3177 111.145 51.4269 111.083 51.4481 110.988C51.4701 110.889 51.4189 110.792 51.3234 110.762C51.0568 110.678 50.7545 110.719 50.5186 110.872C50.4394 110.923 50.401 111.038 50.4545 111.123C50.5051 111.205 50.6141 111.244 50.6988 111.189Z" fill="#455A64"/>
<path d="M56.4159 112.536C56.4394 112.696 56.5423 112.83 56.6659 112.924C56.7217 112.966 56.7883 112.997 56.8546 113.016C56.941 113.041 57.024 113.04 57.1115 113.027C57.1527 113.021 57.1984 112.978 57.2184 112.943C57.2407 112.904 57.2505 112.845 57.2365 112.801C57.2224 112.757 57.1956 112.714 57.1544 112.691C57.1401 112.685 57.1258 112.679 57.1118 112.673C57.08 112.664 57.0483 112.664 57.0168 112.673C57.0145 112.673 57.0125 112.673 57.0102 112.674C57.026 112.672 57.042 112.669 57.0577 112.667C57.0251 112.671 56.9925 112.671 56.9599 112.668C56.9756 112.67 56.9916 112.672 57.0074 112.674C56.9705 112.669 56.935 112.659 56.9004 112.645C56.9147 112.651 56.929 112.657 56.943 112.663C56.9064 112.647 56.8727 112.627 56.8409 112.603C56.8529 112.612 56.8649 112.622 56.8769 112.631C56.8458 112.606 56.8177 112.578 56.7934 112.546C56.8029 112.558 56.812 112.571 56.8215 112.583C56.8003 112.554 56.7826 112.523 56.7686 112.491C56.7746 112.505 56.7806 112.52 56.7866 112.534C56.774 112.503 56.7651 112.471 56.7603 112.438C56.754 112.395 56.7125 112.349 56.6782 112.328C56.6399 112.305 56.5835 112.295 56.5403 112.309C56.4971 112.324 56.4554 112.351 56.4334 112.394C56.4274 112.408 56.4213 112.423 56.4153 112.437C56.4073 112.47 56.4073 112.503 56.4159 112.536Z" fill="#455A64"/>
<path d="M59.2519 111.281C59.2013 111.304 59.2496 111.283 59.2608 111.279C59.2748 111.274 59.2888 111.269 59.3028 111.265C59.3294 111.257 59.3649 111.257 59.3892 111.246C59.36 111.25 59.3551 111.25 59.3746 111.248C59.382 111.247 59.3892 111.246 59.3966 111.246C59.4112 111.245 59.4261 111.244 59.4409 111.244C59.4687 111.243 59.4964 111.244 59.5239 111.247C59.5696 111.252 59.4898 111.24 59.5259 111.247C59.5405 111.25 59.555 111.253 59.5694 111.256C59.5982 111.263 59.6266 111.271 59.6546 111.281C59.6614 111.284 59.6683 111.287 59.6752 111.289C59.6929 111.297 59.6889 111.295 59.6632 111.284C59.6692 111.292 59.6938 111.299 59.7029 111.304C59.7292 111.318 59.7541 111.334 59.7787 111.351C59.8559 111.406 59.9803 111.368 60.0232 111.285C60.0713 111.192 60.0415 111.092 59.9592 111.034C59.8302 110.942 59.6789 110.895 59.5242 110.88C59.3674 110.865 59.2144 110.9 59.0714 110.964C59.0331 110.981 58.9999 111.034 58.9893 111.074C58.9776 111.118 58.9828 111.177 59.0074 111.216C59.032 111.255 59.0686 111.29 59.1143 111.3C59.1641 111.312 59.2056 111.302 59.2519 111.281Z" fill="#455A64"/>
<path d="M41.0511 108.216C41.0523 108.23 40.8435 108.251 40.4717 108.318C40.099 108.38 39.5665 108.512 38.9256 108.728C37.6414 109.155 35.9452 109.984 34.1977 111.11C32.4317 112.21 31.1049 113.595 30.2724 114.683C29.8548 115.228 29.5471 115.694 29.3449 116.022C29.1407 116.35 29.0331 116.535 29.0223 116.528C29.0177 116.526 29.0394 116.477 29.0852 116.385C29.1324 116.295 29.197 116.158 29.2954 115.991C29.4833 115.652 29.7793 115.174 30.1894 114.617C31.0057 113.505 32.3376 112.09 34.1194 110.98C35.8748 109.848 37.5908 109.029 38.8941 108.624C39.5448 108.42 40.0853 108.304 40.4634 108.259C40.651 108.227 40.7997 108.227 40.899 108.217C40.9982 108.211 41.0506 108.21 41.0511 108.216Z" fill="#F6AD5F"/>
<path d="M44.3524 109.76C44.3524 109.765 44.3007 109.772 44.2017 109.781C44.0859 109.79 43.9429 109.801 43.769 109.815C43.3935 109.843 42.8504 109.894 42.1846 109.991C40.8572 110.184 39.0203 110.6 37.1756 111.524C35.3297 112.447 33.8997 113.718 33.0337 114.768C32.5964 115.291 32.2804 115.748 32.0765 116.073C31.8717 116.397 31.7653 116.582 31.7541 116.576C31.7496 116.573 31.7713 116.525 31.8168 116.434C31.8642 116.344 31.9272 116.207 32.027 116.042C32.2169 115.706 32.5218 115.236 32.9531 114.698C33.8059 113.621 35.2433 112.32 37.1098 111.387C38.9748 110.452 40.8323 110.05 42.1703 109.884C42.8415 109.8 43.388 109.765 43.7656 109.755C43.9543 109.747 44.101 109.75 44.2006 109.75C44.3001 109.751 44.3524 109.754 44.3524 109.76Z" fill="#F6AD5F"/>
<path d="M45.0531 110.745C45.0537 110.756 44.8898 110.78 44.5938 110.816C44.4457 110.831 44.2646 110.853 44.0567 110.893C43.8485 110.931 43.6094 110.961 43.3509 111.027C43.0906 111.084 42.8063 111.148 42.5069 111.241C42.2037 111.319 41.8897 111.436 41.5568 111.551C40.899 111.803 40.1917 112.126 39.4856 112.535C38.7832 112.952 38.1531 113.413 37.6071 113.867C37.3411 114.103 37.0832 114.321 36.8632 114.549C36.633 114.767 36.4345 114.986 36.2543 115.187C36.0676 115.382 35.9206 115.578 35.783 115.744C35.6437 115.907 35.5333 116.056 35.445 116.18C35.2648 116.424 35.1607 116.556 35.1521 116.55C35.1435 116.544 35.2313 116.4 35.3981 116.145C35.4796 116.015 35.584 115.86 35.7178 115.69C35.8502 115.519 35.9927 115.317 36.1757 115.115C36.3524 114.908 36.5481 114.682 36.7769 114.459C36.9954 114.224 37.2528 114 37.5193 113.759C38.0662 113.294 38.7014 112.824 39.4118 112.402C40.1259 111.988 40.8432 111.666 41.5107 111.419C41.8482 111.306 42.1671 111.192 42.4746 111.118C42.7783 111.03 43.0666 110.971 43.3303 110.921C43.5922 110.861 43.8345 110.838 44.0453 110.808C44.2558 110.776 44.4388 110.763 44.5887 110.757C44.8873 110.739 45.0526 110.734 45.0531 110.745Z" fill="#F6AD5F"/>
<path d="M47.1624 111.532C47.1638 111.543 47.0297 111.577 46.7869 111.629C46.5435 111.679 46.1937 111.764 45.767 111.886C45.3394 112.005 44.8389 112.177 44.2944 112.396C43.7527 112.623 43.1687 112.902 42.5798 113.241C41.9932 113.586 41.4598 113.956 40.9914 114.317C40.5275 114.683 40.1262 115.036 39.8068 115.351C39.4859 115.665 39.2339 115.928 39.0674 116.117C38.8987 116.304 38.8012 116.405 38.7932 116.398C38.7852 116.391 38.8675 116.278 39.0237 116.078C39.1773 115.876 39.4189 115.599 39.733 115.273C40.0456 114.945 40.4437 114.581 40.9076 114.205C41.376 113.834 41.9131 113.456 42.506 113.108C43.1015 112.765 43.6938 112.487 44.2438 112.265C44.7966 112.05 45.3054 111.887 45.7398 111.781C46.1734 111.672 46.5286 111.602 46.7763 111.57C47.024 111.536 47.161 111.522 47.1624 111.532Z" fill="#F6AD5F"/>
<path d="M32.3836 112.661C32.4111 112.697 31.8928 113.136 31.3477 113.77C30.7992 114.4 30.4354 114.98 30.3974 114.957C30.3639 114.939 30.6765 114.312 31.2365 113.668C31.793 113.022 32.3622 112.629 32.3836 112.661Z" fill="white"/>
<path d="M33.5391 113.051C33.5614 113.091 33.171 113.335 32.8063 113.761C32.4368 114.183 32.2472 114.61 32.2063 114.591C32.1697 114.581 32.3055 114.105 32.6951 113.659C33.0809 113.209 33.525 113.015 33.5391 113.051Z" fill="white"/>
<path d="M35.467 112.777C35.4922 112.815 34.9796 113.202 34.4314 113.772C33.8797 114.338 33.5047 114.866 33.4684 114.84C33.4358 114.82 33.7624 114.242 34.3261 113.664C34.8864 113.082 35.4475 112.744 35.467 112.777Z" fill="white"/>
<path d="M37.0998 113.422C37.1186 113.464 36.5029 113.759 35.8491 114.283C35.1913 114.802 34.7589 115.341 34.7237 115.311C34.6925 115.291 35.0823 114.696 35.7579 114.162C36.4297 113.624 37.0883 113.385 37.0998 113.422Z" fill="white"/>
<path d="M38.4142 113.942C38.4394 113.978 38.1454 114.237 37.8096 114.581C37.4724 114.924 37.2187 115.224 37.1844 115.199C37.1521 115.175 37.358 114.825 37.7047 114.473C38.0499 114.119 38.3916 113.909 38.4142 113.942Z" fill="white"/>
<path d="M39.9958 114.239C40.0155 114.279 39.6266 114.506 39.2107 114.868C38.792 115.228 38.5083 115.583 38.4731 115.556C38.4408 115.535 38.6799 115.125 39.1146 114.751C39.5476 114.375 39.9809 114.202 39.9958 114.239Z" fill="white"/>
<path d="M41.926 114.403C41.9492 114.439 41.6563 114.678 41.308 114.982C40.9585 115.286 40.6825 115.545 40.6513 115.515C40.6216 115.487 40.8541 115.177 41.2116 114.865C41.5679 114.554 41.9043 114.369 41.926 114.403Z" fill="white"/>
<path d="M46.45 107.645C46.4417 107.697 45.4026 107.301 44.0893 107.474C42.7734 107.627 41.8554 108.264 41.8354 108.216C41.8262 108.202 42.0384 108.026 42.4308 107.822C42.8218 107.618 43.4026 107.406 44.0713 107.321C44.7403 107.24 45.3534 107.304 45.7801 107.408C46.2089 107.51 46.4557 107.63 46.45 107.645Z" fill="white"/>
<path d="M49.0646 116.26C49.0646 116.28 48.802 116.299 48.3776 116.3C47.9532 116.301 47.3663 116.28 46.7211 116.223C46.0753 116.165 45.4939 116.081 45.076 116.005C44.6579 115.928 44.4028 115.863 44.4062 115.843C44.4096 115.821 44.6707 115.849 45.0912 115.897C45.5116 115.946 46.0916 116.013 46.734 116.07C47.376 116.128 47.9586 116.165 48.3807 116.192C48.8029 116.219 49.0646 116.238 49.0646 116.26Z" fill="white"/>
<path d="M51.8076 114.999C51.8099 115.019 51.5788 115.069 51.1999 115.112C50.8212 115.156 50.2941 115.187 49.7121 115.17C49.1298 115.152 48.6053 115.091 48.2295 115.026C47.8536 114.961 47.6257 114.897 47.6291 114.877C47.6369 114.832 48.5635 114.985 49.7164 115.017C50.8687 115.053 51.8025 114.953 51.8076 114.999Z" fill="white"/>
<path d="M59.9111 113.785C59.8811 113.751 60.268 113.384 60.6061 112.827C60.9496 112.273 61.1043 111.756 61.1475 111.769C61.1847 111.775 61.0897 112.33 60.7322 112.909C60.379 113.489 59.9323 113.817 59.9111 113.785Z" fill="white"/>
<path d="M61.1893 114.605C61.1627 114.568 61.4741 114.314 61.7249 113.895C61.9812 113.48 62.0676 113.081 62.111 113.09C62.1491 113.091 62.1256 113.53 61.8511 113.976C61.5805 114.426 61.2067 114.64 61.1893 114.605Z" fill="white"/>
<path d="M62.3264 115.595C62.2972 115.563 62.5352 115.294 62.7897 114.934C63.0466 114.576 63.225 114.261 63.2636 114.28C63.2997 114.297 63.1764 114.653 62.9098 115.025C62.6453 115.398 62.3524 115.626 62.3264 115.595Z" fill="white"/>
<path d="M64.2666 116.115C64.2417 116.08 64.361 115.951 64.4731 115.773C64.5875 115.597 64.655 115.434 64.6965 115.443C64.7357 115.45 64.7285 115.654 64.5975 115.857C64.4677 116.062 64.2881 116.15 64.2666 116.115Z" fill="white"/>
<path d="M50.8006 113.612C50.7972 113.654 50.5972 113.671 50.3539 113.65C50.1105 113.629 49.916 113.578 49.9194 113.536C49.9229 113.494 50.1228 113.477 50.3662 113.497C50.6095 113.519 50.804 113.57 50.8006 113.612Z" fill="white"/>
<path d="M52.8901 113.399C52.8944 113.441 52.7909 113.486 52.6587 113.501C52.5266 113.515 52.4162 113.492 52.4119 113.45C52.4076 113.408 52.5112 113.363 52.6433 113.348C52.7754 113.334 52.8858 113.357 52.8901 113.399Z" fill="white"/>
<path d="M55.4072 112.907C55.4103 112.95 55.2204 112.999 54.9896 113.055C54.7585 113.111 54.5672 113.154 54.5515 113.114C54.5358 113.076 54.7116 112.965 54.9556 112.906C55.199 112.847 55.4046 112.866 55.4072 112.907Z" fill="white"/>
<path d="M50.7488 106.377C50.7114 106.413 50.1113 105.435 48.9542 104.729C47.8065 104.007 46.6851 103.918 46.6985 103.867C46.6996 103.85 46.9768 103.848 47.4144 103.94C47.8511 104.03 48.4442 104.236 49.0308 104.598C49.6163 104.962 50.0696 105.406 50.3513 105.76C50.635 106.115 50.7626 106.369 50.7488 106.377Z" fill="white"/>
<path d="M53.2327 106.862C53.245 106.906 52.7754 107.057 52.2678 107.381C51.757 107.701 51.4141 108.063 51.3812 108.032C51.3506 108.009 51.6566 107.585 52.1897 107.251C52.7202 106.913 53.2267 106.823 53.2327 106.862Z" fill="white"/>
<path d="M18.1434 116.343V117.095L27.5783 121.619C27.5783 121.619 28.3933 126.992 35.2642 127.112C42.1351 127.231 58.6719 127.112 58.6719 127.112C58.6719 127.112 64.3782 127.604 66.125 121.738L75.1481 117.235L75.0342 116.29L18.1434 116.343Z" fill="#E0E0E0"/>
<path d="M57.7121 127.165H35.6306V128.17H57.7121V127.165Z" fill="#E0E0E0"/>
<path d="M66.2803 121.715C66.2803 121.718 66.2466 121.721 66.1805 121.725C66.1067 121.728 66.0101 121.732 65.8874 121.737C65.6203 121.744 65.2424 121.755 64.76 121.769C63.7715 121.787 62.357 121.814 60.613 121.847C57.1112 121.902 52.2729 121.957 46.9293 121.965C41.5837 121.974 36.7446 121.931 33.2428 121.845C31.4919 121.798 30.0753 121.758 29.0969 121.706C28.615 121.682 28.2372 121.662 27.9706 121.649C27.8482 121.641 27.7516 121.635 27.6781 121.63C27.6123 121.625 27.5783 121.621 27.5783 121.619C27.5783 121.616 27.6126 121.615 27.6786 121.614C27.7524 121.615 27.8494 121.616 27.9721 121.618C28.2389 121.625 28.617 121.634 29.0992 121.647C30.0776 121.68 31.4944 121.704 33.2451 121.737C36.7463 121.795 41.5845 121.821 46.9293 121.812C52.2723 121.804 57.11 121.766 60.6121 121.739C62.3564 121.726 63.771 121.716 64.7594 121.709C65.2419 121.708 65.6202 121.707 65.8871 121.706C66.0098 121.707 66.1067 121.708 66.1805 121.709C66.2466 121.711 66.2803 121.713 66.2803 121.715Z" fill="#263238"/>
<path d="M57.453 127.385C57.453 127.427 52.5561 127.461 46.5169 127.461C40.4757 127.461 35.58 127.427 35.58 127.385C35.58 127.342 40.4757 127.308 46.5169 127.308C52.5561 127.308 57.453 127.342 57.453 127.385Z" fill="#263238"/>
<path d="M74.9479 117.235C74.9479 117.277 62.2154 117.311 46.5132 117.311C30.8052 117.311 18.0756 117.277 18.0756 117.235C18.0756 117.192 30.8052 117.158 46.5132 117.158C62.2154 117.158 74.9479 117.192 74.9479 117.235Z" fill="#263238"/>
<path d="M65.1669 116.301C65.1601 116.298 65.1881 116.22 65.2416 116.076C65.2916 115.932 65.3774 115.718 65.3852 115.438C65.3937 115.163 65.2859 114.817 65.0497 114.525C64.7971 114.24 64.3741 114.102 63.9248 113.956L63.8579 113.934L63.8845 113.865C63.9955 113.577 63.8925 113.203 63.6843 112.923C63.5785 112.786 63.4389 112.657 63.2816 112.583C63.1238 112.506 62.9416 112.502 62.7717 112.567L62.6384 112.618L62.6742 112.477C62.7102 112.334 62.6802 112.16 62.617 112C62.5177 111.765 62.3596 111.52 62.1488 111.434C61.9291 111.346 61.6712 111.386 61.4478 111.462L61.3477 111.497L61.3526 111.39C61.3892 110.604 60.4542 110.097 59.9883 110.473L59.922 110.526L59.8997 110.439C59.8165 110.115 59.6108 109.87 59.3749 109.755C59.1421 109.631 58.905 109.611 58.7188 109.617C58.3401 109.637 58.1468 109.756 58.1408 109.737C58.1385 109.733 58.1842 109.702 58.2781 109.659C58.3727 109.618 58.5189 109.569 58.7145 109.55C58.9081 109.534 59.1586 109.543 59.4158 109.669C59.6755 109.785 59.9151 110.055 60.0115 110.408L59.9231 110.374C60.0547 110.28 60.2254 110.213 60.4062 110.218C60.5866 110.222 60.7623 110.288 60.9233 110.378C61.2576 110.56 61.5076 110.955 61.4964 111.395L61.4015 111.323C61.644 111.24 61.9263 111.187 62.2031 111.293C62.3421 111.345 62.4557 111.457 62.5406 111.567C62.629 111.68 62.701 111.807 62.7554 111.943C62.8252 112.122 62.8655 112.324 62.818 112.515L62.7208 112.424C62.9195 112.346 63.1549 112.352 63.3425 112.446C63.5316 112.539 63.6775 112.677 63.7979 112.834C64.0252 113.149 64.1451 113.559 64.0066 113.918L63.9663 113.827C64.4099 113.979 64.8555 114.128 65.1309 114.45C65.384 114.778 65.4821 115.144 65.4635 115.442C65.4432 115.74 65.342 115.952 65.2799 116.092C65.2133 116.232 65.1732 116.304 65.1669 116.301Z" fill="#F6AD5F"/>
</svg>
