<svg width="20" height="21" viewBox="0 0 20 21" fill="none" xmlns="http://www.w3.org/2000/svg">
<path d="M10 13.6667C6.58612 13.6667 3.55019 15.2823 1.61735 17.7896C1.20136 18.3293 0.993358 18.5991 1.00016 18.9637C1.00542 19.2455 1.18591 19.6009 1.41207 19.7748C1.70479 20 2.11044 20 2.92174 20H17.0783C17.8896 20 18.2952 20 18.5879 19.7748C18.8141 19.6009 18.9946 19.2455 18.9998 18.9637C19.0066 18.5991 18.7986 18.3293 18.3826 17.7896C16.4498 15.2823 13.4139 13.6667 10 13.6667Z" stroke="#845EF1" stroke-linecap="round" stroke-linejoin="round"/>
<path d="M10 10.5C12.6764 10.5 14.8461 8.37335 14.8461 5.75C14.8461 3.12665 12.6764 1 10 1C7.32358 1 5.15392 3.12665 5.15392 5.75C5.15392 8.37335 7.32358 10.5 10 10.5Z" stroke="#845EF1" stroke-linecap="round" stroke-linejoin="round"/>
</svg>
