<svg width="393" height="485" viewBox="0 0 393 485" fill="none" xmlns="http://www.w3.org/2000/svg">
<path d="M291.887 407.514C258.768 424.339 223.115 433.967 187.174 435.792C160.755 437.133 131.111 432.453 114.378 407.915C104.654 393.655 99.9335 373.517 86.41 364.767C72.7679 355.94 55.9326 362.448 40.5623 360.02C24.5757 357.495 10.054 344.323 3.6837 326.57C-2.68661 308.818 -0.675192 287.128 8.79152 271.485C30.957 234.859 84.6778 236.517 99.2713 194.79C105.691 176.435 101.893 155.385 104.53 135.736C107.942 110.308 122.324 88.2402 140.315 74.1518C158.306 60.0633 179.634 53.2109 200.938 49.8158C229.039 45.3367 260.673 47.9252 281.022 71.5777C293.583 86.1776 300.581 107.496 315.351 118.74C322.724 124.354 331.387 126.903 339.425 131.003C369.722 146.46 389.66 184.681 392.579 223.987C395.498 263.294 382.991 302.814 362.737 333.928C342.484 365.042 317.713 394.392 291.887 407.514Z" fill="#C6C9FF"/>
<path d="M199.885 152.068L179.22 126.04C177.255 112.228 194.774 106.756 206.969 108.05C219.163 109.344 230.377 115.93 238.964 124.685C247.551 133.439 253.735 144.267 258.867 155.404C265.015 168.749 270.306 183.415 281.926 192.407C287.91 197.038 295.435 200.028 299.731 206.256C304.881 213.723 303.461 224.971 296.616 230.922C289.771 236.873 278.436 236.717 271.757 230.579C274.465 237.34 271.211 245.614 265.163 249.673C259.115 253.731 250.975 253.887 244.224 251.154C237.473 248.421 232.012 243.113 227.926 237.083C211.065 212.194 216.545 177.093 199.885 152.068Z" fill="#263238"/>
<path d="M95.7667 295.936C94.3148 284.03 94.0491 275.498 96.2626 259.574C98.0921 246.411 101.03 235.134 110.877 228.414L130.387 277.548L139.657 335.021L141.993 356.609L139.657 393.732H95.4209C91.556 393.732 88.6077 390.274 89.2205 386.457L93.3066 360.978V344.292L95.7667 295.936Z" fill="#E0E0E0"/>
<path d="M129.514 384.163C128.657 385.663 119.012 413.739 119.012 413.739C119.012 425.337 113.028 436.112 103.183 442.241L101.286 443.422L90.0471 443.592C90.0471 443.592 89.9428 443.662 88.3638 444.173C88.3638 444.173 87.648 445.693 82.0159 446.769C81.0573 446.952 80.0694 447.025 79.0943 446.992L58.7868 446.317C58.7868 446.317 52.9996 443.531 52.9996 440.53C52.9996 437.529 55.3567 437.101 55.3567 437.101C55.3567 437.101 53.8375 431.514 56 428.528C58.1308 425.585 61.4732 423.319 61.4732 423.319C61.4732 423.319 63.7159 418.454 64.7877 414.81C65.8594 411.166 69.9748 411.024 69.9748 411.024C69.9748 411.024 72.0115 405.973 74.4322 404.951C78.231 403.347 82.1481 403.236 91.2574 406.451L93.9362 407.094C93.9362 407.094 93.2929 391.234 92.6495 390.805C92.0062 390.377 93.5064 380.089 105.724 377.517C117.939 374.946 129.514 384.163 129.514 384.163Z" fill="#AE7461"/>
<path d="M76.2012 417.96C76.163 417.985 76.383 418.383 76.8152 419.082C77.2539 419.776 77.9048 420.77 78.7579 421.967C80.4577 424.361 82.9508 427.574 85.9881 430.875C87.4845 432.537 89.047 434.032 90.3641 435.409C91.6571 436.778 92.5483 438.345 92.472 439.735C92.411 441.138 91.7041 442.166 91.0685 442.599C90.4252 443.06 89.928 443.023 89.9433 443.098C89.9446 443.121 90.0577 443.13 90.2815 443.124C90.5001 443.098 90.8371 443.04 91.207 442.816C91.9559 442.405 92.8077 441.318 92.9386 439.762C93.0835 438.161 92.1262 436.441 90.8155 435C89.4793 433.553 87.9714 432.088 86.475 430.427C83.4556 427.146 80.9217 424 79.1329 421.687C77.3429 419.375 76.2838 417.904 76.2012 417.96Z" fill="#6F4439"/>
<path d="M69.9055 411.921C69.8673 411.9 69.5533 412.413 69.0486 413.377C68.5693 414.353 67.9069 415.794 67.3869 417.685C66.8834 419.56 66.4677 421.944 67.0004 424.544C67.1276 425.192 67.3526 425.838 67.6373 426.475C67.9374 427.103 68.3646 427.713 68.8006 428.245C69.6741 429.343 70.6187 430.443 71.6129 431.543C73.6127 433.738 75.5592 435.769 77.4599 437.522C79.3682 439.26 81.2651 440.627 82.942 441.625C84.6189 442.626 86.0746 443.258 87.0981 443.631C88.1215 444.006 88.7139 444.128 88.7241 444.095C88.7724 443.973 86.4382 443.301 83.1874 441.227C81.5677 440.192 79.7318 438.81 77.8731 437.072C76.0296 435.326 74.087 433.274 72.1049 431.098C71.1171 430.004 70.1775 428.917 69.3092 427.838C68.3989 426.797 67.8649 425.636 67.5967 424.409C67.0614 421.968 67.4047 419.645 67.842 417.798C68.7867 414.075 70.0428 411.979 69.9055 411.921Z" fill="#6F4439"/>
<path d="M58.0581 429.922C58.0225 429.95 58.2666 430.312 58.7421 430.945C59.2099 431.583 59.9486 432.461 60.9111 433.498C62.8321 435.575 65.7715 438.21 69.4317 440.531C73.0996 442.844 76.7407 444.368 79.4411 445.212C80.7913 445.638 81.8999 445.928 82.6767 446.077C83.4523 446.234 83.8845 446.301 83.8947 446.256C83.9214 446.147 82.228 445.725 79.5924 444.77C76.9569 443.82 73.4022 442.251 69.7864 439.972C66.1783 437.683 63.2364 435.146 61.2479 433.171C59.2532 431.199 58.1458 429.85 58.0581 429.922Z" fill="#6F4439"/>
<path d="M56.2804 437.026C56.2219 437.087 56.9097 437.876 58.1632 439.005C59.4155 440.135 61.2565 441.582 63.4483 442.941C65.6427 444.297 67.7595 445.3 69.3283 445.918C70.8985 446.537 71.9105 446.802 71.9384 446.723C72.0122 446.531 68.118 445.074 63.7966 442.379C59.46 439.713 56.419 436.875 56.2804 437.026Z" fill="#6F4439"/>
<path d="M87.4821 411.029C87.2774 410.987 86.7625 414.32 85.2534 418.086C84.4893 419.955 83.2701 421.345 82.1322 421.983C81.0109 422.653 80.1489 422.673 80.1603 422.782C80.1438 422.852 81.0643 423.013 82.3534 422.395C83.6477 421.821 85.0678 420.308 85.8598 418.348C87.4224 414.441 87.6347 411.039 87.4821 411.029Z" fill="#6F4439"/>
<path d="M109.183 420.359C109.175 420.338 108.997 420.38 108.664 420.481C108.335 420.592 107.849 420.762 107.247 421.034C106.034 421.565 104.367 422.519 102.4 423.807C100.423 425.062 98.1221 426.697 95.2438 427.738C93.811 428.251 92.2281 428.57 90.5855 428.485C88.9556 428.404 87.2622 427.919 85.9171 426.851C85.2522 426.328 84.7029 425.66 84.4283 424.916C84.1397 424.17 84.23 423.375 84.5542 422.649C84.8695 421.921 85.3577 421.252 85.823 420.595C86.2896 419.937 86.7702 419.312 87.2596 418.717C89.215 416.335 91.2657 414.436 93.1104 413.008C94.9463 411.563 96.5736 410.585 97.7026 409.924C98.8354 409.265 99.4876 408.944 99.4621 408.892C99.452 408.871 99.2803 408.93 98.9587 409.062C98.6358 409.19 98.1692 409.4 97.5793 409.696C96.4045 410.293 94.7225 411.218 92.8269 412.635C90.9224 414.033 88.8043 415.925 86.7892 418.326C86.2858 418.927 85.7899 419.56 85.3094 420.225C84.8339 420.888 84.324 421.566 83.9579 422.39C83.5803 423.194 83.4532 424.237 83.8079 425.138C84.1385 426.039 84.7665 426.786 85.5039 427.368C86.985 428.544 88.8234 429.057 90.5537 429.132C92.2968 429.214 93.9711 428.858 95.4497 428.312C98.4247 427.194 100.714 425.497 102.657 424.196C104.587 422.86 106.193 421.861 107.357 421.266C108.519 420.663 109.202 420.41 109.183 420.359Z" fill="#6F4439"/>
<path d="M97.1373 438.664C97.3432 438.636 96.7597 435.797 97.5289 432.409C98.2523 429.009 99.9724 426.678 99.7982 426.566C99.6965 426.439 97.6484 428.696 96.883 432.266C96.0808 435.826 96.9923 438.736 97.1373 438.664Z" fill="#6F4439"/>
<path d="M101.761 407.303C101.823 407.411 102.708 406.588 104.484 406.45C105.356 406.382 106.419 406.497 107.499 406.908C108.58 407.316 109.663 408.043 110.664 408.958C112.655 410.817 114.07 412.934 115.33 414.271C116.56 415.642 117.517 416.293 117.567 416.225C117.631 416.149 116.805 415.39 115.687 413.969C114.536 412.58 113.194 410.422 111.111 408.47C110.064 407.513 108.899 406.749 107.709 406.335C106.523 405.922 105.369 405.851 104.433 405.986C102.517 406.267 101.697 407.285 101.761 407.303Z" fill="#6F4439"/>
<path d="M203.306 164.54L222.152 176.938L273.871 180.226L289.265 259.206L286.447 376.161L309.573 443.812L126.999 443.68L143.91 365.074C145.24 357.343 144.476 351.675 141.913 346.749L129.733 323.342L128.407 275.954L110.372 228.998L148.156 205.6L157.636 195.612L203.306 164.54Z" fill="#E0E0E0"/>
<path d="M58.0696 31.2493C63.0419 23.3923 71.3147 18.125 79.9892 14.7763C88.6637 11.4275 98.8727 8.15375 107.898 5.91616C121.095 2.64495 133.302 -0.317322 146.882 0.364127C159.05 0.975651 170.612 5.79411 181.423 11.4135C199.226 20.6665 216.037 32.5232 228.315 48.3936C230.212 50.8448 232.041 53.4892 232.624 56.5341C233.362 60.394 231.997 64.339 230.326 67.8962C222.095 85.422 205.522 98.7992 186.654 103.146L101.845 88.2812C91.0462 84.3006 59.5991 69.2871 55.6985 60.0583C51.7967 50.8308 52.7121 39.7165 58.0696 31.2493Z" fill="#E0E0E0"/>
<path d="M58.0681 31.2499C58.0681 31.2499 57.7846 31.6796 57.2646 32.5378C56.7611 33.4048 56.0644 34.7283 55.3423 36.5438C53.9285 40.1367 52.4385 45.9557 53.6018 53.3042C53.8789 55.1324 54.3976 57.0229 55.0931 58.9477C55.444 59.8987 55.8394 60.9082 56.4891 61.7829C57.1158 62.6639 57.838 63.5018 58.6389 64.2862C61.8453 67.4366 65.8755 70.1904 70.2833 72.9314C74.7089 75.6572 79.5782 78.3195 84.8226 80.9499C90.0771 83.56 95.6774 86.2044 101.751 88.5247L101.771 88.5323L101.795 88.5361C126.011 92.799 154.971 97.8959 186.594 103.462L186.659 103.473L186.721 103.458C194.629 101.584 202.417 98.1578 209.374 93.2058C216.318 88.2552 222.482 81.878 227.167 74.3846C228.137 72.7229 229.13 71.0803 229.953 69.3526C230.849 67.6642 231.613 65.9059 232.215 64.0866C232.805 62.2685 233.194 60.359 233.146 58.4278C233.112 56.4966 232.558 54.5933 231.69 52.91C230.833 51.2115 229.725 49.6859 228.592 48.2162C227.422 46.7757 226.297 45.3073 225.069 43.9342C222.677 41.1347 220.132 38.5094 217.509 36.0175C207 26.0322 195.17 18.3799 183.462 12.149C177.606 9.02397 171.737 6.23079 165.798 4.10761C159.867 1.98444 153.849 0.561794 147.929 0.162587C136.067 -0.623114 125.109 1.5738 115.373 3.85462C110.495 5.02935 105.85 6.15069 101.5 7.39663C97.151 8.63493 93.0839 9.92282 89.3105 11.2107C85.5371 12.4999 82.0523 13.7712 78.8803 15.0477C75.7095 16.3343 72.929 17.7862 70.5287 19.2482C65.7395 22.2131 62.5636 25.3037 60.6934 27.5858C58.8105 29.8755 58.0681 31.2499 58.0681 31.2499C58.0681 31.2499 58.3033 30.9409 58.7343 30.3193C58.9428 30.004 59.2225 29.6251 59.5695 29.1865C59.9026 28.7364 60.3095 28.2304 60.7964 27.6761C62.692 25.4296 65.8793 22.3885 70.6634 19.472C73.0612 18.0341 75.8366 16.6064 78.9998 15.3439C82.1667 14.0903 85.6579 12.8355 89.43 11.5654C93.2034 10.2966 97.2692 9.02651 101.615 7.806C105.958 6.57787 110.603 5.47306 115.481 4.31358C125.211 2.06327 136.125 -0.0916871 147.891 0.713084C153.749 1.11992 159.713 2.54003 165.602 4.65939C171.499 6.77874 177.339 9.56684 183.176 12.6918C194.844 18.9202 206.618 26.5548 217.063 36.4917C219.669 38.9721 222.199 41.5822 224.574 44.3665C226.909 47.1648 229.409 49.9618 231.103 53.2101C231.939 54.8362 232.453 56.6186 232.487 58.4481C232.533 60.2776 232.163 62.1147 231.588 63.8844C231.002 65.6542 230.251 67.3858 229.364 69.0589C228.55 70.7689 227.567 72.3937 226.607 74.0375C221.971 81.4521 215.869 87.7669 208.996 92.6719C202.111 97.5768 194.402 100.971 186.58 102.833L186.707 102.829C155.077 97.3085 126.11 92.2536 101.887 88.0263L101.931 88.039C95.8898 85.748 90.2818 83.1189 85.0336 80.5304C79.7918 77.9215 74.9238 75.2796 70.502 72.5793C66.0992 69.8649 62.0729 67.134 58.8919 64.0357C57.2951 62.491 56.0072 60.7874 55.3995 58.8359C54.7015 56.9352 54.1765 55.0663 53.8917 53.2571C52.6953 45.9837 54.1243 40.1926 55.486 36.5998C56.1814 34.7843 56.8539 33.4532 57.3333 32.5772C57.8291 31.7076 58.0681 31.2499 58.0681 31.2499Z" fill="#263238"/>
<path d="M174.535 51.801C174.554 51.9828 184.502 51.0839 196.753 49.7922C209.008 48.5005 218.923 47.3067 218.904 47.1249C218.885 46.9431 208.938 47.842 196.683 49.1337C184.433 50.4254 174.516 51.6192 174.535 51.801Z" fill="#263238"/>
<path d="M79.1699 38.9442C79.0949 38.9925 79.7077 40.0923 80.7909 41.8099C81.8741 43.5288 83.4341 45.8617 85.2458 48.3752C87.0587 50.8899 88.7801 53.1072 90.068 54.6773C91.3559 56.2474 92.2052 57.1755 92.2751 57.1209C92.3488 57.0624 91.6292 56.0326 90.4393 54.3913C89.1107 52.563 87.5304 50.3903 85.7835 47.9887C84.057 45.5731 82.4945 43.3876 81.18 41.5492C79.9989 39.9003 79.2475 38.8934 79.1699 38.9442Z" fill="#263238"/>
<path d="M60.0625 51.0595C60.0295 51.1497 61.442 51.7396 63.7215 52.6931C66.0011 53.6467 69.1401 54.9803 72.5638 56.5454C75.9889 58.1142 79.0503 59.6183 81.2612 60.7205C83.4721 61.8215 84.8426 62.5055 84.8884 62.4216C84.9304 62.3453 83.6399 61.5177 81.4799 60.3073C79.3199 59.0957 76.2787 57.5192 72.8397 55.944C69.4019 54.3713 66.221 53.1013 63.8919 52.2571C61.5627 51.4142 60.0931 50.9781 60.0625 51.0595Z" fill="#263238"/>
<path d="M185.664 56.7501C165.791 47.9765 151.715 40.6852 130.454 46.2728C118.46 49.4258 114.877 42.9406 106.93 47.6726C98.9827 52.4033 92.519 59.1937 89.4334 67.9127C85.7681 78.2692 83.3665 89.3872 85.1655 100.226C87.0128 111.358 88.8791 122.565 92.7339 133.17C96.5887 143.776 102.593 153.863 111.441 160.867L140.353 157.921C155.723 154.168 171.3 150.336 185.158 142.7C199.017 135.066 213.62 123.525 215.486 107.813C218.04 86.3029 205.774 65.628 185.664 56.7501Z" fill="#263238"/>
<path d="M116.295 53.55L125.583 49.7397L166.435 54.0369C171.818 52.8164 177.241 55.9173 178.918 61.1782L201.718 166.09L157.332 212.197C154.802 202.471 150.464 184.321 150.464 184.321C150.464 184.321 125.202 188.821 110.907 161.754C103.799 148.293 96.562 124.714 91.2656 105.232C86.498 87.6937 94.7122 59.6881 116.295 53.55Z" fill="#AE7461"/>
<path d="M109.274 127.524C109.867 129.487 112.016 130.602 114.075 130.021C116.131 129.441 117.322 127.385 116.731 125.424C116.14 123.462 113.989 122.345 111.934 122.923C109.873 123.504 108.683 125.564 109.274 127.524Z" fill="#263238"/>
<path d="M100.59 113.108C101.208 113.431 103.288 110.426 107.24 109.09C111.17 107.699 114.76 108.744 115.023 108.114C115.161 107.828 114.402 107.123 112.828 106.634C111.274 106.142 108.852 105.975 106.395 106.823C103.94 107.675 102.179 109.286 101.306 110.618C100.41 111.963 100.294 112.969 100.59 113.108Z" fill="#263238"/>
<path d="M135.185 137.332C135.128 137.102 132.528 137.513 128.377 138.36C127.333 138.599 126.311 138.724 125.905 138.094C125.42 137.446 125.47 136.217 125.559 134.877C125.676 132.113 125.797 129.217 125.926 126.181C126.341 113.837 126.277 103.825 125.779 103.813C125.281 103.801 124.54 113.797 124.124 126.141C124.047 129.177 123.968 132.072 123.899 134.838C123.908 136.115 123.694 137.638 124.725 138.976C125.254 139.637 126.18 139.93 126.887 139.885C127.6 139.862 128.171 139.679 128.681 139.539C132.757 138.389 135.246 137.562 135.185 137.332Z" fill="#263238"/>
<path d="M150.413 184.3C150.413 184.3 170.087 178.982 185.255 161.019C185.255 161.019 181.803 184.333 152.249 191.415L150.413 184.3Z" fill="#6F4439"/>
<path d="M97.9977 98.6667C98.9893 99.4054 101.794 97.7297 105.427 96.8194C109.032 95.7922 112.306 95.8418 112.786 94.709C112.987 94.1661 112.281 93.3588 110.727 92.8057C109.191 92.2514 106.801 92.0684 104.311 92.732C101.824 93.4007 99.8526 94.7497 98.8101 95.9943C97.7472 97.2479 97.5501 98.298 97.9977 98.6667Z" fill="#263238"/>
<path d="M151.569 114.385C152.227 116.326 151.124 118.482 149.111 119.204C147.101 119.927 144.935 118.944 144.279 117.004C143.623 115.062 144.724 112.904 146.734 112.183C148.747 111.459 150.913 112.445 151.569 114.385Z" fill="#263238"/>
<path d="M154.424 96.3208C154.109 96.9425 150.671 95.7042 146.678 96.9107C142.672 98.06 140.354 100.996 139.773 100.635C139.495 100.482 139.703 99.4674 140.701 98.1541C141.681 96.8522 143.557 95.3088 146.049 94.574C148.543 93.8429 150.911 94.1328 152.396 94.7087C153.907 95.2847 154.586 96.0348 154.424 96.3208Z" fill="#263238"/>
<path d="M148.402 84.1433C147.888 85.2863 144.521 85.2685 140.8 86.3339C137.047 87.2836 134.134 88.9936 133.127 88.2613C132.672 87.8951 132.894 86.8386 134.009 85.5672C135.105 84.3073 137.156 82.9292 139.725 82.235C142.295 81.5447 144.749 81.7061 146.316 82.2503C147.908 82.7893 148.617 83.5954 148.402 84.1433Z" fill="#263238"/>
<path d="M187.624 111.416C186.903 109.284 187.653 103.419 189.646 102.374C194.968 99.5836 205.252 96.5832 210.209 110.824C216.986 130.291 196.042 133.08 195.814 132.533C195.636 132.106 190.113 118.781 187.624 111.416Z" fill="#AE7461"/>
<path d="M198.722 123.554C198.786 123.463 199.145 123.674 199.808 123.737C200.457 123.797 201.48 123.641 202.362 122.906C204.156 121.436 204.751 117.567 203.624 114.025C203.057 112.235 202.099 110.678 200.986 109.499C199.895 108.282 198.627 107.609 197.529 107.785C196.416 107.905 195.899 108.781 195.85 109.41C195.779 110.046 196.039 110.393 195.947 110.46C195.91 110.529 195.416 110.281 195.292 109.423C195.238 109.007 195.306 108.468 195.634 107.935C195.969 107.394 196.588 106.96 197.337 106.787C198.875 106.369 200.706 107.279 201.93 108.572C203.238 109.844 204.357 111.58 204.994 113.589C206.235 117.556 205.505 121.924 202.973 123.718C201.728 124.551 200.441 124.537 199.691 124.281C198.921 124.013 198.667 123.613 198.722 123.554Z" fill="#6F4439"/>
<path d="M190.472 102.205L186.903 108.838C159.333 94.1335 102.241 53.9623 105.482 56.4007C105.482 56.4007 118.653 46.0989 135.586 44.3177C152.519 42.5366 185.443 42.0242 190.321 61.2167C195.199 80.4091 190.472 102.205 190.472 102.205Z" fill="#263238"/>
<path d="M214.081 89.3916C214.11 89.3725 213.901 89.0166 213.474 88.3516C213.043 87.6918 212.341 86.7573 211.318 85.6602C209.277 83.4785 205.776 80.7349 200.802 78.7745C195.867 76.7136 189.533 75.6787 182.579 75.4219C175.617 75.0964 167.977 75.4702 160.064 74.3667C152.137 73.3915 144.741 71.3408 138.241 68.9151C131.749 66.4436 126.152 63.5614 121.648 60.8203C117.142 58.0755 113.705 55.5099 111.366 53.6956C110.28 52.8235 109.401 52.1166 108.706 51.5585C108.094 51.0741 107.76 50.8312 107.738 50.8579C107.715 50.8846 108.002 51.1783 108.574 51.7148C109.151 52.2425 109.984 53.0485 111.122 54.0071C113.395 55.9243 116.787 58.5954 121.28 61.4407C125.771 64.2822 131.384 67.2585 137.922 69.8025C144.466 72.3007 151.936 74.401 159.949 75.3876C167.963 76.5026 175.65 76.0957 182.553 76.3691C189.464 76.5738 195.676 77.5171 200.553 79.4521C205.465 81.2892 208.949 83.8803 211.043 85.9386C213.131 88.0249 213.992 89.4564 214.081 89.3916Z" fill="#455A64"/>
<path d="M213.147 94.4935C213.147 94.4935 212.893 92.8153 211.164 90.3807C209.487 87.9536 206.118 84.9621 201.104 83.1428C196.101 81.2141 189.66 80.9624 182.756 81.3006C175.836 81.6909 168.248 81.8358 160.385 80.5454C152.54 79.2779 145.217 77.1305 138.9 74.3793C132.562 71.6675 127.179 68.5158 122.883 65.5624C118.553 62.6421 115.404 59.8044 113.184 57.905C112.186 56.9693 111.373 56.2078 110.727 55.6026C110.156 55.0839 109.843 54.822 109.818 54.8474C109.791 54.8715 110.053 55.183 110.575 55.7513C111.188 56.3959 111.957 57.2083 112.903 58.2038C115.047 60.2036 118.142 63.1481 122.456 66.1727C126.733 69.229 132.131 72.4812 138.517 75.2718C144.882 78.1019 152.284 80.3051 160.223 81.5879C168.165 82.8949 175.913 82.7143 182.8 82.2719C189.681 81.8816 195.968 82.0621 200.852 83.8446C205.763 85.5279 209.099 88.3363 210.835 90.626C212.621 92.9196 213.02 94.5533 213.147 94.4935Z" fill="#455A64"/>
<path d="M212.115 79.8046L207.198 70.1474C206.479 68.7336 205.665 67.3631 204.719 66.0892C197.613 56.5082 186.874 51.2524 175.337 47.3888C164.544 43.7743 144.838 39.3576 127.663 41.9041C88.9553 47.6417 80.2744 60.4037 80.2744 60.4037C80.2744 60.4037 79.607 69.3337 84.2296 90.8197C98.4752 76.5143 156.831 67.0325 212.115 79.8046Z" fill="#E0E0E0"/>
<path d="M212.114 79.8026C211.759 79.7187 211.066 79.5521 209.561 79.1936C207.934 78.783 205.489 78.2808 202.286 77.654C195.9 76.4348 186.543 74.9778 174.781 74.1489C163.028 73.325 148.846 73.1864 133.071 74.8367C125.194 75.6999 116.912 77.0031 108.466 79.1911C104.248 80.2934 99.9864 81.6245 95.801 83.384C91.6462 85.1652 87.4355 87.2795 83.999 90.5876L84.5495 90.749C82.8904 82.859 81.3546 74.5354 80.7329 65.9715C80.6083 64.0708 80.5257 62.1536 80.6045 60.4258L80.5486 60.5873C82.1225 58.6192 84.2444 57.0071 86.3612 55.587C87.4101 54.842 88.5505 54.2432 89.6401 53.577C90.7805 52.9972 91.8891 52.3641 93.0447 51.8352C97.6382 49.6561 102.37 47.9461 107.109 46.6099C109.455 45.8624 111.852 45.3691 114.189 44.7537C116.55 44.2376 118.894 43.7532 121.217 43.2955C123.554 42.9128 125.862 42.4971 128.148 42.1525C130.435 41.8423 132.71 41.6325 134.963 41.5359C143.983 41.1634 152.558 42.2047 160.415 43.7468C168.281 45.3068 175.454 47.463 181.769 49.9943C188.079 52.5256 193.485 55.5743 197.652 58.993C201.811 62.4091 204.839 66.0338 206.64 69.3584C210.053 75.8728 211.714 79.0411 212.114 79.8026C212.114 79.8026 212.012 79.5827 211.79 79.1313C211.555 78.6558 211.224 77.9846 210.792 77.1111C209.907 75.3338 208.608 72.6448 206.861 69.2376C205.076 65.8596 202.052 62.1828 197.882 58.712C193.702 55.2386 188.271 52.1391 181.941 49.5684C175.609 46.9977 168.412 44.8059 160.521 43.2167C152.636 41.6453 144.025 40.576 134.935 40.9333C132.665 41.0261 130.371 41.2333 128.061 41.5423C125.761 41.8843 123.448 42.2975 121.101 42.6789C118.769 43.134 116.415 43.6171 114.043 44.1333C111.694 44.7486 109.288 45.2407 106.927 45.9908C102.162 47.3295 97.3966 49.0458 92.7587 51.244C91.5916 51.7767 90.4703 52.4175 89.3171 53.0023C88.2123 53.6774 87.0592 54.2826 85.9925 55.039C83.8274 56.5024 81.7131 58.0725 79.998 60.216L79.9459 60.2809L79.9421 60.3775C79.8595 62.1892 79.9459 64.0911 80.0692 66.016C80.696 74.6383 82.2395 82.9772 83.9075 90.8863L84.0295 91.4623L84.4593 91.0478C87.7762 87.8478 91.9348 85.7386 96.0477 83.9752C100.192 82.2271 104.427 80.8985 108.623 79.795C117.025 77.6044 125.278 76.2886 133.132 75.4088C148.861 73.7242 163.015 73.8132 174.751 74.5786C186.497 75.3478 195.851 76.7374 202.243 77.8829C205.429 78.4664 207.913 78.9508 209.603 79.3055C211.083 79.5992 211.764 79.7339 212.114 79.8026Z" fill="#263238"/>
<path d="M149.164 30.0245C148.988 29.9406 147.648 32.4947 145.682 35.4392C143.726 38.3926 141.889 40.6162 142.034 40.7446C142.157 40.8641 144.245 38.807 146.233 35.8054C148.232 32.8138 149.322 30.0931 149.164 30.0245Z" fill="#263238"/>
<path d="M154.081 142.927C153.417 141.446 152.152 140.339 150.778 139.73C148.03 138.512 144.778 139.286 142.919 141.601C141.061 143.916 140.708 147.629 142.069 150.576C143.922 151.988 146.297 152.605 148.581 152.132C148.935 152.058 149.286 151.967 149.632 151.853C151.308 151.304 152.854 150.221 153.772 148.592C154.69 146.963 154.899 144.755 154.081 142.927Z" fill="#6F4439"/>
<path d="M148.921 136.083C148.256 136.28 149.811 140.631 147.196 145.059C144.592 149.493 139.778 150.674 139.962 151.295C139.999 151.59 141.298 151.768 143.275 151.117C145.219 150.491 147.802 148.865 149.402 146.157C150.995 143.447 151.063 140.57 150.57 138.733C150.082 136.853 149.21 135.951 148.921 136.083Z" fill="#263238"/>
<path d="M137.453 389.031C137.464 389.034 137.511 388.904 137.593 388.647C137.68 388.355 137.795 387.978 137.937 387.502C138.238 386.448 138.662 384.967 139.202 383.079C139.744 381.141 140.402 378.791 141.164 376.069C141.534 374.698 141.971 373.246 142.358 371.682C142.707 370.109 143.076 368.447 143.462 366.704C144.188 363.219 144.928 359.289 144.514 355.04C144.309 352.925 143.765 350.767 142.893 348.678C142.028 346.583 140.843 344.573 139.512 342.61C136.906 338.669 133.393 334.981 132.263 329.927C130.89 325.018 130.375 319.704 130.165 314.286C129.896 306.2 130.338 298.367 131.119 291.223L131.128 291.141L131.098 291.068C125.08 276.074 119.893 263.149 116.19 253.927C114.337 249.375 112.857 245.74 111.822 243.198C111.315 241.983 110.918 241.031 110.629 240.343C110.5 240.046 110.394 239.806 110.309 239.612C110.234 239.45 110.192 239.367 110.183 239.371C110.174 239.375 110.2 239.462 110.258 239.633C110.329 239.831 110.418 240.078 110.528 240.384C110.792 241.081 111.157 242.046 111.624 243.278C112.618 245.836 114.041 249.495 115.822 254.074C119.469 263.318 124.58 276.273 130.51 291.302L130.489 291.147C129.685 298.333 129.232 306.174 129.503 314.311C129.715 319.763 130.234 325.115 131.64 330.11C131.781 330.743 132.014 331.347 132.245 331.949C132.471 332.551 132.698 333.151 132.923 333.749C133.228 334.313 133.532 334.875 133.833 335.435L134.288 336.27L134.808 337.046C136.24 339.059 137.64 341.031 139.008 342.955C141.693 346.794 143.584 350.943 143.967 355.099C144.397 359.241 143.699 363.13 143.003 366.61C142.633 368.353 142.281 370.013 141.947 371.586C141.578 373.148 141.157 374.607 140.804 375.98C140.086 378.711 139.464 381.069 138.953 383.014C138.465 384.915 138.081 386.406 137.809 387.468C137.692 387.95 137.599 388.333 137.528 388.63C137.467 388.892 137.441 389.028 137.453 389.031Z" fill="#263238"/>
<g opacity="0.3">
<path d="M147.288 233.754L144.993 239.371C144.993 239.371 159.301 297.921 161.269 321.607C163.237 345.292 156.146 386.834 156.146 386.834L165.813 387.169C170.732 360.243 171.842 335.442 168.685 313.02C168.114 303.818 166.428 294.719 163.667 285.922L147.288 233.754Z" fill="black"/>
</g>
<path d="M154.121 443.096C154.121 443.096 154.194 442.837 154.306 442.326C154.419 441.791 154.58 441.039 154.787 440.057C155.2 438.036 155.8 435.095 156.572 431.319C158.097 423.702 160.298 412.72 163.015 399.159C164.366 392.366 165.845 384.927 167.433 376.944C168.319 372.971 168.787 368.766 169.457 364.473C169.833 360.146 170.37 355.702 170.456 351.114C171.311 332.775 168.973 312.584 164.459 291.942C161.697 279.381 158.317 267.35 154.819 255.997C153.077 250.317 151.284 244.812 149.52 239.486C148.663 236.824 147.687 234.21 146.973 231.631C146.281 229.026 145.75 226.415 145.281 223.857L145.185 224.128C147.455 222.057 149.677 220.026 151.851 218.042C153.983 216.017 155.958 213.929 157.928 211.937C161.817 207.904 165.512 204.073 168.988 200.469C175.88 193.216 181.905 186.876 186.88 181.64C191.865 176.449 195.796 172.357 198.499 169.542C199.835 168.161 200.865 167.097 201.58 166.359C201.915 166.006 202.173 165.736 202.365 165.535C202.539 165.348 202.624 165.25 202.619 165.245C202.614 165.24 202.516 165.326 202.332 165.502C202.132 165.695 201.864 165.956 201.514 166.294C200.785 167.018 199.733 168.061 198.368 169.415C195.624 172.157 191.644 176.212 186.629 181.401C181.626 186.611 175.568 192.92 168.638 200.136C165.151 203.726 161.445 207.543 157.543 211.56C155.569 213.545 153.587 215.629 151.455 217.643C149.284 219.615 147.065 221.631 144.8 223.688L144.676 223.801L144.705 223.959C145.171 226.537 145.699 229.151 146.392 231.789C147.123 234.439 148.079 237.004 148.935 239.682C150.689 245.007 152.473 250.511 154.207 256.188C157.689 267.533 161.057 279.55 163.815 292.086C168.318 312.688 170.667 332.815 169.849 351.092C169.772 355.665 169.245 360.094 168.881 364.407C168.224 368.685 167.771 372.862 166.895 376.845C165.337 384.834 163.883 392.277 162.557 399.073C159.928 412.65 157.797 423.646 156.321 431.272C155.603 435.058 155.044 438.006 154.658 440.033C154.479 441.019 154.341 441.777 154.243 442.315C154.15 442.83 154.121 443.096 154.121 443.096Z" fill="#263238"/>
<path d="M272.515 179.865C272.515 179.865 282.348 179.865 294.119 189.381C303.094 196.635 355.641 291.527 364.78 311.702C371.943 327.515 365.837 354.683 351.383 356.917C342.865 358.233 325.26 361.697 312.239 364.321C303.244 366.133 289.066 354.327 286.56 345.5L290.296 346.349L273.414 297.49L296.549 298.175L274.98 268.368L277.118 217.458L272.515 179.865Z" fill="#E0E0E0"/>
<path d="M329.536 313.346C329.571 313.317 329.284 312.914 328.73 312.207C328.187 311.492 327.322 310.519 326.19 309.379C323.933 307.097 320.439 304.27 316.084 301.979C311.718 299.701 307.404 298.439 304.243 297.884C302.662 297.602 301.37 297.445 300.473 297.405C299.576 297.352 299.082 297.345 299.078 297.391C299.068 297.511 301.043 297.668 304.151 298.342C307.255 299.009 311.476 300.321 315.776 302.565C320.067 304.822 323.549 307.544 325.865 309.716C328.189 311.888 329.442 313.424 329.536 313.346Z" fill="#263238"/>
<path d="M321.516 297.477C321.535 297.402 320.169 296.976 317.892 296.615C315.618 296.244 312.434 295.994 308.923 296.052C305.41 296.113 302.243 296.432 299.97 296.757C297.694 297.081 296.307 297.392 296.32 297.477C296.334 297.573 297.745 297.427 300.023 297.223C302.302 297.017 305.451 296.774 308.933 296.714C312.415 296.658 315.564 296.83 317.831 297.079C320.099 297.318 321.493 297.579 321.516 297.477Z" fill="#263238"/>
<path d="M273.411 297.487C273.411 297.524 274.009 297.559 275.113 297.59C276.31 297.612 277.901 297.642 279.858 297.678C284.012 297.706 289.705 297.743 296.316 297.787L296.999 297.793L296.554 297.27C294.387 294.727 292.113 291.871 289.799 288.857C284.153 281.464 279.198 274.639 275.396 269.859C273.511 267.458 271.92 265.566 270.809 264.271C270.28 263.681 269.845 263.198 269.495 262.807C269.19 262.478 269.021 262.311 269.003 262.327C268.985 262.342 269.121 262.536 269.393 262.894C269.718 263.304 270.121 263.814 270.61 264.436C271.659 265.781 273.191 267.712 275.026 270.148C278.728 274.992 283.617 281.855 289.274 289.263C291.593 292.281 293.885 295.14 296.078 297.681L296.316 297.163C289.706 297.214 284.012 297.259 279.858 297.292C277.9 297.33 276.31 297.362 275.113 297.384C274.009 297.415 273.411 297.451 273.411 297.487Z" fill="#263238"/>
<path d="M262.843 243.182C262.887 243.15 262.423 242.433 261.631 241.112C260.836 239.794 259.761 237.837 258.655 235.323C256.427 230.327 254.307 222.85 254.556 214.454C254.802 206.056 257.362 198.718 259.88 193.862C261.134 191.417 262.323 189.528 263.193 188.259C264.062 186.988 264.568 186.299 264.525 186.265C264.507 186.251 264.359 186.406 264.096 186.717C263.839 187.034 263.436 187.481 262.984 188.109C262.044 189.34 260.784 191.204 259.466 193.645C256.816 198.49 254.144 205.912 253.893 214.435C253.64 222.955 255.868 230.522 258.228 235.515C259.4 238.029 260.546 239.966 261.412 241.25C261.827 241.903 262.203 242.375 262.441 242.705C262.686 243.031 262.823 243.195 262.843 243.182Z" fill="#263238"/>
<path d="M160.438 358.717C164.71 362.159 172.105 360.856 175.547 356.584C178.988 352.312 178.316 346.059 174.044 342.617C169.772 339.175 162.626 340.373 159.184 344.644C155.743 348.916 156.166 355.274 160.438 358.717Z" fill="#845EF1"/>
<path d="M158.711 350.855C159.464 351.241 160.68 350.378 161.427 348.925C162.173 347.473 162.168 345.98 161.415 345.594C160.663 345.206 159.446 346.07 158.7 347.522C157.953 348.975 157.958 350.467 158.711 350.855Z" fill="white"/>
<g opacity="0.2">
<path d="M164.622 356.068C168.346 355.527 173.314 342.126 173.168 341.995C173.471 342.181 173.764 342.385 174.044 342.612C178.316 346.053 178.988 352.307 175.547 356.579C172.105 360.851 164.71 362.154 160.438 358.712C159.006 357.559 158.01 356.078 157.442 354.457C158.395 354.981 161.515 356.519 164.622 356.068Z" fill="white"/>
</g>
<g opacity="0.3">
<path d="M167.668 343.026C167.668 343.026 165.996 343.901 165.546 344.939C165.546 344.939 163.963 344.146 162.629 343.943C162.629 343.943 165.492 341.709 167.668 343.026Z" fill="black"/>
</g>
<path d="M153.538 319.674C153.538 319.674 160.327 321.739 163.154 329.818C165.979 337.898 165.546 344.943 165.546 344.943L165.023 344.702C165.023 344.702 164.787 332.017 159.957 326.739C155.128 321.46 152.244 321.281 152.244 321.281L153.538 319.674Z" fill="#263238"/>
<path d="M288.133 302.496C288.133 302.496 245.737 290.527 231.494 287.49C217.251 284.454 185.188 286.009 182.169 286.492C179.904 286.855 162.424 308.384 162.424 308.384C162.424 308.384 153.058 326.834 154.813 330.308C156.567 333.783 160.614 332.888 160.614 332.888C160.614 332.888 158.528 340.622 162.614 341.334C168.406 342.343 171.601 335.461 171.601 335.461C171.601 335.461 180.066 336.464 183.163 333.606C186.261 330.748 184.367 331.585 184.367 331.585C184.367 331.585 189.099 335.179 192.904 332.175C196.709 329.17 201.572 323.437 201.572 323.437L207.005 321.867C207.005 321.867 229.033 322.018 236.148 317.883C236.148 317.883 281.102 343.838 292.645 348.233C304.187 352.628 309.223 351.288 309.223 351.288C309.223 351.288 318.901 348.836 309.687 329.342C300.474 309.847 288.133 302.496 288.133 302.496Z" fill="#AE7461"/>
<path d="M204.786 311.503C204.766 311.462 204.391 311.614 203.728 311.923C203.062 312.225 202.129 312.727 201.009 313.403C198.766 314.748 195.823 316.903 193.016 319.761C190.215 322.626 188.12 325.614 186.822 327.883C186.169 329.017 185.686 329.961 185.398 330.633C185.102 331.302 184.958 331.68 185 331.7C185.099 331.748 185.83 330.312 187.221 328.127C188.608 325.942 190.729 323.048 193.487 320.225C196.253 317.41 199.103 315.231 201.259 313.798C203.414 312.361 204.837 311.602 204.786 311.503Z" fill="#6F4439"/>
<path d="M197.734 304.175C197.731 304.141 197.134 304.132 196.084 304.363C195.04 304.598 193.545 305.116 191.923 306.16C190.291 307.183 188.571 308.74 186.972 310.701C185.362 312.661 183.843 314.97 182.258 317.398C179.126 322.291 176.608 326.889 174.677 330.15C173.764 331.692 172.997 332.987 172.389 334.013C171.844 334.923 171.555 335.435 171.595 335.461C171.632 335.486 171.993 335.021 172.605 334.152C173.214 333.281 174.066 332.001 175.077 330.393C177.115 327.187 179.701 322.621 182.815 317.757C184.391 315.34 185.895 313.025 187.446 311.085C188.992 309.138 190.627 307.595 192.181 306.55C195.303 304.413 197.782 304.308 197.734 304.175Z" fill="#6F4439"/>
<path d="M183.565 298.796C183.553 298.776 183.421 298.836 183.176 298.967C182.93 299.098 182.567 299.293 182.147 299.615C181.285 300.227 180.138 301.26 178.928 302.708C177.714 304.153 176.413 305.986 175.104 308.095C173.815 310.226 172.411 312.549 170.936 314.986C167.95 319.858 165.279 324.287 163.373 327.511C162.484 329.041 161.739 330.325 161.146 331.347C160.632 332.26 160.368 332.776 160.406 332.8C160.445 332.824 160.785 332.353 161.366 331.482C162.006 330.49 162.812 329.242 163.772 327.757C165.78 324.596 168.514 320.205 171.501 315.333C173.014 312.906 174.339 310.52 175.623 308.417C176.895 306.302 178.141 304.465 179.29 303.006C180.436 301.542 181.508 300.482 182.305 299.82C183.094 299.143 183.599 298.855 183.565 298.796Z" fill="#6F4439"/>
<path d="M96.3848 359.539C96.3949 359.652 98.5525 359.477 102.036 359.498C105.518 359.516 110.334 359.828 115.551 360.832C120.767 361.85 125.35 363.361 128.586 364.646C131.826 365.927 133.76 366.898 133.812 366.796C133.833 366.755 133.369 366.478 132.507 366.01C131.65 365.533 130.372 364.914 128.764 364.214C125.551 362.809 120.942 361.211 115.675 360.184C110.408 359.169 105.536 358.929 102.031 359.032C100.278 359.08 98.8614 359.177 97.8875 359.299C96.9149 359.409 96.3797 359.493 96.3848 359.539Z" fill="#263238"/>
<path d="M104.42 355.034C104.413 355.122 105.727 355.318 107.864 355.512C110.001 355.707 112.961 355.887 116.235 355.953C119.51 356.017 122.475 355.952 124.617 355.842C126.761 355.731 128.08 355.587 128.076 355.5C128.073 355.405 126.747 355.384 124.606 355.374C122.465 355.365 119.51 355.355 116.246 355.291C112.984 355.226 110.032 355.119 107.892 355.046C105.755 354.971 104.428 354.94 104.42 355.034Z" fill="#263238"/>
<path d="M112.648 279.792C112.55 279.947 116.394 282.544 121.23 285.592C126.069 288.642 130.068 290.987 130.166 290.832C130.264 290.677 126.422 288.081 121.583 285.031C116.747 281.984 112.746 279.638 112.648 279.792Z" fill="#263238"/>
<path d="M154.125 228.835C154.125 232.375 156.995 235.243 160.533 235.243C164.072 235.243 166.94 232.374 166.94 228.835C166.94 225.296 164.071 222.428 160.533 222.428C156.995 222.428 154.125 225.297 154.125 228.835Z" fill="#263238"/>
<path d="M174.235 282.068C170.697 282.068 167.828 279.199 167.828 275.661C167.828 272.122 170.697 269.253 174.235 269.253C177.774 269.253 180.643 272.122 180.643 275.661C180.643 279.199 177.774 282.068 174.235 282.068Z" fill="#263238"/>
<path d="M155.733 244.202C155.738 244.225 156.068 244.156 156.691 244.005C157.306 243.832 158.247 243.671 159.396 243.263C161.73 242.563 165.024 241.228 168.809 239.05C172.603 236.886 176.788 233.746 180.974 229.777C185.158 225.803 189.301 220.976 193.249 215.63C201.151 205.011 208.303 195.402 213.529 188.377C216.114 184.881 218.188 182.04 219.592 180.054C221.001 178.085 221.721 176.906 221.644 176.882C221.213 177.459 220.592 178.288 219.384 179.901C217.87 181.892 215.753 184.678 213.154 188.097C207.898 195.022 200.608 204.566 192.715 215.237C188.784 220.559 184.681 225.366 180.55 229.336C176.418 233.3 172.3 236.45 168.569 238.646C164.848 240.855 161.608 242.246 159.312 243.018C158.182 243.462 157.258 243.661 156.654 243.875C156.046 244.068 155.727 244.179 155.733 244.202Z" fill="#263238"/>
<g opacity="0.3">
<path d="M272.52 377.064L223.661 382.597C223.661 382.597 258.32 388.901 272.52 377.064Z" fill="black"/>
</g>
<path d="M153.998 465.885C162.101 463.887 162.322 456.894 162.322 456.894V447.349H168.818H171.757H178.253V456.894C178.253 456.894 178.474 463.887 186.577 465.885C194.679 467.882 204.669 466.772 205.334 476.54V478.427C205.334 481.702 189.643 484.356 170.287 484.356C150.93 484.356 135.239 481.702 135.239 478.427V476.54C135.905 466.773 145.896 467.883 153.998 465.885Z" fill="#845EF1"/>
<g opacity="0.2">
<path d="M136.816 471.671C140.057 467.108 147.614 467.46 154.001 465.885C159.774 464.461 161.539 460.513 162.081 458.354C167.465 458.349 173.274 458.335 178.49 458.321C179.022 460.472 180.776 464.455 186.579 465.886C192.153 467.26 198.618 467.164 202.328 470.148C181.66 478.619 157.858 479.155 136.816 471.671Z" fill="black"/>
</g>
<path d="M135.24 477.043C135.234 477.059 135.466 477.147 135.914 477.299C136.408 477.461 137.062 477.676 137.879 477.944C138.728 478.245 139.795 478.51 141.036 478.806C141.659 478.958 142.322 479.12 143.023 479.291C143.735 479.427 144.487 479.569 145.274 479.718C146.065 479.859 146.89 480.031 147.756 480.166C148.625 480.286 149.529 480.41 150.463 480.539C152.331 480.833 154.347 480.957 156.46 481.179C160.696 481.472 165.363 481.701 170.264 481.617C180.067 481.495 188.92 480.591 195.247 479.498C198.414 478.964 200.954 478.401 202.695 477.964C203.524 477.735 204.187 477.554 204.689 477.417C205.143 477.286 205.378 477.21 205.375 477.193C205.37 477.177 205.125 477.222 204.664 477.32C204.158 477.435 203.489 477.587 202.652 477.777C200.901 478.157 198.359 478.666 195.193 479.154C188.869 480.155 180.036 481.002 170.26 481.124C165.373 481.207 160.719 480.993 156.496 480.726C154.39 480.517 152.379 480.409 150.516 480.134C149.583 480.015 148.682 479.901 147.814 479.79C146.949 479.667 146.127 479.505 145.337 479.376C144.549 479.239 143.799 479.109 143.087 478.985C142.386 478.827 141.723 478.678 141.101 478.538C139.858 478.267 138.788 478.031 137.934 477.759C137.107 477.528 136.446 477.344 135.947 477.205C135.488 477.083 135.245 477.027 135.24 477.043Z" fill="#B0B0C1"/>
<path d="M170 463.336C136.311 463.336 109.001 457.262 109.001 449.769C109.001 442.276 136.311 436.201 170 436.201C203.69 436.201 231 442.276 231 449.769C231 457.262 203.69 463.336 170 463.336Z" fill="#845EF1"/>
<path d="M227.144 448.401C227.136 448.401 227.115 448.507 227.084 448.712C227.064 448.813 227.058 448.943 227.02 449.089C226.966 449.237 226.905 449.403 226.837 449.587C226.519 450.324 225.745 451.272 224.48 452.145C221.948 453.901 217.712 455.486 212.361 456.79C201.632 459.394 186.364 460.962 169.52 460.971C152.669 460.962 137.399 459.394 126.671 456.79C121.32 455.486 117.085 453.901 114.552 452.145C113.289 451.272 112.515 450.324 112.197 449.587C112.129 449.403 112.068 449.237 112.013 449.089C111.975 448.943 111.969 448.813 111.95 448.712C111.919 448.507 111.898 448.401 111.889 448.401C111.881 448.401 111.884 448.507 111.9 448.717C111.911 448.822 111.91 448.955 111.94 449.107C111.99 449.261 112.043 449.434 112.105 449.626C112.401 450.396 113.174 451.391 114.441 452.301C116.978 454.132 121.225 455.776 126.587 457.129C137.338 459.83 152.637 461.455 169.52 461.464C186.397 461.455 201.694 459.83 212.445 457.129C217.806 455.776 222.055 454.133 224.592 452.301C225.858 451.391 226.631 450.396 226.928 449.625C226.989 449.433 227.044 449.26 227.093 449.106C227.124 448.954 227.122 448.821 227.134 448.717C227.149 448.507 227.153 448.401 227.144 448.401Z" fill="#263238"/>
<path d="M119.933 397.397H219.401V449.746H119.933V397.397Z" fill="#845EF1"/>
<path d="M119.803 428.503C119.803 433.179 142.069 436.97 169.537 436.97C197.005 436.97 219.271 433.179 219.271 428.503V421.123C219.271 425.8 197.004 429.59 169.537 429.59C142.07 429.59 119.803 425.799 119.803 421.123V428.503Z" fill="#C6C9FF"/>
<g opacity="0.2">
<path d="M120.466 413.471C121 416.511 121.609 419.71 123.706 422.071C125.803 424.433 129.92 425.486 132.356 423.435C134.482 421.645 134.925 418.008 137.701 417.403C140.09 416.881 142.091 419.156 143.082 421.276C144.072 423.396 144.984 425.913 147.273 426.745C150.219 427.815 153.416 425.351 156.541 425.774C158.9 426.093 160.624 427.944 162.396 429.448C164.167 430.953 166.699 432.253 168.835 431.257C171.393 430.065 172.007 426.151 174.834 425.79C177.833 425.406 180.437 429.61 183.124 428.293C185.407 427.173 184.962 422.988 187.517 422.692C189.522 422.459 190.401 424.967 191.846 426.302C193.261 427.608 195.706 427.754 197.284 426.627C198.242 425.943 198.961 424.836 200.143 424.635C201.971 424.326 203.228 426.362 203.535 428.092C203.842 429.822 203.961 431.872 205.517 432.831C206.938 433.706 208.946 433.126 210.112 431.961C211.277 430.796 211.803 429.202 212.294 427.668C213.145 425.009 213.995 422.35 214.846 419.69C216.326 421.125 219.283 420.67 220.204 418.865L219.515 411.353L120.466 413.471Z" fill="black"/>
</g>
<path d="M117.556 394.752C119.743 391.386 123.798 389.432 135.704 388.468L205.478 388.485C211.464 388.314 217.443 391.128 220.536 395.571C222.493 398.383 223.309 401.701 223.458 404.981C223.605 408.262 223.118 411.536 222.631 414.792C222.455 415.966 222.258 417.19 221.482 418.165C220.705 419.139 219.156 419.762 217.932 419.236C217.108 418.882 216.642 418.129 216.085 417.495C215.529 416.861 214.663 416.27 213.773 416.471C212.795 416.691 212.415 417.7 212.212 418.558C211.437 421.834 210.896 425.15 210.594 428.483C210.505 429.47 210.428 430.485 209.94 431.38C209.451 432.274 208.44 433.032 207.298 432.999C206.228 432.968 205.316 432.25 204.848 431.415C204.38 430.58 204.266 429.636 204.129 428.715C203.895 427.145 203.571 425.586 203.162 424.043C202.957 423.273 202.719 422.486 202.173 421.852C201.628 421.218 200.702 420.768 199.81 420.935C197.384 421.389 197.911 425.245 195.532 425.861C194.668 426.084 193.716 425.736 193.079 425.183C192.442 424.631 192.056 423.903 191.683 423.193C190.776 421.466 189.082 415.488 185.705 418.042C184.682 418.815 184.313 420.039 184.069 421.196C183.825 422.352 183.627 423.573 182.819 424.518C182.011 425.462 180.344 425.978 179.267 425.263C178.39 424.681 178.18 423.502 177.2 423.059C176.279 422.644 175.101 423.125 174.503 423.86C173.905 424.595 173.724 425.515 173.476 426.389C172.932 428.311 171.932 430.22 170.143 431.451C168.354 432.681 165.651 433.054 163.771 431.931C162.27 431.034 161.578 429.432 161.142 427.899C160.706 426.366 160.416 424.75 159.403 423.436C158.391 422.123 156.364 421.218 154.715 421.89C153.109 422.545 152.551 424.333 151.097 425.213C149.23 426.343 146.532 425.556 144.943 424.141C143.355 422.726 142.497 420.831 141.277 419.165C140.056 417.499 138.183 415.938 135.905 415.922C133.236 415.903 131.223 417.948 129.722 419.86C128.221 421.771 126.518 423.923 123.888 424.317C121.241 424.714 118.646 423.044 117.445 420.963C116.244 418.882 116.121 416.474 116.022 414.149C115.903 411.401 115.786 408.652 115.668 405.903C115.504 402.099 115.399 398.07 117.556 394.752Z" fill="#C6C9FF"/>
<path d="M119.529 392.798C117.777 396.025 143.266 397.529 168.544 397.529C193.822 397.529 214.314 394.824 214.314 391.488C214.314 388.152 193.822 385.447 168.544 385.447C143.266 385.447 122.22 387.846 119.529 392.798Z" fill="#C6C9FF"/>
<g opacity="0.3">
<path d="M219.644 443.535C213.297 449.206 204.236 450.652 195.703 451.461C175.446 453.383 154.958 453.117 134.804 450.342C132.1 449.97 129.368 449.543 126.861 448.478C124.354 447.413 122.059 445.63 120.932 443.182L219.644 443.535Z" fill="#C6C9FF"/>
</g>
<path d="M119.803 442.246C119.803 446.922 142.069 450.713 169.537 450.713C197.005 450.713 219.271 446.922 219.271 442.246V434.866C219.271 439.542 197.004 443.334 169.537 443.334C142.07 443.334 119.803 439.542 119.803 434.866V442.246Z" fill="#C6C9FF"/>
<g opacity="0.3">
<path d="M208.794 451.139C209.019 450.497 209.906 450.346 210.573 450.523C210.929 450.579 211.24 450.837 211.379 451.165C211.517 451.494 211.488 451.881 211.324 452.198C211.011 452.803 210.192 453.095 209.558 452.83C208.923 452.563 208.569 451.78 208.794 451.139Z" fill="black"/>
</g>
<g opacity="0.3">
<path d="M136.349 452.355C136.574 451.713 137.461 451.562 138.126 451.739C138.483 451.794 138.793 452.053 138.932 452.381C139.07 452.71 139.041 453.097 138.877 453.414C138.564 454.018 137.746 454.311 137.111 454.046C136.476 453.779 136.123 452.995 136.349 452.355Z" fill="black"/>
</g>
<g opacity="0.3">
<path d="M148.255 440.055C148.527 439.554 149.595 439.436 150.396 439.574C150.826 439.618 151.199 439.819 151.366 440.076C151.533 440.332 151.498 440.634 151.3 440.882C150.923 441.354 149.937 441.583 149.173 441.376C148.41 441.168 147.985 440.556 148.255 440.055Z" fill="black"/>
</g>
<g opacity="0.3">
<path d="M180.088 438.744C180.792 439.209 180.694 440.272 180.27 440.976C180.091 441.366 179.68 441.638 179.24 441.691C178.799 441.743 178.341 441.584 178.01 441.294C177.377 440.74 177.283 439.709 177.804 439.069C178.325 438.429 179.384 438.278 180.088 438.744Z" fill="black"/>
</g>
<g opacity="0.3">
<path d="M135.057 437.026C135.17 436.705 135.614 436.629 135.946 436.718C136.124 436.746 136.28 436.875 136.349 437.039C136.418 437.203 136.404 437.397 136.321 437.555C136.165 437.857 135.756 438.003 135.439 437.871C135.121 437.737 134.945 437.346 135.057 437.026Z" fill="black"/>
</g>
<g opacity="0.3">
<path d="M162.647 440.212C162.76 439.891 163.204 439.816 163.536 439.905C163.715 439.932 163.87 440.062 163.939 440.226C164.008 440.389 163.994 440.583 163.912 440.741C163.756 441.043 163.346 441.19 163.029 441.057C162.712 440.925 162.535 440.533 162.647 440.212Z" fill="black"/>
</g>
<g opacity="0.3">
<path d="M184.762 454.508C184.875 454.187 185.319 454.112 185.651 454.201C185.829 454.228 185.985 454.358 186.054 454.521C186.123 454.685 186.109 454.879 186.027 455.037C185.871 455.339 185.461 455.486 185.144 455.353C184.827 455.22 184.651 454.828 184.762 454.508Z" fill="black"/>
</g>
<g opacity="0.3">
<path d="M198.689 437.957C198.801 437.637 199.245 437.561 199.577 437.65C199.756 437.678 199.911 437.807 199.981 437.971C200.05 438.135 200.035 438.328 199.953 438.486C199.797 438.788 199.387 438.935 199.07 438.803C198.753 438.67 198.576 438.278 198.689 437.957Z" fill="black"/>
</g>
<g opacity="0.3">
<path d="M160.321 439.31C160.377 439.15 160.599 439.112 160.766 439.155C160.855 439.17 160.932 439.234 160.967 439.316C161.001 439.399 160.995 439.495 160.953 439.575C160.874 439.726 160.67 439.799 160.511 439.733C160.353 439.666 160.264 439.47 160.321 439.31Z" fill="black"/>
</g>
<g opacity="0.3">
<path d="M174.173 441.029C174.23 440.869 174.451 440.832 174.618 440.875C174.707 440.889 174.784 440.954 174.819 441.036C174.853 441.118 174.847 441.215 174.806 441.294C174.728 441.446 174.523 441.519 174.364 441.452C174.205 441.386 174.117 441.19 174.173 441.029Z" fill="black"/>
</g>
<g opacity="0.3">
<path d="M125.778 451.247C125.835 451.087 126.056 451.049 126.223 451.093C126.312 451.107 126.389 451.171 126.424 451.254C126.459 451.336 126.452 451.433 126.411 451.512C126.332 451.664 126.128 451.736 125.97 451.67C125.81 451.603 125.721 451.407 125.778 451.247Z" fill="black"/>
</g>
<g opacity="0.3">
<path d="M157.011 454.613C157.067 454.453 157.29 454.416 157.456 454.459C157.545 454.473 157.623 454.538 157.658 454.62C157.692 454.702 157.685 454.799 157.645 454.878C157.566 455.03 157.362 455.103 157.203 455.036C157.044 454.97 156.955 454.774 157.011 454.613Z" fill="black"/>
</g>
<g opacity="0.4">
<path d="M169.299 399.832C144.569 399.832 124.521 397.187 124.521 393.923C124.521 390.659 144.569 388.014 169.299 388.014C194.029 388.014 214.076 390.659 214.076 393.923C214.076 397.187 194.029 399.832 169.299 399.832Z" fill="#845EF1"/>
<path d="M161.484 403.292C161.482 403.364 162.158 403.45 163.383 403.544C164.609 403.642 166.385 403.727 168.582 403.792C172.974 403.91 179.054 403.919 185.752 403.492C192.454 403.08 198.493 402.295 202.816 401.492C203.356 401.392 203.87 401.296 204.357 401.205C204.841 401.103 205.298 401.007 205.726 400.916C206.58 400.735 207.313 400.569 207.907 400.41C209.098 400.104 209.748 399.901 209.732 399.83C209.697 399.674 207.028 400.16 202.695 400.763C198.362 401.375 192.352 402.039 185.684 402.449C179.02 402.873 172.968 402.982 168.587 403.053C164.205 403.113 161.489 403.14 161.484 403.292Z" fill="white"/>
<path d="M149.867 402.798C149.853 403.086 151.524 403.398 153.597 403.492C155.671 403.588 157.363 403.432 157.376 403.143C157.39 402.855 155.72 402.544 153.646 402.449C151.573 402.354 149.881 402.51 149.867 402.798Z" fill="white"/>
<path d="M222.201 407.881C222.44 410.788 222.08 414.021 220.729 416.718C220.449 417.277 219.405 417.772 218.662 417.742C218.043 417.716 217.626 417.226 217.35 416.774C216.968 416.147 216.659 415.491 216.431 414.817C216.243 414.263 216.187 413.539 216.796 413.245C217.146 413.077 217.589 413.127 217.981 413.042C218.821 412.859 219.255 412.124 219.582 411.468C220.127 410.375 220.673 409.282 221.218 408.188C221.309 408.005 221.414 407.808 221.624 407.71C221.834 407.611 222.174 407.684 222.201 407.881Z" fill="white"/>
<path d="M164.261 429.797C164.424 429.271 165.157 429.004 165.821 428.953C166.484 428.902 167.17 428.989 167.809 428.835C168.512 428.666 169.071 428.219 169.46 427.712C169.849 427.207 170.092 426.638 170.365 426.085C170.565 425.68 170.801 425.261 171.233 425.005C171.238 425.002 171.242 425 171.247 424.997C171.917 424.611 172.791 425.224 172.474 425.841C171.779 427.195 170.803 428.452 169.647 429.58C169.051 430.162 168.383 430.725 167.537 431.042C166.691 431.359 165.627 431.386 164.874 430.939C164.437 430.678 164.129 430.224 164.261 429.797Z" fill="white"/>
<path d="M162.24 426.108C162.405 425.88 162.781 425.663 163.107 425.681C163.744 425.68 164.189 426.009 164.427 426.436C164.665 426.863 164.638 427.381 164.357 427.79C164.204 428.014 163.968 428.209 163.668 428.285C163.229 428.398 162.731 428.224 162.442 427.931C162.154 427.639 162.048 427.252 162.038 426.877C162.032 426.612 162.074 426.338 162.24 426.108Z" fill="white"/>
</g>
<path d="M172.732 461.802C172.899 461.721 173.091 461.711 173.277 461.704C175.337 461.619 177.395 461.534 179.455 461.448C180.022 461.395 180.467 461.425 180.631 461.61C180.835 461.713 180.819 462.033 180.655 462.192C180.492 462.351 180.247 462.392 180.019 462.422C177.752 462.723 175.455 462.797 173.173 462.642C172.876 462.622 172.502 462.531 172.458 462.24C172.43 462.059 172.565 461.885 172.732 461.802Z" fill="white"/>
<path d="M151.996 394.083C151.579 392.205 152.015 390.155 153.159 388.608C154.303 387.062 156.135 386.044 158.053 385.893C156.764 382.793 157.985 378.855 160.802 377.028C161.876 376.332 163.126 375.925 164.158 375.167C165.189 374.409 166.002 373.104 165.626 371.881C165.265 370.706 163.908 369.895 164.171 368.583C164.298 367.95 164.789 367.453 165.389 367.211C166.468 366.777 167.603 367.088 168.653 367.463C171.327 368.418 173.894 369.856 175.732 372.019C177.57 374.182 178.593 377.148 177.989 379.922C179.685 379.817 181.414 380.507 182.572 381.753C183.729 382.997 184.291 384.772 184.063 386.456C185.296 386.574 186.435 387.403 186.926 388.541C187.09 388.92 187.205 389.361 187.269 389.847C187.565 392.077 186.567 394.288 184.78 395.655C182.55 397.362 178.322 399.283 170.692 399.052C157.228 398.643 151.996 394.083 151.996 394.083Z" fill="#845EF1"/>
<g opacity="0.9">
<path d="M151.995 394.083C151.578 392.205 152.014 390.155 153.158 388.608C154.302 387.062 156.134 386.044 158.052 385.893C156.764 382.793 157.985 378.855 160.801 377.028C161.875 376.332 163.125 375.925 164.157 375.167C165.189 374.409 166.001 373.104 165.625 371.881C165.264 370.706 163.907 369.895 164.17 368.583C164.297 367.95 164.788 367.453 165.388 367.211C166.467 366.777 167.603 367.088 168.652 367.463C171.326 368.418 173.893 369.856 175.731 372.019C177.569 374.182 178.592 377.148 177.988 379.922C179.684 379.817 181.413 380.507 182.571 381.753C183.728 382.997 184.29 384.772 184.062 386.456C185.295 386.574 186.434 387.403 186.925 388.541C187.089 388.92 187.204 389.361 187.269 389.847C187.564 392.077 186.566 394.288 184.78 395.655C182.549 397.362 178.322 399.283 170.691 399.052C157.227 398.643 151.995 394.083 151.995 394.083Z" fill="white"/>
</g>
<g opacity="0.1">
<path d="M177.994 379.927C178.496 382.482 176.254 385.385 173.866 386.729C171.478 388.072 168.613 388.207 165.874 388.164C163.134 388.12 160.331 387.938 157.713 388.746C155.096 389.553 152.309 391.367 152.001 394.09C153.833 392.488 156.609 391.978 159.029 391.718C161.449 391.457 163.89 391.667 166.32 391.802C168.75 391.936 170.995 391.68 173.364 391.121C175.732 390.563 177.628 389.599 179.01 387.595C180.392 385.592 180.559 382.023 179.222 379.989C178.82 379.89 178.41 379.883 177.994 379.927Z" fill="#845EF1"/>
</g>
<g opacity="0.1">
<path d="M161.955 382.538C165.574 381.664 167.504 381.06 169.112 379.118C170.229 377.77 170.377 375.814 169.894 374.132C169.412 372.449 168.38 370.982 167.315 369.593C170.282 371.068 172.484 373.995 173.08 377.256C173.323 378.588 173.3 380.014 172.712 381.234C171.699 383.334 169.606 384.004 167.316 384.444C163.291 385.219 159.28 384.043 157.873 385.903C157.872 384.056 160.161 382.972 161.955 382.538Z" fill="#845EF1"/>
</g>
<g opacity="0.1">
<path d="M163.12 394.474C165.176 394.381 167.23 394.657 169.286 394.742C172.356 394.869 175.512 394.55 178.284 393.227C181.057 391.904 183.405 389.461 184.073 386.463L184.714 386.601C185.333 389.831 184.085 392.397 181.65 394.608C179.215 396.818 175.832 397.838 172.545 397.717C169.397 397.601 166.307 396.929 163.158 396.866C161.228 396.827 159.963 397.66 159.963 397.66L156.994 396.686C158.601 395.399 161.063 394.567 163.12 394.474Z" fill="#845EF1"/>
</g>
<path d="M176.345 396.628C175.812 395.812 177.842 393.365 179.139 394.388C180.239 395.256 181.852 396.842 180.45 397.266C179.049 397.691 176.708 397.182 176.345 396.628Z" fill="#553F95"/>
<path d="M198.887 393.815C198.482 393.196 200.023 391.336 201.008 392.114C201.844 392.774 203.07 393.977 202.005 394.3C200.939 394.623 199.161 394.236 198.887 393.815Z" fill="#553F95"/>
<path d="M172.465 396.233C172.82 395.978 173.344 395.841 173.734 396.041C174.093 396.206 174.488 396.409 174.608 396.78C174.744 397.203 174.435 397.668 174.026 397.856C173.617 398.044 173.144 398.02 172.696 397.966C172.543 397.947 172.383 397.923 172.256 397.836C172.106 397.733 172.026 397.554 171.995 397.377C171.921 396.951 172.11 396.489 172.465 396.233Z" fill="#553F95"/>
<path d="M141.146 393C141.488 392.754 141.992 392.623 142.367 392.815C142.713 392.973 143.092 393.169 143.207 393.525C143.339 393.932 143.041 394.379 142.648 394.561C142.255 394.741 141.799 394.718 141.369 394.667C141.221 394.649 141.068 394.626 140.946 394.542C140.802 394.442 140.724 394.271 140.695 394.1C140.623 393.69 140.805 393.246 141.146 393Z" fill="#553F95"/>
<path d="M174.641 394.61C174.928 394.618 175.255 394.755 175.374 395.012C175.491 395.238 175.612 395.499 175.522 395.738C175.42 396.009 175.071 396.127 174.784 396.062C174.498 395.998 174.263 395.798 174.054 395.594C173.982 395.524 173.91 395.448 173.88 395.354C173.845 395.241 173.876 395.118 173.933 395.014C174.069 394.765 174.354 394.601 174.641 394.61Z" fill="#553F95"/>
<path d="M147.629 462.138C147.628 462.155 147.788 462.183 148.095 462.22C148.458 462.258 148.902 462.305 149.438 462.361C150.605 462.475 152.297 462.61 154.388 462.748C158.572 463.026 164.363 463.284 170.765 463.286C177.168 463.283 182.961 463.007 187.143 462.677C189.233 462.513 190.924 462.353 192.088 462.213C192.622 462.146 193.064 462.09 193.428 462.045C193.734 462.001 193.893 461.97 193.892 461.953C193.89 461.936 193.727 461.934 193.418 461.946C193.053 461.967 192.608 461.992 192.071 462.022C190.825 462.099 189.153 462.203 187.119 462.329C182.938 462.569 177.156 462.79 170.765 462.792C164.376 462.79 158.592 462.587 154.407 462.399C152.372 462.304 150.696 462.227 149.45 462.168C148.912 462.148 148.466 462.132 148.101 462.119C147.794 462.116 147.631 462.121 147.629 462.138Z" fill="#263238"/>
<path d="M219.398 450.949C219.534 450.949 219.644 443.856 219.644 435.107C219.644 426.356 219.533 419.264 219.398 419.264C219.262 419.264 219.152 426.356 219.152 435.107C219.151 443.856 219.262 450.949 219.398 450.949Z" fill="#263238"/>
<path d="M119.804 450.379C119.94 450.379 120.05 444.378 120.05 436.976C120.05 429.572 119.939 423.571 119.804 423.571C119.668 423.571 119.558 429.571 119.558 436.976C119.558 444.378 119.668 450.379 119.804 450.379Z" fill="#263238"/>
</svg>
