<svg width="215" height="209" viewBox="0 0 215 209" fill="none" xmlns="http://www.w3.org/2000/svg">
<path d="M48.503 53.2543C48.3334 53.8291 45.4159 58.4354 41.2106 60.0035C37.0052 61.5716 33.8757 63.3016 35.0443 65.3667C36.2129 67.4323 41.3797 66.3053 41.3797 66.3053C41.3797 66.3053 30.897 77.7279 40.7655 84.2543C52.8012 92.2142 65.3779 63.7226 65.3779 63.7226L48.503 53.2543Z" fill="#C6C9FF"/>
<path d="M63.3969 67.6336C63.3643 67.6873 59.396 65.3175 54.5354 62.3411C49.673 59.3633 45.7592 56.9067 45.7922 56.853C45.8248 56.7993 49.7922 59.1687 54.6546 62.146C59.5152 65.1224 63.4299 67.5799 63.3969 67.6336Z" fill="#E0E0E0"/>
<path d="M61.5337 71.0498C61.5011 71.104 57.215 68.583 51.9616 65.42C46.7064 62.2556 42.4738 59.6478 42.506 59.5937C42.5381 59.5396 46.8233 62.0601 52.079 65.2244C57.3329 68.3875 61.5663 70.9961 61.5337 71.0498Z" fill="#E0E0E0"/>
<path d="M59.2849 74.2875C59.2523 74.3417 54.4399 71.5035 48.5365 67.9495C42.6314 64.3941 37.8725 61.4691 37.9047 61.415C37.9373 61.3608 42.7488 64.1982 48.6539 67.754C54.5568 71.308 59.317 74.2338 59.2849 74.2875Z" fill="#E0E0E0"/>
<path d="M56.4771 78.2939C56.4437 78.3471 52.7137 76.0672 48.1473 73.2022C43.579 70.3358 39.904 67.97 39.9375 67.9164C39.971 67.8627 43.7 70.1421 48.2682 73.0085C52.8351 75.8735 56.5106 78.2402 56.4771 78.2939Z" fill="#E0E0E0"/>
<path d="M53.1784 82.1624C53.1436 82.2147 49.6703 79.9689 45.4217 77.1463C41.1717 74.3229 37.7556 71.992 37.7904 71.9392C37.8252 71.8864 41.2976 74.1323 45.5476 76.9557C49.7962 79.7787 53.2132 82.11 53.1784 82.1624Z" fill="#E0E0E0"/>
<path d="M48.9664 84.8462C48.9588 84.8601 48.7718 84.7711 48.4406 84.5984C48.1089 84.4261 47.6344 84.1671 47.0532 83.8383C45.8899 83.1815 44.3031 82.238 42.5876 81.1361C40.8722 80.0333 39.3541 78.9815 38.2729 78.1963C37.7324 77.804 37.2994 77.4801 37.0048 77.2501C36.7102 77.0206 36.5513 76.8873 36.5606 76.8748C36.57 76.8618 36.7459 76.9705 37.0566 77.1781C37.403 77.413 37.8417 77.71 38.3653 78.0643C39.4688 78.8146 40.9981 79.8431 42.7104 80.9442C44.4227 82.0438 45.9935 83.0075 47.1344 83.6991C47.6746 84.028 48.1272 84.3036 48.4843 84.5214C48.8021 84.7174 48.974 84.8324 48.9664 84.8462Z" fill="#E0E0E0"/>
<path d="M39.0961 66.5657C39.0791 66.6203 37.9703 66.2677 36.77 65.4974C35.5657 64.7332 34.7778 63.8751 34.8202 63.8367C34.8671 63.7861 35.7112 64.5556 36.8923 65.3045C38.0694 66.0606 39.122 66.5017 39.0961 66.5657Z" fill="#E0E0E0"/>
<path d="M64.5963 63.1294C64.6026 63.1338 64.5508 63.2188 64.4459 63.3763C64.3254 63.5517 64.1705 63.7781 63.9781 64.0586C63.5688 64.6491 62.9644 65.4951 62.2087 66.5335C60.6972 68.6111 58.5649 71.4489 56.1312 74.5215C53.6953 77.5941 51.4197 80.3187 49.7426 82.2644C48.9043 83.2374 48.2191 84.0186 47.738 84.5518C47.509 84.8028 47.3242 85.0059 47.1809 85.163C47.0514 85.3012 46.9809 85.371 46.9751 85.3656C46.9693 85.3603 47.0282 85.2802 47.1465 85.1326C47.2813 84.9684 47.4554 84.7563 47.6714 84.4932C48.1495 83.9206 48.8106 83.1287 49.6203 82.1592C51.2648 80.1876 53.519 77.4492 55.9531 74.3788C58.385 71.3084 60.5361 68.4881 62.0797 66.4364C62.8385 65.4267 63.4585 64.6017 63.9067 64.0053C64.1133 63.7351 64.2798 63.5172 64.4088 63.3481C64.5254 63.2005 64.5896 63.1249 64.5963 63.1294Z" fill="#E0E0E0"/>
<path d="M61.1847 60.692C61.2342 60.7309 57.0539 66.1984 51.8487 72.9024C46.6417 79.6092 42.3814 85.0127 42.3319 84.9737C42.2823 84.9348 46.4618 79.4687 51.6688 72.762C56.874 66.0579 61.1347 60.6535 61.1847 60.692Z" fill="#E0E0E0"/>
<path d="M56.4254 57.9889C56.4321 57.9929 56.3852 58.086 56.2897 58.2605C56.1803 58.4537 56.0384 58.7043 55.8616 59.0166C55.4831 59.6693 54.9175 60.6034 54.1832 61.7358C52.7227 64.0049 50.5497 67.039 47.9884 70.2602C45.4288 73.4849 43.0086 76.3164 41.2619 78.369C40.3964 79.3756 39.6897 80.1975 39.1809 80.7894C38.9434 81.0578 38.7528 81.2739 38.6064 81.4398C38.4729 81.587 38.4002 81.6618 38.3944 81.6564C38.3881 81.6515 38.4493 81.5665 38.5716 81.4099C38.7099 81.2367 38.8898 81.0117 39.1135 80.7316C39.6089 80.1286 40.2968 79.2906 41.1391 78.2648C42.8541 76.1853 45.2543 73.3382 47.8103 70.1179C50.368 66.9008 52.5566 63.889 54.0489 61.6467C54.7988 60.5278 55.3844 59.6084 55.7857 58.9705C55.9777 58.6676 56.1317 58.4242 56.2504 58.2372C56.3584 58.0703 56.4187 57.9849 56.4254 57.9889Z" fill="#E0E0E0"/>
<path d="M52.5205 55.7471C52.5704 55.7855 49.0075 60.5126 44.5638 66.304C40.1183 72.0971 36.4754 76.7611 36.4254 76.7226C36.3754 76.6842 39.9375 71.958 44.383 66.1648C48.8267 60.373 52.4705 55.7086 52.5205 55.7471Z" fill="#E0E0E0"/>
<path d="M49.5828 53.8296C49.5962 53.8381 49.4623 54.0622 49.2079 54.4604C49.0829 54.6613 48.9244 54.9029 48.7236 55.1722C48.5249 55.4429 48.3093 55.7596 48.0384 56.084C47.5188 56.7515 46.8479 57.5044 46.0569 58.2954C45.2561 59.0756 44.3294 59.8876 43.2925 60.6576C42.2493 61.419 41.199 62.0628 40.216 62.5956C39.2264 63.1155 38.3087 63.5324 37.5177 63.8295C37.1275 63.9919 36.7615 64.1033 36.4446 64.2125C36.1285 64.3239 35.8509 64.4031 35.6223 64.4626C35.167 64.5865 34.9139 64.6473 34.9099 64.6326C34.9059 64.6173 35.1505 64.5274 35.5965 64.3775C35.8201 64.3055 36.0924 64.2138 36.4031 64.0917C36.7146 63.9718 37.0744 63.8505 37.4583 63.6792C38.2363 63.3647 39.1403 62.9361 40.1165 62.41C41.0856 61.8713 42.1234 61.228 43.1577 60.4732C44.1852 59.71 45.1079 58.9105 45.9105 58.1446C46.7028 57.3684 47.3813 56.6324 47.9134 55.982C48.191 55.6661 48.4142 55.3583 48.6213 55.0961C48.8307 54.8353 48.999 54.6022 49.1347 54.4099C49.4105 54.0287 49.5694 53.8211 49.5828 53.8296Z" fill="#E0E0E0"/>
<path d="M70.0029 47.5345H14.0243V53.4583H70.0029V47.5345Z" fill="#E0E0E0"/>
<path d="M31.7714 53.2543C31.6018 53.8291 28.6838 58.4354 24.479 60.0035C20.2736 61.5716 17.1441 63.3016 18.3127 65.3667C19.4813 67.4323 24.6481 66.3053 24.6481 66.3053C24.6481 66.3053 14.1654 77.7279 24.0339 84.2543C36.0696 92.2142 48.6463 63.7226 48.6463 63.7226L31.7714 53.2543Z" fill="#845EF1"/>
<path d="M46.6653 67.6336C46.6323 67.6873 42.6644 65.3175 37.8038 62.3411C32.9414 59.3633 29.0275 56.9067 29.0606 56.853C29.0936 56.7993 33.0606 59.1687 37.923 62.146C42.7836 65.1224 46.6983 67.5799 46.6653 67.6336Z" fill="#E0E0E0"/>
<path d="M44.8021 71.0498C44.7695 71.104 40.4839 68.583 35.23 65.42C29.9748 62.2556 25.7422 59.6478 25.7743 59.5937C25.8069 59.5396 30.0922 62.0601 35.3474 65.2244C40.6008 68.3875 44.8347 70.9961 44.8021 71.0498Z" fill="#E0E0E0"/>
<path d="M42.5533 74.2875C42.5207 74.3417 37.7083 71.5035 31.8049 67.9495C25.8998 64.3941 21.1409 61.4691 21.1731 61.415C21.2057 61.3608 26.0172 64.1982 31.9223 67.754C37.8252 71.308 42.5854 74.2338 42.5533 74.2875Z" fill="#E0E0E0"/>
<path d="M39.7455 78.2939C39.7121 78.3471 35.9821 76.0672 31.4157 73.2022C26.8474 70.3358 23.1724 67.97 23.2059 67.9164C23.2394 67.8627 26.9684 70.1421 31.5366 73.0085C36.1031 75.8735 39.779 78.2402 39.7455 78.2939Z" fill="#E0E0E0"/>
<path d="M36.4468 82.1624C36.412 82.2147 32.9387 79.9689 28.6901 77.1463C24.4401 74.3229 21.024 71.992 21.0588 71.9392C21.0936 71.8864 24.566 74.1323 28.816 76.9557C33.0646 79.7787 36.4816 82.11 36.4468 82.1624Z" fill="#E0E0E0"/>
<path d="M32.2348 84.8462C32.2272 84.8601 32.0402 84.7711 31.7089 84.5984C31.3773 84.4261 30.9032 84.1671 30.3216 83.8383C29.1583 83.1815 27.5715 82.238 25.856 81.1361C24.1406 80.0333 22.6225 78.9815 21.5413 78.1963C21.0008 77.804 20.5678 77.4801 20.2732 77.2501C19.9786 77.0206 19.8197 76.8873 19.829 76.8748C19.8384 76.8618 20.0143 76.9705 20.325 77.1781C20.6713 77.413 21.1101 77.71 21.6337 78.0643C22.7372 78.8146 24.2665 79.8431 25.9788 80.9442C27.6911 82.0438 29.2619 83.0075 30.4028 83.6991C30.943 84.028 31.3956 84.3036 31.7527 84.5214C32.0705 84.7174 32.2424 84.8324 32.2348 84.8462Z" fill="#E0E0E0"/>
<path d="M22.3645 66.5657C22.3475 66.6203 21.2387 66.2677 20.0388 65.4974C18.8345 64.7332 18.0466 63.8751 18.089 63.8367C18.1359 63.7861 18.98 64.5556 20.1611 65.3045C21.3378 66.0606 22.3903 66.5017 22.3645 66.5657Z" fill="#E0E0E0"/>
<path d="M47.8647 63.1294C47.871 63.1338 47.8192 63.2188 47.7143 63.3763C47.5938 63.5517 47.4389 63.7781 47.2465 64.0586C46.8372 64.6491 46.2328 65.4951 45.477 66.5335C43.9661 68.6111 41.8337 71.4489 39.3996 74.5215C36.9637 77.5941 34.6881 80.3187 33.0115 82.2644C32.1732 83.2374 31.488 84.0186 31.0068 84.5518C30.7778 84.8028 30.593 85.0059 30.4497 85.163C30.3203 85.3012 30.2497 85.371 30.2439 85.3656C30.2381 85.3603 30.297 85.2802 30.4153 85.1326C30.5501 84.9684 30.7242 84.7563 30.9403 84.4932C31.4184 83.9206 32.0794 83.1287 32.8892 82.1592C34.5336 80.1876 36.7878 77.4492 39.2219 74.3788C41.6543 71.3084 43.8049 68.4881 45.3485 66.4364C46.1073 65.4267 46.7273 64.6017 47.1755 64.0053C47.3822 63.7351 47.5487 63.5172 47.6781 63.3481C47.7937 63.2005 47.858 63.1249 47.8647 63.1294Z" fill="#E0E0E0"/>
<path d="M44.4531 60.692C44.5026 60.7309 40.3223 66.1984 35.117 72.9024C29.91 79.6092 25.6498 85.0127 25.6003 84.9737C25.5507 84.9348 29.7302 79.4687 34.9372 72.762C40.1424 66.0579 44.4031 60.6535 44.4531 60.692Z" fill="#E0E0E0"/>
<path d="M39.6938 57.9889C39.7005 57.9929 39.6536 58.086 39.5581 58.2605C39.4487 58.4537 39.3068 58.7043 39.13 59.0166C38.7515 59.6693 38.1859 60.6034 37.4516 61.7358C35.9911 64.0049 33.8181 67.039 31.2568 70.2602C28.6972 73.4849 26.277 76.3164 24.5303 78.369C23.6648 79.3756 22.9581 80.1975 22.4493 80.7894C22.2122 81.0578 22.0212 81.2739 21.8748 81.4398C21.7413 81.587 21.6686 81.6618 21.6628 81.6564C21.6569 81.6515 21.7181 81.5665 21.84 81.4099C21.9783 81.2367 22.1582 81.0117 22.3819 80.7316C22.8773 80.1286 23.5648 79.2906 24.4075 78.2648C26.1225 76.1853 28.5227 73.3382 31.0787 70.1179C33.6369 66.9008 35.825 63.889 37.3177 61.6467C38.0676 60.5278 38.6533 59.6084 39.0546 58.9705C39.246 58.6676 39.4005 58.4242 39.5192 58.2372C39.6268 58.0703 39.6871 57.9849 39.6938 57.9889Z" fill="#E0E0E0"/>
<path d="M35.7888 55.7471C35.8388 55.7855 32.2758 60.5126 27.8321 66.304C23.3867 72.0971 19.7438 76.7611 19.6938 76.7226C19.6438 76.6842 23.2059 71.958 27.6514 66.1648C32.0951 60.373 35.7388 55.7086 35.7888 55.7471Z" fill="#E0E0E0"/>
<path d="M32.8512 53.8296C32.8646 53.8381 32.7307 54.0622 32.4763 54.4604C32.3513 54.6613 32.1928 54.9029 31.9919 55.1722C31.7933 55.4429 31.5777 55.7596 31.3068 56.084C30.7872 56.7515 30.1163 57.5044 29.3253 58.2954C28.5245 59.0756 27.5978 59.8876 26.5609 60.6576C25.5177 61.419 24.4673 62.0628 23.4844 62.5956C22.4948 63.1155 21.577 63.5324 20.7861 63.8295C20.3959 63.9919 20.0299 64.1033 19.7134 64.2125C19.3969 64.3239 19.1193 64.4031 18.8912 64.4626C18.4359 64.5865 18.1828 64.6473 18.1788 64.6326C18.1747 64.6173 18.4194 64.5274 18.8653 64.3775C19.0889 64.3055 19.3612 64.2138 19.6719 64.0917C19.983 63.9718 20.3433 63.8505 20.7267 63.6792C21.5047 63.3647 22.4086 62.9361 23.3849 62.41C24.354 61.8713 25.3918 61.228 26.4261 60.4732C27.4536 59.71 28.3763 58.9105 29.1789 58.1446C29.9716 57.3684 30.6497 56.6324 31.1818 55.982C31.4594 55.6661 31.6826 55.3583 31.8897 55.0961C32.0991 54.8353 32.2674 54.6022 32.4031 54.4099C32.6789 54.0287 32.8378 53.8211 32.8512 53.8296Z" fill="#E0E0E0"/>
<path d="M43.8362 17.8926H40.2562V21.4807H43.8362V17.8926Z" fill="#E0E0E0"/>
<path d="M58.8126 26.2556H25.4463V47.3618H58.8126V26.2556Z" fill="#845EF1"/>
<path d="M25.4463 26.2556C25.4463 26.2556 30.5542 20.9076 43.3612 21.1214C56.1683 21.3353 58.8122 26.2556 58.8122 26.2556H25.4463Z" fill="#845EF1"/>
<path d="M58.6836 26.5992C58.6836 26.6623 51.1827 26.7133 41.9319 26.7133C32.678 26.7133 25.1789 26.6623 25.1789 26.5992C25.1789 26.5361 32.678 26.4851 41.9319 26.4851C51.1827 26.4846 58.6836 26.5361 58.6836 26.5992Z" fill="#E0E0E0"/>
<path d="M66.1962 29.4884H58.6836V26.5992H66.1962C66.8773 26.5992 67.4299 27.1526 67.4299 27.8353V28.2518C67.4299 28.935 66.8778 29.4884 66.1962 29.4884Z" fill="#E0E0E0"/>
<path d="M18.0574 26.5992H25.5699V29.4884H18.0574C17.3762 29.4884 16.8236 28.935 16.8236 28.2518V27.8353C16.8236 27.1526 17.3757 26.5992 18.0574 26.5992Z" fill="#E0E0E0"/>
<path d="M45.7609 18.9274H38.4975C38.0096 18.9274 37.6141 18.5311 37.6141 18.0421V17.7437C37.6141 17.2547 38.0096 16.8583 38.4975 16.8583H45.7614C46.2493 16.8583 46.6448 17.2547 46.6448 17.7437V18.0421C46.6443 18.5311 46.2488 18.9274 45.7609 18.9274Z" fill="#E0E0E0"/>
<path d="M204.771 154.319H12.0455V206.135H204.771V154.319Z" fill="#845EF1"/>
<path d="M206.103 152.169H9.59357V158.474H206.103V152.169Z" fill="#C6C9FF"/>
<path d="M70.3573 166.925H19.6665V182.615H70.3573V166.925Z" fill="#EBEBEB"/>
<path d="M45.0119 176.079C45.7335 176.079 46.3185 175.493 46.3185 174.77C46.3185 174.047 45.7335 173.46 45.0119 173.46C44.2903 173.46 43.7054 174.047 43.7054 174.77C43.7054 175.493 44.2903 176.079 45.0119 176.079Z" fill="#845EF1"/>
<path d="M70.3573 185.923H19.6665V201.612H70.3573V185.923Z" fill="#EBEBEB"/>
<path d="M45.0119 195.077C45.7335 195.077 46.3185 194.491 46.3185 193.767C46.3185 193.044 45.7335 192.458 45.0119 192.458C44.2903 192.458 43.7054 193.044 43.7054 193.767C43.7054 194.491 44.2903 195.077 45.0119 195.077Z" fill="#845EF1"/>
<path d="M194.525 166.925H143.834V182.615H194.525V166.925Z" fill="#EBEBEB"/>
<path d="M169.18 176.079C169.901 176.079 170.486 175.493 170.486 174.77C170.486 174.047 169.901 173.46 169.18 173.46C168.458 173.46 167.873 174.047 167.873 174.77C167.873 175.493 168.458 176.079 169.18 176.079Z" fill="#845EF1"/>
<path d="M194.525 185.923H143.834V201.612H194.525V185.923Z" fill="#EBEBEB"/>
<path d="M169.18 195.077C169.901 195.077 170.486 194.491 170.486 193.767C170.486 193.044 169.901 192.458 169.18 192.458C168.458 192.458 167.873 193.044 167.873 193.767C167.873 194.491 168.458 195.077 169.18 195.077Z" fill="#845EF1"/>
<path d="M71.9312 206.224C71.9312 206.224 71.925 205.993 71.9218 205.533C71.9196 205.068 71.916 204.384 71.912 203.49C71.9067 201.687 71.8991 199.039 71.8893 195.641C71.8781 188.818 71.8616 178.985 71.8415 166.925V166.835H71.9317C89.7605 166.827 112.905 166.818 138.115 166.809H138.236V166.925C138.233 180.842 138.23 194.129 138.227 206.224V206.332H138.119C118.692 206.311 102.135 206.292 90.4283 206.279C84.5896 206.267 79.962 206.257 76.7892 206.25C75.2112 206.245 73.9962 206.24 73.1699 206.237C72.7637 206.234 72.4544 206.232 72.2415 206.231C72.0339 206.228 71.9312 206.224 71.9312 206.224C71.9312 206.224 72.0424 206.219 72.2544 206.218C72.4704 206.216 72.7838 206.214 73.1954 206.211C74.0265 206.208 75.2492 206.204 76.8365 206.198C80.0156 206.191 84.6512 206.181 90.5001 206.169C102.189 206.156 118.721 206.137 138.12 206.116L138.012 206.224C138.009 194.129 138.006 180.842 138.003 166.925L138.119 167.041H138.114C112.904 167.031 89.76 167.022 71.9312 167.015L72.0214 166.925C72.0013 178.962 71.9852 188.775 71.9736 195.585C71.9638 198.992 71.9562 201.647 71.9509 203.455C71.9464 204.356 71.9433 205.046 71.941 205.514C71.9379 205.98 71.9312 206.224 71.9312 206.224Z" fill="#EBEBEB"/>
<path d="M42.0962 133.352C42.0962 136.091 39.8803 138.312 37.1472 138.312C34.414 138.312 32.1977 136.091 32.1977 133.352C32.1977 130.612 34.4136 128.391 37.1472 128.391C39.8803 128.391 42.0962 130.612 42.0962 133.352Z" fill="#553F95"/>
<path d="M46.8032 138.23C49.5367 138.23 51.7527 136.009 51.7527 133.27C51.7527 130.53 49.5367 128.309 46.8032 128.309C44.0697 128.309 41.8538 130.53 41.8538 133.27C41.8538 136.009 44.0697 138.23 46.8032 138.23Z" fill="#C6C9FF"/>
<path d="M27.4907 138.23C30.2239 138.23 32.4397 136.009 32.4397 133.27C32.4397 130.53 30.2239 128.31 27.4907 128.31C24.7574 128.31 22.5417 130.53 22.5417 133.27C22.5417 136.009 24.7574 138.23 27.4907 138.23Z" fill="#C6C9FF"/>
<path d="M20.9124 134.337H53.2391C53.2391 134.337 52.9066 147.698 44.2276 149.332L44.0924 152.169H29.5342V149.281C29.5342 149.281 20.9119 147.069 20.9124 134.337Z" fill="#845EF1"/>
<path d="M44.2276 149.332C44.2276 149.379 40.928 149.417 36.8584 149.417C32.7874 149.417 29.4882 149.379 29.4882 149.332C29.4882 149.286 32.7874 149.247 36.8584 149.247C40.928 149.247 44.2276 149.286 44.2276 149.332Z" fill="white"/>
<path d="M51.9875 141.222C51.9875 141.222 51.9174 141.234 51.7804 141.247C51.6371 141.259 51.4349 141.277 51.171 141.3C50.6376 141.33 49.8319 141.4 48.824 141.186C48.3241 141.078 47.7714 140.894 47.2434 140.552C46.7211 140.211 46.2087 139.717 45.9029 139.04C45.7538 138.702 45.6703 138.32 45.677 137.922C45.6935 137.526 45.8217 137.116 46.0859 136.781C46.218 136.615 46.3877 136.47 46.5899 136.378C46.7925 136.288 47.0246 136.256 47.2496 136.29C47.7005 136.366 48.1013 136.675 48.3321 137.087C48.566 137.505 48.6048 138.013 48.5178 138.492C48.4321 138.975 48.2258 139.435 47.9611 139.865C47.4188 140.718 46.5787 141.436 45.5538 141.814C44.5343 142.203 43.3335 142.199 42.2502 141.779C41.7087 141.57 41.1954 141.263 40.7495 140.863C40.3169 140.458 39.9036 139.979 39.7308 139.367C39.6451 139.065 39.6402 138.731 39.7357 138.423C39.8286 138.117 40.0312 137.826 40.3285 137.67C40.9334 137.36 41.6913 137.59 42.1265 138.079C42.5756 138.57 42.7756 139.223 42.8809 139.864C42.9849 140.513 42.9577 141.185 42.8215 141.837C42.5475 143.139 41.8297 144.389 40.7303 145.23C40.1848 145.652 39.5487 145.964 38.8733 146.142C38.1962 146.314 37.4851 146.36 36.7834 146.283C35.3795 146.136 34.0448 145.456 33.1525 144.398C32.7097 143.87 32.379 143.239 32.262 142.56C32.1401 141.883 32.2879 141.158 32.6754 140.6C33.0485 140.039 33.69 139.622 34.381 139.657C35.0532 139.697 35.6942 140.102 35.9705 140.715C36.1151 141.019 36.1241 141.377 36.0361 141.692C35.9433 142.009 35.7563 142.29 35.5255 142.509C35.0635 142.954 34.4747 143.217 33.8868 143.373C31.5183 144.021 28.999 143.301 27.4572 141.763C27.076 141.375 26.7635 140.922 26.5854 140.421C26.4011 139.922 26.3752 139.376 26.4979 138.88C26.6184 138.385 26.8907 137.926 27.2925 137.632C27.6906 137.332 28.2009 137.233 28.6642 137.297C29.1302 137.36 29.5623 137.596 29.844 137.947C30.1256 138.296 30.277 138.73 30.281 139.154C30.2886 139.58 30.1368 139.987 29.9025 140.305C29.669 140.626 29.3641 140.87 29.0512 141.059C28.4209 141.441 27.7563 141.622 27.155 141.774C26.5488 141.92 25.985 142.005 25.4757 142.054C24.4557 142.149 23.6585 142.096 23.1242 142.04C22.5894 141.98 22.3136 141.916 22.3136 141.916C22.3136 141.916 22.3841 141.921 22.5207 141.939C22.6568 141.958 22.8604 141.982 23.1278 142.006C23.6612 142.051 24.4562 142.093 25.4695 141.988C25.9752 141.935 26.5354 141.845 27.1362 141.696C27.733 141.54 28.3892 141.356 29.0026 140.979C29.307 140.792 29.6003 140.554 29.8212 140.246C30.0431 139.94 30.1832 139.556 30.1743 139.156C30.1689 138.756 30.023 138.346 29.7569 138.02C29.4913 137.692 29.0878 137.472 28.6486 137.415C28.212 137.357 27.7357 137.452 27.367 137.733C26.9943 138.007 26.7376 138.44 26.6251 138.911C26.5104 139.384 26.5359 139.899 26.7131 140.375C26.8849 140.853 27.1862 141.289 27.5576 141.665C29.0615 143.159 31.5371 143.862 33.8466 143.223C34.4189 143.071 34.9836 142.814 35.4161 142.396C35.6322 142.19 35.8009 141.933 35.8839 141.649C35.9616 141.363 35.954 141.053 35.825 140.782C35.5813 140.233 34.9836 139.854 34.3747 139.821C34.0685 139.8 33.7632 139.897 33.4913 140.047C33.2248 140.208 32.9887 140.428 32.8133 140.694C32.4508 141.22 32.3125 141.891 32.4281 142.533C32.5392 143.176 32.8548 143.782 33.2829 144.291C34.1448 145.312 35.4389 145.974 36.8039 146.116C37.4855 146.191 38.1765 146.147 38.8327 145.98C39.4871 145.807 40.1013 145.506 40.6294 145.098C41.694 144.285 42.3939 143.069 42.6613 141.805C42.7939 141.171 42.8211 140.519 42.7211 139.89C42.6207 139.268 42.4238 138.641 42.01 138.19C41.6159 137.74 40.9218 137.542 40.4044 137.81C40.15 137.943 39.971 138.194 39.8866 138.47C39.8004 138.748 39.8031 139.047 39.8817 139.326C40.0384 139.89 40.4343 140.358 40.8526 140.75C41.2829 141.137 41.7797 141.436 42.3046 141.64C43.3559 142.05 44.5169 142.057 45.5065 141.683C46.5019 141.319 47.3228 140.622 47.8522 139.796C48.1107 139.379 48.3124 138.932 48.3959 138.47C48.4812 138.012 48.4432 137.531 48.229 137.145C48.0165 136.761 47.6411 136.472 47.2322 136.402C47.0278 136.37 46.8198 136.398 46.6349 136.478C46.451 136.561 46.2939 136.693 46.1698 136.848C45.9212 137.159 45.7953 137.551 45.7779 137.927C45.7699 138.306 45.8471 138.675 45.989 139.002C46.2805 139.659 46.7778 140.147 47.2876 140.485C47.8027 140.825 48.3441 141.01 48.8387 141.122C49.8328 141.344 50.6363 141.285 51.1693 141.266C51.4331 141.251 51.6362 141.239 51.7795 141.231C51.9165 141.222 51.9875 141.222 51.9875 141.222Z" fill="white"/>
<path d="M168.491 0H134.025V26.3674H168.491V0Z" fill="#845EF1"/>
<path d="M93.2802 55.1422L134.025 26.3674H168.491L210.992 55.1422V59.153H93.2802V55.1422Z" fill="#845EF1"/>
<path d="M210.992 55.1422H93.2802V59.153H210.992V55.1422Z" fill="#EBEBEB"/>
<path d="M141.294 26.622L123.693 55.1422H152.948L147.754 26.622V0H141.151L141.294 26.622Z" fill="#FAFAFA"/>
<path d="M168.001 26.622C168.001 26.6864 160.285 26.7383 150.769 26.7383C141.25 26.7383 133.535 26.686 133.535 26.622C133.535 26.5576 141.25 26.5057 150.769 26.5057C160.285 26.5052 168.001 26.5576 168.001 26.622Z" fill="#E0E0E0"/>
<path d="M12.0455 94.1925H0V106.265H12.0455V94.1925Z" fill="#845EF1"/>
<path d="M12.0455 107.715H0V119.787H12.0455V107.715Z" fill="#845EF1"/>
<path d="M25.6172 94.1925H13.5717V106.265H25.6172V94.1925Z" fill="#845EF1"/>
<path d="M25.6172 107.715H13.5717V119.787H25.6172V107.715Z" fill="#845EF1"/>
<path d="M39.1894 94.1925H27.1438V106.265H39.1894V94.1925Z" fill="#845EF1"/>
<path d="M39.1894 107.715H27.1438V119.787H39.1894V107.715Z" fill="#845EF1"/>
<path d="M52.7611 94.1925H40.7155V106.265H52.7611V94.1925Z" fill="#845EF1"/>
<path d="M52.7611 107.715H40.7155V119.787H52.7611V107.715Z" fill="#845EF1"/>
<path d="M66.1252 94.1925H54.0797V106.265H66.1252V94.1925Z" fill="#845EF1"/>
<path d="M66.1252 107.715H54.0797V119.787H66.1252V107.715Z" fill="#845EF1"/>
<path d="M79.6969 94.1925H67.6513V106.265H79.6969V94.1925Z" fill="#845EF1"/>
<path d="M79.6969 107.715H67.6513V119.787H79.6969V107.715Z" fill="#845EF1"/>
<path d="M93.269 94.1925H81.2235V106.265H93.269V94.1925Z" fill="#845EF1"/>
<path d="M93.269 107.715H81.2235V119.787H93.269V107.715Z" fill="#845EF1"/>
<path d="M106.841 94.1925H94.7952V106.265H106.841V94.1925Z" fill="#845EF1"/>
<path d="M106.841 107.715H94.7952V119.787H106.841V107.715Z" fill="#845EF1"/>
<path d="M120.205 94.1925H108.159V106.265H120.205V94.1925Z" fill="#845EF1"/>
<path d="M120.205 107.715H108.159V119.787H120.205V107.715Z" fill="#845EF1"/>
<path d="M133.777 94.1925H121.731V106.265H133.777V94.1925Z" fill="#845EF1"/>
<path d="M133.777 107.715H121.731V119.787H133.777V107.715Z" fill="#845EF1"/>
<path d="M147.349 94.1925H135.303V106.265H147.349V94.1925Z" fill="#845EF1"/>
<path d="M147.349 107.715H135.303V119.787H147.349V107.715Z" fill="#845EF1"/>
<path d="M160.92 94.1925H148.875V106.265H160.92V94.1925Z" fill="#845EF1"/>
<path d="M160.92 107.715H148.875V119.787H160.92V107.715Z" fill="#845EF1"/>
<path d="M174.284 94.1925H162.239V106.265H174.284V94.1925Z" fill="#845EF1"/>
<path d="M174.284 107.715H162.239V119.787H174.284V107.715Z" fill="#845EF1"/>
<path d="M187.856 94.1925H175.811V106.265H187.856V94.1925Z" fill="#845EF1"/>
<path d="M187.856 107.715H175.811V119.787H187.856V107.715Z" fill="#845EF1"/>
<path d="M201.428 94.1925H189.383V106.265H201.428V94.1925Z" fill="#845EF1"/>
<path d="M201.428 107.715H189.383V119.787H201.428V107.715Z" fill="#845EF1"/>
<path d="M215 94.1925H202.954V106.265H215V94.1925Z" fill="#845EF1"/>
<path d="M215 107.715H202.954V119.787H215V107.715Z" fill="#845EF1"/>
<path d="M206.951 208.884C206.951 208.948 163.256 209 109.367 209C55.4599 209 11.7737 208.948 11.7737 208.884C11.7737 208.82 55.4599 208.767 109.367 208.767C163.256 208.767 206.951 208.819 206.951 208.884Z" fill="#263238"/>
<path d="M106.276 60.1619L72.6227 62.1737C70.5256 69.6611 70.2252 76.8904 72.5151 84.3089C73.1686 86.4264 74.1337 88.6624 76.3544 89.8941C78.3408 90.996 80.9195 91.0613 83.338 91.0353C95.0652 90.9101 106.785 89.5312 118.097 86.9458C115.869 85.7048 114.588 83.4356 114.882 81.2479C115.846 83.3891 118.582 84.8543 121.403 84.9429C124.224 85.0314 127.013 83.8383 128.741 82.0174C119.171 77.6514 106.505 69.0827 106.276 60.1619Z" fill="#263238"/>
<path d="M128.541 74.3251C128.541 74.3332 128.441 74.3354 128.249 74.3327C128.057 74.3278 127.774 74.3269 127.411 74.305C126.684 74.271 125.632 74.1909 124.341 74.0142C121.773 73.6612 118.18 72.8711 114.69 70.9004C112.957 69.9072 111.452 68.7136 110.251 67.4667C109.051 66.219 108.141 64.9359 107.521 63.783C106.898 62.6314 106.524 61.6337 106.327 60.9305C106.213 60.5833 106.169 60.301 106.121 60.1153C106.08 59.9279 106.062 59.8286 106.07 59.8268C106.092 59.8214 106.189 60.2133 106.414 60.9036C106.636 61.5944 107.03 62.5737 107.665 63.7033C108.296 64.8343 109.21 66.0919 110.405 67.3173C111.6 68.5418 113.091 69.7162 114.805 70.6982C118.257 72.6479 121.814 73.459 124.365 73.8518C125.647 74.0486 126.693 74.1533 127.417 74.2151C127.759 74.2446 128.036 74.2679 128.251 74.2862C128.441 74.3036 128.541 74.3171 128.541 74.3251Z" fill="#263238"/>
<path d="M134.366 139.587C134.242 139.62 124.44 136.497 124.44 136.497L121.358 138.934L129.763 142.594C129.763 142.594 133.473 143.017 135.252 144.069C137.031 145.12 134.366 139.587 134.366 139.587Z" fill="#553F95"/>
<path d="M132.859 140.192C132.859 140.192 132.875 140.29 132.924 140.464C133.208 141.489 134.605 145.15 140.407 147.26C147.2 149.73 162.014 150.421 164.469 150.034C169.226 149.284 173.667 145.565 173.483 144.634" fill="#553F95"/>
<path d="M173.483 144.634C173.319 146.148 164.091 146.381 152.873 145.154C141.655 143.928 132.695 141.706 132.86 140.192C133.024 138.678 142.252 138.445 153.47 139.672C164.687 140.898 173.648 143.12 173.483 144.634Z" fill="#C6C9FF"/>
<path d="M159.238 143.58C159.983 142.828 161.041 142.382 160.488 141.509C160.337 141.803 159.591 141.796 159.331 142.024C159.072 142.253 158.353 141.981 158 141.888C157.564 141.774 157.327 141.333 157.353 140.935C157.38 140.537 157.607 140.175 157.836 139.831C158.301 139.129 158.792 138.44 159.307 137.766C159.494 137.522 159.69 137.267 159.734 136.975C159.779 136.683 159.62 136.344 159.298 136.258C159.009 136.181 158.71 136.324 158.457 136.468C157.344 137.099 156.256 137.9 155.849 139.005C155.592 139.7 155.628 140.465 155.318 141.143C155.008 141.821 154.115 142.406 153.367 142.079C152.907 141.877 152.687 141.412 152.566 140.974C152.446 140.536 152.377 140.069 152.074 139.704C151.772 139.34 151.127 139.14 150.738 139.434C150.075 139.936 150.922 141.038 150.354 141.621C150.112 141.87 149.678 141.919 149.322 141.82C148.966 141.722 148.671 141.503 148.397 141.28C146.526 139.757 145.151 137.771 144.473 135.616C144.386 135.341 144.308 135.056 144.126 134.819C143.944 134.582 143.629 134.398 143.306 134.436C142.792 134.496 142.56 135.041 142.559 135.495C142.557 136.778 143.498 137.899 144.397 138.916C145.432 140.086 146.467 141.255 147.501 142.425L148.912 144.058L154.975 145.395L159.079 144.546L159.238 143.58Z" fill="#FF725E"/>
<path d="M159.238 143.58C159.983 142.828 161.041 142.382 160.488 141.509C160.337 141.803 159.591 141.796 159.331 142.024C159.072 142.253 158.353 141.981 158 141.888C157.564 141.774 157.327 141.333 157.353 140.935C157.38 140.537 157.607 140.175 157.836 139.831C158.301 139.129 158.792 138.44 159.307 137.766C159.494 137.522 159.69 137.267 159.734 136.975C159.779 136.683 159.62 136.344 159.298 136.258C159.009 136.181 158.71 136.324 158.457 136.468C157.344 137.099 156.256 137.9 155.849 139.005C155.592 139.7 155.628 140.465 155.318 141.143C155.008 141.821 154.115 142.406 153.367 142.079C152.907 141.877 152.687 141.412 152.566 140.974C152.446 140.536 152.377 140.069 152.074 139.704C151.772 139.34 151.127 139.14 150.738 139.434C150.075 139.936 150.922 141.038 150.354 141.621C150.112 141.87 149.678 141.919 149.322 141.82C148.966 141.722 148.671 141.503 148.397 141.28C146.526 139.757 145.151 137.771 144.473 135.616C144.386 135.341 144.308 135.056 144.126 134.819C143.944 134.582 143.629 134.398 143.306 134.436C142.792 134.496 142.56 135.041 142.559 135.495C142.557 136.778 143.498 137.899 144.397 138.916C145.432 140.086 146.467 141.255 147.501 142.425L148.912 144.058L154.975 145.395L159.079 144.546L159.238 143.58Z" fill="white"/>
<path d="M160.956 145.957C161.09 145.137 161.831 144.421 162.75 144.225C163.059 144.159 163.391 144.145 163.667 144.006C163.944 143.868 164.135 143.538 163.957 143.306C163.782 143.078 163.398 143.096 163.088 143.141C162.38 143.243 161.673 143.345 160.965 143.447C161.535 142.873 162.105 142.299 162.676 141.724C162.901 141.497 163.14 141.186 162.976 140.921C162.817 140.664 162.403 140.657 162.077 140.715C160.964 140.912 159.942 141.482 159.268 142.283C158.665 142.998 158.324 143.893 157.557 144.475C156.864 145.002 155.861 145.197 154.977 144.977C154.093 144.758 153.354 144.13 153.077 143.363C152.96 143.037 152.911 142.674 152.654 142.416C152.166 141.928 151.175 142.138 150.748 142.666C150.322 143.194 150.314 143.893 150.375 144.539C148.426 141.995 146.251 139.336 142.996 138.214C142.425 138.017 141.804 137.871 141.199 137.964C140.595 138.058 140.016 138.446 139.919 138.977C139.806 139.594 140.345 140.159 140.928 140.522C142.039 141.212 143.4 141.511 144.601 142.075C145.801 142.639 147.105 143.481 147.03 144.67C147.03 144.67 152.887 145.561 155.788 145.637C158.689 145.713 160.956 145.957 160.956 145.957Z" fill="#FF725E"/>
<path d="M160.956 145.957C161.09 145.137 161.831 144.421 162.75 144.225C163.059 144.159 163.391 144.145 163.667 144.006C163.944 143.868 164.135 143.538 163.957 143.306C163.782 143.078 163.398 143.096 163.088 143.141C162.38 143.243 161.673 143.345 160.965 143.447C161.535 142.873 162.105 142.299 162.676 141.724C162.901 141.497 163.14 141.186 162.976 140.921C162.817 140.664 162.403 140.657 162.077 140.715C160.964 140.912 159.942 141.482 159.268 142.283C158.665 142.998 158.324 143.893 157.557 144.475C156.864 145.002 155.861 145.197 154.977 144.977C154.093 144.758 153.354 144.13 153.077 143.363C152.96 143.037 152.911 142.674 152.654 142.416C152.166 141.928 151.175 142.138 150.748 142.666C150.322 143.194 150.314 143.893 150.375 144.539C148.426 141.995 146.251 139.336 142.996 138.214C142.425 138.017 141.804 137.871 141.199 137.964C140.595 138.058 140.016 138.446 139.919 138.977C139.806 139.594 140.345 140.159 140.928 140.522C142.039 141.212 143.4 141.511 144.601 142.075C145.801 142.639 147.105 143.481 147.03 144.67C147.03 144.67 152.887 145.561 155.788 145.637C158.689 145.713 160.956 145.957 160.956 145.957Z" fill="white"/>
<path d="M139.498 149.632C139.493 149.659 139.164 149.636 138.653 149.49C138.143 149.345 137.458 149.054 136.79 148.587C136.123 148.118 135.615 147.573 135.304 147.143C134.991 146.713 134.856 146.411 134.88 146.397C134.94 146.352 135.615 147.493 136.923 148.397C138.218 149.317 139.52 149.56 139.498 149.632Z" fill="#263238"/>
<path d="M138.389 150.688C138.384 150.715 138.055 150.692 137.544 150.545C137.034 150.4 136.349 150.109 135.68 149.643C135.013 149.174 134.505 148.628 134.194 148.198C133.881 147.768 133.746 147.466 133.77 147.453C133.831 147.407 134.505 148.548 135.813 149.452C137.109 150.373 138.411 150.616 138.389 150.688Z" fill="#263238"/>
<path d="M177.638 146.239C177.653 146.245 177.612 146.368 177.525 146.586C177.441 146.804 177.294 147.11 177.092 147.477C176.691 148.212 176.021 149.172 175.102 150.068C174.18 150.96 173.2 151.6 172.455 151.979C172.083 152.169 171.772 152.306 171.552 152.383C171.332 152.463 171.208 152.5 171.203 152.486C171.188 152.449 171.661 152.247 172.376 151.834C173.091 151.424 174.035 150.775 174.94 149.9C175.841 149.022 176.518 148.097 176.95 147.394C177.385 146.69 177.602 146.223 177.638 146.239Z" fill="#263238"/>
<path d="M179.781 147.16C179.808 147.171 179.716 147.483 179.486 147.953C179.256 148.423 178.873 149.044 178.345 149.647C177.815 150.248 177.249 150.708 176.813 150.996C176.377 151.285 176.08 151.415 176.066 151.39C176.025 151.328 177.141 150.676 178.17 149.493C179.211 148.32 179.715 147.128 179.781 147.16Z" fill="#263238"/>
<path d="M169.033 117.684L173.178 116.533C173.178 116.533 176.601 117.05 177.483 116.392C178.365 115.734 177.949 115.355 177.949 115.355C179.813 114.649 179.149 113.82 179.149 113.82C179.149 113.82 181.002 113.677 181.036 112.212C181.055 111.359 173.968 109.945 173.968 109.945C173.968 109.945 174.034 109.026 174.757 108.507C175.48 107.988 179.657 108.993 180.94 108.602C182.222 108.211 182.13 106.947 182.13 106.947C182.13 106.947 173.364 105.161 171.517 105.931C169.67 106.702 160.807 110.403 159.457 112.197L162.405 118.36C162.405 118.36 162.586 118.451 164.053 118.853C165.52 119.254 169.033 117.684 169.033 117.684Z" fill="#FFBF9D"/>
<path d="M164.27 116.162C164.271 116.129 164.612 116.135 165.213 116.053C165.81 115.966 166.68 115.777 167.635 115.273C168.112 115.023 168.604 114.693 169.072 114.271C169.31 114.064 169.531 113.823 169.748 113.569C169.965 113.311 170.175 113.017 170.458 112.752C170.727 112.487 171.139 112.255 171.575 112.274C171.985 112.279 172.37 112.358 172.761 112.439C173.546 112.602 174.315 112.868 175.101 112.75C175.612 112.681 176.102 112.481 176.461 112.158C176.825 111.856 177.051 111.353 176.862 111.038L176.976 111.121C174.48 110.515 172.253 110.248 170.681 110.016C169.949 109.91 169.335 109.82 168.834 109.746C168.403 109.676 168.171 109.628 168.174 109.606C168.176 109.583 168.414 109.59 168.848 109.621C169.283 109.651 169.916 109.704 170.709 109.782C172.292 109.95 174.529 110.168 177.065 110.76L177.138 110.777L177.179 110.843C177.352 111.123 177.328 111.471 177.221 111.741C177.114 112.019 176.932 112.253 176.717 112.443C176.289 112.829 175.727 113.054 175.152 113.132C174.712 113.197 174.274 113.151 173.857 113.078C173.46 112.987 173.068 112.897 172.682 112.809C172.303 112.727 171.924 112.65 171.575 112.643C171.238 112.627 170.949 112.784 170.698 113.015C170.447 113.243 170.237 113.524 170.008 113.788C169.774 114.052 169.538 114.3 169.284 114.511C168.785 114.943 168.262 115.274 167.759 115.517C166.752 116.009 165.845 116.16 165.23 116.202C164.609 116.239 164.269 116.181 164.27 116.162Z" fill="#FF9A6C"/>
<path d="M172.747 112.723C172.845 112.757 172.645 113.587 172.193 114.53C171.743 115.475 171.223 116.152 171.135 116.096C171.042 116.04 171.406 115.288 171.846 114.364C172.288 113.442 172.645 112.686 172.747 112.723Z" fill="#FF9A6C"/>
<path d="M177.558 115.182C177.538 115.289 176.389 115.152 174.976 114.996C173.564 114.837 172.413 114.717 172.417 114.608C172.42 114.505 173.589 114.452 175.019 114.613C176.449 114.771 177.579 115.08 177.558 115.182Z" fill="#FF9A6C"/>
<path d="M179.688 113.896C179.674 114.002 178.206 113.88 176.412 113.625C174.617 113.369 173.175 113.077 173.19 112.971C173.205 112.866 174.671 112.988 176.466 113.243C178.261 113.498 179.704 113.791 179.688 113.896Z" fill="#FF9A6C"/>
<path d="M173.808 107.926C173.913 107.927 173.992 108.463 173.913 109.116C173.835 109.77 173.631 110.271 173.529 110.247C173.424 110.223 173.456 109.701 173.531 109.07C173.607 108.439 173.7 107.925 173.808 107.926Z" fill="#FF9A6C"/>
<path d="M124.546 109.938L136.689 116.396L160.39 111.786L163.757 118.772C163.757 118.772 142.096 128.285 136.046 128.389C129.997 128.492 119.001 121.345 119.001 121.345L124.546 109.938Z" fill="#FFBF9D"/>
<path d="M153.826 116.713C153.826 116.713 150.948 116.154 150.427 118.31C149.906 120.466 152.487 121.008 152.487 121.008C152.487 121.008 152.012 122.498 154.5 123.277C156.989 124.057 157.474 121.348 157.474 121.348C157.474 121.348 159.814 122.117 159.991 120.607C160.255 118.368 158.436 118.186 158.436 118.186C158.436 118.186 160.23 115.995 157.298 115.125C154.367 114.255 153.826 116.713 153.826 116.713ZM156.936 116.075C158.63 116.433 157.514 118.549 157.514 118.549C157.514 118.549 159.429 118.986 159.052 120.118C158.675 121.25 156.787 120.511 156.787 120.511C156.787 120.511 157.479 122.445 155.159 122.468C152.84 122.491 153.798 120.488 153.798 120.488C153.798 120.488 151.916 120.665 151.516 118.869C151.117 117.074 154.37 117.609 154.37 117.609C154.467 116.088 155.24 115.715 156.936 116.075Z" fill="#FF725E"/>
<path d="M153.826 116.713C153.826 116.713 150.948 116.154 150.427 118.31C149.906 120.466 152.487 121.008 152.487 121.008C152.487 121.008 152.012 122.498 154.5 123.277C156.989 124.057 157.474 121.348 157.474 121.348C157.474 121.348 159.814 122.117 159.991 120.607C160.255 118.368 158.436 118.186 158.436 118.186C158.436 118.186 160.23 115.995 157.298 115.125C154.367 114.255 153.826 116.713 153.826 116.713ZM156.936 116.075C158.63 116.433 157.514 118.549 157.514 118.549C157.514 118.549 159.429 118.986 159.052 120.118C158.675 121.25 156.787 120.511 156.787 120.511C156.787 120.511 157.479 122.445 155.159 122.468C152.84 122.491 153.798 120.488 153.798 120.488C153.798 120.488 151.916 120.665 151.516 118.869C151.117 117.074 154.37 117.609 154.37 117.609C154.467 116.088 155.24 115.715 156.936 116.075Z" fill="black"/>
<path d="M153.869 116.156C153.869 116.156 150.991 115.594 150.47 117.75C149.949 119.906 152.53 120.448 152.53 120.448C152.53 120.448 152.055 121.938 154.543 122.718C157.031 123.497 157.519 120.791 157.519 120.791C157.519 120.791 159.859 121.56 160.036 120.05C160.3 117.808 158.481 117.629 158.481 117.629C158.481 117.629 160.275 115.438 157.344 114.568C154.412 113.698 153.869 116.156 153.869 116.156ZM156.979 115.516C158.675 115.876 157.557 117.992 157.557 117.992C157.557 117.992 159.472 118.428 159.095 119.558C158.717 120.687 156.83 119.951 156.83 119.951C156.83 119.951 157.522 121.885 155.202 121.911C152.882 121.936 153.841 119.929 153.841 119.929C153.841 119.929 151.959 120.105 151.559 118.312C151.159 116.519 154.413 117.052 154.413 117.052C154.501 115.531 155.283 115.157 156.979 115.516Z" fill="#FF725E"/>
<path d="M155.18 96.1534C155.18 96.1534 152.284 96.6115 152.528 98.8162C152.773 101.021 155.383 100.648 155.383 100.648C155.383 100.648 155.444 102.211 158.048 102.093C160.653 101.974 160.187 99.2623 160.187 99.2623C160.187 99.2623 162.649 99.1849 162.3 97.7049C161.786 95.5096 160.014 95.961 160.014 95.961C160.014 95.961 160.955 93.2875 157.903 93.4722C154.851 93.657 155.18 96.1534 155.18 96.1534ZM157.886 94.49C159.6 94.2475 159.272 96.6178 159.272 96.6178C159.272 96.6178 161.221 96.3731 161.252 97.5667C161.282 98.7598 159.257 98.7106 159.257 98.7106C159.257 98.7106 160.565 100.292 158.393 101.107C156.22 101.922 156.439 99.7114 156.439 99.7114C156.439 99.7114 154.73 100.521 153.743 98.9701C152.756 97.419 155.996 96.8093 155.996 96.8093C155.57 95.3459 156.169 94.7312 157.886 94.49Z" fill="#FF725E"/>
<path d="M155.18 96.1534C155.18 96.1534 152.284 96.6115 152.528 98.8162C152.773 101.021 155.383 100.648 155.383 100.648C155.383 100.648 155.444 102.211 158.048 102.093C160.653 101.974 160.187 99.2623 160.187 99.2623C160.187 99.2623 162.649 99.1849 162.3 97.7049C161.786 95.5096 160.014 95.961 160.014 95.961C160.014 95.961 160.955 93.2875 157.903 93.4722C154.851 93.657 155.18 96.1534 155.18 96.1534ZM157.886 94.49C159.6 94.2475 159.272 96.6178 159.272 96.6178C159.272 96.6178 161.221 96.3731 161.252 97.5667C161.282 98.7598 159.257 98.7106 159.257 98.7106C159.257 98.7106 160.565 100.292 158.393 101.107C156.22 101.922 156.439 99.7114 156.439 99.7114C156.439 99.7114 154.73 100.521 153.743 98.9701C152.756 97.419 155.996 96.8093 155.996 96.8093C155.57 95.3459 156.169 94.7312 157.886 94.49Z" fill="black"/>
<path d="M155.03 95.6147C155.03 95.6147 152.133 96.0706 152.378 98.2753C152.622 100.48 155.233 100.107 155.233 100.107C155.233 100.107 155.293 101.671 157.898 101.552C160.502 101.433 160.04 98.7232 160.04 98.7232C160.04 98.7232 162.501 98.6458 162.153 97.1658C161.638 94.9683 159.867 95.4219 159.867 95.4219C159.867 95.4219 160.807 92.7484 157.756 92.9331C154.705 93.1179 155.03 95.6147 155.03 95.6147ZM157.736 93.9491C159.453 93.708 159.123 96.0791 159.123 96.0791C159.123 96.0791 161.071 95.8344 161.101 97.0253C161.131 98.2163 159.106 98.1693 159.106 98.1693C159.106 98.1693 160.415 99.7508 158.243 100.568C156.071 101.385 156.289 99.1701 156.289 99.1701C156.289 99.1701 154.58 99.9794 153.593 98.431C152.607 96.8826 155.846 96.2702 155.846 96.2702C155.411 94.8108 156.02 94.1925 157.736 93.9491Z" fill="#FF725E"/>
<path d="M150.65 106.771C150.65 106.771 148.821 106.85 148.711 108.179C148.602 109.507 149.114 111.683 152.29 112.158C155.466 112.632 155.849 108.67 155.849 108.67C155.849 108.67 154.932 106.593 150.65 106.771Z" fill="#E0E0E0"/>
<path d="M152.451 110.352C154.209 110.434 155.255 109.674 155.778 109.115C155.833 108.84 155.852 108.67 155.852 108.67C155.852 108.67 154.932 106.593 150.65 106.771C150.65 106.771 148.821 106.851 148.711 108.179C148.711 108.269 148.711 108.362 148.698 108.452C149.366 109.186 150.644 110.264 152.451 110.352Z" fill="#263238"/>
<path d="M151 105.904L150.477 108.201C150.477 108.201 151.389 109.279 152.716 109.205C154.044 109.131 154.042 108.631 154.042 108.631L154.589 106.28C154.589 106.28 153.415 105.418 152.125 105.382C150.836 105.347 151 105.904 151 105.904Z" fill="#E0E0E0"/>
<path d="M141.106 122.239C141.106 122.239 139.945 123.659 140.861 124.626C141.775 125.593 143.735 126.661 146.205 124.605C148.675 122.549 145.984 119.621 145.984 119.621C145.984 119.621 143.827 118.921 141.106 122.239Z" fill="#E0E0E0"/>
<path d="M144.97 123.28C146.203 122.022 146.334 120.734 146.267 119.97C146.099 119.747 145.986 119.619 145.986 119.619C145.986 119.619 143.828 118.921 141.106 122.239C141.106 122.239 139.946 123.659 140.861 124.626C140.928 124.686 140.998 124.748 141.056 124.819C142.046 124.808 143.7 124.572 144.97 123.28Z" fill="#263238"/>
<path d="M140.694 121.4L142.054 123.321C142.054 123.321 143.463 123.359 144.294 122.317C145.123 121.276 144.75 120.945 144.75 120.945L143.366 118.968C143.366 118.968 141.942 119.271 141.056 120.211C140.17 121.151 140.694 121.4 140.694 121.4Z" fill="#E0E0E0"/>
<path d="M161.647 122.14C161.647 122.14 162.886 123.015 163.626 122.202C164.366 121.388 165.131 119.7 163.285 117.776C161.439 115.852 159.191 118.26 159.191 118.26C159.191 118.26 158.748 120.088 161.647 122.14Z" fill="#E0E0E0"/>
<path d="M162.269 118.88C161.514 118.179 160.483 117.857 159.463 118.005C159.293 118.151 159.191 118.26 159.191 118.26C159.191 118.26 158.748 120.088 161.647 122.14C161.647 122.14 162.886 123.015 163.626 122.202C163.675 122.146 163.725 122.087 163.774 122.022C163.705 120.817 163.164 119.688 162.269 118.88Z" fill="#263238"/>
<path d="M160.978 122.546L162.48 121.304C162.43 120.596 162.079 119.943 161.517 119.51C160.606 118.889 160.358 119.216 160.358 119.216L158.81 120.482C159.029 121.188 159.429 121.822 159.971 122.323C160.808 122.984 160.978 122.546 160.978 122.546Z" fill="#E0E0E0"/>
<path d="M154.421 137.51C154.421 137.51 151.266 138.768 149.158 134.761C147.05 130.754 147.369 127.006 150.229 126.151C153.089 125.297 154.026 126.734 154.613 127.771C155.2 128.807 156.601 131.127 156.853 133.222C156.984 134.404 156.33 136.917 154.421 137.51Z" fill="#AE7461"/>
<path d="M154.369 136.351C154.983 136.076 155.487 135.604 155.803 135.009L155.787 135.033L155.808 134.999L155.857 134.923C155.889 134.873 155.908 134.813 155.932 134.757L155.96 134.713L155.936 134.751C156.117 134.224 156.164 133.659 156.071 133.11C156.037 132.781 155.955 132.459 155.828 132.153C155.701 131.847 155.465 131.599 155.166 131.458C154.822 131.326 154.436 131.363 154.123 131.558C153.814 131.753 153.577 132.043 153.445 132.384C153.317 132.696 153.261 133.033 153.146 133.35C153.05 133.677 152.83 133.954 152.532 134.119C152.279 134.234 151.983 134.216 151.72 134.312C151.258 134.501 151.002 135.001 151.121 135.488C151.241 135.932 151.655 136.232 152.082 136.397C152.821 136.683 153.642 136.667 154.369 136.351Z" fill="#6F4439"/>
<path d="M151.133 126.611C150.47 126.71 149.859 127.026 149.395 127.512L149.411 127.488L149.39 127.521L149.328 127.587C149.295 127.638 149.248 127.679 149.211 127.726L149.183 127.77L149.207 127.732C148.886 128.183 148.682 128.708 148.614 129.258C148.556 129.582 148.545 129.913 148.58 130.239C148.619 130.568 148.778 130.872 149.027 131.09C149.322 131.31 149.702 131.381 150.056 131.281C150.407 131.178 150.714 130.964 150.935 130.673C151.145 130.409 151.289 130.099 151.48 129.821C151.662 129.533 151.949 129.328 152.282 129.253C152.554 129.214 152.837 129.309 153.115 129.287C153.612 129.235 153.996 128.824 154.015 128.323C154.02 127.864 153.709 127.465 153.34 127.184C152.707 126.712 151.916 126.507 151.133 126.611Z" fill="#6F4439"/>
<path d="M151.65 131.855C151.524 131.856 151.4 131.882 151.285 131.931L150.561 132.177C150.375 132.241 150.163 132.328 150.102 132.524C150.065 132.653 150.113 132.79 150.22 132.87C150.326 132.946 150.46 132.97 150.586 132.935L150.555 132.937C150.951 132.918 151.336 132.796 151.671 132.583C151.768 132.527 151.851 132.452 151.916 132.361C151.98 132.268 151.994 132.149 151.952 132.044C151.893 131.93 151.777 131.857 151.65 131.855Z" fill="#6F4439"/>
<path d="M148.584 128.112C148.598 128.121 148.507 128.35 148.409 128.736C148.154 129.751 148.181 130.815 148.485 131.815C148.601 132.198 148.706 132.426 148.69 132.43C148.655 132.384 148.626 132.333 148.603 132.278C148.534 132.135 148.474 131.987 148.422 131.836C148.078 130.83 148.051 129.741 148.346 128.718C148.39 128.565 148.443 128.415 148.506 128.268C148.523 128.213 148.55 128.161 148.584 128.112Z" fill="white"/>
<path d="M149.437 127.039C149.458 127.053 149.364 127.183 149.233 127.322C149.102 127.46 148.982 127.55 148.955 127.533C148.928 127.515 149.027 127.389 149.161 127.25C149.295 127.111 149.419 127.021 149.437 127.039Z" fill="white"/>
<path d="M150.198 135.447C149.898 135.265 149.684 134.969 149.606 134.626C149.713 134.757 149.81 134.895 149.896 135.041C150.006 135.169 150.108 135.304 150.198 135.447Z" fill="white"/>
<path d="M158.489 106.975C158.489 106.975 156.014 105.812 157.2 102.365C158.385 98.9173 160.756 97.0392 162.832 98.2512C164.908 99.4631 164.583 100.807 164.299 101.723C164.016 102.639 163.429 104.741 162.341 106.044C161.721 106.772 159.889 107.771 158.489 106.975Z" fill="#AE7461"/>
<path d="M159.14 106.306C159.639 106.516 160.194 106.552 160.716 106.41L160.693 106.414L160.724 106.408L160.796 106.395C160.843 106.386 160.889 106.364 160.934 106.347L160.975 106.339L160.94 106.346C161.348 106.162 161.704 105.879 161.975 105.521C162.149 105.32 162.293 105.094 162.402 104.851C162.511 104.608 162.526 104.333 162.444 104.079C162.332 103.804 162.097 103.597 161.81 103.521C161.526 103.447 161.226 103.467 160.953 103.577C160.7 103.673 160.472 103.826 160.223 103.933C159.978 104.057 159.695 104.08 159.434 103.996C159.227 103.911 159.075 103.726 158.874 103.625C158.508 103.457 158.075 103.582 157.855 103.92C157.661 104.235 157.714 104.644 157.852 104.986C158.092 105.578 158.555 106.052 159.14 106.306Z" fill="#6F4439"/>
<path d="M163.062 99.0363C162.639 98.7003 162.116 98.5151 161.577 98.5098L161.599 98.5057L161.568 98.5116H161.496C161.447 98.5205 161.398 98.5151 161.35 98.5196L161.309 98.5272L161.344 98.5205C160.903 98.58 160.483 98.7491 160.123 99.0122C159.902 99.1562 159.702 99.3316 159.53 99.5329C159.358 99.7369 159.269 99.9978 159.279 100.265C159.312 100.56 159.479 100.822 159.733 100.976C159.987 101.125 160.281 101.188 160.574 101.157C160.844 101.135 161.105 101.05 161.373 101.008C161.642 100.956 161.92 101.013 162.147 101.167C162.32 101.306 162.42 101.525 162.586 101.675C162.89 101.939 163.342 101.939 163.646 101.674C163.918 101.424 163.98 101.021 163.941 100.65C163.869 100.018 163.553 99.439 163.062 99.0363Z" fill="#6F4439"/>
<path d="M160.275 102.229C160.205 102.156 160.121 102.098 160.029 102.056L159.487 101.766C159.346 101.692 159.179 101.615 159.03 101.688C158.934 101.737 158.88 101.841 158.892 101.948C158.906 102.052 158.966 102.145 159.055 102.199L159.038 102.182C159.267 102.404 159.55 102.563 159.859 102.643C159.945 102.669 160.035 102.676 160.124 102.664C160.214 102.651 160.291 102.593 160.33 102.511C160.365 102.414 160.344 102.306 160.275 102.229Z" fill="#6F4439"/>
<path d="M160.778 98.3639C160.78 98.3769 160.596 98.4494 160.316 98.6051C159.581 99.014 158.972 99.6157 158.554 100.346C158.394 100.625 158.318 100.812 158.306 100.805C158.314 100.759 158.328 100.714 158.347 100.671C158.393 100.551 158.446 100.434 158.506 100.321C158.906 99.5634 159.529 98.9482 160.29 98.5581C160.404 98.4995 160.521 98.448 160.641 98.4042C160.685 98.3836 160.731 98.3702 160.778 98.3639Z" fill="white"/>
<path d="M161.876 98.2744C161.88 98.2946 161.752 98.3107 161.598 98.3098C161.445 98.3089 161.327 98.2883 161.322 98.2624C161.317 98.2369 161.446 98.2261 161.601 98.2279C161.756 98.2301 161.876 98.2534 161.876 98.2744Z" fill="white"/>
<path d="M157.371 103.354C157.312 103.078 157.368 102.789 157.526 102.554C157.508 102.689 157.48 102.822 157.443 102.953C157.429 103.088 157.405 103.223 157.371 103.354Z" fill="white"/>
<path d="M148.194 107.138C146.746 107.918 144.941 107.374 144.162 105.922C143.384 104.471 143.927 102.662 145.375 101.882C146.817 101.105 148.613 101.641 149.398 103.08C150.185 104.527 149.654 106.339 148.211 107.129C148.205 107.132 148.199 107.135 148.194 107.138Z" fill="#FF9A6C"/>
<path d="M148.194 107.138C146.746 107.918 144.941 107.374 144.162 105.922C143.384 104.471 143.927 102.662 145.375 101.882C146.817 101.105 148.613 101.641 149.398 103.08C150.185 104.527 149.654 106.339 148.211 107.129C148.205 107.132 148.199 107.135 148.194 107.138Z" fill="#FF725E"/>
<path d="M147.917 106.627C146.469 107.407 144.664 106.862 143.886 105.411C143.107 103.96 143.65 102.151 145.098 101.37C146.54 100.594 148.336 101.129 149.121 102.569C149.909 104.015 149.377 105.828 147.934 106.617C147.929 106.62 147.923 106.624 147.917 106.627Z" fill="#FF9A6C"/>
<path d="M147.335 105.561C146.492 106.019 145.439 105.706 144.982 104.863C144.525 104.018 144.837 102.963 145.679 102.504C146.521 102.046 147.575 102.359 148.032 103.203L148.032 103.204C148.489 104.048 148.177 105.103 147.335 105.561Z" fill="white"/>
<path d="M147.037 104.994C146.201 105.158 145.53 104.958 145.538 104.548C145.247 104.009 145.447 103.337 145.984 103.045C146.521 102.754 147.192 102.954 147.483 103.492C147.483 103.493 147.483 103.494 147.483 103.494C147.774 104.029 147.577 104.699 147.042 104.991C147.041 104.992 147.039 104.993 147.037 104.994Z" fill="#FF9A6C"/>
<path d="M164.169 108.837C165.484 108.187 167.075 108.728 167.723 110.045C168.372 111.363 167.832 112.957 166.517 113.607C165.203 114.257 163.612 113.716 162.963 112.399C162.314 111.081 162.855 109.486 164.169 108.837Z" fill="#FF9A6C"/>
<path d="M164.169 108.837C165.484 108.187 167.075 108.728 167.723 110.045C168.372 111.363 167.832 112.957 166.517 113.607C165.203 114.257 163.612 113.716 162.963 112.399C162.314 111.081 162.855 109.486 164.169 108.837Z" fill="#FF725E"/>
<path d="M166.36 113.119C165.073 113.813 163.468 113.329 162.776 112.039C162.085 110.748 162.567 109.14 163.854 108.447C165.136 107.756 166.733 108.232 167.43 109.512C168.13 110.798 167.658 112.409 166.375 113.111C166.37 113.113 166.365 113.116 166.36 113.119Z" fill="#FF9A6C"/>
<path d="M163.638 110.361C163.882 109.545 164.74 109.082 165.553 109.326C166.368 109.57 166.83 110.43 166.586 111.246C166.342 112.062 165.484 112.525 164.67 112.281C163.856 112.036 163.394 111.177 163.638 110.361Z" fill="white"/>
<path d="M165.578 111.668C165.1 111.926 164.504 111.747 164.246 111.268C163.989 110.79 164.167 110.192 164.645 109.934C165.122 109.676 165.717 109.853 165.975 110.331C166.234 110.808 166.058 111.406 165.581 111.666C165.58 111.667 165.579 111.667 165.578 111.668Z" fill="#FF9A6C"/>
<path d="M139.879 127.64C139.744 129.062 140.285 130.466 141.338 131.429C142.336 132.377 143.733 132.778 145.081 132.505C145.199 129.929 143.212 127.745 140.642 127.627C140.387 127.616 140.132 127.625 139.879 127.655V127.64Z" fill="#553F95"/>
<path d="M141.044 128.621C141.089 128.587 141.89 129.632 143.059 130.75C144.227 131.868 145.293 132.645 145.259 132.687C144.994 132.571 144.746 132.419 144.522 132.236C143.39 131.418 142.381 130.444 141.524 129.341C141.329 129.126 141.167 128.883 141.044 128.621Z" fill="#263238"/>
<path d="M149.521 92.3457C148.565 93.406 148.162 94.8551 148.432 96.2581C148.668 97.6163 149.548 98.7742 150.792 99.362C152.422 97.3676 152.13 94.4265 150.14 92.7927C149.943 92.6307 149.733 92.4853 149.512 92.3578L149.521 92.3457Z" fill="#553F95"/>
<path d="M149.87 93.8297C149.926 93.8297 149.946 95.1481 150.216 96.7439C150.487 98.3398 150.879 99.6009 150.826 99.6139C150.683 99.362 150.575 99.0918 150.504 98.8109C150.084 97.4781 149.856 96.0921 149.826 94.6945C149.798 94.4059 149.812 94.1142 149.87 93.8297Z" fill="#263238"/>
<path d="M177.205 117.55C175.749 116.424 173.85 116.046 172.075 116.531C170.351 116.972 168.948 118.224 168.312 119.89C171.048 121.801 174.811 121.127 176.718 118.385C176.902 118.12 177.065 117.841 177.205 117.55Z" fill="#553F95"/>
<path d="M175.344 118.151C175.353 118.228 173.662 118.37 171.635 118.888C169.607 119.406 168.026 120.032 167.997 119.962C168.308 119.752 168.647 119.586 169.004 119.469C169.839 119.13 170.698 118.852 171.573 118.638C172.446 118.416 173.335 118.256 174.232 118.161C174.6 118.105 174.975 118.102 175.344 118.151Z" fill="#263238"/>
<path d="M147.241 115.109C147.231 115.746 146.245 116.245 145.04 116.226C143.835 116.206 142.865 115.674 142.875 115.045C142.852 115.288 142.847 115.531 142.862 115.774C142.852 116.41 143.821 116.941 145.025 116.961C146.229 116.981 147.217 116.48 147.227 115.844C147.247 115.6 147.251 115.354 147.241 115.109Z" fill="#455A64"/>
<path d="M145.065 114.65C146.031 114.665 146.842 115.008 147.122 115.471C147.196 115.365 147.237 115.239 147.241 115.109C147.25 114.472 146.282 113.942 145.078 113.922C143.874 113.902 142.885 114.403 142.875 115.045C142.874 115.175 142.912 115.302 142.982 115.411C143.281 114.953 144.102 114.634 145.065 114.65Z" fill="#263238"/>
<path d="M160.112 109.443C160.365 109.687 160.195 110.272 159.733 110.751C159.273 111.23 158.694 111.421 158.445 111.181C158.534 111.281 158.63 111.375 158.733 111.46C158.985 111.704 159.562 111.512 160.023 111.034C160.484 110.556 160.654 109.969 160.402 109.725C160.312 109.625 160.215 109.531 160.112 109.443Z" fill="#455A64"/>
<path d="M159.11 110.148C159.479 109.765 159.922 109.566 160.214 109.627C160.199 109.557 160.163 109.493 160.113 109.443C159.861 109.2 159.283 109.391 158.823 109.87C158.362 110.348 158.192 110.935 158.446 111.181C158.498 111.23 158.563 111.263 158.633 111.275C158.561 110.983 158.742 110.531 159.11 110.148Z" fill="#263238"/>
<path d="M163.474 86.8478C163.644 87.3422 163.023 88.0048 162.086 88.3287C161.15 88.6526 160.252 88.5143 160.084 88.0258C160.134 88.2191 160.199 88.4083 160.278 88.5922C160.449 89.0865 161.345 89.2243 162.281 88.9013C163.217 88.5788 163.84 87.9139 163.669 87.4191C163.616 87.225 163.55 87.0344 163.474 86.8478Z" fill="#553F95"/>
<path d="M161.665 87.1051C162.414 86.8451 163.138 86.8823 163.483 87.161C163.51 87.0581 163.507 86.9489 163.474 86.8478C163.303 86.3535 162.406 86.2157 161.471 86.5387C160.535 86.8612 159.912 87.5256 160.084 88.0258C160.12 88.126 160.184 88.2141 160.269 88.2786C160.371 87.841 160.916 87.3637 161.665 87.1051Z" fill="#263238"/>
<path d="M165.381 123.43L159.202 128.422C159.012 128.576 158.972 128.851 159.112 129.051C159.512 129.622 160.121 130.168 160.999 130.656C165.463 133.131 168.266 128.492 167.646 125.789C167.447 124.921 166.828 124.035 165.939 123.41C165.77 123.292 165.542 123.301 165.381 123.43Z" fill="#FF725E"/>
<path d="M165.381 123.43L159.202 128.422C159.012 128.576 158.972 128.851 159.112 129.051C159.512 129.622 160.121 130.168 160.999 130.656C165.463 133.131 168.266 128.492 167.646 125.789C167.447 124.921 166.828 124.035 165.939 123.41C165.77 123.292 165.542 123.301 165.381 123.43Z" fill="black"/>
<path d="M165.054 123.131L158.875 128.122C158.684 128.276 158.645 128.551 158.785 128.752C159.184 129.323 159.794 129.869 160.672 130.356C165.136 132.832 167.939 128.193 167.319 125.489C167.12 124.622 166.501 123.735 165.611 123.11C165.443 122.991 165.215 123.001 165.054 123.131Z" fill="#FF725E"/>
<path d="M164.535 123.727C164.694 123.495 166.709 124.221 166.701 125.904C166.692 127.588 166.219 128.845 165.474 128.885C164.729 128.925 163.797 127.552 163.759 126.293C163.721 125.034 164.344 124.004 164.535 123.727Z" fill="black"/>
<path d="M159.518 128.036C159.53 127.709 161.227 126.78 162.354 126.989C163.481 127.198 164.786 129.066 164.739 129.562C164.69 130.076 162.589 130.349 161.539 129.993C160.489 129.636 159.501 128.519 159.518 128.036Z" fill="black"/>
<path d="M161.573 127.525C161.438 127.381 160.142 128.242 160.432 128.536C160.723 128.831 161.866 127.835 161.573 127.525Z" fill="#FF725E"/>
<path d="M163.255 128.216C163.437 128.165 164.076 129.555 163.602 129.576C163.128 129.596 163.074 128.268 163.255 128.216Z" fill="#FF725E"/>
<path d="M162.488 127.823C162.714 127.868 162.509 129.685 161.899 129.622C161.289 129.559 162.263 127.778 162.488 127.823Z" fill="#FF725E"/>
<path d="M164.457 125.736C164.348 125.39 166.015 124.979 166.064 125.341C166.114 125.702 164.603 126.194 164.457 125.736Z" fill="#FF725E"/>
<path d="M164.445 125.066C164.631 125.22 165.486 124.529 165.241 124.314C164.995 124.099 164.26 124.912 164.445 125.066Z" fill="#FF725E"/>
<path d="M164.36 126.439C164.344 126.577 165.841 126.923 165.795 126.629C165.749 126.335 164.399 126.095 164.36 126.439Z" fill="#FF725E"/>
<path d="M164.162 127.011C163.998 127.273 164.9 128.279 165.131 128.065C165.364 127.852 164.397 126.636 164.162 127.011Z" fill="#FF725E"/>
<path d="M163.819 124.343C163.822 124.346 163.786 124.389 163.717 124.465C163.65 124.54 163.548 124.647 163.421 124.777C163.165 125.036 162.8 125.382 162.374 125.738C161.948 126.095 161.544 126.393 161.244 126.599C161.094 126.702 160.971 126.782 160.884 126.836C160.798 126.89 160.749 126.918 160.747 126.915C160.745 126.911 160.79 126.877 160.872 126.818C160.963 126.753 161.08 126.668 161.221 126.566C161.514 126.353 161.914 126.051 162.338 125.695C162.763 125.34 163.131 125 163.393 124.749C163.517 124.628 163.621 124.528 163.702 124.45C163.775 124.378 163.816 124.34 163.819 124.343Z" fill="white"/>
<path d="M105.41 87.7202C105.41 87.7202 111.633 92.6754 113.611 95.7601C115.59 98.8448 131.419 109.649 131.199 110.031C130.979 110.413 121.526 126.057 121.526 126.057L116.273 123.398L105.41 88.2683" fill="#C6C9FF"/>
<path d="M83.2974 145.524C83.2974 145.524 71.4964 164.187 70.3033 171.297L83.2974 176.629V145.524Z" fill="#C6C9FF"/>
<path d="M75.4585 85.1402C75.4585 85.609 73.2355 91.4724 73.2355 91.4724L61.6525 104.254L83.9995 140.723L86.2225 146.234L120.62 144.241C120.62 144.241 115.706 118.091 115.355 113.752C115.005 109.413 105.41 87.7193 105.41 87.7193L93.8274 89.0091L90.4345 87.8365L75.4585 85.1402Z" fill="#C6C9FF"/>
<path d="M82.5818 145.703C82.1484 145.529 79.9004 153.06 76.0794 166.829C72.2584 180.599 74.8729 208.737 74.8729 208.737H134.196C134.196 208.737 130.272 177.585 125.147 162.439C120.088 147.491 120.355 138.097 119.232 138.195C118.108 138.292 82.5818 145.703 82.5818 145.703Z" fill="#553F95"/>
<path d="M117.067 124.683C117.063 124.683 117.053 124.65 117.036 124.583C117.019 124.503 116.996 124.405 116.969 124.287C116.916 124.025 116.835 123.639 116.718 123.145C116.486 122.158 116.123 120.734 115.54 119.018C114.958 117.304 114.191 115.275 113.075 113.162C111.902 111.079 110.454 108.869 108.813 106.646C105.535 102.189 102.078 98.5339 99.3817 96.1189C98.0448 94.8958 96.8807 94.0033 96.0825 93.3796C95.6857 93.0906 95.371 92.8615 95.1393 92.6933C95.0425 92.62 94.9626 92.5596 94.8969 92.5099C94.8429 92.4674 94.8166 92.4441 94.8188 92.4406C94.8211 92.4374 94.8519 92.454 94.9103 92.4898C94.9795 92.5345 95.0635 92.5886 95.1657 92.6544C95.404 92.8146 95.7277 93.032 96.1361 93.3067C96.953 93.9089 98.1363 94.7848 99.4915 95.9959C102.225 98.3872 105.712 102.036 109.001 106.508C110.647 108.74 112.092 110.955 113.264 113.06C114.38 115.199 115.132 117.238 115.697 118.966C116.262 120.695 116.602 122.131 116.808 123.126C116.911 123.624 116.978 124.013 117.017 124.278C117.035 124.399 117.049 124.498 117.061 124.579C117.069 124.647 117.071 124.683 117.067 124.683Z" fill="#263238"/>
<path d="M61.6525 104.254C61.6525 104.254 59.4683 106.776 60.2665 112.464C61.0646 118.151 70.3028 143.912 70.3028 143.912L90.5523 137.069L79.8232 115.687L72.3879 106.346L61.6525 104.254Z" fill="#C6C9FF"/>
<path d="M116.27 119.225C116.262 119.227 116.237 119.157 116.198 119.024C116.154 118.864 116.1 118.671 116.036 118.438C115.89 117.892 115.695 117.163 115.458 116.279C114.965 114.459 114.243 111.954 113.342 109.222C112.437 106.489 111.524 104.048 110.835 102.293C110.498 101.442 110.221 100.741 110.013 100.216C109.926 99.9906 109.853 99.8036 109.793 99.6488C109.746 99.5182 109.724 99.4479 109.731 99.4448C109.739 99.4417 109.775 99.5056 109.836 99.63C109.907 99.7803 109.993 99.962 110.096 100.18C110.318 100.659 110.623 101.36 110.988 102.231C111.716 103.974 112.656 106.411 113.562 109.149C114.466 111.887 115.163 114.404 115.617 116.238C115.844 117.155 116.016 117.9 116.123 118.417C116.17 118.654 116.21 118.851 116.243 119.014C116.268 119.15 116.278 119.223 116.27 119.225Z" fill="#263238"/>
<path d="M70.3028 143.913C70.3019 143.91 70.3336 143.896 70.397 143.871C70.4698 143.844 70.5631 143.81 70.6805 143.766C70.9434 143.673 71.3125 143.542 71.7861 143.374C72.7673 143.035 74.1787 142.547 75.9544 141.933C79.5411 140.71 84.595 138.986 90.5175 136.967L90.4555 137.118C88.7244 133.7 86.8242 129.948 84.8356 126.021C83.7817 123.935 82.7532 121.898 81.7596 119.931C81.2837 118.935 80.7191 118.017 80.2044 117.088C79.6826 116.166 79.1661 115.266 78.6532 114.395C77.6261 112.653 76.599 111.027 75.5201 109.592C74.9751 108.88 74.4153 108.219 73.8292 107.631C73.2458 107.04 72.6008 106.572 71.9544 106.171C70.6617 105.369 69.3556 104.882 68.1834 104.596C67.0094 104.304 65.9636 104.215 65.1128 104.207C64.2598 104.192 63.6014 104.284 63.155 104.331C62.9421 104.365 62.7747 104.392 62.6501 104.411C62.5359 104.428 62.4769 104.435 62.476 104.431C62.4751 104.427 62.5327 104.413 62.6452 104.388C62.7697 104.362 62.9358 104.328 63.1478 104.285C63.5933 104.222 64.254 104.116 65.1128 104.117C65.9694 104.111 67.0251 104.187 68.2133 104.47C69.3994 104.747 70.7247 105.228 72.0397 106.031C72.6945 106.431 73.3583 106.907 73.9538 107.504C74.5515 108.095 75.1201 108.761 75.6723 109.476C76.7655 110.915 77.802 112.543 78.8367 114.286C79.3531 115.158 79.8727 116.057 80.3968 116.979C80.9119 117.903 81.4837 118.83 81.9596 119.824C82.955 121.791 83.9852 123.827 85.0409 125.913C87.0255 129.844 88.9213 133.6 90.6483 137.021L90.705 137.133L90.5867 137.173C84.653 139.16 79.5897 140.856 75.9968 142.059C74.2127 142.648 72.7945 143.116 71.8089 143.442C71.3304 143.596 70.9577 143.716 70.6921 143.801C70.5724 143.838 70.4774 143.866 70.4028 143.889C70.3377 143.908 70.3037 143.916 70.3028 143.913Z" fill="#263238"/>
<path d="M89.4913 99.8005C89.4618 99.8577 85.8154 98.0324 81.3476 95.7248C76.878 93.4159 73.2802 91.4988 73.3092 91.4416C73.3387 91.3843 76.9842 93.2092 81.4538 95.5177C85.9221 97.8253 89.5208 99.7432 89.4913 99.8005Z" fill="#263238"/>
<path d="M93.8895 89.3044C93.9533 89.2995 94.1506 91.2304 94.3296 93.6167C94.5086 96.0035 94.6019 97.942 94.5381 97.947C94.4742 97.9519 94.2769 96.0214 94.0979 93.6342C93.9185 91.2478 93.8252 89.3093 93.8895 89.3044Z" fill="#263238"/>
<path d="M99.2875 97.3403C99.2889 97.3443 99.2407 97.3627 99.1451 97.3949C99.038 97.4298 98.8983 97.475 98.7215 97.5327C98.3479 97.6486 97.7998 97.8302 97.0967 98.0704C95.6911 98.5523 93.673 99.2994 91.2188 100.319C88.7646 101.339 85.8707 102.625 82.7028 104.147C81.9154 104.547 81.04 104.822 80.2914 105.318C79.9268 105.569 79.5978 105.897 79.4648 106.318C79.3174 106.735 79.3697 107.209 79.5415 107.63C79.9031 108.49 80.6561 109.143 81.3181 109.875C81.6547 110.238 81.9939 110.605 82.3354 110.974C82.6608 111.357 82.988 111.743 83.3174 112.131C84.611 113.702 85.8073 115.293 86.8733 116.889C87.9571 118.472 88.9262 120.05 89.8216 121.568C91.6 124.613 93.0476 127.44 94.2127 129.836C95.3746 132.234 96.2597 134.201 96.8566 135.566C97.1463 136.239 97.3735 136.768 97.5342 137.142C97.6051 137.314 97.6614 137.45 97.7042 137.554C97.7413 137.648 97.7587 137.697 97.7547 137.698C97.7511 137.7 97.7265 137.654 97.6824 137.564C97.6341 137.462 97.5708 137.329 97.4913 137.161C97.3212 136.791 97.0806 136.269 96.774 135.603C96.1522 134.249 95.2442 132.295 94.0649 129.908C92.8824 127.524 91.4214 124.709 89.6368 121.677C88.7383 120.165 87.7678 118.594 86.6845 117.017C85.6194 115.428 84.4263 113.845 83.1385 112.28C82.8108 111.894 82.4849 111.51 82.1613 111.128C81.8221 110.761 81.4846 110.396 81.1498 110.034C80.4977 109.308 79.7241 108.648 79.3304 107.717C79.1429 107.257 79.0818 106.724 79.2509 106.247C79.4067 105.761 79.7803 105.399 80.1665 105.134C80.9624 104.613 81.8315 104.348 82.6104 103.953C85.7873 102.44 88.6909 101.169 91.1563 100.167C93.6221 99.1652 95.6518 98.4404 97.0681 97.9845C97.7765 97.7573 98.3296 97.5895 98.7081 97.4879C98.8876 97.4396 99.03 97.4016 99.1384 97.3725C99.2362 97.3475 99.2862 97.3367 99.2875 97.3403Z" fill="#263238"/>
<path d="M89.5895 113.336C90.4437 113.336 91.1362 112.642 91.1362 111.786C91.1362 110.93 90.4437 110.236 89.5895 110.236C88.7353 110.236 88.0428 110.93 88.0428 111.786C88.0428 112.642 88.7353 113.336 89.5895 113.336Z" fill="black"/>
<path d="M104.098 107.322C104.952 107.322 105.645 106.628 105.645 105.772C105.645 104.916 104.952 104.222 104.098 104.222C103.244 104.222 102.551 104.916 102.551 105.772C102.551 106.628 103.244 107.322 104.098 107.322Z" fill="black"/>
<path d="M99.2875 126.839C99.2875 127.696 98.5952 128.39 97.7408 128.39C96.8865 128.39 96.1941 127.695 96.1941 126.839C96.1941 125.983 96.8869 125.289 97.7408 125.289C98.5947 125.289 99.2875 125.983 99.2875 126.839Z" fill="black"/>
<path d="M112.094 123.447C112.948 123.447 113.64 122.753 113.64 121.897C113.64 121.041 112.948 120.347 112.094 120.347C111.239 120.347 110.547 121.041 110.547 121.897C110.547 122.753 111.239 123.447 112.094 123.447Z" fill="black"/>
<path d="M122.936 146.05C122.963 145.989 123.424 146.143 123.997 146.298C124.569 146.455 125.044 146.556 125.037 146.622C125.032 146.684 124.529 146.685 123.936 146.523C123.342 146.362 122.909 146.106 122.936 146.05Z" fill="#FF9A6C"/>
<path d="M73.5011 142.832C73.5766 143.235 80.0946 152.498 85.3092 152.498C90.5233 152.498 116.218 144.779 116.218 144.779L113.245 136.798L87.5326 140.67L86.2649 138.519L73.5011 142.832Z" fill="#FFBF9D"/>
<path d="M113.245 136.798C113.378 136.687 118.149 134.618 120.785 134.041C123.421 133.463 125.14 133.704 126.877 134.626C128.615 135.547 132.417 136.585 133.244 137.433C133.871 138.075 133.297 139.195 132.128 139.081C130.959 138.967 126.464 137.96 126.369 137.971C126.35 137.973 126.326 138.02 126.3 138.094C126.098 138.672 126.272 139.316 126.718 139.734L129.763 142.594C129.763 142.594 129.806 143.874 128.965 144.111C128.123 144.348 127.44 144.712 127.44 144.712C127.44 144.712 127.097 146.44 125.764 146.586C124.431 146.732 120.386 145.435 120.191 145.408C119.995 145.381 116.219 144.779 116.219 144.779L113.245 136.798Z" fill="#FFBF9D"/>
<path d="M124.439 144.037C124.468 143.976 125.114 144.231 125.936 144.444C126.758 144.663 127.446 144.76 127.44 144.827C127.438 144.888 126.723 144.894 125.877 144.669C125.031 144.449 124.411 144.092 124.439 144.037Z" fill="#FF9A6C"/>
<path d="M118.733 144.956C120.177 145.63 121.62 146.304 123.063 146.977C123.373 147.122 123.709 147.27 124.044 147.202C124.545 147.101 124.824 146.575 125.034 146.108" fill="#FFBF9D"/>
<path d="M76.5044 49.1365C80.9851 45.6912 85.5136 45.0859 91.2425 45.1736C94.4747 45.2233 94.976 43.3666 97.2828 44.0655C99.5893 44.7643 101.649 46.0738 102.975 48.0794C104.55 50.4613 105.852 53.1142 106.074 55.9569C106.302 58.877 106.53 61.8167 106.217 64.7287C106.214 64.7578 106.21 64.7869 106.207 64.816C105.697 69.3972 102.102 73.0255 97.5475 73.6652L95.7134 73.9229C91.5893 73.9319 87.4081 73.9332 83.4241 72.8698C79.4402 71.8064 77.5605 82.5055 76.0558 78.6817C70.9657 65.7461 71.9701 52.6226 76.5044 49.1365Z" fill="#263238"/>
<path d="M93.0351 46.4133L90.0564 45.97L78.4684 50.1651C76.8128 50.1964 75.4563 51.492 75.346 53.1482L76.2428 85.4104L90.5153 94.4305V99.362L94.1707 98.1407L92.4936 93.9384C92.5057 90.8984 92.478 87.042 92.478 87.042C92.478 87.042 100.158 86.5369 102.376 77.6076C103.479 73.1668 103.893 65.764 104.036 59.6961C104.165 54.234 99.7607 46.6509 93.0351 46.4133Z" fill="#FFBF9D"/>
<path d="M99.729 67.1236C99.6973 67.7392 99.1518 68.2192 98.5099 68.1982C97.8698 68.1772 97.3748 67.6627 97.4065 67.0475C97.4377 66.4324 97.9837 65.9514 98.6238 65.9725C99.2657 65.993 99.7602 66.5084 99.729 67.1236Z" fill="#263238"/>
<path d="M101.889 62.6632C101.733 62.8019 100.911 62.0749 99.6643 61.9693C98.4202 61.8463 97.4493 62.41 97.3275 62.2449C97.2668 62.1715 97.4373 61.9111 97.8605 61.6548C98.2778 61.3993 98.971 61.1761 99.7473 61.2468C100.524 61.3188 101.152 61.6619 101.502 61.9881C101.86 62.3165 101.966 62.6019 101.889 62.6632Z" fill="#263238"/>
<path d="M93.5529 72.2251C93.5529 72.1535 94.3399 72.0869 95.6094 72.035C95.9303 72.0296 96.2374 71.9925 96.3102 71.7795C96.4048 71.5554 96.3017 71.2001 96.1794 70.8154C95.9468 70.0173 95.7036 69.1807 95.4482 68.3038C94.4408 64.731 93.7399 61.8038 93.8837 61.7648C94.0278 61.7255 94.9617 64.5896 95.9696 68.1624C96.2102 69.0429 96.441 69.8822 96.6597 70.6848C96.749 71.0579 96.9204 71.4874 96.7164 71.9518C96.6097 72.1826 96.3615 72.3352 96.1522 72.3727C95.9428 72.4175 95.7638 72.4049 95.6053 72.4009C94.3358 72.3593 93.5511 72.2967 93.5529 72.2251Z" fill="#263238"/>
<path d="M92.4928 87.0321C92.4928 87.0321 86.3814 86.8966 80.674 82.7453C80.674 82.7453 83.3536 89.3017 92.4691 89.2404L92.4928 87.0321Z" fill="#FF9A6C"/>
<path d="M101.603 58.2659C101.367 58.5526 100.43 58.2658 99.3063 58.2618C98.1832 58.2216 97.2333 58.4716 97.0119 58.1755C96.9141 58.0319 97.0619 57.7451 97.4752 57.4717C97.8828 57.1993 98.5657 56.9738 99.338 56.9886C100.11 57.0047 100.781 57.2561 101.174 57.5447C101.574 57.8341 101.707 58.1263 101.603 58.2659Z" fill="#263238"/>
<path d="M85.8538 66.2279C85.802 66.8417 86.2774 67.3916 86.9162 67.4573C87.5531 67.5236 88.1133 67.0806 88.1651 66.4668C88.2169 65.853 87.7411 65.3023 87.1041 65.2365C86.4653 65.1708 85.9055 65.6146 85.8538 66.2279Z" fill="#263238"/>
<path d="M85.003 61.6418C85.1396 61.8006 86.0515 61.1917 87.3014 61.2562C88.5508 61.3031 89.4364 61.993 89.5797 61.8458C89.6498 61.7814 89.5159 61.5 89.1311 61.1886C88.7521 60.879 88.095 60.5636 87.3165 60.5287C86.5376 60.4947 85.8685 60.7497 85.4779 61.0249C85.0789 61.3018 84.9351 61.5698 85.003 61.6418Z" fill="#263238"/>
<path d="M85.8805 57.6547C86.1127 57.9513 87.0916 57.7039 88.2517 57.7469C89.4132 57.7536 90.3841 58.0435 90.6242 57.7572C90.7305 57.6176 90.5898 57.325 90.1738 57.0342C89.764 56.7452 89.0681 56.4911 88.27 56.4732C87.4723 56.4566 86.7688 56.6803 86.3515 56.9519C85.9279 57.2239 85.7792 57.5107 85.8805 57.6547Z" fill="#263238"/>
<path d="M76.4178 68.4398C76.4745 67.7656 75.8348 66.108 75.1791 65.9461C73.4288 65.5148 70.2185 65.3792 69.7975 69.8929C69.2226 76.0628 76.3937 75.2597 76.4209 75.0839C76.4428 74.9465 76.2218 70.7684 76.4178 68.4398Z" fill="#FFBF9D"/>
<path d="M74.0613 72.7799C74.0363 72.7575 73.9471 72.8452 73.7582 72.9114C73.5739 72.9758 73.2645 73.0035 72.9548 72.8528C72.3267 72.5526 71.8759 71.4668 71.95 70.3519C71.9866 69.7887 72.1535 69.2652 72.3932 68.8406C72.6236 68.4071 72.9441 68.119 73.2771 68.0917C73.6096 68.0465 73.823 68.2649 73.8828 68.4452C73.9493 68.6255 73.8984 68.7454 73.9301 68.7588C73.9457 68.7762 74.0721 68.668 74.0462 68.4089C74.0319 68.2837 73.9734 68.1315 73.8399 67.9991C73.7038 67.8649 73.4922 67.7835 73.2614 67.7866C72.7834 67.7754 72.3156 68.1727 72.0522 68.6384C71.7625 69.1037 71.5616 69.6911 71.5201 70.3233C71.4438 71.5701 71.9701 72.7928 72.8365 73.1342C73.2588 73.2876 73.6324 73.191 73.8323 73.0626C74.0363 72.9284 74.0814 72.7933 74.0613 72.7799Z" fill="#FF9A6C"/>
<path d="M74.9269 66.1291L76.4423 67.8081C83.4152 61.5308 97.1556 45.6962 96.387 46.641C96.387 46.641 91.8111 44.5826 86.7519 45.2819C81.6926 45.9812 72.0683 48.202 72.0263 54.1548C71.9848 60.1077 74.9269 66.1291 74.9269 66.1291Z" fill="#263238"/>
<path d="M104.398 51.7681C103.875 50.625 104.448 49.2421 105.421 48.3993C106.395 47.5564 107.687 47.1376 108.946 46.7636C110.205 46.3896 111.504 46.0219 112.542 45.2506C114.601 43.721 115.146 40.9521 114.86 38.4955C114.312 33.8007 111.252 29.5595 107.191 26.8108C103.13 24.0621 98.1519 22.7016 93.1717 22.2877C82.8135 21.4265 73.4824 25.0177 65.544 31.3795C64.241 32.4237 63.4215 34.0284 63.3496 35.6394C63.2925 36.9176 64.0419 38.0915 64.8177 39.1384C67.2067 42.3627 70.0073 44.5938 73.2967 47.0083L72.374 52.2799L104.398 51.7681Z" fill="#C6C9FF"/>
<path d="M111.927 36.2219C111.937 36.2313 111.829 36.3776 111.602 36.6134C111.375 36.8496 111.024 37.169 110.557 37.5225C110.091 37.8755 109.508 38.2575 108.85 38.6575C108.194 39.0592 107.464 39.4838 106.737 39.9808C106.011 40.4788 105.361 41.0143 104.86 41.5829C104.357 42.1498 103.999 42.7408 103.775 43.2673C103.323 44.3325 103.41 45.0824 103.359 45.0761C103.349 45.077 103.314 44.8967 103.326 44.567C103.338 44.2381 103.412 43.7594 103.622 43.2056C103.834 42.6535 104.189 42.0339 104.699 41.4416C105.207 40.847 105.869 40.294 106.605 39.7889C107.343 39.2847 108.08 38.8642 108.74 38.4736C109.402 38.0844 109.987 37.7211 110.46 37.3892C111.411 36.7279 111.899 36.1942 111.927 36.2219Z" fill="#263238"/>
<path d="M106.888 30.9567C106.914 30.9983 106.158 31.4394 105.102 32.3601C104.839 32.5919 104.553 32.8473 104.272 33.1475C103.975 33.4325 103.694 33.7716 103.39 34.1197C102.808 34.8373 102.221 35.6703 101.702 36.604C101.195 37.544 100.809 38.4875 100.518 39.3657C100.388 39.8099 100.253 40.2291 100.173 40.6331C100.071 41.0326 100.01 41.4116 99.9562 41.7579C99.7486 43.1452 99.7839 44.0216 99.7344 44.0212C99.7183 44.0216 99.7058 43.8037 99.6964 43.4083C99.6888 43.2101 99.687 42.968 99.7103 42.6875C99.7299 42.407 99.7361 42.0853 99.7933 41.7355C99.8375 41.3834 99.8901 40.9986 99.9848 40.592C100.058 40.1804 100.187 39.7536 100.313 39.3013C100.597 38.407 100.983 37.446 101.498 36.4917C102.024 35.5442 102.626 34.7013 103.226 33.9814C103.539 33.632 103.829 33.2934 104.136 33.0106C104.427 32.7122 104.723 32.4608 104.995 32.2344C105.259 31.9982 105.526 31.8201 105.752 31.6528C105.975 31.4828 106.18 31.354 106.351 31.2542C106.689 31.0493 106.879 30.9428 106.888 30.9567Z" fill="#263238"/>
<path d="M95.2728 28.5587C95.2889 28.5609 95.2777 28.7645 95.2438 29.1296C95.2081 29.4946 95.1617 30.023 95.1126 30.6757C95.0135 31.9812 94.9371 33.79 95.0045 35.7857C95.0751 37.782 95.2764 39.5813 95.4652 40.877C95.5589 41.5248 95.642 42.0487 95.7027 42.4101C95.7616 42.7721 95.7866 42.9738 95.771 42.9774C95.7553 42.9806 95.7 42.785 95.6138 42.428C95.5255 42.071 95.4179 41.5503 95.3027 40.9029C95.0715 39.6091 94.8429 37.8016 94.772 35.7938C94.7041 33.7864 94.8072 31.9678 94.9487 30.661C95.0188 30.0073 95.0902 29.4799 95.1536 29.1179C95.2157 28.7556 95.2572 28.5565 95.2728 28.5587Z" fill="#263238"/>
<path d="M87.6951 26.2609C87.7112 26.2618 87.7161 26.5177 87.7116 26.979C87.7045 27.4403 87.7031 28.1077 87.7143 28.9318C87.7344 30.5795 87.8451 32.8558 88.1674 35.3491C88.4932 37.8424 88.9682 40.0717 89.3703 41.6693C89.5703 42.4683 89.7422 43.1134 89.8672 43.5572C89.9895 44.0019 90.0502 44.2507 90.0345 44.2556C90.0194 44.2605 89.9296 44.0212 89.7806 43.5836C89.6288 43.147 89.4324 42.5077 89.2114 41.7109C88.7677 40.1186 88.2647 37.884 87.937 35.3786C87.6134 32.8737 87.5281 30.5849 87.55 28.9318C87.5603 28.1051 87.5862 27.4362 87.6214 26.9754C87.6536 26.5146 87.679 26.2605 87.6951 26.2609Z" fill="#263238"/>
<path d="M73.3846 31.5164C73.3967 31.5056 73.5659 31.6779 73.8614 31.9982C74.1582 32.3176 74.5738 32.7919 75.0751 33.3891C76.0785 34.5823 77.4043 36.2841 78.7421 38.2535C80.0781 40.2251 81.1695 42.0871 81.9073 43.461C82.2769 44.1478 82.5644 44.7097 82.7514 45.1038C82.9403 45.4971 83.0376 45.7176 83.0233 45.7253C83.009 45.7324 82.8845 45.5257 82.6715 45.1459C82.4363 44.7298 82.1314 44.1903 81.764 43.5411C80.9909 42.1909 79.8817 40.349 78.5501 38.3841C77.2172 36.421 75.9165 34.7098 74.9478 33.4929C74.4805 32.9122 74.0921 32.429 73.7926 32.0568C73.5185 31.7195 73.3726 31.5271 73.3846 31.5164Z" fill="#263238"/>
<path d="M72.6227 62.1737C70.9202 56.339 71.8147 52.2794 72.932 48.1165C72.932 48.1165 86.7113 39.8757 98.0685 42.4799C98.0685 42.4799 105.162 43.908 106.077 47.5967L106.276 60.1619C106.276 60.1619 105.502 55.1896 95.1733 54.7959C84.8441 54.4022 72.6227 62.1737 72.6227 62.1737Z" fill="#C6C9FF"/>
<path d="M88.2464 75.227C88.3307 74.8159 88.5874 74.4651 88.899 74.2343C89.5226 73.7721 90.3854 73.7851 90.9831 74.2652C91.5813 74.7452 91.8781 75.6628 91.7004 76.4828C91.3125 76.9436 90.7488 77.2327 90.1475 77.2416C90.0537 77.243 89.9604 77.2398 89.8667 77.2304C89.4141 77.1861 88.9637 76.9996 88.6414 76.6394C88.3191 76.2797 88.1423 75.7344 88.2464 75.227Z" fill="#FF9A6C"/>
<path d="M89.1614 73.2089C89.34 73.2214 89.1922 74.407 90.0993 75.3778C91.0036 76.3513 92.2825 76.3791 92.2709 76.5455C92.2781 76.622 91.9607 76.7401 91.4264 76.6869C90.9014 76.6381 90.1595 76.3728 89.6051 75.7791C89.0521 75.1845 88.8735 74.462 88.8945 73.9703C88.9124 73.4688 89.0815 73.1919 89.1614 73.2089Z" fill="#263238"/>
<path d="M105.782 47.645C105.775 47.6481 105.711 47.5389 105.598 47.3291C105.538 47.2262 105.48 47.0898 105.384 46.9448C105.286 46.7972 105.175 46.6303 105.052 46.4451C104.526 45.7176 103.578 44.7732 102.148 44.0261C100.729 43.2651 98.8644 42.7014 96.7517 42.4155C94.639 42.1247 92.2736 42.0858 89.8323 42.416C88.6111 42.5757 87.4317 42.8235 86.3073 43.1157C85.1829 43.4065 84.1183 43.7684 83.1023 44.1066C81.0735 44.7911 79.2719 45.4814 77.7703 46.0885C76.2678 46.6947 75.0648 47.2168 74.2323 47.5747C73.8315 47.7465 73.5118 47.8839 73.273 47.9863C73.053 48.0789 72.9356 48.1237 72.9324 48.1165C72.9293 48.1094 73.0396 48.0499 73.2538 47.9438C73.4886 47.8315 73.802 47.6808 74.1957 47.4924C75.0175 47.1086 76.2115 46.5632 77.7087 45.9364C79.205 45.3087 81.0043 44.601 83.034 43.9035C84.0495 43.5595 85.1164 43.1917 86.2497 42.8951C87.3817 42.598 88.5704 42.3462 89.802 42.1851C92.2642 41.8518 94.6523 41.8979 96.782 42.203C98.9126 42.5032 100.795 43.0897 102.227 43.8807C103.669 44.6582 104.617 45.6394 105.127 46.3923C105.244 46.5842 105.35 46.7565 105.444 46.9095C105.535 47.0598 105.587 47.2007 105.64 47.3076C105.74 47.5264 105.789 47.6418 105.782 47.645Z" fill="#263238"/>
</svg>
