<svg width="13" height="17" viewBox="0 0 13 17" fill="none" xmlns="http://www.w3.org/2000/svg">
<path d="M13 11.1616C13 14.3861 10.0899 17 6.5 17C2.91014 17 0 14.3861 0 11.1616C0 6.05302 6.5 0 6.5 0C6.5 0 13 6.05302 13 11.1616Z" fill="#EF5252"/>
<path fill-rule="evenodd" clip-rule="evenodd" d="M6.5 16.15C9.59367 16.15 12.0714 13.9015 12.0714 11.1616C12.0714 8.88496 10.5961 6.28027 8.98616 4.14843C8.19706 3.10348 7.40619 2.21143 6.81223 1.58049C6.70057 1.46192 6.59606 1.35273 6.5 1.25367C6.40394 1.35273 6.29943 1.46192 6.18777 1.58049C5.59381 2.21143 4.80294 3.10348 4.01384 4.14843C2.40393 6.28027 0.928571 8.88496 0.928571 11.1616C0.928571 13.9015 3.40633 16.15 6.5 16.15ZM5.86843 0.624758C4.2354 2.29876 0 7.03787 0 11.1616C0 14.3861 2.91014 17 6.5 17C10.0899 17 13 14.3861 13 11.1616C13 7.03787 8.7646 2.29876 7.13157 0.624758C6.74157 0.224965 6.5 0 6.5 0C6.5 0 6.25843 0.224965 5.86843 0.624758Z" fill="#EF5252"/>
</svg>
