<svg width="45" height="45" viewBox="0 0 45 45" fill="none" xmlns="http://www.w3.org/2000/svg">
<path fill-rule="evenodd" clip-rule="evenodd" d="M35 2H10C5.58172 2 2 5.58172 2 10V35C2 39.4183 5.58172 43 10 43H35C39.4183 43 43 39.4183 43 35V10C43 5.58172 39.4183 2 35 2ZM10 0C4.47715 0 0 4.47715 0 10V35C0 40.5228 4.47715 45 10 45H35C40.5228 45 45 40.5228 45 35V10C45 4.47715 40.5228 0 35 0H10ZM22.371 7.82343C22.9233 7.82343 23.371 8.27114 23.371 8.82343V21.4999H36.0264C36.5787 21.4999 37.0264 21.9476 37.0264 22.4999C37.0264 23.0522 36.5787 23.4999 36.0264 23.4999H23.371V36.1764C23.371 36.7287 22.9233 37.1764 22.371 37.1764C21.8187 37.1764 21.371 36.7287 21.371 36.1764V23.4999H8.71564C8.16335 23.4999 7.71564 23.0522 7.71564 22.4999C7.71564 21.9476 8.16335 21.4999 8.71564 21.4999H21.371V8.82343C21.371 8.27114 21.8187 7.82343 22.371 7.82343Z" fill="#B0B0C1"/>
</svg>
