<svg width="26" height="18" viewBox="0 0 26 18" fill="none" xmlns="http://www.w3.org/2000/svg">
<path d="M1 3.6875L10.7979 9.76016C11.5913 10.2519 11.988 10.4978 12.4195 10.593C12.8007 10.6771 13.1993 10.6771 13.5805 10.593C14.012 10.4978 14.4087 10.2519 15.2021 9.76016L25 3.6875M6.76 17.5H19.24C21.2562 17.5 22.2643 17.5 23.0344 17.1526C23.7118 16.847 24.2625 16.3594 24.6076 15.7596C25 15.0778 25 14.1852 25 12.4V5.6C25 3.81483 25 2.92225 24.6076 2.24041C24.2625 1.64064 23.7118 1.15301 23.0344 0.847417C22.2643 0.5 21.2562 0.5 19.24 0.5H6.76C4.74381 0.5 3.73572 0.5 2.96563 0.847417C2.28825 1.15301 1.73752 1.64064 1.39238 2.24041C1 2.92225 1 3.81483 1 5.6V12.4C1 14.1852 1 15.0778 1.39238 15.7596C1.73752 16.3594 2.28825 16.847 2.96563 17.1526C3.73572 17.5 4.74381 17.5 6.76 17.5Z" stroke="#845EF1" stroke-linecap="round" stroke-linejoin="round"/>
</svg>
