<svg width="21" height="24" viewBox="0 0 21 24" fill="none" xmlns="http://www.w3.org/2000/svg">
<path d="M7.62378 21.9C8.39032 22.5846 9.39722 23 10.5 23C11.6028 23 12.6097 22.5846 13.3762 21.9M17.0225 7.6C17.0225 5.84957 16.3353 4.17084 15.1121 2.9331C13.8889 1.69536 12.2299 1 10.5 1C8.77014 1 7.11112 1.69536 5.88792 2.9331C4.66472 4.17084 3.97754 5.84957 3.97754 7.6C3.97754 10.9992 3.13013 13.3266 2.1835 14.866C1.385 16.1645 0.985749 16.8137 1.00039 16.9948C1.0166 17.1954 1.05859 17.2719 1.21829 17.3917C1.36253 17.5 2.01275 17.5 3.31318 17.5H17.6868C18.9873 17.5 19.6375 17.5 19.7817 17.3917C19.9414 17.2719 19.9834 17.1954 19.9996 16.9948C20.0142 16.8137 19.615 16.1645 18.8165 14.866C17.8699 13.3266 17.0225 10.9992 17.0225 7.6Z" stroke="#B0B0C1" stroke-width="2" stroke-linecap="round" stroke-linejoin="round"/>
</svg>
