<svg width="50" height="50" viewBox="0 0 50 50" fill="none" xmlns="http://www.w3.org/2000/svg">
<path d="M49.0284 22.7562C51.401 27.6355 49.1284 30.1786 45.4466 31.1441C43.9285 36.6958 42.8286 42.3251 40.6013 47.6785C40.3559 48.2561 39.7377 48.4199 39.2468 48.2647C39.1468 48.325 39.0377 48.3768 38.8923 48.4113C30.4106 50.3423 17.9745 51.213 10.1747 46.8682C10.0656 46.7992 9.99292 46.713 9.96565 46.6182C9.86565 46.5578 9.78382 46.4803 9.72928 46.3596C8.56567 43.7648 7.77478 41.1699 6.89298 38.4803C6.36572 36.8682 5.89299 35.1872 5.05664 33.6786C4.68393 33.0062 4.1112 31.6096 3.45667 30.8941C2.71123 30.8424 1.95673 30.782 1.2113 30.7131C0.847667 30.67 0.520406 30.4976 0.420408 30.1441C-0.443208 27.0579 -0.252297 23.0924 3.6658 22.2907C3.86579 22.2562 4.01121 22.3338 4.08393 22.4545C6.68387 21.9545 9.39293 21.739 12.1201 21.6269C10.0202 20.1269 8.12023 18.1011 7.69297 15.5752C7.50207 14.4028 7.61113 13.1097 8.12021 11.989C5.15664 12.7821 2.68396 11.5839 1.184 8.8511C0.97491 8.46317 1.23857 7.98902 1.72037 7.97178C2.79308 7.95454 3.89305 7.73905 4.95666 7.8425C4.06577 5.15286 3.20215 -0.20921 7.39296 0.00630642C11.6565 0.221823 12.5201 6.00626 12.0202 9.09245C14.9019 8.63556 17.7473 10.7821 19.62 13.2649C19.4109 11.0494 19.1836 8.82522 18.9291 6.61833C18.8836 6.29075 19.1745 6.0494 19.4563 5.95458C21.9745 5.04079 23.9835 5.06664 26.5107 5.94595C26.8198 6.0494 27.0471 6.28213 27.0471 6.61833C27.0471 7.18729 27.0471 7.76488 27.038 8.34246C27.2107 7.05799 27.5562 5.308 29.047 4.85111C30.9833 4.24766 32.4379 5.60971 34.3287 4.73041C37.8923 3.07524 40.6104 5.21321 41.2922 8.33389C42.5376 8.35113 43.6922 8.5063 44.3467 9.67871C44.6921 10.3166 44.6739 11.2907 44.6103 11.9631C44.5739 12.3252 46.7012 13.1183 47.0375 13.3597C49.7284 15.2217 48.6012 19.1183 46.283 20.8166C47.0466 21.0062 47.8102 21.2217 48.5375 21.5062C49.0102 21.6872 49.1465 22.2562 48.9102 22.5924C48.9556 22.6441 49.0011 22.6873 49.0284 22.7562ZM42.7467 29.8855C47.6102 29.7131 48.392 27.6441 47.5739 23.3338C47.5375 23.1528 47.583 22.9718 47.6739 22.8252C40.7558 22.5924 33.7196 22.6097 26.8198 22.0579C26.7834 22.0579 26.7562 22.0407 26.7198 22.0321C26.6653 24.0148 26.6107 26.0062 26.5925 27.989C26.5925 28.4803 26.0925 28.851 25.5835 28.7217C24.638 28.5838 23.6835 28.4545 22.729 28.3166C22.4381 28.3166 22.229 28.1958 22.0926 28.0234C22.0926 28.1786 22.0926 28.3252 22.0926 28.4803C22.0926 28.8855 21.3836 29.0062 21.3199 28.5752C21.0472 26.7045 20.8109 24.8338 20.5927 22.9545C15.0655 24.3338 8.92021 23.2217 3.2567 23.6441C3.22943 23.6441 3.20214 23.6355 3.17486 23.6355C1.7658 24.9976 1.11128 26.7562 1.70217 28.7476C1.98399 29.7045 5.56573 29.4631 6.25662 29.4889C9.52019 29.6096 12.7928 29.67 16.0655 29.6096C21.6563 29.5148 27.4653 28.6872 33.0379 29.1441C36.2469 29.4113 39.5104 29.9976 42.7467 29.8855ZM44.8012 20.2648C47.0557 17.7045 48.2466 14.4028 43.5194 13.6442C43.2103 13.5925 42.9194 13.2304 42.9467 12.9287C43.1467 11.1269 42.8286 9.7735 40.6559 9.75626C40.2377 9.75626 39.9195 9.43728 39.9104 9.04073C39.765 5.04937 36.1014 4.98042 33.2833 6.62696C33.1015 6.73903 32.8469 6.73041 32.6651 6.62696C30.3833 5.33386 28.3107 6.42009 27.6471 8.64422C27.5744 8.91146 27.147 8.92008 27.038 8.70457C27.0289 9.79077 27.0198 10.8684 26.9925 11.9459C27.4289 11.0322 28.1107 10.239 29.1198 9.77352C31.0379 8.87697 32.1742 10.5752 32.7287 12.1356C33.6015 11.1528 34.7833 10.1442 36.0378 10.5408C37.4377 10.989 38.0741 12.1356 38.5286 13.3683C40.4195 12.6011 42.4922 12.8856 43.4467 14.9287C44.3649 16.8942 43.2649 18.9545 41.6104 20.1873C42.6467 20.2304 43.6649 20.3424 44.6648 20.4976C44.6921 20.42 44.7376 20.3338 44.8012 20.2648ZM39.7649 19.601C41.0195 18.8252 42.6286 17.5321 42.1377 15.8855C41.5922 14.0666 39.9831 14.2045 38.4741 15.0063C38.0559 15.2304 37.4923 15.0321 37.3741 14.5752C37.1832 13.9028 36.4741 10.9546 34.856 11.989C34.0378 12.5063 33.5015 13.1097 32.9015 13.8338C32.6197 14.17 31.9379 13.989 31.8561 13.5752C31.547 11.9287 30.2834 9.38561 28.4834 11.5149C27.5471 12.6184 27.1653 13.9545 27.1289 15.3597C27.1198 15.489 27.0198 15.5838 26.9107 15.6183C26.8562 17.5235 26.7926 19.42 26.738 21.3166C26.7653 21.308 26.7925 21.2993 26.8198 21.2993C30.6924 20.92 35.1196 20.2131 39.4195 20.1528C39.4286 19.9545 39.5286 19.7562 39.7649 19.601ZM44.4467 31.3682C42.9194 31.6441 41.2195 31.6872 39.5377 31.5407C27.9198 30.5665 16.3382 31.6872 4.71119 30.9717C5.14755 31.2131 5.55667 31.4975 6.05666 32.101C6.92936 33.1527 7.50204 34.4889 8.00202 35.7303C9.32927 38.9975 9.8111 42.5492 11.2111 45.7647C11.2656 45.8941 11.2656 46.0147 11.2383 46.1268C20.2927 47.9458 29.1834 47.6354 38.3196 46.4458C38.5286 46.4113 38.7196 46.4458 38.8923 46.4975C40.5741 41.3941 42.2285 36.2906 44.4467 31.3682ZM25.3017 15.5925C25.438 12.4804 27.447 4.49768 21.129 6.80801C19.5654 7.37698 21.5745 16.1787 21.6745 17.5494C21.9017 20.6873 22.0563 23.8166 22.0836 26.9545C22.2199 26.7907 22.429 26.6786 22.729 26.6959C24.1289 26.7821 24.2562 26.7562 25.0198 26.9717C25.038 23.1786 25.1471 19.3855 25.3017 15.5925ZM20.4291 21.4114C20.2472 19.7304 20.0836 18.0493 19.92 16.3683C18.5927 14.2562 17.3019 11.9201 14.811 10.8597C13.3474 10.2304 11.5565 10.2304 10.3656 11.3769C7.02935 14.5666 10.4929 19.1959 13.3292 21.3597C13.411 21.42 13.4474 21.4976 13.4655 21.5752C15.8109 21.5062 18.1564 21.489 20.4291 21.4114ZM11.011 9.35975C10.9383 9.27354 10.8838 9.17004 10.8747 9.04073C10.8202 7.04074 10.9565 1.09251 7.39296 1.19596C3.9294 1.29941 5.66572 6.83387 6.35661 8.42007C6.51115 8.78214 6.04752 9.18731 5.67481 9.06662C4.72937 8.75628 3.74758 8.89422 2.77487 9.02353C4.14757 10.8425 6.093 11.6356 8.5384 11.2562C8.79294 10.8769 9.10199 10.5321 9.47471 10.239C9.9747 9.84247 10.4929 9.55802 11.011 9.35975Z" fill="#1D1D1B"/>
<path d="M47.5739 23.3338C48.392 27.6441 47.6102 29.7131 42.7467 29.8855C39.5104 29.9976 36.2469 29.4113 33.0379 29.1441C27.4653 28.6872 21.6563 29.5148 16.0655 29.6096C12.7928 29.67 9.52019 29.6096 6.25662 29.4889C5.56573 29.4631 1.98399 29.7045 1.70217 28.7476C1.11128 26.7562 1.7658 24.9976 3.17486 23.6355C3.20214 23.6355 3.22943 23.6441 3.2567 23.6441C8.92021 23.2217 15.0655 24.3338 20.5927 22.9545C20.8109 24.8338 21.0472 26.7045 21.3199 28.5752C21.3836 29.0062 22.0926 28.8855 22.0926 28.4803C22.0926 28.3252 22.0926 28.1786 22.0926 28.0234C22.229 28.1958 22.4381 28.3166 22.729 28.3166C23.6835 28.4545 24.638 28.5838 25.5835 28.7217C26.0925 28.851 26.5925 28.4803 26.5925 27.989C26.6107 26.0062 26.6653 24.0148 26.7198 22.0321C26.7562 22.0407 26.7834 22.0579 26.8198 22.0579C33.7196 22.6097 40.7558 22.5924 47.6739 22.8252C47.583 22.9718 47.5375 23.1528 47.5739 23.3338Z" fill="#FBBE3A"/>
<path d="M43.521 13.644C48.2482 14.4026 47.0573 17.7043 44.8029 20.2646C44.7392 20.3336 44.6937 20.4198 44.6665 20.4974C43.6665 20.3422 42.6483 20.2302 41.612 20.1871C43.2665 18.9543 44.3665 16.8939 43.4483 14.9284C42.4938 12.8853 40.4211 12.6009 38.5302 13.3681C38.0757 12.1354 37.4394 10.9888 36.0394 10.5406C34.7849 10.144 33.6031 11.1526 32.7304 12.1354C32.1758 10.575 31.0395 8.87676 29.1214 9.77331C28.1123 10.2388 27.4305 11.0319 26.9941 11.9457C27.0214 10.8681 27.0305 9.79056 27.0396 8.70436C27.1487 8.91987 27.576 8.91125 27.6487 8.644C28.3123 6.41988 30.385 5.33365 32.6667 6.62675C32.8485 6.7302 33.1031 6.73882 33.2849 6.62675C36.103 4.9802 39.7666 5.04916 39.9121 9.04052C39.9211 9.43707 40.2393 9.75605 40.6575 9.75605C42.8302 9.77329 43.1483 11.1267 42.9483 12.9284C42.921 13.2302 43.212 13.5922 43.521 13.644Z" fill="#99B815"/>
<path d="M42.1377 15.8855C42.6286 17.5321 41.0195 18.8252 39.7649 19.601C39.5286 19.7562 39.4286 19.9545 39.4195 20.1528C35.1196 20.2131 30.6924 20.92 26.8198 21.2993C26.7925 21.2993 26.7653 21.308 26.738 21.3166C26.7926 19.42 26.8562 17.5235 26.9107 15.6183C27.0198 15.5838 27.1198 15.489 27.1289 15.3597C27.1653 13.9545 27.5471 12.6184 28.4834 11.5149C30.2834 9.38561 31.547 11.9287 31.8561 13.5752C31.9379 13.989 32.6197 14.17 32.9015 13.8338C33.5015 13.1097 34.0378 12.5063 34.856 11.989C36.4741 10.9546 37.1832 13.9028 37.3741 14.5752C37.4923 15.0321 38.0559 15.2304 38.4741 15.0063C39.9831 14.2045 41.5922 14.0666 42.1377 15.8855Z" fill="#99B815"/>
<path d="M39.5377 31.5407C41.2195 31.6872 42.9194 31.6441 44.4467 31.3682C42.2285 36.2906 40.5741 41.3941 38.8923 46.4975C38.7196 46.4458 38.5286 46.4113 38.3196 46.4458C29.1834 47.6354 20.2927 47.9458 11.2383 46.1268C11.2656 46.0147 11.2656 45.8941 11.2111 45.7647C9.8111 42.5492 9.32927 38.9975 8.00202 35.7303C7.50204 34.4889 6.92936 33.1527 6.05666 32.101C5.55667 31.4975 5.14755 31.2131 4.71119 30.9717C16.3382 31.6872 27.9198 30.5665 39.5377 31.5407ZM38.9647 33.1872C39.3556 32.7217 38.7193 32.0752 38.2557 32.5148C37.4102 33.3079 36.5648 34.1441 35.7103 34.9889C34.7739 34.2389 33.7649 33.5493 32.7558 32.851C32.2194 32.4803 31.5103 33.3424 32.0376 33.7303C32.983 34.4286 33.9103 35.1355 34.8103 35.8768C33.674 36.9803 32.5194 38.0751 31.3103 39.101C31.1467 38.9717 30.9831 38.8424 30.8286 38.7044C29.8286 37.8682 28.8377 37.0234 27.8468 36.1786C28.0922 35.9976 28.3286 35.8079 28.5831 35.6355C29.0195 35.3251 28.6195 34.6355 28.1468 34.9286C27.8014 35.1355 27.4741 35.3596 27.1468 35.5838C26.1286 34.7217 25.1196 33.8596 24.0923 33.0148C23.6287 32.6268 22.9469 33.2561 23.4105 33.6613C24.365 34.4975 25.3196 35.3424 26.265 36.1872C24.965 37.1182 23.7287 38.1354 22.4924 39.1613C21.1742 38.0751 19.8379 37.0234 18.4834 35.9975C19.4015 35.3251 20.3469 34.6786 21.356 34.0924C21.7196 33.8768 21.4015 33.4027 21.0197 33.5579C19.8288 34.0493 18.747 34.6959 17.7379 35.4372C16.638 34.6269 15.5289 33.8424 14.4108 33.0838C14.338 32.9889 14.2471 32.9114 14.1289 32.8855C13.9744 32.782 13.829 32.67 13.6744 32.5752C13.3562 32.3596 12.9562 32.851 13.2653 33.0838C13.2926 33.101 13.3107 33.1269 13.3471 33.1441C12.438 33.6269 11.5744 34.1786 11.1017 35.0837C10.8654 35.532 11.5381 35.9114 11.8108 35.4803C12.3289 34.6183 13.2653 34.1958 14.1744 33.7993C15.1016 34.5234 16.0198 35.282 16.9107 36.0665C15.7016 37.032 14.5835 38.1182 13.4835 39.1872C13.029 38.8079 12.5653 38.4372 12.1199 38.0493C11.9108 37.8682 11.6199 38.1441 11.8108 38.3424C12.2108 38.7648 12.6199 39.1958 13.029 39.6355C12.938 39.7217 12.8471 39.8165 12.7471 39.9113C12.4472 40.213 12.9198 40.6613 13.2289 40.3682C13.3198 40.2906 13.4108 40.213 13.5017 40.1268C14.5653 41.2647 15.6743 42.4027 16.8652 43.4285C16.3925 43.7303 15.9107 44.0147 15.4107 44.282C15.138 44.4285 15.3289 44.8854 15.6289 44.7647C16.2652 44.5233 16.8743 44.2475 17.4652 43.9372C18.1016 44.4544 18.747 44.9286 19.4379 45.3423C19.847 45.5923 20.2833 45.032 19.947 44.713C19.4742 44.2561 18.9743 43.8165 18.4834 43.3768C19.7561 42.6268 20.9469 41.7389 22.1106 40.8165C23.0014 41.6268 23.8924 42.4199 24.8105 43.1872C24.2742 43.4027 23.7287 43.601 23.1651 43.7648C22.8014 43.8596 22.956 44.3509 23.3105 44.2906C24.0469 44.1613 24.7651 43.963 25.4741 43.7217C26.6468 44.6786 27.8468 45.5837 29.1195 46.394C29.6286 46.7216 30.1649 46.0148 29.7558 45.6182C28.8831 44.7734 27.9741 43.9371 27.0559 43.1009C28.5104 42.4458 29.9104 41.601 31.2376 40.6354C32.0103 41.3337 32.783 42.0406 33.5921 42.7044C33.4285 42.9113 33.2558 43.1096 33.1012 43.3251C32.7922 43.7906 33.5376 44.1699 33.8648 43.7475C34.0012 43.5837 34.1376 43.4199 34.283 43.2561C35.0921 43.8854 35.9284 44.4544 36.8102 44.9285C37.3284 45.1958 37.8193 44.5751 37.4284 44.1699C36.7738 43.4975 36.0557 42.8682 35.3103 42.2561C36.1012 41.5234 36.9193 40.8079 37.492 39.8855C37.7738 39.4458 37.0739 38.9027 36.7193 39.3251C36.0466 40.1354 35.2648 40.8682 34.5375 41.6268C33.783 41.032 33.0103 40.4458 32.2558 39.8596C33.5012 38.8768 34.6739 37.7992 35.7648 36.6958C36.4375 37.2906 37.1011 37.9027 37.7193 38.5579C38.1193 38.9889 38.892 38.4199 38.5557 37.9372C38.0011 37.1355 37.3466 36.4286 36.6375 35.782C37.4647 34.9027 38.2465 34.032 38.9647 33.1872Z" fill="#FBBE3A"/>
<path d="M38.2557 32.5148C38.7193 32.0752 39.3556 32.7217 38.9647 33.1872C38.2465 34.032 37.4647 34.9027 36.6375 35.782C37.3466 36.4286 38.0011 37.1355 38.5557 37.9372C38.892 38.4199 38.1193 38.9889 37.7193 38.5579C37.1011 37.9027 36.4375 37.2906 35.7648 36.6958C34.6739 37.7992 33.5012 38.8768 32.2558 39.8596C33.0103 40.4458 33.783 41.032 34.5375 41.6268C35.2648 40.8682 36.0466 40.1354 36.7193 39.3251C37.0739 38.9027 37.7738 39.4458 37.492 39.8855C36.9193 40.8079 36.1012 41.5234 35.3103 42.2561C36.0557 42.8682 36.7738 43.4975 37.4284 44.1699C37.8193 44.5751 37.3284 45.1958 36.8102 44.9285C35.9284 44.4544 35.0921 43.8854 34.283 43.2561C34.1376 43.4199 34.0012 43.5837 33.8648 43.7475C33.5376 44.1699 32.7922 43.7906 33.1012 43.3251C33.2558 43.1096 33.4285 42.9113 33.5921 42.7044C32.783 42.0406 32.0103 41.3337 31.2376 40.6354C29.9104 41.601 28.5104 42.4458 27.0559 43.1009C27.9741 43.9371 28.8831 44.7734 29.7558 45.6182C30.1649 46.0148 29.6286 46.7216 29.1195 46.394C27.8468 45.5837 26.6468 44.6786 25.4741 43.7217C24.7651 43.963 24.0469 44.1613 23.3105 44.2906C22.956 44.3509 22.8014 43.8596 23.1651 43.7648C23.7287 43.601 24.2742 43.4027 24.8105 43.1872C23.8924 42.4199 23.0014 41.6268 22.1106 40.8165C20.9469 41.7389 19.7561 42.6268 18.4834 43.3768C18.9743 43.8165 19.4742 44.2561 19.947 44.713C20.2833 45.032 19.847 45.5923 19.4379 45.3423C18.747 44.9286 18.1016 44.4544 17.4652 43.9372C16.8743 44.2475 16.2652 44.5233 15.6289 44.7647C15.3289 44.8854 15.138 44.4285 15.4107 44.282C15.9107 44.0147 16.3925 43.7303 16.8652 43.4285C15.6743 42.4027 14.5653 41.2647 13.5017 40.1268C13.4108 40.213 13.3198 40.2906 13.2289 40.3682C12.9198 40.6613 12.4472 40.213 12.7471 39.9113C12.8471 39.8165 12.938 39.7217 13.029 39.6355C12.6199 39.1958 12.2108 38.7648 11.8108 38.3424C11.6199 38.1441 11.9108 37.8682 12.1199 38.0493C12.5653 38.4372 13.029 38.8079 13.4835 39.1872C14.5835 38.1182 15.7016 37.032 16.9107 36.0665C16.0198 35.282 15.1016 34.5234 14.1744 33.7993C13.2653 34.1958 12.3289 34.6183 11.8108 35.4803C11.5381 35.9114 10.8654 35.532 11.1017 35.0837C11.5744 34.1786 12.438 33.6269 13.3471 33.1441C13.3107 33.1269 13.2926 33.101 13.2653 33.0838C12.9562 32.851 13.3562 32.3596 13.6744 32.5752C13.829 32.67 13.9744 32.782 14.1289 32.8855C14.2471 32.9114 14.338 32.9889 14.4108 33.0838C15.5289 33.8424 16.638 34.6269 17.7379 35.4372C18.747 34.6959 19.8288 34.0493 21.0197 33.5579C21.4015 33.4027 21.7196 33.8768 21.356 34.0924C20.3469 34.6786 19.4015 35.3251 18.4834 35.9975C19.8379 37.0234 21.1742 38.0751 22.4924 39.1613C23.7287 38.1354 24.965 37.1182 26.265 36.1872C25.3196 35.3424 24.365 34.4975 23.4105 33.6613C22.9469 33.2561 23.6287 32.6268 24.0923 33.0148C25.1196 33.8596 26.1286 34.7217 27.1468 35.5838C27.4741 35.3596 27.8014 35.1355 28.1468 34.9286C28.6195 34.6355 29.0195 35.3251 28.5831 35.6355C28.3286 35.8079 28.0922 35.9976 27.8468 36.1786C28.8377 37.0234 29.8286 37.8682 30.8286 38.7044C30.9831 38.8424 31.1467 38.9717 31.3103 39.101C32.5194 38.0751 33.674 36.9803 34.8103 35.8768C33.9103 35.1355 32.983 34.4286 32.0376 33.7303C31.5103 33.3424 32.2194 32.4803 32.7558 32.851C33.7649 33.5493 34.7739 34.2389 35.7103 34.9889C36.5648 34.1441 37.4102 33.3079 38.2557 32.5148ZM30.3745 39.8508C30.2472 39.7301 30.1199 39.618 29.9927 39.506C28.9927 38.6094 27.9927 37.7129 26.9836 36.8249C25.7473 37.7905 24.5383 38.8249 23.3201 39.8422C24.3565 40.7042 25.3746 41.5922 26.3746 42.4801C27.7927 41.7559 29.1109 40.8422 30.3745 39.8508ZM21.3383 40.1094C20.0838 38.9629 18.8384 37.7991 17.5748 36.6611C16.3566 37.6094 15.1839 38.6094 14.0294 39.6525C15.3021 40.6956 16.5839 41.7301 17.8293 42.799C19.0474 41.9628 20.202 41.0491 21.3383 40.1094Z" fill="#1D1D1B"/>
<path d="M29.9927 39.506C30.1199 39.618 30.2472 39.7301 30.3745 39.8508C29.1109 40.8422 27.7927 41.7559 26.3746 42.4801C25.3746 41.5922 24.3565 40.7042 23.3201 39.8422C24.5383 38.8249 25.7473 37.7905 26.9836 36.8249C27.9927 37.7129 28.9927 38.6094 29.9927 39.506Z" fill="#FBBE3A"/>
<path d="M21.129 6.80801C27.447 4.49768 25.438 12.4804 25.3017 15.5925C25.1471 19.3855 25.038 23.1786 25.0198 26.9717C24.2562 26.7562 24.1289 26.7821 22.729 26.6959C22.429 26.6786 22.2199 26.7907 22.0836 26.9545C22.0563 23.8166 21.9017 20.6873 21.6745 17.5494C21.5745 16.1787 19.5654 7.37698 21.129 6.80801Z" fill="#FBBE3A"/>
<path d="M19.92 16.3683C20.0836 18.0493 20.2472 19.7304 20.4291 21.4114C18.1564 21.489 15.8109 21.5062 13.4655 21.5752C13.4474 21.4976 13.411 21.42 13.3292 21.3597C10.4929 19.1959 7.02935 14.5666 10.3656 11.3769C11.5565 10.2304 13.3474 10.2304 14.811 10.8597C17.3019 11.9201 18.5927 14.2562 19.92 16.3683ZM17.3115 18.9722C17.5842 18.6877 17.1751 18.317 16.866 18.5497C16.1297 19.1273 15.2025 19.5325 14.357 19.9463C13.9752 20.1359 14.3116 20.6704 14.6934 20.4894C15.6115 20.0756 16.6115 19.6963 17.3115 18.9722ZM15.257 16.6791C15.6843 16.3774 15.3024 15.7049 14.8297 15.9808C13.3388 16.8601 12.0389 17.9463 12.048 19.7308C12.048 20.2653 12.8752 20.2566 12.9116 19.7308C13.0025 18.3687 14.1752 17.4377 15.257 16.6791ZM12.7571 14.5411C12.9207 14.1877 12.4207 13.886 12.1934 14.2308C11.5207 15.3084 10.6571 16.4894 10.6298 17.7911C10.6207 18.1704 11.2207 18.1618 11.2571 17.7911C11.348 16.636 12.2843 15.5842 12.7571 14.5411Z" fill="#EC7724"/>
<path d="M17.5748 36.6611C18.8384 37.7991 20.0838 38.9629 21.3383 40.1094C20.202 41.0491 19.0474 41.9628 17.8293 42.799C16.5839 41.7301 15.3021 40.6956 14.0294 39.6525C15.1839 38.6094 16.3566 37.6094 17.5748 36.6611Z" fill="#FBBE3A"/>
<path d="M16.8646 18.5494C17.1737 18.3167 17.5828 18.6873 17.3101 18.9718C16.6101 19.696 15.6101 20.0753 14.6919 20.4891C14.3101 20.6701 13.9738 20.1356 14.3556 19.946C15.201 19.5322 16.1282 19.127 16.8646 18.5494Z" fill="#1D1D1B"/>
<path d="M14.8287 15.9806C15.3014 15.7047 15.6832 16.3771 15.256 16.6788C14.1742 17.4374 13.0015 18.3685 12.9106 19.7305C12.8742 20.2564 12.0469 20.265 12.0469 19.7305C12.0378 17.946 13.3378 16.8599 14.8287 15.9806Z" fill="#1D1D1B"/>
<path d="M12.1934 14.2308C12.4207 13.886 12.9207 14.1877 12.7571 14.5411C12.2843 15.5842 11.348 16.636 11.2571 17.7911C11.2207 18.1618 10.6207 18.1704 10.6298 17.7911C10.6571 16.4894 11.5207 15.3084 12.1934 14.2308Z" fill="#1D1D1B"/>
<path d="M10.8747 9.04073C10.8838 9.17004 10.9383 9.27354 11.011 9.35975C10.4929 9.55802 9.9747 9.84247 9.47471 10.239C9.10199 10.5321 8.79294 10.8769 8.5384 11.2562C6.093 11.6356 4.14757 10.8425 2.77487 9.02353C3.74758 8.89422 4.72937 8.75628 5.67481 9.06662C6.04752 9.18731 6.51115 8.78214 6.35661 8.42007C5.66572 6.83387 3.9294 1.29941 7.39296 1.19596C10.9565 1.09251 10.8202 7.04074 10.8747 9.04073Z" fill="#99B815"/>
</svg>
