<svg width="50" height="50" viewBox="0 0 50 50" fill="none" xmlns="http://www.w3.org/2000/svg">
<path d="M32.7182 0.533573C33.0234 -0.020359 33.7631 -0.125881 34.3086 0.137897C38.183 2.01952 39.6995 5.91465 39.6625 9.83616C44.0917 9.88012 48.003 11.8057 49.8616 15.8855C50.139 16.501 50.0003 17.0285 49.4363 17.433C46.0057 19.8158 41.854 19.9653 38.1183 18.3474C36.833 28.6524 36.3984 37.8759 27.2257 44.9363C20.2074 50.335 9.51816 52.6211 2.84202 45.6573C-3.0759 39.4937 1.41797 29.857 5.73619 24.2121C11.9408 16.0965 21.2985 13.8104 30.9983 11.5419C30.0644 7.62042 30.7487 4.09459 32.7182 0.533573ZM34.1884 2.68778C32.8754 5.43987 32.4778 8.13921 33.2637 11.2078C33.4024 11.7618 33.125 12.1838 32.7274 12.4036C32.7921 12.8784 32.5702 13.3796 31.9322 13.5203C23.4067 15.5162 14.6685 17.2396 8.69516 23.9571C7.50233 25.3024 6.20781 26.973 5.07971 28.8195C14.5021 28.3183 21.5112 37.2604 21.3725 45.6925C21.3725 45.7804 21.3447 45.842 21.3262 45.9123C24.1835 44.4879 26.7725 42.5184 28.6773 40.3993C34.7524 33.6554 33.9295 25.6981 36.5926 17.7407C36.6481 17.5913 36.7498 17.477 36.8607 17.3978C36.9162 17.134 37.1751 16.9055 37.508 16.9758C40.9016 17.7144 44.3043 17.732 47.291 16.0702C45.4324 13.0103 42.2146 11.8761 38.4142 12.1399C37.8039 12.1838 37.1659 11.5947 37.2121 11.0056C37.508 7.85783 36.8607 4.60457 34.1884 2.68778ZM4.53413 30.8154C4.33995 30.8066 4.17353 30.7538 4.03482 30.6747C1.81561 35.0007 0.798487 39.9245 3.76669 43.7054C8.06642 49.1656 14.7518 48.9018 20.5402 46.2904C20.2721 46.2201 20.0409 46.0266 20.0132 45.6925C19.3936 37.9022 12.8562 31.211 4.53413 30.8154Z" fill="#1D1D1B"/>
<path d="M33.2602 11.2076C32.4742 8.13902 32.8718 5.43968 34.1849 2.68759C36.8572 4.60438 37.5045 7.85764 37.2086 11.0054C37.1623 11.5945 37.8004 12.1836 38.4106 12.1397C42.2111 11.8759 45.4289 13.0101 47.2875 16.07C44.3008 17.7318 40.898 17.7142 37.5045 16.9756C37.1716 16.9053 36.9127 17.1339 36.8572 17.3976C36.7462 17.4768 36.6445 17.5911 36.5891 17.7406C33.926 25.6979 34.7489 33.6552 28.6738 40.3991C26.769 42.5182 24.1799 44.4877 21.3227 45.9121C21.3412 45.8418 21.3689 45.7802 21.3689 45.6923C21.5076 37.2602 14.4986 28.3181 5.07617 28.8193C6.20427 26.9728 7.49879 25.3022 8.69162 23.957C14.665 17.2394 23.4032 15.516 31.9287 13.5201C32.5667 13.3794 32.7886 12.8782 32.7239 12.4034C33.1215 12.1836 33.3989 11.7616 33.2602 11.2076Z" fill="#C6C6C6"/>
<path d="M4.0323 30.6749C4.17099 30.754 4.33741 30.8068 4.53158 30.8156C12.8532 31.2113 19.3904 37.9024 20.0099 45.6927C20.0376 46.0268 20.2688 46.2203 20.5369 46.2906C14.7487 48.902 8.0637 49.1658 3.76418 43.7056C0.796118 39.9248 1.81319 35.0009 4.0323 30.6749ZM6.75997 36.9968C6.35313 36.9441 5.92778 37.0496 5.64115 37.3573C5.31753 37.6299 5.03091 37.9288 4.73503 38.2278C4.50387 38.4564 4.37439 38.7553 4.3559 39.0543C4.34665 39.0631 4.34669 39.0631 4.33744 39.0719C3.49603 40.0127 4.77201 41.2261 5.77061 40.4259L5.77986 40.4171C6.09424 40.3908 6.40857 40.2677 6.65821 40.0479C6.97259 39.7753 7.27775 39.4939 7.56439 39.195C7.88801 38.9224 7.99894 38.5091 7.94346 38.1223C7.91572 37.8497 7.79555 37.5771 7.56439 37.3573C7.33323 37.1375 7.05585 37.0232 6.75997 36.9968Z" fill="#EDEDED"/>
<path d="M5.64345 37.3573C5.93002 37.0496 6.35528 36.9441 6.76202 36.9969C7.05784 37.0233 7.33516 37.1375 7.56626 37.3573C7.79737 37.5771 7.91752 37.8496 7.94525 38.1221C8.00072 38.5089 7.88981 38.922 7.56626 39.1945C7.27969 39.4934 6.9746 39.7747 6.66029 40.0472C6.4107 40.267 6.09644 40.3901 5.78214 40.4164L5.77288 40.4252C4.77451 41.2252 3.49882 40.0121 4.34004 39.0715C4.34929 39.0627 4.34925 39.0627 4.35849 39.0539C4.37698 38.755 4.50643 38.4561 4.73754 38.2276C5.03335 37.9287 5.3199 37.6298 5.64345 37.3573Z" fill="#1D1D1B"/>
</svg>
