<svg width="30" height="30" viewBox="0 0 30 30" fill="none" xmlns="http://www.w3.org/2000/svg">
<path d="M11.2438 27.6C12.1978 28.4713 13.451 29 14.8235 29C16.196 29 17.4491 28.4713 18.4031 27.6M22.9412 9.4V1M18.8823 5.2H27M16.1764 1.11745C15.7323 1.03977 15.2798 1 14.8235 1C12.6705 1 10.6057 1.885 9.08339 3.4603C7.56102 5.03561 6.70577 7.17218 6.70577 9.4C6.70577 13.7263 5.65111 16.6883 4.47295 18.6476C3.47916 20.3002 2.98226 21.1265 3.00048 21.3571C3.02066 21.6123 3.07291 21.7096 3.27168 21.8622C3.4512 22 4.26044 22 5.87892 22H23.768C25.3864 22 26.1956 22 26.3751 21.8622C26.5739 21.7096 26.6262 21.6123 26.6463 21.3571C26.6646 21.1266 26.1676 20.3001 25.1738 18.6472C24.5081 17.5401 23.8818 16.1127 23.463 14.3" stroke="#6C6C7D" stroke-width="1.5" stroke-linecap="round" stroke-linejoin="round"/>
</svg>
