<svg width="37" height="42" viewBox="0 0 37 42" fill="none" xmlns="http://www.w3.org/2000/svg">
<path d="M12.8604 38.55C14.2119 39.7636 15.9872 40.5 17.9315 40.5C19.8759 40.5 21.6512 39.7636 23.0027 38.55M29.4316 13.2V1.5M23.6816 7.35H35.1816M19.8482 1.66359C19.219 1.55539 18.5781 1.5 17.9315 1.5C14.8815 1.5 11.9565 2.73268 9.79977 4.92685C7.64309 7.12103 6.43148 10.097 6.43148 13.2C6.43148 19.2259 4.93737 23.3516 3.26832 26.0806C1.86046 28.3824 1.15651 29.5334 1.18233 29.8545C1.21091 30.21 1.28493 30.3456 1.56653 30.5581C1.82084 30.75 2.96726 30.75 5.26011 30.75H30.603C32.8957 30.75 34.0421 30.75 34.2964 30.5581C34.578 30.3456 34.652 30.21 34.6806 29.8545C34.7064 29.5334 34.0024 28.3823 32.5945 26.0801C31.6514 24.538 30.7642 22.5499 30.1708 20.025" stroke="#6C6C7D" stroke-width="2" stroke-linecap="round" stroke-linejoin="round"/>
</svg>
