<svg width="50" height="50" viewBox="0 0 50 50" fill="none" xmlns="http://www.w3.org/2000/svg">
<path d="M33.0378 21.3942C34.0199 26.3301 39.7287 29.8426 38.9222 35.2279C38.1478 40.3801 34.5548 44.4836 29.4608 44.8831C24.6622 45.266 18.6341 44.8165 14.2188 42.6191C10.3464 40.6881 6.81729 36.1851 8.86128 31.4823C10.7855 27.0209 16.9254 25.4478 18.0512 20.6867C19.2169 15.8009 20.1032 5.48809 25.9557 7.09452C25.5086 4.8555 25.8998 2.57486 27.0895 0.527285C27.2651 0.22764 27.6244 -0.0303918 27.9757 0.00290212C29.1494 0.119431 30.1235 0.568904 31.1695 1.12658C31.6884 1.40125 31.8561 2.33347 31.3691 2.733C30.3072 3.59032 29.5087 4.73898 28.9179 6.00415C28.6145 6.6617 28.4308 7.4441 28.0955 8.10165C28.3031 8.22651 28.5107 8.35968 28.7183 8.51783C28.7342 8.52615 28.7342 8.53447 28.7422 8.5428C33.8442 10.89 32.0717 16.5583 33.0378 21.3942ZM35.0977 39.4312C36.479 37.0257 37.6208 34.2124 36.1357 31.5322C34.3392 28.2861 31.7124 25.7807 31.0417 21.9686C30.2513 17.4739 32.2074 12.4382 27.6005 9.70808C27.4168 9.59987 27.313 9.42507 27.2731 9.23363C27.2651 9.23363 27.2492 9.23365 27.2412 9.22533C27.0017 9.33353 26.7462 9.29191 26.5785 9.04221C20.3427 7.61057 21.3328 17.94 19.4724 22.3015C18.1949 25.298 15.2088 26.9044 12.9892 29.0102C8.58981 33.172 10.1308 39.1815 15.7358 41.1791C19.4645 42.5026 23.6642 43.0603 27.6005 42.9104C30.4349 42.8022 33.5009 42.2112 35.0977 39.4312Z" fill="#1D1D1B"/>
<path d="M36.1339 31.5352C37.619 34.2153 36.4772 37.0287 35.0959 39.4342C33.499 42.2142 30.4331 42.8052 27.5986 42.9134C23.6624 43.0632 19.4626 42.5055 15.7339 41.1821C10.1289 39.1845 8.58796 33.1749 12.9873 29.0132C15.207 26.9073 18.1931 25.3009 19.4706 22.3045C21.3309 17.9429 20.3409 7.61352 26.5766 9.04516C26.7443 9.29486 26.9998 9.33648 27.2393 9.22828C27.2473 9.2366 27.2633 9.23658 27.2713 9.23658C27.3112 9.42802 27.415 9.60282 27.5986 9.71103C32.2056 12.4411 30.2494 17.4768 31.0399 21.9715C31.7106 25.7837 34.3374 28.289 36.1339 31.5352Z" fill="#D7C94F"/>
<path d="M29.6958 33.1053C30.0051 32.7436 30.6759 32.7534 30.7352 33.331C31.5858 41.4647 19.7451 46.0696 13.5463 43.8457C4.02124 40.426 4.54662 27.44 10.7685 20.7327C10.9973 20.487 11.283 20.7301 11.2833 20.9959C11.3795 20.9766 11.4801 20.9858 11.5686 21.0511C14.587 23.3211 17.2437 25.8754 20.5036 27.8755C23.5118 29.7196 26.6578 31.3198 29.6958 33.1053ZM29.4752 33.8371C29.1969 33.7433 28.9231 33.6392 28.6492 33.535C26.4981 39.2543 19.6268 43.7588 13.8252 41.2066C7.63396 38.4762 7.79881 27.6816 11.8414 22.8567C11.5242 22.4594 11.2324 22.0529 10.9882 21.6243C9.05329 25.1617 7.15638 29.1657 7.53805 33.2318C7.90413 37.1234 10.1162 41.3325 14.003 42.5566C17.2137 43.5614 20.9187 43.056 23.9356 41.3878C27.1114 39.6259 28.8219 37.2844 29.4752 33.8371ZM27.7101 33.1697C27.4337 33.0547 27.158 32.9327 26.8854 32.8144C25.958 34.931 24.1096 38.6329 21.4771 36.8492C20.4618 36.1676 20.3548 34.3857 20.2911 33.2797C20.2356 32.2769 20.071 30.435 20.7183 29.5502C20.3175 29.3041 19.9242 29.0513 19.5304 28.8056C17.638 30.4172 14.8053 32.0604 12.4294 30.9542C9.76143 29.7143 12.0863 26.0041 13.4912 24.5597C13.0412 24.162 12.6071 23.7438 12.2166 23.3069C9.4516 28.1619 8.47271 38.2545 14.6172 40.4612C19.8781 42.3446 25.8173 38.2798 27.7018 33.1834C27.7056 33.18 27.7094 33.1767 27.7101 33.1697ZM26.2568 32.5341C24.6012 31.7771 22.9875 30.9056 21.4277 29.9804C21.4913 30.7036 21.287 31.5639 21.2961 32.2699C21.3124 33.281 21.2894 34.8783 21.9527 35.6994C23.3645 37.4421 25.4045 33.8645 26.2568 32.5341ZM18.998 28.467C17.4219 27.4523 15.6073 26.3283 14.0133 25.0112C13.2541 26.2796 10.6667 29.9146 13.5513 30.0821C15.3223 30.1864 17.373 29.4097 18.998 28.467Z" fill="#1D1D1B"/>
<path d="M28.6485 33.5353C28.9224 33.6395 29.1962 33.7437 29.4745 33.8375C28.8212 37.2847 27.1107 39.6262 23.9349 41.3881C20.918 43.0563 17.213 43.5618 14.0023 42.5569C10.1155 41.3329 7.90343 37.1237 7.53735 33.2321C7.15568 29.166 9.05259 25.1621 10.9875 21.6246C11.2317 22.0532 11.5235 22.4597 11.8407 22.857C7.79811 27.6819 7.63327 38.4766 13.8245 41.2069C19.6261 43.7592 26.4974 39.2546 28.6485 33.5353Z" fill="#FF725E"/>
<path d="M26.8869 32.8133C27.1595 32.9315 27.4352 33.0536 27.7116 33.1685C27.7109 33.1756 27.7071 33.1789 27.7033 33.1822C25.8188 38.2786 19.8796 42.3435 14.6187 40.46C8.47422 38.2534 9.45311 28.1607 12.2181 23.3058C12.6086 23.7427 13.0427 24.1608 13.4927 24.5586C12.0878 26.0029 9.76294 29.7132 12.431 30.953C14.8068 32.0593 17.6395 30.4161 19.5319 28.8045C19.9258 29.0502 20.319 29.3029 20.7198 29.549C20.0726 30.4339 20.2371 32.2758 20.2926 33.2785C20.3563 34.3845 20.4633 36.1665 21.4786 36.848C24.1111 38.6317 25.9595 34.9299 26.8869 32.8133ZM19.0093 31.0079C19.2246 30.9103 19.1776 30.5815 18.9187 30.6199C18.7807 30.6369 18.6523 30.665 18.5168 30.6928C18.5029 30.692 18.4921 30.6949 18.4814 30.6979C16.0534 31.1235 14.0973 32.1678 12.1789 33.8347C11.9775 34.0111 11.9512 34.2612 12.0312 34.4962C12.8026 36.7803 15.635 40.4008 18.4695 39.2752C19.9435 38.6855 20.2519 37.6042 20.1533 36.1134C20.0354 34.4124 19.726 32.548 19.0093 31.0079Z" fill="#FF725E"/>
<path d="M21.4279 29.9775C22.9877 30.9027 24.6014 31.7742 26.257 32.5312C25.4047 33.8616 23.3647 37.4391 21.9529 35.6965C21.2896 34.8754 21.3126 33.2781 21.2963 32.2669C21.2872 31.561 21.4915 30.7007 21.4279 29.9775Z" fill="#EB996E"/>
<path d="M18.917 30.6218C19.1759 30.5834 19.2229 30.9122 19.0076 31.0098C19.7243 32.5499 20.0337 34.4143 20.1516 36.1153C20.2502 37.6061 19.9418 38.6874 18.4679 39.2771C15.6333 40.4027 12.8009 36.7822 12.0295 34.4981C11.9495 34.2631 11.9758 34.013 12.1772 33.8366C14.0956 32.1697 16.0517 31.1254 18.4797 30.6998C18.4904 30.6968 18.5012 30.6939 18.5151 30.6947C18.6506 30.6669 18.7791 30.6388 18.917 30.6218ZM18.0566 31.4272C18.0509 31.4127 18.0522 31.3986 18.0465 31.3841C16.3104 32.1255 14.6415 33.2429 13.1838 34.4219C13.9349 36.2759 16.1821 39.3705 18.3079 38.2684C20.2203 37.2819 18.7031 32.9314 18.0566 31.4272Z" fill="#1D1D1B"/>
<path d="M14.0149 24.9634C15.609 26.2805 17.4235 27.4045 18.9997 28.4192C17.3746 29.3619 15.324 30.1386 13.553 30.0344C10.6683 29.8669 13.2557 26.2318 14.0149 24.9634Z" fill="#EB996E"/>
<path d="M18.0477 31.3801C18.0534 31.3946 18.0521 31.4087 18.0578 31.4232C18.7043 32.9275 20.2214 37.2779 18.3091 38.2645C16.1833 39.3666 13.9361 36.272 13.185 34.418C14.6427 33.2389 16.3116 32.1215 18.0477 31.3801Z" fill="#EB996E"/>
<path d="M43.5038 40.2365C42.9695 41.1204 42.7873 42.1314 43.0544 43.0904C42.2954 43.6277 41.2814 44.0899 40.5042 43.7317C39.7634 43.3908 39.3748 42.5705 39.2473 41.7732C39.138 41.0684 39.3323 40.1903 40.0124 39.7859C40.4313 39.5375 40.9839 39.5144 41.4636 39.5779C41.8522 39.6241 42.2287 39.7339 42.593 39.8552C42.8905 39.9534 43.1941 40.1325 43.5038 40.2365Z" fill="#82368C"/>
<path d="M42.4597 38.9298C42.1865 38.8431 41.9071 38.768 41.6157 38.716C40.9356 38.6062 40.2616 38.6467 39.6241 38.9182C39.5087 38.9702 39.4054 39.028 39.3022 39.0915C39.3508 39.0222 39.3508 38.9355 39.2719 38.8662C38.2882 38.0227 34.5053 35.211 37.163 31.2409C37.4788 30.7614 44.0464 30.8094 44.6111 30.6823C45.3094 30.5321 47.3307 32.2115 47.5469 33.4166C46.8304 34.5033 41.6946 37.9361 42.4597 38.9298Z" fill="#82368C"/>
<path d="M38.0686 35.2968C38.0565 35.3141 38.0383 35.3314 38.0201 35.3546C37.6072 35.9034 37.3825 36.6544 37.425 37.3477C36.3685 37.0819 35.063 37.4286 34.2372 38.1276C32.7556 37.9138 32.0876 36.7988 32.6888 35.4585C32.9438 34.8924 33.3931 34.4302 33.9214 34.0894C34.5468 33.685 35.2148 33.6792 35.8948 33.5059C35.9191 33.7023 35.9677 33.9045 36.0588 34.0894C36.4474 34.9039 37.2186 35.1986 38.0686 35.2968Z" fill="#82368C"/>
<path d="M39.0586 39.199C39.1011 39.2047 39.1375 39.199 39.174 39.1874C38.4392 39.7478 38.1295 40.7184 38.1599 41.5965C38.172 41.8565 38.2085 42.1222 38.2692 42.3822C36.7148 43.4741 35.0267 42.9368 34.4438 41.1632C34.2191 40.4757 34.2859 39.7247 34.6806 39.1065C35.2878 38.1475 36.5144 38.2515 37.5041 38.0435C37.5284 38.0378 37.5466 38.0262 37.5648 38.0146C37.7834 38.6097 38.2571 39.0719 39.0586 39.199Z" fill="#82368C"/>
<path d="M33.5084 41.7647C33.4902 41.7821 33.4659 41.7994 33.4477 41.8283C32.8891 42.7353 31.954 43.8561 30.697 43.5903C29.8166 43.4054 29.1426 42.4291 28.8207 41.6954C28.4564 40.875 28.3472 39.8871 28.7783 39.0726C29.009 38.6393 29.3976 38.3504 29.8469 38.1367C30.5331 37.8074 31.3164 37.9633 31.9965 37.7207C32.4215 38.1887 33.0712 38.4948 33.8242 38.5584C33.1927 39.3845 33.1259 40.4706 33.3991 41.4412C33.4295 41.551 33.472 41.6607 33.5084 41.7647Z" fill="#82368C"/>
<path d="M29.0973 32.1312C29.0002 33.8586 30.3239 34.9736 31.933 34.858C31.8237 35.0487 31.7326 35.2393 31.6597 35.4242C31.4533 35.973 31.429 36.4756 31.5565 36.9147C30.5 36.7529 29.2734 37.2555 28.4901 37.9661C27.3364 37.3422 26.5167 36.597 26.3892 35.1815C26.2252 33.3386 27.5064 32.5183 29.0244 31.7961C29.0912 31.7672 29.1338 31.721 29.158 31.6748C29.1277 31.825 29.1034 31.9752 29.0973 32.1312Z" fill="#82368C"/>
<path d="M30.3059 28.7078C30.5427 28.91 30.7553 29.1469 30.9799 29.378C30.0934 29.7593 29.4255 30.5681 29.1887 31.5213C29.1704 31.3596 29.0369 31.2036 28.8486 31.192C28.1139 31.1516 27.5067 31.3307 27.0148 31.6542C26.4198 30.6374 26.2801 29.5629 27.3245 28.6501C27.8285 28.211 28.545 28.055 29.2008 28.1706C29.474 28.2168 29.7048 28.3092 29.9173 28.4305C29.9659 28.5114 30.0205 28.5865 30.0752 28.6616C30.1298 28.7309 30.233 28.7425 30.3059 28.7078Z" fill="#82368C"/>
<path d="M35.6017 32.7151C34.4177 32.5244 33.2154 33.2466 32.42 34.1767C31.0598 34.2633 30.0579 33.5008 30.064 32.1316C30.0701 30.4793 31.4788 29.9478 32.9543 29.8438C33.2883 29.8207 33.355 29.399 33.0332 29.295C32.5839 29.1506 32.1528 29.1159 31.7399 29.1679C31.3999 28.5093 30.8169 28.0124 30.1369 27.7294C30.0276 26.8686 30.4283 26.1695 31.5941 26.0598C32.2256 26.0078 32.8632 26.1638 33.4218 26.4237C33.9015 26.649 34.2294 27.1748 34.6606 27.4232C34.3145 27.6832 34.0109 27.9951 33.7862 28.3417C32.6446 30.1038 33.3186 32.3915 35.6017 32.7151Z" fill="#82368C"/>
<path d="M38.9811 26.7282C38.8354 26.913 38.7322 27.1095 38.6775 27.3059C37.7363 26.4451 36.3701 26.4971 35.265 27.0575C35.1496 26.6126 34.676 26.2429 34.2145 25.9714C33.917 24.4635 34.6821 23.4121 36.4491 23.8454C38.04 24.2324 38.7747 25.3532 38.9811 26.7282Z" fill="#82368C"/>
<path d="M44.7465 27.5883C45.372 28.53 44.6008 29.5179 44.0786 30.3498C43.6597 30.3671 43.2467 30.448 42.8521 30.5867C42.4999 30.708 42.1538 30.8813 41.838 31.095C41.8198 31.043 41.8016 30.9911 41.7712 30.9506C41.1093 30.1649 39.6156 30.1187 38.6684 30.3036C37.7029 30.4884 36.8711 31.1066 36.3367 31.8807C36.1546 32.1465 36.0149 32.4642 35.9481 32.7935C35.857 32.7646 35.772 32.7415 35.6809 32.7242C35.9542 32.7242 36.0513 32.3718 35.7659 32.2736C34.1325 31.6728 33.7561 30.1765 34.6061 28.79C34.9523 28.2296 35.517 27.7674 36.1728 27.5652C37.1443 27.2706 37.7879 27.8656 38.6016 28.2238C38.632 28.2411 38.6684 28.2469 38.6987 28.2527C38.8566 28.8015 39.227 29.3272 39.6399 29.7201C39.8282 29.8992 40.1439 29.6681 40.0103 29.4543C39.6581 28.8939 39.3302 28.2469 39.5002 27.6692C39.6581 27.6634 39.8099 27.5767 39.8706 27.3919C39.9071 27.2706 39.9374 27.1492 39.9557 27.0279C40.6054 26.5138 41.6255 26.4502 42.4148 26.5022C43.271 26.5542 44.2729 26.8604 44.7465 27.5883Z" fill="#82368C"/>
<path d="M48.8375 35.2466C49.8697 36.3962 48.3274 38.2276 47.6231 39.1115C47.6231 39.1173 47.623 39.123 47.617 39.1288C46.4086 38.6031 44.8906 38.6609 43.9312 39.5506C43.8583 39.4986 43.7794 39.4523 43.6944 39.4061C42.9233 38.4356 42.0793 37.1819 42.7472 36.0323C43.3301 35.0386 44.6295 34.6226 45.7407 34.4666C46.773 34.3164 48.1088 34.4378 48.8375 35.2466Z" fill="#82368C"/>
<path d="M48.0333 40.4326C49.3085 41.6054 48.592 43.4021 47.4565 44.4073C46.491 45.2623 45.1066 44.5749 44.4387 43.7372C43.5643 42.6279 43.619 41.253 44.293 40.0918C45.5438 39.3754 46.91 39.3985 48.0333 40.4326Z" fill="#82368C"/>
<path d="M35.6767 32.7241C35.7678 32.7414 35.8528 32.7645 35.9439 32.7934C36.0106 32.4641 36.1503 32.1463 36.3325 31.8806C36.8668 31.1065 37.6987 30.4883 38.6641 30.3034C39.6114 30.1186 41.1051 30.1648 41.767 30.9505C41.7973 30.9909 41.8156 31.0429 41.8338 31.0949C42.1495 30.8811 42.4956 30.7078 42.8478 30.5865C43.2425 30.4479 43.6554 30.367 44.0744 30.3496C44.5966 29.5177 45.3677 28.5298 44.7423 27.5882C44.2687 26.8602 43.2668 26.554 42.4106 26.5021C41.6212 26.4501 40.6011 26.5136 39.9514 27.0278C39.9332 27.1491 39.9028 27.2704 39.8664 27.3917C39.8057 27.5766 39.6539 27.6633 39.496 27.669C39.326 28.2468 39.6539 28.8938 40.0061 29.4542C40.1397 29.6679 39.8239 29.899 39.6357 29.7199C39.2228 29.3271 38.8524 28.8014 38.6945 28.2525C38.6641 28.2468 38.6277 28.241 38.5974 28.2236C37.7837 27.8655 37.1401 27.2704 36.1685 27.565C35.5127 27.7672 34.948 28.2294 34.6019 28.7898C33.7518 30.1763 34.1283 31.6726 35.7617 32.2734C36.0471 32.3717 35.9499 32.7241 35.6767 32.7241ZM35.6038 32.7125C33.3207 32.389 32.6467 30.1012 33.7883 28.3392C34.0129 27.9926 34.3165 27.6806 34.6627 27.4206C34.2315 27.1722 33.9036 26.6465 33.4239 26.4212C32.8653 26.1612 32.2277 26.0052 31.5962 26.0572C30.4304 26.167 30.0296 26.866 30.1389 27.7268C30.819 28.0099 31.4019 28.5067 31.742 29.1653C32.1549 29.1133 32.586 29.148 33.0353 29.2924C33.3571 29.3964 33.2904 29.8181 32.9564 29.8413C31.4809 29.9452 30.0722 30.4767 30.0661 32.129C30.06 33.4982 31.0619 34.2608 32.4221 34.1741C33.2175 33.244 34.4198 32.5219 35.6038 32.7125ZM49.6364 34.9136C50.614 36.4503 49.4178 38.3684 48.3856 39.5816C48.5374 39.6971 48.6831 39.8242 48.8106 39.9629C49.4421 40.6561 49.8368 41.54 49.6728 42.4759C49.515 43.3772 48.9321 44.5037 48.167 45.0814C46.7157 46.1791 44.9062 45.7458 43.7768 44.4402C43.5522 44.1744 43.3821 43.8971 43.2486 43.6082C43.1757 43.6949 43.1089 43.7873 43.0239 43.8682C42.1313 44.7001 40.7833 45.1854 39.66 44.4402C39.0953 44.0704 38.6945 43.5274 38.4516 42.9208C36.8365 44.3304 34.6808 43.9549 33.7215 42.2333C33.0657 43.3194 32.0516 44.4286 30.6065 44.2437C29.3253 44.0878 28.4084 43.1287 27.9287 42.0484C27.4672 40.9796 27.3276 39.6047 27.9773 38.5706C25.257 38.2586 24.6923 33.8333 26.5989 31.9846C25.3723 30.9043 25.6152 28.9573 26.9936 27.9926C27.7526 27.4611 28.6816 27.334 29.5378 27.5304C29.4649 27.1838 29.4771 26.8487 29.5803 26.5425C29.5013 26.554 29.4224 26.5425 29.3496 26.4847C26.1982 24.041 17.8187 23.9139 20.5329 18.2407C20.63 18.0443 20.9093 17.9634 21.1219 18.0154C24.9898 19.038 29.4832 21.8457 31.3108 25.3524C32.0395 25.2657 32.7803 25.3466 33.4604 25.6124C33.2964 24.8787 33.3146 24.0756 33.8854 23.5384C34.5412 22.9202 35.5006 22.7873 36.381 22.9491C37.9416 23.2437 39.5932 24.4916 39.9271 26.0283C40.6862 25.6701 41.603 25.5604 42.4106 25.6239C43.5886 25.7221 45.0095 26.1323 45.5863 27.2184C46.1207 28.2236 45.8292 29.4946 45.1734 30.4421C46.5032 30.7309 47.6265 31.6495 47.6933 33.1458C47.7115 33.4751 47.1711 33.6369 47.0193 33.3191C46.6247 32.5161 46.3757 31.5802 45.3617 31.2855C45.0763 31.2047 44.7848 31.1816 44.4934 31.1873C44.3537 31.274 44.208 31.2798 44.0865 31.222C43.8133 31.2624 43.5461 31.3202 43.2911 31.4126C42.6474 31.638 41.9249 32.0366 41.597 32.6432C41.3723 33.0534 41.5544 33.4924 41.3116 33.8737C41.2812 33.9142 41.2266 33.9546 41.1719 33.9488C40.3643 33.8679 40.4676 32.8454 40.7165 32.3254C40.8622 32.0135 41.0748 31.7362 41.3237 31.4993C40.5586 31.3606 39.9029 30.9505 39.0588 31.1122C38.3666 31.2451 37.7351 31.5628 37.2918 32.0943C36.2778 33.3191 37.0672 34.463 38.4759 34.8732C39.6175 33.9142 41.4026 33.8795 42.5321 34.9194C43.4064 34.099 44.6816 33.6831 45.8899 33.5906C47.1954 33.4924 48.8895 33.7466 49.6364 34.9136ZM47.6205 39.1136C48.3248 38.2297 49.8671 36.3983 48.8349 35.2487C48.1062 34.4399 46.7704 34.3186 45.7381 34.4688C44.6269 34.6247 43.3275 35.0407 42.7446 36.0344C42.0767 37.184 42.9207 38.4377 43.6918 39.4082C43.7769 39.4545 43.8558 39.5007 43.9286 39.5527C44.888 38.663 46.406 38.6052 47.6144 39.1309C47.6205 39.1252 47.6205 39.1194 47.6205 39.1136ZM47.4565 44.4055C48.592 43.4003 49.3085 41.6036 48.0334 40.4308C46.91 39.3967 45.5438 39.3736 44.293 40.09C43.619 41.2512 43.5643 42.6261 44.4387 43.7353C45.1066 44.573 46.491 45.2605 47.4565 44.4055ZM43.0542 43.0883C42.7871 42.1293 42.9693 41.1183 43.5036 40.2344C43.1939 40.1304 42.8903 39.9513 42.5928 39.8531C42.2285 39.7318 41.852 39.622 41.4634 39.5758C40.9837 39.5122 40.4311 39.5353 40.0122 39.7838C39.3321 40.1882 39.1378 41.0663 39.2471 41.7711C39.3746 42.5683 39.7632 43.3887 40.504 43.7296C41.2812 44.0877 42.2952 43.6256 43.0542 43.0883ZM41.6152 38.715C41.9066 38.767 42.186 38.8421 42.4592 38.9287C41.6941 37.9351 41.2994 36.6005 42.0159 35.5144C41.4452 35.1851 40.844 34.8385 40.1457 34.9887C39.581 35.1158 39.0771 35.4278 38.7613 35.9073C38.0448 36.9992 38.2877 38.0217 39.2713 38.8652C39.3503 38.9345 39.3503 39.0212 39.3017 39.0905C39.4049 39.0269 39.5082 38.9692 39.6235 38.9172C40.2611 38.6457 40.9351 38.6052 41.6152 38.715ZM39.1742 39.1887C39.1378 39.2003 39.1013 39.206 39.0588 39.2003C38.2573 39.0732 37.7837 38.611 37.5651 38.0159C37.5469 38.0275 37.5287 38.0391 37.5044 38.0448C36.5146 38.2528 35.2881 38.1488 34.6809 39.1078C34.2862 39.726 34.2194 40.477 34.444 41.1645C35.027 42.9381 36.715 43.4754 38.2695 42.3835C38.2088 42.1235 38.1723 41.8578 38.1601 41.5978C38.1298 40.7197 38.4395 39.7491 39.1742 39.1887ZM38.6763 27.3051C38.7309 27.1087 38.8342 26.9122 38.9799 26.7274C38.7734 25.3524 38.0387 24.2316 36.4478 23.8446C34.6809 23.4113 33.9158 24.4627 34.2133 25.9706C34.6748 26.2421 35.1484 26.6118 35.2638 27.0567C36.3689 26.4963 37.7351 26.4443 38.6763 27.3051ZM38.0205 35.3527C38.0387 35.3296 38.0569 35.3122 38.0691 35.2949C37.219 35.1967 36.4478 34.9021 36.0592 34.0875C35.9681 33.9026 35.9196 33.7004 35.8953 33.504C35.2152 33.6773 34.5473 33.6831 33.9218 34.0875C33.3936 34.4283 32.9443 34.8905 32.6892 35.4567C32.0881 36.797 32.756 37.912 34.2376 38.1257C35.0634 37.4267 36.3689 37.08 37.4254 37.3458C37.3829 36.6525 37.6076 35.9015 38.0205 35.3527ZM33.4482 41.8289C33.4665 41.8 33.4907 41.7827 33.5089 41.7653C33.4725 41.6613 33.43 41.5516 33.3996 41.4418C33.1264 40.4712 33.1932 39.3851 33.8247 38.559C33.0718 38.4954 32.422 38.1893 31.997 37.7213C31.3169 37.9639 30.5336 37.808 29.8475 38.1373C29.3981 38.351 29.0095 38.6399 28.7788 39.0732C28.3477 39.8877 28.4569 40.8756 28.8213 41.696C29.1431 42.4297 29.8171 43.406 30.6976 43.5909C31.9545 43.8567 32.8896 42.7359 33.4482 41.8289ZM31.9302 34.8558C30.3211 34.9714 28.9974 33.8564 29.0945 32.129C29.1006 31.973 29.1249 31.8228 29.1553 31.6726C29.131 31.7188 29.0885 31.7651 29.0217 31.7939C27.5036 32.5161 26.2224 33.3364 26.3864 35.1794C26.5139 36.5948 27.3336 37.34 28.4873 37.9639C29.2706 37.2534 30.4972 36.7507 31.5537 36.9125C31.4262 36.4734 31.4505 35.9708 31.657 35.422C31.7298 35.2371 31.8209 35.0465 31.9302 34.8558ZM30.983 29.3791C30.7583 29.148 30.5458 28.9111 30.3089 28.7089C30.2361 28.7436 30.1328 28.732 30.0782 28.6627C30.0235 28.5876 29.9689 28.5125 29.9204 28.4316C29.7078 28.3103 29.4771 28.2179 29.2038 28.1717C28.548 28.0561 27.8315 28.2121 27.3276 28.6512C26.2832 29.564 26.4228 30.6385 27.0179 31.6553C27.5097 31.3318 28.1169 31.1527 28.8517 31.1931C29.0399 31.2047 29.1735 31.3607 29.1917 31.5224C29.4285 30.5692 30.0964 29.7604 30.983 29.3791ZM29.7503 26.167C29.8839 25.9648 30.0721 25.7857 30.315 25.647C28.6452 22.6833 24.7712 20.0085 21.3405 19.0957C20.3447 23.2495 27.3519 23.7232 29.72 26.1323C29.7321 26.1439 29.7382 26.1554 29.7503 26.167Z" fill="#1D1D1B"/>
<path d="M30.3178 25.646C30.0749 25.7847 29.8867 25.9638 29.7531 26.166C29.741 26.1544 29.7349 26.1429 29.7228 26.1313C27.3547 23.7222 20.3475 23.2485 21.3433 19.0947C24.774 20.0075 28.648 22.6823 30.3178 25.646Z" fill="#99B815"/>
</svg>
