<svg width="51" height="58" viewBox="0 0 51 58" fill="none" xmlns="http://www.w3.org/2000/svg">
<path d="M24.9665 4.92671C24.2613 -1.02873 19.4274 3.74127 18.0463 6.16861C16.6358 8.65239 15.4751 11.2491 14.6229 13.9586C13.0214 19.0109 11.126 25.3756 12.801 30.6113C12.9186 30.9923 12.3015 31.2605 12.1252 30.8935C12.0047 30.6452 11.9062 30.3897 11.8019 30.1343C11.7681 30.3488 11.7373 30.5633 11.7005 30.7778C12.156 31.8842 12.6761 32.9794 13.2712 34.0957C13.9617 30.2147 16.0481 26.3762 17.679 22.9327C19.9563 18.1218 25.6277 10.4164 24.9665 4.92671Z" fill="#FF4121"/>
<path d="M49.2093 6.63424C51.7658 10.4022 51.1194 14.9041 50.1203 19.0814C48.9742 23.8655 48.313 28.2262 48.2249 33.1232C48.122 39.2903 47.123 49.5078 38.0429 48.4211C34.2081 47.9554 30.9758 46.8687 28.7866 43.6088C25.4073 38.5706 23.9821 32.6011 17.0618 31.1334C16.9443 31.1052 16.8708 31.0487 16.7827 31.0064C16.048 33.0809 15.4751 35.1836 15.1518 37.3569C15.3428 37.6956 15.5338 38.0202 15.7542 38.3589C17.8553 41.76 30.1089 55.7031 20.4852 57.834C12.5218 59.6122 7.73205 46.6288 5.74855 41.4354C2.50148 32.8833 -2.05324 20.6479 1.01752 11.4466C1.10568 11.1643 1.32606 11.0232 1.56114 10.995C1.51706 10.9809 1.47298 10.9526 1.41421 10.9385C0.20941 10.5716 0.708938 8.87812 1.94312 9.11803C8.20218 10.374 9.43637 15.2146 9.62738 20.7466C9.80369 26.1517 11.0673 29.962 13.2712 34.097C13.9617 30.2161 16.0481 26.3775 17.679 22.9341C19.9563 18.1217 25.6277 10.4164 24.9665 4.92671C24.2613 -1.02873 19.4274 3.74127 18.0463 6.16861C16.6358 8.65239 15.4751 11.2491 14.6229 13.9586C13.0214 19.0109 11.126 25.3756 12.801 30.6113C12.9186 30.9923 12.3015 31.2605 12.1252 30.8935C9.20133 24.8817 11.3905 16.8375 13.6972 10.9808C15.0783 7.49507 17.8993 -0.548971 23.0711 0.029638C28.5955 0.650584 26.7149 8.3136 25.613 11.2913C25.3926 11.8699 25.1722 12.4344 24.9371 13.013C30.7701 10.995 33.4735 4.98309 39.5416 3.33194C42.5977 2.51342 47.4462 4.02344 49.2093 6.63424ZM45.8447 31.9378C45.9035 25.2626 49.415 18.2911 48.651 11.7853C48.0927 7.00115 42.4507 3.36017 37.7344 6.33789C35.648 7.65034 34.0171 9.25916 32.1806 10.8397C29.9914 12.7026 27.9197 14.0856 25.1134 14.8759C24.7314 14.9888 24.4375 14.8759 24.2319 14.6642C22.1602 19.3495 19.589 23.9361 17.6495 28.6919C17.6936 28.7061 17.723 28.692 17.7524 28.7061C25.1869 30.2867 26.6415 35.7764 30.3587 41.3084C33.0328 45.3022 41.5251 49.042 44.302 42.8043C45.83 39.3891 45.8153 35.5788 45.8447 31.9378ZM18.9719 55.943C24.6286 55.689 20.544 50.2698 19.0894 47.913C16.6211 43.891 13.9617 39.9677 11.5668 35.9034C9.90655 33.0527 8.34912 30.3854 7.74672 27.1537C6.70355 21.4099 9.01027 13.9586 2.22228 11.249C2.33982 11.3901 2.39862 11.5736 2.33985 11.7994C0.50327 18.9967 4.08824 28.9036 6.30683 35.734C7.70263 40.0101 12.2427 56.2676 18.9719 55.943Z" fill="#1D1D1B"/>
<path d="M40.8498 22.3273C42.8039 24.9522 42.9508 29.0307 40.3796 31.3592C37.5293 33.9418 31.6669 34.7039 29.3455 31.0064C27.6852 28.3674 28.1407 25.1498 29.7275 22.5813C29.4777 22.0874 29.5365 21.3676 30.0654 21.0007C33.4006 18.6581 38.3961 19.0109 40.8498 22.3273ZM38.8516 29.3976C40.2768 27.6477 39.9682 24.8534 38.3667 23.301C36.1922 21.1842 33.7092 22.0027 31.1821 22.9624C30.3005 25.0651 29.8891 27.7747 31.138 29.5811C32.813 32.0084 37.1032 31.5427 38.8516 29.3976Z" fill="#1D1D1B"/>
<path d="M38.3667 23.301C39.9682 24.8534 40.2768 27.6477 38.8516 29.3976C37.1032 31.5427 32.813 32.0084 31.138 29.5811C29.8891 27.7747 30.3005 25.0651 31.1821 22.9624C33.7092 22.0027 36.1922 21.1842 38.3667 23.301Z" fill="#FBBE3A"/>
<path d="M19.0894 47.913C20.544 50.2698 24.6286 55.689 18.9719 55.943C12.2427 56.2676 7.70263 40.0101 6.30683 35.734C4.08824 28.9036 0.50327 18.9967 2.33985 11.7994C2.39862 11.5736 2.33982 11.3901 2.22228 11.249C9.01027 13.9586 6.70355 21.4099 7.74672 27.1537C8.34912 30.3854 9.90655 33.0527 11.5668 35.9034C13.9617 39.9677 16.6211 43.891 19.0894 47.913Z" fill="#FF4121"/>
</svg>
